<svg xmlns="http://www.w3.org/2000/svg" viewBox="0 0 256 256"><path d="M230 198L231 216L224 221L160 215L157 211L160 187L160 173L157 160L153 152L143 143L132 139L122 139L107 145L100 153L93 171L88 207L84 212L30 211L26 206L24 190L28 142L43 91L53 70L74 49L91 39L102 36L144 34L162 40L176 48L199 72L217 108L225 150ZM174 130L183 156L188 203L194 205L197 201L194 158L181 118L173 105L163 95L155 90L147 88L129 89L110 97L79 120L67 132L58 152L54 195L56 197L61 197L63 194L71 158L82 136L98 119L114 108L131 102L150 104L164 113Z" fill="#090909" fill-rule="evenodd"/></svg>
