<svg xmlns="http://www.w3.org/2000/svg" viewBox="0 0 256 256"><!-- Iconic Drills Pack © 2026 Roman Kuzhel, Kyrgyzstan | CC BY 4.0 | https://github.com/roblo3x/iconic-drills-pack --><path d="M24 177C24.6 168.72 27.72 143.32 30 133C32.28 122.68 39.88 99.04 43 91C46.12 82.96 52.76 70.68 56 66C59.24 61.32 65.8 55.24 70 52C74.2 48.76 85.48 41.16 91 39C96.52 36.84 109.64 34.6 116 34C122.36 33.4 138.48 33.28 144 34C149.52 34.72 157.68 37.96 162 40C166.32 42.04 175.56 47.16 180 51C184.44 54.84 195.04 66.36 199 72C202.96 77.64 210.6 92.96 213 98C215.4 103.04 217.56 107.76 219 114C220.44 120.24 224.04 141.96 225 150C225.96 158.04 226.28 175 227 181C227.72 187 230.52 195.8 231 200C231.48 204.2 231.84 213.48 231 216C230.16 218.52 226.4 220.4 224 221C221.6 221.6 218.68 221.72 211 221C203.32 220.28 166.48 216.2 160 215C153.52 213.8 157 214.36 157 211C157 207.64 159.64 191.56 160 187C160.36 182.44 160.36 176.24 160 173C159.64 169.76 157.84 162.52 157 160C156.16 157.48 154.32 153.8 153 152C151.68 150.2 148.52 146.56 146 145C143.48 143.44 135.72 139.48 132 139C128.28 138.52 118 140.28 115 141C112 141.72 108.8 143.56 107 145C105.2 146.44 101.68 149.88 100 153C98.32 156.12 94.44 164.52 93 171C91.56 177.48 89.08 202.08 88 207C86.92 211.92 90.96 211.52 84 212C77.04 212.48 37.08 212.2 30 211C22.92 209.8 25.72 206.08 25 202C24.28 197.92 23.4 185.28 24 177ZM54 184C53.52 189.16 53.76 193.44 54 195C54.24 196.56 55.04 196.88 56 197C56.96 197.12 59.84 201.64 62 196C64.16 190.36 71.6 157.2 74 150C76.4 142.8 79.12 139.72 82 136C84.88 132.28 93.08 122.84 98 119C102.92 115.16 117.6 106.04 123 104C128.4 101.96 138.44 101.28 143 102C147.56 102.72 157.76 107.6 161 110C164.24 112.4 167.36 116.48 170 122C172.64 127.52 180.84 146.28 183 156C185.16 165.72 186.68 197.12 188 203C189.32 208.88 192.92 205.24 194 205C195.08 204.76 197 206.64 197 201C197 195.36 195.92 167.96 194 158C192.08 148.04 183.52 124.36 181 118C178.48 111.64 175.16 107.76 173 105C170.84 102.24 165.16 96.8 163 95C160.84 93.2 156.92 90.84 155 90C153.08 89.16 150.12 88.12 147 88C143.88 87.88 133.44 87.92 129 89C124.56 90.08 116 93.28 110 97C104 100.72 84.16 115.8 79 120C73.84 124.2 69.52 128.16 67 132C64.48 135.84 59.56 145.76 58 152C56.44 158.24 54.48 178.84 54 184Z" fill="#090909" fill-rule="evenodd"/></svg>
