<svg xmlns="http://www.w3.org/2000/svg" viewBox="0 0 256 256"><!-- Iconic Drills Pack © 2026 Roman Kuzhel, Kyrgyzstan | CC BY 4.0 | https://github.com/roblo3x/iconic-drills-pack --><path d="M24 186C24.72 184.08 27.84 178.68 30 177C32.16 175.32 39.84 173.44 42 172C44.16 170.56 47.76 169.08 48 165C48.24 160.92 44.48 143.64 44 138C43.52 132.36 43.28 122.8 44 118C44.72 113.2 47.6 103.04 50 98C52.4 92.96 61.24 79.72 64 76C66.76 72.28 70 69.4 73 67C76 64.6 84.92 58.16 89 56C93.08 53.84 103.04 50.2 107 49C110.96 47.8 116.84 46.12 122 46C127.16 45.88 144.6 47.28 150 48C155.4 48.72 162.32 50.44 167 52C171.68 53.56 184.32 57.76 189 61C193.68 64.24 203 74.8 206 79C209 83.2 212.8 92.76 214 96C215.2 99.24 215.88 103.36 216 106C216.12 108.64 216.08 115.24 215 118C213.92 120.76 209.04 127.44 207 129C204.96 130.56 200.16 131.36 198 131C195.84 130.64 190.08 127.44 189 126C187.92 124.56 188.64 120.2 189 119C189.36 117.8 190.8 116.48 192 116C193.2 115.52 198.16 116.08 199 115C199.84 113.92 199.72 108.68 199 107C198.28 105.32 195.04 102.2 193 101C190.96 99.8 185.24 97.36 182 97C178.76 96.64 170.2 97.04 166 98C161.8 98.96 150.84 102.84 147 105C143.16 107.16 136.28 113.12 134 116C131.72 118.88 128.6 125.88 128 129C127.4 132.12 128.64 140.2 129 142C129.36 143.8 129.68 143.76 131 144C132.32 144.24 136.88 145.92 140 144C143.12 142.08 154 130.28 157 128C160 125.72 162.84 125.24 165 125C167.16 124.76 173.2 125.16 175 126C176.8 126.84 179.4 130.68 180 132C180.6 133.32 180.6 135.44 180 137C179.4 138.56 176.56 143.56 175 145C173.44 146.44 168.2 147.2 167 149C165.8 150.8 164.64 157.96 165 160C165.36 162.04 168.32 164.8 170 166C171.68 167.2 175.88 169.52 179 170C182.12 170.48 190.96 171.08 196 170C201.04 168.92 216.92 161.96 221 161C225.08 160.04 228.68 161.16 230 162C231.32 162.84 232.24 166.32 232 168C231.76 169.68 229.92 173.48 228 176C226.08 178.52 219.12 186.24 216 189C212.88 191.76 205 197.2 202 199C199 200.8 195.68 202.8 191 204C186.32 205.2 173.8 208.76 163 209C152.2 209.24 112.76 206 101 206C89.24 206 72.2 209.12 65 209C57.8 208.88 45.2 205.96 41 205C36.8 204.04 32.04 202.44 30 201C27.96 199.56 24.72 194.8 24 193C23.28 191.2 23.28 187.92 24 186Z" fill="#090909" fill-rule="evenodd"/></svg>
