<svg xmlns="http://www.w3.org/2000/svg" viewBox="0 0 256 256"><!-- Iconic Drills Pack © 2026 Roman Kuzhel, Kyrgyzstan | CC BY 4.0 | https://github.com/roblo3x/iconic-drills-pack --><path d="M41 126C41.6 120.24 44.32 97.88 46 92C47.68 86.12 51.4 81.92 55 77C58.6 72.08 72.76 54.36 76 51C79.24 47.64 78.4 51.16 82 49C85.6 46.84 100.84 35.64 106 33C111.16 30.36 118.28 27.96 125 27C131.72 26.04 155.76 24.88 162 25C168.24 25.12 174.72 27.28 177 28C179.28 28.72 180.52 30.16 181 31C181.48 31.84 181.48 34.04 181 35C180.52 35.96 179.28 37.92 177 39C174.72 40.08 165.48 42.44 162 44C158.52 45.56 151.36 49.48 148 52C144.64 54.52 137.24 61.16 134 65C130.76 68.84 123.52 79.08 121 84C118.48 88.92 113.72 99.4 113 106C112.28 112.6 113.92 133.12 115 139C116.08 144.88 120.32 151.88 122 155C123.68 158.12 125.52 161.4 129 165C132.48 168.6 144.52 181.04 151 185C157.48 188.96 175.68 195.84 183 198C190.32 200.16 208.16 202.16 212 203C215.84 203.84 214.64 204.28 215 205C215.36 205.72 216.68 207.2 215 209C213.32 210.8 205.08 217.84 201 220C196.92 222.16 185.92 225.68 181 227C176.08 228.32 166.48 230.64 160 231C153.52 231.36 134.2 230.96 127 230C119.8 229.04 106.72 225.88 100 223C93.28 220.12 75.56 209.12 71 206C66.44 202.88 64.64 200.36 62 197C59.36 193.64 51.52 184.84 49 178C46.48 171.16 41.96 146.24 41 140C40.04 133.76 40.4 131.76 41 126Z" fill="#090909" fill-rule="evenodd"/></svg>
