<svg xmlns="http://www.w3.org/2000/svg" viewBox="0 0 256 256"><path d="M119 212L125 201L129 201L131 204L130 219L127 226L123 229L119 229L116 225ZM142 31L155 41L163 59L176 56L190 57L198 59L206 66L211 77L212 90L220 94L228 102L231 109L231 119L225 128L211 136L190 136L181 146L172 149L160 149L148 143L142 143L130 151L109 154L83 146L74 136L53 137L45 135L31 124L25 114L24 102L28 92L36 82L49 75L75 73L80 58L88 44L101 35L122 27L130 27ZM157 161L160 163L160 176L157 187L154 191L148 192L145 190L144 182L150 167ZM57 180L57 173L62 161L68 154L72 154L74 157L74 164L68 182L61 185ZM193 154L195 152L200 154L200 164L196 179L190 182L186 180L185 172ZM105 169L108 166L111 167L113 169L113 175L108 194L102 198L97 195L96 188L101 174ZM179 207L176 221L167 221L165 213L172 197L175 195L180 197ZM66 228L62 225L64 213L71 201L76 200L78 208L73 227L70 229Z" fill="#090909" fill-rule="evenodd"/></svg>
