<svg xmlns="http://www.w3.org/2000/svg" viewBox="0 0 256 256"><!-- Iconic Drills Pack © 2026 Roman Kuzhel, Kyrgyzstan | CC BY 4.0 | https://github.com/roblo3x/iconic-drills-pack --><path d="M63 69C63.72 67.2 67.08 62.44 69 61C70.92 59.56 76.48 57.36 79 57C81.52 56.64 87.48 57.4 90 58C92.52 58.6 99.52 63.08 100 62C100.48 60.92 94.84 51.52 94 49C93.16 46.48 92.64 43.28 93 41C93.36 38.72 96.04 31.8 97 30C97.96 28.2 99.08 26.48 101 26C102.92 25.52 111.08 25.76 113 26C114.92 26.24 115.92 27.16 117 28C118.08 28.84 120.8 30.72 122 33C123.2 35.28 126.04 45.32 127 47C127.96 48.68 129.52 47.84 130 47C130.48 46.16 130.4 41.68 131 40C131.6 38.32 133.56 34.68 135 33C136.44 31.32 141.2 27.08 143 26C144.8 24.92 147.84 23.76 150 24C152.16 24.24 158.96 26.44 161 28C163.04 29.56 166.28 34.72 167 37C167.72 39.28 167.6 44 167 47C166.4 50 161.16 60.8 162 62C162.84 63.2 171.36 57.6 174 57C176.64 56.4 182.08 56.64 184 57C185.92 57.36 188.92 59.04 190 60C191.08 60.96 192.52 62.72 193 65C193.48 67.28 194.24 76.6 194 79C193.76 81.4 192.68 83.44 191 85C189.32 86.56 182.04 91.04 180 92C177.96 92.96 174.72 92.52 174 93C173.28 93.48 172.56 94.8 174 96C175.44 97.2 184.08 101.32 186 103C187.92 104.68 189.4 108.2 190 110C190.6 111.8 191.12 116.08 191 118C190.88 119.92 190.44 123.96 189 126C187.56 128.04 181.64 133.8 179 135C176.36 136.2 169.28 136.12 167 136C164.72 135.88 161.92 135.32 160 134C158.08 132.68 152.44 126.08 151 125C149.56 123.92 148.6 123.2 148 125C147.4 126.8 146.84 137.36 146 140C145.16 142.64 142.8 145.68 141 147C139.2 148.32 132.56 148.48 131 151C129.44 153.52 128.48 164.04 128 168C127.52 171.96 126.76 182.08 127 184C127.24 185.92 128.56 185.32 130 184C131.44 182.68 136.6 175.28 139 173C141.4 170.72 146.88 166.68 150 165C153.12 163.32 160.92 159.96 165 159C169.08 158.04 182.08 155.92 184 157C185.92 158.08 182.32 165.24 181 168C179.68 170.76 176.24 176.64 173 180C169.76 183.36 158.2 193.24 154 196C149.8 198.76 141.48 202.04 138 203C134.52 203.96 126.8 200.76 125 204C123.2 207.24 123.6 226.64 123 230C122.4 233.36 121.08 232 120 232C118.92 232 114.72 233.12 114 230C113.28 226.88 114.96 209.12 114 206C113.04 202.88 109.48 205.68 106 204C102.52 202.32 88.72 194.76 85 192C81.28 189.24 76.92 184.36 75 181C73.08 177.64 69.72 167.12 69 164C68.28 160.88 67.08 155.72 69 155C70.92 154.28 80.92 155.96 85 158C89.08 160.04 99.76 168.76 103 172C106.24 175.24 110.8 182.84 112 185C113.2 187.16 112.52 189.4 113 190C113.48 190.6 115.04 194.92 116 190C116.96 185.08 120.88 154.04 121 149C121.12 143.96 118.2 149.2 117 148C115.8 146.8 111.48 142.36 111 139C110.52 135.64 115.16 121.08 113 120C110.84 118.92 96.96 129.04 93 130C89.04 130.96 82.52 128.96 80 128C77.48 127.04 73.32 123.68 72 122C70.68 120.32 69.24 115.92 69 114C68.76 112.08 69.04 108.04 70 106C70.96 103.96 75.2 98.44 77 97C78.8 95.56 84.04 94.72 85 94C85.96 93.28 86.68 91.96 85 91C83.32 90.04 73.64 87.8 71 86C68.36 84.2 63.96 78.04 63 76C62.04 73.96 62.28 70.8 63 69ZM109 86C108.64 88.28 108.64 95.84 109 98C109.36 100.16 111.28 102.8 112 104C112.72 105.2 113.68 107.04 115 108C116.32 108.96 120.24 111.52 123 112C125.76 112.48 135.6 112.36 138 112C140.4 111.64 141.44 110.56 143 109C144.56 107.44 150.04 102.24 151 99C151.96 95.76 151.6 85 151 82C150.4 79 147.32 75.44 146 74C144.68 72.56 142.16 70.6 140 70C137.84 69.4 130.4 68.76 128 69C125.6 69.24 121.92 70.8 120 72C118.08 73.2 113.32 77.32 112 79C110.68 80.68 109.36 83.72 109 86Z" fill="#090909" fill-rule="evenodd"/></svg>
