<svg data-contour-smoothing="organic-v2" xmlns="http://www.w3.org/2000/svg" viewBox="0 0 256 256"><!-- Iconic Drills Pack © 2026 Roman Kuzhel, Kyrgyzstan | CC BY 4.0 | https://github.com/roblo3x/iconic-drills-pack --><path d="M87.98587,57.59968c2.7133,0.54117 8.00577,4.42259 10.57671,3.67144c1.56999,-0.4587 -0.17773,-3.41988 -0.44142,-3.97852c-1.41859,-3.00535 -3.23924,-5.83989 -4.24627,-9.0287c-1.913,-6.05761 0.07512,-18.27441 6.28883,-21.65477c8.42905,-4.58554 19.82676,1.04674 22.98272,9.30519c1.15412,3.02009 1.71405,6.55385 3.33244,9.36782c0.39668,0.68973 1.16416,1.9247 2.26369,1.63286c2.18649,-0.58033 2.76843,-8.19107 3.81499,-10.14483c5.4052,-10.09067 15.72626,-15.48888 26.31882,-9.9595c8.17558,4.2677 10.0241,14.45132 7.3351,22.55249c-1.03262,3.11099 -2.75709,6.11637 -3.45386,9.32767c-0.13495,0.62196 -0.51533,2.12612 0.45409,2.57272c2.1379,0.98492 6.61999,-2.53207 8.51136,-3.32346c6.70553,-2.80577 17.69956,-1.83011 20.78601,5.84019c2.00514,4.98307 2.91948,14.73863 -0.17327,19.38515c-1.81941,2.73346 -4.97279,4.4908 -7.70759,6.1609c-1.6951,1.03517 -3.41044,2.06934 -5.31275,2.68509c-1.37985,0.44664 -4.05382,0.43105 -4.97802,1.80764c-1.07557,1.60206 1.35803,3.06777 2.33074,3.68778c2.79477,1.78139 5.99572,2.96064 8.58754,5.06459c6.23887,5.06451 7.80909,17.13962 3.33718,23.76513c-5.73529,8.49731 -18.59604,13.40715 -28.04704,7.74845c-2.85136,-1.70722 -4.90153,-4.51281 -7.23775,-6.81036c-0.8838,-0.86917 -2.74514,-3.04765 -4.30875,-2.31c-1.5034,0.70925 -1.48987,3.55585 -1.64276,4.85373c-0.45751,3.88394 -0.43288,8.10741 -2.12835,11.71328c-1.10876,2.35807 -2.86298,4.51407 -5.21606,5.70822c-2.84499,1.44379 -6.61146,1.31608 -8.69905,4.06671c-1.55378,2.04728 -1.80078,5.05309 -2.17106,7.50065c-0.89636,5.92503 -1.49997,11.92411 -1.89646,17.90235c-0.11741,1.77036 -1.00461,5.79426 0.45836,7.24431c1.30169,1.29021 3.22463,-1.07505 3.88452,-1.81322c3.127,-3.49794 5.55412,-7.45971 9.14959,-10.54741c9.2151,-7.91369 20.68399,-12.31643 32.59879,-14.0338c2.37485,-0.34231 9.29283,-2.21895 10.61698,0.83504c1.61627,3.7277 -3.64981,11.26181 -5.49985,14.28366c-7.90175,12.90673 -22.85968,24.32291 -37.07059,29.26144c-2.61282,0.908 -5.02455,1.27413 -7.78715,1.08329c-2.35007,-0.16235 -5.44532,-0.93356 -7.50359,0.68387c-1.54566,1.21461 -1.80094,3.35987 -2.02582,5.15042c-0.6635,5.28295 -0.55453,10.67038 -0.75951,15.9826c-0.08081,2.09416 0.22446,5.59183 -1.9492,6.85027c-3.95402,2.28918 -7.30122,-1.02013 -7.50569,-4.76828c-0.28985,-5.31341 0.47248,-10.67423 0.40868,-15.99412c-0.02035,-1.69698 0.09329,-4.01502 -1.29519,-5.30738c-1.38349,-1.28772 -3.63644,-0.94349 -5.3235,-1.28323c-1.97168,-0.39706 -3.72077,-1.31445 -5.48228,-2.24133c-13.69461,-7.20585 -25.36621,-14.19948 -30.61014,-29.50398c-1.28593,-3.75302 -2.59361,-7.61871 -3.20028,-11.55166c-0.24678,-1.59989 -0.65908,-3.94865 0.75472,-5.21363c2.44038,-2.18351 8.55504,-0.09727 11.2489,0.64562c9.34001,2.5757 19.52879,11.2545 25.32783,18.87227c3.38844,4.45115 5.41522,8.76351 7.3884,13.90032c0.41916,1.0912 1.54081,3.04033 2.57764,1.08745c1.67477,-3.15442 1.52432,-8.11666 1.98701,-11.6071c0.87637,-6.61115 1.7002,-13.23065 2.43759,-19.85882c0.32801,-2.94842 1.37569,-6.85585 0.65752,-9.7841c-0.53744,-2.19135 -3.43273,-1.36076 -4.96556,-2.56398c-1.8953,-1.48775 -3.62538,-4.18273 -4.26526,-6.4927c-1.20544,-4.35168 0.8504,-9.40957 1.52332,-13.71623c0.21635,-1.38462 0.8976,-4.03318 -0.31015,-5.22904c-1.26631,-1.25384 -3.63106,0.16083 -4.78133,0.73873c-3.57413,1.79565 -6.88725,4.08144 -10.39936,5.9909c-8.07489,4.39013 -19.37829,1.65295 -25.14046,-5.56915c-5.96877,-7.48106 -3.35819,-16.97193 2.73171,-23.31357c2.53274,-2.63744 5.56812,-2.86091 8.49555,-4.6831c0.77391,-0.48172 1.73641,-1.23825 1.29465,-2.34731c-1.08708,-2.72913 -7.93636,-3.45494 -10.35958,-4.38904c-7.0302,-2.70997 2.80481,-32.02772 13.43297,-29.90792zM115.14778,108.02197c10.79304,9.31212 29.97449,4.84922 35.42587,-8.232c1.26972,-3.04684 1.13819,-6.59703 1.08378,-9.8319c-0.11845,-7.04197 -1.62881,-13.04249 -7.4413,-17.59161c-12.02255,-9.40941 -35.90454,29.75733 -29.06835,35.65551z" fill="#090909" fill-rule="evenodd"/></svg>
