<svg data-contour-smoothing="organic-v2" xmlns="http://www.w3.org/2000/svg" viewBox="0 0 256 256"><!-- Iconic Drills Pack © 2026 Roman Kuzhel, Kyrgyzstan | CC BY 4.0 | https://github.com/roblo3x/iconic-drills-pack --><path d="M42.67254,89.48256c5.19555,-5.58685 15.39707,-7.77786 21.60483,-2.70996c9.95445,8.12662 3.26012,23.43841 8.41998,33.83944c3.51446,7.08429 13.27691,10.81865 20.13602,6.10799c6.73021,-4.62214 2.99131,-18.08706 1.75323,-24.53245c-2.77388,-14.44071 -5.93249,-28.65089 -6.51363,-43.39154c-0.20518,-5.20441 -0.72732,-10.78673 0.16849,-15.94551c2.27092,-13.07773 16.55531,-20.37815 28.96224,-17.71038c21.42765,4.60744 21.09631,31.62418 20.89162,48.72761c-0.03984,3.32893 -0.09347,6.65768 -0.1328,9.98662c-0.08441,7.14482 -1.36957,19.75886 6.6238,23.62401c7.74728,3.74616 16.22863,-0.65825 20.0763,-7.58509c1.6654,-2.99816 1.26951,-6.35244 1.0232,-9.63164c-0.53087,-7.06768 -2.25117,-14.99851 1.59101,-21.41693c6.57474,-10.98318 26.20947,-17.4666 36.49996,-7.93092c6.56154,6.08025 9.41263,16.74278 11.62039,25.07933c2.02641,7.65181 3.01094,15.80147 2.6223,23.72898c-0.99425,20.28072 -18.79957,27.45904 -35.85375,31.03327c-7.627,1.59847 -18.77543,1.87676 -23.02791,9.6172c-1.59848,2.90957 -1.01826,6.51909 -0.69655,9.66521c0.45716,4.4708 0.88347,9.50348 3.04263,13.5305c3.15006,5.87513 9.43486,9.50177 12.48554,15.45557c3.39643,6.62857 0.69835,16.57868 -0.3138,23.57266c-0.47496,3.28195 -1.28666,6.41986 -1.90788,9.66154c-0.29827,1.55644 0.01333,3.45632 -1.44881,4.53723c-1.94357,1.43683 -5.25265,1.32504 -7.537,1.51361c-4.64422,0.38337 -9.30058,0.64073 -13.9524,0.91168c-16.61642,0.96784 -33.24525,1.79186 -49.87744,2.43581c-3.98767,0.15439 -7.98733,0.36333 -11.97887,0.34844c-1.63715,-0.00611 -4.03959,0.20456 -5.44499,-0.88611c-1.58039,-1.22647 -2.16316,-6.3205 -2.46431,-8.18672c-1.24595,-7.72133 -2.42314,-18.36845 1.23375,-25.54576c4.16203,-8.16875 12.17772,-14.65723 14.79326,-23.56649c1.03712,-3.53271 1.88185,-8.17439 -0.20171,-11.49385c-2.78707,-4.44024 -7.65757,-4.45383 -12.27143,-3.86141c-7.75333,0.99553 -16.03089,2.82499 -23.7707,0.66142c-22.23028,-6.2142 -20.41004,-65.06739 -16.15457,-69.64336z" fill="#090909" fill-rule="evenodd"/></svg>
