<svg xmlns="http://www.w3.org/2000/svg" viewBox="0 0 256 256"><!-- Iconic Drills Pack © 2026 Roman Kuzhel, Kyrgyzstan | CC BY 4.0 | https://github.com/roblo3x/iconic-drills-pack --><path d="M70 78L77 72L94 69L111 74L120 81L123 81L123 71L118 53L114 48L103 47L99 41L107 32L113 32L122 36L128 43L133 57L137 57L143 46L163 27L169 25L185 25L194 28L212 28L212 37L207 43L204 51L188 66L181 69L163 69L155 65L152 61L149 61L141 75L140 84L158 80L170 80L188 86L192 91L200 94L208 105L212 115L212 143L203 173L186 202L181 208L174 212L173 216L169 219L153 228L143 231L123 227L116 222L104 227L94 227L76 216L64 201L55 185L49 167L43 140L43 128L63 84ZM121 195L117 200L113 200L110 196L104 196L101 203L102 213L105 213L109 209L114 209L119 212L120 216L123 216L129 211L133 211L137 216L144 217L147 204L144 191L140 191L135 196L127 192ZM97 137L97 141L94 145L90 146L86 143L86 137L90 131L95 131L98 135ZM90 165L100 160L108 141L108 130L98 117L84 121L80 126L78 135L77 153L79 159L81 162ZM132 157L139 169L147 170L159 166L167 151L165 133L157 128L147 128L138 132L131 144ZM149 140L154 142L154 150L152 153L146 154L143 151L143 145L145 141Z" fill="#090909" fill-rule="evenodd"/></svg>
