<svg xmlns="http://www.w3.org/2000/svg" viewBox="0 0 256 256"><path d="M209 176L192 177L182 174L157 160L142 161L137 170L139 203L136 208L127 216L114 223L94 223L81 214L77 207L76 199L80 193L91 186L101 176L107 166L110 151L96 150L64 159L47 158L33 152L26 144L24 138L25 118L32 95L40 83L53 71L101 45L140 31L159 31L173 35L196 50L208 63L210 63L222 84L229 102L232 115L232 134L229 147L217 170ZM175 122L184 120L188 116L191 109L190 100L180 91L165 91L158 96L156 105L160 112ZM69 132L75 125L77 115L74 105L70 102L64 102L49 111L44 118L43 128L51 135L64 135ZM198 128L193 129L188 134L186 143L191 150L204 152L208 150L212 144L212 134L205 128ZM104 191L99 196L101 203L107 203L114 197L114 190L112 188Z" fill="#090909" fill-rule="evenodd"/></svg>
