<svg xmlns="http://www.w3.org/2000/svg" viewBox="0 0 256 256"><!-- Iconic Drills Pack © 2026 Roman Kuzhel, Kyrgyzstan | CC BY 4.0 | https://github.com/roblo3x/iconic-drills-pack --><path d="M24 103C24.72 100.48 27.96 96.44 30 95C32.04 93.56 35.48 92.2 41 91C46.52 89.8 60.04 89.56 76 85C91.96 80.44 157.8 57.8 174 53C190.2 48.2 205.84 45.12 211 45C216.16 44.88 216.16 49.96 217 52C217.84 54.04 217.04 59.36 218 62C218.96 64.64 223.68 71.12 225 74C226.32 76.88 228.16 82.4 229 86C229.84 89.6 231.76 97.64 232 104C232.24 110.36 231.84 132.76 231 139C230.16 145.24 226.8 151.92 225 156C223.2 160.08 219.36 168.68 216 173C212.64 177.32 201.68 188.52 197 192C192.32 195.48 182.28 199.96 177 202C171.72 204.04 159.96 208.04 153 209C146.04 209.96 125.72 210.6 119 210C112.28 209.4 101.92 205.8 97 204C92.08 202.2 82.44 197.52 78 195C73.56 192.48 63.48 185.76 60 183C56.52 180.24 51.64 175.24 49 172C46.36 168.76 40.28 159.96 38 156C35.72 152.04 31.68 143.8 30 139C28.32 134.2 24.72 120.32 24 116C23.28 111.68 23.28 105.52 24 103ZM40 107C39.88 108.44 39.92 113.64 41 117C42.08 120.36 47.2 131.64 49 135C50.8 138.36 53.36 142 56 145C58.64 148 65.96 156.4 71 160C76.04 163.6 91.64 172.48 98 175C104.36 177.52 116.8 180.28 124 181C131.2 181.72 152.12 181.48 158 181C163.88 180.52 169.4 178.32 173 177C176.6 175.68 184.04 172.88 188 170C191.96 167.12 202.52 157.56 206 153C209.48 148.44 215.68 135 217 132C218.32 129 217.48 128.48 217 128C216.52 127.52 215.4 125.72 213 128C210.6 130.28 200.24 143.76 197 147C193.76 150.24 189.12 153.2 186 155C182.88 156.8 174.84 160.68 171 162C167.16 163.32 159.64 165.52 154 166C148.36 166.48 130.36 166.72 124 166C117.64 165.28 105.8 161.8 101 160C96.2 158.2 88.8 154.6 84 151C79.2 147.4 64.96 134.56 61 130C57.04 125.44 52.44 116 51 113C49.56 110 50.08 105.96 49 105C47.92 104.04 43.08 104.76 42 105C40.92 105.24 40.12 105.56 40 107ZM98 108C96.92 110.28 97.64 112.68 98 114C98.36 115.32 99.56 118.4 101 119C102.44 119.6 108.32 120.08 110 119C111.68 117.92 114.52 112.76 115 110C115.48 107.24 114.96 97.8 114 96C113.04 94.2 108.92 93.56 107 95C105.08 96.44 99.08 105.72 98 108ZM135 98C134.64 100.04 134.64 105.6 135 108C135.36 110.4 137.16 116.44 138 118C138.84 119.56 140.56 120.76 142 121C143.44 121.24 148.8 120.48 150 120C151.2 119.52 151.76 118.44 152 117C152.24 115.56 152.84 110.88 152 108C151.16 105.12 146.68 95.04 145 93C143.32 90.96 139.2 90.4 138 91C136.8 91.6 135.36 95.96 135 98ZM165 80C165 81.32 166.04 86.32 167 88C167.96 89.68 171.32 93.16 173 94C174.68 94.84 179.68 95.12 181 95C182.32 94.88 183.52 94.2 184 93C184.48 91.8 185.48 86.68 185 85C184.52 83.32 182.16 79.96 180 79C177.84 78.04 168.8 76.88 167 77C165.2 77.12 165 78.68 165 80Z" fill="#090909" fill-rule="evenodd"/></svg>
