<svg xmlns="http://www.w3.org/2000/svg" viewBox="0 0 256 256"><!-- Iconic Drills Pack © 2026 Roman Kuzhel, Kyrgyzstan | CC BY 4.0 | https://github.com/roblo3x/iconic-drills-pack --><path d="M40 215C40.24 212.84 41.56 211.84 43 211C44.44 210.16 49.84 209.2 52 208C54.16 206.8 58.96 203.16 61 201C63.04 198.84 68.04 192.04 69 190C69.96 187.96 70.44 187 69 184C67.56 181 59.28 169.44 57 165C54.72 160.56 51.08 151.8 50 147C48.92 142.2 47.64 129.56 48 125C48.36 120.44 49.52 115.6 53 109C56.48 102.4 73.28 75.4 77 70C80.72 64.6 81 65.2 84 64C87 62.8 98.28 62.04 102 60C105.72 57.96 111.88 49.52 115 47C118.12 44.48 124.04 40.32 128 39C131.96 37.68 143.44 37.2 148 36C152.56 34.8 161.32 29.84 166 29C170.68 28.16 183.4 29.48 187 29C190.6 28.52 193.96 25.36 196 25C198.04 24.64 202.68 25.16 204 26C205.32 26.84 206.88 28.52 207 32C207.12 35.48 204.28 50.92 205 55C205.72 59.08 211.68 63.6 213 66C214.32 68.4 215.52 70.44 216 75C216.48 79.56 218.08 98 217 104C215.92 110 210 120.44 207 125C204 129.56 193.92 138.28 192 142C190.08 145.72 190.88 153.84 191 156C191.12 158.16 192.76 158.32 193 160C193.24 161.68 194.32 166.28 193 170C191.68 173.72 184.76 187.28 182 191C179.24 194.72 173.36 199.08 170 201C166.64 202.92 157.6 206.04 154 207C150.4 207.96 146.6 209 140 209C133.4 209 106.92 205.44 99 207C91.08 208.56 79.88 219 74 222C68.12 225 53.48 230.8 50 232C46.52 233.2 46.08 232.36 45 232C43.92 231.64 41.6 231.04 41 229C40.4 226.96 39.76 217.16 40 215ZM75 106C74.64 109.36 73.6 115.64 76 122C78.4 128.36 92.72 153.72 95 159C97.28 164.28 95.6 163.36 95 166C94.4 168.64 91.44 177.76 90 181C88.56 184.24 84.68 190.72 83 193C81.32 195.28 76.84 198.8 76 200C75.16 201.2 75.64 202.64 76 203C76.36 203.36 76.72 204.68 79 203C81.28 201.32 92 193.56 95 189C98 184.44 101.12 170.88 104 165C106.88 159.12 115.52 144.68 119 140C122.48 135.32 130.12 128.28 133 126C135.88 123.72 140.12 123.16 143 121C145.88 118.84 154.12 111.84 157 108C159.88 104.16 165.2 93.56 167 89C168.8 84.44 170.44 73.96 172 70C173.56 66.04 177.96 58.76 180 56C182.04 53.24 187.92 48.56 189 47C190.08 45.44 189.96 43.12 189 43C188.04 42.88 183.4 44.2 181 46C178.6 47.8 171.28 55 169 58C166.72 61 163.32 67.52 162 71C160.68 74.48 159.44 83.4 158 87C156.56 90.6 153.24 97.4 150 101C146.76 104.6 133.76 114.96 131 117C128.24 119.04 128.92 116.44 127 118C125.08 119.56 117.88 126.4 115 130C112.12 133.6 104.92 145.96 103 148C101.08 150.04 100.2 148.92 99 147C97.8 145.08 94.68 135.24 93 132C91.32 128.76 86.32 123 85 120C83.68 117 82.36 110.12 82 107C81.64 103.88 82.36 95.56 82 94C81.64 92.44 79.84 92.56 79 94C78.16 95.44 75.36 102.64 75 106Z" fill="#090909" fill-rule="evenodd"/></svg>
