<svg xmlns="http://www.w3.org/2000/svg" viewBox="0 0 256 256"><!-- Iconic Drills Pack © 2026 Roman Kuzhel, Kyrgyzstan | CC BY 4.0 | https://github.com/roblo3x/iconic-drills-pack --><path d="M24 150C24.24 142.2 27.08 121.84 29 115C30.92 108.16 37.24 96.96 40 93C42.76 89.04 48.76 84.04 52 82C55.24 79.96 62.8 76.72 67 76C71.2 75.28 82.8 75.64 87 76C91.2 76.36 100.08 79.96 102 79C103.92 78.04 103.24 70.4 103 68C102.76 65.6 100.36 61.16 100 59C99.64 56.84 99.76 51.8 100 50C100.24 48.2 101.04 45.32 102 44C102.96 42.68 106.32 39.6 108 39C109.68 38.4 114.44 38.64 116 39C117.56 39.36 119.56 40.44 121 42C122.44 43.56 126.8 49.48 128 52C129.2 54.52 129.92 61.56 131 63C132.08 64.44 136.28 64.12 137 64C137.72 63.88 136.76 62.24 137 62C137.24 61.76 138.64 62.36 139 62C139.36 61.64 137.36 61.76 140 59C142.64 56.24 156.8 42.24 161 39C165.2 35.76 172.36 32.84 175 32C177.64 31.16 181.44 31.64 183 32C184.56 32.36 187.16 33.32 188 35C188.84 36.68 191.44 42.04 190 46C188.56 49.96 177.44 64.76 176 68C174.56 71.24 176.8 72.4 178 73C179.2 73.6 182.88 73.72 186 73C189.12 72.28 199.92 67.72 204 67C208.08 66.28 217.24 66.64 220 67C222.76 67.36 225.8 69.16 227 70C228.2 70.84 229.64 72.56 230 74C230.36 75.44 230.6 80.32 230 82C229.4 83.68 227.88 86.32 225 88C222.12 89.68 208.04 94.44 206 96C203.96 97.56 206.08 99.44 208 101C209.92 102.56 219.24 106 222 109C224.76 112 229.92 122.04 231 126C232.08 129.96 231.96 138.04 231 142C230.04 145.96 225.28 155.64 223 159C220.72 162.36 216.08 167.12 212 170C207.92 172.88 196.8 179.64 189 183C181.2 186.36 155.28 195.36 147 198C138.72 200.64 127.08 202.24 120 205C112.92 207.76 93.16 218.72 88 221C82.84 223.28 80.24 223.64 77 224C73.76 224.36 64.24 224.6 61 224C57.76 223.4 52.76 220.92 50 219C47.24 217.08 40.76 212.68 38 208C35.24 203.32 28.68 186.96 27 180C25.32 173.04 23.76 157.8 24 150ZM54 148C53.64 150.16 53.92 158.32 55 160C56.08 161.68 61.56 162.24 63 162C64.44 161.76 66.16 159.44 67 158C67.84 156.56 69.76 151.92 70 150C70.24 148.08 69.96 143.2 69 142C68.04 140.8 63.32 140 62 140C60.68 140 58.96 141.04 58 142C57.04 142.96 54.36 145.84 54 148ZM56 113C55.4 115.4 56.68 121.68 58 123C59.32 124.32 65.32 124.72 67 124C68.68 123.28 71.28 119.16 72 117C72.72 114.84 73.12 107.68 73 106C72.88 104.32 72.2 103.36 71 103C69.8 102.64 64.8 101.8 63 103C61.2 104.2 56.6 110.6 56 113ZM75 173C74.28 175.4 75.04 183.32 76 185C76.96 186.68 81.32 187.72 83 187C84.68 186.28 89.04 181.16 90 179C90.96 176.84 91.24 170.68 91 169C90.76 167.32 89.08 165.48 88 165C86.92 164.52 83.56 164.04 82 165C80.44 165.96 75.72 170.6 75 173ZM91 138C90.88 140.04 91.68 146.68 93 148C94.32 149.32 100.44 149.48 102 149C103.56 148.52 105.28 146.16 106 144C106.72 141.84 108.12 132.92 108 131C107.88 129.08 106.2 128.36 105 128C103.8 127.64 99.32 127.64 98 128C96.68 128.36 94.84 129.8 94 131C93.16 132.2 91.12 135.96 91 138Z" fill="#090909" fill-rule="evenodd"/></svg>
