<svg xmlns="http://www.w3.org/2000/svg" viewBox="0 0 256 256"><!-- Iconic Drills Pack © 2026 Roman Kuzhel, Kyrgyzstan | CC BY 4.0 | https://github.com/roblo3x/iconic-drills-pack --><path d="M40 94L52 82L67 76L87 76L102 79L103 68L100 59L100 50L102 44L108 39L116 39L121 42L128 52L131 63L137 64L137 62L139 62L140 59L161 39L175 32L183 32L188 35L190 46L176 68L178 73L186 73L204 67L220 67L227 70L230 74L230 82L225 88L206 96L208 101L222 109L229 120L232 132L230 146L223 159L212 170L189 183L147 198L128 202L85 222L61 224L50 219L38 208L31 193L25 170L24 150L27 123L33 104ZM90 169L88 165L82 165L77 169L75 173L76 185L83 187L88 183L91 176ZM73 114L73 106L71 103L61 104L56 113L58 123L67 124ZM55 146L55 160L63 162L68 156L70 144L68 141L62 140ZM91 144L94 149L102 149L107 141L107 129L96 129L92 135Z" fill="#090909" fill-rule="evenodd"/></svg>
