<svg xmlns="http://www.w3.org/2000/svg" viewBox="0 0 256 256"><!-- Iconic Drills Pack © 2026 Roman Kuzhel, Kyrgyzstan | CC BY 4.0 | https://github.com/roblo3x/iconic-drills-pack --><path d="M219 127L206 121L208 133L207 153L203 163L189 175L155 189L123 194L105 199L77 199L55 192L45 183L42 177L42 171L33 169L28 164L26 158L27 145L24 128L26 108L29 100L36 93L75 73L120 57L139 57L176 61L196 69L207 79L232 113L231 123L227 127ZM99 120L77 133L65 145L55 160L54 170L56 176L60 180L81 187L100 187L122 181L122 147L116 117L111 115ZM176 107L163 105L153 106L162 171L174 168L186 161L194 148L194 128L190 116L187 111ZM81 180L65 175L61 167L67 153L77 144L83 144L87 148L97 168L97 176L93 180Z" fill="#090909" fill-rule="evenodd"/></svg>
