<svg data-contour-smoothing="organic-v2" xmlns="http://www.w3.org/2000/svg" viewBox="0 0 256 256"><!-- Iconic Drills Pack © 2026 Roman Kuzhel, Kyrgyzstan | CC BY 4.0 | https://github.com/roblo3x/iconic-drills-pack --><path d="M37.69222,111.3691c1.02263,-4.53306 1.93393,-9.16023 3.37495,-13.58357c1.06484,-3.26861 2.34784,-5.80215 6.16157,-4.61231c6.92305,2.15992 13.6576,5.55037 20.08152,8.87406c2.63325,1.36243 6.44472,2.86088 7.94378,5.61289c1.26525,2.32277 0.29848,5.17149 -0.282,7.53524c-1.11283,4.53152 -2.50513,8.99364 -3.85984,13.4571c-4.88389,16.09126 -9.16424,31.88447 -12.17358,48.4403c-0.83305,4.58302 -1.59252,9.21065 -2.72106,13.73265c-0.43703,1.75116 -0.88611,3.9655 -2.31014,5.24089c-3.17192,2.84085 -9.43274,-1.63432 -12.32173,-3.22051c-8.59671,-4.72001 -8.58464,-60.68208 -3.89349,-81.47674zM59.32287,68.97711c4.79411,-3.60499 10.21815,-6.29574 15.04135,-9.86792c5.86961,-4.34717 10.86108,-9.89969 16.14818,-14.91313c3.99537,-3.78857 8.81497,-9.56226 14.96502,-7.53729c3.73467,1.22968 6.99543,4.0391 9.99468,6.47835c5.68948,4.62717 11.10722,9.58074 16.80237,14.19906c1.69122,1.37144 7.25253,6.56476 9.71122,4.45431c0.82913,-0.7117 0.57052,-2.26456 0.45761,-3.08771c-0.43036,-3.13732 -1.4315,-6.69062 -3.02098,-9.43997c-1.66395,-2.87817 -4.33636,-5.00659 -5.52046,-8.18294c-3.41658,-9.16497 2.6142,-14.76962 11.23158,-16.38013c2.5202,-0.471 5.32678,-1.01136 7.88307,-0.49453c4.78208,0.96685 7.52987,5.30716 9.33327,9.44575c3.26429,7.49116 4.27196,15.32143 3.18126,23.41846c-0.44293,3.28817 -1.17166,6.58485 -1.3827,9.89944c-0.09643,1.51456 -0.25273,3.79701 1.70779,4.28501c2.36353,0.58832 5.14619,-1.59038 6.81538,-2.94642c4.10815,-3.33746 7.6498,-7.49065 11.32211,-11.28807c2.27944,-2.3571 4.51704,-4.98891 7.22257,-6.87431c7.36416,-5.13185 15.35213,-1.40812 22.38687,2.1633c3.45273,1.7529 7.38439,3.54212 8.72671,7.49338c3.7832,11.13629 -10.39204,19.19779 -18.78916,21.80683c-3.04224,0.94524 -6.63669,1.53871 -9.42873,3.11218c-0.63498,0.35785 -1.89287,1.09423 -1.51843,2.15326c0.54086,1.5297 3.37711,1.93405 4.63153,2.26107c5.10147,1.3299 10.55742,2.09983 15.22098,4.69248c6.84692,3.80645 13.43038,9.55161 15.81162,17.21383c1.56955,5.0504 1.42902,10.61894 1.59052,15.85515c0.11493,3.72614 0.85481,8.23219 -0.05265,11.8809c-1.88815,7.59184 -18.42327,11.93241 -23.33002,5.55667c-4.1342,-5.3719 -2.09054,-15.08375 -3.38302,-21.41879c-0.30119,-1.4763 -2.47479,-7.74027 -5.12745,-6.25377c-1.34339,0.75281 -0.98877,3.77134 -0.9979,4.9305c-0.03148,3.99574 0.10045,8.00429 0.32127,11.9935c0.59706,10.78639 3.98272,20.81454 6.88954,31.14097c1.86425,6.62271 4.00478,14.81769 1.60225,21.5972c-1.93909,5.47175 -8.54734,8.73331 -13.0988,11.75245c-7.70916,5.11375 -16.06152,9.74679 -23.28024,15.54168c-3.67188,2.94762 -6.48251,6.53357 -10.48303,9.14317c-4.1752,2.72355 -12.06952,5.74617 -15.52499,0.37136c-1.35277,-2.10416 -0.47767,-4.59874 0.02696,-6.82785c1.32454,-5.85092 2.76456,-11.67705 4.1662,-17.50985c2.94387,-12.25058 6.5631,-24.5682 8.62909,-37.00177c0.76569,-4.60805 0.18874,-9.32579 1.31763,-13.87792c1.74409,-7.0329 5.15921,-13.82681 7.94708,-20.49253c3.08634,-7.37936 6.24496,-14.73234 9.2054,-22.16353c0.80577,-2.02261 3.53736,-6.8026 1.91689,-8.94054c-2.44733,-3.22886 -6.33219,5.10874 -6.93847,6.39141c-3.13291,6.62802 -5.96064,13.40321 -8.8935,20.12091c-1.06485,2.43903 -2.07896,6.6237 -4.70912,7.87017c-6.6505,3.15177 -12.20643,-3.46046 -17.65693,-5.9259c-10.90518,-4.93279 -22.35519,-8.81513 -33.494,-13.18768c-4.56828,-1.79328 -10.74663,-3.31358 -14.27095,-6.91524c-3.5688,-3.64712 -0.74481,-8.8578 2.42522,-11.74434c6.74439,-6.14124 18.57316,-9.92559 27.29315,-11.89526c2.43591,-0.55022 5.41255,-0.78085 7.63395,-1.99079c1.46087,-0.7957 1.98151,-2.1616 0.11566,-2.88754c-2.80571,-1.0916 -6.85454,-0.54663 -9.80053,-0.44332c-9.27273,0.32517 -20.75801,3.58003 -27.77071,9.92929c-3.78653,3.4283 -7.4924,13.76075 -13.32804,13.56841c-2.52209,-0.08313 -5.17097,-1.60486 -7.4336,-2.58513c-6.4618,-2.79954 -14.76135,-24.39795 -10.44156,-27.64626zM77.94994,134.77649c1.21066,-5.17643 2.42434,-10.35256 3.7061,-15.51193c0.45835,-1.84496 0.67752,-5.64866 2.2938,-6.92989c1.26008,-0.99887 3.63925,-0.06388 4.92449,0.2723c3.85135,1.00741 7.60959,2.40629 11.32786,3.81709c12.41239,4.70957 24.41482,10.55756 36.38074,16.28783c4.64349,2.22369 12.1377,4.4017 15.66262,8.24805c1.82054,1.98655 -0.49396,6.29345 -1.04594,8.49353c-2.10217,8.37876 -4.43968,16.69792 -6.62939,25.05402c-3.58832,13.69332 -5.21294,27.19935 -6.74253,41.23816c-0.56966,5.22838 -1.27513,13.03863 -6.87717,15.54687c-6.99875,3.13361 -14.47912,-1.98083 -19.82224,-5.50471c-10.29684,-6.79094 -22.97715,-11.14104 -34.12167,-16.4009c-3.42537,-1.61667 -10.86463,-3.72322 -12.9372,-7.09743c-0.93632,-1.52436 8.91634,-46.28749 13.88053,-67.513z" fill="#090909" fill-rule="evenodd"/></svg>
