<svg data-contour-smoothing="organic-v2" xmlns="http://www.w3.org/2000/svg" viewBox="0 0 256 256"><!-- Iconic Drills Pack © 2026 Roman Kuzhel, Kyrgyzstan | CC BY 4.0 | https://github.com/roblo3x/iconic-drills-pack --><path d="M57.54331,125.5596c2.50291,-9.20455 5.27603,-17.59872 10.74677,-25.51797c1.69652,-2.45583 3.6815,-5.93775 6.68094,-6.96613c4.36097,-1.4952 11.13393,1.9041 15.14146,3.5039c13.35153,5.32989 24.93648,15.72975 36.24977,24.39814c9.40712,7.20785 19.31066,14.49839 25.76366,24.66189c1.07052,1.68607 1.94058,3.45788 2.59073,5.34748c4.62954,13.45531 -7.00958,18.80542 -17.02384,24.42058c-13.88925,7.78793 -27.85919,15.54048 -42.05136,22.76496c-4.24662,2.16173 -8.74585,2.78673 -13.06383,4.60565c-4.81673,2.02902 -9.14171,5.58796 -13.40231,8.56133c-7.62455,5.321 -15.17999,10.74408 -22.86948,15.97147c-2.59776,1.76598 -6.84178,5.70882 -10.25593,5.18715c-5.69464,-0.87012 12.79215,-74.93929 21.49341,-106.93843zM65.86106,182.24807c3.94337,0.2495 8.87259,-5.1538 11.11752,-7.94766c1.10792,-1.37884 2.23557,-3.31015 1.4311,-5.15015c-0.82257,-1.88138 -2.98123,-1.85734 -4.64234,-1.43894c-4.10781,1.03467 -12.69442,14.23381 -7.90628,14.53675zM67.88255,139.1907c-1.02309,3.09744 0.38427,6.62296 4.10381,4.72767c2.82624,-1.4401 10.71853,-8.11915 8.99428,-11.78285c-4.2044,-8.93354 -12.88727,6.4169 -13.0981,7.05518zM86.68781,53.84165c5.83949,3.65342 8.11369,10.85189 7.80733,17.3234c-0.14836,3.13399 -0.76806,6.84187 -3.5573,8.79641c-1.48684,1.04189 -3.50282,1.24735 -4.88288,-0.12889c-3.00527,-2.99695 -1.17033,-9.35006 -3.23701,-13.08591c-2.10311,-3.80169 -0.68257,-15.75319 3.86986,-12.905zM85.9867,116.80524c1.95173,2.62976 4.70586,4.78852 7.11626,6.97882c10.77973,9.79536 21.54448,20.0998 33.85076,27.97616c3.31405,2.12108 6.93666,4.12793 10.7571,5.17177c1.17964,0.32231 3.89475,1.13296 4.73062,-0.42332c0.7863,-1.46398 -0.7282,-3.81862 -1.41515,-4.97269c-2.01279,-3.38149 -4.97366,-6.3458 -7.88532,-8.95916c-8.94357,-8.02732 -20.88668,-11.96895 -29.8857,-19.89888c-4.85947,-4.28216 -18.74392,-7.86054 -17.26859,-5.87269zM96.05354,166.83224c4.66325,0.93757 11.31324,-5.17662 10.35358,-9.89001c-1.51259,-7.42915 -14.95843,8.96418 -10.35358,9.89001zM125.60647,81.40033c3.18732,-0.9546 8.72379,-1.20598 11.07578,-3.80469c1.83018,-2.02216 0.49238,-4.97192 -0.5338,-6.99883c-2.48237,-4.90315 -6.27373,-8.68607 -4.18053,-14.5207c2.95992,-8.25057 11.30363,-10.7718 18.95217,-12.82921c2.93103,-0.78843 6.90364,-1.27857 9.24953,-3.37668c3.77323,-3.3747 0.40372,-8.91983 1.03661,-13.06908c0.54161,-3.55075 4.88493,-3.30314 7.01228,-1.31901c1.40658,1.31188 2.1568,3.38257 2.76542,5.14752c4.12017,11.94827 -4.2243,20.27456 -14.69097,23.90829c-3.11888,1.08279 -10.68625,2.18368 -12.3831,5.33537c-1.42446,2.64576 2.28942,6.26045 3.49266,8.3014c2.48162,4.20937 2.93406,10.93068 0.04574,15.10538c-2.54393,3.67693 -7.12359,6.52218 -11.38878,7.61501c-3.09229,0.79231 -6.8057,0.79077 -9.62991,2.39465c-4.73937,2.6915 -2.02273,8.33828 -5.19645,11.8443c-2.10047,2.3204 -6.22974,2.53304 -8.01569,-0.3272c-1.93115,-3.09279 5.87034,-21.45418 12.38905,-23.40653zM146.57691,109.78645c7.44022,-6.88487 19.55108,-10.98131 29.55674,-7.65335c5.01874,1.66927 9.13011,5.54001 13.68748,8.10722c3.87658,2.18371 7.20486,1.89626 11.456,1.32597c0.91695,-0.12301 3.96777,-0.82737 4.09528,1.0054c0.17526,2.51925 -4.74198,5.26718 -6.47635,6.38545c-5.08809,3.28066 -11.71169,2.81767 -16.90582,-0.11387c-4.72513,-2.66683 -8.28046,-6.66156 -14.14869,-6.20833c-5.02185,0.38786 -10.58019,2.90772 -14.86709,5.45991c-2.44291,1.45438 -5.12384,4.9539 -8.04893,5.28461c-3.425,0.38723 -1.08408,-11.06174 1.65138,-13.59302zM171.04212,131.79447c3.52142,0.57063 2.16945,5.4517 4.26813,7.43062c2.33819,2.20475 6.48513,0.80637 9.25992,2.28143c5.20892,2.76903 5.20067,9.16092 5.07003,14.26537c-0.04654,1.81834 0.01978,4.11838 -1.13883,5.67042c-1.66317,2.22794 -4.52781,1.66068 -5.95603,-0.43698c-1.68675,-2.47737 -0.08496,-6.8817 -2.47154,-8.69011c-2.00643,-1.52035 -5.28284,-0.93827 -7.5969,-1.5831c-4.68011,-1.30414 -7.04867,-19.84734 -1.43479,-18.93765zM186.3369,83.54583c-2.40658,10.02948 2.69648,-11.23763 0,0zM199.98887,27.15947c5.41107,-2.55654 12.57802,2.80803 12.71784,8.57345c0.08066,3.32632 -4.18161,4.96696 -6.78419,5.72366c-6.66379,1.9375 -9.03073,-12.83386 -5.93365,-14.29712zM216.23732,71.82119c3.69842,0.11348 6.95208,7.4433 6.53987,10.61118c-0.44664,3.4325 -4.02913,5.07326 -7.09223,5.25661c-4.77154,0.28561 -3.87967,-16.00377 0.55236,-15.86779zM209.79785,139.70463c4.02456,-1.81486 10.50942,-0.61649 11.13754,4.61704c0.94636,7.88512 -12.58615,11.91866 -14.99031,3.60947c-0.50278,-1.73768 1.11812,-6.99333 3.85277,-8.22651z" fill="#090909" fill-rule="evenodd"/></svg>
