<svg xmlns="http://www.w3.org/2000/svg" viewBox="0 0 256 256"><!-- Iconic Drills Pack © 2026 Roman Kuzhel, Kyrgyzstan | CC BY 4.0 | https://github.com/roblo3x/iconic-drills-pack --><path d="M25 172C26.92 162.28 38.12 107.36 41 98C43.88 88.64 45.04 93.04 49 94C52.96 94.96 70.88 103.48 74 106C77.12 108.52 76.32 109 75 115C73.68 121 65.4 146.4 63 156C60.6 165.6 57.04 190.32 55 195C52.96 199.68 49.12 196.2 46 195C42.88 193.8 31.52 186.92 29 185C26.48 183.08 25.48 180.56 25 179C24.52 177.44 23.08 181.72 25 172ZM49 81C49.72 78.84 54.76 72.76 58 70C61.24 67.24 71.08 61.96 76 58C80.92 54.04 94.92 39.28 99 37C103.08 34.72 105.92 36.48 110 39C114.08 41.52 129.52 55.24 133 58C136.48 60.76 137.8 61.52 139 62C140.2 62.48 142.88 63.44 143 62C143.12 60.56 141.08 52.4 140 50C138.92 47.6 134.84 44.16 134 42C133.16 39.84 132.28 33.92 133 32C133.72 30.08 137.6 26.96 140 26C142.4 25.04 150.6 23.64 153 24C155.4 24.36 158.56 26.96 160 29C161.44 31.04 164.28 38.12 165 41C165.72 43.88 166.12 49.4 166 53C165.88 56.6 163.28 69.08 164 71C164.72 72.92 168.88 71.4 172 69C175.12 66.6 187.12 53.52 190 51C192.88 48.48 194.32 48.36 196 48C197.68 47.64 201.12 47.04 204 48C206.88 48.96 217.72 54.2 220 56C222.28 57.8 223 61.2 223 63C223 64.8 221.44 69.08 220 71C218.56 72.92 214.24 77.32 211 79C207.76 80.68 195.16 83.92 193 85C190.84 86.08 190.84 87.04 193 88C195.16 88.96 207.28 91.2 211 93C214.72 94.8 221.84 100.48 224 103C226.16 105.52 228.28 109.8 229 114C229.72 118.2 230 134.76 230 138C230 141.24 229.96 140.04 229 141C228.04 141.96 224.28 145.28 222 146C219.72 146.72 212.04 147.48 210 147C207.96 146.52 205.84 145 205 142C204.16 139 203.6 125 203 122C202.4 119 200.72 117.6 200 117C199.28 116.4 197.24 114 197 117C196.76 120 196.92 135.4 198 142C199.08 148.6 205.04 166.72 206 172C206.96 177.28 206.72 183.48 206 186C205.28 188.52 204.32 189.76 200 193C195.68 196.24 174.32 209.88 170 213C165.68 216.12 165.8 217.56 164 219C162.2 220.44 157.16 224.16 155 225C152.84 225.84 147.44 226.36 146 226C144.56 225.64 143.36 222.96 143 222C142.64 221.04 141.44 225.08 143 218C144.56 210.92 154.2 171.64 156 163C157.8 154.36 155.48 153.68 158 146C160.52 138.32 175.32 104.76 177 99C178.68 93.24 174.28 94.4 172 98C169.72 101.6 159.92 125.04 158 129C156.08 132.96 157.2 130.76 156 131C154.8 131.24 150.04 131.72 148 131C145.96 130.28 145.24 127.76 139 125C132.76 122.24 102 110.64 96 108C90 105.36 89.84 104.08 89 103C88.16 101.92 88.4 100.32 89 99C89.6 97.68 91.12 93.92 94 92C96.88 90.08 108.8 84.56 113 83C117.2 81.44 127.08 79.84 129 79C130.92 78.16 130.8 76.36 129 76C127.2 75.64 117.48 75.52 114 76C110.52 76.48 102.88 78.8 100 80C97.12 81.2 92.4 83.72 90 86C87.6 88.28 82.04 97.56 80 99C77.96 100.44 76.36 99.32 73 98C69.64 96.68 54.88 90.04 52 88C49.12 85.96 48.28 83.16 49 81ZM64 197C65.92 186.8 79.36 128.2 82 118C84.64 107.8 82.76 111.76 86 112C89.24 112.24 101.2 116.64 109 120C116.8 123.36 145.84 136.88 151 140C156.16 143.12 153.2 140.12 152 146C150.8 151.88 142.8 179.88 141 189C139.2 198.12 137.96 217.08 137 222C136.04 226.92 133.96 228.8 133 230C132.04 231.2 131.04 232 129 232C126.96 232 118.28 230.84 116 230C113.72 229.16 115.52 227.88 110 225C104.48 222.12 75.28 208.64 70 206C64.72 203.36 66.72 204.08 66 203C65.28 201.92 62.08 207.2 64 197Z" fill="#090909" fill-rule="evenodd"/></svg>
