<svg xmlns="http://www.w3.org/2000/svg" viewBox="0 0 256 256"><!-- Iconic Drills Pack © 2026 Roman Kuzhel, Kyrgyzstan | CC BY 4.0 | https://github.com/roblo3x/iconic-drills-pack --><path d="M67 190L77 196L91 200L107 200L113 198L117 194L123 168L131 147L133 128L132 120L129 115L121 111L70 106L73 112L79 114L108 115L120 119L123 123L123 139L116 167L108 181L101 184L83 184L63 180L63 187ZM175 75L172 77L171 82L183 126L186 149L184 178L191 178L204 169L210 158L212 149L212 121L207 93L201 77L191 71L183 71ZM127 54L133 55L133 51L124 46L115 47L110 50L110 53ZM138 38L147 45L150 52L150 60L158 65L176 58L191 57L206 62L218 74L228 96L232 119L231 152L227 170L219 180L204 191L190 196L178 196L174 206L166 215L161 219L149 223L131 221L76 221L54 217L38 210L29 202L24 192L24 181L28 164L34 152L33 140L36 125L41 111L54 87L65 70L71 64L88 56L94 45L102 38L112 34L130 34ZM165 129L163 110L160 110L161 142L165 143L166 141Z" fill="#090909" fill-rule="evenodd"/></svg>
