<svg xmlns="http://www.w3.org/2000/svg" viewBox="0 0 256 256"><!-- Iconic Drills Pack © 2026 Roman Kuzhel, Kyrgyzstan | CC BY 4.0 | https://github.com/roblo3x/iconic-drills-pack --><path d="M24 181C24.48 177.64 26.8 167.48 28 164C29.2 160.52 33.4 154.88 34 152C34.6 149.12 32.76 143.24 33 140C33.24 136.76 34.56 129.44 36 125C37.44 120.56 41.52 109.6 45 103C48.48 96.4 61.88 74.68 65 70C68.12 65.32 68.24 65.68 71 64C73.76 62.32 85.24 58.28 88 56C90.76 53.72 92.32 47.16 94 45C95.68 42.84 99.84 39.32 102 38C104.16 36.68 108.16 34.36 112 34C115.84 33.64 129.8 33.68 134 35C138.2 36.32 145.08 42.96 147 45C148.92 47.04 149.64 50.2 150 52C150.36 53.8 149.04 58.44 150 60C150.96 61.56 154.88 65.24 158 65C161.12 64.76 171.44 58.84 176 58C180.56 57.16 192.04 57.28 196 58C199.96 58.72 206 61.48 209 64C212 66.52 218.72 75.16 221 79C223.28 82.84 226.68 91.2 228 96C229.32 100.8 231.52 113.6 232 119C232.48 124.4 232.48 135.12 232 141C231.52 146.88 229.56 163.32 228 168C226.44 172.68 221.88 177.24 219 180C216.12 182.76 207.48 189.08 204 191C200.52 192.92 193.12 195.4 190 196C186.88 196.6 180.16 194.44 178 196C175.84 197.56 174.04 206.24 172 209C169.96 211.76 163.76 217.32 161 219C158.24 220.68 151.64 222.52 149 223C146.36 223.48 141.16 223.24 139 223C136.84 222.76 138.56 221.24 131 221C123.44 220.76 85.24 221.48 76 221C66.76 220.52 58.56 218.32 54 217C49.44 215.68 41 211.8 38 210C35 208.2 30.68 204.16 29 202C27.32 199.84 24.6 194.52 24 192C23.4 189.48 23.52 184.36 24 181ZM62 181C61.4 181.84 61.2 185.2 63 187C64.8 188.8 73.64 194.44 77 196C80.36 197.56 87.4 199.52 91 200C94.6 200.48 104.36 200.24 107 200C109.64 199.76 111.56 199.2 113 198C114.44 196.8 117.8 193.6 119 190C120.2 186.4 121.68 172.56 123 168C124.32 163.44 128.8 156.44 130 152C131.2 147.56 133 135.32 133 131C133 126.68 131.44 118.4 130 116C128.56 113.6 128.2 112.2 121 111C113.8 109.8 75.76 105.88 70 106C64.24 106.12 71.92 111.04 73 112C74.08 112.96 74.8 113.64 79 114C83.2 114.36 103.08 114.4 108 115C112.92 115.6 118.2 118.04 120 119C121.8 119.96 122.64 120.6 123 123C123.36 125.4 123.84 133.72 123 139C122.16 144.28 117.8 161.96 116 167C114.2 172.04 109.8 178.96 108 181C106.2 183.04 104 183.64 101 184C98 184.36 86.96 184.48 83 184C79.04 183.52 70.52 180.36 68 180C65.48 179.64 62.6 180.16 62 181ZM110 50C109.4 50.72 107.24 52.4 110 53C112.76 53.6 130.24 55.24 133 55C135.76 54.76 134.08 52.08 133 51C131.92 49.92 126.16 46.48 124 46C121.84 45.52 116.68 46.52 115 47C113.32 47.48 110.6 49.28 110 50ZM160 110C159.76 113.84 160.4 138.04 161 142C161.6 145.96 164.4 144.56 165 143C165.6 141.44 166.12 132.48 166 129C165.88 125.52 164.36 116.28 164 114C163.64 111.72 163.48 110.48 163 110C162.52 109.52 160.24 106.16 160 110ZM171 79C171.6 84.16 179.32 109.56 181 117C182.68 124.44 184.4 135.12 185 141C185.6 146.88 186.12 161.56 186 166C185.88 170.44 183.4 176.56 184 178C184.6 179.44 188.6 179.08 191 178C193.4 176.92 201.72 171.4 204 169C206.28 166.6 209.04 160.4 210 158C210.96 155.6 211.76 153.44 212 149C212.24 144.56 212.6 127.72 212 121C211.4 114.28 208.08 97.92 207 93C205.92 88.08 204.56 82.52 203 80C201.44 77.48 196.4 73.08 194 72C191.6 70.92 185.16 70.76 183 71C180.84 71.24 177.44 73.04 176 74C174.56 74.96 170.4 73.84 171 79Z" fill="#090909" fill-rule="evenodd"/></svg>
