<svg xmlns="http://www.w3.org/2000/svg" viewBox="0 0 256 256"><!-- Iconic Drills Pack © 2026 Roman Kuzhel, Kyrgyzstan | CC BY 4.0 | https://github.com/roblo3x/iconic-drills-pack --><path d="M24 156C24.84 150.84 28.96 140.36 31 137C33.04 133.64 39.08 129.44 41 128C42.92 126.56 45.68 125.24 47 125C48.32 124.76 52.36 121.92 52 126C51.64 130.08 44.96 151.68 44 159C43.04 166.32 43.52 181.48 44 187C44.48 192.52 46.68 201.4 48 205C49.32 208.6 54.52 215.2 55 217C55.48 218.8 53.8 220 52 220C50.2 220 41.68 217.84 40 217C38.32 216.16 38.84 213.84 38 213C37.16 212.16 34.2 211.56 33 210C31.8 208.44 29.08 203.6 28 200C26.92 196.4 24.48 185.28 24 180C23.52 174.72 23.16 161.16 24 156ZM48 86C49.08 79.88 56.08 68.48 58 65C59.92 61.52 61.72 59.4 64 57C66.28 54.6 73.64 47.52 77 45C80.36 42.48 85.52 38.04 92 36C98.48 33.96 123.68 28.84 131 28C138.32 27.16 147.72 28.16 153 29C158.28 29.84 170.8 33.08 175 35C179.2 36.92 185.48 42.48 188 45C190.52 47.52 194.2 52.04 196 56C197.8 59.96 202.04 71.52 203 78C203.96 84.48 202.68 105.68 204 110C205.32 114.32 211.84 112.44 214 114C216.16 115.56 219.96 119.52 222 123C224.04 126.48 229.8 136.88 231 143C232.2 149.12 232.36 167.64 232 174C231.64 180.36 230.52 191.32 228 196C225.48 200.68 214.12 210.48 211 213C207.88 215.52 203.8 216.52 202 217C200.2 217.48 196.84 217.24 196 217C195.16 216.76 194.4 216.44 195 215C195.6 213.56 199.56 208.36 201 205C202.44 201.64 205.92 191.68 207 187C208.08 182.32 209.64 171.76 210 166C210.36 160.24 210.24 143.8 210 139C209.76 134.2 208.84 129.12 208 126C207.16 122.88 204.44 115.16 203 113C201.56 110.84 197.56 108.72 196 108C194.44 107.28 190.72 106.76 190 107C189.28 107.24 189.28 109.16 190 110C190.72 110.84 194.44 111.36 196 114C197.56 116.64 202.04 125.76 203 132C203.96 138.24 204.24 159.4 204 166C203.76 172.6 202.44 181.48 201 187C199.56 192.52 194.04 207.8 192 212C189.96 216.2 186.16 220.56 184 222C181.84 223.44 175.92 224 174 224C172.08 224 169.32 222.84 168 222C166.68 221.16 164.2 219.04 163 217C161.8 214.96 159.32 213.04 158 205C156.68 196.96 152.48 158.16 152 150C151.52 141.84 153.04 140.36 154 137C154.96 133.64 158.68 124.28 160 122C161.32 119.72 163.8 119.56 165 118C166.2 116.44 168.08 110.44 170 109C171.92 107.56 180.04 109 181 106C181.96 103 178.72 87.6 178 84C177.28 80.4 176.68 78.52 175 76C173.32 73.48 167.48 65.64 164 63C160.52 60.36 151.04 55.08 146 54C140.96 52.92 127.04 53.4 122 54C116.96 54.6 108.08 57.32 104 59C99.92 60.68 91.36 65.12 88 68C84.64 70.88 77.92 80 76 83C74.08 86 72.72 89.28 72 93C71.28 96.72 69.52 111.48 70 114C70.48 116.52 73.96 113.16 76 114C78.04 114.84 84.96 119.32 87 121C89.04 122.68 91.8 125.84 93 128C94.2 130.16 96.04 135.16 97 139C97.96 142.84 100.52 153.88 101 160C101.48 166.12 101.36 183.88 101 190C100.64 196.12 98.96 207.28 98 211C97.04 214.72 95.04 219.08 93 221C90.96 222.92 84.12 226.52 81 227C77.88 227.48 69.28 225.96 67 225C64.72 224.04 63.56 221.88 62 219C60.44 216.12 55.56 206.16 54 201C52.44 195.84 49.36 182.72 49 176C48.64 169.28 49.8 151.72 51 145C52.2 138.28 58.88 122.88 59 120C59.12 117.12 53.2 121.48 52 121C50.8 120.52 49.48 120.2 49 116C48.52 111.8 46.92 92.12 48 86ZM65 161C64.28 163.4 65.28 165.96 66 168C66.72 170.04 69.56 176.68 71 178C72.44 179.32 76.56 179.48 78 179C79.44 178.52 82.04 175.68 83 174C83.96 172.32 86.12 167.52 86 165C85.88 162.48 83.08 155.04 82 153C80.92 150.96 78.2 148.6 77 148C75.8 147.4 73.44 146.44 72 148C70.56 149.56 65.72 158.6 65 161ZM71 160C71.24 159.04 72.16 157.24 73 157C73.84 156.76 77.28 157.04 78 158C78.72 158.96 79.12 163.8 79 165C78.88 166.2 77.96 168 77 168C76.04 168 71.72 165.96 71 165C70.28 164.04 70.76 160.96 71 160ZM167 150C167.12 151.68 168.16 159.12 169 162C169.84 164.88 172.2 172.68 174 174C175.8 175.32 182.08 176.36 184 173C185.92 169.64 191.92 149 190 146C188.08 143 170.76 147.52 168 148C165.24 148.48 166.88 148.32 167 150ZM176 155C176.72 154.04 182.04 154.4 183 155C183.96 155.6 184.24 158.92 184 160C183.76 161.08 181.84 163.64 181 164C180.16 164.36 177.6 164.08 177 163C176.4 161.92 175.28 155.96 176 155Z" fill="#090909" fill-rule="evenodd"/></svg>
