<svg xmlns="http://www.w3.org/2000/svg" viewBox="0 0 256 256"><!-- Iconic Drills Pack © 2026 Roman Kuzhel, Kyrgyzstan | CC BY 4.0 | https://github.com/roblo3x/iconic-drills-pack --><path d="M36 206C36.72 201.68 40.32 182.8 42 178C43.68 173.2 47.36 168.4 50 166C52.64 163.6 61.24 159.08 64 158C66.76 156.92 70.36 156.76 73 157C75.64 157.24 84.2 160.12 86 160C87.8 159.88 87.76 158.28 88 156C88.24 153.72 89.08 147.12 88 141C86.92 134.88 80.08 111 79 105C77.92 99 79.48 95.8 79 91C78.52 86.2 75.48 69.2 75 65C74.52 60.8 74.52 58.28 75 56C75.48 53.72 76.84 48.28 79 46C81.16 43.72 88.32 39.04 93 37C97.68 34.96 111.88 30.56 118 29C124.12 27.44 139.32 24.24 144 24C148.68 23.76 154.96 25.8 157 27C159.04 28.2 160.64 29.2 161 34C161.36 38.8 160.6 59.2 160 67C159.4 74.8 156.24 92.64 156 99C155.76 105.36 157.16 116.16 158 120C158.84 123.84 161.2 128.24 163 131C164.8 133.76 171.44 141.32 173 143C174.56 144.68 174.44 145.12 176 145C177.56 144.88 183.72 142.24 186 142C188.28 141.76 192.96 142.4 195 143C197.04 143.6 201.08 145.44 203 147C204.92 148.56 209.44 153.36 211 156C212.56 158.64 215.04 165.28 216 169C216.96 172.72 218.76 183.4 219 187C219.24 190.6 218.72 196 218 199C217.28 202 214.8 209.36 213 212C211.2 214.64 206.6 219.68 203 221C199.4 222.32 187.08 223.36 183 223C178.92 222.64 172.12 219.92 169 218C165.88 216.08 158.92 209.28 157 207C155.08 204.72 153.6 201.4 153 199C152.4 196.6 151.64 189.88 152 187C152.36 184.12 154.68 177.64 156 175C157.32 172.36 162.16 167.04 163 165C163.84 162.96 164.56 160.52 163 158C161.44 155.48 152.64 148.2 150 144C147.36 139.8 142.32 130.44 141 123C139.68 115.56 142.12 86.68 139 82C135.88 77.32 119.2 83.4 115 84C110.8 84.6 106.16 86.04 104 87C101.84 87.96 97.84 89.84 97 92C96.16 94.16 95.92 99 97 105C98.08 111 104.92 135.88 106 142C107.08 148.12 106.72 152.52 106 156C105.28 159.48 100.72 168.6 100 171C99.28 173.4 98.8 172.88 100 176C101.2 179.12 108.8 193.04 110 197C111.2 200.96 110.48 206.6 110 209C109.52 211.4 108.04 214.84 106 217C103.96 219.16 96.84 225.2 93 227C89.16 228.8 77.36 231.4 74 232C70.64 232.6 67.64 232.36 65 232C62.36 231.64 54.4 229.84 52 229C49.6 228.16 46.92 226.8 45 225C43.08 223.2 37.08 216.28 36 214C34.92 211.72 35.28 210.32 36 206Z" fill="#090909" fill-rule="evenodd"/></svg>
