<svg data-contour-smoothing="organic-v2" xmlns="http://www.w3.org/2000/svg" viewBox="0 0 256 256"><!-- Iconic Drills Pack © 2026 Roman Kuzhel, Kyrgyzstan | CC BY 4.0 | https://github.com/roblo3x/iconic-drills-pack --><path d="M53.8536,163.33737c8.93977,-5.59781 16.05757,-7.25653 26.30638,-4.59248c2.89325,0.75206 6.49789,1.95651 7.59575,-1.84565c1.97006,-6.82281 0.54667,-15.00013 -1.10329,-21.70627c-2.22687,-9.05094 -4.92608,-17.9939 -6.98305,-27.08582c-1.22693,-5.42312 -0.52352,-10.40351 -0.69636,-15.86291c-0.14665,-4.63198 -1.14876,-9.27937 -1.89255,-13.84287c-1.65035,-10.12558 -5.57536,-24.03283 2.33657,-32.6413c9.40853,-10.23682 27.01154,-13.95338 39.94945,-17.13659c10.83737,-2.6664 28.82446,-8.98268 38.673,-0.76521c5.44361,4.54206 3.00452,16.67778 2.78522,22.92007c-0.76803,21.86111 -6.9062,43.7899 -3.43309,65.58092c1.59361,9.99864 8.12828,20.48451 16.00924,26.91549c3.75666,3.06549 8.72339,-0.66868 12.83226,-1.11128c5.18602,-0.55863 10.81707,1.06586 15.17409,3.84754c10.48854,6.69625 14.19446,19.31183 16.19521,30.85861c1.50963,8.71244 2.11369,17.07874 -0.59197,25.64101c-2.31657,7.33095 -6.42901,15.35546 -14.04697,18.37676c-22.27083,8.83267 -53.23656,-7.41048 -50.88389,-33.22433c0.4636,-5.08667 2.58283,-10.63076 5.41489,-14.85862c2.3904,-3.56853 6.60977,-7.32145 6.12243,-12.04277c-0.56184,-5.44297 -7.68707,-9.79354 -11.05048,-13.61564c-5.42057,-6.1598 -9.65286,-15.09764 -11.28418,-23.12996c-2.08803,-10.28112 -0.29485,-21.47408 -0.71102,-31.91312c-0.25672,-6.43952 -0.84346,-12.2436 -8.70476,-11.71012c-4.65017,0.31557 -9.16551,1.74582 -13.66947,2.83696c-6.30401,1.52722 -15.75307,2.15508 -20.12121,7.68623c-3.4949,4.42541 -1.49032,12.37623 -0.3786,17.32985c2.86079,12.74723 8.1354,25.8176 8.8588,38.91722c0.30495,5.52221 -0.88589,10.43057 -3.02626,15.48281c-1.67407,3.95156 -4.72714,8.57776 -3.52103,13.02478c3.50618,12.9276 15.39191,22.90943 8.52267,37.31288c-2.01558,4.22628 -5.8384,7.25181 -9.4788,10.03528c-12.2077,9.3341 -29.37335,10.76667 -43.78302,6.94371c-10.41902,-2.76422 -15.82534,-57.60246 -1.41595,-66.62518z" fill="#090909" fill-rule="evenodd"/></svg>
