<svg xmlns="http://www.w3.org/2000/svg" viewBox="0 0 256 256"><!-- Iconic Drills Pack © 2026 Roman Kuzhel, Kyrgyzstan | CC BY 4.0 | https://github.com/roblo3x/iconic-drills-pack --><path d="M195 167L198 174L201 200L211 198L224 200L226 206L224 212L217 218L192 230L181 230L174 224L171 214L168 183L163 170L138 161L125 153L122 153L122 157L114 174L101 198L94 206L86 209L72 209L47 200L43 215L37 223L32 224L26 218L25 192L29 180L37 176L50 177L58 180L70 180L74 178L84 165L108 120L117 95L90 102L86 107L81 134L76 138L71 138L64 130L64 103L68 92L76 82L101 73L124 69L127 66L134 65L134 56L129 56L110 65L104 65L102 63L105 57L117 53L117 50L104 52L103 48L106 45L121 39L131 38L131 35L109 39L96 48L91 46L91 42L95 39L121 26L158 25L171 27L179 32L186 43L188 56L184 67L173 77L173 82L193 94L197 94L201 90L214 67L216 54L213 50L213 45L216 42L221 42L226 44L229 48L232 62L228 71L228 76L211 104L198 114L188 114L160 103L157 115L149 130L149 133L156 133L187 144L191 149ZM162 37L147 53L148 68L159 74L164 74L170 63L174 61L176 55L176 51L170 54L162 52L162 46L172 44L170 36Z" fill="#090909" fill-rule="evenodd"/></svg>
