<svg data-contour-smoothing="organic-v2" xmlns="http://www.w3.org/2000/svg" viewBox="0 0 256 256"><!-- Iconic Drills Pack © 2026 Roman Kuzhel, Kyrgyzstan | CC BY 4.0 | https://github.com/roblo3x/iconic-drills-pack --><path d="M26.09487,186.204c0.80488,-2.37337 1.86777,-5.15625 3.55188,-7.05906c2.71925,-3.07238 7.34393,-2.59725 11.05408,-2.54852c3.26992,0.04295 6.73136,-0.02523 9.93439,0.71892c6.73025,1.56363 14.18988,5.22419 21.23004,1.97818c6.55055,-3.02027 11.23435,-12.65318 14.56874,-18.62399c7.78417,-13.93893 15.51344,-28.01429 22.38306,-42.42969c2.81218,-5.90115 7.88814,-13.597 8.16731,-20.26634c0.16972,-4.05457 -4.14463,-3.10277 -6.74426,-2.51822c-5.18761,1.16649 -10.26952,2.93044 -15.27507,4.70407c-2.30191,0.81564 -5.29044,1.48537 -7.09542,3.2443c-2.2512,2.19376 -2.48269,6.23866 -3.0039,9.15034c-1.21447,6.78447 -1.26305,15.22694 -4.14219,21.53557c-2.3226,5.08917 -9.58401,4.86763 -13.22419,1.37867c-5.24756,-5.02957 -4.71976,-14.10782 -4.49827,-20.78671c0.35991,-10.85297 2.09237,-23.55186 10.9033,-31.13622c2.96396,-2.55135 7.13384,-3.7728 10.73656,-5.11729c9.45671,-3.52911 19.14447,-5.39493 29.02203,-7.31543c3.18701,-0.61965 6.6779,-0.97687 9.72329,-2.13885c1.73901,-0.66352 2.96638,-2.03931 4.6657,-2.73107c4.2677,-1.7373 8.30763,-2.48496 6.04206,-8.64603c-1.3078,-3.55646 -5.52412,-1.44695 -7.85881,-0.38961c-5.35133,2.42354 -10.60866,5.98231 -16.27686,7.59806c-2.04931,0.58417 -5.52477,1.00456 -6.94307,-1.13771c-4.03474,-6.0943 8.36201,-8.66364 11.36678,-9.85957c0.84511,-0.33636 2.30784,-0.91551 2.71526,-1.92054c0.78048,-1.92532 -2.61162,-1.54026 -3.26995,-1.47061c-2.5781,0.27277 -5.21185,1.32182 -7.8218,1.21651c-4.00164,-0.16146 -2.99072,-4.24063 -0.71386,-6.04138c5.11047,-4.04181 14.13226,-6.6903 20.51164,-7.22212c0.9087,-0.07575 6.31525,-0.09571 5.68221,-2.26508c-0.27643,-0.9473 -2.09663,-0.87604 -2.5961,-0.87129c-2.60698,0.02476 -5.32128,0.66905 -7.88424,1.10105c-5.1788,0.87292 -10.68318,1.57333 -15.20812,4.42389c-3.10479,1.95591 -6.12822,5.76133 -9.7414,6.70001c-2.38088,0.61854 -5.0537,-0.87754 -5.08034,-3.52716c-0.02037,-2.02602 1.53881,-3.35983 3.05644,-4.38216c4.36742,-2.94204 9.40092,-5.15779 14.06284,-7.59502c4.55399,-2.38081 9.39767,-5.55751 14.48258,-6.60527c9.41104,-1.93917 20.36785,-0.66911 29.93946,-0.53731c8.35199,0.11501 17.97167,0.19295 24.78955,5.72921c10.2176,8.29689 14.25707,24.83333 6.42841,35.86036c-2.22335,3.13169 -4.67373,6.66712 -7.63685,9.1424c-1.22401,1.02249 -3.27389,1.80499 -3.58369,3.60807c-0.44915,2.61408 2.63366,4.29195 4.41002,5.43362c4.76272,3.06102 11.68073,8.75582 17.3752,9.54375c4.77759,0.66107 7.4659,-5.29255 9.45193,-8.6215c5.23201,-8.76983 12.35821,-18.40519 12.21103,-29.06749c-0.05435,-3.93737 -3.80608,-6.74676 -2.77904,-10.7594c1.7582,-6.86928 13.33048,-1.99105 15.86766,1.89958c5.90645,9.05723 2.44847,23.73504 -2.69606,32.4192c-2.72149,4.59397 -6.92634,8.11242 -9.61432,12.72599c-1.6778,2.87972 -2.63498,6.11378 -4.31973,8.98784c-3.37785,5.76239 -12.14792,13.045 -19.10098,13.06661c-8.22076,0.02555 -16.84181,-5.75285 -24.25817,-8.81048c-2.39766,-0.98851 -6.532,-3.40335 -9.2004,-2.29861c-2.44393,1.01181 -2.17665,4.53259 -2.31603,6.63276c-0.51776,7.80119 -6.81157,12.66802 -8.37557,19.89637c-0.80809,3.73476 6.21385,2.72359 8.45813,3.48183c4.41354,1.49113 8.39246,4.09134 12.89723,5.3521c5.7112,1.5984 12.0867,1.20403 16.93777,5.20557c3.56869,2.94374 4.65808,8.11499 5.94196,12.33705c2.74146,9.01541 5.01768,17.89233 5.60739,27.32127c0.26082,4.17036 -0.61847,12.07759 2.25036,15.46407c1.76943,2.0887 4.82182,1.09221 7.00182,0.46386c5.80272,-1.67255 19.6239,-2.70747 17.5183,7.16004c-0.40712,1.90791 -1.12324,3.86014 -2.20197,5.49501c-3.53234,5.35343 -11.03154,7.99703 -16.5526,10.72425c-4.16751,2.05861 -8.35004,4.20737 -12.67492,5.92036c-1.86285,0.73784 -3.74353,1.31478 -5.74829,1.50105c-9.66849,0.89829 -14.05536,-4.37988 -16.64282,-13.02371c-3.21573,-10.74265 -2.2348,-22.66639 -3.83271,-33.71283c-0.54487,-3.76669 -0.99306,-8.18056 -3.15735,-11.42672c-2.25482,-3.38194 -6.43146,-4.59042 -10.07481,-5.83568c-6.24271,-2.13368 -12.95754,-3.54797 -18.8222,-6.63458c-3.68033,-1.93698 -7.65581,-6.13914 -11.78797,-6.88749c-1.74147,-0.31539 -1.58427,1.45851 -1.92872,2.60875c-0.93787,3.1319 -2.6637,6.07911 -4.10455,8.99949c-6.00644,12.17412 -11.41813,26.21497 -19.81984,36.95295c-5.96726,7.62659 -14.66147,7.41446 -23.57042,7.11633c-3.97029,-0.13286 -8.0267,-0.28932 -11.76212,-1.77508c-4.42336,-1.75939 -9.46107,-6.49978 -14.33975,-6.58962c-3.5291,-0.06499 -4.3802,4.3082 -5.06859,6.942c-1.53984,5.89145 -1.97523,16.99624 -10.67297,16.49431c-4.2241,-0.24377 -6.71571,-4.05975 -7.31016,-7.85214c-1.21117,-7.72684 -0.48838,-27.2226 0.38504,-29.79808zM155.05135,72.58734c2.12102,0.91992 5.03048,2.46374 7.42697,1.78995c2.50691,-0.70483 3.61837,-3.72225 4.67118,-5.79092c2.68408,-5.27396 8.41154,-8.07551 9.05787,-14.28104c0.32848,-3.1538 -1.92953,-2.86539 -4.2343,-2.21254c-3.44937,0.97708 -8.03149,3.04029 -10.19203,-1.25879c-3.40261,-6.77058 7.52524,-4.41913 9.69822,-7.457c2.28936,-3.20058 -1.44593,-8.00184 -4.68231,-8.40979c-3.49811,-0.44094 -6.11777,1.96614 -8.41532,4.22387c-4.18879,4.11621 -11.9052,29.67718 -3.33028,33.39626z" fill="#090909" fill-rule="evenodd"/></svg>
