<svg xmlns="http://www.w3.org/2000/svg" viewBox="0 0 256 256"><!-- Iconic Drills Pack © 2026 Roman Kuzhel, Kyrgyzstan | CC BY 4.0 | https://github.com/roblo3x/iconic-drills-pack --><path d="M24 164C24.6 163.04 28.72 159.6 31 159C33.28 158.4 40.84 158.76 43 159C45.16 159.24 47.68 160.16 49 161C50.32 161.84 52.32 165.28 54 166C55.68 166.72 61.08 167.12 63 167C64.92 166.88 67.84 166.2 70 165C72.16 163.8 77.88 158.44 81 157C84.12 155.56 92.52 152.76 96 153C99.48 153.24 107.84 157.68 110 159C112.16 160.32 112.92 163.16 114 164C115.08 164.84 116.84 166.12 119 166C121.16 165.88 129.24 164.08 132 163C134.76 161.92 139.12 157.72 142 157C144.88 156.28 153.36 156.64 156 157C158.64 157.36 163.04 159.4 164 160C164.96 160.6 163.28 161.28 164 162C164.72 162.72 167.72 166 170 166C172.28 166 180.48 162.48 183 162C185.52 161.52 189.32 161.4 191 162C192.68 162.6 193.04 166.64 197 167C200.96 167.36 220.4 165 224 165C227.6 165 226.52 166.28 227 167C227.48 167.72 228.36 170.16 228 171C227.64 171.84 225.08 173.88 224 174C222.92 174.12 220.44 172.12 219 172C217.56 171.88 213.68 172.28 212 173C210.32 173.72 206.68 177.4 205 178C203.32 178.6 199.68 178.48 198 178C196.32 177.52 192.56 174.48 191 174C189.44 173.52 186.8 173.28 185 174C183.2 174.72 178.4 179.4 176 180C173.6 180.6 167.4 179.84 165 179C162.6 178.16 158.04 173.84 156 173C153.96 172.16 151 171.16 148 172C145 172.84 134.72 178.8 131 180C127.28 181.2 120 182.24 117 182C114 181.76 108.4 179.44 106 178C103.6 176.56 99.16 170.96 97 170C94.84 169.04 91.24 168.92 88 170C84.76 171.08 73.72 177.92 70 179C66.28 180.08 59.52 179.24 57 179C54.48 178.76 51.4 178.44 49 177C46.6 175.56 39.76 168.2 37 167C34.24 165.8 27.56 167.36 26 167C24.44 166.64 23.4 164.96 24 164ZM25 145C26.44 143.56 36.36 138.84 39 138C41.64 137.16 45.32 137.52 47 138C48.68 138.48 50.72 141.64 53 142C55.28 142.36 62.76 142.32 66 141C69.24 139.68 76.88 132.92 80 131C83.12 129.08 90.08 125.72 92 125C93.92 124.28 94.92 125.6 96 125C97.08 124.4 98.84 121.2 101 120C103.16 118.8 111.6 116.44 114 115C116.4 113.56 120.16 109.2 121 108C121.84 106.8 122.08 106.44 121 105C119.92 103.56 114.04 97.08 112 96C109.96 94.92 106.04 95.64 104 96C101.96 96.36 98 97.32 95 99C92 100.68 82.48 108.8 79 110C75.52 111.2 67.8 109.72 66 109C64.2 108.28 63.4 105.68 64 104C64.6 102.32 68.24 97.4 71 95C73.76 92.6 82.44 86.52 87 84C91.56 81.48 105.16 75.2 109 74C112.84 72.8 114.68 72.32 119 74C123.32 75.68 140.8 85.36 145 88C149.2 90.64 152.8 94.44 154 96C155.2 97.56 154.28 99.68 155 101C155.72 102.32 158.92 106.28 160 107C161.08 107.72 162.8 108.44 164 107C165.2 105.56 168.2 97.28 170 95C171.8 92.72 176 89.2 179 88C182 86.8 191.76 84.76 195 85C198.24 85.24 203.96 88.08 206 90C208.04 91.92 211.4 98 212 101C212.6 104 211.6 112.6 211 115C210.4 117.4 209.04 119.2 207 121C204.96 122.8 199.4 128.68 194 130C188.6 131.32 165.84 131.16 162 132C158.16 132.84 160.8 135.56 162 137C163.2 138.44 169 143.76 172 144C175 144.24 184.48 139.6 187 139C189.52 138.4 190.96 138.16 193 139C195.04 139.84 202.2 145.16 204 146C205.8 146.84 206.68 146.6 208 146C209.32 145.4 213.56 141.6 215 141C216.44 140.4 218.32 140.52 220 141C221.68 141.48 227.56 143.8 229 145C230.44 146.2 232.24 149.92 232 151C231.76 152.08 228.92 154.24 227 154C225.08 153.76 218.4 148.88 216 149C213.6 149.12 209.04 154.4 207 155C204.96 155.6 200.44 154.48 199 154C197.56 153.52 196.44 151.24 195 151C193.56 150.76 188.56 151.52 187 152C185.44 152.48 183.56 154.64 182 155C180.44 155.36 176.76 156.08 174 155C171.24 153.92 161.88 147.2 159 146C156.12 144.8 152.88 144.28 150 145C147.12 145.72 138.24 151.04 135 152C131.76 152.96 125.52 153.12 123 153C120.48 152.88 117.12 152.32 114 151C110.88 149.68 99.52 143.08 97 142C94.48 140.92 95.16 141.52 93 142C90.84 142.48 82.36 144.68 79 146C75.64 147.32 67.76 152.16 65 153C62.24 153.84 58.52 153.84 56 153C53.48 152.16 46.28 146.72 44 146C41.72 145.28 38.32 146.52 37 147C35.68 147.48 34.2 149.64 33 150C31.8 150.36 27.96 150.6 27 150C26.04 149.4 23.56 146.44 25 145ZM181 106C180.76 107.2 180.28 112.16 181 113C181.72 113.84 185.8 113.36 187 113C188.2 112.64 190.16 109.4 191 110C191.84 110.6 193.04 117.04 194 118C194.96 118.96 198.16 118.24 199 118C199.84 117.76 200.64 117.08 201 116C201.36 114.92 202.72 109.72 202 109C201.28 108.28 195.72 110.6 195 110C194.28 109.4 195.04 104.48 196 104C196.96 103.52 202.52 106.96 203 106C203.48 105.04 200.96 97.44 200 96C199.04 94.56 196.56 94.12 195 94C193.44 93.88 188.08 94.28 187 95C185.92 95.72 185.64 99.4 186 100C186.36 100.6 189.28 99.4 190 100C190.72 100.6 192.24 104.28 192 105C191.76 105.72 188.72 106.24 188 106C187.28 105.76 186.6 103.36 186 103C185.4 102.64 183.6 102.64 183 103C182.4 103.36 181.24 104.8 181 106Z" fill="#090909" fill-rule="evenodd"/></svg>
