<svg xmlns="http://www.w3.org/2000/svg" viewBox="0 0 256 256"><!-- Iconic Drills Pack © 2026 Roman Kuzhel, Kyrgyzstan | CC BY 4.0 | https://github.com/roblo3x/iconic-drills-pack --><path d="M24 121C25.56 118.36 36.48 107.28 39 105C41.52 102.72 40.32 106.2 45 102C49.68 97.8 72.6 74.92 78 70C83.4 65.08 88.44 62.44 90 61C91.56 59.56 86.92 62.2 91 58C95.08 53.8 119.32 29.72 124 26C128.68 22.28 128.56 25.92 130 27C131.44 28.08 132.16 31.4 136 35C139.84 38.6 158.52 54.36 162 57C165.48 59.64 164.64 58.2 165 57C165.36 55.8 164.16 48.32 165 47C165.84 45.68 170.68 46.6 172 46C173.32 45.4 175.16 42.48 176 42C176.84 41.52 178.16 41.52 179 42C179.84 42.48 181.44 45.52 183 46C184.56 46.48 190.92 41.68 192 46C193.08 50.32 190.56 76.6 192 82C193.44 87.4 201.84 88.96 204 91C206.16 93.04 208.56 97.68 210 99C211.44 100.32 213.48 99.12 216 102C218.52 104.88 229.2 119.76 231 123C232.8 126.24 231.24 128.16 231 129C230.76 129.84 231.4 129.88 229 130C226.6 130.12 212.56 120.88 211 130C209.44 139.12 215.52 194.84 216 206C216.48 217.16 215.6 220.6 215 223C214.4 225.4 213.4 225.52 211 226C208.6 226.48 198 226.88 195 227C192 227.12 187.56 227.36 186 227C184.44 226.64 182.72 233.6 182 224C181.28 214.4 180.6 156.6 180 147C179.4 137.4 179.04 144.36 177 144C174.96 143.64 166.12 143.64 163 144C159.88 144.36 152.68 145.8 151 147C149.32 148.2 149.24 144.16 149 154C148.76 163.84 153.08 219.88 149 229C144.92 238.12 121.48 230.24 115 230C108.52 229.76 102.44 227.48 95 227C87.56 226.52 58.64 227.8 53 226C47.36 224.2 48.6 224.12 48 212C47.4 199.88 50.64 135.2 48 125C45.36 114.8 28.88 127.48 26 127C23.12 126.52 22.44 123.64 24 121ZM72 115C69.84 117.76 69.84 134.48 72 137C74.16 139.52 87.84 138.76 90 136C92.16 133.24 92.16 116.52 90 114C87.84 111.48 74.16 112.24 72 115ZM72 150C71.88 152.4 69.84 164.96 72 167C74.16 169.04 87.84 169.52 90 167C92.16 164.48 92.04 148.4 90 146C87.96 143.6 75.16 146.52 73 147C70.84 147.48 72.12 147.6 72 150ZM99 115C96.72 117.52 96.84 133.48 99 136C101.16 138.52 114.72 138.52 117 136C119.28 133.48 120.16 117.52 118 115C115.84 112.48 101.28 112.48 99 115ZM99 146C96.72 148.4 96.72 163.48 99 166C101.28 168.52 115.72 169.4 118 167C120.28 164.6 120.28 148.52 118 146C115.72 143.48 101.28 143.6 99 146ZM168 183C168.6 181.68 172.16 181.88 173 182C173.84 182.12 174.76 182.68 175 184C175.24 185.32 175.24 191.68 175 193C174.76 194.32 173.84 195 173 195C172.16 195 168.6 194.44 168 193C167.4 191.56 167.4 184.32 168 183Z" fill="#090909" fill-rule="evenodd"/></svg>
