<svg xmlns="http://www.w3.org/2000/svg" viewBox="0 0 256 256"><path d="M192 51L192 82L204 91L210 99L216 102L231 123L231 129L229 130L211 130L216 206L215 223L211 226L195 227L186 227L182 224L180 147L177 144L163 144L151 147L149 154L149 229L115 230L95 227L53 226L48 212L48 125L26 127L24 121L27 117L90 61L91 58L124 26L130 27L136 35L162 57L165 57L165 47L172 46L176 42L179 42L183 46L192 46ZM99 120L99 136L117 136L117 114L102 114L99 115ZM72 129L72 137L90 136L90 114L72 115ZM99 162L100 167L118 167L118 146L99 146ZM82 167L90 167L90 146L73 147L72 167ZM175 191L173 195L168 193L168 183L173 182L175 184Z" fill="#090909" fill-rule="evenodd"/></svg>
