<svg xmlns="http://www.w3.org/2000/svg" viewBox="0 0 256 256"><!-- Iconic Drills Pack © 2026 Roman Kuzhel, Kyrgyzstan | CC BY 4.0 | https://github.com/roblo3x/iconic-drills-pack --><path d="M159 78L156 96L150 105L140 108L132 105L128 100L127 89L132 68L141 47L145 45L181 45L188 50L194 63L232 66L232 76L229 87L223 98L187 109L181 167L182 205L177 209L162 209L157 205L158 188L156 168L155 163L152 163L147 165L145 206L142 209L129 210L123 207L121 166L86 168L88 202L84 208L80 209L71 209L65 205L63 171L57 170L54 206L45 210L32 209L30 204L31 129L25 112L26 88L29 85L35 85L38 88L38 95L43 108L53 108L81 102L123 97L131 112L149 114L160 106L164 97L166 66L161 67Z" fill="#090909" fill-rule="evenodd"/></svg>
