<svg xmlns="http://www.w3.org/2000/svg" viewBox="0 0 256 256"><!-- Iconic Drills Pack © 2026 Roman Kuzhel, Kyrgyzstan | CC BY 4.0 | https://github.com/roblo3x/iconic-drills-pack --><path d="M24 81C24.24 79.8 25.8 77.6 27 77C28.2 76.4 32.2 75.4 34 76C35.8 76.6 40.32 81.16 42 82C43.68 82.84 45.6 84.8 48 83C50.4 81.2 59 69.88 62 67C65 64.12 69.76 60.92 73 59C76.24 57.08 84.92 52.44 89 51C93.08 49.56 102.68 47.48 107 47C111.32 46.52 119.6 46.28 125 47C130.4 47.72 146.6 51.08 152 53C157.4 54.92 166.52 60.6 170 63C173.48 65.4 176.92 72.64 181 73C185.08 73.36 200.64 66.48 204 66C207.36 65.52 208.4 67.8 209 69C209.6 70.2 209.96 74.44 209 76C208.04 77.56 203.04 81.04 201 82C198.96 82.96 193.08 83.4 192 84C190.92 84.6 191.52 86.16 192 87C192.48 87.84 194.92 89.2 196 91C197.08 92.8 198.48 100.44 201 102C203.52 103.56 214 103.04 217 104C220 104.96 224.2 107.24 226 110C227.8 112.76 231.4 122.92 232 127C232.6 131.08 231.6 140.76 231 144C230.4 147.24 228.44 151.96 227 154C225.56 156.04 220.92 159.92 219 161C217.08 162.08 214.36 162.76 211 163C207.64 163.24 193.4 162.76 191 163C188.6 163.24 192.32 163.56 191 165C189.68 166.44 181.44 173.2 180 175C178.56 176.8 178.52 177.72 179 180C179.48 182.28 183.52 191.72 184 194C184.48 196.28 183.48 198.16 183 199C182.52 199.84 181.32 201 180 201C178.68 201 173.56 200.92 172 199C170.44 197.08 168.2 186.56 167 185C165.8 183.44 162.6 183.96 162 186C161.4 188.04 162.24 199.72 162 202C161.76 204.28 161.2 204.64 160 205C158.8 205.36 153.2 205.24 152 205C150.8 204.76 150.48 205.04 150 203C149.52 200.96 153.76 189.68 148 188C142.24 186.32 108.12 188.76 102 189C95.88 189.24 97.24 187.96 97 190C96.76 192.04 100.48 203.72 100 206C99.52 208.28 94.44 209 93 209C91.56 209 89.44 208.28 88 206C86.56 203.72 83.16 192.16 81 190C78.84 187.84 71.56 186.08 70 188C68.44 189.92 68.6 203.48 68 206C67.4 208.52 66.08 208.64 65 209C63.92 209.36 60.2 209.48 59 209C57.8 208.52 55.36 208.48 55 205C54.64 201.52 57.44 184.68 56 180C54.56 175.32 45.64 170.56 43 166C40.36 161.44 35.2 147.16 34 142C32.8 136.84 32.4 128.52 33 123C33.6 117.48 39.36 99.72 39 96C38.64 92.28 31.68 93.08 30 92C28.32 90.92 25.72 88.32 25 87C24.28 85.68 23.76 82.2 24 81ZM177 128C176.88 130.4 176.56 140.48 178 143C179.44 145.52 185.28 148.16 189 149C192.72 149.84 205.88 150.24 209 150C212.12 149.76 213.8 148.44 215 147C216.2 145.56 218.64 140.76 219 138C219.36 135.24 218.96 126.64 218 124C217.04 121.36 214.72 116.84 211 116C207.28 115.16 190.84 116.16 187 117C183.16 117.84 180.2 121.68 179 123C177.8 124.32 177.12 125.6 177 128ZM185 134C184.64 132.32 185.52 129.08 186 128C186.48 126.92 187.92 125.12 189 125C190.08 124.88 194.16 125.44 195 127C195.84 128.56 196.24 136.2 196 138C195.76 139.8 193.84 141.52 193 142C192.16 142.48 189.96 142.96 189 142C188.04 141.04 185.36 135.68 185 134ZM203 129C203.24 127.2 205.04 125.48 206 125C206.96 124.52 210.16 124.76 211 125C211.84 125.24 212.76 125.32 213 127C213.24 128.68 213.36 137.2 213 139C212.64 140.8 211.08 141.88 210 142C208.92 142.12 204.84 141.56 204 140C203.16 138.44 202.76 130.8 203 129Z" fill="#090909" fill-rule="evenodd"/></svg>
