<svg xmlns="http://www.w3.org/2000/svg" viewBox="0 0 256 256"><!-- Iconic Drills Pack © 2026 Roman Kuzhel, Kyrgyzstan | CC BY 4.0 | https://github.com/roblo3x/iconic-drills-pack --><path d="M29.49 108.58C28.79 105.93 30.2 102.33 30.9 101.06C31.6 99.79 34.35 99.59 35.32 97.95C36.3 96.32 36.54 89.87 39.01 87.47C41.48 85.06 53.52 78.8 55.91 77.92C58.3 77.04 59.01 78.84 58.93 80.12C58.84 81.39 55.35 87.65 55.21 88.54C55.06 89.43 56.6 89.19 57.72 87.53C58.83 85.87 63.69 76.51 64.47 74.71C65.25 72.91 64.95 72.8 64.22 72.49C63.48 72.18 61.43 70.73 58.34 72.11C55.25 73.49 41.2 82.57 38.45 83.96C35.7 85.35 35.74 84.15 35.41 83.67C35.08 83.2 33.53 83.52 35.69 79.99C37.85 76.46 49.38 59 53.41 54.26C57.45 49.52 66.8 42.29 69.32 40.5C71.84 38.7 72.68 39.15 74.43 39.31C76.17 39.47 81.35 40.09 83.88 41.83C86.4 43.57 93.71 51.2 95.5 53.8C97.29 56.4 98.49 61.65 98.8 63.49C99.1 65.32 97.43 67.8 98.04 69.11C98.65 70.41 102.83 72.85 103.88 74.37C104.93 75.89 106.79 77.93 106.79 81.75C106.8 85.56 100.93 104.03 103.95 106.17C106.97 108.3 127.22 100.16 131.99 99.54C136.76 98.92 140.7 99.74 143.71 101.01C146.71 102.28 153.96 107.13 157.05 110.16C160.13 113.18 166.81 121.51 169.44 126.21C172.07 130.9 177.81 141.93 178.95 149.27C180.1 156.62 178.71 181.81 178.99 187.42C179.27 193.02 180.56 194.83 181.25 195.98C181.94 197.14 183.74 197.65 184.73 197.01C185.72 196.37 187.69 195.85 189.49 190.65C191.28 185.45 198.88 159.15 199.72 153.66C200.56 148.17 200.03 149.28 196.51 144.91C192.99 140.54 174.85 122.92 170.39 117.26C165.92 111.6 160.91 101.63 159.27 97.75C157.63 93.88 156.38 89.45 156.72 84.96C157.07 80.48 161.57 63.97 162.13 60.35C162.7 56.72 161.32 55.47 161.43 54.77C161.55 54.07 163.02 55 163.11 54.51C163.21 54.03 162.1 51.3 162.24 50.74C162.38 50.19 164.17 50.24 164.28 49.88C164.39 49.51 162.92 48.01 163.14 47.71C163.36 47.4 165.44 47.85 166.14 47.32C166.84 46.8 168.28 43.66 169 43.33C169.72 43 171.62 44.6 172.13 44.57C172.63 44.53 168.76 43.49 173.21 43.07C177.66 42.64 203.76 40.78 209.2 41.02C214.63 41.27 216.36 43.12 218.52 45.14C220.68 47.15 226.21 55.11 227.18 57.83C228.16 60.55 227.12 65.72 226.65 67.79C226.17 69.86 225.45 71.9 223.24 75.05C221.03 78.21 211.42 90.61 208.24 94.05C205.06 97.49 198.92 102.2 196.74 103.71C194.56 105.21 191.7 106.53 190.05 106.59C188.39 106.65 184.05 105.14 182.94 104.22C181.84 103.31 180.96 100.5 180.86 98.98C180.77 97.47 181.33 93.64 182.17 91.59C183 89.53 186.32 83.75 187.8 81.87C189.28 79.99 193.17 76.73 194.48 75.92C195.8 75.1 198.03 74.9 198.77 75.08C199.5 75.25 200.93 75.62 200.58 77.37C200.23 79.12 195.65 88.53 195.85 89.68C196.04 90.83 200.3 88.86 202.22 86.99C204.14 85.12 210.5 76.3 211.86 74.12C213.22 71.93 213.53 70.27 213.54 68.8C213.54 67.34 213.18 63.1 211.9 61.9C210.63 60.7 206.07 58.77 202.91 58.8C199.74 58.82 188.39 60.95 185.54 62.12C182.69 63.3 180.63 65.96 179.16 68.6C177.69 71.25 174.07 80.06 173.29 84.19C172.51 88.32 171.86 99.21 172.64 103.04C173.42 106.87 177.61 113.5 179.79 116.11C181.98 118.72 187.12 122.42 190.88 124.77C194.64 127.12 207.99 133.29 211.16 135.68C214.33 138.08 216.6 142.97 217.31 144.71C218.02 146.44 218.22 146.88 217.06 150.14C215.91 153.4 209.37 165.55 207.7 171.87C206.04 178.18 204.62 197.65 203.19 202.8C201.76 207.94 197.52 212.84 195.81 214.73C194.1 216.62 191.07 218.42 188.93 218.55C186.79 218.68 181.18 217.3 177.95 215.8C174.72 214.31 164.65 206.52 162.02 206.09C159.38 205.66 161.37 210.18 155.97 212.2C150.57 214.22 124.44 222.15 117.02 222.93C109.59 223.7 97.92 219.81 94.09 218.67C90.26 217.53 86.12 215.3 85.11 213.42C84.1 211.53 84.72 205.08 85.67 202.98C86.63 200.88 90.18 195.97 93.05 195.94C95.91 195.92 106.51 201.83 109.54 202.77C112.58 203.71 117.42 204.01 118.36 203.78C119.29 203.55 118.92 202.23 117.35 200.88C115.77 199.52 107.4 194.52 105.24 192.51C103.07 190.5 100.4 186.15 99.28 184.13C98.16 182.1 96.16 177.42 95.89 175.59C95.62 173.77 95.78 170.39 97.01 168.92C98.24 167.45 101.54 165.02 106.16 163.35C110.78 161.67 131.85 156.38 135.49 154.93C139.14 153.48 136.82 151.73 136.51 151.26C136.19 150.8 135.3 150.29 132.86 151.04C130.41 151.78 120.15 156.31 116.11 157.45C112.07 158.6 101.61 159.8 99.15 160.55C96.69 161.3 96.76 163.24 95.62 163.71C94.48 164.17 91.08 163.73 89.64 164.46C88.21 165.19 84.6 169.26 83.69 169.81C82.77 170.35 83.37 167.19 82.04 169C80.71 170.82 74.93 180.03 72.59 184.91C70.25 189.79 65.14 205.49 62.55 209.68C59.96 213.86 53.13 218.64 51.02 219.78C48.91 220.92 46 220.03 44.94 219.17C43.88 218.3 42.48 214.65 42.2 212.56C41.91 210.47 42.03 203.97 42.55 201.75C43.07 199.54 46.19 195.26 46.53 194.09C46.88 192.92 45.02 193.54 45.45 192C45.88 190.46 49.67 182.83 50.11 181.28C50.55 179.72 48.89 180.45 49.13 179.06C49.38 177.68 50.91 172.62 52.18 169.73C53.46 166.84 56.89 159.04 59.75 154.96C62.6 150.87 73.91 139.38 75.99 135.67C78.06 131.96 77.2 126.1 77.03 124.05C76.86 121.99 75.25 119.23 74.59 118.56C73.94 117.89 73.59 117.48 71.58 118.46C69.57 119.44 60.9 125.43 57.83 126.75C54.75 128.07 48.49 129.87 45.95 129.43C43.41 129 38.67 125.62 36.69 123.11C34.72 120.61 30.18 111.22 29.49 108.58ZM76.08 84.09C75.2 85.97 75 92.07 75.26 93.74C75.52 95.42 77.18 97.06 78.25 98.04C79.31 99.02 82.68 101.58 84.11 101.92C85.55 102.26 88.98 102.26 90.21 100.84C91.44 99.41 94.05 92.47 94.37 90.04C94.68 87.62 93.71 82.12 92.81 80.62C91.92 79.12 88.17 77.84 86.95 77.54C85.72 77.23 83.91 77.27 82.61 78.06C81.3 78.85 76.96 82.21 76.08 84.09Z" fill="#090909" fill-rule="evenodd"/></svg>
