<svg xmlns="http://www.w3.org/2000/svg" viewBox="0 0 256 256"><!-- Iconic Drills Pack © 2026 Roman Kuzhel, Kyrgyzstan | CC BY 4.0 | https://github.com/roblo3x/iconic-drills-pack --><path d="M19.76 145.01C20.95 142.45 25.34 136.92 29.38 133.06C33.42 129.2 52.32 117.83 53.41 112.86C54.51 107.89 40.41 95.17 38.5 91.62C36.6 88.08 37.06 85.25 37.54 83.35C38.01 81.44 39.3 78.65 42.43 75.74C45.55 72.82 59.49 61.82 63.57 59.04C67.65 56.26 73.3 53.54 76.46 52.56C79.63 51.57 87.29 50.38 89.92 50.84C92.55 51.29 97.03 55.09 98.37 56.33C99.71 57.57 100.41 58.65 101.08 61.17C101.75 63.68 102.82 75.17 103.94 77.25C105.05 79.33 105.66 79.3 110.37 78.52C115.08 77.74 138.87 72.55 143.17 70.77C147.47 68.99 144.92 65.41 146.2 63.66C147.48 61.91 151.28 58 153.85 56.2C156.42 54.39 165.14 49.66 167.63 48.63C170.12 47.61 171.95 47.29 174.6 47.66C177.25 48.03 186.01 49.52 189.74 51.72C193.48 53.93 202.43 60.41 205.76 66.03C209.1 71.65 216.29 93.56 217.51 98.56C218.73 103.56 215.13 105.7 215.9 107.67C216.67 109.64 223.06 113.89 223.93 114.97C224.81 116.05 222.93 116.29 223.2 116.67C223.47 117.06 225.48 117.11 226.16 118.2C226.84 119.3 228 121.1 228.86 125.79C229.73 130.48 234.12 151 233.38 157.3C232.64 163.61 225.68 174.65 222.69 178.33C219.7 182 211.75 186.44 208.47 187.92C205.2 189.39 200.45 190.3 195.4 190.6C190.34 190.91 171.56 189.99 166.33 190.48C161.09 190.98 156.38 192.85 151.81 194.71C147.23 196.58 132.95 204.39 128.2 206.04C123.44 207.7 115.41 208.58 112.19 208.52C108.97 208.46 104.84 207.08 101.35 205.54C97.86 203.99 88.35 197.09 83.11 195.62C77.87 194.16 62.05 194.21 57.66 193.29C53.28 192.37 49.62 190.18 46.57 187.94C43.52 185.7 35.16 177.76 32.24 174.62C29.32 171.49 23.76 164.28 22.23 161.85C20.7 159.42 19.79 156.41 19.49 154.39C19.2 152.37 18.58 147.57 19.76 145.01ZM42.26 153.47C41.53 154.39 41.94 156.73 42.52 157.56C43.1 158.39 41.54 160.23 47.08 160.36C52.61 160.5 78.32 157.54 88.61 158.67C98.91 159.8 126.35 168.65 132.86 169.8C139.36 170.95 138.89 169.52 142.82 168.25C146.76 166.97 159.58 160.57 165.66 159.18C171.75 157.79 189.35 157.38 193.54 156.66C197.73 155.95 199.37 154.14 200.55 153.21C201.74 152.28 203.36 150.02 203.42 148.9C203.48 147.79 202.13 144.54 201.06 143.94C200 143.34 196.47 143.35 194.57 143.91C192.67 144.46 188.55 147.83 185.22 148.59C181.9 149.35 171.92 148.84 166.85 150.22C161.79 151.6 147.33 158.65 143.02 160.08C138.71 161.51 133.98 162.08 130.95 162.12C127.93 162.17 121.87 161.58 117.84 160.45C113.81 159.33 102.08 154.12 97.36 152.76C92.64 151.4 83.4 149.3 78.51 149.13C73.62 148.95 60.19 151.21 56.6 151.31C53.01 151.41 50.33 149.68 48.61 149.94C46.89 150.2 42.99 152.56 42.26 153.47ZM57.4 85.73C57.76 87.95 60.89 93.43 63.02 95.51C65.14 97.6 72.31 102.33 75.1 103.09C77.88 103.85 84.14 102.66 86.23 101.88C88.32 101.11 91.76 98.12 92.52 96.61C93.27 95.11 93 91.56 92.53 89.34C92.06 87.12 89.46 80.19 88.61 78.13C87.75 76.07 86.49 73.43 85.4 72.18C84.32 70.93 81.3 68.14 79.54 67.72C77.78 67.29 72.51 68.08 70.73 68.6C68.96 69.13 66.05 71.07 64.77 72.07C63.49 73.07 60.96 75.31 60.08 76.95C59.19 78.58 57.05 83.5 57.4 85.73ZM66.66 84.17C66.73 82.61 69.32 78.5 70.58 77.69C71.85 76.87 75.76 76.81 77.21 77.38C78.66 77.95 81.75 80.89 82.66 82.43C83.56 83.97 84.81 88.87 84.78 90.23C84.75 91.58 83.55 93.29 82.41 93.75C81.26 94.21 76.74 94.44 75.26 94.08C73.78 93.72 71.07 91.94 70.04 90.76C69.01 89.57 66.6 85.74 66.66 84.17ZM162.18 75.99C163.07 77.61 166.34 82.68 168.74 85.01C171.14 87.35 179.21 93.77 182.19 95.44C185.17 97.1 191.41 98.78 193.58 98.91C195.76 99.03 199.48 97.46 200.29 96.5C201.11 95.55 201.14 93.13 200.41 90.94C199.68 88.75 196.62 81.46 194.2 78.27C191.79 75.08 182.63 66.24 180.26 64.36C177.89 62.47 176.32 62.41 174.46 62.58C172.61 62.75 166.37 64.69 164.8 65.76C163.24 66.84 161.71 70.31 161.39 71.54C161.08 72.77 161.3 74.38 162.18 75.99ZM171.43 76.36C170.46 74.52 172.5 71.86 173.57 71.41C174.64 70.97 178.31 71.25 180.34 72.67C182.37 74.1 189.13 81.44 190.48 83.32C191.82 85.19 191.76 87.57 191.54 88.29C191.32 89.02 189.84 89.54 188.65 89.36C187.46 89.17 183.73 88.28 181.67 86.72C179.6 85.16 172.4 78.2 171.43 76.36Z" fill="#090909" fill-rule="evenodd"/></svg>
