<svg data-contour-smoothing="organic-v2" xmlns="http://www.w3.org/2000/svg" viewBox="0 0 256 256"><!-- Iconic Drills Pack © 2026 Roman Kuzhel, Kyrgyzstan | CC BY 4.0 | https://github.com/roblo3x/iconic-drills-pack --><path d="M31.74395,89.89457c1.04707,-5.85107 -4.6855,-14.17508 1.22016,-18.56436c4.4801,-3.32976 10.49036,-2.39779 13.91595,1.91969c1.01122,1.2745 1.29536,3.36937 2.77982,4.24111c2.79783,1.64301 8.61637,0.19927 11.27342,-1.16772c5.08658,-2.61691 8.51556,-8.81883 12.11648,-13.07465c3.981,-4.70503 8.82245,-7.86939 14.28027,-10.64879c12.57121,-6.4019 26.81275,-7.97446 40.66604,-9.20415c25.2507,-2.24139 55.50853,-5.77288 78.11425,8.61208c11.934,7.5941 16.59958,20.32872 20.30949,33.22415c3.54096,12.30817 6.41284,24.40163 5.65195,37.32389c-0.51198,8.6949 -4.23267,16.7727 -4.02924,25.56778c0.15264,6.59901 1.41563,13.35767 0.8754,19.95021c-0.38227,4.66497 -2.75923,8.89067 -2.7991,13.59858c-0.05072,5.98967 1.96263,11.91952 -0.47681,17.731c-4.1815,9.9616 -19.33633,19.7062 -29.13221,10.9776c-2.04439,-1.82165 -3.28545,-3.97765 -3.57994,-6.70836c-0.27103,-2.51307 0.1763,-5.23372 -2.11964,-6.97621c-5.55833,-4.21847 -13.35413,-1.73886 -14.80323,-10.69455c-1.02261,-6.31995 -0.47625,-13.65893 1.0252,-19.84634c1.43757,-5.92415 3.86978,-13.5763 1.40747,-19.58593c-2.54692,-6.21615 -13.21937,-8.60137 -19.11533,-7.81482c-3.88269,0.51797 -9.34486,3.62559 -10.80232,7.49208c-1.49296,3.96066 -0.28755,9.65451 -0.08535,13.79083c0.57993,11.8638 2.12844,24.06629 1.51638,35.93914c-0.2808,5.44702 -2.56458,12.49991 -7.25263,15.78426c-6.75331,4.73122 -18.13758,3.41634 -24.44232,-1.14946c-1.9614,-1.42042 -4.42411,-2.82157 -5.01996,-5.36026c-0.85634,-3.64855 0.1116,-8.19044 0.36597,-11.88726c0.50267,-7.30562 1.15072,-14.62346 1.35103,-21.94552c0.13909,-5.08421 -0.6245,-13.5119 -6.98637,-14.6962c-7.28427,-1.35602 -9.01516,6.35074 -8.96583,11.87636c0.09231,10.33867 -0.68998,19.56953 -3.73055,29.53784c-1.5542,5.09537 -4.36768,9.98871 -10.01672,11.08602c-2.57533,0.50025 -5.35028,0.42382 -7.95831,0.31202c-9.67915,-0.41495 -14.76956,-8.04583 -15.53255,-17.17051c-1.25919,-15.05887 5.19219,-28.41828 7.88053,-42.94856c0.82192,-4.4424 2.97931,-11.33285 0.91324,-15.66483c-2.45849,-5.15476 -13.97004,-2.98322 -18.50516,-2.81319c-5.41382,0.20297 -10.59765,0.14874 -15.63837,-2.12467c-8.52993,-3.84707 -5.84607,-32.35261 -4.67111,-38.91831zM50.79316,110.49722c3.8425,1.99312 10.09745,0.2509 11.73329,-3.82978c2.8216,-7.03863 -3.52505,-16.23702 -11.15326,-11.07549c-2.23185,1.51015 -4.21059,13.02208 -0.58003,14.90527z" fill="#090909" fill-rule="evenodd"/></svg>
