<svg data-contour-smoothing="organic-v2" xmlns="http://www.w3.org/2000/svg" viewBox="0 0 256 256"><!-- Iconic Drills Pack © 2026 Roman Kuzhel, Kyrgyzstan | CC BY 4.0 | https://github.com/roblo3x/iconic-drills-pack --><path d="M42.01998,80.33194c2.92727,-2.3732 6.72011,-4.63005 9.03058,-7.63792c5.30533,-6.90669 11.13633,-13.25323 17.11108,-19.61604c5.83121,-6.20994 11.06361,-12.32847 18.27714,-17.24994c7.01742,-4.78767 15.31831,-9.0363 24.10121,-8.02932c11.84987,1.35861 21.56286,11.72597 33.71228,11.80825c11.4643,0.07763 22.05416,-4.17524 33.73723,-2.4324c13.91749,2.07616 25.00942,13.39514 33.98016,23.28996c5.41294,5.97053 10.546,11.98343 14.13683,19.26405c1.74862,3.54544 3.24444,7.38689 3.3795,11.38442c0.3368,9.96909 -5.29376,19.47458 -4.33738,29.53941c0.62137,6.53921 3.37981,13.01305 5.49129,19.17944c1.23354,3.60243 3.02708,7.66443 2.37173,11.55747c-1.39824,8.30612 -10.02905,15.01376 -17.13091,18.34113c-10.85113,5.08398 -22.6015,8.248 -32.94329,14.41528c-14.75335,8.79809 -29.43489,23.98408 -47.96432,22.04491c-10.23014,-1.07062 -20.57766,-6.95884 -30.06912,-10.67847c-3.86664,-1.51531 -8.97373,-4.31043 -13.21995,-4.10956c-4.54556,0.21503 -7.04668,6.19558 -9.00651,9.55306c-4.2232,7.235 -7.69502,16.02232 -13.51518,22.13307c-3.14882,3.30602 -7.39241,6.09296 -12.15386,5.50815c-12.52567,-1.53842 -10.97759,-19.74943 -8.49908,-28.5901c0.53914,-1.92308 1.28702,-3.78657 2.00511,-5.6472c1.18842,-3.07926 3.97962,-7.82902 2.07151,-11.09819c-1.95831,-3.35518 -6.23956,-4.56082 -8.31673,-8.11601c-5.29168,-9.05702 -4.99274,-18.98762 -8.25565,-28.6293c-5.22562,-15.44137 -1.44063,-60.14673 6.00632,-66.18413zM86.56891,127.47872c2.64441,-4.66616 0.89604,-12.53013 0.05204,-17.54486c-0.38753,-2.30257 -0.86079,-5.39165 -3.29138,-6.47871c-2.24094,-1.00224 -5.39472,-0.08802 -7.61292,0.52696c-5.96906,1.65487 2.47488,38.2788 10.85226,23.49661zM122.92325,132.24976c2.61247,2.0712 9.11933,6.06106 12.11766,2.54374c1.58021,-1.85373 1.77121,-5.16823 2.21397,-7.45176c1.3905,-7.1715 4.40445,-17.54894 -2.07475,-23.15944c-7.76073,-6.7202 -19.95411,21.96501 -12.25688,28.06747zM158.52398,122.59347c4.54933,6.09267 18.95371,6.28994 23.07499,-0.48053c2.84952,-4.68122 1.14571,-12.62767 0.73411,-17.79899c-0.17779,-2.23376 -0.04453,-5.48737 -2.4232,-6.67753c-7.81886,-3.91213 -24.21083,21.17378 -21.3859,24.95705z" fill="#090909" fill-rule="evenodd"/></svg>
