<svg xmlns="http://www.w3.org/2000/svg" viewBox="0 0 256 256"><!-- Iconic Drills Pack © 2026 Roman Kuzhel, Kyrgyzstan | CC BY 4.0 | https://github.com/roblo3x/iconic-drills-pack --><path d="M113 139L92 143L82 147L74 164L68 170L53 178L45 179L43 177L42 173L49 147L49 137L38 131L31 124L24 107L24 95L27 84L43 62L64 48L91 41L113 42L127 49L136 51L139 54L155 77L155 100L148 113L137 126L128 133ZM125 91L126 86L120 72L97 71L99 88L104 96L115 99L120 97ZM165 134L163 146L168 150L172 150L176 145L177 131L167 128ZM230 141L232 145L232 158L229 166L216 183L205 188L205 191L211 198L225 209L225 212L222 214L214 214L185 205L173 194L158 197L141 194L128 184L121 172L119 164L120 145L137 135L143 125L150 120L155 109L171 102L184 102L189 105L203 106L210 109L225 124ZM55 97L62 105L62 108L72 105L77 100L76 79L65 78L59 81L56 86ZM68 88L66 94L61 92L62 87L66 86ZM195 155L193 151L195 148L198 148L200 154ZM194 162L201 161L204 156L204 147L198 143L192 144L189 148L189 157ZM116 82L117 86L112 88L107 84L110 80L115 80ZM91 105L87 107L86 113L100 109L100 105ZM173 162L167 167L167 171L175 172L181 168L179 162ZM153 141L148 141L143 149L143 157L149 163L154 163L159 156L159 148ZM154 151L153 155L147 152L150 147L152 147Z" fill="#090909" fill-rule="evenodd"/></svg>
