<svg xmlns="http://www.w3.org/2000/svg" viewBox="0 0 256 256"><!-- Iconic Drills Pack © 2026 Roman Kuzhel, Kyrgyzstan | CC BY 4.0 | https://github.com/roblo3x/iconic-drills-pack --><path d="M23.77 65.79C23.17 63.44 19.42 57.22 19 55.55C18.57 53.88 16.18 52.04 20.25 51.9C24.32 51.76 44.48 55.1 52.93 54.38C61.39 53.66 84.53 46.48 90.7 45.91C96.86 45.35 100.19 47.07 104.32 49.66C108.46 52.24 122.54 64.29 125.14 67.46C127.74 70.64 126.83 72.71 126 76.11C125.18 79.51 119.36 92.19 118.28 95.79C117.21 99.4 116.87 103.79 117.04 106.16C117.22 108.53 118.22 112.2 119.72 115.53C121.23 118.86 128.09 130.45 129.58 133.88C131.07 137.31 132.18 141.84 132.12 144.09C132.06 146.34 130.96 149.36 129.08 152.64C127.21 155.91 117.95 167.69 116.49 171.35C115.03 175.01 117.38 181.84 116.89 183.14C116.41 184.44 114.26 183.42 112.44 182.22C110.62 181.02 104.35 174.86 101.73 173.16C99.1 171.46 92.97 168.59 90.55 168.06C88.12 167.52 84.9 167.61 81.54 168.7C78.17 169.8 66.93 175.68 62.52 177.16C58.12 178.65 48.31 180.67 44.83 181.08C41.35 181.49 35.86 180.52 33.53 180.58C31.21 180.64 26.45 181.26 25.45 181.56C24.46 181.86 26.72 183.66 25.22 183.09C23.72 182.52 14.61 178.84 12.98 176.81C11.35 174.78 10.49 170.06 11.63 166.19C12.78 162.31 20.9 148.27 22.52 144.53C24.13 140.79 24.9 137.29 25.07 135.02C25.24 132.76 25.19 129.83 23.93 125.68C22.68 121.53 15.56 104.46 14.61 100.46C13.66 96.46 14.89 95.39 16.03 92.35C17.16 89.31 23.11 78.3 24.04 75.11C24.97 71.92 24.38 68.14 23.77 65.79ZM33.91 193.08C32.54 191.5 31.52 190.2 34.03 189.79C36.55 189.37 49 191.16 54.84 189.62C60.69 188.09 78.25 178.6 82.77 177C87.28 175.4 90.01 175.93 92.45 176.29C94.9 176.64 99.87 178.18 103.14 179.94C106.41 181.71 115.81 188.9 119.74 190.98C123.66 193.05 131.9 197.24 135.85 197.23C139.81 197.23 148.64 193.09 152.68 190.94C156.73 188.8 166.26 181.26 169.56 179.39C172.86 177.52 178.02 175.9 180.17 175.37C182.33 174.83 185.21 174.7 187.52 174.95C189.84 175.19 195.15 175.71 199.48 177.38C203.82 179.05 219.91 186.83 223.63 188.86C227.35 190.89 229.49 192.88 230.46 194.29C231.43 195.7 231.82 199.59 231.71 200.64C231.61 201.69 230.82 202.79 229.6 203.01C228.38 203.24 224.98 203.59 221.53 202.54C218.08 201.48 204.93 195.37 200.87 194.25C196.8 193.13 193.97 191.07 187.68 193.18C181.39 195.29 156.39 210.58 148.45 211.84C140.5 213.11 126.25 205.69 121.46 203.74C116.68 201.78 111.09 196.75 108.57 195.57C106.06 194.38 102.86 193.88 100.52 193.89C98.18 193.9 92.89 194.2 89.1 195.66C85.31 197.11 72.17 204.66 68.95 206.01C65.74 207.35 64.02 206.8 62.32 206.87C60.62 206.94 56.84 207.05 54.8 206.58C52.77 206.12 47.9 204.63 45.39 203.01C42.88 201.39 35.27 194.67 33.91 193.08ZM134.1 73C135.47 71.27 143.42 67.79 144.95 66.59C146.49 65.39 144.06 65.57 146.88 63C149.7 60.43 164.15 47.95 168.42 45.16C172.7 42.36 178.89 40.11 182.5 39.72C186.1 39.33 193.04 40.25 198.48 41.89C203.93 43.53 223.64 51.5 227.87 53.38C232.1 55.25 232.52 55.76 233.74 57.51C234.96 59.25 237.45 65.73 238.06 67.94C238.66 70.16 239.94 71.71 238.81 75.95C237.68 80.19 229.83 98.8 228.65 103.29C227.47 107.77 226.87 108.13 228.95 113.29C231.03 118.45 244.25 141.39 245.98 146.27C247.71 151.15 245.72 149.84 243.37 153.98C241.02 158.12 229.23 177.62 226.4 180.76C223.58 183.89 222.83 181.58 219.86 180.13C216.89 178.69 205.99 170.49 201.65 168.74C197.31 166.98 187.2 165.66 183.7 165.53C180.19 165.41 178.17 164.83 172.43 167.71C166.69 170.59 141.09 186.95 135.87 189.56C130.64 192.17 130.28 189.9 128.87 189.45C127.46 188.99 124.75 187.52 124.11 185.76C123.46 183.99 122.05 178.5 123.49 174.74C124.93 170.99 134.27 157.98 136.11 154.48C137.96 150.98 138.71 147.88 138.83 145.59C138.95 143.31 138.44 138.67 137.13 135.44C135.83 132.2 129.37 121.91 127.92 118.65C126.48 115.4 125.32 110.65 125.12 108.32C124.92 105.98 125.22 102.46 126.23 99.18C127.23 95.9 132.57 84.11 133.51 80.97C134.46 77.83 132.72 74.73 134.1 73Z" fill="#090909" fill-rule="evenodd"/></svg>
