<svg data-contour-smoothing="organic-v2" xmlns="http://www.w3.org/2000/svg" viewBox="0 0 256 256"><!-- Iconic Drills Pack © 2026 Roman Kuzhel, Kyrgyzstan | CC BY 4.0 | https://github.com/roblo3x/iconic-drills-pack --><path d="M28.7707,80.77379c1.74249,-2.65612 4.21275,-5.3464 6.93098,-7.02117c2.08454,-1.28434 4.9896,-1.75074 5.93442,-4.33761c2.01706,-5.52261 -2.65518,-11.96126 0.12542,-17.46796c2.07136,-4.10211 7.22927,-6.10367 11.34655,-7.31895c9.75435,-2.87915 21.64128,-4.02367 31.4212,-0.34161c6.86926,2.58622 5.13992,11.58252 6.94041,17.28344c0.9639,3.05199 2.87943,2.76749 5.34855,3.99438c3.83989,1.90801 5.63916,4.41684 10.42021,4.09801c4.67742,-0.31191 5.48395,-4.37189 6.67395,-8.14282c1.23323,-3.90794 2.86814,-7.33584 6.47343,-9.58415c3.94581,-2.46066 8.95936,-2.58807 13.45733,-2.98042c7.22912,-0.63058 14.65919,-1.33689 21.91808,-0.93487c10.53109,0.58324 28.28167,3.73222 33.96745,13.94696c3.10334,5.57529 0.58379,14.04025 4.86965,18.9657c2.1737,2.49809 6.15458,2.24464 9.14027,2.22619c5.33101,-0.03294 10.61071,-0.25082 15.94393,-0.13569c2.50298,0.05403 5.37961,-0.33916 7.54471,1.24538c2.16802,1.58668 2.72054,4.42771 3.06201,6.90855c0.9024,6.55624 0.87907,13.31534 1.06729,19.92134c0.34105,11.96984 0.47626,23.94533 0.58681,35.91915c0.1359,14.71949 0.13838,29.28558 -5.06528,43.31789c-3.16291,8.52918 -14.02448,13.14113 -22.05981,15.47249c-7.1771,2.08235 -14.42126,1.45438 -21.76899,2.05533c-2.54869,0.20845 -4.49182,1.61009 -6.94964,1.98596c-5.03931,0.77067 -10.79854,-0.38363 -15.87505,-0.62143c-7.97777,-0.3737 -15.96358,-0.0307 -23.93651,0.3276c-5.96947,0.26827 -11.70153,2.39843 -17.5588,2.4318c-9.23606,0.05263 -18.6998,-1.61742 -27.91033,-0.88571c-2.62098,0.20822 -4.89451,1.51305 -7.48832,1.81235c-3.89343,0.44926 -8.03964,-0.03236 -11.94618,-0.17447c-7.26544,-0.26431 -15.3858,-0.14051 -22.0534,-3.39494c-11.21053,-5.47181 -15.06333,-18.95185 -17.09426,-30.07946c-4.28356,-23.47001 -8.462,-90.87589 -3.46608,-98.49127zM50.70153,67.83196c1.63677,1.88523 4.97394,1.50544 7.17989,1.53547c5.29921,0.07215 10.68913,0.04498 15.92427,-0.87663c2.3423,-0.41234 5.30524,-0.94045 6.20387,-3.52771c1.02863,-2.96155 -0.31207,-12.77026 -3.25982,-14.50339c-1.98168,-1.16513 -5.39033,-0.08059 -7.47304,0.23306c-6.14133,0.92487 -21.69431,13.54658 -18.57517,17.1392zM88.2698,146.91092c1.00675,7.30721 3.99323,16.31932 9.25195,21.69906c16.70798,17.09248 48.89859,14.33726 65.76287,-0.95693c7.253,-6.57774 12.39217,-21.03405 12.85274,-30.72349c0.91048,-19.15469 -15.49853,-40.25313 -34.78469,-42.96752c-14.14305,-1.99053 -29.99972,3.05384 -40.92746,12.2414c-6.75248,5.67719 -12.88346,35.42316 -12.15541,40.70748zM124.52106,106.69903c17.56052,-5.49444 38.05296,6.41968 39.9074,25.33062c0.982,10.01413 -3.5022,24.31284 -11.92494,30.51709c-11.98208,8.82608 -33.77862,8.05629 -45.05036,-1.84158c-6.26368,-5.50022 2.90901,-49.57601 17.0679,-54.00614zM115.89928,132.25516c-0.51708,1.89367 0.45493,3.52394 2.58752,2.96635c2.48204,-0.64895 6.76777,-5.19776 4.48237,-7.91978c-2.58129,-3.07444 -6.8827,4.26789 -7.0699,4.95342zM189.7339,109.86571c0.05167,2.3232 0.16597,5.52967 1.8783,7.33491c1.35581,1.42938 3.42318,1.56271 5.24937,1.64854c4.88705,0.22968 13.49809,0.91364 15.99076,-4.34954c0.49783,-1.05114 0.86821,-2.63874 1.06238,-3.77343c1.52718,-8.92464 -6.90403,-7.57651 -13.23097,-7.28691c-3.60407,0.16497 -10.99765,4.27649 -10.94983,6.42643z" fill="#090909" fill-rule="evenodd"/></svg>
