<svg xmlns="http://www.w3.org/2000/svg" viewBox="0 0 256 256"><path d="M152 217L162 203L168 187L168 159L164 157L160 166L149 178L144 176L133 138L133 108L129 109L123 119L116 137L114 147L116 182L109 182L100 174L92 153L89 153L86 167L87 181L93 194L101 207L123 228L121 232L96 229L77 220L60 202L52 188L48 174L50 145L61 115L73 93L80 82L87 77L90 80L90 93L93 99L100 101L104 97L110 85L120 51L127 38L138 24L142 25L145 46L156 77L157 102L155 120L157 126L163 127L170 120L174 110L175 97L179 83L183 77L187 77L191 95L204 129L209 157L200 192L189 211L178 220L152 230L143 229L143 226Z" fill="#090909" fill-rule="evenodd"/></svg>
