<svg data-contour-smoothing="organic-v2" xmlns="http://www.w3.org/2000/svg" viewBox="0 0 256 256"><!-- Iconic Drills Pack © 2026 Roman Kuzhel, Kyrgyzstan | CC BY 4.0 | https://github.com/roblo3x/iconic-drills-pack --><path d="M70.80761,96.59839c2.74567,-4.56319 5.49805,-9.15841 8.49812,-13.56029c1.39482,-2.04655 3.03791,-4.57878 5.43374,-5.57178c1.77292,-0.73483 3.37107,-0.29293 4.11761,1.55272c0.70594,1.74528 0.54424,3.99884 0.61399,5.83711c0.17636,4.64777 0.1518,9.41708 3.12783,13.29586c2.74117,3.57268 6.3827,4.00248 9.25104,0.42114c7.27931,-9.08876 8.76067,-18.5125 11.80213,-29.28593c2.78916,-9.87973 6.88733,-20.73192 12.19797,-29.53153c2.7035,-4.47964 5.74338,-9.13964 9.24938,-13.0362c1.01962,-1.1332 3.76213,-4.41012 5.48154,-2.44212c1.49518,1.71135 1.44909,5.26918 1.77553,7.38693c0.70934,4.60174 1.33573,9.25725 2.55202,13.75963c2.78196,10.29808 8.05496,19.8032 10.69844,30.14776c1.48156,5.79772 1.49985,11.93829 1.51185,17.88663c0.01496,7.41774 -0.72469,14.56584 -1.62846,21.9137c-0.37411,3.04156 -0.93793,6.88278 1.10567,9.51173c4.03118,5.18583 9.89604,-0.3095 12.5315,-3.84458c7.21037,-9.67163 5.13432,-23.32428 8.69697,-34.45487c0.97204,-3.03688 2.16435,-6.47923 4.59089,-8.69781c1.22719,-1.12201 2.98516,-1.99477 4.29411,-0.40832c1.85223,2.24491 1.83858,6.68165 2.37735,9.42442c1.17089,5.96077 3.14407,11.5048 5.39275,17.13232c6.54265,16.37353 14.38397,33.72413 14.53212,51.71475c0.06492,7.88408 -2.70726,15.92016 -4.91771,23.40626c-3.74386,12.67926 -8.28021,25.74785 -18.15126,35.09776c-8.27718,7.84018 -21.25539,12.84279 -32.23048,15.32102c-2.35662,0.53214 -9.41802,1.5784 -10.64367,-1.56682c-0.64968,-1.66719 1.40926,-3.44129 2.36221,-4.41276c4.27393,-4.35699 8.5509,-8.2431 11.97695,-13.3557c7.98284,-11.9126 11.14848,-23.25064 11.53828,-37.49042c0.11977,-4.37515 0.56675,-9.68839 -1.35605,-13.77573c-1.29835,-2.75993 -3.27745,-1.9807 -4.50104,0.31426c-3.28333,6.15819 -6.26353,11.1989 -11.34403,16.18348c-3.16823,3.10842 -6.07801,4.23955 -8.09371,-0.53413c-2.56996,-6.08633 -4.22318,-12.7216 -6.07297,-19.05467c-2.43637,-8.34133 -4.93083,-16.64864 -5.04646,-25.40112c-0.07936,-6.00699 0.39865,-11.99411 0.48874,-17.99614c0.01786,-1.19024 0.4119,-5.98332 -2.2011,-4.86459c-4.00882,1.71633 -6.87801,9.29096 -8.50227,12.98441c-3.08304,7.01061 -6.86205,14.96088 -8.00358,22.57611c-0.97099,6.47756 0.26609,13.45826 0.76405,19.94337c0.35702,4.64964 0.77206,9.31073 0.91411,13.97321c0.05063,1.66173 0.34562,4.08861 -0.77612,5.52519c-2.57877,3.30254 -9.41119,-2.58564 -11.36711,-4.32854c-5.09379,-4.53903 -6.78023,-11.30874 -8.96807,-17.52828c-0.67997,-1.93299 -1.69988,-7.54091 -4.05538,-8.19974c-2.7613,-0.77233 -3.72605,7.77275 -4.02275,9.31971c-0.50422,2.62891 -0.8355,5.25261 -0.8473,7.93288c-0.06824,15.5028 8.98064,31.72118 20.07898,42.18602c4.84407,4.56756 9.9695,8.88627 14.63093,13.64224c1.09443,1.11662 4.26393,4.0231 2.02144,5.64222c-1.87813,1.35604 -5.4193,0.59284 -7.52274,0.41808c-5.29831,-0.4402 -10.64721,-1.00016 -15.87343,-1.99356c-30.09901,-5.72119 -40.7605,-112.70977 -28.48252,-133.11528z" fill="#090909" fill-rule="evenodd"/></svg>
