<svg xmlns="http://www.w3.org/2000/svg" viewBox="0 0 256 256"><!-- Iconic Drills Pack © 2026 Roman Kuzhel, Kyrgyzstan | CC BY 4.0 | https://github.com/roblo3x/iconic-drills-pack --><path d="M155 132L163 141L172 144L190 144L205 138L213 129L217 115L215 100L208 95L164 94L111 96L71 94L54 99L47 110L48 121L52 128L60 135L73 140L90 141L107 137L116 131L133 113L142 114ZM209 176L183 185L141 193L110 194L79 190L64 179L58 168L55 157L51 152L41 146L28 130L24 117L24 100L26 93L36 81L53 73L104 63L162 62L183 64L200 69L214 76L223 85L231 105L232 158L226 168ZM126 175L134 168L145 169L152 178L156 178L158 172L151 162L145 159L136 158L127 161L121 166L119 170L120 175Z" fill="#090909" fill-rule="evenodd"/></svg>
