<svg xmlns="http://www.w3.org/2000/svg" viewBox="0 0 256 256"><!-- Iconic Drills Pack © 2026 Roman Kuzhel, Kyrgyzstan | CC BY 4.0 | https://github.com/roblo3x/iconic-drills-pack --><path d="M222 184L214 200L201 213L178 223L145 230L121 232L105 230L89 225L63 210L54 202L45 187L28 151L37 79L47 63L48 58L75 35L92 33L104 29L138 25L155 24L179 32L203 43L220 81L223 96L226 174ZM176 183L186 153L187 132L185 131L170 132L111 144L78 153L76 157L79 172L89 190L98 200L120 211L141 212L154 207L167 197ZM185 62L175 65L146 85L144 87L145 96L176 110L190 112L193 109L193 102L162 90L163 87L167 86L188 70L189 65ZM128 203L117 201L106 194L104 190L99 187L93 172L134 159L172 153L173 158L170 173L162 189L155 196L146 201ZM91 93L96 94L98 97L72 114L67 119L68 127L75 127L80 124L97 110L115 99L118 95L118 90L116 88L90 76L82 73L73 76L73 85Z" fill="#090909" fill-rule="evenodd"/></svg>
