<svg data-contour-smoothing="organic-v2" xmlns="http://www.w3.org/2000/svg" viewBox="0 0 256 256"><!-- Iconic Drills Pack © 2026 Roman Kuzhel, Kyrgyzstan | CC BY 4.0 | https://github.com/roblo3x/iconic-drills-pack --><path d="M26.7576,72.1022c1.5891,-7.14848 3.94837,-14.16568 7.19645,-20.73184c3.9188,-7.92207 10.36457,-16.44912 18.56982,-20.31571c4.76007,-2.2431 10.46153,-2.4684 15.62366,-2.93661c10.41479,-0.94463 21.53864,-2.16618 31.92539,-0.52702c8.41026,1.32724 16.92232,4.91621 25.43809,5.2196c4.82137,0.17176 8.64336,-2.92831 13.26883,-3.70036c6.46608,-1.07927 13.4271,-0.85061 19.96579,-0.82838c3.87418,0.01317 8.15595,-0.19592 11.87391,1.06925c4.49316,1.52896 7.59761,5.30822 10.99483,8.39452c2.47303,2.24668 5.65855,2.85912 8.20913,4.93235c3.91506,3.18234 5.25832,7.08362 8.21389,10.82637c4.52374,5.72859 13.03314,6.83651 17.2241,13.19634c4.03051,6.11634 3.37221,14.32865 5.54668,21.12021c0.8315,2.59706 2.67337,4.43467 3.78842,6.86205c1.67783,3.65253 1.13669,7.84221 2.26784,11.62726c0.512,1.71326 1.67569,3.06085 2.02231,4.83636c1.13482,5.81306 -1.03514,12.04637 0.39005,17.84243c0.63294,2.57407 2.29011,4.60481 2.6211,7.29493c1.10672,8.99485 0.15198,21.13007 -2.5253,29.7757c-9.07515,29.30602 -34.2207,53.36398 -63.96318,60.71665c-7.1121,1.75819 -14.59831,1.59465 -21.87757,1.69268c-13.45553,0.18121 -26.55842,-0.21429 -39.83423,-2.55695c-14.75265,-2.60327 -33.29085,-4.74888 -45.14478,-14.84205c-4.28665,-3.64992 -5.80997,-8.59093 -9.43357,-12.47739c-4.22402,-4.53044 -9.06516,-7.13611 -12.50342,-12.62547c-2.82729,-4.5139 -4.47553,-9.69465 -6.16734,-14.71174c-7.86438,-23.32196 -5.84766,-89.45113 -3.6909,-99.15317zM53.41576,92.32008c2.93701,7.68623 5.71188,16.892 11.25865,23.14571c1.76688,1.99207 4.25198,2.95909 6.04616,4.86999c1.81323,1.93119 2.4984,6.76778 5.26102,7.58147c3.11807,0.91838 6.34157,-5.24409 8.36294,-6.86572c1.54542,-1.2398 3.41316,-1.93912 4.97314,-3.13795c2.90863,-2.23525 4.88266,-5.76017 7.81829,-8.18462c5.01615,-4.1427 10.89879,-8.13998 12.60906,-14.80539c2.99967,-11.69058 -9.58415,-24.61785 -21.13361,-19.22514c-3.25913,1.52176 -4.83587,4.01523 -6.90193,6.79306c-0.89056,1.19736 -2.21277,3.09658 -4.03124,2.31361c-3.50749,-1.51019 -5.06458,-8.35821 -7.43674,-11.19757c-6.94424,-8.31193 -18.46234,14.42952 -16.82573,18.71256zM77.48589,162.70231c2.63809,11.13694 6.7783,21.93063 17.27047,27.75805c10.03224,5.57197 23.37724,8.39905 34.59179,4.64651c8.18468,-2.7387 14.80091,-9.07471 22.8996,-11.99115c2.49362,-0.89798 5.19572,-0.80076 7.66637,-1.74967c3.03842,-1.16699 5.65078,-3.57607 8.15416,-5.58712c6.86555,-5.51531 16.98483,-13.54035 17.42971,-23.29041c0.35516,-7.78368 -8.02504,-2.49511 -10.98679,-0.36027c-15.31171,11.03674 -29.85681,22.15002 -49.36424,24.23851c-8.69053,0.93042 -19.64941,-0.13554 -26.22996,-6.5842c-4.72992,-4.63512 -7.07206,-11.29208 -11.14462,-16.44878c-2.75751,-3.49158 -11.20414,5.49455 -10.28648,9.36854zM145.23269,100.80676c0.78598,3.22875 2.53812,6.12358 3.3163,9.3508c0.93803,3.89014 0.11561,7.92233 0.45686,11.8682c0.28971,3.34994 0.6389,10.72934 3.66251,12.87966c5.57417,3.96421 12.7829,-5.27557 16.54605,-7.84588c5.46625,-3.73356 11.91905,-5.90137 17.49508,-9.49106c3.91653,-2.52136 7.12535,-5.96175 10.17683,-9.44386c2.51181,-2.86628 5.54217,-6.02445 6.5734,-9.79535c0.6908,-2.52605 0.50959,-5.30738 0.07733,-7.85946c-0.50332,-2.97162 -1.56792,-6.77741 -4.2851,-8.51713c-4.0542,-2.59577 -13.18481,0.37209 -16.95584,2.59839c-2.77613,1.63894 -5.74589,6.74419 -9.22195,6.69471c-2.00113,-0.02848 -2.64569,-2.17092 -3.11435,-3.68858c-1.08141,-3.50198 -1.1892,-8.27307 -3.80247,-11.08405c-3.66183,-3.93887 -12.51837,-3.77279 -16.30327,-0.18315c-2.78898,2.6451 -5.84158,19.50425 -4.62137,24.51675z" fill="#090909" fill-rule="evenodd"/></svg>
