<svg xmlns="http://www.w3.org/2000/svg" viewBox="0 0 256 256"><!-- Iconic Drills Pack © 2026 Roman Kuzhel, Kyrgyzstan | CC BY 4.0 | https://github.com/roblo3x/iconic-drills-pack --><path d="M24 116C24.24 110.12 25.48 101.36 28 95C30.52 88.64 41.76 68.28 45 63C48.24 57.72 51.52 53.88 55 51C58.48 48.12 68.96 41.16 74 39C79.04 36.84 91.6 33.72 97 33C102.4 32.28 113.12 32.16 119 33C124.88 33.84 138.32 38.68 146 40C153.68 41.32 176.4 42.2 183 44C189.6 45.8 197.64 52.12 201 55C204.36 57.88 209.2 65.24 211 68C212.8 70.76 213.84 71.52 216 78C218.16 84.48 227.08 114.68 229 122C230.92 129.32 231.64 135.04 232 139C232.36 142.96 232.96 148.64 232 155C231.04 161.36 225.92 185.88 224 192C222.08 198.12 218.04 203.24 216 206C213.96 208.76 210.48 212.96 207 215C203.52 217.04 200.68 222.16 187 223C173.32 223.84 107.52 222.96 93 222C78.48 221.04 70.44 216.56 66 215C61.56 213.44 58.4 210.92 56 209C53.6 207.08 48.64 202.84 46 199C43.36 195.16 36.4 183.6 34 177C31.6 170.4 27.2 151.32 26 144C24.8 136.68 23.76 121.88 24 116ZM63 137C62.64 140 63.16 152.04 64 156C64.84 159.96 68.68 167.48 70 170C71.32 172.52 72.36 174.84 75 177C77.64 179.16 88.04 186.2 92 188C95.96 189.8 101.52 191.4 108 192C114.48 192.6 139.16 193.48 146 193C152.84 192.52 161.88 189.68 165 188C168.12 186.32 171.4 181.76 172 179C172.6 176.24 171.32 167.4 170 165C168.68 162.6 162.92 159.84 161 159C159.08 158.16 156.28 158 154 158C151.72 158 146.8 157.56 142 159C137.2 160.44 119.52 168.8 114 170C108.48 171.2 98.88 169.6 96 169C93.12 168.4 91.56 166.56 90 165C88.44 163.44 84.56 159.48 83 156C81.44 152.52 78.2 139 77 136C75.8 133 74.2 131.6 73 131C71.8 130.4 68.2 130.28 67 131C65.8 131.72 63.36 134 63 137ZM72 77C72 79.04 72.56 86.84 74 89C75.44 91.16 81.48 94.52 84 95C86.52 95.48 92.84 94.44 95 93C97.16 91.56 101.52 85.76 102 83C102.48 80.24 100.44 72.16 99 70C97.56 67.84 92.16 65.48 90 65C87.84 64.52 82.92 65.16 81 66C79.08 66.84 75.08 70.68 74 72C72.92 73.32 72 74.96 72 77ZM81 77C81.36 75.92 82.92 74.36 84 74C85.08 73.64 88.92 73.52 90 74C91.08 74.48 92.76 76.8 93 78C93.24 79.2 93.08 83.04 92 84C90.92 84.96 85.32 86.12 84 86C82.68 85.88 81.36 84.08 81 83C80.64 81.92 80.64 78.08 81 77ZM126 105C125.04 106.68 126.52 109.16 127 110C127.48 110.84 127.72 112.12 130 112C132.28 111.88 139.16 111.88 146 109C152.84 106.12 181.96 91.36 187 88C192.04 84.64 188.24 82.08 188 81C187.76 79.92 186.44 79.24 185 79C183.56 78.76 178.88 78.52 176 79C173.12 79.48 165.92 80.96 161 83C156.08 85.04 139.2 93.36 135 96C130.8 98.64 126.96 103.32 126 105Z" fill="#090909" fill-rule="evenodd"/></svg>
