<svg data-contour-smoothing="organic-v2" xmlns="http://www.w3.org/2000/svg" viewBox="0 0 256 256"><!-- Iconic Drills Pack © 2026 Roman Kuzhel, Kyrgyzstan | CC BY 4.0 | https://github.com/roblo3x/iconic-drills-pack --><path d="M45.95167,84.58271c2.87009,-3.26713 6.99718,-6.67699 8.966,-10.58446c1.05195,-2.08779 0.68383,-4.40308 1.82455,-6.55182c3.98725,-7.51066 7.56535,-16.1433 12.54538,-23.02061c8.47331,-11.70146 24.96795,-24.14024 40.1304,-23.33222c11.61169,0.6188 21.13092,8.0429 32.18664,10.44902c8.51655,1.8535 17.38972,-1.72502 25.58088,2.13992c15.08906,7.11965 29.27598,20.24713 39.55731,33.21407c4.57116,5.7652 8.90292,11.77335 9.93685,19.25639c1.46511,10.60371 -5.18927,21.10087 -3.36848,31.59437c2.21886,12.78767 17.14755,22.45511 13.41059,36.59866c-2.93358,11.10298 -11.41342,19.58524 -17.87878,28.64845c-4.7873,6.71088 -5.51863,17.39402 -11.6994,22.87123c-5.33819,4.73054 -11.85893,6.04613 -18.04798,9.2535c-7.09131,3.67495 -13.88872,7.96337 -20.81126,11.9433c-4.51086,2.59339 -9.20506,5.77466 -14.46929,6.4833c-11.16097,1.50243 -22.72259,-2.47389 -33.35436,-5.31316c-10.81919,-2.88933 -22.20804,-5.39539 -32.52626,-9.81483c-7.3324,-3.14057 -13.69175,-8.37279 -19.81825,-13.37889c-4.61207,-3.76863 -9.51742,-7.41745 -13.35668,-12.01205c-4.31051,-5.15856 -8.9058,-12.71834 -9.25161,-19.59213c-0.50108,-9.96023 4.75236,-19.54626 4.52639,-29.55078c-0.24044,-10.64516 -1.92605,-50.3728 5.91737,-59.30125zM70.5197,156.64132c0.14087,7.66574 2.68154,18.65305 9.21394,23.43393c2.06666,1.51253 3.85157,1.4221 6.1808,2.09098c3.11766,0.89531 6.09591,2.67738 9.00608,4.08133c3.00189,1.4482 6.00121,2.90157 9.0074,4.34084c1.2227,0.58539 3.49768,2.18745 4.97434,1.85899c2.22684,-0.49534 0.60132,-6.81163 0.49464,-8.23295c-0.41654,-5.54935 1.47801,-10.29856 3.65483,-15.3033c0.87755,-2.01757 1.66617,-5.00384 4.37223,-4.97653c5.20729,0.05254 12.30355,3.24588 16.99006,5.38625c2.3373,1.06747 4.58586,2.39547 4.52849,5.29267c-0.1396,7.05065 -5.91587,11.39627 -3.70012,18.94552c0.44693,1.52272 1.00122,3.68817 2.73686,4.27628c6.64417,2.25134 14.69383,-4.32393 19.19585,-8.18011c9.07574,-7.77376 18.20394,-15.77932 25.66023,-25.16289c3.78386,-4.7619 7.73538,-11.80276 7.22335,-18.16877c-0.43052,-5.35257 -6.91734,-5.10089 -10.83029,-4.24359c-11.63821,2.54984 -20.51015,13.65644 -32.98946,13.23786c-5.13897,-0.17237 -10.84903,-1.19453 -15.5396,-3.33845c-4.24979,-1.94245 -8.04378,-4.70729 -12.46552,-6.30018c-9.01522,-3.24764 -18.23607,-2.86977 -27.64146,-2.13079c-6.11007,0.48006 -20.13731,9.57403 -20.07264,13.0929zM77.41976,108.4707c-0.30125,8.53643 12.32432,11.06274 18.43838,8.33318c3.01776,-1.34725 4.65163,-4.62847 5.94617,-7.47349c3.07925,-6.76724 6.62334,-15.15853 6.81725,-22.6662c0.06884,-2.66525 0.30688,-7.21437 -1.64774,-9.34241c-2.22089,-2.41794 -6.41447,-1.09646 -8.62295,0.54421c-5.51797,4.09927 -20.74243,25.25792 -20.93111,30.6047zM145.75622,103.58431c-2.04098,9.41184 3.67745,20.42699 14.36661,14.65074c7.83351,-4.2331 11.54157,-17.67486 15.03026,-25.37498c1.44972,-3.19976 4.1531,-7.52468 2.76698,-11.15038c-1.80273,-4.71543 -7.20481,-5.7342 -11.56063,-4.90189c-9.20727,1.75932 -19.75241,22.85304 -20.60323,26.77652z" fill="#090909" fill-rule="evenodd"/></svg>
