<svg xmlns="http://www.w3.org/2000/svg" viewBox="0 0 256 256"><path d="M167 145L164 150L154 157L149 165L138 170L129 170L117 174L106 174L99 169L89 169L82 161L70 154L62 154L60 161L66 165L67 169L82 182L82 184L93 189L119 193L127 189L154 188L161 185L164 181L173 178L179 168L181 154L185 140L189 134L189 128L185 125L178 126ZM52 97L54 91L58 87L66 65L75 57L91 51L102 39L105 39L119 28L138 26L146 30L169 31L186 39L196 49L199 60L207 72L209 82L213 89L215 104L221 118L227 125L231 137L232 158L224 186L209 203L202 208L187 216L153 227L130 230L119 225L96 224L75 220L58 205L44 199L36 193L29 186L25 178L24 156L28 143L28 134L33 124L45 113ZM89 116L92 119L100 120L108 113L107 104L110 103L110 91L101 73L91 74L85 77L78 84L73 97L73 106L77 113L80 116ZM96 92L99 94L100 100L98 103L93 104L90 101L90 96ZM157 73L148 81L149 94L151 99L155 102L155 108L164 108L186 99L186 87L181 73L171 68L164 68ZM175 89L175 94L172 97L168 97L165 94L165 87L168 84L174 85Z" fill="#090909" fill-rule="evenodd"/></svg>
