<svg data-contour-smoothing="organic-v2" xmlns="http://www.w3.org/2000/svg" viewBox="0 0 256 256"><!-- Iconic Drills Pack © 2026 Roman Kuzhel, Kyrgyzstan | CC BY 4.0 | https://github.com/roblo3x/iconic-drills-pack --><path d="M45.5978,76.16815c16.13836,-7.36645 34.86007,-9.39558 52.26649,-12.25267c18.45876,-3.02982 37.07364,-2.62718 55.7203,-2.18477c13.87208,0.32913 28.18419,0.56664 41.27424,5.63802c11.3886,4.41221 22.41063,8.7175 29.3009,19.34729c8.70521,13.42974 7.40264,28.98953 7.7661,44.36885c0.22041,9.3266 2.01976,20.77642 -0.46616,29.85213c-1.81845,6.63888 -10.2602,11.26308 -16.21125,13.5907c-16.34326,6.3923 -34.37343,12.06685 -51.6618,15.12363c-21.07648,3.72656 -42.24087,5.05351 -63.55845,3.24155c-6.96422,-0.59195 -15.0813,-0.44345 -21.7099,-2.81924c-3.6834,-1.32019 -6.91908,-4.1118 -9.8281,-6.65243c-5.02107,-4.38521 -8.63793,-10.14563 -10.79571,-16.45569c-1.48161,-4.33272 -1.70201,-9.28509 -4.78427,-12.90952c-3.82826,-4.50165 -10.14954,-6.29167 -14.4551,-10.39946c-11.91298,-11.36577 -4.64296,-62.10876 7.14271,-67.4884zM61.7493,136.07036c4.75985,2.74193 9.9378,3.47173 15.30935,4.0836c12.12378,1.381 26.30985,0.92982 36.38372,-7.00181c5.75452,-4.53081 9.77466,-10.98068 14.73485,-16.30293c2.03622,-2.18484 4.79446,-5.13859 8.05553,-5.11548c3.90561,0.02767 6.74824,4.41184 8.93661,7.08833c5.9442,7.27003 11.45168,17.53108 19.09768,23.08232c4.12118,2.99211 10.59301,2.40449 15.44858,2.49798c18.72546,0.36057 36.54781,-9.46367 37.29203,-30.08199c0.282,-7.81284 -0.68404,-17.21107 -9.35087,-19.35356c-6.45126,-1.59479 -13.36194,-0.94216 -19.92748,-0.65174c-10.66591,0.47179 -21.32702,1.05858 -31.99785,1.41443c-25.33961,0.84502 -50.70363,-1.21523 -76.03503,-1.71757c-13.72754,-0.27223 -27.67353,36.45549 -17.94712,42.05843zM123.95624,175.79833c2.736,-0.5596 3.50046,-3.06053 5.28718,-4.81572c3.01564,-2.96243 7.02892,-3.38047 11.04446,-2.94768c6.82427,0.73552 6.98114,6.02435 11.76969,9.40201c2.11681,1.49312 4.89444,0.63599 5.69741,-1.87474c2.4764,-7.74326 -5.92293,-13.71043 -11.89785,-15.86889c-10.23319,-3.69677 -26.76923,17.10074 -21.90089,16.10501z" fill="#090909" fill-rule="evenodd"/></svg>
