<svg xmlns="http://www.w3.org/2000/svg" viewBox="0 0 256 256"><!-- Iconic Drills Pack © 2026 Roman Kuzhel, Kyrgyzstan | CC BY 4.0 | https://github.com/roblo3x/iconic-drills-pack --><path d="M28 147C28.6 136.44 35.72 86.08 38 76C40.28 65.92 45.8 65.16 47 63C48.2 60.84 44.88 61.24 48 58C51.12 54.76 66.28 39.48 73 36C79.72 32.52 94.16 30.44 104 29C113.84 27.56 146 23.64 155 24C164 24.36 173.24 29.72 179 32C184.76 34.28 197.84 36.16 203 43C208.16 49.84 219.36 80.36 222 89C224.64 97.64 224.76 108.76 225 115C225.24 121.24 223.88 133.92 224 141C224.12 148.08 226.96 167.28 226 174C225.04 180.72 219 192.32 216 197C213 201.68 205.56 209.88 201 213C196.44 216.12 185.68 220.84 178 223C170.32 225.16 144.32 229.92 137 231C129.68 232.08 122.76 232.72 117 232C111.24 231.28 94.76 227.16 89 225C83.24 222.84 73.2 216.76 69 214C64.8 211.24 58.32 208 54 202C49.68 196 36.12 170.6 33 164C29.88 157.4 27.4 157.56 28 147ZM67 119C63.28 122.48 66.04 125.04 67 126C67.96 126.96 69.24 130.24 75 127C80.76 123.76 109.84 102.84 115 99C120.16 95.16 117.64 96.08 118 95C118.36 93.92 121.96 92.52 118 90C114.04 87.48 89.8 76.04 85 74C80.2 71.96 79.32 72.88 78 73C76.68 73.12 74.72 74.4 74 75C73.28 75.6 72.12 76.8 72 78C71.88 79.2 70.36 83.2 73 85C75.64 86.8 91 91.56 94 93C97 94.44 101.24 93.88 98 97C94.76 100.12 70.72 115.52 67 119ZM76 157C75.88 158.56 75.92 162.76 77 166C78.08 169.24 82.48 179.92 85 184C87.52 188.08 93.8 196.76 98 200C102.2 203.24 114.84 209.56 120 211C125.16 212.44 136.44 212.72 141 212C145.56 211.28 154.88 206.8 158 205C161.12 203.2 165.08 199.16 167 197C168.92 194.84 171.72 192.28 174 187C176.28 181.72 184.44 159.6 186 153C187.56 146.4 188.92 134.52 187 132C185.08 129.48 179.12 130.56 170 132C160.88 133.44 122.04 141.48 111 144C99.96 146.52 82.2 151.44 78 153C73.8 154.56 76.12 155.44 76 157ZM93 172C98.28 168.4 134.48 159.28 143 157C151.52 154.72 160.52 153.48 164 153C167.48 152.52 170.92 152.76 172 153C173.08 153.24 173.24 152.6 173 155C172.76 157.4 171.32 168.92 170 173C168.68 177.08 164.16 186 162 189C159.84 192 154.76 196.32 152 198C149.24 199.68 142.84 202.52 139 203C135.16 203.48 123.48 202.72 120 202C116.52 201.28 112.52 198.8 110 197C107.48 195.2 101.04 190 99 187C96.96 184 87.72 175.6 93 172ZM144 87C140.4 90.72 143.2 94.08 145 96C146.8 97.92 154.56 101.08 159 103C163.44 104.92 178.28 110.92 182 112C185.72 113.08 188.68 112.36 190 112C191.32 111.64 192.64 110.2 193 109C193.36 107.8 196.72 104.28 193 102C189.28 99.72 165.6 91.8 162 90C158.4 88.2 162.4 87.48 163 87C163.6 86.52 164 88.04 167 86C170 83.96 185.36 72.52 188 70C190.64 67.48 189.12 65.96 189 65C188.88 64.04 187.96 62.36 187 62C186.04 61.64 182.44 61.64 181 62C179.56 62.36 179.44 62 175 65C170.56 68 147.6 83.28 144 87Z" fill="#090909" fill-rule="evenodd"/></svg>
