<svg xmlns="http://www.w3.org/2000/svg" viewBox="0 0 256 256"><!-- Iconic Drills Pack © 2026 Roman Kuzhel, Kyrgyzstan | CC BY 4.0 | https://github.com/roblo3x/iconic-drills-pack --><path d="M24 101C24.36 97.16 25.68 92 27 89C28.32 86 32.6 78.64 35 76C37.4 73.36 44.12 68.68 47 67C49.88 65.32 54.2 63.44 59 62C63.8 60.56 80.76 55.84 87 55C93.24 54.16 105.48 54.4 111 55C116.52 55.6 128.32 57.96 133 60C137.68 62.04 146.04 67.56 150 72C153.96 76.44 163.84 93.16 166 97C168.16 100.84 167.88 102.32 168 104C168.12 105.68 167.84 109.32 167 111C166.16 112.68 162.44 116.8 161 118C159.56 119.2 155.72 120.28 155 121C154.28 121.72 154.88 123.4 155 124C155.12 124.6 154.32 126 156 126C157.68 126 166.48 123.64 169 124C171.52 124.36 175.8 127.08 177 129C178.2 130.92 179.24 137.84 179 140C178.76 142.16 175.96 145.92 175 147C174.04 148.08 171.48 148.4 171 149C170.52 149.6 169.92 150.92 171 152C172.08 153.08 178.68 156.8 180 158C181.32 159.2 181.88 160.32 182 162C182.12 163.68 182.32 169.96 181 172C179.68 174.04 173.88 178.28 171 179C168.12 179.72 159.28 176.8 157 178C154.72 179.2 153.32 186.96 152 189C150.68 191.04 147.92 193.8 146 195C144.08 196.2 145.84 198.4 136 199C126.16 199.6 73.48 200.96 64 200C54.52 199.04 58.68 194.48 57 191C55.32 187.52 52.64 175.56 50 171C47.36 166.44 37.64 156.72 35 153C32.36 149.28 29.32 143.84 28 140C26.68 136.16 24.48 125.68 24 121C23.52 116.32 23.64 104.84 24 101ZM86 99C85.64 101.64 87.16 110.72 88 113C88.84 115.28 90.36 116.68 93 118C95.64 119.32 107.12 122.08 110 124C112.88 125.92 115.92 131.84 117 134C118.08 136.16 118.76 139 119 142C119.24 145 119.48 155.16 119 159C118.52 162.84 115.48 171.24 115 174C114.52 176.76 113.92 180.8 115 182C116.08 183.2 121.84 184.12 124 184C126.16 183.88 131.44 181.84 133 181C134.56 180.16 136.16 178.44 137 177C137.84 175.56 139.64 170.44 140 169C140.36 167.56 140.84 166.2 140 165C139.16 163.8 133.72 160.44 133 159C132.28 157.56 133.16 154.2 134 153C134.84 151.8 139.88 151.88 140 149C140.12 146.12 135.6 132.6 135 129C134.4 125.4 134.4 120.92 135 119C135.6 117.08 138.68 114.08 140 113C141.32 111.92 145.52 111.56 146 110C146.48 108.44 145.68 103 144 100C142.32 97 134.28 87.16 132 85C129.72 82.84 127.28 82.36 125 82C122.72 81.64 115.76 81.64 113 82C110.24 82.36 104.64 83.92 102 85C99.36 86.08 92.92 89.32 91 91C89.08 92.68 86.36 96.36 86 99ZM105 101C105.6 99.44 108.32 95.72 110 95C111.68 94.28 117.32 94.4 119 95C120.68 95.6 123.4 98.44 124 100C124.6 101.56 124.84 106.32 124 108C123.16 109.68 118.68 113.4 117 114C115.32 114.6 111.44 113.72 110 113C108.56 112.28 105.6 109.44 105 108C104.4 106.56 104.4 102.56 105 101ZM185 126C185.48 123.48 187.92 116.68 189 115C190.08 113.32 192.32 112.24 194 112C195.68 111.76 201.44 112.4 203 113C204.56 113.6 206.28 115.8 207 117C207.72 118.2 207.92 122.64 209 123C210.08 123.36 214.32 120.36 216 120C217.68 119.64 221.2 119.16 223 120C224.8 120.84 229.92 125.08 231 127C232.08 128.92 232.12 134.08 232 136C231.88 137.92 232.04 140.24 230 143C227.96 145.76 219.2 155.88 215 159C210.8 162.12 198 168.64 195 169C192 169.36 191.2 165.96 190 162C188.8 158.04 185.6 140.32 185 136C184.4 131.68 184.52 128.52 185 126Z" fill="#090909" fill-rule="evenodd"/></svg>
