<svg data-contour-smoothing="organic-v2" xmlns="http://www.w3.org/2000/svg" viewBox="0 0 256 256"><!-- Iconic Drills Pack © 2026 Roman Kuzhel, Kyrgyzstan | CC BY 4.0 | https://github.com/roblo3x/iconic-drills-pack --><path d="M35.57333,95.39186c0.77455,-1.75549 2.37527,-2.73947 3.24186,-4.47546c4.43391,-8.88217 6.45028,-19.01232 12.14393,-27.2829c10.04802,-14.59573 25.43867,-23.28687 41.09719,-30.67497c7.12156,-3.36014 14.53255,-7.07632 22.3337,-8.52967c10.77741,-2.00782 23.03935,0.31794 33.83099,1.49694c13.89567,1.51812 29.81405,5.07781 41.45356,13.32919c8.26641,5.86015 13.5685,17.16668 18.74842,25.64168c5.23336,8.56244 10.21906,17.13828 13.4777,26.6777c5.63323,16.49085 7.44789,35.94354 6.9726,53.26527c-0.21554,7.85542 -0.11935,16.16981 -1.86288,23.86748c-3.30147,14.57589 -13.69098,28.11562 -23.19999,39.22882c-4.15685,4.85812 -8.67352,10.63806 -14.6308,13.33577c-12.84667,5.81753 -29.33276,6.05235 -43.15915,7.65995c-14.75788,1.71591 -30.93826,4.81539 -45.77815,2.67669c-6.52171,-0.9399 -12.69935,-4.27329 -18.6139,-7.01723c-12.7182,-5.90036 -24.86239,-12.91902 -34.84671,-22.92742c-6.26129,-6.27639 -9.12919,-14.4957 -11.94952,-22.7223c-5.84523,-17.04989 -3.56941,-73.77972 0.74117,-83.54955zM60.57911,161.67706c9.13066,-4.195 9.334,-16.35323 10.06897,-24.83305c0.18503,-2.13482 1.51993,-7.60467 -0.34556,-9.2851c-2.03359,-1.83186 -6.39392,2.63859 -7.71898,3.79114c-5.94463,5.1707 -9.91945,33.9635 -2.00443,30.32701zM75.13803,113.07639c11.65603,-0.9303 22.36304,-11.33114 24.71045,-22.73234c0.58059,-2.81988 1.38721,-6.99518 0.11452,-9.73523c-1.7023,-3.66499 -5.49048,-1.23531 -7.56003,0.51741c-5.00027,4.23477 -9.33072,9.79632 -15.29803,12.73435c-5.24688,2.58332 -8.8863,19.76806 -1.96691,19.21581zM89.33622,192.06891c4.43592,-2.54146 4.43286,-7.63595 7.08779,-11.48149c6.43075,-9.31458 17.25279,-15.77785 28.82006,-14.8739c8.17041,0.6385 17.17311,6.24807 21.28386,13.30692c2.22177,3.81515 3.10716,9.17672 6.2259,12.37604c5.11429,5.24643 13.26104,4.09635 14.41659,-3.54813c1.20619,-7.97948 -4.49279,-15.43056 -8.38011,-21.88267c-3.02741,-5.02486 -5.99344,-10.66405 -10.84322,-14.18204c-3.23077,-2.34358 -7.12933,-3.65895 -10.86541,-4.95166c-8.44899,-2.9234 -16.66405,-4.04579 -25.45989,-1.74024c-15.45697,4.05155 -32.24955,52.6858 -22.28557,46.97716zM169.22606,107.08981c4.99155,1.68217 15.12624,2.27789 18.47714,-2.84675c1.5038,-2.29982 2.17934,-6.80349 -0.55564,-8.53322c-4.52002,-2.85866 -10.96122,-2.87992 -15.63133,-5.63753c-5.1971,-3.06878 -8.04409,-8.93847 -12.91635,-12.33691c-2.57089,-1.79322 -0.72588,25.52873 10.62619,29.35441zM182.98199,161.38653c1.95121,0.07049 3.99276,-0.19524 5.66863,-1.27736c11.25189,-7.26542 0.74741,-20.65151 -4.29856,-27.90498c-1.15226,-1.65635 -2.32758,-3.29656 -3.64543,-4.8272c-1.25993,-1.46337 -6.25618,-7.82419 -8.47065,-4.992c-2.59827,3.32306 -1.87462,38.5456 10.74602,39.00153z" fill="#090909" fill-rule="evenodd"/></svg>
