<svg xmlns="http://www.w3.org/2000/svg" viewBox="0 0 256 256"><path d="M222 184L212 207L196 217L184 220L156 225L134 226L122 231L97 232L58 228L47 223L35 210L30 194L31 180L28 146L28 117L37 91L46 76L47 68L57 48L66 41L86 38L111 29L126 29L138 25L162 25L177 34L185 47L189 50L203 82L211 90L219 114L226 124L228 144ZM81 110L79 103L82 100L87 101L97 109L92 115L86 114ZM92 126L107 117L109 109L97 97L81 86L72 74L66 74L62 85L62 103L65 114L68 120L78 128L86 129ZM155 112L148 113L145 109L156 98L161 98L161 108ZM184 188L186 188L186 183L182 175L177 168L169 164L168 180ZM135 107L132 110L133 116L146 127L161 127L172 122L179 110L176 76L170 77L158 86ZM69 196L80 188L94 183L95 172L99 172L102 179L118 178L123 171L126 171L128 176L139 176L141 171L145 171L148 177L161 177L163 165L167 163L167 160L157 155L152 155L152 160L148 161L146 152L139 148L136 148L135 156L131 157L129 155L129 146L114 146L114 149L116 149L119 154L118 160L114 162L111 160L109 153L110 150L113 149L113 146L105 147L75 164L78 176L77 182L73 183L70 181L69 176L65 177L62 187L62 198Z" fill="#090909" fill-rule="evenodd"/></svg>
