<svg data-contour-smoothing="organic-v2" xmlns="http://www.w3.org/2000/svg" viewBox="0 0 256 256"><!-- Iconic Drills Pack © 2026 Roman Kuzhel, Kyrgyzstan | CC BY 4.0 | https://github.com/roblo3x/iconic-drills-pack --><path d="M16.04959,114.5619c1.32067,-4.22687 5.3321,-7.91942 8.13291,-11.2139c5.60466,-6.59254 11.35526,-13.07137 16.78597,-19.80966c6.42182,-7.96803 9.66863,-17.22104 14.61252,-26.03708c4.90623,-8.74889 12.79468,-18.15181 21.56625,-23.13743c3.43146,-1.95039 7.10561,-3.79438 11.03846,-4.42875c11.35012,-1.83076 22.30561,3.80558 33.63836,3.12874c14.06179,-0.83983 29.03804,-9.78366 43.09733,-6.47941c10.31704,2.42473 17.2535,8.74544 25.10418,15.47917c6.05625,5.1946 12.19493,10.35403 17.7636,16.07774c4.40891,4.53166 9.95711,9.55189 12.33679,15.53554c3.17924,7.99414 1.86129,17.26102 4.56601,25.46493c3.94475,11.96514 11.6992,22.75999 11.81235,35.76842c0.12976,14.91798 -10.74431,27.11643 -16.25229,40.30336c-1.65073,3.95209 -0.93075,8.04525 -2.52637,12.03629c-0.40191,1.00527 -0.01798,2.26983 -0.77801,3.05986c-2.91933,3.03459 -8.15104,4.83372 -11.82378,6.81005c-8.16513,4.3937 -16.65992,8.53286 -24.24879,13.89047c-11.60615,8.19374 -22.24194,20.70236 -37.22365,22.00921c-15.06966,1.31452 -26.45808,-12.61114 -40.6847,-15.10965c-11.15866,-1.95971 -22.75901,2.14316 -33.86228,0.02853c-6.41695,-1.22211 -12.33554,-5.47093 -17.52016,-9.23659c-9.64088,-7.00229 -20.59466,-19.77894 -23.37843,-31.65562c-2.30303,-9.82567 2.25919,-19.95649 0.63971,-29.80286c-0.86354,-5.25031 -14.71155,-26.55056 -12.79598,-32.6814zM64.56734,192.21857c3.6855,1.46383 7.96406,-0.48486 11.45245,-1.66888c7.31022,-2.48121 15.07801,-6.45041 22.93383,-6.39859c11.38831,0.07512 21.96346,5.57372 33.19236,6.66141c16.11555,1.56104 26.90715,-8.0967 40.60652,-14.29943c3.82226,-1.73062 10.03509,-0.14141 13.09119,-2.99961c1.8678,-1.74685 2.03747,-4.89117 2.34247,-7.24608c0.74851,-5.77926 2.56905,-14.11207 0.99365,-19.80372c-1.30392,-4.71087 -6.94449,-6.07222 -11.12475,-5.22155c-10.32926,2.10198 -20.23731,6.9197 -30.35521,9.87731c-16.29177,4.76233 -32.50434,-4.51442 -49.2422,-2.74655c-14.81829,1.56512 -41.00714,41.01898 -33.89032,43.84569zM61.80044,91.96826c-0.38821,0.50544 -0.76469,1.03382 -1.01693,1.6191c-2.60734,6.04984 8.65573,1.61341 10.24576,4.99434c1.17644,2.50149 -1.65683,6.66439 -2.28762,9.05007c-1.06119,4.01348 0.49713,7.7226 2.45555,11.19745c4.39321,7.79491 13.80304,11.20044 22.0941,7.78109c2.82878,-1.16663 6.10308,-3.23229 7.32347,-6.19595c1.37469,-3.33836 -2.0896,-8.20046 -0.29396,-10.98851c1.5544,-2.41348 5.73752,2.26035 7.10399,-0.63001c1.97353,-4.17441 -6.11983,-9.76246 -8.61293,-11.88466c-9.89133,-8.41982 -36.61137,-5.4638 -37.01144,-4.94293zM135.11002,112.70489c-4.14279,5.96994 7.32212,3.04832 9.72753,4.26179c2.89095,1.45843 4.02481,4.9263 7.05973,6.44657c7.07836,3.54573 18.27945,1.92979 24.37436,-3.31372c7.26466,-6.24986 -2.40588,-17.08016 -5.45999,-22.88992c-1.09511,-2.0832 -2.71942,-4.79706 -1.98062,-7.26311c1.64248,-5.48246 10.47636,-6.42919 14.17647,-10.00765c1.64559,-1.59148 2.74762,-4.6278 1.0412,-6.62366c-3.94773,-4.61735 -12.05277,3.3157 -14.8528,5.81426c-11.68118,10.42353 -33.71125,33.03561 -34.08587,33.57545z" fill="#090909" fill-rule="evenodd"/></svg>
