<svg xmlns="http://www.w3.org/2000/svg" viewBox="0 0 256 256"><!-- Iconic Drills Pack © 2026 Roman Kuzhel, Kyrgyzstan | CC BY 4.0 | https://github.com/roblo3x/iconic-drills-pack --><path d="M27 126C27.84 118.2 34.68 97.96 36 94C37.32 90.04 36.32 96.48 38 93C39.68 89.52 46.52 70.52 50 65C53.48 59.48 61.96 50.84 67 47C72.04 43.16 86 35.76 92 33C98 30.24 109.2 24.72 117 24C124.8 23.28 150.16 26.04 157 27C163.84 27.96 169.68 30.2 174 32C178.32 33.8 188.08 36.72 193 42C197.92 47.28 211.4 69.64 215 76C218.6 82.36 221.56 90.08 223 95C224.44 99.92 226.28 112.08 227 117C227.72 121.92 229 129.76 229 136C229 142.24 228.56 162.28 227 169C225.44 175.72 219 187.08 216 192C213 196.92 205.12 206.52 202 210C198.88 213.48 193.96 219.08 190 221C186.04 222.92 176.56 224.8 169 226C161.44 227.2 134.56 230.28 127 231C119.44 231.72 109.96 232.12 106 232C102.04 231.88 98.92 231.92 94 230C89.08 228.08 71.24 220.08 65 216C58.76 211.92 46.32 202.84 42 196C37.68 189.16 30.8 167.4 29 159C27.2 150.6 26.16 133.8 27 126ZM49 151C47.92 153.4 48.4 154.68 49 156C49.6 157.32 52.68 161.28 54 162C55.32 162.72 58.68 162.48 60 162C61.32 161.52 63.92 159.44 65 158C66.08 156.56 68.28 153.6 69 150C69.72 146.4 71.24 130.64 71 128C70.76 125.36 68.56 127.04 67 128C65.44 128.96 60.16 133.24 58 136C55.84 138.76 50.08 148.6 49 151ZM61 103C60.88 104.08 60.8 106.8 62 108C63.2 109.2 68.72 112.52 71 113C73.28 113.48 79.08 112.48 81 112C82.92 111.52 85.08 110.68 87 109C88.92 107.32 95.44 100.4 97 98C98.56 95.6 99.64 91.16 100 89C100.36 86.84 100.6 81.2 100 80C99.4 78.8 97.52 77.44 95 79C92.48 80.56 82.84 90.6 79 93C75.16 95.4 65.16 97.8 63 99C60.84 100.2 61.12 101.92 61 103ZM79 180C78.4 183 79.64 189.44 80 191C80.36 192.56 81.04 192.76 82 193C82.96 193.24 86.68 193.48 88 193C89.32 192.52 92.04 190.44 93 189C93.96 187.56 94.32 183.28 96 181C97.68 178.72 104.24 171.8 107 170C109.76 168.2 116.48 166.48 119 166C121.52 165.52 125.6 165.4 128 166C130.4 166.6 136.84 169.56 139 171C141.16 172.44 144.44 175.6 146 178C147.56 180.4 150.92 189.2 152 191C153.08 192.8 153.68 192.52 155 193C156.32 193.48 161.56 195.48 163 195C164.44 194.52 166.64 190.92 167 189C167.36 187.08 167.68 182.84 166 179C164.32 175.16 155.52 160.48 153 157C150.48 153.52 148.12 151.56 145 150C141.88 148.44 130.96 144.6 127 144C123.04 143.4 115.36 144.16 112 145C108.64 145.84 102.24 148.48 99 151C95.76 153.52 87.4 162.52 85 166C82.6 169.48 79.6 177 79 180ZM154 80C154.12 82.16 154.92 92.12 156 95C157.08 97.88 160.96 102.44 163 104C165.04 105.56 170.48 107.64 173 108C175.52 108.36 182.2 107.48 184 107C185.8 106.52 187.4 105.08 188 104C188.6 102.92 189.12 99.08 189 98C188.88 96.92 187.84 95.36 187 95C186.16 94.64 182.72 95.24 182 95C181.28 94.76 182.32 93.6 181 93C179.68 92.4 173.76 91.92 171 90C168.24 88.08 159.92 78.56 158 77C156.08 75.44 155.48 76.64 155 77C154.52 77.36 153.88 77.84 154 80ZM170 138C169.88 141.36 170.52 147.72 171 150C171.48 152.28 172.92 155.68 174 157C175.08 158.32 178.44 160.52 180 161C181.56 161.48 185.8 161.24 187 161C188.2 160.76 189.28 159.84 190 159C190.72 158.16 192.64 155.56 193 154C193.36 152.44 194.32 149 193 146C191.68 143 184.16 131.88 182 129C179.84 126.12 176.2 122.84 175 122C173.8 121.16 172.6 120.08 172 122C171.4 123.92 170.12 134.64 170 138Z" fill="#090909" fill-rule="evenodd"/></svg>
