<svg data-contour-smoothing="organic-v2" xmlns="http://www.w3.org/2000/svg" viewBox="0 0 256 256"><!-- Iconic Drills Pack © 2026 Roman Kuzhel, Kyrgyzstan | CC BY 4.0 | https://github.com/roblo3x/iconic-drills-pack --><path d="M50.96204,74.04831c4.19931,-7.24894 8.15224,-15.77198 14.21982,-21.66301c6.51895,-6.32927 15.63361,-10.67087 23.45802,-15.16229c8.50598,-4.88266 17.54806,-10.21602 27.33664,-11.9846c8.99318,-1.62486 18.9207,0.59054 27.74027,2.3551c7.12109,1.42474 14.51972,2.65839 21.3671,5.12976c14.4391,5.21139 29.05601,15.52396 39.22136,26.98039c6.59257,7.42988 13.22745,17.94363 15.72288,27.62358c1.81084,7.02437 1.94207,14.62581 2.33748,21.83567c0.62074,11.31846 0.89974,22.63879 0.92195,33.97347c0.02706,13.8057 0.70108,28.33875 -3.5645,41.66062c-9.43409,29.4637 -41.74853,41.35271 -69.6333,45.94291c-8.5556,1.40836 -17.212,2.11929 -25.88276,1.53834c-7.94485,-0.53232 -15.84296,-2.47975 -23.61283,-4.13411c-11.14463,-2.37291 -22.08353,-5.13481 -31.76357,-11.4383c-9.23871,-6.0161 -16.25303,-16.25605 -23.28698,-24.59985c-3.23949,-3.84274 -7.71505,-7.91379 -9.75275,-12.56005c-1.79977,-4.10374 -2.21256,-9.22489 -2.8804,-13.6227c-1.97803,-13.02552 7.99904,-74.52201 18.05157,-91.87493zM94.94183,129.52889c2.57422,-0.47796 5.24428,-1.153 7.58476,-2.35658c11.62148,-5.9763 14.90767,-20.89815 15.47101,-32.76812c0.21858,-4.60552 0.17443,-9.41076 -1.6564,-13.73447c-5.73942,-13.55434 -22.95202,-11.64528 -31.77861,-3.01421c-5.92952,5.79817 -6.37581,54.98433 10.37924,51.87338zM94.42527,88.93819c2.27493,-1.39221 7.04445,-2.03566 8.94298,0.3545c1.18053,1.48622 1.10589,3.84509 1.18329,5.61319c0.27196,6.21217 -0.47118,12.21665 -5.5311,16.51327c-4.01309,3.40771 -9.00037,-0.15011 -10.36121,-4.4123c-0.49614,-1.55394 0.74041,-14.99308 5.76604,-18.06866zM105.85648,201.4418c1.25316,1.45079 3.01551,2.2031 4.29813,3.61913c4.80952,5.30979 11.35061,8.96555 18.97942,8.20712c4.37803,-0.43525 9.3774,-2.19577 13.20604,-4.34359c3.49849,-1.96261 5.98346,-5.2655 8.30615,-8.44913c7.52341,-10.31205 11.22374,-25.13555 9.22703,-37.91766c-1.00349,-6.42395 -4.61855,-15.0476 -9.49459,-19.46555c-8.08013,-7.32102 -22.30336,-8.87864 -31.7757,-3.39114c-11.95665,6.92671 -19.42152,54.01306 -12.74648,61.74081zM150.47981,120.09384c6.35952,10.53754 21.12105,14.24621 30.65746,5.65181c8.39379,-7.56465 8.21353,-19.38044 7.74501,-29.72521c-0.30751,-6.78967 -1.1629,-13.24282 -6.20208,-18.29836c-7.17772,-7.20105 -20.84904,-9.56086 -29.08244,-2.61266c-4.36805,3.68621 -8.19889,36.56546 -3.11795,44.98443zM161.45201,91.34988c2.79441,-4.1526 8.54059,-4.30236 11.66559,-0.4951c4.25443,5.18329 3.91456,15.85799 -0.90642,20.64317c-4.57946,4.54545 -10.39576,0.24332 -12.09424,-4.55978c-0.69054,-1.95275 -0.84772,-12.34458 1.33507,-15.58829z" fill="#090909" fill-rule="evenodd"/></svg>
