<svg xmlns="http://www.w3.org/2000/svg" viewBox="0 0 256 256"><!-- Iconic Drills Pack © 2026 Roman Kuzhel, Kyrgyzstan | CC BY 4.0 | https://github.com/roblo3x/iconic-drills-pack --><path d="M60 170C61.44 166.04 71.36 145.92 74 141C76.64 136.08 78.88 132 82 129C85.12 126 96.76 117.92 100 116C103.24 114.08 106.84 116.84 109 113C111.16 109.16 115.6 90.12 118 84C120.4 77.88 125.4 66.92 129 62C132.6 57.08 143.68 46.72 148 43C152.32 39.28 161.16 33.28 165 31C168.84 28.72 177.6 24.72 180 24C182.4 23.28 183.8 23.92 185 25C186.2 26.08 189.16 31.08 190 33C190.84 34.92 191.28 35 192 41C192.72 47 196.36 74.6 196 83C195.64 91.4 191.16 104.76 189 111C186.84 117.24 178.36 129.84 178 135C177.64 140.16 184.92 150.76 186 154C187.08 157.24 187.6 158.04 187 162C186.4 165.96 183.04 180.64 181 187C178.96 193.36 171.92 211.4 170 215C168.08 218.6 165.96 217.12 165 217C164.04 216.88 162.6 216.16 162 214C161.4 211.84 161.2 202.72 160 199C158.8 195.28 153.2 185.16 152 183C150.8 180.84 151.32 181.36 150 181C148.68 180.64 142.08 177.96 141 180C139.92 182.04 141.96 193.92 141 198C140.04 202.08 134.92 211.12 133 214C131.08 216.88 126.68 220.92 125 222C123.32 223.08 119.6 224.8 119 223C118.4 221.2 120.24 208.92 120 207C119.76 205.08 119.64 204.36 117 207C114.36 209.64 101.24 226 98 229C94.76 232 91.2 232 90 232C88.8 232 88.12 230.2 88 229C87.88 227.8 87.8 226.08 89 222C90.2 217.92 98.36 197.64 98 195C97.64 192.36 87.56 200.24 86 200C84.44 199.76 84.28 195.52 85 193C85.72 190.48 89.6 181.88 92 179C94.4 176.12 103.44 170.56 105 169C106.56 167.44 105.36 166.84 105 166C104.64 165.16 103.08 162.48 102 162C100.92 161.52 99 161.28 96 162C93 162.72 80.6 166.44 77 168C73.4 169.56 67.8 174.28 66 175C64.2 175.72 62.72 174.6 62 174C61.28 173.4 58.56 173.96 60 170ZM137 91C136.4 94.12 138.16 102.72 139 105C139.84 107.28 142.56 109.04 144 110C145.44 110.96 149.2 112.64 151 113C152.8 113.36 157.08 113.48 159 113C160.92 112.52 165.2 110.92 167 109C168.8 107.08 173.4 100.12 174 97C174.6 93.88 173.56 85.64 172 83C170.44 80.36 163.28 75.96 161 75C158.72 74.04 155.04 74.52 153 75C150.96 75.48 145.92 77.08 144 79C142.08 80.92 137.6 87.88 137 91Z" fill="#090909" fill-rule="evenodd"/></svg>
