<svg xmlns="http://www.w3.org/2000/svg" viewBox="0 0 256 256"><!-- Iconic Drills Pack © 2026 Roman Kuzhel, Kyrgyzstan | CC BY 4.0 | https://github.com/roblo3x/iconic-drills-pack --><path d="M24 111C24 102 24.32 89.96 26 86C27.68 82.04 34.76 79.56 38 78C41.24 76.44 45.8 74.8 53 73C60.2 71.2 85.88 65.16 98 63C110.12 60.84 143.08 55.96 154 55C164.92 54.04 183 54.64 189 55C195 55.36 200.88 56.68 204 58C207.12 59.32 213.32 64.2 215 66C216.68 67.8 216.08 62.8 218 73C219.92 83.2 229.44 139.48 231 151C232.56 162.52 231.48 166.24 231 169C230.52 171.76 229.88 173.16 227 174C224.12 174.84 209.52 174.08 207 176C204.48 177.92 206.84 187.72 206 190C205.16 192.28 201.68 194.28 200 195C198.32 195.72 194.16 196.84 192 196C189.84 195.16 183.32 189.68 182 188C180.68 186.32 178.84 183.08 181 182C183.16 180.92 197.72 179.72 200 179C202.28 178.28 202.16 176.36 200 176C197.84 175.64 189.68 175.16 182 176C174.32 176.84 142.12 182.52 136 183C129.88 183.48 131.84 181.44 131 180C130.16 178.56 130.2 173.28 129 171C127.8 168.72 123.52 162.08 121 161C118.48 159.92 110.28 161.16 108 162C105.72 162.84 103.08 166.2 102 168C100.92 169.8 103.08 176.4 99 177C94.92 177.6 72.08 174.8 68 173C63.92 171.2 66.44 164.16 65 162C63.56 159.84 57.68 155.84 56 155C54.32 154.16 52.44 154.52 51 155C49.56 155.48 45.32 157.56 44 159C42.68 160.44 41.44 166.16 40 167C38.56 167.84 33.68 166.72 32 166C30.32 165.28 26.96 167.6 26 161C25.04 154.4 24 120 24 111ZM41 101C41 104.12 41.16 119.24 42 122C42.84 124.76 46.2 123.88 48 124C49.8 124.12 55.44 123.96 57 123C58.56 122.04 60.64 119.48 61 116C61.36 112.52 62.28 96.4 60 94C57.72 91.6 44.28 95.16 42 96C39.72 96.84 41 97.88 41 101ZM42 172C43.08 169.72 49.44 162.32 51 161C52.56 159.68 54.04 160.64 55 161C55.96 161.36 58.04 162.56 59 164C59.96 165.44 62.52 170.84 63 173C63.48 175.16 63.72 179.72 63 182C62.28 184.28 58.8 190.8 57 192C55.2 193.2 49.44 192.36 48 192C46.56 191.64 45.72 190.44 45 189C44.28 187.56 42.36 182.04 42 180C41.64 177.96 40.92 174.28 42 172ZM72 106C72 110.08 71.36 122.6 74 125C76.64 127.4 91 127.92 94 126C97 124.08 98.76 113.56 99 109C99.24 104.44 99 90.16 96 88C93 85.84 76.88 88.84 74 91C71.12 93.16 72 101.92 72 106ZM102 183C102.24 180.12 104.8 173.16 106 171C107.2 168.84 110.68 165.84 112 165C113.32 164.16 115.92 163.76 117 164C118.08 164.24 119.92 165.44 121 167C122.08 168.56 125.4 174 126 177C126.6 180 126.72 189.24 126 192C125.28 194.76 121.8 198.92 120 200C118.2 201.08 112.92 201.6 111 201C109.08 200.4 105.08 197.16 104 195C102.92 192.84 101.76 185.88 102 183ZM115 106C114.64 110.08 114.64 114.6 115 117C115.36 119.4 115 125.04 118 126C121 126.96 136.88 125.84 140 125C143.12 124.16 143.88 124.16 144 119C144.12 113.84 142.56 86.56 141 82C139.44 77.44 133.76 80.88 131 81C128.24 81.12 119.92 80 118 83C116.08 86 115.36 101.92 115 106ZM152 140C149.84 142.04 150.96 157.6 153 160C155.04 162.4 166.84 162.04 169 160C171.16 157.96 173.04 145.4 171 143C168.96 140.6 154.16 137.96 152 140ZM155 144C155.84 143.16 162.68 144.64 164 145C165.32 145.36 165.76 146.16 166 147C166.24 147.84 167.08 151.4 166 152C164.92 152.6 158.32 152.96 157 152C155.68 151.04 154.16 144.84 155 144ZM158 95C158 99.2 157.08 117 159 120C160.92 123 170.88 120.36 174 120C177.12 119.64 183.56 119.16 185 117C186.44 114.84 186.36 106.56 186 102C185.64 97.44 184.88 81.52 182 79C179.12 76.48 164.76 80.28 162 81C159.24 81.72 159.48 83.32 159 85C158.52 86.68 158 90.8 158 95ZM196 142C193.96 144.64 196.2 156.08 198 158C199.8 159.92 208.72 158.36 211 158C213.28 157.64 216.28 156.08 217 155C217.72 153.92 218.08 149.36 217 149C215.92 148.64 209.92 152 208 152C206.08 152 201.6 149.96 201 149C200.4 148.04 201.2 144.84 203 144C204.8 143.16 214.56 142.96 216 142C217.44 141.04 217.4 136 215 136C212.6 136 198.04 139.36 196 142ZM197 80C196.28 84.08 194.96 110.28 197 114C199.04 117.72 211.84 112.08 214 111C216.16 109.92 215.48 108.12 215 105C214.52 101.88 211.44 88 210 85C208.56 82 204.56 80.6 203 80C201.44 79.4 197.72 75.92 197 80Z" fill="#090909" fill-rule="evenodd"/></svg>
