<svg data-contour-smoothing="organic-v2" xmlns="http://www.w3.org/2000/svg" viewBox="0 0 256 256"><!-- Iconic Drills Pack © 2026 Roman Kuzhel, Kyrgyzstan | CC BY 4.0 | https://github.com/roblo3x/iconic-drills-pack --><path d="M66.69154,155.52097c6.03442,-12.38083 11.15806,-23.93585 22.56512,-32.21424c3.57116,-2.59168 7.48931,-6.06845 11.72239,-7.48134c3.22768,-1.07731 6.35182,-0.47301 8.30531,-3.84606c4.49952,-7.76927 5.28491,-18.23817 8.26488,-26.67753c5.1125,-14.47872 12.71248,-25.79598 23.81355,-36.2854c9.18857,-8.6823 19.42668,-16.3766 30.90624,-21.77157c3.65497,-1.7177 8.91833,-5.0238 12.70181,-1.95334c6.79425,5.51386 7.12994,16.10138 8.09215,23.97801c1.35124,11.0612 3.44931,22.6566 2.90855,33.82507c-0.4429,9.14733 -3.55616,18.53582 -6.6828,27.08058c-2.90964,7.95171 -11.09949,16.78453 -11.02598,25.45173c0.06862,8.09056 7.52446,14.21698 8.70709,22.05718c0.68085,4.51361 -0.893,9.3762 -1.89246,13.74026c-2.39863,10.47345 -5.61731,20.47934 -9.53307,30.47982c-1.60043,4.08735 -3.16555,11.41718 -6.76048,14.21285c-3.98313,3.09756 -6.70213,-1.89109 -7.16347,-5.16959c-1.30758,-9.29213 -3.19662,-16.11179 -7.70642,-24.43885c-2.12185,-3.91786 -5.46794,-7.68139 -10.55344,-6.87045c-2.07982,0.33165 -2.4794,2.04163 -2.58565,3.85067c-0.23378,3.98052 0.65784,7.96925 0.4031,11.96056c-0.50038,7.83987 -6.32037,17.22125 -11.73516,22.68904c-1.79526,1.81283 -3.88037,3.80991 -6.31543,4.72612c-6.67852,2.51283 -3.37157,-9.90627 -3.2879,-13.0904c0.06165,-2.34606 -0.56732,-4.40294 -3.03354,-2.35869c-6.50726,5.39387 -11.12224,13.48695 -16.93826,19.62319c-2.13314,2.25058 -6.53157,6.19073 -10.00159,4.31382c-2.90213,-1.56974 -1.63938,-6.33544 -0.98589,-8.74828c1.73474,-6.40505 4.5226,-12.56011 6.68303,-18.83076c0.71467,-2.07432 2.28851,-5.13523 1.86063,-7.39413c-0.38217,-2.01757 -2.66239,-0.88694 -3.71864,-0.39022c-3.05641,1.43736 -9.23899,6.23223 -8.94187,-0.64314c0.05597,-1.29515 0.42091,-2.63646 0.83002,-3.85542c1.60852,-4.7926 4.1362,-10.22407 7.82963,-13.7538c2.90214,-2.77352 6.51503,-4.62066 9.54932,-7.21329c2.1392,-1.82783 2.61657,-3.79681 0.89215,-6.17888c-2.62557,-3.62691 -6.95995,-2.56482 -10.64455,-1.56465c-5.66792,1.53854 -11.75804,3.08041 -17.0264,5.7186c-2.98966,1.4971 -5.47494,3.78104 -8.41157,5.33626c-3.57256,1.89199 -3.4578,-13.45649 -1.09039,-18.31371zM137.16416,96.89764c0.40919,3.11601 0.87773,6.72061 2.67548,9.38678c9.80616,14.54312 32.14453,5.18751 34.23425,-10.2434c2.15729,-15.92989 -15.03274,-27.3318 -28.63566,-18.06302c-4.1407,2.8214 -8.63373,16.18083 -8.27407,18.91964z" fill="#090909" fill-rule="evenodd"/></svg>
