<svg xmlns="http://www.w3.org/2000/svg" viewBox="0 0 256 256"><!-- Iconic Drills Pack © 2026 Roman Kuzhel, Kyrgyzstan | CC BY 4.0 | https://github.com/roblo3x/iconic-drills-pack --><path d="M42 226C45.84 220.12 72.8 187.76 77 182C81.2 176.24 78.68 179.2 77 178C75.32 176.8 65.4 173.56 63 172C60.6 170.44 58.2 167.04 57 165C55.8 162.96 53.24 165.92 53 155C52.76 144.08 54.4 85.64 55 74C55.6 62.36 56.68 62.08 58 58C59.32 53.92 63.12 43.12 66 40C68.88 36.88 78.16 33.56 82 32C85.84 30.44 92.36 27.96 98 27C103.64 26.04 123.24 24.36 129 24C134.76 23.64 141.56 23.64 146 24C150.44 24.36 161.08 25.56 166 27C170.92 28.44 183.88 34.08 187 36C190.12 37.92 191.04 40.6 192 43C192.96 45.4 194.28 42.92 195 56C195.72 69.08 198.36 138.8 198 152C197.64 165.2 193.68 163.48 192 166C190.32 168.52 185.8 171.8 184 173C182.2 174.2 177.84 175.16 177 176C176.16 176.84 173.52 175.44 177 180C180.48 184.56 201.68 208.72 206 214C210.32 219.28 212.16 222.32 213 224C213.84 225.68 213.72 227.04 213 228C212.28 228.96 208.32 231.52 207 232C205.68 232.48 204.04 233.68 202 232C199.96 230.32 206.44 219.32 190 218C173.56 216.68 81.08 219.32 65 221C48.92 222.68 58.4 230.8 56 232C53.6 233.2 46.68 231.72 45 231C43.32 230.28 38.16 231.88 42 226ZM78 204C66.24 204.84 65.88 207.64 78 208C90.12 208.36 167.24 207.84 179 207C190.76 206.16 188.12 201.36 176 201C163.88 200.64 89.76 203.16 78 204ZM79 148C78.76 149.32 78.64 151.8 79 153C79.36 154.2 81.16 157.16 82 158C82.84 158.84 84.32 159.76 86 160C87.68 160.24 93.96 160.84 96 160C98.04 159.16 102.16 154.92 103 153C103.84 151.08 103.24 145.56 103 144C102.76 142.44 101.84 140.84 101 140C100.16 139.16 97.92 137.24 96 137C94.08 136.76 86.8 137.4 85 138C83.2 138.6 81.72 140.8 81 142C80.28 143.2 79.24 146.68 79 148ZM81 75C80.16 79.56 77.2 106.8 82 111C86.8 115.2 116.44 114.68 121 110C125.56 105.32 123.84 76.44 120 72C116.16 67.56 93.68 72.64 89 73C84.32 73.36 81.84 70.44 81 75ZM91 188C90.88 188.6 82.12 190.76 91 191C99.88 191.24 156.48 190.84 165 190C173.52 189.16 169.44 184.6 162 184C154.56 183.4 111.4 184.76 103 185C94.6 185.24 93.44 185.64 92 186C90.56 186.36 91.12 187.4 91 188ZM111 43C109.92 44.2 110.52 48.92 111 50C111.48 51.08 112.12 51.76 115 52C117.88 52.24 131.64 52.12 135 52C138.36 51.88 141.92 51.36 143 51C144.08 50.64 144 50.2 144 49C144 47.8 143.6 42.08 143 41C142.4 39.92 141.76 40.12 139 40C136.24 39.88 123.36 39.64 120 40C116.64 40.36 112.08 41.8 111 43ZM134 76C133.76 80.68 132.12 105.92 135 110C137.88 114.08 153.68 110.12 158 110C162.32 109.88 169.08 109.36 171 109C172.92 108.64 173.64 111.68 174 107C174.36 102.32 178.44 74.32 174 70C169.56 65.68 141.8 70.28 137 71C132.2 71.72 134.24 71.32 134 76ZM149 145C148.64 147.16 150.04 153.32 151 155C151.96 156.68 155.32 158.52 157 159C158.68 159.48 163.08 159.96 165 159C166.92 158.04 172.28 153.4 173 151C173.72 148.6 172.2 140.92 171 139C169.8 137.08 165.04 135.24 163 135C160.96 134.76 155.68 135.8 154 137C152.32 138.2 149.36 142.84 149 145Z" fill="#090909" fill-rule="evenodd"/></svg>
