<svg data-contour-smoothing="organic-v2" xmlns="http://www.w3.org/2000/svg" viewBox="0 0 256 256"><!-- Iconic Drills Pack © 2026 Roman Kuzhel, Kyrgyzstan | CC BY 4.0 | https://github.com/roblo3x/iconic-drills-pack --><path d="M79.23168,94.65321c3.97405,-0.36723 7.96951,-0.53012 11.95603,-0.69505c6.64884,-0.27509 13.30165,-0.43271 19.95116,-0.68717c1.96107,-0.07504 5.60252,0.38651 7.24077,-0.97554c0.80375,-0.66824 0.78107,-1.90764 0.81714,-2.79655c0.28009,-6.90202 -4.7781,-6.63384 -10.33578,-7.261c-9.25732,-1.04465 -18.5287,-1.96285 -27.78156,-3.0477c-3.08516,-0.36172 -8.9051,-0.07143 -11.24657,-2.45801c-2.15315,-2.19462 -1.33203,-8.45692 -0.06878,-10.89676c2.95744,-5.71199 8.81638,-3.76919 13.7558,-2.44791c8.35648,2.23534 16.66827,4.63918 24.99621,6.9777c3.4664,0.97338 7.80056,2.97077 11.44383,2.75363c2.52912,-0.15074 3.96976,-2.5655 6.51924,-2.65221c3.84103,-0.13064 7.50217,2.46724 11.47651,2.502c10.1389,0.08867 21.28459,-4.73668 31.02758,-7.26827c4.06191,-1.05544 13.54768,-5.21198 16.16708,-0.06106c1.34802,2.65081 2.49009,10.47662 -0.38761,12.49013c-2.43273,1.70217 -6.71222,1.53914 -9.54832,1.86414c-9.25544,1.06063 -18.53069,1.94416 -27.79563,2.91618c-2.7294,0.28635 -8.94764,-0.16981 -11.0504,1.82586c-1.23962,1.17649 -0.90662,5.15136 -0.68505,6.62459c0.75604,5.02696 6.89982,5.31201 10.89682,6.09833c9.19838,1.80955 18.18675,4.23091 25.40055,10.64461c6.61824,5.8842 9.48532,14.36438 12.62666,22.33805c2.31987,5.88852 6.07612,12.60521 12.81396,14.0472c2.86437,0.61301 6.98639,0.9605 9.47046,-0.94187c4.18981,-3.20867 3.70628,-9.9839 7.43066,-13.69042c6.89921,-6.86613 18.37884,-1.5752 17.4869,8.05309c-0.30314,3.2723 -1.37253,6.54949 -2.26466,9.6977c-2.22817,7.86294 -4.39558,17.92007 -13.0624,21.06313c-4.30268,1.56039 -9.33855,0.96547 -13.83133,1.09935c-5.85212,0.17439 -12.0991,1.17364 -17.54058,3.41305c-9.26182,3.81164 -15.29315,12.79629 -24.7012,16.61336c-7.99799,3.24497 -17.11697,2.85018 -25.60094,3.05604c-15.33464,0.37209 -30.57644,-0.119 -45.88138,-1.09187c-7.84156,-0.49845 -18.40755,-0.15715 -25.42818,-4.18995c-4.82552,-2.77188 -1.6882,-8.39158 -5.48212,-11.22476c-4.12027,-3.07689 -10.14475,-3.45911 -14.58511,-6.17148c-13.673,-8.35208 13.96407,-73.50274 35.80024,-75.52054zM85.18453,147.68239c3.73119,6.72924 15.20332,8.93952 20.55243,2.90898c4.97816,-5.61232 6.19687,-18.75149 0.3661,-24.05967c-7.4711,-6.8015 -23.4339,16.61421 -20.91853,21.15069zM128.37134,155.31617c3.72978,5.36326 9.62013,6.38856 15.70315,6.51371c9.10946,0.1874 16.95488,-2.13601 21.46708,-10.84983c1.84911,-3.57095 1.59093,-7.74423 1.35759,-11.62983c-0.50955,-8.48506 -2.53408,-15.42078 -10.36678,-19.96352c-11.96216,-6.9377 -32.16117,30.17745 -28.16104,35.92947z" fill="#090909" fill-rule="evenodd"/></svg>
