<svg data-contour-smoothing="organic-v2" xmlns="http://www.w3.org/2000/svg" viewBox="0 0 256 256"><!-- Iconic Drills Pack © 2026 Roman Kuzhel, Kyrgyzstan | CC BY 4.0 | https://github.com/roblo3x/iconic-drills-pack --><path d="M50.50081,214.9407c6.23741,-7.80603 12.57472,-15.53158 18.85689,-23.30149c2.0935,-2.58928 4.20211,-5.17006 6.23007,-7.81133c0.79879,-1.04036 2.78172,-2.98116 2.61047,-4.48814c-0.11158,-0.98193 -1.47846,-1.50079 -2.11835,-1.80994c-2.97991,-1.43968 -6.16897,-2.43844 -9.21068,-3.73571c-6.78574,-2.89406 -13.4003,-10.11203 -13.81603,-17.6327c-1.16814,-21.13178 0.59122,-42.78708 1.25699,-63.92879c0.53691,-17.04978 0.52758,-35.29467 10.32564,-50.18078c5.13584,-7.80283 19.65006,-11.48688 28.20267,-13.85946c7.6738,-2.12879 15.82249,-2.52471 23.72332,-3.22618c19.11956,-1.69751 39.01881,-2.53713 57.13526,4.868c4.68105,1.91339 10.36945,3.72442 14.27243,7.03461c8.26197,7.00712 7.14052,20.29945 7.55197,29.9809c0.90502,21.29555 1.67498,42.60121 2.21933,63.90916c0.22937,8.97849 2.43642,21.30511 -1.10057,29.78545c-1.97749,4.74127 -8.27555,9.79439 -12.63075,12.31768c-1.86072,1.07805 -7.24699,2.10987 -7.79471,4.54648c-0.69145,3.07605 5.77556,8.61285 7.57956,10.72443c8.19722,9.59479 16.96634,18.86244 24.59923,28.91738c4.3443,5.72282 7.24422,11.75086 -1.52714,14.89258c-6.78385,2.42983 -4.41133,-6.62842 -7.15134,-9.97313c-2.55672,-3.12098 -7.06503,-3.70784 -10.81893,-3.98817c-27.01325,-2.01726 -54.86852,0.12645 -81.91109,1.0191c-10.65127,0.35159 -21.30505,0.73231 -31.94617,1.32237c-5.02333,0.27855 -11.06918,-0.02921 -15.75547,2.05161c-1.78852,0.79414 -3.18117,1.99785 -3.53222,4.01319c-0.36473,2.0939 1.06538,5.03101 -1.83222,5.80287c-4.15172,1.10593 -6.62896,-13.23173 -3.41817,-17.24999zM71.76205,204.8787c-0.14858,0.04827 -2.16237,0.62238 -1.83598,1.52462c0.4742,1.31081 3.70469,1.33043 4.68558,1.42292c5.28493,0.49834 10.67365,0.30414 15.97607,0.31296c23.31158,0.03876 46.63057,-0.14164 69.93842,-0.5621c6.60842,-0.11921 13.39378,0.09009 19.9628,-0.7109c1.2482,-0.1522 6.0907,-0.59367 5.45628,-2.9621c-0.57976,-2.16439 -4.78531,-2.46571 -6.47396,-2.66566c-6.55981,-0.77672 -13.37884,-0.2478 -19.96703,-0.10851c-27.25949,0.57632 -85.26641,2.94435 -87.7422,3.74877zM82.67699,158.48432c6.70009,5.11844 18.9321,1.43514 20.64862,-7.08577c1.85549,-9.21079 -3.95118,-15.1662 -12.90721,-14.34962c-2.56524,0.23389 -5.26475,0.52973 -7.30723,2.27353c-2.54614,2.1738 -4.45159,16.09282 -0.43418,19.16186zM79.96614,82.85092c-0.55512,5.93684 -0.92856,11.95736 -0.60362,17.91901c0.16552,3.03686 0.2651,6.9386 2.29147,9.42028c2.07552,2.54187 5.9358,2.92073 8.95914,3.27335c7.17784,0.83717 14.73171,0.68673 21.86327,-0.49057c3.0449,-0.50266 6.79078,-1.10518 8.80181,-3.72753c1.9522,-2.54564 2.13829,-6.38354 2.35281,-9.44839c0.46035,-6.57684 0.12452,-13.37267 -1.0206,-19.86656c-0.52605,-2.9832 -1.09667,-6.8374 -3.93664,-8.56644c-5.50194,-3.34971 -15.61017,-0.59126 -21.52739,0.32905c-4.34759,0.67618 -16.88011,7.94777 -17.18026,11.15779zM88.3847,190.48881c1.34614,0.8722 3.83841,0.5644 5.33143,0.58502c3.99625,0.05518 7.9946,0.03211 11.99109,0.02077c15.32078,-0.04348 30.64609,-0.17121 45.96299,-0.53091c4.5721,-0.10737 9.44499,0.14938 13.95813,-0.66877c1.16712,-0.21158 3.92961,-0.74379 3.55644,-2.62708c-0.34425,-1.73735 -2.91953,-2.44855 -4.29771,-2.79395c-4.4397,-1.11269 -9.39096,-0.67403 -13.9266,-0.63515c-13.98844,0.1199 -27.97579,0.54479 -41.95813,0.95415c-5.90237,0.17281 -21.93591,4.84179 -20.61765,5.69592zM112.98023,51.45424c2.29809,1.1004 5.4221,0.76408 7.88789,0.78008c5.3764,0.03489 10.8164,0.13847 16.18046,-0.27569c3.07957,-0.23778 6.76088,-0.38756 7.0664,-4.22306c0.17017,-2.13627 -0.06463,-5.6852 -2.04681,-7.03296c-1.99353,-1.35547 -5.41147,-0.88206 -7.67852,-0.92401c-7.16162,-0.13254 -25.3436,9.79183 -21.40941,11.67565zM133.42201,101.79963c0.17593,2.91317 0.15979,7.00476 2.86774,8.86604c5.28859,3.63506 15.56562,-0.0475 21.40611,-0.5276c3.30344,-0.27155 6.6176,-0.41623 9.92258,-0.67966c1.44661,-0.1153 4.01109,0.21018 5.29238,-0.66006c1.41631,-0.96195 1.3273,-3.47272 1.49253,-4.91796c0.37661,-3.2943 0.73071,-6.59273 1.02615,-9.89537c0.52606,-5.8807 1.10501,-11.98022 0.44419,-17.87229c-0.28212,-2.51548 -0.80289,-5.22837 -3.16452,-6.63921c-2.71201,-1.62016 -6.61869,-1.3823 -9.64804,-1.33573c-6.62376,0.10182 -13.24585,0.92949 -19.79738,1.85521c-4.70594,0.66494 -10.3991,22.57696 -9.84172,31.80662zM152.11768,156.19694c6.24791,6.43405 18.74416,2.97848 20.86776,-5.78791c2.65189,-10.94722 -8.9672,-19.71816 -18.6094,-13.52674c-2.85065,1.83045 -5.44148,16.0367 -2.25836,19.31465z" fill="#090909" fill-rule="evenodd"/></svg>
