<svg xmlns="http://www.w3.org/2000/svg" viewBox="0 0 256 256"><!-- Iconic Drills Pack © 2026 Roman Kuzhel, Kyrgyzstan | CC BY 4.0 | https://github.com/roblo3x/iconic-drills-pack --><path d="M24 166C24.36 162.28 26.92 146.2 28 142C29.08 137.8 31.68 133.04 33 131C34.32 128.96 36.48 126.44 39 125C41.52 123.56 50.52 119.96 54 119C57.48 118.04 65.48 119.4 68 117C70.52 114.6 72.12 103.92 75 99C77.88 94.08 87.56 80.2 92 76C96.44 71.8 106.84 66.16 112 64C117.16 61.84 128.16 58.48 135 58C141.84 57.52 162.64 58.92 169 60C175.36 61.08 184.88 65.2 188 67C191.12 68.8 193.56 72.6 195 75C196.44 77.4 198.8 82.08 200 87C201.2 91.92 202.12 111.56 205 116C207.88 120.44 221 122.2 224 124C227 125.8 229.04 128.96 230 131C230.96 133.04 232 136.08 232 141C232 145.92 230.84 167.8 230 172C229.16 176.2 228.12 175.04 225 176C221.88 176.96 207.12 179.64 204 180C200.88 180.36 199.6 180.08 199 179C198.4 177.92 199.48 173.04 199 171C198.52 168.96 197.04 164.16 195 162C192.96 159.84 184.88 154.08 182 153C179.12 151.92 173.52 152.52 171 153C168.48 153.48 163.04 155.68 161 157C158.96 158.32 155.44 161.24 154 164C152.56 166.76 150.08 177.96 149 180C147.92 182.04 150.04 180.88 145 181C139.96 181.12 112.04 183.04 107 181C101.96 178.96 104.32 166.88 103 164C101.68 161.12 98.04 158.32 96 157C93.96 155.68 88.28 153.48 86 153C83.72 152.52 79.4 152.4 77 153C74.6 153.6 68.28 156.08 66 158C63.72 159.92 59.44 166.36 58 169C56.56 171.64 57.12 178.92 54 180C50.88 181.08 35.48 178.84 32 178C28.52 177.16 25.96 174.44 25 173C24.04 171.56 23.64 169.72 24 166ZM62 177C62.12 174.6 63.92 170.68 65 169C66.08 167.32 69.44 164.08 71 163C72.56 161.92 76.2 160.36 78 160C79.8 159.64 84.08 159.52 86 160C87.92 160.48 92.68 163.04 94 164C95.32 164.96 96.28 166.56 97 168C97.72 169.44 99.64 174.08 100 176C100.36 177.92 101.08 181.6 100 184C98.92 186.4 93.88 194.32 91 196C88.12 197.68 78.4 198 76 198C73.6 198 72.44 197.08 71 196C69.56 194.92 65.08 191.28 64 189C62.92 186.72 61.88 179.4 62 177ZM87 113C86.16 115.28 82.32 116.64 87 117C91.68 117.36 121.32 120.68 126 116C130.68 111.32 127.32 82.32 126 78C124.68 73.68 117.76 78.92 115 80C112.24 81.08 105.52 84.84 103 87C100.48 89.16 95.92 94.88 94 98C92.08 101.12 87.84 110.72 87 113ZM142 77C139.96 81.68 138.04 111.32 142 116C145.96 120.68 170.08 116.24 175 116C179.92 115.76 182.28 115.8 183 114C183.72 112.2 182.44 104.84 181 101C179.56 97.16 173.64 84.88 171 82C168.36 79.12 162.48 77.6 159 77C155.52 76.4 144.04 72.32 142 77ZM155 178C155.24 175.96 156.8 170.92 158 169C159.2 167.08 162.48 163.08 165 162C167.52 160.92 176 159.4 179 160C182 160.6 188.32 165.32 190 167C191.68 168.68 192.64 172.08 193 174C193.36 175.92 193.48 180.96 193 183C192.52 185.04 190.2 189.44 189 191C187.8 192.56 185.28 195.16 183 196C180.72 196.84 172.88 198.6 170 198C167.12 197.4 160.68 192.44 159 191C157.32 189.56 156.48 187.56 156 186C155.52 184.44 154.76 180.04 155 178Z" fill="#090909" fill-rule="evenodd"/></svg>
