<svg xmlns="http://www.w3.org/2000/svg" viewBox="0 0 256 256"><path d="M125 176L121 188L115 194L108 197L90 197L65 191L52 185L45 179L41 171L41 158L46 131L65 52L74 32L84 25L101 24L116 26L148 36L153 44L153 61L147 97L166 100L186 110L197 122L205 141L211 172L211 199L214 217L214 228L210 231L188 231L184 228L182 150L179 136L172 129L154 123L140 123ZM116 57L115 52L108 47L96 49L90 58L92 72L100 77L111 75L117 65ZM106 115L107 104L102 96L90 94L85 96L80 102L78 116L83 124L91 127L100 125L104 121ZM91 146L80 143L72 149L70 161L73 167L77 169L86 169L91 166L94 160L94 153Z" fill="#090909" fill-rule="evenodd"/></svg>
