<svg data-contour-smoothing="organic-v2" xmlns="http://www.w3.org/2000/svg" viewBox="0 0 256 256"><!-- Iconic Drills Pack © 2026 Roman Kuzhel, Kyrgyzstan | CC BY 4.0 | https://github.com/roblo3x/iconic-drills-pack --><path d="M69.34481,96.22092c3.43584,-4.2478 5.36259,-9.08673 7.07113,-14.21c1.20746,-3.62071 2.20775,-7.92919 5.22104,-10.52981c6.44527,-5.56257 18.46529,-6.4159 26.47477,-8.41696c2.32216,-0.58016 5.45077,-0.90595 7.47871,-2.25886c1.75251,-1.16916 0.52717,-2.56516 -0.56165,-3.63541c-2.41053,-2.3694 -5.18581,-4.00633 -7.02287,-6.94726c-3.36841,-5.39246 -3.9594,-13.26407 -0.56041,-18.91437c1.74798,-2.90575 5.644,-2.9182 8.62816,-3.29639c5.07762,-0.6435 10.8148,-1.77776 15.87899,-0.61597c3.61516,0.82937 7.46286,3.75958 11.29472,3.04531c5.14646,-0.95931 9.41704,-9.6866 15.40172,-5.85377c1.12343,0.71949 1.57299,1.68254 1.81187,2.95393c1.42392,7.57865 -6.68999,5.7349 -8.73834,10.75908c-1.02477,2.51356 3.35806,5.00253 4.63375,6.72902c2.96575,4.01377 5.86124,9.54312 4.37688,14.71018c-1.43919,5.00981 -6.1313,6.3789 -10.19418,8.51828c-2.93395,1.54492 -5.25712,4.08744 -7.54844,6.42925c-1.33489,1.3643 -4.42873,3.76076 -3.99725,6.0157c0.58176,3.04032 7.19547,4.28563 9.37275,6.02411c3.91038,3.12228 5.20942,9.99552 10.32428,11.49758c4.87951,1.43294 8.87056,-1.16048 13.23287,-2.65442c3.02306,-1.03529 6.72413,-0.75204 9.8277,-0.22892c6.18117,1.04186 11.98926,8.3537 8.61588,14.5384c-2.04237,3.74445 -5.88537,5.04483 -9.80442,5.85638c-7.16534,1.4838 -14.46939,2.50526 -21.72377,3.44246c-3.73908,0.48306 -8.15737,1.47639 -11.75426,-0.12947c-3.90169,-1.74194 -5.38731,-5.54148 -7.68567,-8.79204c-0.92633,-1.31011 -2.40229,-2.99605 -4.26334,-2.21528c-3.75674,1.57608 -3.15516,9.47318 -2.85855,12.60099c0.40343,4.25413 0.88121,9.78849 3.38387,13.40157c3.18239,4.5944 10.10669,6.6419 14.12024,10.74293c8.99049,9.18645 16.60958,18.92311 22.74807,30.23265c2.28411,4.20825 4.08669,8.24473 4.80704,13.01183c0.49767,3.29345 0.19914,8.76347 2.76505,11.28061c4.95557,4.86136 18.77829,-5.60086 19.82091,5.04857c0.11739,1.19905 -0.0929,2.73548 -0.42919,3.88343c-0.38915,1.32838 -0.92295,2.37305 -1.77242,3.46598c-2.86785,3.68977 -7.69112,5.31105 -11.88448,6.94239c-5.10033,1.98418 -13.68233,6.1616 -19.0765,3.53208c-3.32721,-1.62193 -6.2945,-5.49292 -6.96145,-9.10801c-0.4743,-2.57086 0.00158,-5.32 -1.07325,-7.77787c-1.05442,-2.41117 -3.48441,-3.62118 -4.73146,-5.86698c-4.11837,-7.41676 -7.13317,-15.1926 -12.29683,-22.14677c-3.96913,-5.34544 -9.61036,-9.26026 -14.77476,-13.36247c-2.27034,-1.80338 -5.93465,-3.9253 -7.01106,-6.77062c-1.55649,-4.11434 4.21343,-10.49341 5.92402,-14.00771c0.60964,-1.25247 2.33982,-5.42254 0.18174,-6.37104c-1.93237,-0.8493 -4.08688,5.85946 -4.5477,6.93569c-3.14865,7.35362 -6.16484,14.76366 -9.28427,22.12972c-4.50167,10.63001 -9.02765,20.57461 -16.20237,29.70527c-2.47149,3.14526 -5.07504,6.18362 -7.55392,9.32232c-1.06513,1.34864 -2.69379,3.06306 -2.83895,4.89228c-0.25985,3.27454 4.50025,4.37849 6.4785,5.97395c3.11911,2.51556 3.46088,7.15743 1.84915,10.66997c-2.12858,4.63894 -11.55969,5.66805 -15.97161,4.39958c-1.77583,-0.51057 -2.76273,-2.08514 -4.34002,-2.93355c-2.96031,-1.59231 -6.22692,-1.79651 -8.97115,-3.93851c-5.8197,-4.54255 -9.47797,-14.14704 -7.83038,-21.48314c0.99173,-4.41581 5.12269,-7.95345 8.13842,-11.07471c2.27427,-2.35385 4.91892,-4.59611 6.77926,-7.30741c1.09257,-1.59233 1.60359,-3.53543 2.85452,-5.02106c1.26067,-1.4972 3.16742,-2.18172 4.42309,-3.67148c1.63487,-1.93966 1.78927,-4.77682 3.07947,-6.94936c2.3743,-3.99801 5.71867,-7.40417 7.48782,-11.76648c2.49579,-6.15405 1.83168,-13.23717 3.2543,-19.65461c1.7311,-7.80894 5.97641,-14.81241 7.74881,-22.65733c1.76047,-7.79216 3.1613,-15.69722 4.44592,-23.5804c0.2975,-1.82563 1.54666,-5.60821 0.35192,-7.31367c-1.0086,-1.43975 -3.33879,0.43656 -4.16287,0.96901c-3.39779,2.19531 -6.34072,4.80982 -8.57786,8.20227c-4.37678,6.63707 -7.71282,14.07402 -11.44978,21.08171c-1.72098,3.22725 -3.37008,7.7075 -6.23041,10.11024c-2.07849,1.74598 -4.83024,1.3634 -7.32018,1.06441c-7.14564,-0.85805 -3.07013,-22.73656 1.71867,-28.65706zM71.595,115.41653c-0.34923,-3.25234 0.57135,5.32099 0,0zM123.73273,71.92865c1.15245,2.77954 5.36454,4.3049 7.66809,2.01822c2.33773,-2.32061 2.19438,-6.35892 4.90224,-8.41188c4.01289,-3.04236 15.91523,-1.69728 14.34723,-10.17911c-0.20149,-1.08995 -0.92821,-2.77339 -1.40444,-3.75585c-0.55717,-1.14942 -1.26352,-2.44049 -2.10344,-3.41662c-4.24839,-4.93734 -8.92582,-2.79522 -12.50448,1.18263c-1.07087,1.19032 -2.66695,1.188 -3.82699,2.29434c-3.43398,3.27501 -8.10964,17.78061 -7.0782,20.26827zM140.87901,56.84543c-4.06558,3.59418 4.92608,-4.35491 0,0z" fill="#090909" fill-rule="evenodd"/></svg>
