<svg data-contour-smoothing="organic-v2" xmlns="http://www.w3.org/2000/svg" viewBox="0 0 256 256"><!-- Iconic Drills Pack © 2026 Roman Kuzhel, Kyrgyzstan | CC BY 4.0 | https://github.com/roblo3x/iconic-drills-pack --><path d="M60.64054,112.05066c7.42893,-0.84473 19.09911,4.7572 24.56629,-2.13415c1.63176,-2.05682 2.83522,-4.56154 3.87341,-6.95817c1.33621,-3.08459 4.29058,-12.50711 -1.03813,-13.5967c-2.43648,-0.4982 -5.37861,0.59575 -7.76581,0.99996c-5.75108,0.97378 -14.83616,0.46977 -17.26306,-6.01584c-0.68331,-1.82606 -0.87546,-3.93071 -1.00583,-5.85952c-0.13205,-1.95362 -0.15337,-3.99595 0.50981,-5.87169c1.50261,-4.25002 5.58169,-4.90925 9.53805,-5.33377c8.41514,-0.90296 17.49683,-1.94294 25.94117,-1.06056c4.11827,0.43033 7.77097,1.50966 8.62853,6.06839c1.27889,6.79854 -4.51317,7.9483 -8.69324,11.23723c-1.60605,1.26366 -3.90013,4.07912 -2.81984,6.31622c0.83608,1.73139 3.18531,1.97423 4.81562,2.1519c4.6093,0.50233 9.3558,0.36003 13.98701,0.41145c15.30812,0.16996 30.69751,0.16316 45.97785,-0.87188c5.40577,-0.36617 13.00639,-0.05364 16.29171,-5.24039c1.41471,-2.23349 1.91564,-4.97651 2.06077,-7.57344c0.07246,-1.29661 0.03819,-2.69245 -0.07834,-3.98534c-0.19942,-2.2126 -0.44678,-5.62309 -2.41416,-7.10002c-2.03077,-1.52452 -5.20556,-0.33453 -7.32921,0.27581c-6.29064,1.80794 -12.52516,5.16845 -19.15877,5.38824c-2.44901,0.08114 -5.43482,-0.03625 -7.13479,-2.10938c-2.20696,-2.69141 -1.80976,-8.37064 1.21439,-10.33105c3.93218,-2.54905 11.07397,-2.01983 15.60304,-2.43526c5.97002,-0.5476 11.95054,-1.1364 17.93352,-1.52202c2.34602,-0.15121 5.5081,-0.4629 7.48433,1.15962c3.17422,2.60609 0.98309,9.68161 0.51584,13.07624c-1.26294,9.17536 -3.21736,18.51201 -2.75798,27.81013c0.17022,3.44535 0.1658,8.64078 2.79182,11.27587c4.14006,4.15437 13.89775,0.80835 19.22591,2.17332c5.96786,1.52884 13.20795,4.63815 17.66022,8.97406c6.31081,6.14588 10.47237,18.81342 10.3772,27.5128c-0.07196,6.57841 -1.53081,13.34432 -2.89156,19.75941c-0.81447,3.83972 -1.66734,7.92356 -3.97149,11.18728c-5.2756,7.47263 -15.35837,14.72635 -24.29743,16.63998c-5.19412,1.11193 -10.65457,0.87897 -15.93433,0.80497c-6.05361,-0.08485 -12.01774,-0.05841 -17.45085,-3.08274c-5.02969,-2.79976 -10.60507,-6.31537 -14.0833,-10.98326c-6.31105,-8.46963 -8.35455,-22.2237 -7.34792,-32.56436c0.69459,-7.13523 3.91236,-12.27579 7.89408,-17.98176c0.8491,-1.2168 3.37496,-4.89809 0.40152,-5.56685c-2.46048,-0.55339 -4.78575,2.16244 -6.29142,3.64674c-4.52098,4.45681 -13.95539,11.80261 -14.39001,18.57946c-0.36588,5.70496 3.76044,9.57297 -0.29588,14.91293c-7.5909,9.99309 -17.1122,-2.14934 -27.04294,1.71348c-3.63292,1.41312 -2.7774,7.04574 -4.1073,10.0765c-3.06208,6.97829 -8.06418,14.65373 -15.23192,17.76298c-15.38842,6.67524 -40.68318,4.99961 -52.47028,-8.27119c-9.24469,-10.40837 7.30328,-71.34263 25.97369,-73.46561zM34.31131,158.50967c0.99267,1.79615 2.96352,1.58117 4.66493,1.28148c4.17464,-0.73533 13.78224,-2.72537 16.29507,-6.46832c1.57065,-2.33954 -0.59526,-4.76424 -2.33543,-6.14602c-3.04852,-2.42067 -6.86377,-4.26679 -10.33831,-5.99196c-1.48333,-0.7365 -3.46892,-1.8896 -5.1798,-1.03261c-1.74913,0.87616 -5.21158,14.54837 -3.10645,18.35742zM46.56565,180.12138c4.22882,-0.62879 6.72049,-9.82177 8.08844,-13.15238c0.75807,-1.84572 2.76275,-5.25697 1.83129,-7.32646c-0.79904,-1.77529 -3.35148,-1.24067 -4.75136,-0.96436c-4.77595,0.94268 -11.97325,22.45503 -5.16837,21.4432zM50.84844,142.83372c1.34023,0.68869 5.17851,3.17996 6.67704,1.61467c1.69197,-1.76736 -0.82528,-7.17542 -1.42477,-9.03668c-0.90933,-2.82323 -1.98633,-9.0053 -4.80656,-10.58615c-3.57452,-2.00367 -5.39625,15.46428 -0.44572,18.00816zM63.00016,187.47945c2.17073,0.4001 5.58981,1.36742 7.65424,0.10144c2.26824,-1.39096 1.00015,-4.87123 0.48121,-6.80939c-1.26209,-4.71365 -2.81304,-13.31477 -6.43479,-16.79738c-2.20444,-2.11975 -4.35359,0.45081 -5.46057,2.28237c-2.68883,4.44876 -1.45253,20.26224 3.75991,21.22296zM59.55628,135.61235c0.62531,1.73746 1.68438,5.71528 4.25349,5.4678c1.82897,-0.17618 3.04696,-2.50504 3.89364,-3.81878c2.1887,-3.39609 4.39291,-6.97794 6.07448,-10.65654c0.63807,-1.39585 1.75634,-3.63731 0.42485,-5.0555c-1.88641,-2.00925 -7.08256,-1.3203 -9.52801,-1.25239c-2.76041,0.07666 -6.58849,11.23081 -5.11845,15.31541zM72.82678,172.52446c0.89932,3.24954 1.65326,8.47488 4.14324,10.93828c3.62921,3.59047 10.55574,-2.95405 12.74146,-5.64302c1.62148,-1.99482 6.55207,-9.41928 3.3685,-11.70775c-2.71774,-1.95362 -8.31064,-0.12551 -11.43182,-0.30634c-3.28028,-0.19004 -9.50369,4.25344 -8.82139,6.71884zM71.29458,147.1772c0.82387,1.40076 3.68362,1.01674 4.92962,0.99898c4.61488,-0.06577 9.32975,-0.28987 13.90141,-0.94587c2.32035,-0.33295 5.24726,-0.76758 5.61633,-3.61698c0.61498,-4.74789 -3.58066,-10.68916 -6.38838,-14.1281c-1.33329,-1.63304 -3.38266,-4.39683 -5.88662,-3.40884c-1.72105,0.67907 -2.80538,2.76881 -3.72125,4.2231c-2.82363,4.48362 -9.26733,15.48997 -8.45111,16.87771zM97.07303,156.97054c-0.03151,-4.26134 0.0401,5.42291 0,0zM102.42111,130.87087c1.72586,4.28185 1.11071,9.37895 3.08059,13.51408c1.17001,2.45606 3.86683,2.82726 6.22486,1.85071c2.55497,-1.05811 2.76013,-3.65412 1.91834,-5.99564c-0.70692,-1.96638 -2.56855,-3.37756 -3.48912,-5.29536c-3.44943,-7.1861 -6.23145,-14.7308 -9.40975,-22.04114c-0.63817,-1.46785 -2.36725,-7.53492 -4.80798,-6.82773c-2.45508,0.71135 3.67354,17.82471 6.48304,24.79507zM102.7453,102.34785c-0.02918,0.71946 1.47326,2.28168 1.71811,2.60874c1.60799,2.1479 2.60375,4.59325 3.69977,7.02211c3.56405,7.89822 7.1917,15.77383 10.97515,23.56964c1.22352,2.52106 2.5169,6.73592 4.94879,8.37038c2.36254,1.58785 4.28596,-1.45026 5.36439,-3.08528c3.78375,-5.7366 8.01278,-10.32284 12.9718,-15.07776c6.73624,-6.45899 13.57411,-12.81641 20.22869,-19.35997c1.26983,-1.24865 6.16298,-4.65786 6.28574,-6.47685c0.08311,-1.23149 -3.64521,-0.96806 -4.05806,-0.97754c-3.3296,-0.07642 -6.66819,0.0158 -9.99744,0.07473c-16.49323,0.29196 -52.07663,1.845 -52.13692,3.3318zM107.08169,154.18233c-3.94969,4.56212 5.37363,8.22015 7.14613,3.7697c2.07245,-5.20358 -6.72774,-4.25297 -7.14613,-3.7697zM158.37147,165.94306c1.82048,0.96173 3.72369,-0.00656 5.306,-0.90339c3.52001,-1.99509 6.84751,-4.48725 10.14077,-6.83108c1.42878,-1.01687 3.56663,-2.19137 4.43802,-3.79761c1.36306,-2.51254 -2.68132,-3.5408 -4.23919,-4.10265c-4.46515,-1.61037 -20.08782,13.28798 -15.6456,15.63473zM160.96806,124.02092c1.78765,-0.52935 2.8718,-2.59383 4.33023,-3.62515c4.80523,-3.39797 10.35328,-2.86995 9.45258,-10.46616c-0.10532,-0.88825 -0.32094,-2.56359 -1.22279,-3.18506c-1.54848,-1.06707 -3.41639,1.12005 -4.28374,2.00976c-3.6754,3.77009 -11.76071,16.29842 -8.27627,15.26662zM174.09387,147.89923c2.11691,0.46625 5.38321,1.22606 6.19583,-1.59742c1.289,-4.4787 -1.53005,-11.45357 -2.74723,-15.76161c-0.47575,-1.68385 -1.10428,-5.73379 -3.68028,-5.41874c-1.7767,0.2173 -3.38257,2.19438 -4.5361,3.3563c-3.31091,3.33497 -0.55393,18.24936 4.76779,19.42147zM170.95254,182.52276c2.00232,-0.10281 2.89346,-2.00471 3.59588,-3.56576c2.15478,-4.78882 3.64011,-10.0035 5.17123,-15.01801c0.4093,-1.34049 1.54057,-3.74801 1.01269,-5.20119c-0.6847,-1.88486 -4.72125,1.43318 -5.39199,1.87846c-4.81736,3.19811 -9.92022,22.19056 -4.3878,21.9065zM179.2635,183.70465c1.68114,2.7773 11.89012,4.0864 14.05622,1.5197c1.20701,-1.43024 0.68458,-3.75949 0.42109,-5.3829c-0.74376,-4.58253 -1.97761,-9.14556 -3.28483,-13.59567c-0.46062,-1.56806 -0.90252,-4.01581 -2.32761,-5.07762c-2.32073,-1.72914 -3.84325,2.31617 -4.40991,3.75844c-1.92902,4.9098 -5.45656,17.12338 -4.45497,18.77804zM189.89203,134.73937c0.33723,1.20213 0.85321,3.92828 2.69888,3.80178c1.06254,-0.07282 2.22945,-1.33407 2.85217,-1.97065c2.34563,-2.39786 4.50388,-5.12445 6.5448,-7.78365c0.98318,-1.28103 2.64241,-3.12349 2.08974,-4.94575c-1.34854,-4.44641 -15.29043,6.95978 -14.18559,10.89826zM193.71395,165.74227c0.83003,4.3035 1.56849,19.32325 8.73328,15.91912c3.29746,-1.56668 10.74412,-7.38169 8.2209,-11.65481c-1.27626,-2.16137 -4.12473,-3.64118 -6.13917,-4.99944c-2.51951,-1.6988 -11.2396,-1.46624 -10.81502,0.73512zM194.79179,145.60054c1.62254,1.18035 5.5052,-0.06027 7.26447,-0.32501c5.3737,-0.80864 18.05151,-0.18897 16.17295,-8.37763c-0.44417,-1.93613 -1.51992,-3.6832 -2.58389,-5.32863c-1.25246,-1.93695 -2.91144,-4.79103 -5.41208,-5.27064c-2.67865,-0.51375 -4.57523,2.09301 -6.0115,3.88308c-3.31171,4.12749 -10.79309,14.42718 -9.42995,15.41882zM208.24626,164.393c1.64518,1.0536 4.31766,3.37396 5.94265,1.04784c2.34201,-3.35252 3.49259,-9.43515 4.09482,-13.42287c0.24541,-1.62497 0.56643,-3.88282 -1.12362,-4.93905c-1.56541,-0.97834 -3.97996,-0.44244 -5.64662,-0.19387c-4.96835,0.74098 -6.73078,15.28985 -3.26724,17.50795z" fill="#090909" fill-rule="evenodd"/></svg>
