<svg xmlns="http://www.w3.org/2000/svg" viewBox="0 0 256 256"><!-- Iconic Drills Pack © 2026 Roman Kuzhel, Kyrgyzstan | CC BY 4.0 | https://github.com/roblo3x/iconic-drills-pack --><path d="M55 112C55 110.56 55.44 108.68 57 107C58.56 105.32 65.96 100.16 68 98C70.04 95.84 72.56 92 74 89C75.44 86 78.2 75.52 80 73C81.8 70.48 84.68 69.44 89 68C93.32 66.56 112.76 62.2 116 61C119.24 59.8 116.84 59.08 116 58C115.16 56.92 110.32 53.8 109 52C107.68 50.2 105.24 45.4 105 43C104.76 40.6 106.4 33.68 107 32C107.6 30.32 107.24 29.6 110 29C112.76 28.4 126.04 26.76 130 27C133.96 27.24 140.24 31.36 143 31C145.76 30.64 150.96 24.72 153 24C155.04 23.28 159.16 23.92 160 25C160.84 26.08 160.96 31.56 160 33C159.04 34.44 153.08 36.04 152 37C150.92 37.96 150.76 40.4 151 41C151.24 41.6 152.92 40.8 154 42C155.08 43.2 159.16 48.84 160 51C160.84 53.16 161.48 58.2 161 60C160.52 61.8 157.44 64.92 156 66C154.56 67.08 151.04 67.44 149 69C146.96 70.56 140.2 77.44 139 79C137.8 80.56 137.8 81.04 139 82C140.2 82.96 146.84 85.08 149 87C151.16 88.92 154.84 96.68 157 98C159.16 99.32 165.08 98.36 167 98C168.92 97.64 170.84 95.24 173 95C175.16 94.76 182.84 95.04 185 96C187.16 96.96 190.28 101.44 191 103C191.72 104.56 191.84 107.56 191 109C190.16 110.44 188.8 113.68 184 115C179.2 116.32 155.92 119.88 151 120C146.08 120.12 144.56 117.44 143 116C141.44 114.56 139.08 108.96 138 108C136.92 107.04 134.72 107.04 134 108C133.28 108.96 132.12 113.84 132 116C131.88 118.16 132.52 123.72 133 126C133.48 128.28 134.32 133.08 136 135C137.68 136.92 143.64 138.88 147 142C150.36 145.12 160.52 156.2 164 161C167.48 165.8 174.08 177.32 176 182C177.92 186.68 177.6 197.96 180 200C182.4 202.04 193.6 198.64 196 199C198.4 199.36 199.64 201.68 200 203C200.36 204.32 199.72 208.56 199 210C198.28 211.44 196.04 213.8 194 215C191.96 216.2 184.76 219.04 182 220C179.24 220.96 172.92 222.76 171 223C169.08 223.24 167.32 222.96 166 222C164.68 221.04 160.84 217.04 160 215C159.16 212.96 159.84 206.92 159 205C158.16 203.08 153.72 200.08 153 199C152.28 197.92 154.56 198.88 153 196C151.44 193.12 143.96 179.56 140 175C136.04 170.44 122.28 160.76 120 158C117.72 155.24 120.16 154.04 121 152C121.84 149.96 126.28 142.68 127 141C127.72 139.32 127.36 138.36 127 138C126.64 137.64 126.76 132.48 124 138C121.24 143.52 108.56 175.6 104 184C99.44 192.4 88.16 204.64 86 208C83.84 211.36 85.16 211.04 86 212C86.84 212.96 91.92 215.04 93 216C94.08 216.96 94.88 218.68 95 220C95.12 221.32 94.6 225.8 94 227C93.4 228.2 92.04 229.52 90 230C87.96 230.48 78.8 231.24 77 231C75.2 230.76 76.32 228.72 75 228C73.68 227.28 67.92 226.32 66 225C64.08 223.68 60.08 219.88 59 217C57.92 214.12 55.44 204.96 57 201C58.56 197.04 69.96 186.64 72 184C74.04 181.36 73.04 180.08 74 179C74.96 177.92 79.16 176.08 80 175C80.84 173.92 79.8 172.28 81 170C82.2 167.72 88.56 160.08 90 156C91.44 151.92 91.8 140.68 93 136C94.2 131.32 98.44 123.24 100 117C101.56 110.76 105.76 87.96 106 84C106.24 80.04 103.56 83.04 102 84C100.44 84.96 96.12 87.32 93 92C89.88 96.68 78.76 119.04 76 123C73.24 126.96 71.56 124.88 70 125C68.44 125.12 64.56 124.72 63 124C61.44 123.28 57.96 120.44 57 119C56.04 117.56 55 113.44 55 112ZM63 113C62.16 113.36 63.04 116.52 64 117C64.96 117.48 70.16 117.36 71 117C71.84 116.64 71.96 114.48 71 114C70.04 113.52 63.84 112.64 63 113ZM124 66C123.16 68.64 123.16 71.92 124 73C124.84 74.08 129.56 75.96 131 75C132.44 74.04 134.56 66.32 136 65C137.44 63.68 141.2 64.84 143 64C144.8 63.16 150.52 59.92 151 58C151.48 56.08 148.2 49.56 147 48C145.8 46.44 142.44 45 141 45C139.56 45 135.72 47.28 135 48C134.28 48.72 135.48 50.64 135 51C134.52 51.36 132.32 49.2 131 51C129.68 52.8 124.84 63.36 124 66ZM135 51C135.48 50.16 139.16 49.88 140 50C140.84 50.12 141.88 51.16 142 52C142.12 52.84 141.72 56.4 141 57C140.28 57.6 136.72 57.72 136 57C135.28 56.28 134.52 51.84 135 51Z" fill="#090909" fill-rule="evenodd"/></svg>
