<svg xmlns="http://www.w3.org/2000/svg" viewBox="0 0 256 256"><!-- Iconic Drills Pack © 2026 Roman Kuzhel, Kyrgyzstan | CC BY 4.0 | https://github.com/roblo3x/iconic-drills-pack --><path d="M32 206C32.84 202.76 38.68 193.16 40 191C41.32 188.84 42.16 188.24 43 188C43.84 187.76 46.52 186.12 47 189C47.48 191.88 47.48 208.4 47 212C46.52 215.6 44.32 218.04 43 219C41.68 219.96 37.2 220.12 36 220C34.8 219.88 33.48 219.68 33 218C32.52 216.32 31.16 209.24 32 206ZM40 116C40.96 113.96 45.12 108.44 48 107C50.88 105.56 61.6 105.2 64 104C66.4 102.8 66.2 99.16 68 97C69.8 94.84 75.4 88.4 79 86C82.6 83.6 94.52 78.2 98 77C101.48 75.8 106.56 77.44 108 76C109.44 74.56 108.44 68.96 110 65C111.56 61.04 119.08 45.88 121 43C122.92 40.12 124.44 42.32 126 41C127.56 39.68 130.64 33.92 134 32C137.36 30.08 150.04 25.96 154 25C157.96 24.04 163.64 23.88 167 24C170.36 24.12 178.52 25.04 182 26C185.48 26.96 192.4 29.48 196 32C199.6 34.52 209.12 42.56 212 47C214.88 51.44 218.68 55.56 220 69C221.32 82.44 222.88 140.16 223 159C223.12 177.84 221.96 217.24 221 226C220.04 234.76 217.4 231.28 215 232C212.6 232.72 203.04 232.12 201 232C198.96 231.88 199.08 232.08 198 231C196.92 229.92 192.24 241.84 192 223C191.76 204.16 195.88 93.68 196 74C196.12 54.32 194.68 62.36 193 59C191.32 55.64 184.52 47.92 182 46C179.48 44.08 174.52 43.36 172 43C169.48 42.64 164.36 42.4 161 43C157.64 43.6 147.12 46.2 144 48C140.88 49.8 137.16 54.28 135 58C132.84 61.72 127.08 76.12 126 79C124.92 81.88 124.92 80.8 126 82C127.08 83.2 133.32 87.2 135 89C136.68 90.8 138.92 94.6 140 97C141.08 99.4 143.52 105.88 144 109C144.48 112.12 143.4 121.2 144 123C144.6 124.8 147.92 123.4 149 124C150.08 124.6 152.52 125.6 153 128C153.48 130.4 153.48 141.72 153 144C152.52 146.28 151.16 146.52 149 147C146.84 147.48 142.32 148.6 135 148C127.68 147.4 99.04 144.52 88 142C76.96 139.48 48.76 129.16 43 127C37.24 124.84 40.36 125.32 40 124C39.64 122.68 39.04 118.04 40 116ZM42 153C42.36 151.2 45.56 153.2 47 152C48.44 150.8 52.44 143.84 54 143C55.56 142.16 59.4 143.08 60 145C60.6 146.92 59.96 156.12 59 159C58.04 161.88 53.8 168.04 52 169C50.2 169.96 45.2 168.92 44 167C42.8 165.08 41.64 154.8 42 153ZM60 188C60.24 185.72 63.28 177.8 64 176C64.72 174.2 65.28 173.36 66 173C66.72 172.64 69.28 172.16 70 173C70.72 173.84 71.76 177.84 72 180C72.24 182.16 72.24 189.2 72 191C71.76 192.8 71.2 194.52 70 195C68.8 195.48 63.2 195.84 62 195C60.8 194.16 59.76 190.28 60 188ZM70 125C69.64 125.36 69.64 127.64 70 128C70.36 128.36 72.64 128.36 73 128C73.36 127.64 73.36 125.36 73 125C72.64 124.64 70.36 124.64 70 125ZM71 216C71.48 213.24 74.68 206.56 76 205C77.32 203.44 80.92 200.96 82 203C83.08 205.04 85.12 218.76 85 222C84.88 225.24 81.96 228.92 81 230C80.04 231.08 78.08 231.24 77 231C75.92 230.76 72.72 229.8 72 228C71.28 226.2 70.52 218.76 71 216ZM81 163C81.6 160.24 84.92 151.8 86 150C87.08 148.2 89.16 147.28 90 148C90.84 148.72 92.76 153 93 156C93.24 159 92.72 170.48 92 173C91.28 175.52 88.08 176.64 87 177C85.92 177.36 83.72 176.48 83 176C82.28 175.52 81.24 174.56 81 173C80.76 171.44 80.4 165.76 81 163ZM84 129C83.04 129.24 83.04 131.52 84 132C84.96 132.48 91.04 133.24 92 133C92.96 132.76 92.96 130.48 92 130C91.04 129.52 84.96 128.76 84 129ZM94 195C94.36 192.84 96.8 185.68 98 184C99.2 182.32 102.92 180.28 104 181C105.08 181.72 106.76 187.36 107 190C107.24 192.64 106.48 201.08 106 203C105.52 204.92 103.96 205.64 103 206C102.04 206.36 98.96 206.48 98 206C97.04 205.52 95.48 203.32 95 202C94.52 200.68 93.64 197.16 94 195ZM97 132C96.52 132.36 96.52 134.64 97 135C97.48 135.36 100.52 135.36 101 135C101.48 134.64 101.48 132.36 101 132C100.52 131.64 97.48 131.64 97 132ZM99 111C96.96 111 96.72 113.16 99 114C101.28 114.84 115.96 118 118 118C120.04 118 118.28 114.84 116 114C113.72 113.16 101.04 111 99 111ZM116 170C116.48 167.96 119.16 161.44 120 160C120.84 158.56 122.28 158.12 123 158C123.72 157.88 125.28 157.44 126 159C126.72 160.56 128.88 168.48 129 171C129.12 173.52 128.2 178.68 127 180C125.8 181.32 120.32 182.36 119 182C117.68 181.64 116.36 178.44 116 177C115.64 175.56 115.52 172.04 116 170ZM120 210C120.12 207.24 123.68 197.92 125 196C126.32 194.08 130.04 193.04 131 194C131.96 194.96 133 201.36 133 204C133 206.64 131.6 214.2 131 216C130.4 217.8 128.84 218.64 128 219C127.16 219.36 124.96 220.08 124 219C123.04 217.92 119.88 212.76 120 210Z" fill="#090909" fill-rule="evenodd"/></svg>
