<svg data-contour-smoothing="organic-v2" xmlns="http://www.w3.org/2000/svg" viewBox="0 0 256 256"><!-- Iconic Drills Pack © 2026 Roman Kuzhel, Kyrgyzstan | CC BY 4.0 | https://github.com/roblo3x/iconic-drills-pack --><path d="M84.36719,32.32132c4.02383,-2.32228 8.09328,-4.71335 12.66374,-5.77587c8.23554,-1.91456 17.50669,-1.17627 25.9116,-1.1627c12.75793,0.0206 23.55478,-0.26102 33.85147,8.24664c10.64233,8.79325 13.36567,22.62052 19.96971,34.15409c4.39558,7.67664 12.22092,12.1278 17.6927,18.86103c3.54613,4.36365 7.34115,10.43613 5.17652,16.22846c-1.3071,3.49768 -4.32613,4.29157 -7.69875,4.75997c-5.27873,0.73312 -10.6113,1.05098 -15.90374,1.66889c-4.49008,0.52423 -9.64758,1.79967 -9.10783,7.53114c0.3706,3.93536 3.95881,4.1628 7.11729,4.0835c6.04908,-0.15186 12.09582,-0.19119 16.54744,4.69837c2.77828,3.0516 3.26017,9.30549 2.13871,13.1539c-0.64441,2.21136 -3.21285,4.28344 -2.64926,6.77046c0.68722,3.03254 5.39453,3.52055 7.40317,5.39956c3.16206,2.958 4.58437,8.59352 4.52728,12.77353c-0.11764,8.61335 -5.78862,17.72389 -15.85848,14.88482c-1.91968,-0.54123 -3.0819,-2.14981 -4.85203,-2.93977c-3.30729,-1.47596 -8.5196,-0.01155 -8.309,4.30463c0.25473,5.22052 8.21894,6.32319 9.62598,11.41998c0.994,3.60058 0.62949,8.34161 -2.3418,10.94219c-1.86679,1.63389 -4.83467,1.85772 -5.9255,4.341c-1.53209,3.48784 0.21296,8.05616 -0.3049,11.74275c-0.5554,3.95384 -3.73922,7.0414 -6.93186,9.15486c-7.61409,5.04035 -16.97067,0.43252 -25.33462,1.76954c-3.23539,0.51719 -6.30005,2.30886 -9.59981,2.37818c-2.64964,0.05566 -5.07698,-1.25743 -7.69552,-1.49605c-3.27741,-0.29866 -6.68733,0.29906 -9.94142,0.6424c-4.6946,0.49533 -11.22966,2.34012 -15.70018,0.26804c-12.78986,-5.92809 -11.31652,-24.5938 -8.12197,-35.81802c1.28271,-4.50686 2.82597,-8.88057 5.49665,-12.76662c2.93212,-4.26645 7.02411,-8.32738 8.55041,-13.38704c1.49894,-4.96898 0.70744,-10.78677 0.46593,-15.88858c-0.10665,-2.25295 -0.79712,-5.53751 0.2688,-7.65151c1.1044,-2.19033 4.55734,-2.06307 6.59094,-1.90712c4.88435,0.37458 10.18924,4.59517 12.63738,8.71924c2.58202,4.34961 2.07182,8.71487 1.52764,13.48801c-0.25425,2.23012 -0.65373,5.43892 1.97165,6.50927c3.87739,1.58079 9.33722,-2.98679 12.38431,-4.87099c10.12044,-6.25811 19.82663,-13.91644 31.3502,-17.25932c2.52404,-0.7322 6.47491,-3.05233 3.9781,-6.26763c-2.14095,-2.75704 -8.29773,-1.02583 -11.01753,-0.28469c-7.61525,2.07513 -14.28776,7.43347 -20.90046,11.55649c-2.23145,1.39131 -5.75711,4.49872 -8.55018,4.34663c-1.94379,-0.10585 -2.38891,-2.32958 -2.80796,-3.78193c-0.90785,-3.14643 -1.27311,-6.60374 -2.75584,-9.55672c-3.0805,-6.13511 -13.40536,-11.26218 -20.05166,-11.51503c-3.19953,-0.12172 -6.77346,0.23039 -9.04209,2.75347c-6.96489,7.74608 -1.81642,18.06806 -3.96608,26.94833c-0.80744,3.33553 -3.60362,5.3677 -5.44521,8.09247c-3.78379,5.5984 -7.5145,13.40476 -8.63228,20.09053c-0.90971,5.44129 2.32835,20.36165 -7.03762,18.2232c-6.11095,-1.39526 -7.72663,-9.2016 -7.98129,-14.4983c-0.35338,-7.34988 0.70708,-14.73493 4.77857,-21.03608c4.54848,-7.03936 10.48696,-11.71757 10.14685,-20.91619c-0.17886,-4.83744 -3.13802,-8.58454 -5.91964,-12.3011c-4.78112,-6.38812 -10.18955,-12.38637 -13.85408,-19.52624c-8.15634,-15.89156 7.63383,-82.31536 21.46552,-90.29806zM113.968,71.9061c1.72097,16.25921 28.55606,16.10279 30.86284,0.11242c1.56979,-10.88166 -9.83294,-18.1222 -19.53149,-16.05786c-5.29458,1.12695 -11.6246,13.17493 -11.33135,15.94544zM134.4265,71.02731c-0.39179,4.90606 -6.62962,7.22175 -9.98204,3.41195c-1.41758,-1.61098 10.63118,-11.54067 9.98204,-3.41195z" fill="#090909" fill-rule="evenodd"/></svg>
