<svg xmlns="http://www.w3.org/2000/svg" viewBox="0 0 256 256"><!-- Iconic Drills Pack © 2026 Roman Kuzhel, Kyrgyzstan | CC BY 4.0 | https://github.com/roblo3x/iconic-drills-pack --><path d="M54 70C54.36 65.32 55.84 61.48 58 58C60.16 54.52 68.76 44.12 72 41C75.24 37.88 81.64 33.8 85 32C88.36 30.2 93.16 26.72 100 26C106.84 25.28 135.28 25.16 142 26C148.72 26.84 153.24 30.96 156 33C158.76 35.04 162.36 38.56 165 43C167.64 47.44 174.52 64.84 178 70C181.48 75.16 191.36 82.88 194 86C196.64 89.12 199.28 94.08 200 96C200.72 97.92 200.48 100.68 200 102C199.52 103.32 199.48 106.04 196 107C192.52 107.96 174.48 109.16 171 110C167.52 110.84 167.48 112.92 167 114C166.52 115.08 166.64 118.16 167 119C167.36 119.84 168.08 120.76 170 121C171.92 121.24 180.36 120.28 183 121C185.64 121.72 190.8 124.84 192 127C193.2 129.16 193.24 137.08 193 139C192.76 140.92 190.36 142.04 190 143C189.64 143.96 189.04 146.04 190 147C190.96 147.96 196.56 149.32 198 151C199.44 152.68 201.64 158.6 202 161C202.36 163.4 201.6 169.08 201 171C200.4 172.92 198.8 176.04 197 177C195.2 177.96 187.92 179.24 186 179C184.08 178.76 182.44 175.36 181 175C179.56 174.64 174.96 175.16 174 176C173.04 176.84 172.04 180.44 173 182C173.96 183.56 180.8 187.08 182 189C183.2 190.92 183.24 196.32 183 198C182.76 199.68 181.08 202.04 180 203C178.92 203.96 174.72 203.96 174 206C173.28 208.04 174.72 217.48 174 220C173.28 222.52 169.56 225.8 168 227C166.44 228.2 164 229.76 161 230C158 230.24 146.48 228.76 143 229C139.52 229.24 134.28 231.88 132 232C129.72 232.12 127.6 230 124 230C120.4 230 105.24 232 102 232C98.76 232 98.44 231.2 97 230C95.56 228.8 90.96 225.24 90 222C89.04 218.76 88.52 207.32 89 203C89.48 198.68 92.08 190.08 94 186C95.92 181.92 103.68 173.8 105 169C106.32 164.2 104.76 149 105 146C105.24 143 105.8 144.24 107 144C108.2 143.76 112.96 143.16 115 144C117.04 144.84 122.56 149.2 124 151C125.44 152.8 126.76 156.6 127 159C127.24 161.4 125.28 169.44 126 171C126.72 172.56 128.44 174.16 133 172C137.56 169.84 158.84 155.76 164 153C169.16 150.24 174.56 150.2 176 149C177.44 147.8 176.96 143.72 176 143C175.04 142.28 170.04 142.64 168 143C165.96 143.36 162.84 143.96 159 146C155.16 148.04 139.12 158.68 136 160C132.88 161.32 133.72 158.68 133 157C132.28 155.32 130.96 147.92 130 146C129.04 144.08 127.04 142.32 125 141C122.96 139.68 115.76 135.6 113 135C110.24 134.4 103.92 134.68 102 136C100.08 137.32 97.6 142.52 97 146C96.4 149.48 97.72 161.76 97 165C96.28 168.24 92.68 169.88 91 173C89.32 176.12 84.08 186.68 83 191C81.92 195.32 82.36 206.6 82 209C81.64 211.4 80.84 210.76 80 211C79.16 211.24 76.08 211.36 75 211C73.92 210.64 71.84 209.32 71 208C70.16 206.68 68.36 202.52 68 200C67.64 197.48 67.52 189.88 68 187C68.48 184.12 70.44 178.76 72 176C73.56 173.24 79.8 167.12 81 164C82.2 160.88 83.8 154.32 82 150C80.2 145.68 68.64 132.08 66 128C63.36 123.92 61.32 119.72 60 116C58.68 112.28 55.72 102.52 55 97C54.28 91.48 53.64 74.68 54 70ZM114 66C113.52 68.16 114.28 75.08 115 77C115.72 78.92 118.56 81.16 120 82C121.44 82.84 124.84 84 127 84C129.16 84 135.84 83.44 138 82C140.16 80.56 144.64 74.64 145 72C145.36 69.36 142.56 61.92 141 60C139.44 58.08 133.92 56.48 132 56C130.08 55.52 126.56 55.64 125 56C123.44 56.36 120.32 57.8 119 59C117.68 60.2 114.48 63.84 114 66ZM123 69C123.12 68.04 124.04 66.48 125 66C125.96 65.52 129.92 64.76 131 65C132.08 65.24 133.64 67.04 134 68C134.36 68.96 134.36 72.04 134 73C133.64 73.96 131.84 75.64 131 76C130.16 76.36 127.84 76.24 127 76C126.16 75.76 124.48 74.84 124 74C123.52 73.16 122.88 69.96 123 69Z" fill="#090909" fill-rule="evenodd"/></svg>
