<svg data-contour-smoothing="organic-v2" xmlns="http://www.w3.org/2000/svg" viewBox="0 0 256 256"><!-- Iconic Drills Pack © 2026 Roman Kuzhel, Kyrgyzstan | CC BY 4.0 | https://github.com/roblo3x/iconic-drills-pack --><path d="M43.37349,147.85496c3.16201,0.2168 6.765,0.8388 8.38126,3.94773c3.28424,6.31734 -4.97047,4.37764 -8.09535,4.43284c-1.27705,0.02256 -3.65847,0.50141 -2.89402,2.46094c1.49811,3.84013 11.39128,3.50624 14.49471,2.7722c9.6679,-2.28672 14.38753,-11.28264 21.99877,-16.66195c2.80222,-1.98049 5.80173,-1.90114 7.16896,-5.4993c3.27754,-8.62555 1.92745,-21.36079 8.3281,-28.50784c3.45367,-3.85641 9.09703,-6.01563 14.01287,-7.15711c1.89862,-0.44086 5.77166,-0.51453 6.99385,-2.34704c1.03862,-1.55728 -0.82474,-3.38249 -1.72395,-4.37517c-2.22909,-2.4608 -4.8514,-4.59299 -6.7956,-7.30853c-4.22512,-5.90139 -4.92969,-16.15851 -4.41583,-23.19394c0.4419,-6.05022 3.70008,-13.53621 7.46867,-18.28855c2.14834,-2.70914 7.68554,-3.99573 8.65183,-7.3983c1.042,-3.66916 -3.98897,-6.80837 -5.18784,-9.89309c-0.81956,-2.10876 -0.92969,-5.08666 2.04491,-5.31085c4.84979,-0.36553 6.36646,6.47581 8.70209,9.44411c0.84053,1.06821 2.63226,3.10364 4.29841,2.54127c1.07607,-0.3632 1.17509,-1.77964 1.24605,-2.62178c0.2283,-2.7095 -1.51042,-11.79289 4.29275,-9.61914c4.13461,1.54874 3.44295,6.83828 3.57873,10.24057c0.06562,1.64448 0.30735,3.68148 2.3906,3.8887c4.36047,0.43373 9.49209,-6.54162 12.435,-9.0947c1.72363,-1.49532 4.04608,-3.74315 6.57849,-2.709c2.79065,1.13961 2.17041,3.89326 0.73226,5.79755c-2.20872,2.92463 -8.37946,6.50818 -8.16024,10.62375c0.10695,2.00792 1.92647,3.10706 3.21579,4.3312c1.91591,1.81905 3.50895,4.00641 4.63265,6.40235c3.20645,6.83673 3.89679,20.39446 1.55583,27.57222c-1.96303,6.01898 -6.66929,9.66544 -10.75446,14.13852c-0.85813,0.93961 -2.61715,2.77451 -1.10155,4.06289c2.42559,2.06194 8.38962,1.35681 11.3981,1.76468c5.0194,0.68051 8.38593,3.02512 11.368,7.07145c5.23152,7.09858 8.47222,15.01599 10.93967,23.40612c2.28467,7.76857 4.73135,17.68666 11.86738,22.48733c1.96233,1.32013 4.66724,3.05023 7.15547,2.84141c3.84624,-0.32279 5.92102,-5.18143 9.10165,-6.932c7.42587,-4.0871 19.39469,-1.11029 18.73007,9.14572c-0.24598,3.79577 -3.26343,7.52602 -6.49535,9.30785c-1.48553,0.81901 -3.77055,1.26342 -4.57471,2.98386c-0.80148,1.71471 0.37234,3.75103 1.09866,5.23066c1.74071,3.54611 4.1116,6.93804 5.00372,10.83876c2.3494,10.27259 -7.19041,18.40425 -14.51631,24.10794c-2.83673,2.20858 -5.7468,2.69614 -9.07257,3.73033c-3.16559,0.98438 -5.04561,3.77799 -8.30694,4.57551c-9.65396,2.36078 -20.03152,1.21319 -29.78077,3.34673c-7.81535,1.71032 -15.26262,4.85823 -23.16142,6.23901c-8.46638,1.47999 -17.37321,1.24256 -25.94266,1.37564c-5.50764,0.08553 -12.58577,1.22392 -17.91467,-0.35135c-4.96703,-1.4683 -1.72231,-8.84356 -6.36283,-9.48678c-3.97129,-0.55045 -7.64901,1.16602 -11.74192,0.14054c-5.65015,-1.41565 -11.62615,-3.8868 -16.18256,-7.5703c-3.12074,-2.52287 -5.00884,-6.16909 -8.36398,-8.44142c-4.44873,-3.01298 -9.75325,-4.34903 -12.65124,-9.2369c-2.32814,-3.92674 -4.00305,-8.65968 -3.09427,-13.25299c0.53517,-2.70496 4.58889,-8.07229 3.06342,-10.72051c-1.11744,-1.93988 -4.757,-1.94979 -6.48073,-3.27209c-4.0741,-3.12531 4.15069,-22.4586 10.84302,-21.99976zM66.23007,174.26938c1.2915,1.73326 4.97944,2.1918 6.89753,2.74725c4.47042,1.29457 8.96353,2.5242 13.47677,3.66091c1.66204,0.41861 3.84271,1.26785 5.59148,1.01361c1.83438,-0.26669 1.21338,-3.25103 2.70326,-4.36005c2.63661,-1.96261 6.14792,-2.26524 8.20671,-5.11291c3.39267,-4.69266 1.73033,-14.05482 1.50668,-19.49832c-0.09405,-2.28897 0.25009,-5.55114 -0.81153,-7.65885c-0.97913,-1.94395 -2.41909,-0.04809 -2.98098,0.98149c-2.65622,4.86714 -3.12715,9.74537 -7.0421,14.05434c-7.06095,7.77161 -28.71839,12.60156 -27.54781,14.17254zM93.33587,218.18581c5.84257,0.41527 12.23836,-1.14985 17.95658,0.33606c9.07583,2.3584 18.34354,1.51578 27.71167,1.25792c5.90868,-0.16264 12.22037,0.1647 18.04074,-0.96791c5.66502,-1.10238 11.52866,-5.60627 11.32019,-11.89346c-0.14497,-4.37197 -3.7966,-6.73357 -7.81716,-6.98819c-6.65574,-0.42152 -13.39475,0.98466 -20.05628,1.01018c-5.54688,0.02125 -7.74116,-3.3823 -12.48745,-5.19007c-1.1446,-0.43595 -3.91563,-1.27002 -4.84387,0.17402c-0.61112,0.9507 0.36042,2.08717 0.88824,2.65528c2.11865,2.28039 5.61886,4.07013 8.58003,4.90356c8.17228,2.30009 17.65223,0.11945 26.03378,0.43676c3.20676,0.1214 6.47866,1.35581 5.25683,5.28919c-1.64527,5.29655 -12.68663,7.2574 -17.39448,7.90577c-18.63834,2.56688 -56.79625,0.81451 -53.18884,1.07091zM111.42078,76.93672c0.30965,2.58722 0.67377,5.30978 2.09553,7.56096c2.51294,3.97892 7.25073,5.81317 10.07942,9.48979c1.46064,1.89849 2.53775,9.19747 6.07507,8.03263c2.3277,-0.76651 3.92584,-5.55536 5.56429,-7.35535c6.81422,-7.48611 14.94096,-13.85808 12.92116,-25.27597c-1.04041,-5.88139 -6.41032,2.33762 -8.88617,2.58837c-3.1423,0.31824 -10.24537,-5.02525 -6.63673,-8.40149c1.8612,-1.74133 4.15862,0.99085 6.01464,1.17948c1.66151,0.16886 3.06689,-0.96338 4.68197,-1.15492c1.39078,-0.16494 3.26653,0.40552 3.35886,-1.66878c0.17612,-3.95655 -3.6918,-7.14199 -6.67457,-8.99374c-8.94455,-5.55294 -20.42383,-0.95237 -26.10758,7.07262c-1.73228,2.44583 -0.62633,3.93732 2.09781,4.47926c2.73339,0.54379 9.68559,-3.37527 10.06785,0.87983c0.41761,4.64847 -5.32641,8.06985 -9.36386,6.30812c-2.00264,-0.87385 -5.57912,2.82421 -5.28768,5.2592zM130.26794,79.60389c1.75971,-0.10359 3.52189,-1.32198 5.27863,-1.1056c1.03516,0.1275 1.93138,0.73033 1.92803,1.89024c-0.00508,1.7558 -1.99823,3.68267 -3.15218,4.75541c-4.73145,4.39848 -7.52461,-5.33578 -4.05448,-5.54005zM157.83205,167.61891c3.71868,6.78887 11.47771,9.2675 18.63185,8.22004c2.17495,-0.31844 5.64735,-0.45755 7.34271,-2.07405c1.45209,-1.38455 0.45675,-2.9788 -0.98825,-3.75432c-4.97292,-2.66892 -9.81059,-2.20649 -13.37388,-7.48254c-3.62485,-5.3672 -5.30257,-12.37058 -7.71262,-18.33802c-0.42049,-1.04117 -1.86795,-5.86238 -3.8564,-4.96412c-1.44488,0.65271 -1.41417,3.60437 -1.53041,4.81167c-0.38174,3.96495 -0.6772,19.63036 1.48699,23.58134zM209.04171,158.24431c-4.77531,5.7696 9.4356,7.53015 9.17009,0.1967c-0.17112,-4.72634 -8.77502,-0.67402 -9.17009,-0.1967z" fill="#090909" fill-rule="evenodd"/></svg>
