<svg xmlns="http://www.w3.org/2000/svg" viewBox="0 0 256 256"><!-- Iconic Drills Pack © 2026 Roman Kuzhel, Kyrgyzstan | CC BY 4.0 | https://github.com/roblo3x/iconic-drills-pack --><path d="M69 83L73 88L76 88L76 85L52 54L53 46L61 39L71 39L85 59L92 73L96 74L94 67L90 63L80 43L78 33L82 27L88 24L99 25L110 47L116 68L125 70L130 75L132 85L130 91L124 97L94 112L87 118L87 121L97 126L131 127L147 130L161 136L171 143L198 171L212 181L218 188L222 198L222 207L216 223L209 229L200 232L186 229L171 214L149 164L139 154L118 146L82 141L69 135L63 129L59 121L61 106L50 98L33 79L33 71L36 66L42 61L47 60L58 69ZM194 216L199 216L201 213L198 206L192 206L190 208L190 213Z" fill="#090909" fill-rule="evenodd"/></svg>
