<svg xmlns="http://www.w3.org/2000/svg" viewBox="0 0 256 256"><!-- Iconic Drills Pack © 2026 Roman Kuzhel, Kyrgyzstan | CC BY 4.0 | https://github.com/roblo3x/iconic-drills-pack --><path d="M33 71C33.72 69.08 37.32 64.32 39 63C40.68 61.68 44.72 59.28 47 60C49.28 60.72 54.88 65.64 58 69C61.12 72.36 70.84 85.72 73 88C75.16 90.28 75.88 88.72 76 88C76.12 87.28 76.52 85.48 74 82C71.48 78.52 57.64 62.36 55 59C52.36 55.64 52.36 55.32 52 54C51.64 52.68 50.92 49.8 52 48C53.08 46.2 58.72 40.08 61 39C63.28 37.92 68.12 36.6 71 39C73.88 41.4 82.48 54.92 85 59C87.52 63.08 90.68 71.2 92 73C93.32 74.8 95.76 74.72 96 74C96.24 73.28 94.72 68.32 94 67C93.28 65.68 91.68 65.88 90 63C88.32 60.12 81.44 46.6 80 43C78.56 39.4 77.76 34.92 78 33C78.24 31.08 80.8 28.08 82 27C83.2 25.92 85.96 24.24 88 24C90.04 23.76 96.36 22.24 99 25C101.64 27.76 107.96 41.84 110 47C112.04 52.16 114.2 65.24 116 68C117.8 70.76 123.32 69.16 125 70C126.68 70.84 129.16 73.2 130 75C130.84 76.8 132 83.08 132 85C132 86.92 130.96 89.56 130 91C129.04 92.44 128.32 94.48 124 97C119.68 99.52 98.44 109.48 94 112C89.56 114.52 87.84 116.92 87 118C86.16 119.08 85.8 120.04 87 121C88.2 121.96 91.72 125.28 97 126C102.28 126.72 125 126.52 131 127C137 127.48 143.4 128.92 147 130C150.6 131.08 158.12 134.44 161 136C163.88 137.56 166.56 138.8 171 143C175.44 147.2 193.08 166.44 198 171C202.92 175.56 209.6 178.96 212 181C214.4 183.04 216.8 185.96 218 188C219.2 190.04 221.52 195.72 222 198C222.48 200.28 222.72 204 222 207C221.28 210 217.56 220.36 216 223C214.44 225.64 210.92 227.92 209 229C207.08 230.08 202.76 232 200 232C197.24 232 189.48 231.16 186 229C182.52 226.84 175.44 221.8 171 214C166.56 206.2 152.84 171.2 149 164C145.16 156.8 142.72 156.16 139 154C135.28 151.84 124.84 147.56 118 146C111.16 144.44 87.88 142.32 82 141C76.12 139.68 71.28 136.44 69 135C66.72 133.56 64.2 130.68 63 129C61.8 127.32 59.24 123.76 59 121C58.76 118.24 63.76 110.44 61 106C58.24 101.56 39.36 87.24 36 84C32.64 80.76 33.36 80.56 33 79C32.64 77.44 32.28 72.92 33 71ZM190 208C189.76 208.84 189.64 212.04 190 213C190.36 213.96 191.8 215.76 193 216C194.2 216.24 199.04 215.72 200 215C200.96 214.28 201.24 211.08 201 210C200.76 208.92 199.08 206.48 198 206C196.92 205.52 192.96 205.76 192 206C191.04 206.24 190.24 207.16 190 208Z" fill="#090909" fill-rule="evenodd"/></svg>
