<svg data-contour-smoothing="organic-v2" xmlns="http://www.w3.org/2000/svg" viewBox="0 0 256 256"><!-- Iconic Drills Pack © 2026 Roman Kuzhel, Kyrgyzstan | CC BY 4.0 | https://github.com/roblo3x/iconic-drills-pack --><path d="M43.94011,146.54123c0.97424,-8.70045 -1.78497,-17.20446 -1.90075,-25.85605c-0.14142,-10.56731 2.99595,-23.51038 8.38537,-32.63475c6.50833,-11.01869 19.98186,-19.09521 31.92555,-22.82953c6.9786,-2.18193 14.38606,-3.11272 20.95545,-6.49244c9.42687,-4.8498 17.73441,-11.96694 26.63655,-17.69014c7.28744,-4.6851 15.31081,-8.13235 23.27348,-11.49233c6.79889,-2.8689 15.2395,-7.51579 22.8377,-5.88544c9.22837,1.98015 18.02229,10.01845 25.57269,15.34228c5.40454,3.81077 13.53163,7.87665 17.14245,13.55411c2.10016,3.30218 2.29438,7.73877 2.69312,11.5219c1.42736,13.54225 -3.52229,24.39444 -13.0982,33.88087c-6.62204,6.56016 -15.53203,11.49941 -24.77036,6.03875c-3.64202,-2.15275 -7.86193,-6.05965 -8.68034,-10.38407c-0.75664,-3.998 1.45099,-7.77836 3.22685,-11.18402c3.81744,-7.3209 7.61692,-14.07387 15.97395,-16.72651c7.59947,-2.41218 6.49506,4.21707 5.62636,9.19911c-0.14411,0.82649 -0.9573,3.98981 0.84056,4.11067c1.68456,0.11325 2.89305,-2.44895 3.48859,-3.57686c1.79082,-3.39168 4.44775,-11.79392 -0.24543,-14.14812c-4.81438,-2.41501 -10.77592,0.84854 -14.94832,3.07793c-11.90035,6.35856 -25.11594,13.77226 -35.21203,22.78064c-8.65011,7.71819 -4.24981,20.10544 -4.4453,30.22207c-0.10445,5.40532 -2.48789,10.30478 -5.12089,14.91447c-5.67226,9.93066 -15.28976,19.46238 -25.35871,24.99696c-5.75014,3.16067 -12.70681,4.64141 -17.89733,8.76517c-3.68459,2.92733 -5.00475,7.81077 -6.50188,12.06797c-2.65262,7.54294 -5.14313,15.15016 -7.51857,22.78472c-1.13187,3.63776 -2.80212,7.7514 -2.4893,11.63284c0.55894,6.93509 12.84648,5.04226 15.05222,0.16152c1.50613,-3.33268 -5.6615,-1.60237 -6.43117,-4.60949c-1.48666,-5.80836 3.14985,-11.96594 7.65876,-14.97337c5.71068,-3.80902 17.97793,-2.70306 20.92629,4.46892c1.41525,3.44265 0.70561,8.28657 -0.61814,11.63633c-7.47798,18.92312 -32.89107,25.87162 -51.1662,21.85901c-6.43794,-1.41356 -12.30279,-5.351 -17.89303,-8.68831c-5.24943,-3.13385 -12.59018,-6.42666 -15.73979,-11.92236c-3.7275,-6.50405 6.18869,-49.35602 7.81978,-63.92246zM59.33639,208.1028c2.45902,-4.39958 -2.8076,5.02325 0,0zM59.34494,153.01566c5.87373,4.49498 13.29203,6.99435 20.11057,9.68976c0.89133,0.35235 7.74097,3.63533 7.89132,1.1842c0.15779,-2.57249 -5.45464,-4.66364 -7.1857,-5.56879c-8.07625,-4.22295 -22.44383,-6.55076 -20.81619,-5.30518zM61.04402,190.52293c2.08116,-1.57071 1.59857,-5.61966 -0.41504,-6.98474c-1.99217,-1.35055 -3.63334,10.04016 0.41504,6.98474zM70.22894,111.86587c1.28087,13.13766 8.48299,25.04722 23.17769,23.48543c11.0623,-1.17573 16.73176,-12.93907 20.9546,-21.83459c1.94995,-4.10761 4.28311,-8.39253 4.16217,-13.06754c-0.05833,-2.25473 -0.31991,-5.45168 -2.50288,-6.75163c-3.00627,-1.79021 -8.30033,-0.66911 -11.61078,-0.50148c-6.61602,0.33501 -13.22919,0.76635 -19.83491,1.2638c-6.21521,0.46804 -14.72907,13.47578 -14.34589,17.406zM114.25601,70.33807c5.81221,3.40253 12.42646,5.59102 17.63213,9.96484c1.10641,0.92961 5.8334,6.06851 7.29904,2.93479c1.21586,-2.59966 -3.74206,-5.88077 -5.2969,-7.14808c-5.21557,-4.25108 -21.64497,-6.92863 -19.63427,-5.75155zM168.94877,48.67313c3.98093,-2.62601 -3.29583,2.17409 0,0zM180.90698,40.90698c2.04004,-2.04004 -2.05363,2.05363 0,0z" fill="#090909" fill-rule="evenodd"/></svg>
