<svg xmlns="http://www.w3.org/2000/svg" viewBox="0 0 256 256"><!-- Iconic Drills Pack © 2026 Roman Kuzhel, Kyrgyzstan | CC BY 4.0 | https://github.com/roblo3x/iconic-drills-pack --><path d="M33 187C34.2 180.16 42.92 155.04 44 147C45.08 138.96 41.88 125.4 42 120C42.12 114.6 43.92 105.96 45 102C46.08 98.04 48.84 90.24 51 87C53.16 83.76 59.52 77.52 63 75C66.48 72.48 75.2 67.92 80 66C84.8 64.08 96.4 62.36 103 59C109.6 55.64 127.2 42.2 135 38C142.8 33.8 162.36 25.44 168 24C173.64 22.56 176.48 23.12 182 26C187.52 28.88 209.44 44.52 214 48C218.56 51.48 219.04 52 220 55C220.96 58 222.12 69.64 222 73C221.88 76.36 219.96 80.72 219 83C218.04 85.28 215.92 89.6 214 92C212.08 94.4 205.04 101.32 203 103C200.96 104.68 199.16 105.76 197 106C194.84 106.24 187.52 106.08 185 105C182.48 103.92 177.2 98.92 176 97C174.8 95.08 173.92 92.12 175 89C176.08 85.88 182.48 73.88 185 71C187.52 68.12 194.08 65.48 196 65C197.92 64.52 200.64 65.32 201 67C201.36 68.68 198.88 77.56 199 79C199.12 80.44 201.16 79.96 202 79C202.84 78.04 205.52 72.92 206 71C206.48 69.08 206.24 64.2 206 63C205.76 61.8 205.2 61.24 204 61C202.8 60.76 198.76 60.04 196 61C193.24 61.96 186.52 65.4 181 69C175.48 72.6 153.84 84.76 150 91C146.16 97.24 150.32 115.12 149 121C147.68 126.88 142.36 135.8 139 140C135.64 144.2 125.2 153.12 121 156C116.8 158.88 106.88 162.2 104 164C101.12 165.8 99.28 165.84 97 171C94.72 176.16 86.44 201.6 85 207C83.56 212.4 84.28 214.8 85 216C85.72 217.2 89.32 217.24 91 217C92.68 216.76 97.92 214.84 99 214C100.08 213.16 100.72 210.48 100 210C99.28 209.52 93.72 211.2 93 210C92.28 208.8 92.92 202.16 94 200C95.08 197.84 99.84 193.08 102 192C104.16 190.92 109.84 190.64 112 191C114.16 191.36 118.8 194.16 120 195C121.2 195.84 121.76 196.68 122 198C122.24 199.32 122.36 204.2 122 206C121.64 207.8 120.56 210.84 119 213C117.44 215.16 111.52 222.08 109 224C106.48 225.92 101 228.04 98 229C95 229.96 87.84 231.88 84 232C80.16 232.12 71.4 232.16 66 230C60.6 227.84 42.84 217.12 39 214C35.16 210.88 34.72 207.24 34 204C33.28 200.76 31.8 193.84 33 187ZM52 202C51.16 202.24 51.64 205.16 52 206C52.36 206.84 54.16 208.64 55 209C55.84 209.36 58.52 209.6 59 209C59.48 208.4 59.84 204.84 59 204C58.16 203.16 52.84 201.76 52 202ZM55 146C51.4 144.56 53.92 147.8 55 149C56.08 150.2 60.28 154.08 64 156C67.72 157.92 83.48 164.4 86 165C88.52 165.6 88.72 163.28 85 161C81.28 158.72 58.6 147.44 55 146ZM55 184C54.52 184.72 54.28 188.16 55 189C55.72 189.84 60.16 191.48 61 191C61.84 190.52 62.24 185.96 62 185C61.76 184.04 59.84 183.12 59 183C58.16 182.88 55.48 183.28 55 184ZM70 102C69.64 104.4 70.28 113.76 71 117C71.72 120.24 74.32 126.84 76 129C77.68 131.16 82.6 134.28 85 135C87.4 135.72 93.84 135.48 96 135C98.16 134.52 101.32 132.56 103 131C104.68 129.44 108.2 125.12 110 122C111.8 118.88 117.04 108 118 105C118.96 102 118.48 98.44 118 97C117.52 95.56 118.68 93.24 114 93C109.32 92.76 83.8 94.52 79 95C74.2 95.48 75.08 96.16 74 97C72.92 97.84 70.36 99.6 70 102ZM111 65C110.16 65.24 109.84 67.44 112 69C114.16 70.56 126.12 76.2 129 78C131.88 79.8 134.8 83.28 136 84C137.2 84.72 138.64 84.36 139 84C139.36 83.64 139.96 82.2 139 81C138.04 79.8 133.4 75.68 131 74C128.6 72.32 121.4 68.08 119 67C116.6 65.92 111.84 64.76 111 65ZM163 43C162.28 43.24 162.28 46.28 163 47C163.72 47.72 168.28 49.24 169 49C169.72 48.76 169.72 45.72 169 45C168.28 44.28 163.72 42.76 163 43ZM178 38C177.64 38.36 177.64 40.64 178 41C178.36 41.36 180.64 41.36 181 41C181.36 40.64 181.36 38.36 181 38C180.64 37.64 178.36 37.64 178 38Z" fill="#090909" fill-rule="evenodd"/></svg>
