<svg xmlns="http://www.w3.org/2000/svg" viewBox="0 0 256 256"><!-- Iconic Drills Pack © 2026 Roman Kuzhel, Kyrgyzstan | CC BY 4.0 | https://github.com/roblo3x/iconic-drills-pack --><path d="M31 134C31.84 131.96 33.48 129.28 39 127C44.52 124.72 72.08 116.8 77 115C81.92 113.2 79.76 112.96 80 112C80.24 111.04 81.88 107.72 79 107C76.12 106.28 60.68 106.48 56 106C51.32 105.52 42.64 104.2 40 103C37.36 101.8 34.48 97.68 34 96C33.52 94.32 34.2 90.2 36 89C37.8 87.8 42.4 85.88 49 86C55.6 86.12 85.48 90 91 90C96.52 90 94.64 87.68 95 86C95.36 84.32 96.04 81.52 94 76C91.96 70.48 79.8 45.64 78 40C76.2 34.36 78.16 30.92 79 29C79.84 27.08 83.68 24.6 85 24C86.32 23.4 88.68 23.04 90 24C91.32 24.96 93.24 25.64 96 32C98.76 38.36 110.12 71.6 113 77C115.88 82.4 118.56 77.36 120 77C121.44 76.64 122.24 78.44 125 74C127.76 69.56 140 45.04 143 40C146 34.96 148.56 33.2 150 32C151.44 30.8 153.44 29.88 155 30C156.56 30.12 161.92 31.56 163 33C164.08 34.44 165.92 36.36 164 42C162.08 47.64 149.04 74.96 147 80C144.96 85.04 146.16 82.68 147 84C147.84 85.32 151.96 90.4 154 91C156.04 91.6 158.24 92.12 164 89C169.76 85.88 196.84 67.76 202 65C207.16 62.24 205.32 64.68 207 66C208.68 67.32 215.04 74.2 216 76C216.96 77.8 215.72 79.8 215 81C214.28 82.2 214.2 82.88 210 86C205.8 89.12 184.92 103.88 180 107C175.08 110.12 170.56 111.04 169 112C167.44 112.96 167.24 113.92 167 115C166.76 116.08 166.76 120.04 167 121C167.24 121.96 163.84 122.76 169 123C174.16 123.24 204 122.64 210 123C216 123.36 217.32 124.8 219 126C220.68 127.2 223.52 130.48 224 133C224.48 135.52 224.08 144.36 223 147C221.92 149.64 217.16 154.04 215 155C212.84 155.96 210.16 155.72 205 155C199.84 154.28 176.92 149.72 172 149C167.08 148.28 165.68 148.28 164 149C162.32 149.72 157.76 151.52 158 155C158.24 158.48 163.12 171.76 166 178C168.88 184.24 179.72 201.48 182 207C184.28 212.52 185.24 221.12 185 224C184.76 226.88 181.56 230.04 180 231C178.44 231.96 173.68 232.48 172 232C170.32 231.52 167.8 230 166 227C164.2 224 159.4 211.32 157 207C154.6 202.68 148.52 195.56 146 191C143.48 186.44 137.56 171.88 136 169C134.44 166.12 135.64 167 133 167C130.36 167 118.44 164.56 114 169C109.56 173.44 98.88 199.32 96 204C93.12 208.68 91.8 207.76 90 208C88.2 208.24 82.8 206.96 81 206C79.2 205.04 75.72 201.8 75 200C74.28 198.2 73.08 196.88 75 191C76.92 185.12 89.08 156.52 91 151C92.92 145.48 91.48 146.44 91 145C90.52 143.56 88.44 140.2 87 139C85.56 137.8 83.2 134.04 79 135C74.8 135.96 57.04 145.32 52 147C46.96 148.68 39.4 149.36 37 149C34.6 148.64 32.72 145.8 32 144C31.28 142.2 30.16 136.04 31 134Z" fill="#090909" fill-rule="evenodd"/></svg>
