<svg data-contour-smoothing="organic-v2" xmlns="http://www.w3.org/2000/svg" viewBox="0 0 256 256"><!-- Iconic Drills Pack © 2026 Roman Kuzhel, Kyrgyzstan | CC BY 4.0 | https://github.com/roblo3x/iconic-drills-pack --><path d="M40.9128,103.32718c4.2993,-6.74631 8.91584,-13.29619 14.53167,-19.01763c15.40663,-15.69637 32.33857,-30.18613 53.09535,-38.24413c5.48047,-2.12758 11.32329,-4.39295 17.14136,-5.359c2.61764,-0.43464 5.33031,-0.29977 7.92619,-0.84291c8.18752,-1.71307 3.41683,-13.50921 12.62038,-14.74503c1.29255,-0.17356 2.58306,-0.17485 3.83938,0.23414c9.79624,3.18915 0.61606,12.73525 7.43003,17.13874c9.09985,5.88073 19.71022,7.78028 27.60382,15.67933c14.66583,14.67596 19.93793,34.05799 25.7432,53.32948c3.43584,11.4058 7.57256,22.94673 8.07825,34.94226c0.32995,7.82671 1.37175,18.37623 -1.41306,25.82752c-1.95986,5.24397 -8.38454,7.0192 -12.35153,2.74038c-6.84486,-7.38291 -3.54735,-20.58797 -11.63421,-26.89865c-5.8498,-4.56496 -15.08237,-9.27418 -21.3347,-2.99951c-3.60403,3.61691 -7.14409,14.21037 -14.00889,11.87468c-2.57293,-0.87541 -3.2592,-3.86938 -3.89457,-6.16144c-1.89115,-6.82221 -3.19895,-25.5628 -15.0046,-20.42911c-2.5413,1.10508 -3.29803,3.75457 -4.01907,6.17931c-1.70731,5.74131 -3.08311,11.59836 -4.51592,17.41273c-1.91407,7.76728 -3.80805,15.53129 -4.98617,23.45014c-2.09298,14.06824 -3.34015,27.62643 -10.04684,40.45259c-5.39785,10.32308 -18.42142,18.28827 -29.88158,12.43327c-9.65824,-4.9344 -14.70397,-12.72937 -17.26762,-23.03821c-1.3788,-5.54436 -1.12904,-12.69563 4.32116,-15.99023c1.74378,-1.0541 3.60759,-1.34253 5.61466,-1.24092c11.94637,0.6048 7.09387,12.5195 9.56582,20.23308c1.24125,3.87326 5.62557,5.6883 9.27148,3.81083c5.12627,-2.63978 7.15017,-12.30558 8.91503,-17.3239c3.83094,-10.89318 4.32707,-22.00795 5.88437,-33.34814c1.08762,-7.91999 3.24517,-15.66144 5.23469,-23.39118c1.49469,-5.80722 3.03867,-11.60237 4.49853,-17.41849c0.34846,-1.38828 2.02428,-5.39689 0.52604,-6.60344c-2.55411,-2.05685 -8.17649,1.27913 -10.42697,2.42014c-4.67876,2.37218 -9.70293,4.68961 -13.77691,8.03758c-2.84554,2.33844 -5.47101,6.35029 -9.41155,6.80491c-4.59841,0.53052 -6.64999,-3.26545 -7.05957,-7.21935c-0.6543,-6.31631 -0.76481,-12.08093 -8.26789,-13.47354c-4.94344,-0.91753 -10.97497,-1.46546 -15.7903,0.22592c-4.91629,1.72684 -9.3105,5.63176 -14.63947,6.10203c-4.35533,0.38434 -4.21658,-12.27868 -2.10999,-15.58426z" fill="#090909" fill-rule="evenodd"/></svg>
