<svg xmlns="http://www.w3.org/2000/svg" viewBox="0 0 256 256"><path d="M91 38L116 38L162 44L172 47L184 53L186 56L187 90L213 86L225 91L229 97L232 108L232 118L226 140L219 154L210 163L198 169L177 171L170 201L165 207L156 212L127 218L75 212L60 201L57 201L47 186L31 128L25 83L25 63L31 50L44 43L69 37ZM155 132L156 138L154 140L135 138L128 135L122 129L122 124L128 122ZM40 91L45 128L50 147L56 159L69 177L117 190L147 188L155 186L160 182L166 155L170 148L169 137L171 131L172 95L167 95L152 101L135 102L95 99L60 91L44 84L40 84ZM193 102L186 103L183 134L181 138L181 147L185 148L199 145L206 137L212 121L210 107L199 101ZM52 124L56 122L63 126L73 126L82 121L88 120L91 122L90 127L86 131L79 135L69 137L57 134ZM74 167L73 162L75 158L86 144L102 114L104 112L108 113L111 119L116 168L97 171L81 170ZM52 70L58 70L68 65L83 62L105 61L123 63L137 66L148 71L149 74L156 79L158 86L162 86L171 82L175 74L176 64L172 57L162 54L160 51L105 43L73 44L61 48L58 51L46 53L42 56L42 65Z" fill="#090909" fill-rule="evenodd"/></svg>
