<svg xmlns="http://www.w3.org/2000/svg" viewBox="0 0 256 256"><!-- Iconic Drills Pack © 2026 Roman Kuzhel, Kyrgyzstan | CC BY 4.0 | https://github.com/roblo3x/iconic-drills-pack --><path d="M25 63C25.48 59.4 27.8 54.92 29 53C30.2 51.08 32.12 48.56 35 47C37.88 45.44 48.92 41.2 53 40C57.08 38.8 61.44 37.24 69 37C76.56 36.76 104.84 37.16 116 38C127.16 38.84 155.28 42.92 162 44C168.72 45.08 169.36 45.92 172 47C174.64 48.08 182.32 51.92 184 53C185.68 54.08 185.64 51.56 186 56C186.36 60.44 183.76 86.4 187 90C190.24 93.6 208.2 85.64 213 86C217.8 86.36 224.84 90.96 227 93C229.16 95.04 230.4 100 231 103C231.6 106 232.6 113.56 232 118C231.4 122.44 227.56 135.68 226 140C224.44 144.32 220.92 151.24 219 154C217.08 156.76 212.52 161.2 210 163C207.48 164.8 202.08 167.92 198 169C193.92 170.08 179.24 168.4 176 172C172.76 175.6 172.32 194.8 171 199C169.68 203.2 166.8 205.44 165 207C163.2 208.56 160.56 210.68 156 212C151.44 213.32 136.72 218 127 218C117.28 218 83.04 214.04 75 212C66.96 209.96 62.16 202.32 60 201C57.84 199.68 58.56 202.8 57 201C55.44 199.2 50.12 194.76 47 186C43.88 177.24 33.64 140.36 31 128C28.36 115.64 25.72 90.8 25 83C24.28 75.2 24.52 66.6 25 63ZM40 84C37.84 86.28 40.8 102.44 42 110C43.2 117.56 48.32 141.12 50 147C51.68 152.88 53.72 155.4 56 159C58.28 162.6 61.68 173.28 69 177C76.32 180.72 107.64 188.68 117 190C126.36 191.32 142.44 188.48 147 188C151.56 187.52 153.44 186.72 155 186C156.56 185.28 158.68 185.72 160 182C161.32 178.28 164.8 159.08 166 155C167.2 150.92 169.64 150.16 170 148C170.36 145.84 168.88 139.04 169 137C169.12 134.96 170.64 136.04 171 131C171.36 125.96 175.24 98.48 172 95C168.76 91.52 152.4 101.4 144 102C135.6 102.6 112.08 101.32 102 100C91.92 98.68 67.44 92.92 60 91C52.56 89.08 42.16 81.72 40 84ZM41 58C40.52 59.44 40.92 63.56 42 65C43.08 66.44 48.08 69.4 50 70C51.92 70.6 54.88 70.84 58 70C61.12 69.16 71.68 64.08 76 63C80.32 61.92 87.16 60.76 94 61C100.84 61.24 126.52 63.8 133 65C139.48 66.2 146.08 69.92 148 71C149.92 72.08 148.04 73.04 149 74C149.96 74.96 154.92 77.56 156 79C157.08 80.44 156.2 85.64 158 86C159.8 86.36 168.84 83.92 171 82C173.16 80.08 175.52 72.64 176 70C176.48 67.36 175.96 61.8 175 60C174.04 58.2 169.56 55.72 168 55C166.44 54.28 162.96 54.48 162 54C161.04 53.52 166.84 52.32 160 51C153.16 49.68 115.44 43.84 105 43C94.56 42.16 78.28 43.4 73 44C67.72 44.6 62.8 47.16 61 48C59.2 48.84 59.8 50.4 58 51C56.2 51.6 48.04 52.16 46 53C43.96 53.84 41.48 56.56 41 58ZM52 124C51.88 122.56 54.68 121.76 56 122C57.32 122.24 60.96 125.52 63 126C65.04 126.48 70.72 126.6 73 126C75.28 125.4 80.2 121.72 82 121C83.8 120.28 86.92 119.88 88 120C89.08 120.12 90.76 121.16 91 122C91.24 122.84 90.6 125.92 90 127C89.4 128.08 87.32 130.04 86 131C84.68 131.96 81.04 134.28 79 135C76.96 135.72 71.64 137.12 69 137C66.36 136.88 59.04 135.56 57 134C54.96 132.44 52.12 125.44 52 124ZM73 162C74.44 159.12 82.52 149.76 86 144C89.48 138.24 99.84 117.84 102 114C104.16 110.16 103.28 112.12 104 112C104.72 111.88 107.16 112.16 108 113C108.84 113.84 110.04 112.4 111 119C111.96 125.6 116.96 161.76 116 168C115.04 174.24 107.2 170.76 103 171C98.8 171.24 84.48 170.36 81 170C77.52 169.64 74.96 168.96 74 168C73.04 167.04 71.56 164.88 73 162ZM122 124C122.72 123.16 126.08 121.64 128 122C129.92 122.36 135.6 126.28 138 127C140.4 127.72 145.84 127.28 148 128C150.16 128.72 155.04 131.8 156 133C156.96 134.2 156.24 137.16 156 138C155.76 138.84 155.2 139.76 154 140C152.8 140.24 148.76 140.36 146 140C143.24 139.64 133.88 138.32 131 137C128.12 135.68 123.08 130.56 122 129C120.92 127.44 121.28 124.84 122 124ZM181 138C180.76 139.56 180.52 145.8 181 147C181.48 148.2 183.08 148.12 185 148C186.92 147.88 194.72 146.96 197 146C199.28 145.04 202.2 143 204 140C205.8 137 211.04 124.36 212 121C212.96 117.64 212.6 114.04 212 112C211.4 109.96 208.44 105.08 207 104C205.56 102.92 200.96 103.36 200 103C199.04 102.64 200.68 101 199 101C197.32 101 187.92 99.04 186 103C184.08 106.96 183.6 129.8 183 134C182.4 138.2 181.24 136.44 181 138Z" fill="#090909" fill-rule="evenodd"/></svg>
