<svg xmlns="http://www.w3.org/2000/svg" viewBox="0 0 256 256"><!-- Iconic Drills Pack © 2026 Roman Kuzhel, Kyrgyzstan | CC BY 4.0 | https://github.com/roblo3x/iconic-drills-pack --><path d="M38 71C39.08 68.84 44.72 61.04 47 59C49.28 56.96 48.72 57.84 57 54C65.28 50.16 107.72 30.6 116 27C124.28 23.4 123.96 24.24 126 24C128.04 23.76 131.56 24.16 133 25C134.44 25.84 137.52 29.2 138 31C138.48 32.8 141.32 35.68 137 40C132.68 44.32 106.92 63.04 102 67C97.08 70.96 96.72 71.92 96 73C95.28 74.08 89.64 74.56 96 76C102.36 77.44 140.96 83.32 149 85C157.04 86.68 160.48 88.68 163 90C165.52 91.32 168.92 94.68 170 96C171.08 97.32 171.88 99.08 172 101C172.12 102.92 171.96 109.36 171 112C170.04 114.64 166.88 119.4 164 123C161.12 126.6 149.16 138.88 147 142C144.84 145.12 144.32 147.68 146 149C147.68 150.32 154.76 152.28 161 153C167.24 153.72 192.48 154.28 198 155C203.52 155.72 205.2 157.32 207 159C208.8 160.68 211.8 165.88 213 169C214.2 172.12 216.52 181.52 217 185C217.48 188.48 217.48 195.48 217 198C216.52 200.52 215.28 203.84 213 206C210.72 208.16 204.12 213.48 198 216C191.88 218.52 170.16 225.08 162 227C153.84 228.92 134.92 231.4 130 232C125.08 232.6 123.16 232.36 121 232C118.84 231.64 113.68 230.2 112 229C110.32 227.8 107.48 224.04 107 222C106.52 219.96 106.56 214.64 108 212C109.44 209.36 116.84 201.92 119 200C121.16 198.08 123.24 198.28 126 196C128.76 193.72 140.08 183.28 142 181C143.92 178.72 142.6 177.72 142 177C141.4 176.28 141.68 175.84 137 175C132.32 174.16 108.04 171.08 103 170C97.96 168.92 96.56 167.32 95 166C93.44 164.68 90.48 160.56 90 159C89.52 157.44 88.12 158.4 91 153C93.88 147.6 111.24 119.28 114 114C116.76 108.72 117.84 110.2 114 109C110.16 107.8 89.2 105.68 82 104C74.8 102.32 58.8 97.16 54 95C49.2 92.84 43.92 88.16 42 86C40.08 83.84 38.48 78.8 38 77C37.52 75.2 36.92 73.16 38 71Z" fill="#090909" fill-rule="evenodd"/></svg>
