<svg xmlns="http://www.w3.org/2000/svg" viewBox="0 0 256 256"><!-- Iconic Drills Pack © 2026 Roman Kuzhel, Kyrgyzstan | CC BY 4.0 | https://github.com/roblo3x/iconic-drills-pack --><path d="M28 105C28.72 103.92 31.96 101.6 34 101C36.04 100.4 43.68 100.72 45 100C46.32 99.28 45.6 96.68 45 95C44.4 93.32 40.6 87.8 40 86C39.4 84.2 39.52 81.08 40 80C40.48 78.92 43.04 77.36 44 77C44.96 76.64 46.8 76.16 48 77C49.2 77.84 52.56 81 54 84C55.44 87 57.6 98.76 60 102C62.4 105.24 71.96 109.92 74 111C76.04 112.08 76.04 112.08 77 111C77.96 109.92 80.56 103.92 82 102C83.44 100.08 88.4 97.76 89 95C89.6 92.24 87.12 82.48 87 79C86.88 75.52 87.4 69.12 88 66C88.6 62.88 90.68 55.88 92 53C93.32 50.12 97.08 44.4 99 42C100.92 39.6 105.72 34.8 108 33C110.28 31.2 114.88 28.08 118 27C121.12 25.92 130.76 24.24 134 24C137.24 23.76 141.64 23.8 145 25C148.36 26.2 158.76 31.36 162 34C165.24 36.64 170.56 44.72 172 47C173.44 49.28 173.76 50.12 174 53C174.24 55.88 174.6 67.4 174 71C173.4 74.6 169.6 80.72 169 83C168.4 85.28 167.8 87.96 169 90C170.2 92.04 177.08 97.6 179 100C180.92 102.4 183.92 107.36 185 110C186.08 112.64 187.64 119 188 122C188.36 125 186.56 132.72 188 135C189.44 137.28 195.68 141 200 141C204.32 141 220.76 135.48 224 135C227.24 134.52 226.52 136.16 227 137C227.48 137.84 228.24 140.92 228 142C227.76 143.08 226.8 145.04 225 146C223.2 146.96 214.32 148.92 213 150C211.68 151.08 213.04 153.44 214 155C214.96 156.56 220.16 161.56 221 163C221.84 164.44 221.6 166.04 221 167C220.4 167.96 217.44 170.88 216 171C214.56 171.12 211.04 170.16 209 168C206.96 165.84 201.52 155.4 199 153C196.48 150.6 189.92 148.6 188 148C186.08 147.4 183.96 147.4 183 148C182.04 148.6 180.6 151.56 180 153C179.4 154.44 177.04 157.72 178 160C178.96 162.28 185.84 168.4 188 172C190.16 175.6 195.16 185.92 196 190C196.84 194.08 195.84 202.76 195 206C194.16 209.24 190.68 214.84 189 217C187.32 219.16 183.76 222.56 181 224C178.24 225.44 170.92 228.04 166 229C161.08 229.96 150.56 232.24 140 232C129.44 231.76 86.88 227.96 78 227C69.12 226.04 68.64 225.2 66 224C63.36 222.8 58.16 219.28 56 217C53.84 214.72 49.44 208.48 48 205C46.56 201.52 44.36 191.36 44 188C43.64 184.64 44.04 180.24 45 177C45.96 173.76 48.28 165.32 52 161C55.72 156.68 73.36 145.32 76 141C78.64 136.68 76.52 128.48 74 125C71.48 121.52 59.92 113.32 55 112C50.08 110.68 36.24 114.24 33 114C29.76 113.76 28.6 111.08 28 110C27.4 108.92 27.28 106.08 28 105ZM76 178C75.76 181 77.56 189.36 79 192C80.44 194.64 85.6 198.56 88 200C90.4 201.44 93.36 203.4 99 204C104.64 204.6 129.12 205.48 135 205C140.88 204.52 145.72 201.56 148 200C150.28 198.44 153.28 194.4 154 192C154.72 189.6 154.36 182.04 154 180C153.64 177.96 152.56 176.56 151 175C149.44 173.44 142.44 169.4 141 167C139.56 164.6 138.64 157.16 139 155C139.36 152.84 142.2 150.2 144 149C145.8 147.8 152.08 146.2 154 145C155.92 143.8 158.92 140.56 160 139C161.08 137.44 162.64 134.04 163 132C163.36 129.96 163.6 124.28 163 122C162.4 119.72 160.88 115.16 158 113C155.12 110.84 142.12 106.16 139 104C135.88 101.84 132.72 97.52 132 95C131.28 92.48 130.96 86.24 133 83C135.04 79.76 146.84 70.52 149 68C151.16 65.48 151.12 64.4 151 62C150.88 59.6 149.44 50.52 148 48C146.56 45.48 141.4 41.96 139 41C136.6 40.04 130.4 39.64 128 40C125.6 40.36 121.04 42.68 119 44C116.96 45.32 112.44 49.32 111 51C109.56 52.68 107.72 55.24 107 58C106.28 60.76 104.4 70.16 105 74C105.6 77.84 111.16 87 112 90C112.84 93 113.32 96.48 112 99C110.68 101.52 102.8 108.6 101 111C99.2 113.4 97.48 116.6 97 119C96.52 121.4 96.4 128.36 97 131C97.6 133.64 101.4 138.84 102 141C102.6 143.16 102.6 147.2 102 149C101.4 150.8 99.52 153.84 97 156C94.48 158.16 83.52 164.36 81 167C78.48 169.64 76.24 175 76 178ZM126 59C126.36 57.92 127.92 55.48 129 55C130.08 54.52 133.92 54.64 135 55C136.08 55.36 137.64 57.04 138 58C138.36 58.96 138.48 61.92 138 63C137.52 64.08 135.08 66.52 134 67C132.92 67.48 129.96 67.36 129 67C128.04 66.64 126.36 64.96 126 64C125.64 63.04 125.64 60.08 126 59Z" fill="#090909" fill-rule="evenodd"/></svg>
