<svg xmlns="http://www.w3.org/2000/svg" viewBox="0 0 256 256"><!-- Iconic Drills Pack © 2026 Roman Kuzhel, Kyrgyzstan | CC BY 4.0 | https://github.com/roblo3x/iconic-drills-pack --><path d="M129 110L132 106L139 107L143 101L148 98L154 100L161 108L167 108L167 103L158 93L154 76L150 72L146 72L139 78L126 93L120 106L120 113L141 133L147 158L165 171L178 187L184 188L185 183L177 172L155 154L147 130L130 114ZM124 201L50 201L27 197L24 191L32 174L41 162L46 142L52 130L63 119L78 110L104 107L122 78L134 69L146 54L150 53L159 61L172 95L190 120L199 144L211 157L217 170L226 182L231 192L232 199L227 203L210 200Z" fill="#090909" fill-rule="evenodd"/></svg>
