<svg xmlns="http://www.w3.org/2000/svg" viewBox="0 0 256 256"><!-- Iconic Drills Pack © 2026 Roman Kuzhel, Kyrgyzstan | CC BY 4.0 | https://github.com/roblo3x/iconic-drills-pack --><path d="M24 191C24.6 188.24 29.96 177.48 32 174C34.04 170.52 39.32 165.84 41 162C42.68 158.16 44.68 145.84 46 142C47.32 138.16 49.96 132.76 52 130C54.04 127.24 59.88 121.4 63 119C66.12 116.6 73.08 111.44 78 110C82.92 108.56 98.72 110.84 104 107C109.28 103.16 118.4 82.56 122 78C125.6 73.44 131.12 71.88 134 69C136.88 66.12 144.08 55.92 146 54C147.92 52.08 148.44 52.16 150 53C151.56 53.84 156.36 55.96 159 61C161.64 66.04 168.28 87.92 172 95C175.72 102.08 186.76 114.12 190 120C193.24 125.88 196.48 139.56 199 144C201.52 148.44 208.84 153.88 211 157C213.16 160.12 215.2 167 217 170C218.8 173 224.32 179.36 226 182C227.68 184.64 230.28 189.96 231 192C231.72 194.04 232.48 197.68 232 199C231.52 200.32 229.64 202.88 227 203C224.36 203.12 219.48 200.36 210 200C200.52 199.64 158.8 199.76 148 200C137.2 200.24 131.76 201.88 120 202C108.24 202.12 61.16 201.6 50 201C38.84 200.4 30.12 198.2 27 197C23.88 195.8 23.4 193.76 24 191ZM120 106C119.04 108.76 117.48 109.76 120 113C122.52 116.24 137.76 127.6 141 133C144.24 138.4 144.12 153.44 147 158C149.88 162.56 161.28 167.52 165 171C168.72 174.48 175.72 184.96 178 187C180.28 189.04 183.16 188.48 184 188C184.84 187.52 185.84 184.92 185 183C184.16 181.08 180 174.88 177 172C174 169.12 162.88 161.52 160 159C157.12 156.48 154.08 153.4 153 151C151.92 148.6 151.72 141.52 151 139C150.28 136.48 149.64 133.24 147 130C144.36 126.76 131.04 114.76 129 112C126.96 109.24 128.8 107.6 130 107C131.2 106.4 137.44 107.72 139 107C140.56 106.28 141.92 102.08 143 101C144.08 99.92 146.68 98.12 148 98C149.32 97.88 152.44 98.8 154 100C155.56 101.2 159.44 107.04 161 108C162.56 108.96 166.28 108.6 167 108C167.72 107.4 168.08 104.8 167 103C165.92 101.2 159.56 96.24 158 93C156.44 89.76 154.96 78.52 154 76C153.04 73.48 151.2 72.36 150 72C148.8 71.64 146.64 70.84 144 73C141.36 75.16 130.88 86.04 128 90C125.12 93.96 120.96 103.24 120 106Z" fill="#090909" fill-rule="evenodd"/></svg>
