<svg data-contour-smoothing="organic-v2" xmlns="http://www.w3.org/2000/svg" viewBox="0 0 256 256"><!-- Iconic Drills Pack © 2026 Roman Kuzhel, Kyrgyzstan | CC BY 4.0 | https://github.com/roblo3x/iconic-drills-pack --><path d="M39.93975,163.65933c4.03877,-6.81371 3.83082,-15.56736 6.54176,-22.91579c4.5975,-12.46224 15.07373,-22.32125 26.62767,-28.54311c9.5958,-5.16739 24.37486,1.21101 32.3302,-6.75881c7.52407,-7.53777 9.99289,-18.95529 16.51513,-27.21377c3.76478,-4.76697 9.79205,-6.70249 13.77726,-11.25998c3.06559,-3.50582 5.59236,-7.45021 8.61899,-10.98505c1.17377,-1.37087 2.52236,-2.93676 4.51429,-2.93047c3.56443,0.01126 7.42889,3.94343 9.24972,6.6552c5.34939,7.96688 7.33276,18.95725 10.75172,27.86689c4.69274,12.22906 14.07693,20.54013 20.59531,31.59775c4.4225,7.50222 5.25092,16.5095 9.32601,24.13468c2.87588,5.38126 8.26452,8.55708 11.82716,13.36987c2.78651,3.76431 3.856,8.43964 6.06995,12.51306c4.77375,8.78314 15.13042,16.63289 15.24692,27.52227c0.03649,3.41053 -2.34341,5.99736 -5.80313,5.99963c-4.50722,0.00296 -9.12216,-2.08974 -13.66166,-2.49375c-7.91679,-0.70458 -15.993,-0.3969 -23.93431,-0.41178c-14.59806,-0.02734 -29.31183,-0.3994 -43.89374,0.36481c-7.97672,0.41805 -15.86725,1.67903 -23.86454,1.834c-19.26373,0.37329 -38.60109,-0.14702 -57.86118,-0.5744c-9.98071,-0.22147 -19.96918,-0.46308 -29.74895,-2.68176c-4.64404,-1.05357 1.30392,-25.85863 6.77545,-35.08949zM119.31673,111.47042c1.12003,2.9656 4.43253,5.18423 6.73767,7.17389c4.49432,3.87922 9.48077,7.6311 13.22589,12.27513c6.17362,7.65543 3.00064,18.4484 7.63276,26.63005c3.58765,6.33681 12.08776,8.63832 17.42924,13.14394c5.15881,4.35153 8.03629,10.71181 12.82782,15.36546c1.61536,1.56887 4.44512,3.28655 6.63752,1.6019c2.23261,-1.71554 1.02186,-4.83396 -0.05877,-6.76998c-2.61625,-4.68721 -6.35706,-8.65243 -10.57658,-11.91193c-6.45488,-4.98629 -15.50992,-9.61895 -19.50389,-17.03911c-3.51519,-6.53066 -1.6313,-14.49685 -6.06279,-20.91767c-3.72647,-5.3993 -9.4084,-9.70238 -14.06587,-14.27578c-1.67784,-1.64756 -4.27825,-3.64923 -4.8381,-6.07301c-0.45435,-1.96705 0.79862,-3.21998 2.61099,-3.62386c2.50304,-0.55779 5.23524,0.60165 7.59749,-0.75953c4.49958,-2.59274 5.13858,-9.79711 12.05629,-7.70265c4.81812,1.45877 6.10888,6.7778 10.27197,8.97234c1.48563,0.78314 3.78594,1.14629 5.1831,-0.08797c1.48006,-1.30748 0.91118,-3.44448 0.07282,-4.88706c-3.22435,-5.54818 -8.26196,-7.84332 -9.86773,-14.59297c-1.07365,-4.51292 -0.96308,-11.67917 -4.82833,-14.87446c-4.96018,-4.10045 -9.79192,1.3857 -13.09176,4.74683c-8.35633,8.51155 -20.35344,31.05477 -19.38974,33.60645z" fill="#090909" fill-rule="evenodd"/></svg>
