<svg data-contour-smoothing="organic-v2" xmlns="http://www.w3.org/2000/svg" viewBox="0 0 256 256"><!-- Iconic Drills Pack © 2026 Roman Kuzhel, Kyrgyzstan | CC BY 4.0 | https://github.com/roblo3x/iconic-drills-pack --><path d="M35.2267,104.25959c6.35785,3.45478 13.61499,10.40886 21.22864,10.47791c3.29021,0.02984 6.43714,-1.73087 9.2388,-3.26004c5.51255,-3.00878 12.10997,-6.56524 16.55646,-11.06106c3.76127,-3.80299 -1.52368,-7.93938 -4.1482,-10.692c-4.0774,-4.27642 -8.81336,-8.28503 -12.26392,-13.10347c-1.95877,-2.73528 -2.84487,-5.96422 -4.59865,-8.79518c-2.21442,-3.57451 -7.53728,-6.63802 -3.36031,-11.20286c3.51128,-3.83734 10.58183,-2.59634 15.11733,-2.11998c13.8507,1.45472 26.77984,8.31347 37.93879,16.51744c3.72871,2.74132 7.02969,9.31735 12.01358,9.62174c6.43154,0.3928 14.75454,-4.68883 20.63377,-6.9882c13.05944,-5.10754 26.17483,-9.65923 39.64327,-13.57397c6.91503,-2.00992 14.10089,-4.52908 21.29674,-5.23781c5.41244,-0.53308 12.70917,-0.13274 17.43792,2.85124c5.67038,3.57819 9.28865,12.44813 10.05444,18.84878c2.39674,20.03247 -16.60652,28.46159 -32.72557,33.64102c-3.77953,1.21445 -7.90629,1.37769 -11.60352,2.79895c-3.71929,1.42974 -6.67156,4.05049 -10.53576,5.34883c-3.78482,1.27166 -7.61272,2.41354 -11.40679,3.65714c-1.50256,0.49251 -3.74003,0.89965 -4.91461,2.07378c-0.96686,0.96649 -1.08099,2.9628 -1.7195,4.14315c-1.55763,2.87943 -3.78214,5.50148 -5.68599,8.15714c-10.56701,14.7398 -18.91882,30.33857 -27.54417,46.25279c-4.25036,7.84213 -9.56348,20.23316 -20.52523,18.75191c-6.48553,-0.87638 -5.48525,-7.43326 -5.35101,-12.41596c0.33107,-12.28847 2.66732,-23.47634 5.34792,-35.41277c0.68525,-3.05134 4.06451,-12.58809 0.31122,-14.5947c-4.14025,-2.21348 -12.89365,2.99494 -16.69651,4.60255c-8.50643,3.59599 -17.71811,6.19117 -25.68458,10.94614c-5.9379,3.54417 -11.31422,10.50497 -18.72661,10.53945c-12.27421,0.05711 -9.6817,-15.78772 -11.21735,-23.89132c-0.62116,-3.27786 -1.79395,-6.39491 -2.98621,-9.49901c-2.92254,-7.60895 -0.59351,-30.35351 4.87563,-27.38164zM111.39752,115.32579c4.04709,3.45313 11.56722,-0.12973 13.46847,-4.36785c2.67448,-5.96176 -0.36404,-12.87972 -7.49411,-11.26874c-3.37159,0.76178 -9.08174,12.98525 -5.97436,15.63659zM147.95319,106.31778c4.26166,-2.79503 6.03431,-9.70853 5.07224,-14.51295c-1.11392,-5.56274 -7.40794,-4.8568 -10.61462,-1.7387c-1.52596,1.4838 -3.32545,22.06764 5.54238,16.25164zM171.09623,98.24531c3.0021,-2.64989 3.37888,-12.33796 0.48385,-15.23401c-2.75376,-2.75473 -6.38737,0.42628 -7.55023,2.99371c-0.74475,1.6443 0.24761,18.25909 7.06638,12.2403zM193.56407,92.62946c4.60262,-1.92278 6.34709,-6.99835 6.39968,-11.58762c0.02047,-1.78567 -0.04531,-3.95442 -1.69264,-5.10523c-1.97213,-1.37771 -5.50472,-0.9578 -7.68656,-0.46288c-1.20862,0.27416 -5.81963,20.83164 2.97952,17.15573z" fill="#090909" fill-rule="evenodd"/></svg>
