<svg xmlns="http://www.w3.org/2000/svg" viewBox="0 0 256 256"><!-- Iconic Drills Pack © 2026 Roman Kuzhel, Kyrgyzstan | CC BY 4.0 | https://github.com/roblo3x/iconic-drills-pack --><path d="M24 107C24.36 105.56 25.92 103.48 27 103C28.08 102.52 29.4 101.56 33 103C36.6 104.44 51 115.36 57 115C63 114.64 80 102.52 83 100C86 97.48 84.04 96.76 82 94C79.96 91.24 68.52 80.24 66 77C63.48 73.76 62.2 68.8 61 67C59.8 65.2 56.36 63.32 56 62C55.64 60.68 56.8 56.96 58 56C59.2 55.04 62.64 53.88 66 54C69.36 54.12 80.6 54.96 86 57C91.4 59.04 106.92 68.24 111 71C115.08 73.76 118.08 78.92 120 80C121.92 81.08 121.72 81.68 127 80C132.28 78.32 154.88 69 164 66C173.12 63 196.16 56.08 203 55C209.84 53.92 218 55.8 221 57C224 58.2 226.68 62.72 228 65C229.32 67.28 231.64 73.12 232 76C232.36 78.88 232.2 86.12 231 89C229.8 91.88 225.72 97.48 222 100C218.28 102.52 204.2 108.44 200 110C195.8 111.56 189.28 112.16 187 113C184.72 113.84 184.24 115.68 181 117C177.76 118.32 162.52 122.8 160 124C157.48 125.2 162.16 123.52 160 127C157.84 130.48 146.8 145.08 142 153C137.2 160.92 123.72 187.24 120 193C116.28 198.76 113.04 200.04 111 201C108.96 201.96 104.32 201.48 103 201C101.68 200.52 100.24 200.36 100 197C99.76 193.64 100.16 179.96 101 173C101.84 166.04 109.16 142.24 107 139C104.84 135.76 88.16 144.2 83 146C77.84 147.8 67.96 151.84 64 154C60.04 156.16 52.64 162.68 50 164C47.36 165.32 43.56 165.24 42 165C40.44 164.76 37.84 162.96 37 162C36.16 161.04 35.48 159.76 35 157C34.52 154.24 34.32 144.04 33 139C31.68 133.96 25.08 118.84 24 115C22.92 111.16 23.64 108.44 24 107ZM110 106C109.28 107.56 109.76 111.8 110 113C110.24 114.2 110.92 115.64 112 116C113.08 116.36 117.44 116.6 119 116C120.56 115.4 124.28 112.68 125 111C125.72 109.32 125.24 103.32 125 102C124.76 100.68 124.08 100.24 123 100C121.92 99.76 117.56 99.28 116 100C114.44 100.72 110.72 104.44 110 106ZM139 95C138.4 97.16 139.04 104.56 140 106C140.96 107.44 145.56 107.6 147 107C148.44 106.4 151.28 102.92 152 101C152.72 99.08 153.24 92.56 153 91C152.76 89.44 150.96 88.36 150 88C149.04 87.64 146.32 87.16 145 88C143.68 88.84 139.6 92.84 139 95ZM163 90C162.88 91.92 164.16 97.92 165 99C165.84 100.08 169.04 99.48 170 99C170.96 98.52 172.76 96.92 173 95C173.24 93.08 172.84 84.44 172 83C171.16 81.56 167.08 82.16 166 83C164.92 83.84 163.12 88.08 163 90ZM187 77C185.56 78.8 186.28 89.08 187 91C187.72 92.92 191.56 93.48 193 93C194.44 92.52 198.28 89.04 199 87C199.72 84.96 200.44 77.2 199 76C197.56 74.8 188.44 75.2 187 77Z" fill="#090909" fill-rule="evenodd"/></svg>
