<svg data-contour-smoothing="organic-v2" xmlns="http://www.w3.org/2000/svg" viewBox="0 0 256 256"><!-- Iconic Drills Pack © 2026 Roman Kuzhel, Kyrgyzstan | CC BY 4.0 | https://github.com/roblo3x/iconic-drills-pack --><path d="M43.85194,177.69801c1.9304,-10.29362 3.34747,-21.32121 8.01054,-30.80492c8.74337,-17.78217 23.4613,-32.55511 35.04777,-48.45941c5.87094,-8.05881 9.81165,-17.45217 16.0988,-25.21026c6.57689,-8.11562 15.49419,-14.95312 23.80149,-21.20573c11.10675,-8.35965 23.70475,-14.95588 35.86989,-21.62652c4.86086,-2.66541 10.64045,-6.79164 16.40099,-6.71187c7.04422,0.09755 16.09058,5.74571 21.29108,10.19369c5.1122,4.37246 8.73597,9.97282 12.23032,15.64468c4.32559,7.02106 9.30385,15.60697 5.56874,24.13114c-2.6389,6.02242 -12.97652,8.17675 -18.37675,10.95641c-11.56302,5.95184 -21.7582,15.89346 -31.41518,24.4909c-13.59523,12.10359 -25.62674,27.84256 -33.55172,44.3012c-5.94664,12.35003 -8.54328,27.16573 -16.86277,38.26872c-3.56604,4.75915 -8.84535,8.16772 -13.75946,11.38335c-15.3945,10.07365 -31.99025,19.73031 -49.13762,26.47684c-5.33013,2.09711 -14.54521,4.14699 -17.56217,-2.69352c-1.07057,-2.42737 3.66616,-34.84469 6.34603,-49.13472zM56.83834,190.00399c0.27968,5.59456 6.46241,4.34823 10.04589,6.74369c2.38779,1.59617 3.67892,5.97895 6.52175,6.61929c2.3651,0.53274 5.03762,-1.75687 6.85523,-2.92082c5.02641,-3.21876 10.11174,-6.46832 14.86771,-10.07994c2.01811,-1.53252 4.20836,-3.294 4.42056,-6.03574c0.96709,-12.4953 -16.72987,-5.96912 -22.49464,-9.54385c-3.78493,-2.34703 -6.40492,-15.46596 -13.13878,-11.13702c-2.08488,1.34029 -2.5843,4.66613 -3.16379,6.84476c-1.53363,5.76573 -3.97858,18.21663 -3.91394,19.50961zM84.2106,155.75881c1.80095,3.25799 8.84739,3.9521 11.19798,0.98351c2.3317,-2.94472 3.55325,-7.34906 5.04129,-10.76837c3.19177,-7.33421 6.29516,-14.71343 9.64079,-21.97941c5.3973,-11.72176 13.4599,-21.22877 22.32118,-30.47919c8.88442,-9.27458 19.4184,-16.03006 29.09419,-24.34977c3.32527,-2.85923 6.11915,-7.76811 2.4473,-11.72522c-2.15343,-2.32072 -6.35409,-2.18294 -9.15512,-1.41166c-6.66557,1.8354 -13.22207,10.6206 -18.1405,15.26018c-22.67142,21.38608 -54.16315,81.36554 -52.44711,84.46992z" fill="#090909" fill-rule="evenodd"/></svg>
