<svg data-contour-smoothing="organic-v2" xmlns="http://www.w3.org/2000/svg" viewBox="0 0 256 256"><!-- Iconic Drills Pack © 2026 Roman Kuzhel, Kyrgyzstan | CC BY 4.0 | https://github.com/roblo3x/iconic-drills-pack --><path d="M36.21961,165.40048c6.14125,-3.99582 12.35102,-7.88529 18.49253,-11.88063c4.2439,-2.76085 9.68987,-5.56096 10.41763,-11.11407c0.67787,-5.17238 -1.8836,-10.63409 -3.61536,-15.37373c-3.42879,-9.3842 -7.03584,-18.70255 -10.45095,-28.09176c-1.81792,-4.99805 -5.24543,-12.38249 0.97705,-15.80358c5.33864,-2.93516 11.87013,1.65617 16.56043,4.02464c10.09624,5.09834 20.30054,10.06866 30.30967,15.32918c5.95139,3.12789 9.65175,6.1698 16.17313,2.21103c13.54982,-8.22535 25.35449,-19.72071 37.87098,-29.39264c7.4104,-5.72628 15.74713,-9.94675 23.36071,-15.35497c8.09821,-5.75247 15.17986,-13.09049 22.45446,-19.82314c5.67079,-5.24833 11.45972,-11.7316 18.66587,-14.86487c3.56931,-1.55195 8.04337,-1.45297 10.44055,2.0977c1.83081,2.71177 1.6979,6.48898 1.08748,9.54753c-1.4126,7.07794 -4.58337,14.06623 -7.68369,20.54221c-13.2199,27.61388 -30.85288,53.00219 -44.72896,80.28742c-2.55196,5.01806 4.49148,7.40179 8.16206,9.64101c7.96123,4.85669 16.12434,9.3711 24.15147,14.11587c3.40591,2.0132 6.97936,3.75822 7.24216,8.1695c0.40228,6.75241 -4.92893,10.43929 -10.75748,12.10409c-9.40232,2.68557 -22.4619,3.34446 -30.00016,10.22333c-7.82166,7.13748 -4.01628,19.59031 -5.41542,28.59455c-0.63431,4.08212 -2.78008,9.66649 -6.9496,11.29611c-5.05376,1.97521 -10.43768,-2.21509 -14.44256,-4.77799c-7.85419,-5.02622 -15.54616,-10.30276 -23.32552,-15.44294c-2.62226,-1.73265 -6.78765,-5.63415 -10.1374,-5.39878c-4.33428,0.30455 -9.58936,5.90644 -13.2257,8.10335c-8.45991,5.1111 -18.02467,8.88849 -27.11417,12.7304c-4.63234,1.95798 -12.31378,5.71351 -16.59657,1.173c-2.97354,-3.15247 -1.97833,-7.42023 -0.87353,-11.11354c2.2868,-7.64473 5.04828,-15.17928 7.61424,-22.73434c0.82437,-2.42723 3.49733,-6.46247 1.94716,-9.02842c-1.54659,-2.56002 -6.25425,-2.77114 -8.84633,-3.23557c-7.86998,-1.41007 -15.81591,-2.31764 -23.70601,-3.59481c-3.99702,-0.647 -1.27037,-11.07513 1.94183,-13.16517zM117.28359,161.92735c8.05874,4.48175 20.9327,-2.1538 20.98908,-11.5812c0.06386,-10.67759 -15.51066,-15.30751 -23.07345,-9.12507c-2.64153,2.1594 -2.56616,18.11994 2.08437,20.70626zM146.7411,189.08937c7.3266,1.37976 15.19951,-2.35732 16.43105,-10.25906c1.3729,-8.80868 -7.52074,-14.21488 -15.56454,-12.23359c-4.29422,1.05772 -7.91568,21.16512 -0.86652,22.49264z" fill="#090909" fill-rule="evenodd"/></svg>
