<svg xmlns="http://www.w3.org/2000/svg" viewBox="0 0 256 256"><!-- Iconic Drills Pack © 2026 Roman Kuzhel, Kyrgyzstan | CC BY 4.0 | https://github.com/roblo3x/iconic-drills-pack --><path d="M189 115L178 135L178 143L213 164L216 168L216 173L214 177L208 181L185 187L174 193L170 206L170 221L165 231L155 231L118 207L113 207L99 216L67 230L60 230L57 227L56 222L65 194L66 184L50 180L35 179L28 176L28 171L32 167L60 150L65 144L64 134L49 93L49 86L52 83L60 83L98 102L113 106L156 73L179 58L210 30L218 25L224 24L229 30L226 46L207 85ZM148 189L157 188L163 180L163 173L158 168L146 167L138 176L139 184L143 188ZM124 163L132 161L138 153L137 145L129 139L117 140L113 144L111 150L114 159L120 163Z" fill="#090909" fill-rule="evenodd"/></svg>
