<svg xmlns="http://www.w3.org/2000/svg" viewBox="0 0 256 256"><!-- Iconic Drills Pack © 2026 Roman Kuzhel, Kyrgyzstan | CC BY 4.0 | https://github.com/roblo3x/iconic-drills-pack --><path d="M28 171C31.84 167.88 55.56 153.24 60 150C64.44 146.76 64.52 145.92 65 144C65.48 142.08 65.92 140.12 64 134C62.08 127.88 50.8 98.76 49 93C47.2 87.24 48.64 87.2 49 86C49.36 84.8 50.68 83.36 52 83C53.32 82.64 54.48 80.72 60 83C65.52 85.28 91.64 99.24 98 102C104.36 104.76 106.04 109.48 113 106C119.96 102.52 148.08 78.76 156 73C163.92 67.24 172.52 63.16 179 58C185.48 52.84 204.96 34.08 210 30C215.04 25.92 218.84 24.36 221 24C223.16 23.64 227.04 25.44 228 27C228.96 28.56 230.08 32.8 229 37C227.92 41.2 225.12 50.24 219 62C212.88 73.76 182.92 125.28 178 135C173.08 144.72 173.8 139.52 178 143C182.2 146.48 208.44 161 213 164C217.56 167 215.64 166.92 216 168C216.36 169.08 216.24 171.92 216 173C215.76 174.08 214.96 176.04 214 177C213.04 177.96 211.48 179.8 208 181C204.52 182.2 189.08 185.56 185 187C180.92 188.44 175.8 190.72 174 193C172.2 195.28 170.48 202.64 170 206C169.52 209.36 170.6 218 170 221C169.4 224 166.8 229.8 165 231C163.2 232.2 160.64 233.88 155 231C149.36 228.12 123.04 209.88 118 207C112.96 204.12 115.28 205.92 113 207C110.72 208.08 104.16 213.36 99 216C93.84 218.64 74.68 227.32 70 229C65.32 230.68 61.68 230.84 60 230C58.32 229.16 55.4 226.32 56 222C56.6 217.68 63.8 198.56 65 194C66.2 189.44 70.08 185.92 66 184C61.92 182.08 35.56 178.96 31 178C26.44 177.04 28.36 176.84 28 176C27.64 175.16 24.16 174.12 28 171ZM111 150C111.12 151.8 112.92 157.44 114 159C115.08 160.56 117.84 162.76 120 163C122.16 163.24 129.84 162.2 132 161C134.16 159.8 137.4 154.92 138 153C138.6 151.08 138.08 146.68 137 145C135.92 143.32 131.4 139.6 129 139C126.6 138.4 118.92 139.4 117 140C115.08 140.6 113.72 142.8 113 144C112.28 145.2 110.88 148.2 111 150ZM138 176C137.16 178.04 138.04 182.44 139 184C139.96 185.56 143.84 188.52 146 189C148.16 189.48 154.96 189.08 157 188C159.04 186.92 162.4 182.04 163 180C163.6 177.96 162.96 172.56 162 171C161.04 169.44 156.92 167.48 155 167C153.08 166.52 148.04 165.92 146 167C143.96 168.08 138.84 173.96 138 176Z" fill="#090909" fill-rule="evenodd"/></svg>
