<svg xmlns="http://www.w3.org/2000/svg" viewBox="0 0 256 256" role="img" aria-hidden="true"><!-- Iconic Drills Pack © 2026 Roman Kuzhel, Kyrgyzstan | CC BY 4.0 | https://github.com/roblo3x/iconic-drills-pack --><path d="M32.74384,175.69112c4.8425,-2.24703 12.59055,-3.35949 14.63921,-9.16114c1.07464,-3.0433 0.13405,-6.71937 -0.35769,-9.78871c-0.84236,-5.25785 -1.92143,-10.48137 -2.6578,-15.75583c-2.02601,-14.51188 -0.70815,-29.581 5.64172,-42.93552c12.85045,-27.026 38.49938,-48.25638 68.85422,-51.78562c13.7768,-1.60178 30.25728,0.68386 43.55695,4.34673c8.61456,2.37254 18.44736,5.18951 25.99888,10.08405c7.25814,4.70438 14.48529,12.9988 18.88224,20.40522c6.84799,11.53507 13.36217,29.07288 5.0621,41.40215c-2.64694,3.93187 -5.59366,7.47541 -10.53318,8.239c-6.36203,0.98349 -16.65078,-4.47102 -12.25938,-12.09329c2.15799,-3.74567 7.51809,-1.46071 9.38373,-4.90136c3.97873,-7.33768 -6.35769,-13.37144 -11.67437,-15.28295c-8.66411,-3.11501 -18.87874,-1.47158 -27.3991,1.36759c-17.56829,5.85412 -35.21182,18.83145 -31.2618,39.65665c1.06605,5.62041 7.70871,6.5862 12.11338,3.79348c10.43824,-6.61822 14.9152,-19.44488 29.18878,-18.15667c1.9456,0.17559 3.92788,0.48213 5.60905,1.55933c6.5714,4.21058 4.9809,11.84229 0.4904,16.91328c-2.27976,2.57446 -5.82474,2.80933 -8.18093,5.14659c-5.0155,4.9752 -2.86489,13.44732 2.20569,17.15911c1.59795,1.16974 3.38399,2.13459 5.21938,2.8744c16.79383,6.76922 30.38507,-4.72506 46.09152,-7.70631c6.29055,-1.19401 12.3272,2.19276 9.80197,9.26789c-3.08108,8.63253 -12.474,16.90522 -19.64651,22.20656c-5.27904,3.90184 -10.87082,7.9336 -17.03511,10.30907c-29.0221,11.1839 -61.0146,3.80788 -91.09476,3.21994c-11.36386,-0.22212 -22.5246,1.91277 -33.81885,2.73277c-11.43556,0.83026 -26.71939,-1.54355 -37.1106,-6.56132c-6.09258,-2.94202 -4.55347,-24.3072 0.29086,-26.55508z" fill="currentColor" fill-rule="evenodd"/></svg>
