<svg xmlns="http://www.w3.org/2000/svg" viewBox="0 0 256 256" role="img" aria-hidden="true"><!-- Iconic Drills Pack © 2026 Roman Kuzhel, Kyrgyzstan | CC BY 4.0 | https://github.com/roblo3x/iconic-drills-pack --><path d="M47.27295,88.66992c4.21822,-9.43054 12.32844,-17.81926 18.76192,-25.80401c3.11485,-3.86592 6.3057,-9.15212 10.40297,-12.02694c1.60884,-1.12883 3.48602,-1.23277 5.25288,-1.96799c2.41925,-1.00669 4.56878,-2.76004 6.70549,-4.24351c8.80795,-6.11515 17.28368,-12.49241 27.68111,-15.62939c8.9558,-2.70204 18.40047,-2.96434 27.67972,-3.44415c10.8026,-0.55858 23.39458,-2.20149 33.52153,2.65974c4.85913,2.33252 4.56356,7.52356 0.19255,10.27057c-4.41018,2.77162 -10.2069,3.36113 -14.99436,5.35252c-8.04462,3.34624 -15.18757,8.3383 -21.57006,14.20806c-12.5988,11.5867 -24.08912,28.55096 -27.45866,45.58371c-2.07583,10.49313 -0.39523,23.35422 1.33645,33.83026c2.41879,14.63281 12.83293,26.57768 23.11734,36.47675c4.27713,4.11687 8.68016,8.40026 13.81822,11.43814c7.37567,4.36085 15.8276,7.30081 23.87052,10.16898c10.82559,3.86049 21.89699,5.08037 33.16765,6.94263c3.27411,0.54098 8.50676,2.13662 5.84409,6.57043c-3.6865,6.13869 -12.99659,11.02225 -19.43563,13.42793c-15.20085,5.67916 -30.59605,8.88464 -46.82922,8.64246c-16.00046,-0.2387 -32.03891,-1.60749 -47.05931,-7.60673c-6.76752,-2.70299 -13.06924,-6.73507 -19.2749,-10.51326c-13.10884,-7.98104 -24.73046,-18.24713 -31.75007,-32.26696c-4.07306,-8.13487 -5.17295,-18.18143 -6.85674,-27.03828c-1.77494,-9.33629 -1.27619,-53.51126 3.87649,-65.03095z" fill="currentColor" fill-rule="evenodd"/></svg>
