<svg xmlns="http://www.w3.org/2000/svg" viewBox="0 0 256 256" role="img" aria-hidden="true"><!-- Iconic Drills Pack © 2026 Roman Kuzhel, Kyrgyzstan | CC BY 4.0 | https://github.com/roblo3x/iconic-drills-pack --><path d="M24 102C24.72 99.48 27.96 91.88 30 89C32.04 86.12 37.64 79.92 41 78C44.36 76.08 53.92 73.6 58 73C62.08 72.4 71.88 75.76 75 73C78.12 70.24 81.84 54.08 84 50C86.16 45.92 88.44 41.76 93 39C97.56 36.24 117.56 28.44 122 27C126.44 25.56 126.88 26.16 130 27C133.12 27.84 145 32.32 148 34C151 35.68 153.2 38 155 41C156.8 44 159.64 57.2 163 59C166.36 60.8 178.44 55.76 183 56C187.56 56.24 197.88 59.2 201 61C204.12 62.8 207.68 67.52 209 71C210.32 74.48 210.68 87.24 212 90C213.32 92.76 218.08 92.56 220 94C221.92 95.44 226.68 100.2 228 102C229.32 103.8 230.64 106.96 231 109C231.36 111.04 231.36 117.08 231 119C230.64 120.92 229.32 123.44 228 125C226.68 126.56 222.04 130.68 220 132C217.96 133.32 214.6 135.52 211 136C207.4 136.48 193.6 134.8 190 136C186.4 137.2 182.68 144.56 181 146C179.32 147.44 178.52 147.64 176 148C173.48 148.36 163.36 149.6 160 149C156.64 148.4 150.16 143.72 148 143C145.84 142.28 144.16 142.04 142 143C139.84 143.96 133.96 149.68 130 151C126.04 152.32 114.64 154.6 109 154C103.36 153.4 87.2 148.16 83 146C78.8 143.84 77.6 137.08 74 136C70.4 134.92 56.48 137.12 53 137C49.52 136.88 47.04 135.96 45 135C42.96 134.04 38.04 130.8 36 129C33.96 127.2 29.44 122.28 28 120C26.56 117.72 24.48 112.16 24 110C23.52 107.84 23.28 104.52 24 102ZM56 177C56.36 173.76 62.56 160.76 64 158C65.44 155.24 67.04 154.48 68 154C68.96 153.52 71.28 153.64 72 154C72.72 154.36 73.76 155.8 74 157C74.24 158.2 74.72 161 74 164C73.28 167 69.56 179.48 68 182C66.44 184.52 62.44 185.6 61 185C59.56 184.4 55.64 180.24 56 177ZM62 219C62.48 216.24 66.8 207.28 68 205C69.2 202.72 71.04 200.6 72 200C72.96 199.4 75.28 199.04 76 200C76.72 200.96 78.36 204.76 78 208C77.64 211.24 73.96 224.48 73 227C72.04 229.52 71.08 228.88 70 229C68.92 229.12 64.96 229.2 64 228C63.04 226.8 61.52 221.76 62 219ZM96 188C96.96 185.12 102.56 171.64 104 169C105.44 166.36 107.16 166.24 108 166C108.84 165.76 110.4 166.64 111 167C111.6 167.36 112.76 168.04 113 169C113.24 169.96 113.6 172 113 175C112.4 178 109.2 191.24 108 194C106.8 196.76 104.08 197.64 103 198C101.92 198.36 99.84 197.6 99 197C98.16 196.4 96.36 194.08 96 193C95.64 191.92 95.04 190.88 96 188ZM116 219C116.6 216.72 119.92 208.16 121 206C122.08 203.84 124.04 201.6 125 201C125.96 200.4 128.28 200.64 129 201C129.72 201.36 130.76 202.68 131 204C131.24 205.32 131.48 209.36 131 212C130.52 214.64 127.96 223.96 127 226C126.04 228.04 123.96 228.64 123 229C122.04 229.36 119.84 229.48 119 229C118.16 228.52 116.36 226.2 116 225C115.64 223.8 115.4 221.28 116 219ZM144 182C144.6 179.24 148.68 169.52 150 167C151.32 164.48 154.04 161.72 155 161C155.96 160.28 157.4 160.76 158 161C158.6 161.24 159.76 161.2 160 163C160.24 164.8 160.36 173.12 160 176C159.64 178.88 157.72 185.2 157 187C156.28 188.8 155.08 190.4 154 191C152.92 191.6 149.08 192.12 148 192C146.92 191.88 145.48 191.2 145 190C144.52 188.8 143.4 184.76 144 182ZM165 213C165.6 210.12 170.44 199.16 172 197C173.56 194.84 177.04 195 178 195C178.96 195 179.76 196.04 180 197C180.24 197.96 180.48 200.12 180 203C179.52 205.88 177.56 218.84 176 221C174.44 223.16 168.32 221.96 167 221C165.68 220.04 164.4 215.88 165 213ZM185 172C185.48 169.36 188.8 160.4 190 158C191.2 155.6 194.04 152.72 195 152C195.96 151.28 197.4 151.76 198 152C198.6 152.24 199.76 152.56 200 154C200.24 155.44 200.48 161 200 164C199.52 167 196.96 176.84 196 179C195.04 181.16 193.2 181.88 192 182C190.8 182.12 186.84 181.2 186 180C185.16 178.8 184.52 174.64 185 172Z" fill="currentColor" fill-rule="evenodd"/></svg>
