<svg xmlns="http://www.w3.org/2000/svg" viewBox="0 0 256 256" role="img" aria-hidden="true"><!-- Iconic Drills Pack © 2026 Roman Kuzhel, Kyrgyzstan | CC BY 4.0 | https://github.com/roblo3x/iconic-drills-pack --><path d="M56.23653,73.34996c5.42482,-0.86948 12.67976,2.49809 17.63978,-0.14245c2.87859,-1.53246 3.92757,-5.36915 4.93307,-8.20785c2.44498,-6.9026 3.994,-14.18646 8.31292,-20.2508c4.03393,-5.66418 10.29464,-8.06664 16.49023,-10.65374c6.08073,-2.53913 12.30991,-5.4003 18.67416,-7.14884c4.74617,-1.30398 9.01331,0.36217 13.45826,1.98193c7.38074,2.68958 15.66176,5.24349 19.47676,12.74461c2.45168,4.82052 2.80768,12.61087 7.12545,16.24949c4.17382,3.51732 12.48462,-0.69194 17.1016,-1.46922c5.83609,-0.98251 12.07513,0.87568 17.53255,2.86767c7.20537,2.63 11.79589,8.66271 12.92969,16.19422c0.64497,4.28432 0.197,9.77771 2.169,13.71766c1.77807,3.55249 6.66627,3.85644 9.56866,6.22272c6.66167,5.43117 10.13413,12.03769 9.57866,20.70044c-0.63578,9.91528 -12.32886,19.37048 -21.97418,19.87075c-6.06789,0.31472 -14.09148,-2.19782 -19.75984,0.56023c-4.87548,2.37226 -6.06984,8.79003 -11.21739,10.78132c-5.20467,2.01339 -14.36829,2.77527 -19.70005,1.07279c-4.78307,-1.52728 -9.20405,-6.42444 -14.53828,-5.71453c-4.50731,0.59986 -7.92836,5.02499 -11.77813,7.11598c-7.53958,4.09511 -19.03733,5.23885 -27.3196,3.39786c-7.07462,-1.57255 -16.61912,-3.51946 -22.5664,-7.83688c-3.67643,-2.6689 -4.82294,-8.24247 -9.60337,-9.36806c-7.07315,-1.66543 -14.69068,1.70108 -21.86788,0.70492c-14.69858,-2.04007 -11.05118,-60.76403 5.33431,-63.39025zM64.51793,157.13619c1.66902,-2.37213 5.08539,-4.79277 7.90584,-2.55141c2.02056,1.60571 2.13058,4.78754 1.95544,7.11347c-0.38679,5.13691 -2.49995,10.47742 -4.21218,15.29943c-0.85487,2.4075 -1.74311,5.06046 -3.86623,6.67492c-5.18665,3.94402 -5.5489,-21.18389 -1.78287,-26.53642zM69.4866,202.57786c1.35137,-1.7534 3.84857,-4.06803 6.19986,-2.40959c5.61158,3.95804 0.63639,16.06388 -0.76463,20.99746c-0.63893,2.24993 -1.11809,5.55493 -3.0886,7.10575c-6.56765,5.16884 -6.06943,-20.86332 -2.34662,-25.69363zM103.6358,169.67236c1.63176,-2.75872 4.68027,-4.79056 7.69551,-2.48723c2.20321,1.68302 2.16871,4.5665 1.8544,7.04019c-0.66322,5.21977 -2.26051,10.53548 -3.72755,15.57925c-0.72181,2.48161 -1.5003,5.15847 -3.64153,6.82208c-6.05477,4.7042 -5.61656,-21.14569 -2.18083,-26.95428zM122.01296,204.21359c1.64171,-2.40498 4.96605,-5.09114 7.71053,-2.38729c1.84623,1.81889 1.75179,5.06928 1.63034,7.43274c-0.26267,5.11169 -1.81893,15.39034 -6.16721,18.69157c-6.66136,5.05734 -6.36491,-19.06209 -3.17366,-23.73702zM150.99769,165.33821c1.46065,-2.15599 4.49438,-5.99257 7.53179,-3.96147c2.16192,1.44567 1.8107,4.92986 1.83276,7.13699c0.06404,6.40654 -0.34089,16.31625 -5.0859,21.28146c-2.47637,2.5913 -7.96487,3.52205 -10.16105,0.08985c-1.45318,-2.27104 2.37907,-19.37576 5.8824,-24.54683zM171.25735,198.18685c1.5524,-2.26441 5.47494,-4.80706 7.94586,-2.14275c1.32089,1.42427 1.18499,3.75879 1.05923,5.51862c-0.33384,4.67162 -1.34945,9.48783 -2.41696,14.04186c-0.42341,1.80629 -0.82575,4.03487 -2.22659,5.39922c-5.79383,5.64289 -7.52482,-18.20282 -4.36154,-22.81694zM191.52915,155.55092c1.56519,-2.10963 4.8336,-5.45135 7.49979,-2.73196c1.73306,1.76764 1.41978,5.13686 1.35269,7.37119c-0.1399,4.65907 -1.37084,9.20678 -2.62605,13.67041c-0.66409,2.36157 -1.27412,5.32544 -3.28469,6.97049c-6.45621,5.28246 -6.61047,-20.33523 -2.94173,-25.28012z" fill="currentColor" fill-rule="evenodd"/></svg>
