<svg xmlns="http://www.w3.org/2000/svg" viewBox="0 0 256 256" role="img" aria-hidden="true"><!-- Iconic Drills Pack © 2026 Roman Kuzhel, Kyrgyzstan | CC BY 4.0 | https://github.com/roblo3x/iconic-drills-pack --><path d="M24 161C24.12 158.84 26.04 155.44 27 154C27.96 152.56 30.32 149.84 32 149C33.68 148.16 39.56 148.08 41 147C42.44 145.92 43.64 141.44 44 140C44.36 138.56 44.84 136.56 44 135C43.16 133.44 37.72 129.4 37 127C36.28 124.6 37.04 117.4 38 115C38.96 112.6 41.88 107.96 45 107C48.12 106.04 61.12 107.72 64 107C66.88 106.28 68.76 102.92 69 101C69.24 99.08 66.36 93.4 66 91C65.64 88.6 65.64 83.04 66 81C66.36 78.96 68.16 75.2 69 74C69.84 72.8 71.56 71.36 73 71C74.44 70.64 79.56 70.76 81 71C82.44 71.24 83.68 71.68 85 73C86.32 74.32 89.96 81.28 92 82C94.04 82.72 100.44 81.76 102 79C103.56 76.24 102.84 63.08 105 59C107.16 54.92 117.36 46.56 120 45C122.64 43.44 125.8 45.52 127 46C128.2 46.48 129.04 46.12 130 49C130.96 51.88 133.44 67.48 135 70C136.56 72.52 141.8 70.72 143 70C144.2 69.28 144.04 65.44 145 64C145.96 62.56 148.6 59.2 151 58C153.4 56.8 162.36 53.64 165 54C167.64 54.36 171.92 58.36 173 61C174.08 63.64 171.36 74.2 174 76C176.64 77.8 191.4 75.52 195 76C198.6 76.48 202.32 78.8 204 80C205.68 81.2 208.28 83.96 209 86C209.72 88.04 208.2 94.6 210 97C211.8 99.4 222.08 103.48 224 106C225.92 108.52 225.16 115.72 226 118C226.84 120.28 230.4 122.96 231 125C231.6 127.04 231.72 132.96 231 135C230.28 137.04 225.72 140.56 225 142C224.28 143.44 224.16 144.12 225 147C225.84 149.88 231.28 161.8 232 166C232.72 170.2 231.96 179.36 231 182C230.04 184.64 227.48 186.56 224 188C220.52 189.44 209.56 192.92 202 194C194.44 195.08 174.68 195.32 161 197C147.32 198.68 101.44 206.32 88 208C74.56 209.68 54.52 211 49 211C43.48 211 43.32 208.96 42 208C40.68 207.04 38.84 205.16 38 203C37.16 200.84 35.36 193 35 190C34.64 187 36.08 180.16 35 178C33.92 175.84 27.32 174.04 26 172C24.68 169.96 23.88 163.16 24 161ZM49 181C48.28 185.56 48.88 188.68 49 190C49.12 191.32 49.4 191.76 50 192C50.6 192.24 52.68 195.48 54 192C55.32 188.52 58.48 169.72 61 163C63.52 156.28 70.92 141.76 75 136C79.08 130.24 89.72 119.2 95 115C100.28 110.8 114.2 103.16 119 101C123.8 98.84 129.36 97.36 135 97C140.64 96.64 159.4 96.68 166 98C172.6 99.32 184.84 104.76 190 108C195.16 111.24 206.36 122.96 209 125C211.64 127.04 211.64 125.36 212 125C212.36 124.64 212.84 123.56 212 122C211.16 120.44 206.92 114.16 205 112C203.08 109.84 199.6 106.4 196 104C192.4 101.6 180.4 94.04 175 92C169.6 89.96 156.4 87.6 151 87C145.6 86.4 134.2 86.64 130 87C125.8 87.36 120.2 88.44 116 90C111.8 91.56 100.28 96.28 95 100C89.72 103.72 76.2 116.2 72 121C67.8 125.8 62.04 136.28 60 140C57.96 143.72 56.32 147.08 55 152C53.68 156.92 49.72 176.44 49 181ZM136 142C135.28 144.88 135.4 150.48 136 153C136.6 155.52 139.32 160.96 141 163C142.68 165.04 147.72 168.68 150 170C152.28 171.32 157.84 173.28 160 174C162.16 174.72 164.88 175.76 168 176C171.12 176.24 183 176.36 186 176C189 175.64 191.44 174.32 193 173C194.56 171.68 198.28 167.52 199 165C199.72 162.48 199.84 155.24 199 152C198.16 148.76 193.68 140.64 192 138C190.32 135.36 187.4 131.92 185 130C182.6 128.08 175.72 123.08 172 122C168.28 120.92 156.76 120.88 154 121C151.24 121.12 150.44 122.04 149 123C147.56 123.96 143.56 126.72 142 129C140.44 131.28 136.72 139.12 136 142Z" fill="currentColor" fill-rule="evenodd"/></svg>
