<svg xmlns="http://www.w3.org/2000/svg" viewBox="0 0 256 256" role="img" aria-hidden="true"><!-- Iconic Drills Pack © 2026 Roman Kuzhel, Kyrgyzstan | CC BY 4.0 | https://github.com/roblo3x/iconic-drills-pack --><path d="M37 104C37 99.44 38.16 96.92 39 95C39.84 93.08 42.32 89.32 44 88C45.68 86.68 50.84 84.36 53 84C55.16 83.64 60.08 83.92 62 85C63.92 86.08 67.92 89.4 69 93C70.08 96.6 70.4 111.4 71 115C71.6 118.6 72.56 121.32 74 123C75.44 124.68 80.72 128.52 83 129C85.28 129.48 91.44 127.84 93 127C94.56 126.16 95.64 124.04 96 122C96.36 119.96 96.84 116 96 110C95.16 104 89.96 79.92 89 72C88.04 64.08 87.64 48.56 88 44C88.36 39.44 90.92 35.8 92 34C93.08 32.2 95.2 30.08 97 29C98.8 27.92 104.6 25.48 107 25C109.4 24.52 114.72 24.52 117 25C119.28 25.48 123.96 27.32 126 29C128.04 30.68 132.56 35.4 134 39C135.44 42.6 137.52 52.28 138 59C138.48 65.72 137.64 89.6 138 95C138.36 100.4 140.16 102.44 141 104C141.84 105.56 143.08 107.52 145 108C146.92 108.48 154.72 108.84 157 108C159.28 107.16 162.92 102.44 164 101C165.08 99.56 165.88 99.24 166 96C166.12 92.76 164.28 77.96 165 74C165.72 70.04 169.6 65.04 172 63C174.4 60.96 182 57.72 185 57C188 56.28 194.6 56.4 197 57C199.4 57.6 203.2 59.84 205 62C206.8 64.16 210.56 71.28 212 75C213.44 78.72 216.28 88.68 217 93C217.72 97.32 218.24 107.64 218 111C217.76 114.36 216.2 118.6 215 121C213.8 123.4 210.52 128.96 208 131C205.48 133.04 198.92 136.44 194 138C189.08 139.56 170.84 142.92 167 144C163.16 145.08 163.08 145.92 162 147C160.92 148.08 158.12 149.88 158 153C157.88 156.12 158.96 168.44 161 173C163.04 177.56 173.56 185.72 175 191C176.44 196.28 173.48 213.16 173 217C172.52 220.84 171.84 221.68 171 223C170.16 224.32 176.2 226.92 166 228C155.8 229.08 96.2 232 86 232C75.8 232 81.84 229.08 81 228C80.16 226.92 79.24 226.36 79 223C78.76 219.64 77.2 205.52 79 200C80.8 194.48 91.96 181.32 94 177C96.04 172.68 96.6 166.28 96 164C95.4 161.72 92 158.48 89 158C86 157.52 74.72 159.88 71 160C67.28 160.12 61 160.08 58 159C55 157.92 48.28 154.12 46 151C43.72 147.88 40.08 138.64 39 133C37.92 127.36 37 108.56 37 104Z" fill="currentColor" fill-rule="evenodd"/></svg>
