<svg xmlns="http://www.w3.org/2000/svg" viewBox="0 0 256 256" role="img" aria-hidden="true"><!-- Iconic Drills Pack © 2026 Roman Kuzhel, Kyrgyzstan | CC BY 4.0 | https://github.com/roblo3x/iconic-drills-pack --><path d="M43.1221,65.97807c3.5865,-8.10096 7.86469,-15.24971 14.21793,-21.51154c17.67408,-17.41978 44.9054,-22.65529 68.82755,-20.61658c9.40508,0.80153 17.55325,6.23357 26.71567,8.0174c9.16982,1.78527 18.7133,0.25 27.88791,1.95229c11.94767,2.21681 23.74265,11.87492 28.94971,22.69788c11.83872,24.60695 11.34578,60.70558 -10.08654,79.87553c-5.08032,4.54404 -11.72644,9.86578 -18.2327,12.09847c-4.72093,1.62003 -11.16001,1.12226 -14.7406,5.15233c-4.00926,4.51256 -4.66125,13.1979 -5.73564,18.90528c-1.94555,10.33517 -3.88833,23.80614 3.22042,32.82075c4.25958,5.40157 10.61694,3.95996 15.76514,7.47325c3.17083,2.16387 4.60372,6.91108 1.35113,9.7205c-4.72139,4.0781 -13.80227,2.67757 -19.27036,1.42531c-12.13069,-2.77807 -24.71594,-7.63368 -37.28122,-4.84446c-13.60863,3.02082 -26.43053,9.77823 -40.18003,12.10822c-3.72071,0.63051 -12.56187,1.75308 -13.49584,-3.44649c-0.78104,-4.34817 2.34519,-7.22337 5.41129,-9.64764c3.10971,-2.45875 6.3489,-4.93531 9.8744,-6.77129c4.10987,-2.1403 8.80317,-3.24775 12.49669,-6.14398c5.68043,-4.45424 6.97404,-10.8202 8.11564,-17.56298c1.45988,-8.62267 2.33578,-17.09921 2.01116,-25.85046c-0.14655,-3.95074 0.51078,-10.15712 -1.52843,-13.68625c-1.62023,-2.80401 -6.00686,-2.30905 -8.73482,-2.37249c-7.19659,-0.16736 -14.89773,0.52729 -21.7498,-2.07375c-7.76395,-2.9472 -13.17383,-8.62983 -18.59137,-14.6795c-11.78358,-13.1585 -17.36585,-58.18679 -15.2173,-63.0398zM80.79199,126.12674c3.17325,0.80323 6.64087,0.58208 9.87894,0.45091c7.38823,-0.29929 14.60928,-2.20459 17.08507,-10.28925c0.76667,-2.50354 0.43508,-5.28491 0.19395,-7.84073c-0.30367,-3.21866 -0.58867,-6.69791 -2.06274,-9.6334c-3.80711,-7.58154 -12.58348,-9.56517 -20.20863,-10.41721c-3.76563,-0.42078 -8.11485,-1.17971 -11.58654,0.78328c-4.99679,2.82533 -4.055,34.22405 6.69995,36.94639zM78.69483,70.58278c5.14344,3.15136 13.56361,2.48864 19.37685,3.79641c6.04273,1.3594 10.39379,5.46442 15.96393,7.8108c7.10065,2.99109 16.78948,1.44041 21.71973,-4.51617c1.5848,-1.91472 3.42535,-4.18997 3.5445,-6.79753c0.15254,-3.33826 -2.6478,-5.77861 -3.10834,-9.00161c-0.73909,-5.17235 1.50295,-10.74097 -2.1939,-15.19737c-2.50891,-3.02438 -6.43129,-4.78229 -9.92352,-6.38156c-18.01174,-8.24849 -49.44046,27.79874 -45.37925,30.28703zM166.12462,135.53505c6.19382,-1.6575 12.35457,-6.59426 12.90324,-13.35863c0.65062,-8.0213 -0.24364,-18.59584 -7.7055,-23.3817c-3.84295,-2.46478 -8.98998,-2.76183 -13.40223,-3.31287c-4.03758,-0.50424 -7.86463,-0.8387 -11.52808,1.28601c-7.60246,4.40924 6.40131,42.33471 19.73257,38.7672zM163.73911,76.8031c8.42669,12.67319 32.00299,13.56877 36.10512,-3.76539c1.99047,-8.41105 -3.71864,-20.04794 -12.22309,-22.58529c-9.14392,-2.72814 -27.32505,21.1726 -23.88203,26.35068z" fill="currentColor" fill-rule="evenodd"/></svg>
