<svg xmlns="http://www.w3.org/2000/svg" viewBox="0 0 256 256" role="img" aria-hidden="true"><!-- Iconic Drills Pack © 2026 Roman Kuzhel, Kyrgyzstan | CC BY 4.0 | https://github.com/roblo3x/iconic-drills-pack --><path d="M79 213L80 197L94 177L96 164L89 158L71 160L58 159L46 151L40 137L37 116L38 98L42 90L53 84L64 86L69 93L71 115L74 123L83 129L93 127L96 122L96 110L89 72L88 44L92 34L97 29L107 25L123 27L134 39L138 59L138 95L141 104L145 108L157 108L164 101L166 96L165 74L172 63L185 57L197 57L204 61L212 75L217 93L218 111L215 121L209 130L202 135L167 144L162 147L158 153L161 173L175 191L175 203L171 223L166 228L162 229L86 232L80 226Z" fill="currentColor" fill-rule="evenodd"/></svg>
