<svg xmlns="http://www.w3.org/2000/svg" viewBox="0 0 256 256" role="img" aria-hidden="true"><!-- Iconic Drills Pack © 2026 Roman Kuzhel, Kyrgyzstan | CC BY 4.0 | https://github.com/roblo3x/iconic-drills-pack --><path d="M54 124L47 115L40 100L38 92L39 75L52 50L64 39L83 29L105 24L128 24L153 32L178 33L199 43L212 61L217 81L217 98L211 122L206 130L191 143L176 151L167 153L162 166L159 185L160 197L168 209L179 212L183 216L183 221L179 224L167 225L141 219L125 219L86 231L73 231L71 229L72 222L85 212L98 206L105 197L109 172L108 149L104 146L86 146L73 142ZM92 126L98 126L106 120L108 116L107 102L104 96L95 90L77 88L70 93L65 104L65 112L74 123L85 127ZM135 121L136 127L143 134L149 136L164 136L170 134L177 128L179 123L177 105L173 100L167 97L157 95L146 97L139 105ZM171 83L177 86L186 86L193 83L198 78L200 65L195 56L189 51L179 50L165 56L161 60L160 70L167 81ZM107 78L116 83L127 83L137 77L139 68L136 63L136 50L128 42L118 38L99 39L89 44L78 56L76 66L79 71L97 74Z" fill="currentColor" fill-rule="evenodd"/></svg>
