<svg xmlns="http://www.w3.org/2000/svg" viewBox="0 0 256 256" role="img" aria-hidden="true"><!-- Iconic Drills Pack © 2026 Roman Kuzhel, Kyrgyzstan | CC BY 4.0 | https://github.com/roblo3x/iconic-drills-pack --><path d="M36.53708,90.70774c7.56326,-12.01509 16.00315,-22.74039 26.36645,-32.47843c8.96156,-8.42087 23.54702,-15.31816 32.46463,-3.22352c1.9133,2.59494 3.91939,5.5355 4.59402,8.7417c2.14526,10.19536 -6.39626,20.84568 -10.26835,29.673c-9.80236,22.34672 -13.16734,58.88624 13.35595,70.86124c3.04545,1.37499 6.19653,2.42237 9.50854,2.91272c6.97892,1.03325 14.91725,1.59961 21.93908,0.77012c6.52005,-0.77021 12.62519,-4.74195 17.8419,-8.49678c6.24017,-4.49149 12.85702,-10.19477 17.07664,-16.6929c6.57179,-10.12043 8.3298,-22.74492 8.04347,-34.51378c-0.18205,-7.48276 -0.84375,-16.74536 -5.69062,-22.89571c-2.98299,-3.78522 -7.74818,-4.922 -11.99103,-6.68608c-8.39526,-3.49055 -23.41191,-11.50508 -24.33762,-21.81954c-0.31189,-3.47515 2.43184,-5.89588 4.86125,-7.90505c4.96859,-4.10912 10.57422,-8.55382 16.33378,-11.48489c14.88284,-7.57395 21.01689,15.39385 27.77556,24.38041c5.67024,7.53936 14.86645,11.19162 21.78128,17.36148c14.91215,13.3056 26.77269,33.76256 26.05116,54.20936c-0.56744,16.08011 -8.4299,31.04423 -17.79405,43.76804c-26.08503,35.44377 -70.88723,51.11805 -113.45002,39.98186c-15.76895,-4.12581 -29.51206,-11.95779 -42.30521,-21.83173c-12.61439,-9.73596 -23.88646,-18.5642 -29.97451,-33.81259c-4.38406,-10.98051 1.01754,-60.01611 7.81769,-70.81892z" fill="currentColor" fill-rule="evenodd"/></svg>
