<svg xmlns="http://www.w3.org/2000/svg" viewBox="0 0 256 256" role="img" aria-hidden="true"><!-- Iconic Drills Pack © 2026 Roman Kuzhel, Kyrgyzstan | CC BY 4.0 | https://github.com/roblo3x/iconic-drills-pack --><path d="M30.44596,97.93305c7.9214,-16.65235 21.40693,-26.12068 36.75134,-35.24195c13.24756,-7.87482 26.61898,-14.89991 40.99416,-20.49279c13.45265,-5.23395 29.13177,-13.29212 43.87268,-12.09887c18.8811,1.5284 35.26239,11.7228 49.05137,24.3186c4.83872,4.42003 9.91647,9.0886 13.52923,14.60082c5.36495,8.18566 9.16717,18.00443 12.22349,27.26049c2.69727,8.16868 5.426,16.54724 5.59613,25.21415c0.29544,15.05029 -3.40991,28.81782 -11.08455,41.8025c-2.61299,4.4209 -6.91595,11.08829 -11.89917,13.02736c-5.87172,2.2848 -15.73823,1.42526 -21.70432,-0.17148c-9.52409,-2.54899 -17.67759,-9.54674 -26.33589,-14.04692c-5.50042,-2.85886 -13.36288,-4.23071 -19.0835,-0.94572c-4.03915,2.31944 -5.3257,7.73996 -5.58852,12.03081c-0.57929,9.45749 3.19257,18.13082 2.09087,27.44917c-0.72588,6.13959 -5.45146,10.44986 -10.12898,14.0447c-11.28447,8.67248 -25.73687,13.0437 -38.94087,6.38349c-3.00066,-1.51356 -5.7327,-3.28513 -7.86447,-5.92776c-3.90696,-4.84322 -7.7504,-11.95818 -4.8205,-18.16823c2.21962,-4.70458 8.34181,-6.72402 12.26091,-9.729c5.15188,-3.95021 9.63577,-9.43469 13.59506,-14.54807c3.31211,-4.27755 5.17284,-9.20356 6.64762,-14.36556c0.59366,-2.0779 1.81122,-5.22236 -0.1752,-6.97717c-1.79987,-1.59001 -5.20834,-1.55787 -7.44341,-1.63447c-7.3391,-0.25151 -14.3955,2.57267 -21.29968,4.71396c-5.04699,1.5653 -10.15335,3.36867 -15.36946,4.28273c-14.12876,2.4759 -35.70626,-2.36906 -40.63865,-17.86417c-1.56464,-4.91533 1.58014,-34.12068 5.76432,-42.91664zM50.7231,134.90728c4.79569,1.05497 13.37727,0.98725 17.57422,-1.79396c7.1695,-4.75105 10.53348,-14.95089 8.00843,-23.04669c-2.33772,-7.49518 -8.57289,-9.56996 -15.52206,-6.99108c-8.40969,3.12089 -17.28717,30.24201 -10.06058,31.83174zM103.21058,203.54145c6.60258,0.95602 13.26123,-6.37813 10.76914,-12.87298c-2.90769,-7.578 -15.17603,12.23488 -10.76914,12.87298zM168.60138,118.44594c2.67613,1.74359 5.61225,3.81295 8.94344,3.82276c6.06084,0.01785 10.60026,-5.92799 12.66975,-11.05658c7.87658,-19.51967 -28.66626,2.63849 -21.61318,7.23382zM211.99298,143.86352c3.53113,-11.73097 -7.99705,-20.33636 -18.748,-14.84838c-3.43442,1.75315 14.06762,30.39738 18.748,14.84838z" fill="currentColor" fill-rule="evenodd"/></svg>
