<svg xmlns="http://www.w3.org/2000/svg" viewBox="0 0 256 256" role="img" aria-hidden="true"><!-- Iconic Drills Pack © 2026 Roman Kuzhel, Kyrgyzstan | CC BY 4.0 | https://github.com/roblo3x/iconic-drills-pack --><path d="M24 125C24.36 121.4 26.04 111.6 27 108C27.96 104.4 29.48 98.96 32 95C34.52 91.04 40.8 80.52 48 75C55.2 69.48 80.96 54.28 92 49C103.04 43.72 131.96 33.16 140 31C148.04 28.84 155.04 30.52 159 31C162.96 31.48 168.56 32.72 173 35C177.44 37.28 191.08 46.04 196 50C200.92 53.96 210.52 63.08 214 68C217.48 72.92 222.84 85.36 225 91C227.16 96.64 231.16 109.84 232 115C232.84 120.16 232.36 130.16 232 134C231.64 137.84 230.32 143.4 229 147C227.68 150.6 223.04 160.64 221 164C218.96 167.36 213.68 173.44 212 175C210.32 176.56 209.4 176.76 207 177C204.6 177.24 195 177.36 192 177C189 176.64 186.2 176.04 182 174C177.8 171.96 161.8 161.56 157 160C152.2 158.44 144.4 159.8 142 161C139.6 162.2 137.6 167 137 170C136.4 173 136.76 183.48 137 186C137.24 188.52 138.88 188.72 139 191C139.12 193.28 139.44 202 138 205C136.56 208 130.36 213.72 127 216C123.64 218.28 113.6 223.04 110 224C106.4 224.96 99.88 224.6 97 224C94.12 223.4 87.92 220.2 86 219C84.08 217.8 82.2 215.8 81 214C79.8 212.2 76.36 206.28 76 204C75.64 201.72 76.2 197.16 78 195C79.8 192.84 87.76 189 91 186C94.24 183 102.72 173.48 105 170C107.28 166.52 109.4 159.28 110 157C110.6 154.72 111.68 151.84 110 151C108.32 150.16 101.52 149.04 96 150C90.48 150.96 70.36 158.16 64 159C57.64 159.84 46.72 157.84 43 157C39.28 156.16 35.04 153.56 33 152C30.96 150.44 27.08 145.68 26 144C24.92 142.32 24.24 140.28 24 138C23.76 135.72 23.64 128.6 24 125ZM43 121C42.04 123.28 42.52 126.56 43 128C43.48 129.44 46.04 132.16 47 133C47.96 133.84 48.6 134.88 51 135C53.4 135.12 64.12 135.2 67 134C69.88 132.8 73.8 126.92 75 125C76.2 123.08 76.88 119.92 77 118C77.12 116.08 76.84 110.92 76 109C75.16 107.08 71.8 102.72 70 102C68.2 101.28 63.28 102.16 61 103C58.72 103.84 53.16 106.84 51 109C48.84 111.16 43.96 118.72 43 121ZM99 196C98.76 197.44 100.04 202.16 101 203C101.96 203.84 105.56 203.48 107 203C108.44 202.52 112.16 200.56 113 199C113.84 197.44 114.48 191.32 114 190C113.52 188.68 110.32 187.88 109 188C107.68 188.12 104.2 190.04 103 191C101.8 191.96 99.24 194.56 99 196ZM156 100C155.76 102.16 156.72 108.36 159 111C161.28 113.64 172 120.92 175 122C178 123.08 182.08 121.56 184 120C185.92 118.44 190.52 111.76 191 109C191.48 106.24 189.68 99.28 188 97C186.32 94.72 179.76 90.72 177 90C174.24 89.28 166.92 90.64 165 91C163.08 91.36 162.08 91.92 161 93C159.92 94.08 156.24 97.84 156 100ZM186 138C185.28 140.04 185.8 144.32 187 146C188.2 147.68 193.96 151.28 196 152C198.04 152.72 202.56 152.24 204 152C205.44 151.76 207.04 150.96 208 150C208.96 149.04 211.52 145.92 212 144C212.48 142.08 212.84 135.92 212 134C211.16 132.08 207.28 128.6 205 128C202.72 127.4 195.28 127.8 193 129C190.72 130.2 186.72 135.96 186 138Z" fill="currentColor" fill-rule="evenodd"/></svg>
