<svg xmlns="http://www.w3.org/2000/svg" viewBox="0 0 256 256" role="img" aria-hidden="true"><!-- Iconic Drills Pack © 2026 Roman Kuzhel, Kyrgyzstan | CC BY 4.0 | https://github.com/roblo3x/iconic-drills-pack --><path d="M52.98073,207.30417c6.07411,-3.55429 15.33459,-11.89254 16.45206,-19.28688c0.49983,-3.30742 -1.77737,-6.30099 -3.46432,-8.90736c-2.88529,-4.45781 -6.03377,-8.7865 -8.58632,-13.44993c-6.9931,-12.77617 -11.53488,-29.65776 -8.88513,-44.25883c2.72805,-15.03253 14.42418,-29.34304 22.42747,-42.026c2.89957,-4.59501 5.87613,-11.2958 10.66148,-14.19739c6.28973,-3.81378 14.64357,-1.8476 20.9371,-5.74201c3.91582,-2.4231 6.70465,-6.53014 9.83925,-9.81573c3.98438,-4.1763 9.22623,-8.06155 14.64052,-10.1568c7.46308,-2.8881 15.89139,-1.64571 23.43734,-4.363c5.57243,-2.00663 10.80675,-5.42744 16.77061,-6.18381c6.57061,-0.83332 13.38467,1.05802 19.89317,-0.1393c5.68127,-1.04514 10.73891,-6.29966 16.73753,-2.50226c2.99302,1.89472 3.18902,5.5013 2.95263,8.67265c-0.48847,6.55317 -3.62307,15.33937 -1.00053,21.65667c2.05078,4.94001 6.97333,7.90319 8.9132,13.01673c1.85856,4.8992 1.83216,10.56818 2.17817,15.73704c0.43127,6.44254 1.28872,13.52241 -0.2291,19.87098c-1.37172,5.73748 -4.47829,11.22458 -7.47289,16.25452c-4.58589,7.70279 -14.22536,13.30524 -17.3981,21.59811c-3.19123,8.34119 2.16208,15.11443 1.75225,23.16494c-0.20438,4.01468 -2.15879,7.63825 -3.91186,11.16443c-3.59382,7.22872 -7.1695,14.26127 -13.58248,19.39475c-9.39837,7.52324 -23.25672,12.06593 -35.26932,12.17115c-12.62441,0.11058 -25.16538,-2.8743 -37.8186,-2.27848c-4.83497,0.22767 -8.90983,1.95428 -12.98343,4.47763c-5.08707,3.15113 -9.64657,7.11554 -14.81728,10.12784c-5.14128,2.99515 -10.86886,5.11382 -16.37598,7.32924c-3.43764,1.3829 -7.47593,3.64502 -11.25698,3.67174c-8.46478,0.05982 0.21419,-21.9313 5.45956,-25.00066zM93.16761,155.52543c5.22853,10.3758 -1.82359,23.99116 -7.4528,33.23884c-2.47683,4.06894 -6.29286,6.80935 -8.85989,10.65872c-0.67188,1.0075 -1.56017,3.42558 0.48533,3.76208c2.92353,0.48095 7.47111,-4.46512 9.51431,-6.14558c3.03937,-2.49977 6.23557,-5.13655 8.30521,-8.538c4.47786,-7.3594 5.439,-16.50968 9.22907,-24.2296c6.69169,-13.63019 15.15407,-27.07509 26.94546,-36.82699c3.18306,-2.6325 6.89718,-3.73563 10.40768,-5.77123c5.44868,-3.15947 10.9503,-8.32777 14.85222,-13.2499c5.11321,-6.45013 9.37284,-15.21437 11.5873,-23.12317c1.43199,-5.11426 2.09983,-10.49002 4.01461,-15.46136c2.5858,-6.71352 6.79611,-13.25401 11.99696,-18.2071c1.51998,-1.44758 6.13484,-4.67081 4.98758,-7.3256c-0.73292,-1.696 -3.37601,-0.67842 -4.46233,-0.26354c-3.14968,1.2029 -5.63308,3.46925 -8.02823,5.76322c-6.32872,6.06138 -11.60333,12.82131 -14.57176,21.17543c-1.56413,4.40198 -2.06241,9.09076 -3.36293,13.56577c-3.94358,13.56957 -15.02009,23.77706 -26.48701,31.39886c-3.98455,2.64844 -7.54429,3.96704 -11.08262,7.45238c-4.35652,4.29128 -7.90447,8.85499 -11.18936,14.00342c-2.00794,3.14705 -3.87507,7.34621 -6.68196,9.85901c-4.76018,4.26146 -7.63456,-8.48254 -8.73246,-11.25317c-2.26315,-5.71124 -6.49436,-9.94661 -9.21799,-15.35007c-1.77459,-3.52064 -2.55884,-7.63621 -3.13019,-11.50837c-0.49063,-3.3251 -0.39063,-6.61661 -0.32809,-9.96349c0.02559,-1.36918 0.42937,-4.11473 -0.84284,-5.16811c-1.49238,-1.23567 -2.85698,1.61701 -3.24837,2.42719c-1.4381,2.9769 7.15989,42.82127 15.35309,59.08033z" fill="currentColor" fill-rule="evenodd"/></svg>
