<svg xmlns="http://www.w3.org/2000/svg" viewBox="0 0 256 256" role="img" aria-hidden="true"><!-- Iconic Drills Pack © 2026 Roman Kuzhel, Kyrgyzstan | CC BY 4.0 | https://github.com/roblo3x/iconic-drills-pack --><path d="M216 66L221 61L228 61L232 67L231 72L188 113L188 117L193 122L195 131L189 147L189 152L198 156L204 162L208 172L207 184L201 195L194 202L180 208L152 206L145 214L139 216L85 216L77 213L70 205L52 197L42 187L28 155L24 139L24 129L32 120L32 97L34 91L40 79L47 72L66 64L77 64L83 67L87 72L89 83L92 87L103 86L118 76L130 76L140 83L143 90L143 102L147 105L154 105L165 102L196 51L206 39L213 41L216 45L216 49L194 79L182 97L182 100L185 100ZM48 98L46 105L47 114L67 111L75 114L82 120L91 120L103 112L115 111L123 115L130 127L136 131L146 130L150 128L154 122L154 119L142 120L134 116L129 107L129 97L124 93L116 94L100 104L86 104L76 95L75 86L71 82L65 82L56 87ZM184 188L191 179L191 172L189 169L179 166L167 188L167 192L179 192ZM67 144L119 152L149 151L170 145L178 137L179 131L176 126L172 126L168 128L157 141L144 146L136 146L125 141L119 130L113 126L107 126L92 135L77 134L69 127L59 126L53 128L49 132L49 136L61 143Z" fill="currentColor" fill-rule="evenodd"/></svg>
