<svg xmlns="http://www.w3.org/2000/svg" viewBox="0 0 256 256" role="img" aria-hidden="true"><!-- Iconic Drills Pack © 2026 Roman Kuzhel, Kyrgyzstan | CC BY 4.0 | https://github.com/roblo3x/iconic-drills-pack --><path d="M24 147C24.12 145.2 26.04 141.44 27 140C27.96 138.56 30.32 136.2 32 135C33.68 133.8 38.96 130.72 41 130C43.04 129.28 47.68 128.64 49 129C50.32 129.36 51.4 131.08 52 133C52.6 134.92 52.44 142.84 54 145C55.56 147.16 62.48 150.28 65 151C67.52 151.72 70.2 152.44 75 151C79.8 149.56 100.56 140.44 105 139C109.44 137.56 108.04 137.32 112 139C115.96 140.68 133.08 151.08 138 153C142.92 154.92 150 155.24 153 155C156 154.76 160.24 153.04 163 151C165.76 148.96 172.4 139.68 176 138C179.6 136.32 189.64 137.48 193 137C196.36 136.52 201.72 134.96 204 134C206.28 133.04 210.44 130.32 212 129C213.56 127.68 215.2 123.36 217 123C218.8 122.64 225.2 124.92 227 126C228.8 127.08 232 130.08 232 132C232 133.92 229.16 140.32 227 142C224.84 143.68 215.56 145.16 214 146C212.44 146.84 213.52 148.28 214 149C214.48 149.72 217.4 150.8 218 152C218.6 153.2 219.12 157.44 219 159C218.88 160.56 217.72 163.8 217 165C216.28 166.2 214.68 168.04 213 169C211.32 169.96 208.64 172.04 203 173C197.36 173.96 176.2 176.28 166 177C155.8 177.72 127.12 179 118 179C108.88 179 97.68 177.96 90 177C82.32 176.04 60.96 172.92 54 171C47.04 169.08 35.36 162.92 32 161C28.64 159.08 26.96 156.68 26 155C25.04 153.32 23.88 148.8 24 147ZM30 103C30.96 99.52 34.88 86.28 38 81C41.12 75.72 52.16 62.6 56 59C59.84 55.4 64.48 53.4 70 51C75.52 48.6 94.56 40.8 102 39C109.44 37.2 123.48 35.52 132 36C140.52 36.48 166.04 41.2 173 43C179.96 44.8 186.28 48.36 190 51C193.72 53.64 201 61.52 204 65C207 68.48 213.2 76.76 215 80C216.8 83.24 218.4 88.52 219 92C219.6 95.48 220.12 106.24 220 109C219.88 111.76 218.84 113.68 218 115C217.16 116.32 215.16 118.92 213 120C210.84 121.08 209.96 122.68 200 124C190.04 125.32 143.56 130.16 130 131C116.44 131.84 96.96 131.6 87 131C77.04 130.4 53.48 127.68 47 126C40.52 124.32 35.04 118.92 33 117C30.96 115.08 30.36 111.68 30 110C29.64 108.32 29.04 106.48 30 103ZM35 179C35.24 177.08 35.92 175.08 37 174C38.08 172.92 41.84 169.52 44 170C46.16 170.48 50.44 175.96 55 178C59.56 180.04 72.16 185.8 82 187C91.84 188.2 124.88 188.48 137 188C149.12 187.52 173.64 184.8 183 183C192.36 181.2 210.56 173.84 215 173C219.44 172.16 219.16 174.68 220 176C220.84 177.32 222.24 181.6 222 184C221.76 186.4 219.44 193.6 218 196C216.56 198.4 212.16 202.44 210 204C207.84 205.56 206.24 207.32 200 209C193.76 210.68 167.48 216.68 158 218C148.52 219.32 130.6 220.24 121 220C111.4 219.76 85.68 217.32 78 216C70.32 214.68 61.08 210.68 57 209C52.92 207.32 46.28 203.56 44 202C41.72 200.44 39.08 197.44 38 196C36.92 194.56 35.36 192.04 35 190C34.64 187.96 34.76 180.92 35 179ZM80 72C79.52 73.2 81.04 77.28 82 78C82.96 78.72 86.8 78.48 88 78C89.2 77.52 91.76 75.2 92 74C92.24 72.8 90.72 68.72 90 68C89.28 67.28 87.2 67.52 86 68C84.8 68.48 80.48 70.8 80 72ZM120 69C119.76 69.96 119.64 73.16 120 74C120.36 74.84 122.04 75.76 123 76C123.96 76.24 127.04 76.36 128 76C128.96 75.64 130.88 74.2 131 73C131.12 71.8 130.08 66.84 129 66C127.92 65.16 123.08 65.64 122 66C120.92 66.36 120.24 68.04 120 69ZM140 89C140 90.08 140.68 93.52 142 94C143.32 94.48 149.92 93.84 151 93C152.08 92.16 151.48 88.08 151 87C150.52 85.92 148.08 84.24 147 84C145.92 83.76 142.84 84.4 142 85C141.16 85.6 140 87.92 140 89ZM159 67C158.28 68.08 159.92 74.04 161 75C162.08 75.96 166.92 75.24 168 75C169.08 74.76 169.76 73.72 170 73C170.24 72.28 170.36 69.84 170 69C169.64 68.16 168.32 66.24 167 66C165.68 65.76 159.72 65.92 159 67ZM175 88C174.88 89.2 175.92 93.28 177 94C178.08 94.72 182.92 94.24 184 94C185.08 93.76 185.76 92.96 186 92C186.24 91.04 186.36 86.96 186 86C185.64 85.04 183.96 84.24 183 84C182.04 83.76 178.96 83.52 178 84C177.04 84.48 175.12 86.8 175 88Z" fill="currentColor" fill-rule="evenodd"/></svg>
