<svg xmlns="http://www.w3.org/2000/svg" viewBox="0 0 256 256" role="img" aria-hidden="true"><!-- Iconic Drills Pack © 2026 Roman Kuzhel, Kyrgyzstan | CC BY 4.0 | https://github.com/roblo3x/iconic-drills-pack --><path d="M55.4686,139.16158c7.36829,-18.64296 16.27729,-36.36298 22.32516,-55.52802c1.58767,-5.03116 2.9375,-10.30888 5.37679,-15.01158c2.10473,-4.05769 5.45799,-7.71741 6.54124,-12.24284c2.42607,-10.13526 -5.12699,-22.1593 4.25061,-30.1778c3.64893,-3.12009 8.79239,-2.46097 13.2484,-2.31548c11.2925,0.36871 19.89076,4.98226 29.8265,9.99513c12.47816,6.2956 24.90077,12.70496 37.27286,19.20646c6.96817,3.66176 14.52718,7.02929 20.85754,11.74975c5.2026,3.87951 9.16736,9.86762 13.16733,14.91732c6.52054,8.23174 13.77692,16.50879 19.17531,25.53682c3.63132,6.07287 0.18591,10.8383 -3.8616,15.63722c-8.76968,10.39775 -22.0811,12.26382 -32.24097,20.76491c-11.41099,9.54795 -25.42226,13.77456 -37.88469,21.76797c-28.09521,18.02029 -55.26774,36.91496 -84.96904,52.27509c-11.02273,5.70044 -22.29213,12.63351 -33.98249,16.84106c-3.45676,1.24414 -7.62334,-0.93018 -9.44485,-4.10436c-0.62857,-1.09535 19.1505,-60.99562 30.34189,-89.31165zM76.0682,166.48806c5.02044,8.41694 16.77866,9.27748 24.79903,5.0912c7.91425,-4.13089 11.93245,-12.96789 11.43925,-21.62495c-0.63945,-11.22426 -13.30879,-17.53403 -23.59844,-14.41235c-7.7108,2.3393 -15.4349,26.26009 -12.63984,30.9461zM101.16064,94.98911c0.32412,2.58571 0.79515,5.33354 2.35392,7.49979c9.93698,13.8096 33.31682,5.47167 34.52019,-10.75108c0.28634,-3.86014 -0.62965,-10.25311 -2.9513,-13.45054c-4.67496,-6.43844 -17.5984,-7.00366 -24.15249,-3.71854c-5.13715,2.57491 -10.11499,17.67062 -9.77031,20.42037zM146.54405,124.93255c-0.04168,2.5082 0.10471,5.42133 1.4407,7.62906c4.73202,7.81967 18.84562,6.1224 25.00179,1.06843c3.55435,-2.91797 5.23259,-7.85201 5.28611,-12.33787c0.15594,-13.07029 -15.75946,-16.61892 -25.16523,-10.19005c-3.22092,2.2015 -6.52904,11.76503 -6.56337,13.83043z" fill="currentColor" fill-rule="evenodd"/></svg>
