<svg xmlns="http://www.w3.org/2000/svg" viewBox="0 0 256 256" role="img" aria-hidden="true"><!-- Iconic Drills Pack © 2026 Roman Kuzhel, Kyrgyzstan | CC BY 4.0 | https://github.com/roblo3x/iconic-drills-pack --><path d="M66.20369,76.22974c7.31637,-1.4994 16.55698,-1.2194 23.83959,0.36167c2.96895,0.64456 8.36155,3.39871 11.31213,1.85932c3.07293,-1.60322 1.96829,-8.1076 1.45462,-10.76487c-0.50748,-2.62526 -1.72055,-5.00729 -2.38809,-7.58219c-1.97669,-7.62469 -0.16539,-19.411 9.0806,-21.21621c9.06046,-1.76898 16.00233,6.57678 18.81526,14.31083c1.27198,3.49726 1.02082,10.50198 6.14463,10.64011c3.82417,0.10309 8.43661,-7.79866 10.93675,-10.26357c7.59117,-7.48419 14.90791,-15.3823 24.83311,-19.71393c4.6748,-2.04021 10.48572,-3.53383 15.2561,-0.78204c12.06443,6.95936 -1.17487,22.17021 -5.81618,29.0815c-1.66771,2.48336 -5.6798,7.21682 -2.32549,9.9779c3.46681,2.85369 9.6008,0.61219 13.22625,-0.66641c9.25277,-3.26319 17.23778,-5.5766 27.1893,-4.65436c4.32943,0.40122 9.57863,2.05681 11.62252,6.30169c5.27678,10.95915 -6.5074,15.93618 -14.403,19.0058c-2.24446,0.87259 -9.25457,2.43362 -8.97722,5.75831c0.20418,2.44758 3.52542,3.96719 5.35623,4.92333c4.09246,2.13727 8.59688,3.79592 11.58554,7.49591c11.96948,14.8183 10.41198,32.72586 0.45154,48.025c-5.88642,9.04149 -15.41574,14.68463 -24.64003,19.78704c-21.22955,11.74312 -46.13102,18.64459 -69.58719,24.25978c-11.12388,2.66296 -20.94423,8.2496 -31.01147,13.50338c-5.84964,3.05274 -11.74557,6.50948 -18.3162,7.70883c-6.14187,1.12109 -13.74733,1.60112 -19.85216,0.09841c-13.74726,-3.3839 -22.16208,-14.62068 -27.17625,-26.95961c-6.11226,-15.04111 -0.1128,-113.62978 33.38909,-120.4956zM63.63403,161.54969c5.23908,-2.45491 8.94817,-14.46477 5.24591,-19.22204c-5.06055,-6.50263 -15.15112,23.86339 -5.24591,19.22204zM67.10851,123.74214c5.2606,-2.70085 7.43157,-12.94611 5.71989,-18.20189c-1.05366,-3.2353 -5.31668,-3.79077 -8.18545,-3.01539c-4.32363,1.16861 -6.29989,25.71756 2.46556,21.21728zM82.65022,186.92464c6.48735,-2.08188 10.17762,-12.42038 8.11873,-18.48004c-2.15277,-6.33597 -9.08797,-3.92023 -12.44524,-0.34403c-1.43329,1.52675 -4.54085,21.66974 4.32651,18.82408zM102.20177,148.74287c4.6786,-2.20249 7.20725,-13.6561 5.47204,-18.21119c-0.99946,-2.62368 -4.04417,-3.03541 -6.48096,-2.96601c-6.05614,0.17248 -8.09884,25.46475 1.00891,21.1772z" fill="currentColor" fill-rule="evenodd"/></svg>
