<svg xmlns="http://www.w3.org/2000/svg" viewBox="0 0 256 256" role="img" aria-hidden="true"><!-- Iconic Drills Pack © 2026 Roman Kuzhel, Kyrgyzstan | CC BY 4.0 | https://github.com/roblo3x/iconic-drills-pack --><path d="M48 138L47 154L42 169L42 177L45 181L61 185L82 187L98 192L105 192L108 190L111 179L113 146L111 139L95 116L85 112L67 114L54 124ZM173 68L180 71L185 77L188 77L187 72L181 66L170 61L163 61L163 64ZM182 47L191 49L207 58L220 72L229 89L232 103L231 122L226 134L218 142L147 195L120 210L93 211L78 206L39 199L28 192L25 187L24 179L28 146L32 131L41 112L56 95L87 72L108 64L139 48L158 44L169 44ZM139 88L129 80L113 77L113 80L131 88L143 99L146 99L146 95Z" fill="currentColor" fill-rule="evenodd"/></svg>
