<svg xmlns="http://www.w3.org/2000/svg" viewBox="0 0 256 256" role="img" aria-hidden="true"><!-- Iconic Drills Pack © 2026 Roman Kuzhel, Kyrgyzstan | CC BY 4.0 | https://github.com/roblo3x/iconic-drills-pack --><path d="M159 35L167 48L168 66L174 66L185 70L191 79L194 91L189 104L184 109L175 114L161 115L161 118L164 118L164 123L146 183L130 229L124 232L120 230L114 215L85 118L90 115L102 114L113 122L126 124L141 120L148 115L159 117L159 114L145 111L134 117L121 118L106 109L98 109L82 114L75 113L66 106L62 97L62 87L65 79L70 74L83 68L84 54L89 43L95 37L117 26L127 24L148 27ZM119 141L111 150L111 154L115 154L129 138L129 133L126 133ZM129 167L141 152L141 148L138 148L130 156L117 173L117 176L121 176ZM127 198L134 188L134 184L131 184L122 196L122 199Z" fill="currentColor" fill-rule="evenodd"/></svg>
