<svg xmlns="http://www.w3.org/2000/svg" viewBox="0 0 256 256" role="img" aria-hidden="true"><!-- Iconic Drills Pack © 2026 Roman Kuzhel, Kyrgyzstan | CC BY 4.0 | https://github.com/roblo3x/iconic-drills-pack --><path d="M24 144C24 140.4 25.92 133.24 27 130C28.08 126.76 30.36 121.56 33 117C35.64 112.44 45.88 96.2 49 92C52.12 87.8 57.44 83.92 59 82C60.56 80.08 59.96 78.16 62 76C64.04 73.84 71.32 67.12 76 64C80.68 60.88 92.96 53.12 101 50C109.04 46.88 134.6 39.56 143 38C151.4 36.44 165.36 36.52 171 37C176.64 37.48 185.68 40.44 190 42C194.32 43.56 203.64 48.08 207 50C210.36 51.92 215.24 55.24 218 58C220.76 60.76 228.32 70.12 230 73C231.68 75.88 231.88 80.2 232 82C232.12 83.8 231.36 86.8 231 88C230.64 89.2 230.44 90.56 229 92C227.56 93.44 219.72 97.72 219 100C218.28 102.28 222.52 108.36 223 111C223.48 113.64 223.6 119.6 223 122C222.4 124.4 218.48 127.88 218 131C217.52 134.12 219.48 144.76 219 148C218.52 151.24 215.2 156.2 214 158C212.8 159.8 210.32 162.16 209 163C207.68 163.84 204.08 163.8 203 165C201.92 166.2 201.2 171.2 200 173C198.8 174.8 194.92 178.68 193 180C191.08 181.32 185.8 183.52 184 184C182.2 184.48 180.04 182.68 178 184C175.96 185.32 171.92 191.76 167 195C162.08 198.24 141.92 209.08 137 211C132.08 212.92 127.8 210.4 126 211C124.2 211.6 123.2 215.04 122 216C120.8 216.96 118.4 218.52 116 219C113.6 219.48 104.52 220.12 102 220C99.48 219.88 96.32 218 95 218C93.68 218 93.04 219.76 91 220C88.96 220.24 81.24 220.72 78 220C74.76 219.28 66.4 215.68 64 214C61.6 212.32 59.32 207.08 58 206C56.68 204.92 54.92 206.32 53 205C51.08 203.68 43.68 197.16 42 195C40.32 192.84 39.24 189.76 39 187C38.76 184.24 41.44 175.24 40 172C38.56 168.76 28.92 163.36 27 160C25.08 156.64 24 147.6 24 144ZM55 180C52.96 181.32 55.4 189.2 56 191C56.6 192.8 58.44 194.4 60 195C61.56 195.6 67.56 195.04 69 196C70.44 196.96 71.04 201.68 72 203C72.96 204.32 75.44 206.4 77 207C78.56 207.6 82.96 208.48 85 208C87.04 207.52 91.84 203.12 94 203C96.16 202.88 100.72 206.52 103 207C105.28 207.48 111.2 207.36 113 207C114.8 206.64 117.04 204.96 118 204C118.96 203.04 119.44 199.6 121 199C122.56 198.4 129.32 199.48 131 199C132.68 198.52 134.28 196.32 135 195C135.72 193.68 136.76 191.96 137 188C137.24 184.04 137.36 166.68 137 162C136.64 157.32 135.08 150.44 134 149C132.92 147.56 130.76 148.2 128 150C125.24 151.8 115.68 160.88 111 164C106.32 167.12 93.56 174.08 89 176C84.44 177.92 77.08 179.52 73 180C68.92 180.48 57.04 178.68 55 180ZM65 92C64.52 92.72 62.72 93.68 65 95C67.28 96.32 80.16 100.96 84 103C87.84 105.04 93.64 109.12 97 112C100.36 114.88 109.24 123.64 112 127C114.76 130.36 118.56 138.44 120 140C121.44 141.56 123.04 140.36 124 140C124.96 139.64 127.52 137.84 128 137C128.48 136.16 128.96 135.28 128 133C127.04 130.72 122.76 121.6 120 118C117.24 114.4 109.2 106.12 105 103C100.8 99.88 88.6 93.68 85 92C81.4 90.32 76.92 89.36 75 89C73.08 88.64 70.2 88.64 69 89C67.8 89.36 65.48 91.28 65 92ZM120 56C118.32 56.12 117.84 57.44 120 59C122.16 60.56 133.56 65.76 138 69C142.44 72.24 153.16 81.08 157 86C160.84 90.92 167.6 107.36 170 110C172.4 112.64 176.28 109.2 177 108C177.72 106.8 176.84 102.4 176 100C175.16 97.6 172.52 91.6 170 88C167.48 84.4 159.32 73.6 155 70C150.68 66.4 138.2 59.68 134 58C129.8 56.32 121.68 55.88 120 56ZM174 123C170.64 130.56 173.92 166.12 175 172C176.08 177.88 181.08 172.72 183 172C184.92 171.28 189.8 167.68 191 166C192.2 164.32 191.68 159.44 193 158C194.32 156.56 200.32 155.2 202 154C203.68 152.8 206.28 150.16 207 148C207.72 145.84 208.12 138.04 208 136C207.88 133.96 205.64 132.56 206 131C206.36 129.44 210.4 124.8 211 123C211.6 121.2 211.48 117.68 211 116C210.52 114.32 207.96 109.84 207 109C206.04 108.16 206.96 107.32 203 109C199.04 110.68 177.36 115.44 174 123Z" fill="currentColor" fill-rule="evenodd"/></svg>
