<svg xmlns="http://www.w3.org/2000/svg" viewBox="0 0 256 256" role="img" aria-hidden="true"><!-- Iconic Drills Pack © 2026 Roman Kuzhel, Kyrgyzstan | CC BY 4.0 | https://github.com/roblo3x/iconic-drills-pack --><path d="M70.28403,73.98634c3.69236,-2.12581 9.56042,-2.50949 12.21503,-6.13737c2.28743,-3.12608 1.08643,-7.95361 1.3439,-11.54005c0.36422,-5.07332 3.03918,-10.50197 6.03799,-14.54948c3.59045,-4.84605 9.50125,-7.25612 14.73372,-9.89145c5.25271,-2.64552 10.66902,-5.80465 16.44247,-7.13487c12.78853,-2.94651 29.9187,0.22958 38.66984,10.64814c3.22663,3.84143 6.64451,8.86409 7.34585,13.93134c0.6463,4.66958 -1.50416,11.44298 0.98206,15.65872c2.60502,4.41717 10.50936,1.77524 14.57833,3.54172c6.64677,2.88557 9.34926,11.74296 10.75934,18.19955c2.5997,11.90366 -7.89069,23.64347 -18.66497,27.18908c-3.48583,1.14712 -10.48385,-0.66582 -13.20571,1.67769c-1.59245,1.3711 2.00791,2.93351 2.40425,4.05185c0.62216,1.75555 -0.15634,3.89504 -0.72505,5.53614c-4.09158,11.80696 -6.43924,23.91053 -10.36991,35.92266c-5.79759,17.7174 -11.66898,35.41078 -17.54763,53.10142c-1.68831,5.08063 -2.76227,15.03549 -8.47248,17.17612c-3.31893,1.24419 -6.29874,-0.52668 -8.03332,-3.34705c-3.68724,-5.99531 -5.12361,-14.03307 -7.18167,-20.70873c-7.06098,-22.9035 -14.0557,-45.83078 -20.82693,-68.8218c-1.69237,-5.74626 -3.41004,-11.49119 -4.94979,-17.28071c-0.55298,-2.07922 -1.89216,-5.29967 -1.1683,-7.46817c0.61177,-1.83272 5.73496,0.89514 7.34059,0.79489c3.27012,-0.20418 6.54419,-1.28569 9.80605,-0.28834c3.82138,1.16843 6.40006,4.7068 9.72216,6.73914c3.35332,2.05143 7.58152,2.70431 11.45097,2.90717c5.65438,0.29645 12.28092,-1.41094 17.40266,-3.78759c2.40258,-1.11487 4.15425,-3.2522 6.55759,-4.29622c3.20574,-1.39259 6.3504,0.33758 9.5575,0.64253c0.80218,0.07628 3.78688,0.00393 2.43012,-1.79948c-1.36302,-1.81174 -4.95359,-2.21127 -6.9794,-2.67385c-2.52824,-0.5773 -5.22195,-1.18075 -7.79764,-0.50294c-5.9711,1.57134 -9.81939,5.95953 -16.35913,6.63031c-10.05279,1.03112 -14.45104,-7.5 -23.36731,-9.36707c-7.88939,-1.65204 -15.44047,4.42699 -23.09712,5.1878c-14.15549,1.40657 -16.41207,-36.84482 -11.03404,-39.94112zM113.58244,154.62399c1.82848,-0.46371 3.27518,-2.31973 4.48515,-3.61911c3.19226,-3.42811 6.38961,-6.95424 9.2635,-10.65586c1.39732,-1.79976 3.35619,-4.45042 2.03248,-6.85814c-1.47866,-2.68955 -4.28759,0.349 -5.45247,1.55155c-4.56165,4.70914 -14.80535,20.71687 -10.32866,19.58155zM122.50295,174.84324c6.14828,-4.79705 10.97095,-12.61358 15.64919,-18.78629c1.14601,-1.51211 5.36308,-6.13021 2.56911,-8.0053c-2.55251,-1.71305 -6.19859,2.95785 -7.62784,4.44443c-5.87545,6.11117 -14.22296,25.18133 -10.59046,22.34715zM125.94261,198.91141c3.04518,-1.94816 6.06709,-6.83929 7.64685,-10.02489c0.65591,-1.32266 1.6737,-3.90986 -0.01768,-5.05171c-1.68467,-1.13732 -3.53316,1.15532 -4.41205,2.17058c-2.70878,3.12904 -7.25965,15.49224 -3.21712,12.90602z" fill="currentColor" fill-rule="evenodd"/></svg>
