<svg xmlns="http://www.w3.org/2000/svg" viewBox="0 0 256 256" role="img" aria-hidden="true"><!-- Iconic Drills Pack © 2026 Roman Kuzhel, Kyrgyzstan | CC BY 4.0 | https://github.com/roblo3x/iconic-drills-pack --><path d="M62 87C62.36 84.84 64.04 80.56 65 79C65.96 77.44 67.84 75.32 70 74C72.16 72.68 81.32 70.4 83 68C84.68 65.6 83.28 57 84 54C84.72 51 87.68 45.04 89 43C90.32 40.96 91.64 39.04 95 37C98.36 34.96 113.16 27.56 117 26C120.84 24.44 124 24.12 127 24C130 23.88 138.64 24.16 142 25C145.36 25.84 152.72 29.56 155 31C157.28 32.44 159.56 34.96 161 37C162.44 39.04 166.16 44.52 167 48C167.84 51.48 166.2 63.6 168 66C169.8 68.4 179.6 67.16 182 68C184.4 68.84 186.92 71.68 188 73C189.08 74.32 190.28 76.84 191 79C191.72 81.16 194.24 88 194 91C193.76 94 191.28 101.24 189 104C186.72 106.76 178.36 112.68 175 114C171.64 115.32 162.68 114.52 161 115C159.32 115.48 160.64 117.64 161 118C161.36 118.36 163.64 117.4 164 118C164.36 118.6 164.6 120.84 164 123C163.4 125.16 159.72 133.36 159 136C158.28 138.64 161.24 134.44 158 145C154.76 155.56 135.36 213.92 132 224C128.64 234.08 130.72 228.04 130 229C129.28 229.96 127.2 231.88 126 232C124.8 232.12 121.44 232.04 120 230C118.56 227.96 118.2 228.44 114 215C109.8 201.56 87.88 130 85 118C82.12 106 87.96 115.48 90 115C92.04 114.52 99.24 113.16 102 114C104.76 114.84 110.12 120.8 113 122C115.88 123.2 122.64 124.24 126 124C129.36 123.76 138.36 121.08 141 120C143.64 118.92 145.84 115.36 148 115C150.16 114.64 157.68 117.12 159 117C160.32 116.88 160.68 114.72 159 114C157.32 113.28 148 110.64 145 111C142 111.36 136.88 116.16 134 117C131.12 117.84 124.36 118.96 121 118C117.64 117.04 108.76 110.08 106 109C103.24 107.92 100.88 108.4 98 109C95.12 109.6 84.76 113.52 82 114C79.24 114.48 76.92 113.96 75 113C73.08 112.04 67.56 107.92 66 106C64.44 104.08 62.48 99.28 62 97C61.52 94.72 61.64 89.16 62 87ZM111 150C109.2 152.52 110.52 153.52 111 154C111.48 154.48 112.84 155.92 115 154C117.16 152.08 127.32 140.52 129 138C130.68 135.48 129.36 133.6 129 133C128.64 132.4 128.16 130.96 126 133C123.84 135.04 112.8 147.48 111 150ZM117 173C115.44 175.4 116.52 175.64 117 176C117.48 176.36 119.8 176.72 121 176C122.2 175.28 124.6 172.88 127 170C129.4 167.12 139.32 154.64 141 152C142.68 149.36 141.36 148.48 141 148C140.64 147.52 139.32 147.04 138 148C136.68 148.96 132.52 153 130 156C127.48 159 118.56 170.6 117 173ZM122 196C120.92 197.8 121.52 198.64 122 199C122.48 199.36 124.56 200.32 126 199C127.44 197.68 133.04 189.8 134 188C134.96 186.2 134.36 184.48 134 184C133.64 183.52 132.44 182.56 131 184C129.56 185.44 123.08 194.2 122 196Z" fill="currentColor" fill-rule="evenodd"/></svg>
