<svg xmlns="http://www.w3.org/2000/svg" viewBox="0 0 256 256" role="img" aria-hidden="true"><!-- Iconic Drills Pack © 2026 Roman Kuzhel, Kyrgyzstan | CC BY 4.0 | https://github.com/roblo3x/iconic-drills-pack --><path d="M34.42506,110.88789c6.35228,-13.97329 12.53126,-28.06714 23.1716,-39.39735c5.88871,-6.2705 13.7148,-10.7306 21.2285,-14.76446c15.47428,-8.30762 33.22125,-15.0927 50.33799,-19.109c7.11337,-1.66909 14.56152,-1.89258 21.8381,-2.08447c16.0268,-0.42265 32.27363,0.54239 46.14294,9.61542c11.75616,7.69064 20.08793,19.76779 26.33234,32.05298c2.93367,5.77168 6.5441,11.90328 7.93511,18.27784c1.52564,6.99155 0.44783,14.8307 0.0789,21.91291c-0.37202,7.14148 -0.22285,14.90665 -2.29271,21.80464c-2.42546,8.08303 -7.89726,15.6853 -12.40371,22.73915c-8.31807,13.02011 -19.92577,25.88282 -32.73337,34.68704c-7.57443,5.20683 -16.6454,8.76989 -25.19673,12.02581c-19.72744,7.51122 -39.31002,11.5641 -60.48062,10.64611c-10.71368,-0.46456 -20.87456,-4.33189 -30.44877,-8.91947c-10.81071,-5.18006 -21.27154,-11.30742 -29.08971,-20.63367c-4.26933,-5.09287 -6.87699,-11.46439 -9.20157,-17.61766c-3.83165,-10.14257 0.16661,-51.08388 4.7817,-61.23582zM94.85953,203.16406c7.1179,2.09319 16.6783,2.15663 23.66985,-0.38674c2.13555,-0.77687 5.27357,-1.81966 5.99699,-4.29903c1.18961,-4.07713 -4.33687,-6.49845 -7.35078,-7.23812c-2.57824,-0.63275 -5.30286,-0.62199 -7.93988,-0.67087c-6.45969,-0.11972 -19.2096,11.17338 -14.37619,12.59476zM112.00369,122.94858c1.65584,16.8223 18.68025,18.85382 32.10976,17.29188c4.62499,-0.53792 9.17619,-1.18605 13.36596,-3.34498c13.46258,-6.93707 20.60726,-21.84561 16.81584,-36.56189c-1.22549,-4.75671 -5.93817,-11.75015 -10.61857,-13.68516c-3.98559,-1.64775 -9.48359,-1.20117 -13.72043,-1.1824c-17.98182,0.07969 -38.21604,34.80582 -37.95256,37.48255z" fill="currentColor" fill-rule="evenodd"/></svg>
