<svg xmlns="http://www.w3.org/2000/svg" viewBox="0 0 256 256" role="img" aria-hidden="true"><!-- Iconic Drills Pack © 2026 Roman Kuzhel, Kyrgyzstan | CC BY 4.0 | https://github.com/roblo3x/iconic-drills-pack --><path d="M40 128C40.24 123.68 41.52 108.88 42 106C42.48 103.12 41.48 105.2 44 104C46.52 102.8 58.68 97.2 63 96C67.32 94.8 77.84 98.68 80 94C82.16 89.32 80.52 61.8 81 57C81.48 52.2 82.92 54.36 84 54C85.08 53.64 89.28 54.36 90 54C90.72 53.64 90.72 51.96 90 51C89.28 50.04 84.72 47.56 84 46C83.28 44.44 83.04 40.28 84 38C84.96 35.72 90.44 28.08 92 27C93.56 25.92 96.16 28.04 97 29C97.84 29.96 98.76 33.2 99 35C99.24 36.8 99.36 42.2 99 44C98.64 45.8 96.72 49.16 96 50C95.28 50.84 93.36 50.52 93 51C92.64 51.48 92.28 53.52 93 54C93.72 54.48 98.04 54.4 99 55C99.96 55.6 100.76 54.68 101 59C101.24 63.32 98.24 87.28 101 91C103.76 94.72 121.24 94.32 124 90C126.76 85.68 123.76 59.44 124 55C124.24 50.56 125.16 53.24 126 53C126.84 52.76 130.4 53.48 131 53C131.6 52.52 131.48 49.96 131 49C130.52 48.04 127.48 46.44 127 45C126.52 43.56 126.4 39.28 127 37C127.6 34.72 130.68 27.44 132 26C133.32 24.56 136.8 23.32 138 25C139.2 26.68 141.76 37.48 142 40C142.24 42.52 140.72 44.92 140 46C139.28 47.08 136.48 48.16 136 49C135.52 49.84 135.28 52.52 136 53C136.72 53.48 141.04 52.4 142 53C142.96 53.6 143.76 53.56 144 58C144.24 62.44 141.84 86.16 144 90C146.16 93.84 159.72 93.96 162 90C164.28 86.04 162.64 61.2 163 57C163.36 52.8 164.04 55.24 165 55C165.96 54.76 170.28 55.48 171 55C171.72 54.52 171.24 51.48 171 51C170.76 50.52 169.6 51.6 169 51C168.4 50.4 166.36 47.56 166 46C165.64 44.44 165.52 39.8 166 38C166.48 36.2 168.92 32.08 170 31C171.08 29.92 173.8 28.04 175 29C176.2 29.96 179.52 36.84 180 39C180.48 41.16 179.72 45.56 179 47C178.28 48.44 174.6 50.04 174 51C173.4 51.96 173.28 54.4 174 55C174.72 55.6 179.16 55.52 180 56C180.84 56.48 180.88 54.68 181 59C181.12 63.32 178 87.56 181 92C184 96.44 202.28 95.04 206 96C209.72 96.96 211.04 98.92 212 100C212.96 101.08 213.52 99.84 214 105C214.48 110.16 215.88 137.48 216 143C216.12 148.52 216.32 149.32 215 151C213.68 152.68 207.52 156.64 205 157C202.48 157.36 196.88 155.92 194 154C191.12 152.08 183.64 142.56 181 141C178.36 139.44 173.56 140.76 172 141C170.44 141.24 170.28 141.08 168 143C165.72 144.92 155.76 155.56 153 157C150.24 158.44 147.16 156.56 145 155C142.84 153.44 137.28 145.8 135 144C132.72 142.2 127.92 140.36 126 140C124.08 139.64 121.4 139.44 119 141C116.6 142.56 108.76 151.32 106 153C103.24 154.68 98.76 156.32 96 155C93.24 153.68 85.28 143.92 83 142C80.72 140.08 78.92 139.12 77 139C75.08 138.88 69.4 139.56 67 141C64.6 142.44 59.04 149.8 57 151C54.96 152.2 52.04 152.08 50 151C47.96 149.92 41.2 144.76 40 142C38.8 139.24 39.76 132.32 40 128ZM40 155C40.36 147.2 41.68 151.92 43 153C44.32 154.08 49.08 162.56 51 164C52.92 165.44 56.72 166.2 59 165C61.28 163.8 67.96 155.44 70 154C72.04 152.56 73.36 151.08 76 153C78.64 154.92 89.48 167.72 92 170C94.52 172.28 95.32 171.88 97 172C98.68 172.12 102.88 173.04 106 171C109.12 168.96 120.24 156.8 123 155C125.76 153.2 126.24 153.96 129 156C131.76 158.04 142.52 170.2 146 172C149.48 173.8 154.52 173.04 158 171C161.48 168.96 172.36 156.8 175 155C177.64 153.2 178.68 154.92 180 156C181.32 157.08 184.32 162.44 186 164C187.68 165.56 191.6 168.52 194 169C196.4 169.48 203.6 168.84 206 168C208.4 167.16 212.8 162.48 214 162C215.2 161.52 216 157.4 216 164C216 170.6 214.48 210.16 214 217C213.52 223.84 213.2 220.16 212 221C210.8 221.84 209.64 222.8 204 224C198.36 225.2 175.68 230.16 165 231C154.32 231.84 126.28 231.48 115 231C103.72 230.52 79.16 228.08 71 227C62.84 225.92 50.72 223.08 47 222C43.28 220.92 40.84 226.04 40 218C39.16 209.96 39.64 162.8 40 155Z" fill="currentColor" fill-rule="evenodd"/></svg>
