<svg xmlns="http://www.w3.org/2000/svg" viewBox="0 0 256 256" role="img" aria-hidden="true"><!-- Iconic Drills Pack © 2026 Roman Kuzhel, Kyrgyzstan | CC BY 4.0 | https://github.com/roblo3x/iconic-drills-pack --><path d="M41.26589,112.08856c0.29973,-3.04245 0.09874,-6.52899 3.0643,-8.26661c5.55215,-3.2532 13.88032,-7.31256 20.32795,-7.89076c4.91706,-0.44095 13.58599,2.81058 15.62572,-3.71836c2.41487,-7.72975 0.80496,-17.89514 0.66985,-25.89328c-0.05178,-3.06562 -0.64505,-6.90399 0.31025,-9.86864c1.31143,-4.06986 7.61749,-0.68904 8.46963,-3.86297c0.71929,-2.67913 -5.44175,-5.7635 -6.07253,-8.69436c-1.02752,-4.77431 1.92506,-8.96902 4.62718,-12.57195c1.33757,-1.78348 3.13288,-4.53283 5.78617,-3.94597c6.67854,1.4772 5.89817,14.9461 3.70901,19.3985c-0.93972,1.91124 -4.02428,3.45139 -4.45505,5.39747c-0.2589,1.16965 0.76178,1.65485 1.6146,1.98787c2.42378,0.94646 4.90389,0.67008 5.73147,3.72101c1.91122,7.0459 -0.81418,16.57669 -0.8418,23.86621c-0.02693,7.10984 1.4299,11.13298 9.15293,11.66597c2.63995,0.18219 5.34653,0.06702 7.95394,-0.39398c2.45574,-0.43419 5.28781,-1.14139 6.7708,-3.35733c1.43521,-2.14454 1.36637,-5.16297 1.42479,-7.62748c0.15781,-6.65652 -0.40894,-13.32665 -0.82527,-19.96451c-0.14455,-2.30466 -0.81959,-5.51193 0.07242,-7.72868c1.16566,-2.89683 5.7505,0.14302 6.5067,-3.05639c0.67858,-2.87104 -3.41554,-5.31175 -4.0041,-8.03383c-1.05904,-4.898 2.09054,-17.72003 8.16505,-18.56429c2.88891,-0.40151 3.87869,2.55102 4.55068,4.72283c1.24295,4.01715 3.14272,9.41444 1.74323,13.58501c-0.97353,2.90118 -5.03504,4.59508 -5.30404,7.57344c-0.26181,2.89878 3.59761,2.07532 5.22173,2.70503c1.92976,0.74821 2.42125,2.5345 2.62629,4.4003c0.85878,7.81476 -0.80652,16.08603 -0.76647,23.95249c0.03026,5.94307 0.90036,10.3319 7.61908,11.0917c3.44253,0.38931 8.63598,0.29856 10.86642,-2.87979c1.80482,-2.57186 1.5267,-6.61537 1.60148,-9.59596c0.18177,-7.24536 -0.88222,-14.76703 -0.1529,-21.9685c0.32691,-3.22802 1.75892,-3.18291 4.54969,-3.30643c1.3717,-0.06071 3.60072,-0.28383 3.2945,-2.31027c-0.30113,-1.99278 -3.23372,-3.39634 -4.10183,-5.27684c-2.22334,-4.81619 -0.88425,-10.87703 2.2457,-14.94515c1.04438,-1.35742 2.61692,-3.04729 4.51005,-3.05451c1.97241,-0.00752 3.02156,1.92345 3.82514,3.39183c1.90991,3.48998 3.26277,7.36623 2.33367,11.36977c-0.74766,3.22172 -6.31096,6.0037 -5.62342,9.19535c0.67485,3.13277 5.44681,1.46035 6.57362,4.43724c1.04727,2.76675 0.0521,6.83523 -0.16367,9.69882c-0.515,6.83478 -2.03138,15.18143 -0.18236,21.89575c1.18435,4.3007 5.34813,5.10827 9.24017,5.58911c6.67943,0.8252 15.68048,-1.04967 21.12152,3.72744c3.76878,3.30889 3.53127,8.08132 3.81493,12.69927c0.70828,11.53082 2.874,24.42738 1.52413,35.91972c-0.41823,3.56069 -2.85746,5.57465 -5.7693,7.32167c-1.68291,1.0097 -3.48731,1.92406 -5.46127,2.18149c-12.07849,1.57521 -15.14507,-11.34416 -24.07242,-15.59132c-2.84033,-1.35128 -6.74091,-0.86802 -9.60436,0.19331c-5.29524,1.96268 -9.37686,7.93534 -13.40936,11.69586c-1.82365,1.70065 -3.86687,3.81104 -6.50338,4.07043c-4.72443,0.4648 -8.32792,-4.2316 -11.01168,-7.39248c-4.22536,-4.97653 -9.43144,-9.91518 -16.49363,-9.82067c-9.36825,0.12538 -13.52999,12.98868 -22.61511,15.03182c-10.46885,2.35433 -14.15283,-14.0001 -23.63498,-15.67112c-4.48292,-0.79002 -9.53614,0.77962 -12.81685,3.85174c-2.74562,2.57105 -5.03057,6.59439 -8.67543,7.99777c-6.07736,2.33997 -15.18799,-5.46598 -16.31201,-11.21571c-0.74842,-3.82842 1.04043,-21.89956 1.62843,-27.86809zM40.85494,152.01758c1.19856,-0.83239 2.98614,2.1061 3.38761,2.64796c2.90955,3.92701 5.31788,10.07633 10.87711,10.63564c6.02692,0.60636 9.85113,-6.70189 13.72798,-10.18358c1.88404,-1.692 4.10772,-3.22845 6.70051,-2.03572c10.32252,4.74856 12.50659,20.33952 26.03694,19.05464c6.92686,-0.65779 12.28472,-8.58104 16.93442,-13.0915c1.69264,-1.64196 3.75357,-4.08836 6.24886,-4.44021c3.17436,-0.4476 5.93705,2.90115 7.92575,4.8725c5.02497,4.98114 10.89257,13.77837 18.79659,13.35596c7.48984,-0.40028 12.64689,-7.23569 17.52127,-12.14074c1.94639,-1.95864 4.57734,-5.57835 7.56845,-5.86111c2.66668,-0.25209 4.4479,2.42417 5.79717,4.27167c2.74714,3.76156 5.63767,7.43867 10.15154,9.18227c4.46403,1.72435 11.28679,1.00108 15.33814,-1.5009c1.5232,-0.94067 5.38872,-5.57954 7.23709,-5.23346c1.27657,0.23902 0.8868,3.71739 0.88425,4.39367c-0.01253,3.32521 -0.161,6.65435 -0.26923,9.97748c-0.3249,9.97593 -0.70632,19.95062 -1.14135,29.92236c-0.17645,4.04458 0.5694,9.88812 -1.10772,13.64c-1.39398,3.11847 -6.89314,3.92106 -9.81104,4.5892c-9.71367,2.22427 -19.54302,4.17719 -29.38548,5.73656c-11.85881,1.87883 -23.86669,1.76236 -35.84284,1.68348c-20.01735,-0.13183 -39.84713,-1.41765 -59.74559,-3.58477c-9.29482,-1.01229 -18.41172,-2.63345 -27.50284,-4.81836c-2.58254,-0.62067 -7.12897,-0.05081 -9.31974,-1.32407c-1.63241,-0.94875 -1.77036,-3.28289 -1.93328,-4.90627c-0.39716,-3.95744 -0.32367,-7.99456 -0.36677,-11.96759c-0.18003,-16.59507 0.11884,-52.06024 1.29219,-52.87512z" fill="currentColor" fill-rule="evenodd"/></svg>
