<svg xmlns="http://www.w3.org/2000/svg" viewBox="0 0 256 256" role="img" aria-hidden="true"><!-- Iconic Drills Pack © 2026 Roman Kuzhel, Kyrgyzstan | CC BY 4.0 | https://github.com/roblo3x/iconic-drills-pack --><path d="M129 79L129 76L114 76L100 80L90 86L80 99L73 98L52 88L49 81L58 70L76 58L99 37L110 39L133 58L139 62L143 62L140 50L134 42L133 32L136 28L146 24L156 25L164 37L166 48L164 71L172 69L190 51L196 48L204 48L216 53L220 56L223 63L220 71L214 77L203 83L193 85L193 88L211 93L224 103L230 121L229 141L222 146L210 147L207 145L205 142L203 122L200 117L197 117L198 142L206 172L206 186L200 193L152 226L146 226L143 222L147 197L156 163L160 138L174 110L177 99L172 98L158 129L156 131L148 131L139 125L96 108L89 103L89 99L94 92L113 83ZM137 214L135 228L129 232L121 232L66 203L64 198L66 185L82 118L86 112L109 120L151 140L152 146L143 179ZM59 100L74 106L75 115L63 156L57 190L55 195L49 196L29 185L25 179L25 172L40 100L46 94L52 95Z" fill="currentColor" fill-rule="evenodd"/></svg>
