<svg xmlns="http://www.w3.org/2000/svg" viewBox="0 0 256 256" role="img" aria-hidden="true"><!-- Iconic Drills Pack © 2026 Roman Kuzhel, Kyrgyzstan | CC BY 4.0 | https://github.com/roblo3x/iconic-drills-pack --><path d="M28.24331,163.57521c1.46471,-3.67727 4.17272,-6.88466 5.25983,-10.70443c1.10953,-3.89854 -0.3594,-7.87961 -0.41919,-11.81196c-0.06007,-3.95087 0.84298,-7.99321 1.76111,-11.8153c3.76116,-15.65741 11.85662,-29.67654 20.15619,-43.28188c3.733,-6.11944 7.19371,-13.01503 11.85369,-18.48507c5.34063,-6.26902 14.63129,-6.33397 20.72671,-11.46647c3.63201,-3.05824 4.26336,-8.14724 7.18228,-11.74313c8.8874,-10.94865 23.65282,-12.06618 36.65739,-9.74095c6.78542,1.21324 15.53629,8.05065 17.76609,14.70035c1.91243,5.70323 -1.15728,12.28188 6.23479,14.97079c6.31539,2.29726 14.37229,-4.75952 20.48236,-6.07465c9.89924,-2.13071 22.30874,-1.22477 30.90788,4.37882c6.29225,4.10032 11.69076,11.74392 15.15839,18.30839c10.81652,20.47647 11.88239,45.78258 9.19943,68.32082c-1.53706,12.91208 -3.17255,23.04093 -13.41631,31.96219c-7.48544,6.51904 -16.09841,12.2181 -25.90351,14.42309c-4.05949,0.9129 -9.96386,-1.39836 -13.50283,0.90679c-3.62486,2.3611 -3.99936,8.62062 -6.20764,12.10193c-4.24084,6.68561 -11.6577,11.42434 -19.13539,13.49867c-7.94632,2.20433 -13.69606,-0.41382 -21.42963,-0.93323c-9.91485,-0.66592 -20.03509,-0.02921 -29.96764,0.04185c-5.3281,0.03812 -10.65658,0.07326 -15.98485,0.05416c-15.54816,-0.05574 -30.46395,-2.39911 -44.46279,-9.49734c-8.03987,-4.07669 -15.63734,-11.50319 -17.24604,-20.735c-0.5712,-3.27794 1.92455,-21.34014 4.3297,-27.37845zM70.7164,192.578c10.91066,6.79291 23.69642,9.15865 36.43785,7.48554c10.00321,-1.31355 12.36107,-10.89239 13.67741,-19.3226c0.71376,-4.57113 1.17597,-9.32033 2.67558,-13.71917c1.72285,-5.05367 4.81279,-9.52776 6.39752,-14.63754c1.92118,-6.19461 2.81549,-13.25706 3.09737,-19.72489c0.2463,-5.65154 -0.28732,-14.72688 -4.69086,-18.89358c-3.27116,-3.09523 -8.95042,-3.18056 -13.15993,-3.70029c-10.58727,-1.30717 -21.21306,-2.3709 -31.83875,-3.31149c-3.87576,-0.34308 -8.05324,-1.09204 -11.94376,-0.78456c-0.64395,0.05089 -2.30999,0.13678 -2.56328,1.16066c-0.24136,0.97566 1.05715,2.17055 1.54393,2.63908c3.0905,2.97466 6.59176,3.9686 10.77113,4.19956c10.37031,0.57307 21.80299,-0.97313 31.8477,2.06228c4.32461,1.30686 9.2144,2.95327 10.14332,7.9229c1.8412,9.85022 -0.92496,20.10565 -3.29651,29.59243c-1.44546,5.78221 -2.77289,11.74898 -5.36698,17.14628c-2.86733,5.96582 -6.24072,12.31489 -13.37098,13.32156c-7.67956,1.08422 -16.35047,0.82561 -23.81268,-1.27287c-4.58952,-1.29064 -10.01289,7.67952 -6.54808,9.83669zM113.13961,53.57282c5.24007,0.78127 10.66335,1.22404 15.95563,1.44692c1.28342,0.05405 4.10345,0.45651 4.89078,-1.07342c1.3607,-2.64409 -4.191,-5.38439 -5.78456,-6.22151c-5.91547,-3.10749 -18.77958,5.29372 -15.06185,5.84801zM159.90929,117.60465c0.09609,6.07979 0.26223,12.16351 0.56437,18.23677c0.09082,1.82559 -0.36737,8.05027 2.42543,8.39939c3.01917,0.37741 2.8764,-6.19162 2.97988,-7.83766c0.46975,-7.47242 -0.43418,-14.80789 -1.7541,-22.15897c-0.29827,-1.66118 -4.25982,0.56169 -4.21559,3.36047zM176.42725,100.1822c3.78646,13.50811 7.17756,27.03047 8.55336,41.03386c0.82638,8.41116 1.66367,17.51699 0.84855,25.94833c-0.25636,2.65172 -1.17335,5.18913 -1.43975,7.82436c-0.29017,2.8704 1.23301,4.13018 4.06152,3.71382c9.65608,-1.42139 17.65224,-11.2528 21.12224,-19.57647c2.63657,-6.32448 2.63479,-12.87056 2.74172,-19.61458c0.20462,-12.90594 -0.9701,-25.04431 -3.45702,-37.70542c-1.42704,-7.26519 -2.171,-16.71821 -6.66995,-22.83958c-5.96526,-8.11646 -15.75262,-10.07075 -24.69788,-5.96566c-3.22219,1.4787 -3.00853,20.23993 -1.06279,27.18133z" fill="currentColor" fill-rule="evenodd"/></svg>
