<svg xmlns="http://www.w3.org/2000/svg" viewBox="0 0 256 256" role="img" aria-hidden="true"><!-- Iconic Drills Pack © 2026 Roman Kuzhel, Kyrgyzstan | CC BY 4.0 | https://github.com/roblo3x/iconic-drills-pack --><path d="M58 179C62.56 168.32 91.44 107.56 96 97C100.56 86.44 96.84 93.4 96 91C95.16 88.6 89.84 79.76 89 77C88.16 74.24 87.92 71.6 89 68C90.08 64.4 94.52 51.44 98 47C101.48 42.56 113.08 33.64 118 31C122.92 28.36 134.2 25.72 139 25C143.8 24.28 154.52 24.64 158 25C161.48 25.36 165.48 26.8 168 28C170.52 29.2 176.48 32.84 179 35C181.52 37.16 187.08 42.76 189 46C190.92 49.24 194.28 58.16 195 62C195.72 65.84 195.6 73.92 195 78C194.4 82.08 191.32 92.64 190 96C188.68 99.36 185.68 103.84 184 106C182.32 108.16 178.04 112.56 176 114C173.96 115.44 170.24 117.4 167 118C163.76 118.6 151.64 118.4 149 119C146.36 119.6 148.6 117 145 123C141.4 129 123.56 160.24 119 169C114.44 177.76 109.04 192.04 107 196C104.96 199.96 103.8 201.04 102 202C100.2 202.96 93.2 203.16 92 204C90.8 204.84 90.68 207.44 92 209C93.32 210.56 99.88 215.92 103 217C106.12 218.08 115.48 218.12 118 218C120.52 217.88 122.2 217.2 124 216C125.8 214.8 131.2 211.24 133 208C134.8 204.76 137.56 192.6 139 189C140.44 185.4 143.44 180.04 145 178C146.56 175.96 150.08 173.08 152 172C153.92 170.92 158.24 169.24 161 169C163.76 168.76 172.72 170.24 175 170C177.28 169.76 178.08 167.12 180 167C181.92 166.88 188.96 167.8 191 169C193.04 170.2 196.4 174.48 197 177C197.6 179.52 197.2 187.6 196 190C194.8 192.4 188.92 196.16 187 197C185.08 197.84 182.04 197.72 180 197C177.96 196.28 171.56 192.68 170 191C168.44 189.32 167.84 183.96 167 183C166.16 182.04 164.56 182.04 163 183C161.44 183.96 155.92 187.28 154 191C152.08 194.72 148.68 210.04 147 214C145.32 217.96 142.52 221.96 140 224C137.48 226.04 130.2 230.04 126 231C121.8 231.96 109.68 232.48 105 232C100.32 231.52 90.72 228.92 87 227C83.28 225.08 76.28 219.48 74 216C71.72 212.52 69.44 200.76 68 198C66.56 195.24 63.2 194.44 62 193C60.8 191.56 58.48 187.68 58 186C57.52 184.32 53.44 189.68 58 179ZM113 63C112.76 65.16 113.4 73.2 114 75C114.6 76.8 116.56 77.52 118 78C119.44 78.48 124.44 79.12 126 79C127.56 78.88 129.68 78.08 131 77C132.32 75.92 135.92 71.56 137 70C138.08 68.44 139.64 65.8 140 64C140.36 62.2 140.6 56.68 140 55C139.4 53.32 136.68 50.72 135 50C133.32 49.28 128.28 48.16 126 49C123.72 49.84 117.56 55.32 116 57C114.44 58.68 113.24 60.84 113 63ZM146 81C145.52 83.52 146.04 89.2 147 91C147.96 92.8 152.32 95.4 154 96C155.68 96.6 159.68 96.24 161 96C162.32 95.76 163.8 95.2 165 94C166.2 92.8 170.28 88.88 171 86C171.72 83.12 171.48 72.4 171 70C170.52 67.6 168.68 66.6 167 66C165.32 65.4 158.92 64.52 157 65C155.08 65.48 152.32 68.08 151 70C149.68 71.92 146.48 78.48 146 81Z" fill="currentColor" fill-rule="evenodd"/></svg>
