<svg xmlns="http://www.w3.org/2000/svg" viewBox="0 0 256 256" role="img" aria-hidden="true"><path d="M192 51L198 60L203 78L204 110L214 114L222 123L231 143L232 174L228 196L211 213L202 217L196 217L195 215L201 205L207 187L210 166L210 139L208 126L203 113L196 108L190 107L190 110L196 114L203 132L204 166L201 187L192 212L184 222L174 224L168 222L163 217L158 205L152 150L154 137L160 122L165 118L170 109L181 106L178 84L175 76L164 63L146 54L122 54L104 59L88 68L76 83L72 93L70 114L76 114L87 121L93 128L97 139L101 160L101 190L98 211L93 221L81 227L67 225L62 219L54 201L49 176L51 145L59 120L52 121L49 116L48 86L60 62L72 49L92 36L131 28L153 29L175 35L188 45ZM48 138L44 159L44 187L48 205L55 217L52 220L40 217L38 213L33 210L27 197L24 180L24 156L29 140L35 133L47 125L52 126ZM188 156L190 146L168 148L167 154L174 174L182 174L185 172ZM72 160L73 157L78 158L79 165L77 168L71 165ZM66 160L65 164L69 175L73 179L78 179L83 174L86 165L82 153L77 148L72 148ZM181 154L184 160L179 164L176 161L176 155Z" fill="currentColor" fill-rule="evenodd"/></svg>
