<svg xmlns="http://www.w3.org/2000/svg" viewBox="0 0 256 256" role="img" aria-hidden="true"><!-- Iconic Drills Pack © 2026 Roman Kuzhel, Kyrgyzstan | CC BY 4.0 | https://github.com/roblo3x/iconic-drills-pack --><path d="M24 139C24.12 134.44 24.84 127.52 27 122C29.16 116.48 37.44 99.24 42 93C46.56 86.76 60.08 74.2 65 70C69.92 65.8 77.84 60.64 83 58C88.16 55.36 101.16 49.44 108 48C114.84 46.56 134.36 45.64 140 46C145.64 46.36 151.76 49.08 155 51C158.24 52.92 165.2 59.48 167 62C168.8 64.52 169.88 69 170 72C170.12 75 168.96 84 168 87C167.04 90 165 93.88 162 97C159 100.12 145.64 110.24 143 113C140.36 115.76 140.12 118.08 140 120C139.88 121.92 140.32 126.84 142 129C143.68 131.16 151.84 135.84 154 138C156.16 140.16 159.04 144.96 160 147C160.96 149.04 161.88 152.48 162 155C162.12 157.52 161.96 164.76 161 168C160.04 171.24 156.64 178.76 154 182C151.36 185.24 142.48 192.72 139 195C135.52 197.28 129.92 199.8 125 201C120.08 202.2 102.92 204.52 98 205C93.08 205.48 88.32 205.72 84 205C79.68 204.28 67.04 201.28 62 199C56.96 196.72 45.6 189.12 42 186C38.4 182.88 33.92 176.12 32 173C30.08 169.88 26.96 164.08 26 160C25.04 155.92 23.88 143.56 24 139ZM45 137C44.4 138.8 44.64 141.68 45 143C45.36 144.32 46.92 147.04 48 148C49.08 148.96 52.44 150.64 54 151C55.56 151.36 59.44 151.36 61 151C62.56 150.64 65.8 149.2 67 148C68.2 146.8 70.76 143.16 71 141C71.24 138.84 70.2 131.92 69 130C67.8 128.08 63.28 125.24 61 125C58.72 124.76 51.92 126.56 50 128C48.08 129.44 45.6 135.2 45 137ZM70 94C69.28 96.04 69.92 99.44 71 101C72.08 102.56 76.96 106.4 79 107C81.04 107.6 86.32 106.6 88 106C89.68 105.4 92.16 103.08 93 102C93.84 100.92 95 98.8 95 97C95 95.2 93.96 88.68 93 87C92.04 85.32 88.92 83.36 87 83C85.08 82.64 79.04 82.68 77 84C74.96 85.32 70.72 91.96 70 94ZM113 162C112.28 163.8 112.4 167.56 113 169C113.6 170.44 116.56 173.28 118 174C119.44 174.72 123.44 175.12 125 175C126.56 174.88 129.8 173.72 131 173C132.2 172.28 134.28 170.68 135 169C135.72 167.32 137.12 160.8 137 159C136.88 157.2 135.68 154.84 134 154C132.32 153.16 124.8 152 123 152C121.2 152 120.2 152.8 119 154C117.8 155.2 113.72 160.2 113 162ZM116 75C115.4 76.8 115.16 81.44 116 83C116.84 84.56 121.08 87.52 123 88C124.92 88.48 130.32 87.96 132 87C133.68 86.04 136.4 81.68 137 80C137.6 78.32 137.72 74.56 137 73C136.28 71.44 132.92 67.6 131 67C129.08 66.4 122.8 67.04 121 68C119.2 68.96 116.6 73.2 116 75ZM166 217C167.2 208.24 176.24 162.64 179 151C181.76 139.36 186.36 126.96 189 120C191.64 113.04 199.92 97.56 201 93C202.08 88.44 198.36 85.24 198 82C197.64 78.76 196.32 70.56 198 66C199.68 61.44 208.88 48.08 212 44C215.12 39.92 222.2 33.44 224 32C225.8 30.56 226.4 31.76 227 32C227.6 32.24 228.88 31.72 229 34C229.12 36.28 227.76 47.64 228 51C228.24 54.36 230.76 58.76 231 62C231.24 65.24 230.96 74.88 230 78C229.04 81.12 224.8 86.2 223 88C221.2 89.8 217.16 86.28 215 93C212.84 99.72 209.44 128.76 205 144C200.56 159.24 181.48 210.52 178 220C174.52 229.48 177.08 222.52 176 223C174.92 223.48 170.2 224.72 169 224C167.8 223.28 164.8 225.76 166 217Z" fill="currentColor" fill-rule="evenodd"/></svg>
