<svg xmlns="http://www.w3.org/2000/svg" viewBox="0 0 256 256" role="img" aria-hidden="true"><path d="M80 57L109 42L119 42L141 53L154 64L155 69L160 75L164 75L170 63L177 57L188 53L199 54L207 59L212 69L211 83L207 89L193 98L162 100L163 106L167 107L172 112L187 107L193 107L204 114L208 114L215 109L220 109L231 114L232 119L230 121L225 121L216 117L205 123L195 119L175 123L165 119L157 113L150 113L135 120L124 121L112 118L97 110L81 113L78 116L64 121L53 120L44 114L39 114L33 118L27 118L25 112L39 106L47 106L53 110L66 109L76 101L112 84L121 76L121 73L112 64L104 64L89 70L85 75L79 78L66 77L64 73L66 68ZM124 209L120 213L111 213L106 207L106 202L112 196L122 196L127 203ZM193 84L194 86L201 84L202 77L195 78L194 74L196 72L203 74L203 71L200 64L190 62L186 64L186 68L190 68L192 73L188 74L186 71L183 71L181 80L187 81L191 78ZM160 144L153 140L146 140L136 146L124 150L117 150L106 146L97 138L87 138L69 147L53 146L43 141L40 136L26 135L24 131L30 127L39 126L49 129L55 134L62 135L71 132L80 125L96 121L102 125L109 126L113 131L119 134L123 134L139 126L151 124L163 127L170 134L183 130L191 130L197 135L215 132L224 133L228 137L226 141L215 140L204 146L195 145L190 141L175 148L166 147ZM140 193L136 193L134 190L134 185L138 182L142 182L145 185L144 192Z" fill="currentColor" fill-rule="evenodd"/></svg>
