<svg xmlns="http://www.w3.org/2000/svg" viewBox="0 0 256 256" role="img" aria-hidden="true"><path d="M129 91L126 91L124 96L132 106L132 109L120 119L118 119L111 110L104 109L103 114L110 122L111 127L99 137L96 138L88 128L82 129L82 134L89 145L83 150L81 157L86 157L91 152L96 151L103 161L110 162L111 157L103 148L102 143L115 132L118 132L122 139L128 145L131 145L134 139L124 125L133 117L139 115L148 127L153 127L154 121L145 108L160 96L162 96L172 108L179 107L179 103L174 95L155 73L151 73L149 79L155 86L156 91L143 101L139 102ZM203 42L224 49L230 57L231 76L226 111L222 127L211 151L177 189L138 208L119 213L99 215L64 215L47 212L32 206L25 199L26 172L36 135L51 106L70 82L98 61L128 46L165 40Z" fill="currentColor" fill-rule="evenodd"/></svg>
