<svg xmlns="http://www.w3.org/2000/svg" viewBox="0 0 256 256" role="img" aria-hidden="true"><!-- Iconic Drills Pack © 2026 Roman Kuzhel, Kyrgyzstan | CC BY 4.0 | https://github.com/roblo3x/iconic-drills-pack --><path d="M156 122L166 109L175 89L179 75L179 67L176 62L169 58L143 54L135 57L128 67L126 76L126 102L130 114L138 123L149 126ZM125 230L74 232L69 230L66 226L66 214L75 202L85 199L96 199L102 197L107 192L110 182L110 164L98 158L90 150L80 132L78 124L74 120L58 115L46 107L38 99L28 83L24 68L26 50L33 37L48 26L69 24L82 29L91 29L105 26L135 25L159 27L180 33L200 32L215 39L228 58L232 73L232 86L228 102L221 114L214 121L205 126L187 130L170 150L146 164L146 182L161 187L174 204L189 213L191 218L190 222L178 227ZM211 79L209 66L204 60L201 60L200 82L196 104L201 103L209 94ZM54 74L59 86L69 95L74 95L74 49L72 47L64 48L57 54L54 60Z" fill="currentColor" fill-rule="evenodd"/></svg>
