<svg xmlns="http://www.w3.org/2000/svg" viewBox="0 0 256 256" role="img" aria-hidden="true"><!-- Iconic Drills Pack © 2026 Roman Kuzhel, Kyrgyzstan | CC BY 4.0 | https://github.com/roblo3x/iconic-drills-pack --><path d="M33.69262,141.07497c7.62321,-20.7381 19.31946,-41.83395 34.88179,-57.644c10.03042,-10.19008 22.89456,-18.87176 35.29104,-25.90132c7.4441,-4.22126 15.18512,-8.51064 23.32405,-11.23942c9.35283,-3.13577 19.59119,-4.39397 29.35451,-5.53468c11.26032,-1.31561 22.55893,-0.81692 33.84884,-0.13424c6.55499,0.39637 13.40794,0.5349 19.75932,2.34222c6.79614,1.93388 14.30441,4.94565 18.30824,11.02973c3.43754,5.22357 2.61572,11.25566 2.43578,17.2374c-0.34265,11.39072 -1.91198,22.42388 -3.93779,33.6243c-1.53045,8.46168 -2.86399,17.12283 -5.88185,25.21075c-6.16805,16.53048 -16.37172,30.20781 -28.15038,43.10038c-5.30937,5.81148 -10.70186,12.04185 -17.10882,16.67668c-5.89358,4.26345 -12.68088,7.39195 -19.25172,10.45027c-18.51105,8.61574 -37.05969,13.67251 -57.50878,14.70947c-18.82753,0.95473 -39.30824,1.88779 -57.24104,-4.74327c-5.68763,-2.10313 -13.43778,-4.65309 -16.28862,-10.55454c-2.22696,-4.60998 3.00305,-44.58605 8.16543,-58.62972zM84.39676,157.17461c3.90167,-0.76518 6.71478,-7.85843 11.27901,-5.48286c3.62555,1.88701 7.94657,15.27731 14.21736,9.65088c2.74256,-2.46075 -0.5077,-6.17824 -2.15491,-8.07c-3.66243,-4.20619 -7.70579,-7.74957 -2.98985,-12.89366c2.13592,-2.32983 8.96387,-9.58073 12.54078,-8.02192c1.69481,0.7386 2.50308,2.99018 3.36446,4.44088c1.36004,2.29053 3.0171,4.3889 5.00408,6.17366c1.88883,1.6966 4.13296,2.95145 6.28342,0.82899c7.17462,-7.0812 -10.23372,-12.10669 -6.9878,-19.27481c1.89604,-4.18712 11.26877,-11.75113 15.6965,-7.84307c2.64914,2.33822 6.94196,13.92255 11.92995,10.03505c2.13398,-1.66317 1.73752,-4.75934 0.56533,-6.81388c-2.00881,-3.5209 -9.33274,-8.23151 -7.09006,-12.94156c1.79674,-3.77351 7.30744,-6.53146 10.63651,-8.76319c1.80736,-1.21161 3.90602,-3.23028 6.01088,-1.45336c3.68554,3.11131 5.66624,9.87545 10.6949,11.24621c4.56316,1.24388 6.84729,-2.55253 5.01961,-6.39911c-3.98294,-8.38257 -11.76682,-17.16379 -18.10473,-23.88634c-1.78598,-1.89437 -4.73375,-5.64605 -7.7851,-4.90942c-2.42015,0.58425 -3.48718,3.81387 -2.92544,5.9808c0.98761,3.80974 5.78695,5.55592 6.49192,9.52477c0.36104,2.03259 -1.0037,3.39276 -2.39752,4.59988c-3.12004,2.7021 -8.79092,8.00085 -12.91389,8.79344c-1.84971,0.35558 -3.01424,-1.32677 -4.02146,-2.54293c-2.01269,-2.4302 -5.71482,-9.58852 -9.71579,-8.25873c-2.54515,0.84592 -3.16828,3.84167 -2.16924,6.03191c1.48116,3.2472 7.91491,7.12741 7.11987,11.04729c-0.69279,3.4158 -8.40623,8.88152 -11.37385,10.38279c-2.59999,1.31529 -4.00155,-1.13447 -5.35198,-2.9643c-2.15782,-2.92384 -6.35917,-8.61736 -10.81215,-5.92628c-2.44188,1.47571 -1.321,4.57271 -0.0407,6.34941c2.71002,3.76075 9.22322,7.66991 5.01394,12.68419c-2.51156,2.99188 -9.86682,10.84604 -14.2257,8.40497c-3.36399,-1.8839 -6.23729,-11.25407 -11.24375,-8.85447c-7.25151,3.47565 4.14244,12.53861 4.22873,16.5651c0.07747,3.6151 -8.12515,13.40921 -3.7933,12.55967z" fill="currentColor" fill-rule="evenodd"/></svg>
