<svg xmlns="http://www.w3.org/2000/svg" viewBox="0 0 256 256" role="img" aria-hidden="true"><!-- Iconic Drills Pack © 2026 Roman Kuzhel, Kyrgyzstan | CC BY 4.0 | https://github.com/roblo3x/iconic-drills-pack --><path d="M24 58C24.48 55.24 26.92 47.52 28 45C29.08 42.48 31.32 38.92 33 37C34.68 35.08 39.24 30.56 42 29C44.76 27.44 52.76 24.6 56 24C59.24 23.4 65.88 23.4 69 24C72.12 24.6 76.12 28.88 82 29C87.88 29.12 109.6 25.36 118 25C126.4 24.64 144.56 25.04 152 26C159.44 26.96 174.24 32.28 180 33C185.76 33.72 195.8 31.28 200 32C204.2 32.72 212.12 36.84 215 39C217.88 41.16 221.96 45.92 224 50C226.04 54.08 231.16 67.96 232 73C232.84 78.04 231.84 87.8 231 92C230.16 96.2 227.4 104.28 225 108C222.6 111.72 215.56 120.36 211 123C206.44 125.64 191.92 126.76 187 130C182.08 133.24 174.08 146.28 170 150C165.92 153.72 155.64 159.56 153 161C150.36 162.44 148.96 161.04 148 162C147.04 162.96 145.24 166.6 145 169C144.76 171.4 144.08 179.84 146 182C147.92 184.16 157.64 184.36 161 187C164.36 189.64 170.64 200.88 174 204C177.36 207.12 186.96 211.32 189 213C191.04 214.68 190.88 216.92 191 218C191.12 219.08 191.56 220.92 190 222C188.44 223.08 183.76 226.04 178 227C172.24 227.96 151.48 229.64 142 230C132.52 230.36 106.32 229.76 99 230C91.68 230.24 84.6 232 81 232C77.4 232 70.92 231.2 69 230C67.08 228.8 65 224.64 65 222C65 219.36 67.56 210.52 69 208C70.44 205.48 73.76 202.08 77 201C80.24 199.92 93 199.48 96 199C99 198.52 100.68 197.84 102 197C103.32 196.16 106.04 193.8 107 192C107.96 190.2 109.64 185.36 110 182C110.36 178.64 111.44 166.88 110 164C108.56 161.12 100.4 159.68 98 158C95.6 156.32 92.16 153.12 90 150C87.84 146.88 81.44 135.12 80 132C78.56 128.88 78.72 125.44 78 124C77.28 122.56 76.64 121.2 74 120C71.36 118.8 60.32 116.52 56 114C51.68 111.48 41.36 102.72 38 99C34.64 95.28 29.68 86.72 28 83C26.32 79.28 24.48 71 24 68C23.52 65 23.52 60.76 24 58ZM54 60C53.04 63 53.64 71.24 54 74C54.36 76.76 55.56 80.72 57 83C58.44 85.28 63.96 91.56 66 93C68.04 94.44 73.04 100.28 74 95C74.96 89.72 74.24 54.76 74 49C73.76 43.24 73.44 47 72 47C70.56 47 64.16 47.44 62 49C59.84 50.56 54.96 57 54 60ZM126 76C125.4 80.92 125.52 97.44 126 102C126.48 106.56 128.08 111.24 130 114C131.92 116.76 139.72 123.56 142 125C144.28 126.44 147.56 126.12 149 126C150.44 125.88 152.32 125.44 154 124C155.68 122.56 160.48 118.2 163 114C165.52 109.8 173.08 93.68 175 89C176.92 84.32 178.64 77.88 179 75C179.36 72.12 178.36 66.56 178 65C177.64 63.44 177.44 62.96 176 62C174.56 61.04 169.96 57.96 166 57C162.04 56.04 146.72 54 143 54C139.28 54 136.44 56.16 135 57C133.56 57.84 132.08 58.72 131 61C129.92 63.28 126.6 71.08 126 76ZM196 101C195.52 103.64 195.4 103.76 196 104C196.6 104.24 199.44 104.2 201 103C202.56 101.8 207.8 95.92 209 94C210.2 92.08 210.88 90 211 87C211.12 84 210.84 72.24 210 69C209.16 65.76 205.08 61.08 204 60C202.92 58.92 201.48 57.36 201 60C200.52 62.64 200.6 77.08 200 82C199.4 86.92 196.48 98.36 196 101Z" fill="currentColor" fill-rule="evenodd"/></svg>
