<svg xmlns="http://www.w3.org/2000/svg" viewBox="0 0 256 256" role="img" aria-hidden="true"><path d="M98 149L94 148L94 174L90 181L73 184L54 184L52 182L51 163L54 153L53 127L50 101L46 89L46 82L49 79L66 76L78 76L83 78L87 82L92 96L93 113L104 113L131 108L160 108L159 87L161 77L164 74L168 72L190 72L196 75L201 87L207 118L208 157L207 174L204 180L198 182L181 182L175 180L169 170L165 144L123 149ZM222 154L213 154L211 116L205 92L205 90L209 88L220 89L225 94L232 109L229 146L227 151ZM102 126L102 135L111 136L115 133L115 127L112 124L105 123ZM134 120L129 126L129 132L134 135L143 134L151 126L151 123L142 120ZM105 130L106 127L110 128L109 132L105 132ZM25 131L25 111L28 98L34 94L42 94L46 99L48 117L49 155L47 162L44 166L37 166L30 160ZM136 128L135 126L137 124L141 125L140 130L136 130Z" fill="currentColor" fill-rule="evenodd"/></svg>
