<svg xmlns="http://www.w3.org/2000/svg" viewBox="0 0 256 256" role="img" aria-hidden="true"><!-- Iconic Drills Pack © 2026 Roman Kuzhel, Kyrgyzstan | CC BY 4.0 | https://github.com/roblo3x/iconic-drills-pack --><path d="M63.79705,23.57127c7.58536,0.20392 13.17979,5.64205 20.86405,5.2539c11.29846,-0.5707 22.40706,-3.31414 33.71802,-3.84446c11.65978,-0.54667 24.3609,-0.73618 35.86806,1.40383c7.20284,1.33953 14.11905,3.89093 21.22669,5.62023c8.12476,1.97676 15.70859,-0.84761 23.77561,0.02664c6.14834,0.66632 13.18514,4.49764 17.66453,8.66657c5.52676,5.14371 8.40175,11.78862 10.94618,18.74112c1.80345,4.92783 3.80006,10.06895 4.30473,15.32894c1.64252,17.1192 -5.07963,35.43451 -18.6099,46.29984c-7.96041,6.39252 -19.87482,3.65089 -27.76911,10.04949c-6.73881,5.46204 -10.20818,14.05649 -16.80426,19.67577c-4.38433,3.73506 -9.8787,7.23886 -15.11172,9.65103c-4.01811,1.85215 -6.90125,1.85939 -8.31598,6.69077c-0.55975,1.91159 -0.72101,3.91603 -0.7905,5.89651c-0.08559,2.43925 -0.2737,5.50258 0.97236,7.71729c2.75819,4.90232 11.54655,3.42671 15.73696,6.93643c6.14755,5.14894 8.42599,13.63003 15.21563,18.25068c4.25436,2.89528 19.15522,8.01824 13.17055,15.69322c-5.256,6.7405 -18.80676,6.29614 -26.38012,6.94638c-11.96755,1.02753 -23.88113,1.61539 -35.89355,1.55468c-10.59137,-0.05353 -21.37749,-0.76046 -31.94137,0.13255c-6.66256,0.56321 -13.11672,2.21064 -19.83585,1.37319c-3.25434,-0.40561 -6.59627,-1.0336 -8.64426,-3.86249c-5.36963,-7.41708 0.82037,-22.02611 8.2778,-25.88297c7.09159,-3.66764 16.03282,-1.17741 23.49352,-3.64536c9.81146,-3.24557 11.13521,-14.37807 11.61618,-23.23787c0.16757,-3.0868 0.65294,-6.88405 -0.49208,-9.84068c-1.49732,-3.86632 -6.2222,-4.58817 -9.58057,-6.0654c-3.07709,-1.3535 -5.60371,-3.48846 -7.86083,-5.95114c-5.15106,-5.6202 -9.218,-13.53755 -12.24793,-20.50105c-1.51553,-3.48304 -1.41021,-8.09637 -4.20724,-10.90202c-4.83881,-4.85372 -14.29013,-4.55765 -20.22163,-7.88893c-18.91962,-10.62575 -13.93523,-90.87252 7.85603,-90.2867zM62.18427,89.41126c1.74611,1.87262 7.53237,8.81295 10.59272,6.90489c1.53229,-0.95535 1.48577,-3.53064 1.58089,-5.04088c0.20915,-3.32063 0.18068,-6.66765 0.19169,-9.9934c0.02649,-7.99696 -0.08658,-15.99549 -0.25667,-23.99048c-0.06124,-2.87844 0.53703,-6.94418 -0.54233,-9.66094c-0.79413,-1.99883 -4.36998,-0.64646 -5.8486,-0.40704c-6.96516,1.12782 -13.22282,34.13897 -5.7177,42.18785zM134.65944,118.97424c4.78202,4.46558 10.30847,9.23953 17.25361,6.16811c4.51025,-1.99462 8.5011,-7.02774 11.0476,-11.10891c6.3802,-10.22533 12.22069,-22.78055 15.12528,-34.484c1.22408,-4.9322 2.08553,-12.91788 -1.70516,-17.0328c-2.10631,-2.28647 -5.59923,-3.87911 -8.47433,-4.91434c-3.71815,-1.33878 -7.77097,-1.75635 -11.66438,-2.29371c-7.83268,-1.08105 -16.10084,-2.91194 -22.69339,2.71348c-4.65238,3.96987 -10.31077,50.28643 1.11079,60.95219zM200.34807,103.32467c2.79878,-1.43644 5.12363,-4.53068 7.01508,-6.96433c5.30795,-6.82951 5.29509,-20.98054 2.06607,-28.8562c-0.81579,-1.98972 -4.31643,-8.68106 -7.11601,-8.22859c-2.56431,0.41445 -1.74935,8.62834 -1.79654,10.39713c-0.2923,10.95441 -4.03537,35.63656 -0.1686,33.65199z" fill="currentColor" fill-rule="evenodd"/></svg>
