<svg xmlns="http://www.w3.org/2000/svg" viewBox="0 0 256 256" role="img" aria-hidden="true"><!-- Iconic Drills Pack © 2026 Roman Kuzhel, Kyrgyzstan | CC BY 4.0 | https://github.com/roblo3x/iconic-drills-pack --><path d="M45.97016,39.2262c0.71832,-3.16223 2.56453,-10.62194 6.31462,-11.58567c3.18654,-0.8189 5.56365,3.45476 6.46125,5.76308c2.01147,5.17287 5.51799,8.7639 8.57621,13.30042c1.25015,1.85446 1.43687,5.14883 3.04714,6.60428c2.83452,2.562 11.78778,0.89029 15.35234,0.73414c5.08012,-0.22254 7.99522,-3.72482 11.16995,-7.27253c4.44632,-4.96867 8.73904,-10.07353 13.10375,-15.11344c1.9897,-2.2975 6.16582,-9.14191 9.90367,-6.85744c4.06879,2.48672 2.86766,12.52146 3.00473,16.62383c0.27012,8.0846 -1.67746,15.84752 -1.86369,23.88333c-0.18009,7.77115 2.00495,16.26732 0.77762,23.93866c-0.39576,2.47367 -2.92993,4.22942 -2.98941,6.66755c-0.11379,4.66445 9.15171,9.56998 12.3841,11.97199c7.49134,5.56686 15.08076,11.01148 22.39709,16.8095c4.64894,3.68418 9.58716,7.44558 12.5691,12.68536c7.3407,12.89889 8.49673,30.24464 9.02987,44.74688c0.17131,4.65984 0.19107,9.33964 0.50783,13.9925c0.09981,1.46612 0.01893,4.08949 1.50249,5.03704c2.03734,1.30124 4.94011,-1.42921 6.28058,-2.60445c4.10123,-3.59571 9.84592,-8.21634 10.52452,-13.99027c0.75855,-6.45417 -0.91506,-15.52206 -2.9595,-21.66116c-0.5682,-1.7062 -1.63468,-3.09397 -1.85891,-4.92007c-0.69507,-5.66072 0.6589,-12.22164 1.23528,-17.87455c0.63812,-6.25845 2.79615,-14.22623 10.71686,-13.91841c8.89407,0.34565 7.79614,11.92876 8.73822,18.59172c1.67959,11.87899 3.31743,23.78153 4.45865,35.72627c0.85916,8.99256 1.46286,17.21311 -4.5924,24.62689c-7.29531,8.93203 -19.51435,18.42782 -30.74585,21.64863c-7.49895,2.15044 -16.13079,1.68268 -23.86873,2.02563c-13.32237,0.59046 -26.64937,1.0871 -39.97744,1.52938c-8.66064,0.2874 -17.32902,0.62162 -25.99478,0.69055c-2.05626,0.01636 -7.526,0.80796 -8.5642,-1.69943c-1.84484,-4.45552 0.64409,-12.9646 4.33815,-15.80765c2.03581,-1.56681 4.76822,-1.82544 5.9623,-4.37512c1.32411,-2.82736 1.02453,-6.75788 1.06995,-9.80066c0.11926,-7.98799 -0.46076,-16.01066 -0.96107,-23.97917c-0.24955,-3.97455 -0.39474,-8.01515 -1.03634,-11.95061c-0.19199,-1.17764 -0.42122,-4.14338 -1.81331,-4.74611c-1.88376,-0.81561 -2.67074,4.51932 -2.85593,5.35747c-1.43751,6.50617 -2.54319,13.09624 -3.73911,19.64996c-1.91509,10.49485 -3.76512,21.00276 -5.7735,31.48033c-0.70928,3.70024 -0.90081,10.31813 -3.93254,12.9751c-3.95775,3.46854 -12.10243,3.15246 -16.96747,3.12839c-3.19212,-0.01579 -6.82976,0.06566 -9.81734,-1.24549c-5.49963,-2.41361 -2.75274,-11.77399 0.1437,-15.35967c1.24751,-1.54437 3.78728,-4.26988 5.91039,-4.50683c1.4538,-0.16225 2.53925,3.02876 3.3088,1.02359c1.99974,-5.21062 1.83748,-12.07286 2.50916,-17.58844c1.37027,-11.25212 2.6826,-22.51135 3.98222,-33.77182c1.22316,-10.59802 2.44307,-21.19685 3.60049,-31.80229c0.43129,-3.95191 2.22011,-9.92487 0.76417,-13.74253c-1.16902,-3.06533 -4.92397,-4.42952 -7.54013,-5.92066c-4.04156,-2.30358 -7.60868,-5.43167 -10.77067,-8.8322c-6.63188,-7.13219 -3.63563,-48.78361 -1.02284,-60.28581z" fill="currentColor" fill-rule="evenodd"/></svg>
