<svg xmlns="http://www.w3.org/2000/svg" viewBox="0 0 256 256" role="img" aria-hidden="true"><!-- Iconic Drills Pack © 2026 Roman Kuzhel, Kyrgyzstan | CC BY 4.0 | https://github.com/roblo3x/iconic-drills-pack --><path d="M113 29L116 25L122 27L123 56L121 65L122 90L120 99L164 134L174 166L176 200L180 201L183 199L194 186L191 162L189 159L189 146L191 135L194 129L199 126L205 127L208 132L215 193L199 216L179 226L170 228L90 232L81 227L83 215L91 210L92 178L90 163L86 161L74 224L69 229L63 231L49 231L42 228L42 224L44 223L44 216L52 209L55 209L65 113L54 106L43 94L42 73L46 39L49 30L53 27L58 31L60 37L69 49L70 54L90 53Z" fill="currentColor" fill-rule="evenodd"/></svg>
