<svg xmlns="http://www.w3.org/2000/svg" viewBox="0 0 256 256" role="img" aria-hidden="true"><!-- Iconic Drills Pack © 2026 Roman Kuzhel, Kyrgyzstan | CC BY 4.0 | https://github.com/roblo3x/iconic-drills-pack --><path d="M24 194C24.24 193.04 25.04 190.96 26 190C26.96 189.04 28.88 186.72 32 186C35.12 185.28 50.2 186.04 52 184C53.8 181.96 46.76 173.8 47 169C47.24 164.2 54.24 150.72 54 144C53.76 137.28 47.64 120.8 45 113C42.36 105.2 33.8 84.4 32 79C30.2 73.6 30.12 70.88 30 68C29.88 65.12 29.68 57.4 31 55C32.32 52.6 38.36 48.6 41 48C43.64 47.4 50.72 48.68 53 50C55.28 51.32 57.96 54.2 60 59C62.04 63.8 67.96 81.24 70 90C72.04 98.76 75.44 127.2 77 132C78.56 136.8 81.92 131.44 83 130C84.08 128.56 85.4 124.68 86 120C86.6 115.32 87.16 98.08 88 91C88.84 83.92 91.44 65.92 93 61C94.56 56.08 99.32 51.56 101 50C102.68 48.44 105.68 48.12 107 48C108.32 47.88 110.56 48.16 112 49C113.44 49.84 117.92 53.68 119 55C120.08 56.32 120.76 56.4 121 60C121.24 63.6 122.92 76.12 121 85C119.08 93.88 104.16 129.44 105 134C105.84 138.56 123.32 124.92 128 123C132.68 121.08 140.04 118.72 144 118C147.96 117.28 156.8 116.64 161 117C165.2 117.36 174.8 119.32 179 121C183.2 122.68 192.52 128.36 196 131C199.48 133.64 205.84 140 208 143C210.16 146 212.2 153.24 214 156C215.8 158.76 220.84 162.76 223 166C225.16 169.24 230.92 179.88 232 183C233.08 186.12 232.48 190.08 232 192C231.52 193.92 228.96 197.92 228 199C227.04 200.08 227 200.64 224 201C221 201.36 206.6 202.48 203 202C199.4 201.52 196.16 199.76 194 197C191.84 194.24 187.28 181.4 185 179C182.72 176.6 176.32 176.16 175 177C173.68 177.84 173.88 183.6 174 186C174.12 188.4 176.12 195.08 176 197C175.88 198.92 174.08 201.04 173 202C171.92 202.96 169.76 204.76 167 205C164.24 205.24 152.64 204.84 150 204C147.36 203.16 145.96 200.4 145 198C144.04 195.6 143.44 186.4 142 184C140.56 181.6 136.48 178.72 133 178C129.52 177.28 117.32 177.28 113 178C108.68 178.72 100 182.56 97 184C94 185.44 90.28 187.72 88 190C85.72 192.28 80.76 200.84 78 203C75.24 205.16 69.44 207.4 65 208C60.56 208.6 45.32 208.36 41 208C36.68 207.64 31.04 206.2 29 205C26.96 203.8 24.6 199.32 24 198C23.4 196.68 23.76 194.96 24 194ZM63 160C62.76 161.44 62.8 166.04 64 167C65.2 167.96 71.32 168.36 73 168C74.68 167.64 77.28 165.44 78 164C78.72 162.56 79.12 157.32 79 156C78.88 154.68 78.08 153.36 77 153C75.92 152.64 71.32 152.76 70 153C68.68 153.24 66.84 154.16 66 155C65.16 155.84 63.24 158.56 63 160Z" fill="currentColor" fill-rule="evenodd"/></svg>
