<svg xmlns="http://www.w3.org/2000/svg" viewBox="0 0 256 256" role="img" aria-hidden="true"><!-- Iconic Drills Pack © 2026 Roman Kuzhel, Kyrgyzstan | CC BY 4.0 | https://github.com/roblo3x/iconic-drills-pack --><path d="M32.10478,64.6582c5.07967,-0.07737 8.41233,2.87238 13.10829,4.00227c6.12998,1.47492 13.6722,0.92782 19.92254,0.47717c6.51024,-0.46938 12.0058,-6.7087 18.6982,-3.5073c6.31944,3.02299 4.21585,8.2078 1.18701,12.58627c-2.00981,2.90537 -1.30474,5.4522 2.35606,5.72791c7.80725,0.58798 16.13387,-0.85724 23.92481,-1.44837c6.64391,-0.5041 13.28743,-1.01344 19.93249,-1.50216c18.62997,-1.37017 37.26184,-3.44416 55.74027,0.29999c11.47726,2.32556 21.69569,5.98247 29.45269,15.24259c3.36845,4.02118 5.74597,9.10512 7.63359,13.96508c2.26623,5.83476 3.11994,11.29721 3.60718,17.48779c0.58269,7.40317 6.92691,12.75164 4.18451,20.71421c-2.35724,6.84425 -10.16137,4.87424 -12.96091,-0.61047c-1.18102,-2.3138 -1.03938,-5.23012 -1.14102,-7.74911c-0.23804,-5.89951 0.0985,-12.13657 -1.55268,-17.86048c-0.31952,-1.10762 -2.27464,-7.94801 -4.21193,-7.30698c-1.25826,0.41635 -0.93788,3.85583 -0.94852,4.68625c-0.05969,4.66015 0.11036,9.33141 0.21259,13.99014c0.30368,13.83902 1.75589,28.15313 0.62326,41.96107c-0.35447,4.32135 -1.60499,11.79909 -5.70191,14.26839c-2.7983,1.68659 -8.5843,1.66771 -10.49694,-1.36713c-1.34292,-2.13084 -1.34241,-5.23679 -1.61018,-7.65573c-0.58652,-5.29834 -0.99506,-10.61431 -1.55702,-15.91496c-0.16568,-1.56273 -1.0152,-10.24696 -4.44826,-8.75139c-2.09414,0.91229 -1.89401,6.91437 -2.10743,8.75308c-0.69136,5.95641 -1.28729,11.92471 -2.03718,17.87423c-0.29276,2.32269 -0.29755,5.56882 -1.86615,7.48157c-1.95517,2.38414 -8.23902,2.40335 -10.82894,1.20467c-3.63957,-1.68449 -2.48813,-9.2615 -2.55781,-12.49373c-0.12923,-5.99513 -0.18686,-11.99229 -0.36012,-17.98642c-0.08603,-2.97639 0.3096,-6.93397 -1.91875,-9.28317c-2.29449,-2.41893 -5.85528,-2.88278 -8.98565,-3.01238c-7.27772,-0.30129 -14.70833,-0.38813 -21.98387,-0.01234c-3.82349,0.19749 -8.19454,0.95297 -10.23626,4.64351c-1.57243,2.84226 -1.22989,6.59387 -1.21233,9.71719c0.03371,5.9963 0.22326,11.99206 0.19304,17.98878c-0.01892,3.75339 0.25051,8.35497 -4.18614,9.60291c-2.75402,0.77465 -6.94941,0.62787 -8.4911,-2.20367c-1.2035,-2.21041 -1.25032,-5.27052 -1.57353,-7.71063c-0.78744,-5.94474 -1.45214,-11.90528 -2.16216,-17.85954c-0.26841,-2.25095 -0.10604,-9.15099 -3.82577,-8.9556c-3.1366,0.16475 -2.91377,7.75823 -3.14787,9.84389c-0.66873,5.95794 -1.20874,11.93458 -1.99227,17.87905c-0.31637,2.40023 -0.4662,5.49236 -2.21887,7.37581c-1.84229,1.97975 -4.7945,1.80261 -7.23212,1.57324c-1.40214,-0.13194 -3.99241,-0.02781 -5.21887,-0.87479c-1.4097,-0.97353 -1.10981,-3.40725 -1.10428,-4.81815c0.01307,-3.32919 0.17965,-6.66297 0.29566,-9.98976c0.4558,-13.07023 3.46548,-29.38313 -3.49936,-41.24646c-1.02285,-1.74224 -2.90429,-4.75417 -5.39155,-3.60641c-4.3411,2.00321 -6.20208,8.98634 -10.04136,11.96178c-7.85573,6.0882 -22.36217,5.15727 -30.18975,-0.39444c-5.43516,-3.85489 -7.7493,-11.18607 -5.8455,-17.61135c1.49056,-5.03061 4.84998,-9.58118 7.24499,-14.20984c3.66682,-7.08662 7.04545,-16.73802 7.30689,-24.7891c0.18748,-5.7734 -5.69263,-5.45275 -9.93676,-5.83971c-5.84631,-0.53303 -5.18925,-14.67106 -0.84294,-14.73726zM57.3808,131.61118c4.02111,-0.29885 5.9284,-5.02792 7.63845,-8.05863c3.50742,-6.21617 7.59667,-12.74531 9.94657,-19.50764c1.01795,-2.92936 1.42799,-6.70489 -0.43413,-9.42337c-2.48392,-3.62624 -7.0634,-2.52778 -10.65398,-3.78435c-1.87191,-0.6551 -3.28193,-1.88754 -4.2101,-3.63381c-0.61353,-1.15429 -0.89393,-3.69731 -2.61191,-3.91892c-3.12991,-0.40375 -4.10369,7.37196 -4.61951,9.33082c-1.50828,5.72771 -2.65163,11.73891 -4.90955,17.23089c-1.76861,4.30182 3.38481,22.24581 9.85416,21.76501zM67.42772,105.54658c-1.09094,3.36241 -7.02604,4.68763 -9.66127,2.50351c-2.17962,-1.8065 12.53307,-11.35471 9.66127,-2.50351zM106.41256,132.56409c6.8086,3.52161 16.77395,2.64638 21.59009,-3.69772c3.37293,-4.44302 1.7928,-10.27892 -0.13606,-14.96371c-2.02092,-4.90841 -4.27781,-9.75932 -8.7954,-12.84642c-7.9308,-5.41953 -21.45192,26.95971 -12.65863,31.50786zM166.83838,130.56265c6.59123,7.12687 20.88952,5.59304 26.83817,-1.28115c6.06099,-7.00401 5.02417,-23.45445 -2.3762,-29.344c-9.09227,-7.23604 -30.27065,24.34442 -24.46197,30.62515z" fill="currentColor" fill-rule="evenodd"/></svg>
