<svg xmlns="http://www.w3.org/2000/svg" viewBox="0 0 256 256" role="img" aria-hidden="true"><path d="M25 75L24 69L28 65L37 65L46 69L68 69L76 65L83 65L88 69L88 75L84 79L84 82L90 84L167 79L201 85L216 96L223 108L227 120L228 132L232 139L232 149L227 154L220 150L218 146L217 126L214 117L211 117L212 170L211 181L207 190L200 191L195 188L192 161L190 157L187 157L183 189L179 192L172 192L169 189L168 155L165 151L160 149L133 149L126 152L124 158L124 187L120 191L115 191L111 188L107 157L106 155L102 155L98 187L93 191L85 190L83 188L84 149L81 136L77 130L74 130L65 142L55 146L40 145L30 138L28 125L38 105L43 82L34 81ZM73 93L63 91L59 87L59 84L55 84L48 109L41 122L42 127L54 131L61 130L75 104L75 95ZM193 102L179 95L167 96L162 101L162 120L165 128L170 133L185 135L194 129L197 122L197 112ZM96 100L92 106L92 111L98 125L104 131L111 134L124 133L130 124L124 106L119 101L112 98L101 98ZM59 99L63 97L67 100L66 108L59 109L57 107L56 101Z" fill="currentColor" fill-rule="evenodd"/></svg>
