<svg xmlns="http://www.w3.org/2000/svg" viewBox="0 0 256 256" role="img" aria-hidden="true"><!-- Iconic Drills Pack © 2026 Roman Kuzhel, Kyrgyzstan | CC BY 4.0 | https://github.com/roblo3x/iconic-drills-pack --><path d="M42.07273,185.52835c2.4163,-0.09268 7.48345,0.39664 9.13774,-1.87028c1.11813,-1.53221 -0.02855,-3.66928 -0.67732,-5.08336c-1.36213,-2.96896 -3.25704,-5.87863 -3.32941,-9.25634c-0.1993,-9.3026 7.44859,-17.27642 6.52404,-26.89871c-0.56617,-5.89238 -2.77023,-11.76627 -4.6285,-17.34828c-3.37108,-10.12631 -7.0784,-20.1065 -10.98271,-30.03768c-2.64802,-6.73562 -5.91349,-13.56754 -7.40102,-20.67927c-2.092,-10.00159 -2.05047,-23.46758 10.29536,-26.16086c10.6715,-2.32802 17.12914,5.75876 20.41747,14.58701c5.90634,15.8569 9.55503,31.66819 12.02608,48.37027c0.87313,5.90156 1.49428,11.94728 2.83638,17.76488c0.31014,1.34437 0.75759,3.9625 2.59061,4.18095c2.35063,0.28013 4.17496,-3.29554 4.94151,-4.95746c2.22828,-4.83099 2.40509,-10.42648 2.71868,-15.6439c1.00176,-16.66673 0.98737,-35.52618 6.53004,-51.46326c2.20409,-6.33751 8.22096,-13.78983 15.65895,-12.84121c8.99093,1.14668 12.16837,9.91937 12.76039,17.53893c0.46127,5.93677 0.75432,12.04308 -0.30153,17.93573c-1.85185,10.33512 -6.69756,20.4264 -10.25709,30.26356c-1.8044,4.98668 -3.77268,10.01457 -5.06155,15.16587c-0.32037,1.28043 -1.18944,3.89753 0.23657,4.94534c2.47935,1.82179 8.22492,-2.67603 10.21783,-3.90785c9.86401,-6.09693 19.40424,-11.2137 31.15491,-12.59397c22.34167,-2.62434 44.15866,6.01309 58.72419,23.28023c3.97033,4.70675 4.89861,10.83094 8.40694,15.75396c6.45096,9.05222 17.61631,18.18931 17.93157,30.41731c0.12113,4.69845 -2.15875,11.33842 -6.79516,13.40678c-3.94338,1.75919 -9.54001,1.33497 -13.78232,1.55108c-4.56079,0.23233 -9.47597,0.66957 -13.65843,-1.55183c-6.62752,-3.52002 -8.0452,-12.12615 -11.40691,-18.20222c-1.89633,-3.42749 -5.42463,-5.97336 -9.56698,-5.31499c-2.90546,0.46178 -3.26238,3.15893 -3.34039,5.61481c-0.15825,4.98179 2.90566,10.88327 1.44305,15.66797c-2.71619,8.8856 -15.83566,7.48272 -22.82865,6.26708c-9.78225,-1.70052 -7.30417,-12.46723 -10.36415,-19.31816c-2.61729,-5.85978 -9.30356,-7.33124 -15.06704,-7.54436c-12.76479,-0.472 -25.31366,2.3049 -35.89637,9.84895c-5.59257,3.98675 -7.89709,10.58573 -12.91108,15.05873c-6.61332,5.89975 -16.3403,5.95042 -24.64967,5.92683c-9.82799,-0.0279 -19.632,-22.56596 -11.64606,-22.87226zM63.43913,165.70905c2.05412,3.76412 9.26898,3.11443 12.19131,0.94857c3.01291,-2.233 4.20661,-7.08377 3.33561,-10.65393c-0.69546,-2.85063 -3.15721,-3.44149 -5.75967,-3.40705c-5.15659,0.06824 -11.05363,10.75516 -9.76725,13.11241z" fill="currentColor" fill-rule="evenodd"/></svg>
