<svg xmlns="http://www.w3.org/2000/svg" viewBox="0 0 256 256" role="img" aria-hidden="true"><!-- Iconic Drills Pack © 2026 Roman Kuzhel, Kyrgyzstan | CC BY 4.0 | https://github.com/roblo3x/iconic-drills-pack --><path d="M31.27391,101.166c1.22872,-1.5104 2.98011,-2.30848 3.97017,-4.05376c1.30277,-2.29653 1.31249,-5.09865 2.52024,-7.45127c1.82415,-3.55335 5.82404,-5.425 9.16272,-7.27215c2.22259,-1.22967 7.79433,-5.39277 10.45718,-3.87989c3.66358,2.08143 -2.64752,6.98723 -1.3561,9.27948c0.76124,1.35118 3.77616,-4.07822 3.91655,-4.3358c1.17187,-2.1501 5.40087,-7.81752 3.91582,-10.35531c-1.31863,-2.25339 -4.95177,-1.124 -6.70644,-0.33727c-5.41665,2.42863 -10.3327,6.21722 -15.43723,9.22634c-1.55528,0.91684 -6.88833,3.8489 -6.4343,-0.45019c0.46576,-4.41022 5.71735,-9.85184 8.14105,-13.43798c5.73495,-8.48552 11.44635,-16.1097 19.41569,-22.6394c6.19419,-5.07523 11.69674,-8.09597 19.63035,-4.24044c6.98262,3.39337 14.14315,12.21659 15.72139,19.77444c0.52092,2.49458 -0.40427,5.2521 0.33317,7.63604c1.59848,5.16747 7.80524,6.39898 8.05634,12.80895c0.20319,5.18689 -1.95854,10.60603 -2.81763,15.68917c-0.37366,2.2109 -1.22918,5.51399 -0.00963,7.6156c1.63762,2.82205 6.32538,1.11556 8.68794,0.5066c7.50717,-1.93503 15.29238,-5.98764 23.15509,-5.85162c15.04162,0.2602 27.64149,15.80141 34.37387,27.76862c3.81345,6.77862 7.71352,14.38994 8.93651,22.14586c1.63736,10.38369 0.31869,21.49826 0.13249,31.96295c-0.063,3.54092 -1.04525,15.26018 4.66514,15.43923c3.34651,0.10493 5.08495,-4.18052 6.00097,-6.69327c2.50062,-6.85953 4.28746,-14.06 6.23225,-21.09257c1.49013,-5.38847 5.30941,-13.78294 3.66659,-19.3704c-1.79287,-6.09783 -9.93193,-12.01967 -14.25315,-16.44031c-9.05716,-9.26551 -17.39905,-18.03883 -23.33823,-29.68975c-3.00957,-5.90387 -5.75101,-12.21077 -5.1312,-18.99155c0.72901,-7.97538 4.02859,-15.51785 5.0538,-23.43212c0.50957,-3.93367 -0.53925,-10.14533 2.71463,-13.21738c6.10859,-5.76722 14.20531,-5.25139 22.21384,-5.78569c7.97347,-0.53196 18.1007,-2.6451 25.8843,-0.39354c6.2282,1.80162 12.16366,9.97798 14.16664,15.91177c1.62534,4.81502 0.0757,11.03186 -2.32313,15.33522c-5.54484,9.94715 -14.33677,20.22376 -23.19336,27.32257c-4.83964,3.87911 -11.5058,8.86274 -17.60331,4.1774c-2.734,-2.10082 -3.01268,-5.72729 -2.51456,-8.87837c1.09548,-6.92996 7.46298,-18.23052 14.91035,-19.95846c7.36212,-1.70816 1.53508,8.36167 0.7673,11.00909c-0.13947,0.48091 -0.71607,2.13624 0.1539,2.63405c1.82133,1.04219 4.9676,-2.18292 5.98622,-3.25156c3.93735,-4.13071 9.78126,-10.84934 10.29714,-16.73783c1.15122,-13.14063 -14.95883,-10.25487 -22.96002,-8.40142c-2.5826,0.59825 -5.15227,1.30313 -7.26444,2.98974c-4.53894,3.62445 -6.66919,10.28156 -8.4477,15.59108c-2.48061,7.40554 -3.93157,18.04766 -1.36269,25.59802c3.09205,9.08804 10.32098,15.53027 18.37196,20.25111c8.8122,5.16719 20.93569,8.11821 25.07694,18.46758c2.61052,6.52393 -3.47539,14.45828 -6.02782,20.27246c-5.52681,12.58955 -3.81585,26.15509 -7.697,39.04728c-1.80932,6.0101 -7.26124,14.63608 -14.13928,15.35177c-6.64613,0.69156 -13.00759,-3.61382 -18.2151,-7.10238c-2.15014,-1.4404 -5.64501,-4.69591 -8.44535,-4.39903c-1.87077,0.19833 -2.63866,2.30545 -3.78026,3.459c-1.43139,1.44638 -3.21796,2.15933 -5.09526,2.8278c-16.76177,5.96855 -34.74038,12.35358 -52.4101,7.61995c-4.65052,-1.24585 -11.11053,-2.40545 -14.54003,-6.09096c-4.51245,-4.84932 -0.61793,-16.44145 5.68072,-18.0747c5.72753,-1.48516 13.03897,4.99883 18.45269,6.4154c1.49779,0.39192 5.74711,1.66776 7.03295,0.17565c0.70341,-0.81625 -0.42034,-1.99899 -0.81863,-2.41581c-1.78122,-1.86412 -4.35836,-3.13964 -6.48486,-4.55984c-6.27856,-4.1932 -10.61889,-9.85384 -13.25506,-16.96345c-1.35912,-3.66549 -1.92005,-7.9364 0.96661,-11.0529c6.61402,-7.14063 20.77561,-8.41264 29.71484,-10.90748c1.68815,-0.47114 9.98849,-1.81552 8.76683,-4.91856c-0.70546,-1.79188 -3.27896,-1.23241 -4.5806,-0.8825c-3.18225,0.85547 -6.2477,2.41182 -9.30865,3.61717c-7.02588,2.76665 -14.09865,3.23797 -21.31938,5.07258c-2.60333,0.66144 -4.30801,2.52609 -6.76185,3.41274c-1.85441,0.67006 -3.75218,0.62873 -5.51247,1.63371c-1.65054,0.94232 -2.82258,2.48895 -4.46695,3.43684c-1.39822,0.806 -2.54999,0.85867 -3.65555,2.17175c-6.33395,7.52284 -9.84249,17.61681 -13.24416,26.6686c-1.8326,4.8765 -3.44313,10.28986 -6.85673,14.3329c-2.92577,3.46526 -9.66768,10.28303 -14.7327,7.65465c-5.38621,-2.79505 -4.74732,-13.55414 -3.1712,-18.32008c0.79898,-2.41597 2.57876,-4.43564 2.92357,-6.99995c0.53911,-4.00922 2.08007,-6.88503 3.26836,-10.71104c0.73717,-2.37351 0.24251,-4.84008 0.81954,-7.25297c1.75883,-7.35464 5.73844,-15.50557 10.16542,-21.6137c6.40567,-8.83824 17.9725,-15.89612 17.09433,-27.97531c-0.18304,-2.5177 -0.7458,-7.3497 -3.90363,-8.00298c-2.79458,-0.57813 -6.36431,2.7106 -8.53039,4.07643c-4.96802,3.13259 -10.47006,6.27935 -16.50326,6.58738c-10.15554,0.51851 -19.18172,-25.36714 -16.96502,-28.09201zM76.22815,95.76576c2.30553,3.8998 8.93504,8.54199 13.3723,5.28971c4.84362,-3.55011 5.96515,-13.62462 3.85959,-18.78978c-2.24956,-5.51841 -9.07964,-5.83944 -13.28389,-2.60235c-1.67816,1.29211 -6.28269,12.1533 -3.948,16.10242z" fill="currentColor" fill-rule="evenodd"/></svg>
