<svg xmlns="http://www.w3.org/2000/svg" viewBox="0 0 256 256" role="img" aria-hidden="true"><!-- Iconic Drills Pack © 2026 Roman Kuzhel, Kyrgyzstan | CC BY 4.0 | https://github.com/roblo3x/iconic-drills-pack --><path d="M25 91C25.48 87.76 27.8 85.72 29 85C30.2 84.28 33.92 84.64 35 85C36.08 85.36 37.64 86.8 38 88C38.36 89.2 37.4 92.6 38 95C38.6 97.4 41.2 106.44 43 108C44.8 109.56 48.44 108.72 53 108C57.56 107.28 72.6 103.32 81 102C89.4 100.68 117 95.8 123 97C129 98.2 127.88 109.96 131 112C134.12 114.04 146.12 114.12 149 114C151.88 113.88 153.32 112.68 155 111C156.68 109.32 161.68 103.24 163 100C164.32 96.76 165.64 88.08 166 84C166.36 79.92 166.6 68.04 166 66C165.4 63.96 162.08 63.88 161 67C159.92 70.12 158.08 87.68 157 92C155.92 96.32 153.8 101.08 152 103C150.2 104.92 144.4 107.76 142 108C139.6 108.24 133.68 105.96 132 105C130.32 104.04 128.6 101.92 128 100C127.4 98.08 126.52 92.84 127 89C127.48 85.16 130.32 73.04 132 68C133.68 62.96 139.44 49.76 141 47C142.56 44.24 140.2 45.24 145 45C149.8 44.76 175.84 44.4 181 45C186.16 45.6 186.44 47.84 188 50C189.56 52.16 188.72 61.08 194 63C199.28 64.92 227.44 64.44 232 66C236.56 67.56 232.36 73.48 232 76C231.64 78.52 230.08 84.36 229 87C227.92 89.64 228.04 95.36 223 98C217.96 100.64 192.04 100.72 187 109C181.96 117.28 181.6 155.48 181 167C180.4 178.52 182.48 199.96 182 205C181.52 210.04 179.4 208.52 177 209C174.6 209.48 164.4 209.48 162 209C159.6 208.52 157.48 207.52 157 205C156.52 202.48 158.24 193.04 158 188C157.76 182.96 156.32 165.76 155 163C153.68 160.24 148.2 159.84 147 165C145.8 170.16 145.6 200.72 145 206C144.4 211.28 143.92 208.52 142 209C140.08 209.48 131.28 210.24 129 210C126.72 209.76 123.96 212.28 123 207C122.04 201.72 125.44 170.68 121 166C116.56 161.32 89.96 163.68 86 168C82.04 172.32 88.24 197.2 88 202C87.76 206.8 84.96 207.16 84 208C83.04 208.84 81.56 208.88 80 209C78.44 209.12 72.8 209.48 71 209C69.2 208.52 65.96 209.56 65 205C64.04 200.44 63.96 175.2 63 171C62.04 166.8 58.08 165.8 57 170C55.92 174.2 55.44 201.2 54 206C52.56 210.8 47.64 209.64 45 210C42.36 210.36 33.8 209.72 32 209C30.2 208.28 30.12 213.6 30 204C29.88 194.4 31.6 140.04 31 129C30.4 117.96 25.72 116.56 25 112C24.28 107.44 24.52 94.24 25 91Z" fill="currentColor" fill-rule="evenodd"/></svg>
