<svg xmlns="http://www.w3.org/2000/svg" viewBox="0 0 256 256" role="img" aria-hidden="true"><path d="M167 145L164 152L156 160L145 165L134 167L103 164L84 154L76 156L74 167L79 170L124 175L140 182L149 191L151 197L150 203L145 209L140 211L130 210L117 203L108 204L110 211L123 220L123 226L117 231L105 230L82 213L47 200L39 192L33 177L33 139L37 119L42 107L53 95L77 82L83 56L90 44L99 35L125 25L148 25L160 28L172 34L183 44L196 66L209 78L218 94L220 120L217 135L211 147L199 160L190 175L188 196L190 202L194 206L200 206L210 199L220 201L223 206L221 218L215 224L207 228L191 230L181 226L174 220L166 201L166 180L170 167L178 153L193 137L200 123L201 107L198 100L190 94L182 94L176 96L170 102L167 108L167 116L170 125L170 137ZM147 56L132 65L109 64L102 71L101 82L107 94L107 101L97 114L95 126L99 134L109 141L116 143L132 142L139 139L146 131L147 116L140 105L139 96L141 92L155 80L159 71L157 60L154 57Z" fill="currentColor" fill-rule="evenodd"/></svg>
