<svg xmlns="http://www.w3.org/2000/svg" viewBox="0 0 256 256" role="img" aria-hidden="true"><!-- Iconic Drills Pack © 2026 Roman Kuzhel, Kyrgyzstan | CC BY 4.0 | https://github.com/roblo3x/iconic-drills-pack --><path d="M25.04377,79.32385c0.69215,-1.12571 1.67142,-1.89538 2.85479,-2.44966c5.02876,-2.35544 8.436,0.87863 12.22149,3.71329c2.6069,1.95211 5.52499,3.70571 8.5573,1.49898c5.80574,-4.22507 9.26186,-11.53034 14.68041,-16.28925c15.00338,-13.17688 35.67519,-19.75227 55.43495,-19.23557c16.4104,0.42912 33.56272,5.20365 47.41058,13.9405c4.82827,3.04624 8.2276,9.57653 13.34295,11.69164c5.91071,2.44397 15.24487,-3.34884 20.85213,-5.12464c3.04952,-0.96577 6.56811,-1.52805 8.29207,1.89484c3.44866,6.84725 -4.5276,12.1853 -10.19001,13.65602c-1.99593,0.51841 -7.60709,0.71514 -6.03009,4.22603c0.77586,1.72731 2.54975,2.92728 3.50645,4.56922c1.88803,3.24032 1.99022,8.05143 5.38399,10.27523c2.66185,1.7442 6.59851,1.44445 9.63321,1.64539c4.08873,0.27073 7.83988,0.94438 11.29664,3.29815c4.03141,2.74505 5.68588,7.12427 7.24233,11.55024c3.27878,9.32365 3.65912,19.94394 0.45693,29.41572c-3.90065,11.53777 -13.51746,15.53852 -24.88786,15.4644c-3.61396,-0.02356 -10.01401,-1.37431 -13.30592,0.2898c-1.17588,0.59442 -1.91504,2.51708 -2.79359,3.44134c-2.70069,2.84117 -6.40919,4.924 -8.67105,8.17296c-5.21149,7.48582 8.11373,16.99323 2.23808,24.09885c-1.2882,1.55787 -3.20886,1.87614 -5.11285,1.73546c-7.36453,-0.54417 -7.11212,-7.85808 -9.45302,-13.16764c-0.64973,-1.4737 -1.8036,-3.36275 -3.77759,-2.8601c-2.62482,0.66837 -2.40361,4.34619 -2.39997,6.35746c0.00698,3.86231 2.0737,12.47324 -3.04726,13.83364c-0.97735,0.25964 -2.9299,0.27921 -3.9162,0.21849c-9.62894,-0.59279 0.30926,-12.86686 -6.65208,-16.67975c-3.68729,-2.01962 -9.70668,-1.08822 -13.74927,-1.00638c-7.9996,0.16195 -15.993,0.60608 -23.98035,1.05948c-3.50902,0.19919 -8.37315,-0.44463 -11.69329,0.70372c-2.48644,0.86 -1.23574,4.27515 -0.83473,6.05305c1.21929,5.40581 3.85046,15.59299 -5.91952,13.28658c-3.45971,-0.81674 -4.80781,-4.16011 -5.96819,-7.13027c-2.38098,-6.0945 -4.09677,-13.44601 -11.9067,-13.9985c-4.00345,-0.28321 -4.9023,2.60211 -5.27254,5.99194c-0.6055,5.54379 1.27804,15.56244 -6.74061,15.75097c-1.18907,0.02796 -2.72887,-0.15958 -3.83975,-0.62336c-3.47505,-1.45082 -3.35133,-4.98762 -3.12027,-8.17856c0.46577,-6.43252 3.09736,-15.6659 -0.04897,-21.67579c-2.47045,-4.71889 -7.83425,-7.25052 -11.0598,-11.38064c-6.26226,-8.01844 -10.13298,-21.8657 -11.05866,-31.85345c-0.76522,-8.2565 0.43269,-15.72239 2.5158,-23.68494c1.13363,-4.33323 4.16105,-10.99116 3.02699,-15.48242c-0.89482,-3.54378 -5.11117,-3.21665 -7.80747,-4.34181c-4.51044,-1.88219 -6.59084,-11.23718 -5.70946,-12.67065zM178.64097,143.54776c5.01983,6.83746 16.88718,6.40795 24.34804,6.56559c3.19616,0.06753 6.83606,0.34949 9.72207,-1.31147c2.84792,-1.63904 4.5277,-4.9698 5.54334,-7.9697c2.32288,-6.86109 1.62842,-19.72628 -5.35366,-23.86907c-3.34962,-1.98749 -7.99225,-1.4035 -11.70812,-1.27027c-9.63404,0.3454 -25.65232,23.63157 -22.55167,27.85493zM193.7199,125.99373c3.10889,2.25954 3.26138,9.72869 1.93592,12.96927c-1.21434,2.96889 -4.76644,4.77447 -7.29306,2.14748c-0.7597,-0.78987 -1.59957,-2.40689 -2.05199,-3.3744c-0.56174,-1.2013 0.65125,-16.65395 7.40913,-11.74234zM212.15532,125.82522c2.42938,2.62148 2.20522,12.76954 -0.45658,15.18392c-2.48891,2.25756 -6.72709,0.76282 -7.97965,-2.06911c-1.30511,-2.95074 4.33095,-17.54471 8.43623,-13.11482z" fill="currentColor" fill-rule="evenodd"/></svg>
