<svg xmlns="http://www.w3.org/2000/svg" viewBox="0 0 256 256" role="img" aria-hidden="true"><!-- Iconic Drills Pack © 2026 Roman Kuzhel, Kyrgyzstan | CC BY 4.0 | https://github.com/roblo3x/iconic-drills-pack --><path d="M201 185L207 192L209 205L205 212L197 213L192 209L190 203L185 198L161 195L146 184L139 172L134 169L124 170L115 182L115 194L124 202L140 206L143 208L145 214L140 221L121 222L105 216L96 208L91 200L90 186L97 170L97 163L95 162L88 163L78 170L71 186L71 199L65 207L59 208L52 204L48 193L50 171L57 159L67 150L78 145L79 140L66 139L55 144L45 155L41 167L34 172L26 168L25 151L31 135L43 122L58 115L77 114L83 111L84 75L91 57L102 43L113 36L123 33L135 32L153 34L168 39L183 50L193 64L204 90L204 107L200 117L187 133L186 140L188 144L201 150L223 150L232 157L231 165L218 171L191 168L174 160L167 160L165 162L165 167L168 171L191 177L197 180ZM164 75L160 73L147 74L139 80L135 89L134 100L139 115L144 121L155 126L167 124L173 118L177 109L178 99L176 88L172 81Z" fill="currentColor" fill-rule="evenodd"/></svg>
