<svg xmlns="http://www.w3.org/2000/svg" viewBox="0 0 256 256" role="img" aria-hidden="true"><!-- Iconic Drills Pack © 2026 Roman Kuzhel, Kyrgyzstan | CC BY 4.0 | https://github.com/roblo3x/iconic-drills-pack --><path d="M36.66877,86.63079c1.75455,2.04116 1.05455,4.97277 1.31815,7.40664c0.4888,4.51317 2.44961,13.77176 7.85478,14.59745c7.24759,1.10712 16.45117,-2.69725 23.47523,-4.27874c10.39562,-2.3406 20.95019,-3.96487 31.49073,-5.50579c6.39216,-0.93446 13.37589,-2.45759 19.85599,-1.94605c7.71618,0.60912 6.25156,8.25224 9.33036,13.23531c1.09071,1.76533 2.73499,2.49214 4.68031,2.94892c4.90785,1.15242 13.02232,2.17588 17.65632,-0.22246c11.53918,-5.97214 13.49815,-22.17602 13.92062,-33.55164c0.12227,-3.29232 0.32063,-6.69805 0.02344,-9.98482c-0.12781,-1.41348 -0.36353,-3.93236 -2.32411,-4.09512c-1.95188,-0.16204 -2.85236,2.11616 -3.28055,3.55421c-0.93576,3.14267 -1.15511,6.60726 -1.60409,9.84526c-1.59777,11.52292 -4.67836,33.54648 -21.89824,28.38665c-1.86474,-0.55876 -3.81286,-1.29421 -5.41191,-2.43028c-4.94492,-3.5132 -5.27721,-10.88112 -4.58187,-16.36599c1.72994,-13.64576 6.74881,-27.52866 13.05776,-39.69871c2.13999,-4.12807 5.53884,-3.60096 9.69466,-3.69459c7.98903,-0.17999 15.99113,-0.26893 23.98156,-0.13758c3.69979,0.06082 8.35861,-0.3183 11.44325,2.13704c5.31127,4.2277 2.44793,13.64693 9.54526,16.19048c8.81658,3.1597 20.55885,1.50891 29.82427,2.10266c3.19231,0.20457 8.96526,0.00556 9.03924,4.50639c0.04134,2.51513 -1.35376,5.20826 -1.9525,7.62145c-1.59746,6.4385 -2.81419,17.8844 -9.64131,20.89411c-12.27481,5.41131 -33.20883,-0.07209 -37.1946,16.92938c-2.26586,9.66511 -2.59032,19.90613 -3.07398,29.78556c-0.68517,13.99538 -1.20401,27.93911 -0.50767,41.94173c0.30349,6.10285 4.03901,21.15876 -4.52587,22.24394c-4.76641,0.60391 -15.70483,2.06271 -18.85704,-2.63842c-1.77722,-2.6505 -0.80458,-6.66141 -0.52371,-9.59289c0.58003,-6.0539 0.38699,-11.88884 -0.16345,-17.93779c-0.4071,-4.47383 -0.4562,-9.53334 -1.86239,-13.82899c-0.57461,-1.75533 -1.63314,-3.40363 -3.66843,-3.5828c-5.30435,-0.46696 -5.2604,7.21455 -5.46591,10.63249c-0.55981,9.3102 -0.62782,18.64359 -0.99378,27.9618c-0.13383,3.40756 0.52079,8.30148 -3.74756,9.11629c-2.55119,0.48701 -5.29508,0.5859 -7.88467,0.73858c-2.52641,0.14895 -7.23734,1.18129 -9.31207,-0.73524c-2.58698,-2.38971 -1.53459,-8.21292 -1.43871,-11.30819c0.2265,-7.31207 0.66288,-14.66218 0.23202,-21.97478c-0.17761,-3.01441 -0.21647,-6.98259 -2.31184,-9.40622c-4.2073,-4.86643 -15.47171,-3.15336 -21.059,-2.50077c-4.332,0.50597 -11.93079,0.94691 -14.20637,5.40322c-1.4478,2.83526 -0.92187,6.71466 -0.65943,9.75353c0.51647,5.98025 1.69699,11.86646 2.51714,17.80563c0.77641,5.62239 -0.09588,10.67264 -6.51832,11.88249c-1.9315,0.36385 -4.00016,0.39116 -5.95927,0.38548c-2.89344,-0.00838 -7.05729,0.11756 -8.97434,-2.51991c-1.5036,-2.06865 -1.41554,-5.16399 -1.56035,-7.58689c-0.35767,-5.9846 -0.46844,-11.98308 -0.72116,-17.9725c-0.13457,-3.18928 0.06424,-6.82361 -0.91328,-9.89723c-0.4642,-1.4596 -1.58451,-3.55522 -3.51991,-3.16491c-1.89598,0.38236 -2.35371,2.78299 -2.6123,4.30456c-0.66385,3.90626 -0.65752,8.00121 -0.87793,11.95098c-0.29675,5.31777 -0.5168,10.65175 -1.03102,15.95428c-0.23843,2.45868 -0.35791,5.45673 -2.07256,7.42938c-3.73181,4.29334 -15.89285,2.71617 -20.79547,1.46721c-2.86054,-0.72873 -1.9357,-5.39459 -1.9277,-7.59892c0.02416,-6.6611 0.21225,-13.32323 0.3572,-19.98251c0.38567,-17.71827 2.27555,-36.28997 0.48285,-53.94404c-0.58048,-5.71646 -3.82883,-9.54695 -5.4449,-14.80361c-1.97122,-6.41185 6.12667,-32.24133 11.29844,-26.22476z" fill="currentColor" fill-rule="evenodd"/></svg>
