<svg xmlns="http://www.w3.org/2000/svg" viewBox="0 0 256 256" role="img" aria-hidden="true"><!-- Iconic Drills Pack © 2026 Roman Kuzhel, Kyrgyzstan | CC BY 4.0 | https://github.com/roblo3x/iconic-drills-pack --><path d="M25 112C25.24 111.28 23.52 110.24 27 110C30.48 109.76 46.44 109.4 54 110C61.56 110.6 83.76 114.76 90 115C96.24 115.24 104.08 112.84 106 112C107.92 111.16 108.04 110.88 106 108C103.96 105.12 92.36 92.44 89 88C85.64 83.56 80.88 74.36 78 71C75.12 67.64 69.2 62.88 65 60C60.8 57.12 45.64 48.92 43 47C40.36 45.08 42.64 44.6 43 44C43.36 43.4 43 42.84 46 42C49 41.16 61.52 37.36 68 37C74.48 36.64 91.72 37.44 100 39C108.28 40.56 129.32 43.76 137 50C144.68 56.24 160.52 85.36 164 91C167.48 96.64 165.28 96.28 166 97C166.72 97.72 167.84 98.44 170 97C172.16 95.56 180.16 86.56 184 85C187.84 83.44 198.88 83.64 202 84C205.12 84.36 208.32 86.68 210 88C211.68 89.32 213.36 93.44 216 95C218.64 96.56 230.32 99.68 232 101C233.68 102.32 232.64 104.44 230 106C227.36 107.56 215.28 110.76 210 114C204.72 117.24 189.6 126.88 186 133C182.4 139.12 182.28 158.16 180 165C177.72 171.84 171.68 185.08 167 190C162.32 194.92 149.4 202.4 141 206C132.6 209.6 102.76 218.56 97 220C91.24 221.44 93.36 218.84 93 218C92.64 217.16 91.6 217.56 94 213C96.4 208.44 109.76 186.84 113 180C116.24 173.16 120.04 159.6 121 156C121.96 152.4 123.64 150.48 121 150C118.36 149.52 105.72 148.52 99 152C92.28 155.48 71.6 174.8 65 179C58.4 183.2 46.88 186.28 44 187C41.12 187.72 41.36 186.08 41 185C40.64 183.92 40.4 180.28 41 178C41.6 175.72 44.56 168.28 46 166C47.44 163.72 52.16 160.2 53 159C53.84 157.8 55.16 156.36 53 156C50.84 155.64 37.64 156.12 35 156C32.36 155.88 31.6 155.6 31 155C30.4 154.4 29.52 152.2 30 151C30.48 149.8 32.84 146.44 35 145C37.16 143.56 46.44 140.08 48 139C49.56 137.92 49.2 136.84 48 136C46.8 135.16 39.92 133.08 38 132C36.08 130.92 33.56 128.92 32 127C30.44 125.08 25.84 117.8 25 116C24.16 114.2 24.76 112.72 25 112Z" fill="currentColor" fill-rule="evenodd"/></svg>
