<svg xmlns="http://www.w3.org/2000/svg" viewBox="0 0 256 256" role="img" aria-hidden="true"><path d="M143 58L166 97L170 97L184 85L202 84L210 88L216 95L231 100L232 104L210 114L186 133L180 165L167 190L141 206L120 214L96 220L93 218L94 213L113 180L121 156L121 150L99 152L65 179L45 187L41 185L41 178L46 166L53 159L53 156L44 157L30 154L31 149L41 141L48 139L48 136L38 132L32 127L25 116L27 110L69 111L90 115L106 112L106 108L89 88L78 71L65 60L45 49L43 44L68 37L100 39L135 49Z" fill="currentColor" fill-rule="evenodd"/></svg>
