<svg xmlns="http://www.w3.org/2000/svg" viewBox="0 0 256 256" role="img" aria-hidden="true"><!-- Iconic Drills Pack © 2026 Roman Kuzhel, Kyrgyzstan | CC BY 4.0 | https://github.com/roblo3x/iconic-drills-pack --><path d="M177 189L176 171L179 148L176 143L170 140L157 139L150 144L148 149L150 192L149 202L144 211L137 214L124 214L115 208L113 204L115 167L110 157L103 157L101 159L97 194L91 206L82 210L70 208L65 203L62 195L62 179L69 153L70 132L40 130L33 127L27 121L24 114L24 106L32 90L30 82L31 73L37 69L41 69L48 74L49 78L62 76L81 56L93 50L113 45L147 42L175 42L198 48L209 54L218 64L223 74L231 103L232 124L228 144L229 168L226 180L226 198L222 206L216 211L201 213L194 208L192 197L180 193ZM58 110L60 110L63 105L62 97L59 95L52 95L47 105L52 111Z" fill="currentColor" fill-rule="evenodd"/></svg>
