<svg xmlns="http://www.w3.org/2000/svg" viewBox="0 0 256 256" role="img" aria-hidden="true"><!-- Iconic Drills Pack © 2026 Roman Kuzhel, Kyrgyzstan | CC BY 4.0 | https://github.com/roblo3x/iconic-drills-pack --><path d="M42.69727,123.19727c3.2719,-2.42521 8.45458,-5.49012 9.95108,-9.49425c1.19734,-3.20367 -1.18108,-6.33604 -2.9913,-8.75286c-3.95738,-5.28348 -11.71737,-10.70998 -12.34157,-17.70065c-0.63741,-7.13846 5.3952,-11.9257 10.3327,-15.94865c10.92282,-8.89963 26.44021,-23.33007 42.01576,-20.26973c8.08029,1.58764 11.30931,8.80585 12.34945,16.03228c0.50211,3.48842 0.31872,10.76344 4.85404,11.5908c3.04157,0.55486 6.80542,-0.7745 9.76445,-1.39389c5.87246,-1.22924 11.73207,-2.54107 17.55642,-3.98186c2.97243,-0.7353 6.86067,-1.21031 9.38425,-3.07c2.6431,-1.94777 2.23725,-5.75874 4.18015,-8.27437c4.81928,-6.2399 15.67542,-13.24254 23.59135,-14.20081c3.26748,-0.39555 6.68559,0.41674 9.85319,1.13822c22.53261,5.13219 29.79858,26.67768 35.42781,46.47103c0.54014,1.89921 1.06593,3.83224 0.90448,5.83132c-0.19822,2.45445 -1.86614,4.86763 -0.60992,7.29615c2.3591,4.56059 7.97664,7.25329 10.37399,12.11368c1.72678,3.50087 2.11487,7.81094 2.84799,11.60226c1.47581,7.63208 3.64194,15.9135 3.24901,23.73365c-0.23484,4.67374 -2.37527,9.02539 -4.59593,13.05401c-2.21462,4.01766 -4.67871,8.20752 -8.12111,11.30305c-6.46604,5.81451 -14.7959,9.39615 -23.41224,10.16939c-12.48161,1.12011 -25.63139,-2.10294 -37.82255,1.51461c-16.32791,4.84507 -30.6615,18.34572 -48.6644,16.37339c-9.63952,-1.05607 -16.58406,-8.0634 -25.19044,-11.67502c-7.2756,-3.05317 -15.97482,-2.21226 -23.69559,-2.88133c-15.08752,-1.30746 -27.1744,-15.34235 -35.85954,-26.65442c-4.93356,-6.42577 8.10959,-37.58195 16.66849,-43.926zM50.2378,160.24882c13.15889,-0.57679 26.85909,-3.22734 39.99313,-1.28344c10.51957,1.55694 20.84766,5.0181 31.06367,7.88242c4.88429,1.36944 10.45289,3.61614 15.6004,3.24153c4.44444,-0.32345 9.05761,-2.96156 13.08444,-4.71907c7.48699,-3.26771 14.59497,-6.31611 22.80587,-7.09935c7.51342,-0.7167 16.73884,0.31722 23.82548,-2.49551c2.72941,-1.08332 6.16911,-3.46588 6.65524,-6.62062c0.55237,-3.58458 -2.50714,-5.72497 -5.74811,-5.55281c-4.10521,0.21807 -7.17984,3.23287 -10.94858,4.46932c-6.32337,2.07457 -13.35487,0.53554 -19.80455,2.29658c-10.98474,2.9993 -20.41386,10.1565 -31.92677,11.46687c-14.1324,1.60852 -25.44462,-5.56279 -38.49068,-9.31301c-11.57487,-3.32731 -21.7895,-3.38881 -33.63104,-1.92335c-6.7153,0.83106 -17.39402,9.86592 -12.4785,9.65046zM81.018,103.1285c4.29555,-0.56704 9.469,-2.38374 11.35352,-6.70819c1.56794,-3.59801 0.0702,-8.03092 -1.11507,-11.50504c-1.99402,-5.84464 -4.25284,-13.41784 -10.2362,-16.40642c-10.44964,-5.21941 -10.13692,35.95748 -0.00225,34.61965zM76.56815,77.25804c3.90416,1.17645 6.51263,5.01621 7.57251,8.75193c0.50823,1.79134 0.96911,3.97098 0.07144,5.7405c-1.23827,2.44092 -4.37871,2.79853 -6.79438,2.64166c-5.55018,-0.36041 -6.60822,-18.86936 -0.84958,-17.13409zM187.32641,97.56411c3.73066,1.18559 10.00316,2.65291 12.73894,-1.34085c2.18044,-3.18305 -0.55827,-8.06524 -1.93108,-11.02265c-3.18032,-6.85129 -8.13351,-11.90596 -13.55694,-17.0446c-2.2998,-2.17903 -4.78723,-4.86401 -8.05898,-5.44231c-7.75161,-1.37013 0.66387,31.62664 10.80806,34.85042zM177.21058,71.38046c4.8341,1.03512 9.03305,6.47844 11.96224,10.1501c1.27055,1.5926 3.4778,4.55412 1.99732,6.70728c-1.45262,2.11264 -5.07681,0.75509 -6.83766,-0.01081c-4.88245,-2.12369 -11.72548,-17.83234 -7.1219,-16.84657z" fill="currentColor" fill-rule="evenodd"/></svg>
