<svg xmlns="http://www.w3.org/2000/svg" viewBox="0 0 256 256" role="img" aria-hidden="true"><!-- Iconic Drills Pack © 2026 Roman Kuzhel, Kyrgyzstan | CC BY 4.0 | https://github.com/roblo3x/iconic-drills-pack --><path d="M24 106C24.84 102.76 31.28 93.6 32 90C32.72 86.4 29.88 78.28 30 76C30.12 73.72 31.68 71.84 33 71C34.32 70.16 39.2 68.64 41 69C42.8 69.36 47.04 72.92 48 74C48.96 75.08 47.32 77.76 49 78C50.68 78.24 58.64 78.28 62 76C65.36 73.72 73.28 62.12 77 59C80.72 55.88 88.68 51.68 93 50C97.32 48.32 106.52 45.96 113 45C119.48 44.04 139.56 42.36 147 42C154.44 41.64 168.88 41.28 175 42C181.12 42.72 193.92 46.56 198 48C202.08 49.44 206.6 52.08 209 54C211.4 55.92 216.32 61.6 218 64C219.68 66.4 221.44 69.32 223 74C224.56 78.68 229.92 97 231 103C232.08 109 232.36 119.08 232 124C231.64 128.92 228.36 138.72 228 144C227.64 149.28 229.24 163.68 229 168C228.76 172.32 226.24 177 226 180C225.76 183 227.12 190.48 227 193C226.88 195.52 226.32 198.84 225 201C223.68 203.16 217.8 209.56 216 211C214.2 212.44 211.8 212.76 210 213C208.2 213.24 202.56 213.24 201 213C199.44 212.76 197.96 211.84 197 211C196.04 210.16 193.6 207.68 193 206C192.4 204.32 193.56 198.56 192 197C190.44 195.44 181.92 194.2 180 193C178.08 191.8 176.48 189.64 176 187C175.52 184.36 175.64 174.48 176 171C176.36 167.52 178.64 160.76 179 158C179.36 155.24 179.24 149.68 179 148C178.76 146.32 178.44 145.08 177 144C175.56 142.92 169.4 139.6 167 139C164.6 138.4 159.04 138.4 157 139C154.96 139.6 151.08 142.8 150 144C148.92 145.2 148 143.24 148 149C148 154.76 149.88 185.64 150 192C150.12 198.36 149.72 199.72 149 202C148.28 204.28 145.44 209.56 144 211C142.56 212.44 139.4 213.64 137 214C134.6 214.36 126.64 214.72 124 214C121.36 213.28 116.32 209.2 115 208C113.68 206.8 113 208.92 113 204C113 199.08 115.36 172.64 115 167C114.64 161.36 111.44 158.2 110 157C108.56 155.8 104.08 156.76 103 157C101.92 157.24 101.48 158.04 101 159C100.52 159.96 99.24 162.24 99 165C98.76 167.76 99.6 177.56 99 182C98.4 186.44 95.44 198.76 94 202C92.56 205.24 89.64 208.16 87 209C84.36 209.84 74.64 209.72 72 209C69.36 208.28 66.2 204.68 65 203C63.8 201.32 62.36 197.88 62 195C61.64 192.12 61.16 184.04 62 179C62.84 173.96 68.04 158.64 69 153C69.96 147.36 73 134.64 70 132C67 129.36 48.44 131.6 44 131C39.56 130.4 35.28 128.68 33 127C30.72 125.32 26.08 119.52 25 117C23.92 114.48 23.16 109.24 24 106ZM47 102C46.64 103.68 48.4 107.92 49 109C49.6 110.08 50.68 110.88 52 111C53.32 111.12 58.68 110.72 60 110C61.32 109.28 62.76 106.56 63 105C63.24 103.44 62.48 98.2 62 97C61.52 95.8 60.2 95.24 59 95C57.8 94.76 53.44 94.16 52 95C50.56 95.84 47.36 100.32 47 102Z" fill="currentColor" fill-rule="evenodd"/></svg>
