<svg xmlns="http://www.w3.org/2000/svg" viewBox="0 0 256 256" role="img" aria-hidden="true"><!-- Iconic Drills Pack © 2026 Roman Kuzhel, Kyrgyzstan | CC BY 4.0 | https://github.com/roblo3x/iconic-drills-pack --><path d="M23.95 101.32C25.18 97.44 30.75 90.64 34.1 87.17C37.44 83.69 49.75 74.38 51.8 72.36C53.86 70.35 50.76 70.95 51.22 70.38C51.68 69.81 54.87 68.43 55.6 67.6C56.33 66.77 56.83 63.88 57.29 63.44C57.75 62.99 59.05 64.32 59.44 63.9C59.82 63.48 60.1 60.37 60.49 59.92C60.87 59.46 62.3 60.48 62.63 60.1C62.96 59.71 62.45 57.64 63.26 56.73C64.08 55.83 68.64 53.37 69.43 52.57C70.21 51.77 68.01 51.9 69.8 50.07C71.59 48.24 81 39.75 84.35 37.29C87.7 34.83 94.34 30.69 97.72 29.58C101.1 28.47 107.29 26.84 112.51 28.03C117.72 29.22 135.05 38.46 141.17 39.52C147.29 40.57 158.83 37.1 163.5 36.85C168.17 36.61 176.41 36.62 180.08 37.48C183.75 38.34 191.14 42.2 194.09 44.03C197.05 45.86 201.61 49.67 204.71 52.74C207.8 55.82 217.21 66.15 219.89 69.62C222.57 73.09 225.87 78.89 227.03 81.67C228.19 84.44 229.81 88.14 229.56 92.72C229.31 97.3 224.56 113.4 224.94 119.85C225.33 126.29 231.82 142.46 232.76 146.45C233.69 150.43 233.39 151.23 232.71 153.08C232.02 154.93 228.91 159.94 227.04 161.87C225.18 163.8 222.04 166.72 217.14 169.16C212.25 171.61 193.44 178.4 186.24 182.21C179.03 186.02 161.93 198.15 157.13 200.94C152.33 203.72 149.34 204.88 146.25 205.44C143.15 206 137.25 207.15 131.35 205.61C125.44 204.07 102.24 194.09 97.01 192.58C91.78 191.07 90.82 189.71 87.76 193.05C84.69 196.39 74.36 216.27 71.46 220.41C68.55 224.56 65.21 226.54 63.54 227.55C61.88 228.57 59.02 228.95 57.58 228.84C56.14 228.73 52.77 227.7 51.57 226.67C50.36 225.63 47.96 223.14 47.52 220.18C47.09 217.23 47.2 206.32 47.93 202.04C48.66 197.75 53.9 187.42 53.64 184.5C53.38 181.58 47.41 180.01 45.76 177.69C44.11 175.37 41.06 168.95 39.9 165.18C38.73 161.41 37.95 151.75 36.03 146.27C34.11 140.78 25.35 124.87 23.9 119.48C22.45 114.08 22.73 105.2 23.95 101.32ZM59.61 115.05C58.08 117.56 58.62 124.26 59.35 126.27C60.08 128.29 63.96 130.93 65.68 131.84C67.4 132.76 71.78 133.83 73.66 133.88C75.54 133.94 79.7 133.32 81.36 132.32C83.02 131.33 86.9 128.41 87.49 125.59C88.09 122.78 86.84 111.58 86.35 108.88C85.86 106.18 85.11 103.51 83.39 103.09C81.68 102.66 74.93 103.88 72.07 105.32C69.22 106.75 61.13 112.53 59.61 115.05ZM110.44 108.98C110 110.94 110.78 117.16 111.34 119.09C111.9 121.02 113.45 123.3 115.14 125.1C116.83 126.9 123.41 132.78 125.41 134.08C127.41 135.39 130.57 135.92 131.78 135.98C132.99 136.03 134.64 137 135.51 134.54C136.38 132.09 138.79 118.88 139.05 115.52C139.31 112.16 138.11 107.67 137.7 106.56C137.29 105.45 135.92 106.6 135.65 106.29C135.38 105.98 136.99 104.72 135.47 103.94C133.95 103.16 125.45 99.94 122.98 99.8C120.52 99.66 116.44 101.68 114.93 102.78C113.43 103.88 110.87 107.02 110.44 108.98ZM157.79 111.08C157.25 112.73 156.76 117.75 156.97 119.28C157.18 120.81 158.39 122.9 159.57 123.83C160.74 124.76 164.47 126.89 166.75 127.03C169.03 127.17 176.65 125.95 178.56 125C180.48 124.05 182.33 122.15 182.72 119.1C183.1 116.05 182.13 102.2 181.75 99.58C181.36 96.97 180.71 97.54 179.51 97.35C178.31 97.15 173.95 96.99 171.78 97.98C169.61 98.96 163.11 103.97 161.43 105.54C159.75 107.11 158.32 109.43 157.79 111.08Z" fill="currentColor" fill-rule="evenodd"/></svg>
