<svg xmlns="http://www.w3.org/2000/svg" viewBox="0 0 256 256" role="img" aria-hidden="true"><!-- Iconic Drills Pack © 2026 Roman Kuzhel, Kyrgyzstan | CC BY 4.0 | https://github.com/roblo3x/iconic-drills-pack --><path d="M24 72C23.76 68.04 24.28 64.68 25 63C25.72 61.32 26.4 59.44 30 58C33.6 56.56 50.92 52.44 55 51C59.08 49.56 57.4 47.32 64 46C70.6 44.68 101.12 41.44 110 40C118.88 38.56 132.84 34.48 138 34C143.16 33.52 150.36 33.48 153 36C155.64 38.52 158.56 48.76 160 55C161.44 61.24 164.04 83.2 165 88C165.96 92.8 167.4 91.52 168 95C168.6 98.48 168.68 113.88 170 117C171.32 120.12 176.96 119.56 179 121C181.04 122.44 185.2 127.68 187 129C188.8 130.32 189.68 127.92 194 132C198.32 136.08 218.68 158.8 223 163C227.32 167.2 228.92 165.8 230 167C231.08 168.2 232 170.84 232 173C232 175.16 231.44 182.84 230 185C228.56 187.16 224.08 189.56 220 191C215.92 192.44 202.96 194.84 196 197C189.04 199.16 171.84 206.24 162 209C152.16 211.76 121.08 218.68 114 220C106.92 221.32 104.8 220.24 103 220C101.2 219.76 102.72 221.96 99 218C95.28 214.04 76.8 191.8 72 187C67.2 182.2 62.12 180.88 59 178C55.88 175.12 48.16 165.04 46 163C43.84 160.96 43.28 169.04 41 161C38.72 152.96 29.04 106.68 27 96C24.96 85.32 24.24 75.96 24 72ZM45 71C35.88 81.8 57.16 134.48 61 143C64.84 151.52 71.84 142.84 77 142C82.16 141.16 95.12 138.76 104 136C112.88 133.24 146.08 125.48 151 119C155.92 112.52 146.68 89.92 145 82C143.32 74.08 149 54.32 137 53C125 51.68 54.12 60.2 45 71ZM67 85C67.48 83.92 69.92 81.6 71 81C72.08 80.4 74.68 79.76 76 80C77.32 80.24 81.16 81.92 82 83C82.84 84.08 83.48 87.68 83 89C82.52 90.32 79.32 93.4 78 94C76.68 94.6 73.32 94.48 72 94C70.68 93.52 67.6 91.08 67 90C66.4 88.92 66.52 86.08 67 85ZM80 163C78.2 163.96 79.52 165.16 80 166C80.48 166.84 81.84 170 84 170C86.16 170 96.32 167.08 98 166C99.68 164.92 98.36 161.96 98 161C97.64 160.04 97.16 157.76 95 158C92.84 158.24 81.8 162.04 80 163ZM84 120C86.76 118.68 104.52 114.6 108 114C111.48 113.4 112.64 114.16 113 115C113.36 115.84 113.28 119.68 111 121C108.72 122.32 97.12 125.52 94 126C90.88 126.48 86.2 125.72 85 125C83.8 124.28 81.24 121.32 84 120ZM91 175C89.2 175.84 90.4 177.04 91 178C91.6 178.96 93.6 182.88 96 183C98.4 183.12 109.2 179.84 111 179C112.8 178.16 111.6 176.96 111 176C110.4 175.04 108.4 171.12 106 171C103.6 170.88 92.8 174.16 91 175ZM93 91C93.24 88.24 93.8 88.12 95 88C96.2 87.88 101.44 87.36 103 90C104.56 92.64 108.72 107.24 108 110C107.28 112.76 98.8 112.88 97 113C95.2 113.12 93.48 113.64 93 111C92.52 108.36 92.76 93.76 93 91ZM104 188C102.32 188.84 103.52 190.28 104 191C104.48 191.72 105.96 194 108 194C110.04 194 119.8 192.2 121 191C122.2 189.8 120.04 184.36 118 184C115.96 183.64 105.68 187.16 104 188ZM106 153C104.2 153.96 105.64 156.04 106 157C106.36 157.96 106.6 161 109 161C111.4 161 123.96 157.84 126 157C128.04 156.16 126.6 154.96 126 154C125.4 153.04 123.4 149.12 121 149C118.6 148.88 107.8 152.04 106 153ZM109 76C109.48 74.92 111.8 71.72 113 71C114.2 70.28 117.68 69.76 119 70C120.32 70.24 122.92 71.92 124 73C125.08 74.08 128.12 78.16 128 79C127.88 79.84 123.96 79.28 123 80C122.04 80.72 120.96 84.4 120 85C119.04 85.6 116.32 85.6 115 85C113.68 84.4 109.72 81.08 109 80C108.28 78.92 108.52 77.08 109 76ZM117 167C115.56 168.56 118.48 174.52 121 175C123.52 175.48 135.96 171.84 138 171C140.04 170.16 138.6 169.08 138 168C137.4 166.92 135.52 162.12 133 162C130.48 161.88 118.44 165.44 117 167ZM128 180C126.68 181.32 130.16 185.28 131 186C131.84 186.72 133.08 186.48 135 186C136.92 185.52 145.44 182.96 147 182C148.56 181.04 148.6 178.84 148 178C147.4 177.16 144.4 174.76 142 175C139.6 175.24 129.32 178.68 128 180ZM133 144C131.2 144.96 132.64 147.04 133 148C133.36 148.96 133.72 152.12 136 152C138.28 151.88 150.08 147.96 152 147C153.92 146.04 152.48 144.84 152 144C151.52 143.16 150.28 140 148 140C145.72 140 134.8 143.04 133 144ZM144 158C143.28 159.44 145.36 165.52 148 166C150.64 166.48 163.84 162.96 166 162C168.16 161.04 166.48 158.96 166 158C165.52 157.04 163.44 154.48 162 154C160.56 153.52 156.16 153.52 154 154C151.84 154.48 144.72 156.56 144 158ZM156 171C154.2 172.2 156.48 176.76 159 177C161.52 177.24 175.2 174.2 177 173C178.8 171.8 176.52 167.24 174 167C171.48 166.76 157.8 169.8 156 171ZM160 136C159.16 136.96 161.2 141.4 163 142C164.8 142.6 173.56 141.48 175 141C176.44 140.52 175.6 138.84 175 138C174.4 137.16 171.8 134.24 170 134C168.2 133.76 160.84 135.04 160 136ZM174 149C172.56 149.72 173.64 153.04 174 154C174.36 154.96 175.08 156.88 177 157C178.92 157.12 188.44 155.6 190 155C191.56 154.4 190.48 152.84 190 152C189.52 151.16 187.92 148.36 186 148C184.08 147.64 175.44 148.28 174 149ZM185 163C183.68 163.96 185.08 167.64 187 168C188.92 168.36 199.68 166.96 201 166C202.32 165.04 199.92 160.36 198 160C196.08 159.64 186.32 162.04 185 163Z" fill="currentColor" fill-rule="evenodd"/></svg>
