<svg xmlns="http://www.w3.org/2000/svg" viewBox="0 0 256 256" role="img" aria-hidden="true"><!-- Iconic Drills Pack © 2026 Roman Kuzhel, Kyrgyzstan | CC BY 4.0 | https://github.com/roblo3x/iconic-drills-pack --><path d="M26.53861,60.63629c2.14772,-2.58318 5.64974,-3.40074 8.73095,-4.26837c5.13163,-1.44501 10.31946,-2.68438 15.44936,-4.13515c5.2103,-1.47351 9.01169,-5.3311 14.30728,-6.40158c16.97439,-3.4313 34.52112,-3.44429 51.4664,-7.14255c10.11741,-2.2081 22.99473,-7.58192 33.34959,-4.11085c7.06436,2.36806 8.77625,14.18024 10.15313,20.4837c2.27694,10.42402 2.691,21.172 4.82173,31.61255c0.80448,3.94193 3.05578,7.20046 3.45142,11.2605c0.52511,5.38864 -1.03319,15.01173 2.51234,19.47946c2.05979,2.59553 5.98381,2.40187 8.61269,4.17056c2.75401,1.85288 4.43593,4.9338 7.22627,6.72869c2.21433,1.42437 4.79146,1.72147 6.90867,3.38962c9.69367,7.63766 17.53601,18.69928 25.99709,27.66521c1.8105,1.91853 3.61617,3.94003 5.83929,5.39673c1.58894,1.04116 3.54787,1.62396 4.81456,3.11883c3.20731,3.78505 2.11718,13.09691 -0.43637,16.99567c-3.16192,4.82762 -10.5174,6.48578 -15.732,7.73451c-12.47483,2.98732 -24.24054,6.6144 -36.27612,11.05527c-16.93965,6.25036 -34.47851,10.07091 -52.09056,13.91457c-7.20372,1.57214 -16.10833,4.65512 -23.45838,2.34486c-4.0521,-1.27366 -7.07543,-6.30454 -9.71464,-9.38803c-6.06087,-7.08117 -11.97602,-14.3257 -18.30158,-21.17416c-4.24764,-4.59877 -9.48575,-6.93932 -14.28564,-10.74793c-4.72201,-3.74682 -7.72863,-9.15835 -11.95256,-13.37819c-1.99381,-1.99188 -5.19363,-0.78136 -6.46147,-3.18712c-1.47135,-2.79193 -1.85812,-6.50443 -2.55558,-9.55371c-1.48584,-6.49608 -2.89162,-13.01069 -4.28664,-19.52677c-4.30436,-20.10556 -11.09557,-68.7204 -8.08922,-72.3363zM43.48483,88.48731c2.12625,13.79071 6.8323,27.27851 11.7322,40.29482c1.71677,4.56052 3.92722,15.23871 8.89946,17.26188c3.15095,1.2821 6.40978,-1.14595 9.09895,-2.43908c3.06289,-1.47283 6.27397,-1.98034 9.58267,-2.60184c17.56254,-3.2989 35.25008,-8.23904 52.16102,-14.01436c5.29375,-1.80789 14.37404,-3.98679 16.71637,-9.74636c1.2327,-3.03108 0.71141,-6.68827 0.20167,-9.81314c-1.18371,-7.2565 -3.6887,-14.20262 -5.70113,-21.24886c-1.90038,-6.65388 -1.06013,-13.03938 -1.25642,-19.83923c-0.10874,-3.76693 -0.47106,-8.30847 -3.37191,-11.0873c-5.09497,-4.88066 -16.95183,-2.09022 -23.24711,-1.50079c-17.21705,1.61202 -34.5443,4.09209 -51.34634,8.23479c-7.34967,1.81213 -24.45728,20.09239 -23.46943,26.49948zM74.86657,79.96757c4.50923,-0.06003 9.37637,3.54649 8.15483,8.48997c-2.3846,9.65031 -12.38223,-8.43369 -8.15483,-8.48997zM82.26684,169.15006c3.42329,2.14626 16.37163,-0.94178 16.51632,-5.71884c0.29233,-9.65176 -19.49573,3.85087 -16.51632,5.71884zM89.36084,118.24388c5.14497,-1.39255 10.35413,-2.63704 15.57373,-3.71712c2.29788,-0.47549 7.29761,-1.93394 8.15863,1.49517c0.67179,2.67547 -1.60281,4.74987 -3.7365,5.75867c-5.45587,2.57952 -13.30719,4.80078 -19.35885,4.39037c-3.21073,-0.21774 -3.17411,-7.2404 -0.637,-7.9271zM94.84068,182.4488c3.42045,1.4491 8.39255,-0.71691 11.68653,-1.74751c1.45188,-0.45426 4.0637,-0.95469 4.77802,-2.57893c1.17313,-2.66752 -2.79403,-6.34049 -5.04219,-6.86598c-4.22986,-0.98871 -14.91594,9.71234 -11.42236,11.19243zM102.12466,89.33888c3.71816,3.28179 5.04836,12.03139 5.6832,16.71413c0.24743,1.82509 0.38337,3.78239 -1.15281,5.13381c-1.43031,1.25828 -3.67425,1.50025 -5.46647,1.72366c-2.0993,0.26169 -5.57352,0.97762 -7.28795,-0.74059c-1.32685,-1.32978 -1.2258,-3.67129 -1.28307,-5.36934c-0.17724,-5.25562 5.47347,-21.02191 9.5071,-17.46167zM106.9519,193.65561c3.04628,1.05884 13.42391,-0.13622 14.27046,-4.05204c0.53567,-2.4778 -1.52607,-5.09919 -3.93221,-5.44282c-3.91687,-0.55938 -13.81344,8.28693 -10.33824,9.49486zM108.63504,160.67865c3.71798,1.20778 9.89821,-1.33979 13.49937,-2.36695c1.35068,-0.38525 3.9502,-0.83942 4.36973,-2.56048c0.65748,-2.69716 -3.21193,-6.12074 -5.51462,-6.54994c-4.25889,-0.79383 -16.303,10.19471 -12.35448,11.47737zM122.08141,71.39688c1.53322,0.96928 6.38012,4.96773 5.09508,7.27764c-0.70977,1.27584 -3.28858,1.52007 -4.37585,2.53333c-1.42002,1.32336 -2.02367,3.25593 -4.01964,3.94339c-5.16123,1.77765 -2.5106,-17.428 3.3004,-13.75436zM120.82513,174.71405c3.86747,1.25788 9.77805,-1.19417 13.4717,-2.35158c1.36932,-0.42908 3.85422,-0.94486 4.20544,-2.71229c0.49823,-2.50723 -2.7293,-6.53048 -4.95394,-7.27021c-4.32844,-1.4393 -16.59044,11.07628 -12.7232,12.33409zM131.44554,186.01069c3.58211,1.36784 10.05546,-1.48561 13.34167,-2.9469c1.5525,-0.69035 3.48818,-1.74709 3.39848,-3.77346c-0.11499,-2.59769 -3.28165,-4.02837 -5.47263,-4.2039c-4.31468,-0.34567 -14.44457,9.71109 -11.26751,10.92426zM135.90341,151.7073c3.49139,0.76634 8.59808,-1.78344 11.82898,-2.93091c1.45857,-0.51802 4.07284,-1.12694 4.66451,-2.86149c0.77713,-2.27826 -1.91471,-5.04934 -3.8767,-5.60947c-4.18047,-1.19348 -16.88194,10.46569 -12.61679,11.40187zM148.23825,165.80312c4.05336,1.0656 10.00082,-1.24635 13.87281,-2.40754c1.50809,-0.45227 3.98395,-0.9803 4.51748,-2.79721c0.89168,-3.03661 -3.16468,-6.12543 -5.60592,-6.76347c-5.00464,-1.30801 -16.77264,10.91974 -12.78437,11.96822zM158.72728,176.76925c4.25964,1.2015 11.82111,-1.1525 15.81915,-2.73221c1.62961,-0.64389 3.33708,-1.66519 2.87094,-3.74303c-0.63625,-2.83613 -3.64644,-3.37815 -6.06272,-3.18703c-4.77507,0.37769 -16.26468,8.63631 -12.62737,9.66227zM161.89432,141.14837c2.34795,1.82177 11.39739,2.00978 13.25946,-0.75878c1.44686,-2.15121 -2.04663,-4.94163 -3.59718,-5.70297c-3.36275,-1.65116 -11.99441,4.65224 -9.66227,6.46174zM176.70418,156.7656c2.40413,0.77208 5.50663,-0.0705 7.90882,-0.46994c1.75311,-0.29151 5.80355,-0.46727 5.8197,-3.06614c0.04575,-7.35871 -17.6745,2.26885 -13.72853,3.53609zM186.5496,167.64627c3.00299,1.48572 9.10138,0.2597 12.12241,-0.78815c1.07472,-0.37277 2.21934,-0.85561 2.50771,-2.12571c0.61336,-2.70151 -2.35208,-4.59208 -4.60767,-4.7159c-3.65154,-0.20045 -12.90824,6.20202 -10.02245,7.62976z" fill="currentColor" fill-rule="evenodd"/></svg>
