<svg xmlns="http://www.w3.org/2000/svg" viewBox="0 0 256 256" role="img" aria-hidden="true"><!-- Iconic Drills Pack © 2026 Roman Kuzhel, Kyrgyzstan | CC BY 4.0 | https://github.com/roblo3x/iconic-drills-pack --><path d="M19.51588,56.72803c-0.52945,-1.24847 -1.60861,-3.38753 0.1207,-4.31904c2.02229,-1.08932 5.45403,-0.18222 7.58908,0.05138c5.30066,0.57996 10.59279,1.25175 15.91103,1.65709c12.24865,0.93356 23.56498,-2.55195 35.31852,-5.53715c6.98585,-1.77429 14.43733,-4.20914 21.45462,-1.27718c7.74252,3.23497 14.52781,10.03211 20.6378,15.62505c2.85166,2.61035 6.17829,5.38491 6.05742,9.61213c-0.34568,12.08961 -10.82022,21.57972 -9.36467,34.30452c1.38656,12.12166 11.54034,21.07781 14.20339,32.80959c2.95693,13.02645 -10.701,20.59738 -14.6338,31.54573c-1.14139,3.17746 1.21734,8.67375 -0.53523,11.21241c-1.69403,2.45387 -6.26088,-2.19929 -7.43275,-3.22494c-6.65246,-5.82242 -15.07103,-12.69619 -24.59086,-11.03741c-7.80397,1.35981 -14.65955,6.59943 -22.12237,9.10389c-5.54266,1.86007 -11.7227,3.32437 -17.55854,3.78843c-4.00052,0.31811 -7.96393,-0.46894 -11.9627,-0.3215c-2.80073,0.10326 -5.59114,1.67272 -8.21708,1.68728c-3.05141,0.01692 -7.92769,-2.82329 -10.15951,-4.7664c-3.62077,-3.15239 -3.53893,-8.59873 -2.02662,-12.77435c3.17303,-8.761 9.55635,-16.15721 11.94638,-25.24192c2.81772,-10.71043 -2.83425,-20.84765 -6.5546,-30.61367c-1.35,-3.5438 -3.3499,-7.54613 -3.09277,-11.43511c0.77372,-11.70235 6.5947,-37.11806 5.01256,-40.84883zM33.76228,190.4624c1.62221,-1.41678 5.43943,-0.55172 7.34551,-0.45211c4.60166,0.24047 9.40421,0.5945 13.90989,-0.59839c12.22098,-3.23554 23.95226,-15.19462 37.13864,-13.12179c16.00916,2.51656 26.44095,19.35489 42.75291,20.68795c3.95208,0.32297 7.89636,-1.4478 11.43334,-2.99061c9.29561,-4.05469 16.4088,-11.41678 25.48696,-15.66022c14.78026,-6.90881 28.11504,-1.14349 41.74969,5.43077c6.00236,2.89417 19.4083,7.24742 18.02432,16.04506c-0.80755,5.13341 -8.20951,3.26565 -11.43882,2.15165c-9.65337,-3.33009 -21.53562,-12.05052 -32.10507,-8.75678c-9.976,3.10881 -19.1716,9.83582 -28.56435,14.3672c-4.76283,2.29775 -9.70253,4.74747 -15.13655,4.23359c-8.71957,-0.82458 -18.59503,-5.36478 -26.0965,-9.73803c-6.77081,-3.94728 -11.42908,-8.43135 -19.79101,-8.05959c-11.29118,0.502 -19.2619,7.90616 -29.36936,11.80122c-13.0778,5.03972 -36.78815,-14.07479 -35.33959,-15.33992zM145.31823,65.32831c3.30722,-4.16408 7.31271,-7.42949 11.37392,-10.85565c7.92102,-6.68242 16.59109,-14.4782 27.56774,-14.79275c10.0167,-0.28705 19.64981,3.98465 28.76612,7.58685c6.03866,2.3861 15.1753,4.42602 19.73146,9.2555c1.81002,1.91861 2.80282,4.5287 3.74507,6.94247c1.16461,2.98336 2.57108,6.28863 2.57899,9.54309c0.02862,11.76789 -10.08383,22.26587 -11.17811,33.9783c-0.43277,4.63206 2.312,9.02888 4.38229,12.96793c4.3741,8.32241 11.3781,17.44877 13.66312,26.61418c0.99185,3.9784 -2.35026,7.156 -4.24741,10.327c-4.41625,7.38157 -8.76004,17.57451 -15.13257,23.44365c-3.93739,3.62636 -9.99067,-2.1906 -13.33414,-4.43842c-10.0888,-6.78271 -21.04126,-11.43909 -33.57347,-10.31866c-5.329,0.47644 -10.0049,3.64259 -14.47322,6.32318c-6.85339,4.11141 -13.62536,8.35696 -20.45753,12.5033c-3.87034,2.34885 -9.37672,7.05042 -14.21602,5.7689c-6.24866,-1.65474 -8.59595,-8.20226 -7.24224,-14.09142c2.38081,-10.3575 12.9173,-17.28339 15.07178,-27.89931c2.81684,-13.87962 -10.16759,-24.14467 -12.72405,-36.982c-2.0804,-10.44678 4.09852,-19.02345 7.1897,-28.51733c1.02339,-3.14311 9.24463,-13.2492 12.50858,-17.3588z" fill="currentColor" fill-rule="evenodd"/></svg>
