<svg xmlns="http://www.w3.org/2000/svg" viewBox="0 0 256 256" role="img" aria-hidden="true"><!-- Iconic Drills Pack © 2026 Roman Kuzhel, Kyrgyzstan | CC BY 4.0 | https://github.com/roblo3x/iconic-drills-pack --><path d="M71.75167,65.77165c3.63016,-5.27786 10.83407,-8.30035 16.70289,-10.26516c12.87699,-4.31106 25.72006,-5.907 39.22211,-6.1525c6.12478,-0.11136 13.98532,0.85514 19.8354,-1.19638c5.4395,-1.90753 1.9202,-7.82004 1.82465,-11.72905c-0.20196,-8.26243 9.11008,-11.9764 15.30332,-7.99418c6.64029,4.26966 5.08416,10.92737 2.69012,17.40217c-0.67233,1.81835 -2.52246,5.08004 -1.72907,7.08672c0.5172,1.30814 2.709,1.3706 3.64587,2.32185c0.88479,0.89837 1.35887,2.19759 1.73419,3.35743c3.97091,12.27136 4.22611,26.68855 5.86895,39.44612c3.31286,25.72628 6.54142,51.47085 9.44085,77.24736c1.10783,9.84884 2.36255,19.93022 1.37918,29.84235c-0.45727,4.60921 -1.21645,9.35934 -4.94009,12.52635c-2.99716,2.54912 -7.03328,3.89478 -10.66501,5.24945c-8.20603,3.06093 -16.46773,4.91869 -25.1101,6.23542c-11.1699,1.70182 -22.39368,3.41641 -33.72023,3.22495c-6.56259,-0.11093 -13.49801,-0.73779 -19.07469,-4.57658c-11.31034,-7.78565 -11.96853,-25.73414 -14.59817,-38.05694c-7.84002,-36.7393 -10.48675,-120.07792 -7.81016,-123.96939zM93.70025,92.8438c0.26524,7.91891 0.82517,15.88316 1.97706,23.72586c0.49,3.33619 0.72823,8.61259 4.00375,10.55637c2.23756,1.32782 5.19246,0.80395 7.58038,0.31685c5.20243,-1.06121 10.0919,-3.12943 15.41662,-3.62835c6.55338,-0.61405 13.29204,-0.36421 19.70965,-2.03809c2.42873,-0.63347 5.09619,-1.58093 6.35896,-3.94692c1.48999,-2.79174 0.8742,-6.66145 0.57972,-9.66084c-0.83898,-8.54517 -2.62283,-17.02511 -4.46935,-25.4002c-0.58327,-2.64548 -0.88684,-9.08616 -4.02586,-10.08242c-1.60456,-0.50925 -3.89444,0.07091 -5.54684,0.07464c-6.68514,0.01509 -13.12641,0.7141 -19.72515,1.78152c-6.24905,1.01086 -22.00904,13.82016 -21.85894,18.30158zM97.77698,161.28517c2.49382,2.60718 10.44832,1.27527 12.69295,-1.20771c2.45455,-2.71518 1.03869,-10.51545 -2.26613,-12.12597c-3.28714,-1.6019 -13.39257,10.23312 -10.42682,13.33368zM101.34913,183.84723c2.02216,1.44797 5.35886,1.03306 7.64987,0.7332c1.80568,-0.23634 3.9269,-0.58561 5.05767,-2.2203c2.03689,-2.94461 1.24082,-10.63553 -2.69683,-11.69049c-3.49763,-0.93708 -13.66628,10.56004 -10.01071,13.1776zM105.2756,206.76171c2.74302,1.89753 10.62386,0.66876 12.54594,-2.09556c1.95737,-2.81507 0.63628,-10.58814 -2.92583,-11.72624c-3.40549,-1.08806 -13.28421,11.28711 -9.62011,13.82181zM121.6665,157.23676c1.86774,1.88219 5.06057,1.31173 7.3543,0.82503c1.77179,-0.37595 3.91705,-0.90507 4.91488,-2.61481c1.6334,-2.79878 0.24577,-8.89668 -2.60499,-10.51379c-3.14282,-1.78278 -12.56437,9.38095 -9.6642,12.30357zM125.40203,179.8267c2.82971,1.78598 10.86756,0.52491 12.60499,-2.49276c1.58811,-2.75833 0.24439,-8.94167 -2.75385,-10.3445c-3.28892,-1.53883 -13.67196,10.42573 -9.85113,12.83726zM128.76253,202.23938c2.50396,2.73325 10.33572,1.10073 12.23503,-1.76938c1.74255,-2.63322 1.1638,-8.84327 -1.72602,-10.54956c-3.09792,-1.82916 -13.32845,9.24132 -10.50901,12.31894zM145.93868,154.11426c2.24018,0.97341 5.43289,0.3183 7.69586,-0.23136c1.78507,-0.43358 3.69355,-1.04826 4.53021,-2.87059c0.51531,-1.12239 0.4675,-2.55855 0.3706,-3.73863c-0.18626,-2.26842 -0.65655,-5.54223 -2.68622,-6.97966c-3.27132,-2.31679 -14.35859,11.88742 -9.91044,13.82025zM149.39382,174.88104c2.56177,1.65186 9.07568,1.16068 11.25368,-1.04323c2.14383,-2.16933 1.5289,-8.86048 -0.59281,-10.91031c-2.80967,-2.71448 -14.30977,9.60069 -10.66087,11.95354zM153.97613,199.13553c1.72303,0.74476 3.96255,0.36889 5.72263,0.03239c1.74552,-0.33372 3.91522,-0.79882 5.03102,-2.36093c2.03735,-2.8523 0.65733,-10.48879 -2.70591,-11.94252c-3.27384,-1.41509 -12.45149,12.36758 -8.04774,14.27107z" fill="currentColor" fill-rule="evenodd"/></svg>
