<svg xmlns="http://www.w3.org/2000/svg" viewBox="0 0 256 256" role="img" aria-hidden="true"><!-- Iconic Drills Pack © 2026 Roman Kuzhel, Kyrgyzstan | CC BY 4.0 | https://github.com/roblo3x/iconic-drills-pack --><path d="M97 65L101 69L111 69L116 56L125 50L141 48L165 49L182 55L190 62L195 82L218 83L230 89L232 111L231 174L227 190L220 199L204 206L180 208L177 210L154 209L128 210L121 212L90 211L84 213L57 212L55 210L50 210L41 202L34 188L25 132L24 108L27 84L35 74L42 70L42 51L52 45L66 42L84 44L89 48L92 64ZM143 178L156 173L168 162L175 145L175 127L170 115L159 102L142 94L126 94L108 101L96 112L88 133L89 151L96 167L108 176L123 180ZM112 114L123 107L141 106L149 109L158 117L164 129L164 142L161 151L152 163L139 168L125 168L116 166L105 158L100 147L99 137L105 121ZM201 104L190 106L192 118L203 119L212 116L213 104ZM80 66L78 52L75 50L50 55L50 66L52 69L69 69ZM116 134L119 135L123 131L123 127L120 127Z" fill="currentColor" fill-rule="evenodd"/></svg>
