<svg xmlns="http://www.w3.org/2000/svg" viewBox="0 0 256 256" role="img" aria-hidden="true"><!-- Iconic Drills Pack © 2026 Roman Kuzhel, Kyrgyzstan | CC BY 4.0 | https://github.com/roblo3x/iconic-drills-pack --><path d="M41 188C41.84 185 39.84 183.48 48 174C56.16 164.52 101.68 117.28 109 109C116.32 100.72 110.8 107.16 109 105C107.2 102.84 96.4 94.24 94 91C91.6 87.76 89.36 81.48 89 78C88.64 74.52 89.8 65.48 91 62C92.2 58.52 96.96 51.64 99 49C101.04 46.36 105.6 41.92 108 40C110.4 38.08 115.4 34.8 119 33C122.6 31.2 133.44 26.08 138 25C142.56 23.92 153.4 23.76 157 24C160.6 24.24 165.72 26.04 168 27C170.28 27.96 173.84 30.2 176 32C178.16 33.8 183.72 38.88 186 42C188.28 45.12 191.88 53.68 195 58C198.12 62.32 209.6 74.4 212 78C214.4 81.6 214.88 84.76 215 88C215.12 91.24 214.44 100.8 213 105C211.56 109.2 206.48 119.28 203 123C199.52 126.72 189.52 134.2 184 136C178.48 137.8 161.56 138.24 157 138C152.44 137.76 148.28 134.48 146 134C143.72 133.52 139.68 133.28 138 134C136.32 134.72 133.08 138.68 132 140C130.92 141.32 129.36 143.68 129 145C128.64 146.32 128.04 149.56 129 151C129.96 152.44 136.04 155.32 137 157C137.96 158.68 137.72 163.2 137 165C136.28 166.8 133.52 171.4 131 172C128.48 172.6 119 169.16 116 170C113 170.84 107.2 177.32 106 179C104.8 180.68 105.76 183.16 106 184C106.24 184.84 105.6 184.44 108 186C110.4 187.56 123.48 195.2 126 197C128.52 198.8 128.88 199.32 129 201C129.12 202.68 129.88 207.52 127 211C124.12 214.48 109.2 227.48 105 230C100.8 232.52 98.84 234.76 92 232C85.16 229.24 54.12 210.96 48 207C41.88 203.04 41.84 201.28 41 199C40.16 196.72 40.16 191 41 188ZM119 69C118.04 70.8 118.4 75.44 119 77C119.6 78.56 122.2 81.4 124 82C125.8 82.6 132.32 82.36 134 82C135.68 81.64 137.28 79.96 138 79C138.72 78.04 140 75.56 140 74C140 72.44 138.84 67.44 138 66C137.16 64.56 134.32 62.48 133 62C131.68 61.52 128.68 61.16 127 62C125.32 62.84 119.96 67.2 119 69ZM149 58C148.88 59.92 151.04 66.44 152 68C152.96 69.56 155.44 70.64 157 71C158.56 71.36 163.32 71.72 165 71C166.68 70.28 170.4 66.68 171 65C171.6 63.32 171.08 58.68 170 57C168.92 55.32 164.04 51.6 162 51C159.96 50.4 154.56 51.16 153 52C151.44 52.84 149.12 56.08 149 58ZM157 96C156.28 98.28 156.76 104.32 157 106C157.24 107.68 158.04 109.04 159 110C159.96 110.96 162.72 113.76 165 114C167.28 114.24 175.36 113.56 178 112C180.64 110.44 186.04 103.64 187 101C187.96 98.36 187.08 92.04 186 90C184.92 87.96 180.04 84.72 178 84C175.96 83.28 170.8 83.64 169 84C167.2 84.36 164.44 85.56 163 87C161.56 88.44 157.72 93.72 157 96Z" fill="currentColor" fill-rule="evenodd"/></svg>
