<svg xmlns="http://www.w3.org/2000/svg" viewBox="0 0 256 256" role="img" aria-hidden="true"><!-- Iconic Drills Pack © 2026 Roman Kuzhel, Kyrgyzstan | CC BY 4.0 | https://github.com/roblo3x/iconic-drills-pack --><path d="M57.35757,163.75121c12.26827,-13.13211 24.69912,-26.11191 37.05438,-39.16196c4.11809,-4.34967 8.25055,-8.6884 12.30076,-13.10158c1.34637,-1.46703 4.07901,-3.57434 4.65913,-5.54484c0.17905,-0.60818 -3.91383,-2.52331 -4.43702,-2.95583c-4.01868,-3.32226 -8.32786,-6.84446 -11.77065,-10.76913c-7.37123,-8.40297 -7.85706,-22.14236 -3.32284,-32.0386c13.05697,-28.4977 59.4349,-49.79034 85.71547,-26.87044c3.47101,3.02715 6.95789,6.31391 9.42089,10.23769c3.18936,5.08093 5.30133,10.73659 8.96896,15.53382c5.6809,7.43057 15.38029,14.36279 18.18849,23.52911c1.35772,4.43177 0.92264,9.31234 0.43859,13.84907c-1.80044,16.87474 -13.71289,33.40642 -29.98504,39.23118c-7.95907,2.84902 -19.3711,3.17942 -27.72249,2.19147c-7.69585,-0.9104 -15.02666,-8.1154 -22.02668,-1.08074c-1.38802,1.39489 -2.69877,2.97838 -3.79178,4.6152c-0.74371,1.11373 -1.38064,2.22432 -1.80443,3.50263c-2.34285,7.06676 4.15051,7.4017 7.18819,12.01064c2.17942,3.30675 0.86975,8.01806 -1.16747,11.03555c-4.77136,7.06724 -11.35994,1.49007 -17.9627,2.18736c-3.32511,0.35115 -5.8813,2.92099 -8.07642,5.21198c-1.71798,1.79302 -3.69579,3.90643 -3.45045,6.60755c0.3106,3.41952 3.83091,5.06072 6.40315,6.61127c4.88571,2.94512 15.47348,6.83824 16.71635,13.01316c1.16942,5.80998 -2.19185,9.97525 -6.13698,13.68101c-5.2902,4.96922 -10.82869,9.98325 -16.82159,14.09634c-2.12315,1.45718 -4.4459,3.05352 -7.02223,3.55735c-6.21922,1.21624 -13.14611,-3.89899 -18.297,-6.74946c-8.15215,-4.51136 -16.20837,-9.20291 -24.2075,-13.97969c-4.74058,-2.8309 -11.31351,-5.67414 -14.21141,-10.61784c-2.40154,-4.09692 7.65581,-29.79938 15.16032,-37.83229zM118.50033,70.94007c-2.60385,12.54191 17.44709,16.37945 21.02858,5.19628c1.98481,-6.19753 -2.46229,-14.52368 -9.37654,-14.63087c-4.57295,-0.0709 -11.28392,7.66144 -11.65205,9.43459zM154.33701,69.97281c5.53908,3.3049 14.12774,1.4861 16.50227,-4.93086c4.59903,-12.42847 -20.74466,2.39964 -16.50227,4.93086zM156.55736,101.97171c0.07944,1.96028 0.23893,4.01789 1.05546,5.83474c2.45728,5.46763 7.91601,6.67667 13.31151,6.02386c7.48704,-0.90587 15.51764,-7.02665 16.44964,-15.0603c1.31521,-11.3368 -9.96975,-17.86122 -20.02358,-14.30116c-5.04785,1.78744 -10.90662,14.69987 -10.79303,17.50286z" fill="currentColor" fill-rule="evenodd"/></svg>
