<svg xmlns="http://www.w3.org/2000/svg" viewBox="0 0 256 256" role="img" aria-hidden="true"><!-- Iconic Drills Pack © 2026 Roman Kuzhel, Kyrgyzstan | CC BY 4.0 | https://github.com/roblo3x/iconic-drills-pack --><path d="M25 100C25.12 91.12 25.28 81.04 26 76C26.72 70.96 29.44 61.96 31 58C32.56 54.04 36.12 46.36 39 43C41.88 39.64 48.28 31.92 55 30C61.72 28.08 86.48 26.64 95 27C103.52 27.36 120.72 32.76 126 33C131.28 33.24 133.72 29.48 139 29C144.28 28.52 164.6 27.68 170 29C175.4 30.32 181.84 38.56 184 40C186.16 41.44 186.56 39.92 188 41C189.44 42.08 194.8 47.44 196 49C197.2 50.56 196.08 52.32 198 54C199.92 55.68 209.72 61.08 212 63C214.28 64.92 215.92 66.88 217 70C218.08 73.12 220.04 86 221 89C221.96 92 224.28 92.72 225 95C225.72 97.28 226.52 106.2 227 108C227.48 109.8 228.76 107.48 229 110C229.24 112.52 228.64 125.88 229 129C229.36 132.12 231.88 131.8 232 136C232.12 140.2 231.44 158 230 164C228.56 170 222.76 181.32 220 186C217.24 190.68 210.48 199.4 207 203C203.52 206.6 194.96 213.48 191 216C187.04 218.52 177.96 222.56 174 224C170.04 225.44 164.72 227.52 158 228C151.28 228.48 127.36 228.84 118 228C108.64 227.16 86.84 222.8 80 221C73.16 219.2 64.36 215.04 61 213C57.64 210.96 53.32 205.68 52 204C50.68 202.32 51.2 200.32 50 199C48.8 197.68 43.92 195.16 42 193C40.08 190.84 36.04 186.16 34 181C31.96 175.84 26.08 159.72 25 150C23.92 140.28 24.88 108.88 25 100ZM50 81C50.24 85.56 58.08 103.68 60 108C61.92 112.32 64.68 115.56 66 117C67.32 118.44 69.92 118.68 71 120C72.08 121.32 74.16 127.04 75 128C75.84 128.96 76.92 128.84 78 128C79.08 127.16 82.44 122.32 84 121C85.56 119.68 90.04 117.84 91 117C91.96 116.16 90.2 115.8 92 114C93.8 112.2 103.84 104.4 106 102C108.16 99.6 109.64 96.16 110 94C110.36 91.84 110.56 86.4 109 84C107.44 81.6 99.76 74.84 97 74C94.24 73.16 88.04 75.68 86 77C83.96 78.32 81.08 84.04 80 85C78.92 85.96 78.32 86.56 77 85C75.68 83.44 71.28 73.8 69 72C66.72 70.2 60.28 68.92 58 70C55.72 71.08 49.76 76.44 50 81ZM76 151C75.16 153.04 77.92 164.28 79 168C80.08 171.72 83.2 179.36 85 182C86.8 184.64 91.12 188.32 94 190C96.88 191.68 105.28 195.28 109 196C112.72 196.72 122.24 196.24 125 196C127.76 195.76 128.76 195.56 132 194C135.24 192.44 148.52 184.56 152 183C155.48 181.44 157.88 182.92 161 181C164.12 179.08 175.12 170.12 178 167C180.88 163.88 184.16 157.16 185 155C185.84 152.84 185.72 149.72 185 149C184.28 148.28 182.96 146.72 179 149C175.04 151.28 158.12 164.76 152 168C145.88 171.24 132.8 175.04 128 176C123.2 176.96 115.48 176.72 112 176C108.52 175.28 102.12 173 99 170C95.88 167 88.76 153.28 86 151C83.24 148.72 76.84 148.96 76 151ZM145 87C144.52 89.76 144.52 97.12 145 100C145.48 102.88 148.52 108.36 149 111C149.48 113.64 148.64 119.12 149 122C149.36 124.88 150.92 133.44 152 135C153.08 136.56 156.56 135.36 158 135C159.44 134.64 162.68 132.96 164 132C165.32 131.04 166 128.92 169 127C172 125.08 184.92 119.24 189 116C193.08 112.76 201.32 103.36 203 100C204.68 96.64 203.6 90.28 203 88C202.4 85.72 200.4 81.48 198 81C195.6 80.52 185.76 82.8 183 84C180.24 85.2 176.44 90.16 175 91C173.56 91.84 171.96 92.68 171 91C170.04 89.32 168.2 79.04 167 77C165.8 74.96 162.56 74.36 161 74C159.44 73.64 155.44 73.64 154 74C152.56 74.36 150.08 75.44 149 77C147.92 78.56 145.48 84.24 145 87Z" fill="currentColor" fill-rule="evenodd"/></svg>
