<svg xmlns="http://www.w3.org/2000/svg" viewBox="0 0 256 256" role="img" aria-hidden="true"><!-- Iconic Drills Pack © 2026 Roman Kuzhel, Kyrgyzstan | CC BY 4.0 | https://github.com/roblo3x/iconic-drills-pack --><path d="M36.27105,78.47822c4.36418,-8.09048 8.54546,-16.81063 14.78318,-23.65595c11.58024,-12.70824 29.33531,-19.62183 46.04974,-21.81365c7.71516,-1.01171 16.22881,-1.15411 23.87888,0.3849c8.48711,1.70741 16.56275,5.0978 25.11171,6.55935c14.62343,2.50005 31.70451,-0.14505 44.85639,7.72099c10.10198,6.04192 18.79337,15.56423 23.56638,26.41509c3.18734,7.24603 5.02664,15.25299 7.27474,22.82834c3.95867,13.33938 8.5816,26.76256 10.07472,40.65644c1.39227,12.95554 -1.08792,24.9009 -3.80695,37.51537c-1.3838,6.41992 -2.47194,13.22058 -4.97902,19.31803c-4.48189,10.90034 -14.54478,22.45064 -25.79664,26.61597c-6.85003,2.53582 -14.53965,2.21246 -21.72957,2.28699c-11.98524,0.12424 -23.97414,0.02055 -35.95874,-0.12363c-25.36742,-0.30519 -53.21764,2.22874 -76.55612,-9.49774c-10.35188,-5.20133 -17.37253,-14.4778 -22.9428,-24.29899c-12.06782,-21.27728 -10.73941,-98.09495 -3.82588,-110.91151zM63.26127,150.94235c1.7479,19.18091 16.8216,34.26266 34.96867,39.32312c10.80993,3.01444 22.70181,2.60527 33.8385,2.84253c9.4984,0.20235 18.57396,0.04935 27.69114,-2.95996c5.07426,-1.67486 9.82175,-4.53565 11.74347,-9.83355c4.55529,-12.55828 -6.00668,-21.95156 -17.65096,-22.31768c-20.58577,-0.64727 -36.47888,17.23917 -57.71414,10.93026c-15.86018,-4.71199 -13.17075,-23.76368 -20.30849,-34.80042c-4.02341,-6.22121 -13.03829,11.65687 -12.56818,16.81569zM75.17959,90.19802c8.23217,8.6068 24.46095,5.11089 26.69919,-7.24361c0.35625,-1.96639 0.02457,-3.99079 -0.3848,-5.91671c-0.68377,-3.21683 -1.64776,-6.55017 -4.29943,-8.70929c-8.6538,-7.04636 -25.47217,18.25506 -22.01495,21.86961zM92.97779,81.78902c-1.14841,3.8914 -8.39733,5.968 -11.15153,2.66974c-1.77126,-2.12115 13.70169,-11.31097 11.15153,-2.66974zM140.31648,110.84056c13.08468,-3.09822 25.99751,-11.51122 37.79447,-17.78961c3.28917,-1.75051 11.79797,-4.6918 11.09815,-9.50914c-1.13073,-7.78365 -14.17342,-4.56677 -18.97672,-3.42284c-10.33602,2.46156 -19.86584,7.61045 -29.22876,12.50321c-5.7894,3.02536 -6.33519,19.55575 -0.68714,18.21839z" fill="currentColor" fill-rule="evenodd"/></svg>
