<svg xmlns="http://www.w3.org/2000/svg" viewBox="0 0 256 256" role="img" aria-hidden="true"><!-- Iconic Drills Pack © 2026 Roman Kuzhel, Kyrgyzstan | CC BY 4.0 | https://github.com/roblo3x/iconic-drills-pack --><path d="M50 206L36 186L31 175L28 165L28 143L31 114L37 84L44 71L59 51L65 45L84 38L85 36L123 25L167 27L181 32L196 41L208 55L212 64L226 137L225 168L219 187L211 198L183 222L156 229L128 232L83 228L67 222ZM174 115L169 120L163 120L160 116L160 112L165 106L169 106L175 110ZM105 76L93 76L85 79L73 93L70 104L71 119L75 126L83 131L96 132L103 129L110 123L116 112L118 104L117 88L114 82ZM128 190L131 192L142 192L147 190L163 175L170 173L174 169L174 161L169 159L161 160L155 163L146 172L139 175L131 174L118 165L107 165L100 168L88 180L88 186L91 189L97 190L107 183L114 182ZM175 87L181 88L185 86L187 82L186 74L157 65L147 59L136 59L134 66L139 74ZM154 102L149 111L149 121L152 127L160 131L167 131L174 129L180 124L184 117L185 108L179 99L175 97L162 97ZM94 116L90 116L86 113L85 105L89 96L98 92L103 95L104 103L100 112Z" fill="currentColor" fill-rule="evenodd"/></svg>
