<svg xmlns="http://www.w3.org/2000/svg" viewBox="0 0 256 256" role="img" aria-hidden="true"><!-- Iconic Drills Pack © 2026 Roman Kuzhel, Kyrgyzstan | CC BY 4.0 | https://github.com/roblo3x/iconic-drills-pack --><path d="M26.15146,91.27445c6.75196,-19.3737 24.14304,-27.07669 42.5393,-32.03187c13.83324,-3.72609 27.02651,-5.71376 41.39003,-4.33666c7.69502,0.73776 16.17336,2.15596 23.28075,5.29664c13.64405,6.02917 21.05798,17.31118 28.45558,29.61615c3.45351,5.74448 7.26881,11.35452 5.84628,18.39838c-0.7668,3.79691 -3.59959,7.24898 -6.6456,9.53828c-2.02857,1.52461 -6.61899,2.68175 -5.82861,6.10906c0.62528,2.71138 4.19013,1.5536 5.9834,1.21433c5.3457,-1.01134 10.58285,-1.60942 14.65615,2.85082c3.80189,4.16306 4.09145,12.05195 0.97505,16.58844c-1.22908,1.78916 -6.13144,4.14933 -5.55349,6.59452c0.65645,2.77729 5.29604,4.35764 7.31373,5.93829c4.03799,3.16334 4.66699,9.8329 2.4382,14.34406c-2.17031,4.3928 -8.224,7.77047 -13.02385,7.51674c-3.37453,-0.17838 -8.35287,-2.35689 -11.3368,0.07004c-2.47931,2.01651 -2.84304,6.03349 -4.16011,8.76061c-1.80427,3.73592 -5.84597,7.84695 -9.53493,9.78358c-5.42066,2.84574 -13.71504,1.82227 -19.66866,2.00961c-14.63164,0.4604 -29.27542,0.79499 -43.91476,0.82694c-5.48017,0.01196 -14.82328,1.51819 -19.60389,-1.68926c-2.74564,-1.84213 -2.37014,-5.87192 -3.23136,-8.70543c-1.87851,-6.18054 -3.39159,-13.14361 -6.59144,-18.79278c-4.5903,-8.10393 -12.48299,-13.85896 -17.33255,-21.83828c-8.62872,-14.19746 -7.77466,-54.26828 -6.45244,-58.06219zM86.34413,104.90305c0.41201,3.13994 0.7906,6.81289 2.5918,9.51577c4.49745,6.74884 15.16121,5.43517 21.26861,9.99165c3.52738,2.63164 6.09284,7.48806 7.50653,11.57042c2.58538,7.46586 2.41774,18.12464 0.70894,25.77697c-1.23301,5.52164 -4.51935,11.69016 -3.82997,17.46552c0.94638,7.92837 14.31512,4.27839 18.4744,1.66219c3.85755,-2.4264 8.73153,-10.66154 6.66295,-15.34436c-1.55068,-3.51042 -6.80355,-4.40258 -6.60905,-8.87802c0.22349,-5.14237 7.08217,-4.56835 6.48887,-10.11547c-0.91599,-8.5641 -6.11363,-16.49362 -4.80546,-25.36409c0.9973,-6.76255 6.58232,-6.63401 10.2003,-10.85656c3.32284,-3.87809 -1.27845,-11.06174 -3.61509,-14.21963c-3.25754,-4.40244 -7.14682,-10.54036 -12.24073,-12.94243c-3.00924,-1.41903 -6.50002,-1.51 -9.76231,-1.52346c-11.50257,-0.04748 -33.40177,20.50283 -33.03979,23.2615zM110.02026,95.14095c7.80732,-3.64878 17.15609,3.56682 14.15902,12.06482c-2.92238,8.28625 -14.60843,9.13335 -18.73596,1.44593c-1.32942,-2.476 1.46395,-12.05589 4.57694,-13.51075zM198.13972,112.08149c1.93066,0.18889 3.95623,0.52567 5.62545,1.5906c2.61443,1.66794 3.47675,8.13918 6.26648,8.48135c3.65652,0.44849 6.99241,-3.07859 11.08736,-2.4474c9.25985,1.42728 12.83788,12.35149 10.28191,20.30336c-1.20083,3.73591 -4.35884,6.77978 -6.91124,9.63802c-5.54383,6.20812 -11.21998,10.95711 -18.63137,14.79327c-3.03682,1.57187 -9.14385,5.78592 -12.63676,3.73061c-3.07809,-1.81122 -3.68273,-7.50033 -4.36324,-10.62595c-2.17898,-10.00814 -0.27225,-46.39859 9.28142,-45.46386z" fill="currentColor" fill-rule="evenodd"/></svg>
