<svg xmlns="http://www.w3.org/2000/svg" viewBox="0 0 256 256" role="img" aria-hidden="true"><!-- Iconic Drills Pack © 2026 Roman Kuzhel, Kyrgyzstan | CC BY 4.0 | https://github.com/roblo3x/iconic-drills-pack --><path d="M28 143C28.36 136.88 29.92 121.08 31 114C32.08 106.92 34.72 90.24 37 84C39.28 77.76 47.36 65.96 50 62C52.64 58.04 56.72 53.28 59 51C61.28 48.72 66 44.56 69 43C72 41.44 82.08 38.84 84 38C85.92 37.16 83.68 36.48 85 36C86.32 35.52 93.68 34.48 95 34C96.32 33.52 92.64 33.08 96 32C99.36 30.92 114.48 25.6 123 25C131.52 24.4 158.84 25.56 167 27C175.16 28.44 186.44 34.12 191 37C195.56 39.88 202.6 48.12 205 51C207.4 53.88 208.48 50.68 211 61C213.52 71.32 224.32 124.16 226 137C227.68 149.84 226.2 161.4 225 168C223.8 174.6 219.72 186.48 216 192C212.28 197.52 197.96 210.4 194 214C190.04 217.6 187.56 220.2 183 222C178.44 223.8 162.6 227.8 156 229C149.4 230.2 135.56 231.88 128 232C120.44 232.12 100.32 231.2 93 230C85.68 228.8 72.04 224.64 67 222C61.96 219.36 55.08 213.04 51 208C46.92 202.96 35.76 185.16 33 180C30.24 174.84 28.6 169.44 28 165C27.4 160.56 27.64 149.12 28 143ZM70 104C69.28 107.24 69.4 112.36 70 115C70.6 117.64 73.08 123.96 75 126C76.92 128.04 83.48 131.28 86 132C88.52 132.72 93.6 132.6 96 132C98.4 131.4 103.6 129.4 106 127C108.4 124.6 114.56 114.76 116 112C117.44 109.24 117.88 106.88 118 104C118.12 101.12 117.48 90.64 117 88C116.52 85.36 115.44 83.44 114 82C112.56 80.56 107.88 76.6 105 76C102.12 75.4 92.4 76.64 90 77C87.6 77.36 86.68 77.68 85 79C83.32 80.32 77.8 85 76 88C74.2 91 70.72 100.76 70 104ZM85 105C85.36 102.96 87.8 97.56 89 96C90.2 94.44 93.44 92.24 95 92C96.56 91.76 100.92 93.4 102 94C103.08 94.6 104 95.2 104 97C104 98.8 103.2 106.72 102 109C100.8 111.28 95.44 115.16 94 116C92.56 116.84 90.96 116.36 90 116C89.04 115.64 86.6 114.32 86 113C85.4 111.68 84.64 107.04 85 105ZM88 180C87.04 181.8 87.28 184.8 88 186C88.72 187.2 92.92 189.52 94 190C95.08 190.48 95.44 190.84 97 190C98.56 189.16 104.96 183.96 107 183C109.04 182.04 111.48 181.04 114 182C116.52 182.96 124.64 189.8 128 191C131.36 192.2 139.36 192.36 142 192C144.64 191.64 147.48 190.04 150 188C152.52 185.96 160.6 176.8 163 175C165.4 173.2 168.68 173.72 170 173C171.32 172.28 173.4 170.2 174 169C174.6 167.8 175.6 164.2 175 163C174.4 161.8 170.68 159.36 169 159C167.32 158.64 162.68 159.52 161 160C159.32 160.48 156.8 161.56 155 163C153.2 164.44 147.92 170.56 146 172C144.08 173.44 140.8 174.76 139 175C137.2 175.24 133.52 175.2 131 174C128.48 172.8 120.88 166.08 118 165C115.12 163.92 109.64 164.28 107 165C104.36 165.72 98.28 169.2 96 171C93.72 172.8 88.96 178.2 88 180ZM134 63C133.76 64.56 134.44 69.2 136 71C137.56 72.8 141.96 75.96 147 78C152.04 80.04 173.56 86.92 178 88C182.44 89.08 182.92 87.72 184 87C185.08 86.28 186.76 83.56 187 82C187.24 80.44 189.6 76.04 186 74C182.4 71.96 161.68 66.8 157 65C152.32 63.2 149.28 59.84 147 59C144.72 58.16 139.56 57.52 138 58C136.44 58.48 134.24 61.44 134 63ZM149 111C148.88 113.64 149.68 123.6 151 126C152.32 128.4 158.08 130.4 160 131C161.92 131.6 165.32 131.24 167 131C168.68 130.76 172.44 129.84 174 129C175.56 128.16 178.8 125.44 180 124C181.2 122.56 183.4 118.92 184 117C184.6 115.08 185.12 109.68 185 108C184.88 106.32 184.2 104.32 183 103C181.8 101.68 177.52 97.72 175 97C172.48 96.28 164.76 96.16 162 97C159.24 97.84 153.56 102.32 152 104C150.44 105.68 149.12 108.36 149 111ZM160 112C160.6 110.8 163.56 106.6 165 106C166.44 105.4 170.8 106.52 172 107C173.2 107.48 174.76 108.92 175 110C175.24 111.08 174.72 114.8 174 116C173.28 117.2 170.32 119.52 169 120C167.68 120.48 164.08 120.48 163 120C161.92 119.52 160.36 116.96 160 116C159.64 115.04 159.4 113.2 160 112Z" fill="currentColor" fill-rule="evenodd"/></svg>
