<svg xmlns="http://www.w3.org/2000/svg" viewBox="0 0 256 256" role="img" aria-hidden="true"><!-- Iconic Drills Pack © 2026 Roman Kuzhel, Kyrgyzstan | CC BY 4.0 | https://github.com/roblo3x/iconic-drills-pack --><path d="M24.46679,95.00725c0.25437,-3.16949 0.40772,-6.81999 2.10919,-9.61302c3.97936,-6.53227 15.90969,-9.52584 22.79477,-11.4471c21.12907,-5.896 42.89555,-10.22636 64.56335,-13.55181c21.19109,-3.25229 42.12789,-6.3043 63.61918,-5.83865c8.96775,0.19431 19.2573,-0.14082 27.47028,4.02648c3.60288,1.82811 8.44356,4.90561 10.96604,8.11483c1.57388,2.00236 1.77823,4.90978 2.22514,7.31986c0.97239,5.24385 1.86342,10.50336 2.76632,15.75951c2.93449,17.08289 5.82836,34.17549 8.54197,51.29503c1.40376,8.85599 3.77526,18.87807 1.46758,27.77114c-2.53152,9.75565 -15.97449,3.39639 -22.62382,6.9674c-4.2888,2.3033 -1.78039,8.81673 -2.36782,12.58924c-1.01369,6.50997 -10.62932,9.39377 -15.83602,6.4159c-3.1218,-1.78545 -6.97452,-4.81053 -8.75643,-7.98982c-0.85672,-1.52857 -1.3028,-3.38399 0.34768,-4.59511c3.75452,-2.75506 11.0588,-1.8423 15.48399,-2.75557c1.2396,-0.25583 5.42477,-1.83801 2.22462,-3.22538c-5.28137,-2.28965 -14.21408,-0.65066 -19.73495,0.0704c-14.34098,1.87303 -29.02902,6.17601 -43.49096,6.60189c-5.92111,0.17437 -5.44603,-5.10323 -6.59294,-9.47284c-1.30173,-4.95948 -5.60474,-12.0235 -11.15599,-12.6945c-5.67277,-0.68569 -12.66165,1.02229 -15.63757,6.29154c-1.72825,3.06009 -0.24671,8.4439 -4.39903,9.70462c-2.40664,0.7307 -5.42562,0.15116 -7.87276,-0.06797c-5.30472,-0.47502 -10.61641,-1.13963 -15.85904,-2.08309c-2.38894,-0.42991 -5.46746,-0.72703 -7.33234,-2.4769c-2.5782,-2.4192 -1.33448,-6.1369 -2.42264,-9.11904c-1.20849,-3.31191 -5.55059,-6.35117 -8.71498,-7.60752c-4.10752,-1.6308 -9.60737,0.76184 -12.25168,4.08987c-1.57178,1.97819 -1.87867,5.00301 -3.88397,6.63129c-2.07141,1.68195 -5.02752,0.72249 -7.32502,0.23111c-1.77393,-0.3794 -3.88364,-0.5933 -5.21638,-1.99824c-3.13267,-3.3024 -2.25017,-11.1643 -2.45851,-15.37372c-0.6258,-12.64461 -1.12706,-47.9914 -0.64726,-53.96983zM41.21367,115.04346c0.11729,2.32165 -0.10322,5.65678 1.51283,7.56726c1.98422,2.34573 6.60134,1.67946 9.27745,1.45815c1.96006,-0.16209 3.95849,-0.46407 5.58525,-1.67551c5.45458,-4.06201 4.21303,-15.02621 3.9299,-20.96627c-0.10943,-2.29571 -0.04364,-5.63974 -2.00903,-7.28026c-1.96864,-1.64324 -5.24581,-0.99779 -7.52327,-0.6587c-5.20602,0.7751 -11.04336,16.20651 -10.77313,21.55534zM45.39859,167.05754c1.75856,-2.18603 4.13088,-5.93769 7.16843,-6.37842c4.14633,-0.60161 6.98468,3.82073 8.46857,6.96123c3.44727,7.29582 3.69875,18.49659 -3.69026,23.83786c-3.5146,2.54059 -9.84739,1.44723 -12.16432,-2.17732c-2.99346,-4.68288 -1.53679,-20.06252 0.21759,-22.24335zM73.43604,123.73658c1.0865,1.74728 2.86875,2.41454 4.77801,2.84264c4.6438,1.04123 13.61772,2.17629 16.96742,-2.11378c5.22765,-6.69523 4.37922,-19.50052 3.55289,-27.38745c-0.30045,-2.8676 -0.511,-7.12406 -3.18121,-8.92617c-1.61777,-1.09183 -3.80191,-1.00352 -5.64637,-0.91939c-4.69018,0.21392 -13.76917,0.70698 -16.65179,5.06443c-2.41947,3.65734 -2.97534,26.36371 0.18105,31.43973zM109.30967,167.07521c2.92105,-2.65303 6.91357,-4.29126 10.34111,-1.46716c8.47933,6.9865 10.74362,27.21529 0.93127,33.89407c-5.76006,3.92058 -13.67442,1.1982 -16.64813,-4.83799c-1.71935,-3.49002 0.59062,-23.24286 5.37575,-27.58891zM116.14217,123.67496c1.32546,2.52293 3.98544,2.73319 6.52653,2.78864c5.13422,0.11203 15.14509,0.87747 19.41379,-2.44431c2.97548,-2.31544 1.97734,-7.77746 1.84673,-11.02164c-0.29342,-7.28795 -0.76078,-14.58591 -1.48966,-21.84376c-0.29325,-2.92002 -0.19263,-7.04067 -1.92854,-9.55441c-2.35143,-3.40505 -7.46572,-0.96408 -10.72635,-0.80497c-3.12903,0.15269 -6.81234,-0.5198 -9.72752,0.96141c-2.48591,1.26311 -3.04766,3.92223 -3.47816,6.42873c-1.00837,5.87097 -3.2227,30.18751 -0.43681,35.4903zM150.77546,149.58829c0.1588,2.97282 0.19281,7.0095 1.95339,9.56041c2.7212,3.94274 12.94039,3.69203 16.18007,0.55374c3.11094,-3.01358 4.65884,-13.15827 1.74145,-16.62068c-3.30606,-3.92368 -20.07621,2.73819 -19.87491,6.50654zM166.51529,150.35253c-0.67886,2.66877 -4.33066,2.67597 -6.46925,2.4136c-4.11486,-0.50483 7.9393,-8.19275 6.46925,-2.4136zM157.81402,112.93168c0.11652,2.31373 0.04221,5.5459 1.92698,7.26351c3.44163,3.1364 11.28141,0.37856 15.28797,-0.16895c2.94636,-0.40263 6.99734,-0.45255 9.24333,-2.72636c1.83981,-1.86261 1.87545,-4.88676 1.97125,-7.31567c0.28491,-7.22367 -0.41302,-14.74054 -1.44899,-21.8872c-0.41093,-2.83481 -0.69748,-7.07458 -3.23165,-8.94523c-1.57629,-1.16357 -3.71107,-1.08581 -5.54932,-0.97082c-4.38986,0.27462 -13.93679,0.82889 -16.37447,5.11698c-1.85376,3.26091 -2.15906,23.00203 -1.8251,29.63375zM199.08222,158.39078c2.73499,1.45638 6.87698,0.60138 9.76687,0.14187c2.98884,-0.47524 6.91289,-1.24952 8.31998,-4.34194c0.96414,-2.11894 0.47547,-4.8713 -2.3568,-4.37206c-3.39927,0.59919 -12.3117,4.60001 -13.50718,-1.8595c-1.53004,-8.26723 16.70432,-1.6051 15.43295,-9.44934c-0.47942,-2.95798 -3.84553,-2.40801 -5.91929,-2.01066c-4.9152,0.94181 -16.8236,19.18274 -11.73652,21.89162zM196.23457,87.70649c-0.38002,6.57251 -0.65135,13.22269 -0.29475,19.8021c0.2138,3.94463 0.7144,8.00109 5.62905,7.70504c3.6126,-0.21761 10.19133,-1.86651 12.68382,-4.6883c1.7554,-1.98732 0.94034,-4.92122 0.50684,-7.22365c-1.09991,-5.84189 -1.893,-13.95537 -5.29893,-18.95728c-2.04699,-3.00618 -13.0482,0.28638 -13.22604,3.36209z" fill="currentColor" fill-rule="evenodd"/></svg>
