<svg xmlns="http://www.w3.org/2000/svg" viewBox="0 0 256 256" role="img" aria-hidden="true"><path d="M66 195L77 182L77 178L63 172L57 165L53 155L55 74L58 58L66 40L82 32L98 27L129 24L146 24L166 27L187 36L192 43L195 56L198 152L192 166L184 173L177 176L177 180L206 214L213 224L213 228L207 232L202 232L190 218L162 218L65 221L56 232L48 232L43 230L42 226ZM149 150L154 158L165 159L172 153L173 143L169 137L159 135L152 139ZM96 73L81 75L82 111L121 110L120 72ZM131 208L179 207L176 201L78 204L78 208ZM135 107L135 110L173 108L175 71L150 70L135 72ZM142 190L165 190L162 184L103 185L92 186L91 188L91 191ZM143 50L143 41L139 40L120 40L111 43L111 50L115 52L135 52ZM83 140L79 148L79 153L82 158L86 160L98 159L103 153L103 144L101 140L96 137L87 137Z" fill="currentColor" fill-rule="evenodd"/></svg>
