<svg xmlns="http://www.w3.org/2000/svg" viewBox="0 0 256 256" role="img" aria-hidden="true"><!-- Iconic Drills Pack © 2026 Roman Kuzhel, Kyrgyzstan | CC BY 4.0 | https://github.com/roblo3x/iconic-drills-pack --><path d="M24 129C24.6 125.52 27.36 118.12 30 115C32.64 111.88 40.48 105.4 46 103C51.52 100.6 67.48 96.2 76 95C84.52 93.8 111.84 93.48 117 93C122.16 92.52 118.76 91.96 119 91C119.24 90.04 119.48 85.96 119 85C118.52 84.04 120.64 83.84 115 83C109.36 82.16 77.52 79.08 72 78C66.48 76.92 69.36 75.32 69 74C68.64 72.68 68.64 68.32 69 67C69.36 65.68 70.92 63.6 72 63C73.08 62.4 72.48 60.8 78 62C83.52 63.2 112.72 71.68 118 73C123.28 74.32 121.04 73.36 122 73C122.96 72.64 123.84 70 126 70C128.16 70 133.4 73.84 140 73C146.6 72.16 175.48 63.48 181 63C186.52 62.52 185.4 67.56 186 69C186.6 70.44 186.36 73.8 186 75C185.64 76.2 188.76 77.92 183 79C177.24 80.08 143.64 83.16 138 84C132.36 84.84 136.12 84.68 136 86C135.88 87.32 134.36 93.32 137 95C139.64 96.68 153.8 98.44 158 100C162.2 101.56 169.36 105.72 172 108C174.64 110.28 178.2 115.64 180 119C181.8 122.36 185.2 133 187 136C188.8 139 192.6 143.04 195 144C197.4 144.96 204.84 145.56 207 144C209.16 142.44 211.56 133.04 213 131C214.44 128.96 217.2 127.36 219 127C220.8 126.64 226.44 126.8 228 128C229.56 129.2 232.36 133.04 232 137C231.64 140.96 226.92 157.16 225 161C223.08 164.84 219.24 167.92 216 169C212.76 170.08 201.96 169.4 198 170C194.04 170.6 186.84 171.96 183 174C179.16 176.04 169.72 184.84 166 187C162.28 189.16 158 191.28 152 192C146 192.72 124.76 193.12 116 193C107.24 192.88 85.24 191.6 79 191C72.76 190.4 66.28 188.84 64 188C61.72 187.16 60.48 185.2 60 184C59.52 182.8 60.24 178.96 60 178C59.76 177.04 60.04 176.96 58 176C55.96 175.04 46.24 172.16 43 170C39.76 167.84 33.16 161.12 31 158C28.84 154.88 25.84 147.48 25 144C24.16 140.52 23.4 132.48 24 129ZM84 134C83.76 135.92 83.4 142.84 84 145C84.6 147.16 87.08 150.92 89 152C90.92 153.08 97.84 154.36 100 154C102.16 153.64 105.8 151.28 107 149C108.2 146.72 109.88 137.4 110 135C110.12 132.6 108.72 130.2 108 129C107.28 127.8 105.8 125.6 104 125C102.2 124.4 95.16 123.52 93 124C90.84 124.48 87.08 127.8 86 129C84.92 130.2 84.24 132.08 84 134ZM126 134C125.76 137.24 125.8 149.76 127 153C128.2 156.24 132.64 160.04 136 161C139.36 161.96 151.52 162.08 155 161C158.48 159.92 163.56 153.92 165 152C166.44 150.08 166.88 147.52 167 145C167.12 142.48 166.48 133.4 166 131C165.52 128.6 164.2 126.44 163 125C161.8 123.56 157.8 119.96 156 119C154.2 118.04 150.04 117.12 148 117C145.96 116.88 141.28 116.92 139 118C136.72 119.08 130.56 124.08 129 126C127.44 127.92 126.24 130.76 126 134Z" fill="currentColor" fill-rule="evenodd"/></svg>
