<svg xmlns="http://www.w3.org/2000/svg" viewBox="0 0 256 256" role="img" aria-hidden="true"><path d="M159 92L159 120L174 120L185 117L186 102L182 79L162 81L159 85ZM209 176L207 176L206 190L200 195L192 196L182 188L181 182L200 179L200 176L182 176L136 183L131 180L129 171L121 161L108 162L102 168L99 177L71 174L67 172L67 167L63 159L56 155L51 155L44 159L40 167L29 165L26 161L24 130L26 86L38 78L53 73L98 63L154 55L189 55L207 59L215 66L218 73L231 151L230 172L222 175ZM92 126L95 125L99 109L96 88L74 91L72 106L73 124L76 126ZM217 154L217 149L208 152L201 149L203 144L216 142L215 136L196 142L198 158L211 158L215 157ZM125 176L127 186L124 196L118 201L109 200L104 195L102 186L106 171L112 165L117 164L121 167ZM165 141L152 140L153 160L169 160L171 143ZM42 174L48 163L51 161L57 162L63 173L63 182L60 189L57 192L48 192L44 187ZM119 83L117 84L115 106L117 125L140 125L144 119L142 84L138 81ZM210 111L215 110L210 85L203 80L197 80L197 114ZM60 97L60 94L42 96L41 115L43 123L57 123L60 120ZM158 144L166 147L165 153L156 151L155 144Z" fill="currentColor" fill-rule="evenodd"/></svg>
