<svg xmlns="http://www.w3.org/2000/svg" viewBox="0 0 256 256" role="img" aria-hidden="true"><path d="M119 84L129 62L148 43L174 26L182 24L187 27L192 41L196 73L196 83L191 105L178 135L186 154L187 162L180 190L168 217L162 214L160 199L152 183L150 181L141 180L141 198L133 214L125 222L119 223L120 207L117 207L98 229L90 232L88 229L89 222L98 195L86 200L85 193L92 179L105 169L105 166L102 162L96 162L77 168L66 175L62 174L60 170L74 141L82 129L100 116L109 113L112 100ZM170 104L173 101L174 89L172 83L166 77L153 75L142 81L137 91L137 100L144 110L151 113L159 113L167 109Z" fill="currentColor" fill-rule="evenodd"/></svg>
