<svg xmlns="http://www.w3.org/2000/svg" viewBox="0 0 256 256" role="img" aria-hidden="true"><!-- Iconic Drills Pack © 2026 Roman Kuzhel, Kyrgyzstan | CC BY 4.0 | https://github.com/roblo3x/iconic-drills-pack --><path d="M41.63847,123.73853c4.66783,-2.20449 9.90611,-4.5352 15.08884,-5.0228c3.60902,-0.33954 8.43552,0.51714 11.27394,-2.31373c3.93742,-3.92695 4.15742,-11.61902 6.59594,-16.50843c3.97426,-7.96867 10.12195,-16.28665 16.2863,-22.69945c17.81535,-18.53338 45.36529,-20.2802 69.1743,-18.21707c10.20436,0.88424 24.124,3.06122 31.40462,11.09697c6.99207,7.71728 8.85398,17.73322 9.98393,27.68157c0.61921,5.45166 0.5828,12.68323 3.47001,17.51297c3.44435,5.76173 12.0833,5.77829 17.61967,8.21583c5.63472,2.48084 8.59001,8.45371 9.26577,14.31833c1.04257,9.04796 -0.30935,18.9022 -1.07693,27.94639c-0.24202,2.85168 -0.07071,7.08183 -2.61323,9.02753c-3.64773,2.79146 -10.89614,2.97959 -15.3004,3.78322c-3.31565,0.605 -8.38778,2.37686 -11.68983,1.16428c-2.69879,-0.99105 -2.03035,-4.143 -2.08924,-6.36162c-0.07105,-2.67682 -0.73785,-5.2354 -1.87382,-7.65844c-4.50793,-9.61547 -16.87199,-14.84083 -26.83548,-12.43725c-6.90525,1.66581 -14.1756,5.6996 -16.95669,12.57111c-1.50381,3.71561 -1.77722,12.11782 -5.19297,14.53737c-2.18347,1.54666 -6.87301,0.80827 -9.42543,0.9309c-9.26641,0.44521 -20.86344,2.4736 -29.91867,0.00648c-7.55467,-2.05829 -3.99345,-11.75569 -6.10078,-17.15135c-2.32858,-5.96214 -10.16048,-9.43217 -15.93061,-10.84278c-11.83748,-2.89389 -22.39902,4.162 -27.90241,14.24667c-1.8729,3.43199 -1.42651,10.22551 -5.32255,12.09918c-2.76597,1.3302 -6.84211,0.45025 -9.75301,0.14188c-9.23945,-0.9788 -17.02405,-49.05792 -2.18128,-56.06776zM93.9945,164.09795c2.54897,2.16197 3.90391,5.38703 5.00245,8.46105c0.88573,2.47851 1.5902,5.13699 1.54675,7.79147c-0.20741,12.67186 -16.88568,22.25745 -28.10299,16.58273c-7.84539,-3.96891 9.28025,-43.24531 21.55378,-32.83524zM85.72637,115.95489c0.67969,2.04074 7.00563,1.65619 8.64705,1.79011c6.66209,0.54357 13.37786,0.99348 20.06509,0.76354c3.14013,-0.10797 6.92781,-0.10291 9.78449,-1.59913c2.50256,-1.31074 3.32221,-3.78495 3.76193,-6.40088c0.98885,-5.88276 0.53401,-12.1254 0.06944,-18.03833c-0.29083,-3.7017 0.18638,-12.66829 -3.07101,-15.17278c-3.08183,-2.36951 -9.66669,2.4089 -12.4324,3.80505c-14.00094,7.06776 -27.24946,33.5768 -26.8246,34.85242zM140.45863,84.78223c-0.83227,7.26251 -1.17169,14.73013 -0.63518,22.02729c0.21962,2.98711 0.32995,7.03078 2.67344,9.25398c2.35299,2.23221 6.3802,2.13136 9.38452,2.13419c6.69619,0.00631 13.32876,-1.03801 19.96739,-1.76861c2.84868,-0.31351 7.17449,0.20098 9.64204,-1.49031c4.28155,-2.93464 0.00294,-12.98468 -1.51824,-16.53164c-2.58706,-6.03226 -5.74485,-14.77852 -11.60762,-18.3333c-3.96813,-2.406 -8.88993,-3.073 -13.3406,-4.09232c-4.36701,-1.00016 -14.18125,5.44569 -14.56573,8.80072zM163.57649,162.91517c11.71404,-7.78776 28.90237,-0.23075 29.75578,13.91024c0.7544,12.50046 -9.91238,23.11557 -22.69663,21.14516c-3.24458,-0.50008 -6.11615,-2.62809 -8.68095,-4.54139c-2.13263,-1.5909 -4.11433,-3.30096 -5.28869,-5.7461c-1.44167,-3.00173 1.34156,-21.06556 6.9105,-24.76791z" fill="currentColor" fill-rule="evenodd"/></svg>
