<svg xmlns="http://www.w3.org/2000/svg" viewBox="0 0 256 256" role="img" aria-hidden="true"><!-- Iconic Drills Pack © 2026 Roman Kuzhel, Kyrgyzstan | CC BY 4.0 | https://github.com/roblo3x/iconic-drills-pack --><path d="M59.13351,73.94198c2.23064,-9.77013 4.64351,-19.44365 8.2304,-28.81905c1.64265,-4.29354 3.20265,-8.87866 6.17519,-12.46726c13.62448,-16.44812 39.3195,-6.50354 56.54798,-2.52025c7.74001,1.78952 16.28523,2.36453 20.8807,9.65483c2.56746,4.07305 2.58106,8.80314 2.49975,13.4658c-0.17518,10.04526 -2.86539,19.75286 -4.7564,29.56391c-0.74772,3.87936 -2.77885,9.82431 -1.36491,13.69414c1.80747,4.94688 10.42433,2.14666 14.27146,2.5708c11.11626,1.22555 19.64028,7.52 27.76875,14.64481c3.43864,3.01405 7.14977,6.20316 9.44335,10.22112c3.542,6.20498 4.68379,14.11666 6.34961,20.98979c2.32811,9.60572 5.18304,19.49303 6.0604,29.362c0.76952,8.65597 -0.67236,17.32281 -0.09903,25.97856c0.4845,7.3146 1.68807,14.57514 2.43768,21.86444c0.21862,2.12592 1.0493,5.58348 -0.35623,7.48473c-1.41965,1.92034 -5.00352,1.51481 -7.05059,1.57796c-5.31882,0.16409 -10.67971,-0.25718 -15.98579,-0.01408c-1.21797,0.0558 -4.79894,1.81402 -5.53319,0.42015c-1.06202,-2.01611 -0.74609,-5.3068 -0.85946,-7.51374c-0.23942,-4.66067 -0.38502,-9.32683 -0.53894,-13.99093c-0.5498,-16.65949 -0.96434,-33.32317 -1.51585,-49.98261c-0.2368,-7.15299 1.01656,-17.12488 -1.84389,-23.80493c-2.46955,-5.76717 -12.26139,-10.00486 -17.86575,-11.61088c-3.19367,-0.9152 -6.54108,-1.27816 -9.67975,-2.37726c-2.89648,-1.01429 -6.15134,-3.16315 -9.32537,-1.8665c-5.6227,2.29697 -6.8833,14.42604 -8.22444,19.56563c-3.0302,11.61246 -5.6947,23.31868 -8.76975,34.91924c-2.19803,8.292 -5.46923,16.87907 -13.75399,20.93904c-5.89182,2.8873 -15.41442,0.90439 -21.73471,0.40561c-10.16186,-0.80195 -19.47501,-3.61346 -28.97457,-7.20857c-9.27002,-3.50824 -18.71702,-8.65674 -21.19323,-19.21237c-0.90508,-3.85819 12.2506,-67.42061 18.76057,-95.93414zM73.32524,166.85299c6.81727,6.04894 18.44975,1.3604 20.63114,-6.95606c2.64004,-10.06504 -6.79166,-21.30592 -17.09511,-15.3318c-3.40936,1.97681 -7.57765,18.70174 -3.53603,22.28786zM80.54739,121.42859c7.75189,9.36158 21.79653,5.93993 25.55968,-4.88095c4.02527,-11.57458 -1.97114,-24.68413 -15.47264,-22.37153c-1.94822,0.3337 -3.93391,0.8165 -5.58345,1.96656c-3.68122,2.56656 -7.7714,21.33955 -4.50359,25.28592zM92.96528,73.11956c7.43993,8.76853 20.14631,2.69599 23.45881,-6.37144c4.05454,-11.09866 -4.39084,-21.89845 -15.98996,-19.285c-2.64042,0.59493 -4.89918,1.61848 -6.73561,3.65977c-1.81176,2.01386 -4.19408,17.91779 -0.73323,21.99666z" fill="currentColor" fill-rule="evenodd"/></svg>
