<svg xmlns="http://www.w3.org/2000/svg" viewBox="0 0 256 256" role="img" aria-hidden="true"><!-- Iconic Drills Pack © 2026 Roman Kuzhel, Kyrgyzstan | CC BY 4.0 | https://github.com/roblo3x/iconic-drills-pack --><path d="M41 158C43.28 145.04 57.64 80.04 61 66C64.36 51.96 67.44 45.08 69 41C70.56 36.92 72.2 33.92 74 32C75.8 30.08 80.76 25.96 84 25C87.24 24.04 94.04 23.04 101 24C107.96 24.96 136.36 31.56 142 33C147.64 34.44 146.68 34.68 148 36C149.32 37.32 152.4 41 153 44C153.6 47 153.72 54.64 153 61C152.28 67.36 145.92 92.44 147 97C148.08 101.56 158.4 98.16 162 99C165.6 99.84 173.16 101.72 177 104C180.84 106.28 191.12 115 194 118C196.88 121 198.96 122.52 201 129C203.04 135.48 209.8 163.6 211 172C212.2 180.4 210.64 192.28 211 199C211.36 205.72 214.12 224.16 214 228C213.88 231.84 213.12 230.64 210 231C206.88 231.36 191.12 231.36 188 231C184.88 230.64 184.84 238.56 184 228C183.16 217.44 181.84 154.4 181 143C180.16 131.6 178.8 135.04 177 133C175.2 130.96 168.76 127.2 166 126C163.24 124.8 157.12 123.36 154 123C150.88 122.64 143.6 115.92 140 123C136.4 130.08 127 173.48 124 182C121 190.52 116.92 192.2 115 194C113.08 195.8 112.2 196.88 108 197C103.8 197.12 86.72 196.44 80 195C73.28 193.56 56.56 187.52 52 185C47.44 182.48 43.32 177.24 42 174C40.68 170.76 38.72 170.96 41 158ZM70 154C69.4 156.28 70.16 162.2 71 164C71.84 165.8 74.96 168.52 77 169C79.04 169.48 85.96 169.08 88 168C90.04 166.92 93.4 162.28 94 160C94.6 157.72 94.08 151.04 93 149C91.92 146.96 87.04 143.48 85 143C82.96 142.52 77.8 143.68 76 145C74.2 146.32 70.6 151.72 70 154ZM78 108C77.4 111 78.44 118.72 80 121C81.56 123.28 88.6 126.52 91 127C93.4 127.48 98.44 125.72 100 125C101.56 124.28 103.16 122.44 104 121C104.84 119.56 106.76 115.4 107 113C107.24 110.6 107.08 103.28 106 101C104.92 98.72 100.52 94.6 98 94C95.48 93.4 87.4 94.32 85 96C82.6 97.68 78.6 105 78 108ZM90 58C89.52 60.76 90.8 69.72 92 72C93.2 74.28 97.72 76.64 100 77C102.28 77.36 108.96 76.44 111 75C113.04 73.56 116.4 67.52 117 65C117.6 62.48 117.08 56.16 116 54C114.92 51.84 110.4 47.6 108 47C105.6 46.4 98.16 47.68 96 49C93.84 50.32 90.48 55.24 90 58Z" fill="currentColor" fill-rule="evenodd"/></svg>
