<svg xmlns="http://www.w3.org/2000/svg" viewBox="0 0 256 256" role="img" aria-hidden="true"><!-- Iconic Drills Pack © 2026 Roman Kuzhel, Kyrgyzstan | CC BY 4.0 | https://github.com/roblo3x/iconic-drills-pack --><path d="M134 180L122 171L122 167L119 167L109 192L94 211L94 216L101 221L100 229L88 232L78 227L71 219L70 205L89 184L89 181L97 169L99 154L106 134L109 110L101 114L85 142L75 143L68 136L68 132L83 115L89 100L112 91L118 91L118 88L110 78L110 69L113 64L128 62L141 66L148 60L154 60L156 65L153 69L148 71L148 74L155 82L156 89L153 94L146 97L138 105L138 108L146 112L152 121L161 121L164 119L177 120L181 129L176 135L159 137L156 139L146 139L142 137L137 130L133 130L132 143L135 151L154 167L165 184L170 196L171 206L185 205L188 208L188 212L181 219L167 224L160 224L156 220L154 210L149 205L143 191ZM127 89L125 100L131 102L134 95L144 91L147 85L142 78L137 78L136 82L139 82L140 86L136 88L134 82L131 82ZM126 33L124 41L119 43L117 41L117 32L120 25L125 25ZM80 134L76 134L76 137L81 137ZM124 163L121 162L121 165L124 165Z" fill="currentColor" fill-rule="evenodd"/></svg>
