<svg xmlns="http://www.w3.org/2000/svg" viewBox="0 0 256 256" role="img" aria-hidden="true"><!-- Iconic Drills Pack © 2026 Roman Kuzhel, Kyrgyzstan | CC BY 4.0 | https://github.com/roblo3x/iconic-drills-pack --><path d="M40.50857,190.24589c1.19578,-1.45952 4.06856,-3.93737 5.89109,-1.78405c1.49571,1.76719 1.02058,5.38176 1.0558,7.50086c0.10764,6.47627 1.97741,18.35979 -4.17114,22.71896c-1.10745,0.78515 -2.27485,1.14745 -3.60055,1.35721c-8.2588,1.30672 -3.03517,-25.08164 0.82481,-29.79297zM51.65596,106.07864c3.68131,-0.76068 8.29616,-0.3792 11.66538,-2.20224c2.88885,-1.56312 3.62449,-5.34367 5.51202,-7.82012c2.74401,-3.60016 6.204,-7.20188 9.91297,-9.80866c5.5011,-3.86634 13.26859,-7.7949 19.84928,-9.27997c2.47549,-0.55865 5.39439,0.12477 7.75098,-0.81479c3.52209,-1.40424 2.62093,-7.31901 3.48321,-10.31442c2.01987,-7.01666 6.23027,-15.58004 10.45817,-21.5363c1.64479,-2.31719 3.95058,-2.54314 6.05933,-4.17919c3.17528,-2.46351 4.68614,-6.26471 8.2978,-8.3633c13.19327,-7.66609 29.91784,-9.22955 44.62201,-6.37651c16.12071,3.12788 32.89543,16.1921 38.3964,31.96562c4.48474,12.85958 3.42295,28.23071 3.9059,41.68295c0.93248,25.9734 1.78233,51.99017 1.33936,77.98149c-0.21582,12.66319 -0.54815,25.33118 -1.14926,37.9824c-0.20249,4.26165 0.66542,11.98647 -2.17892,15.50439c-2.40371,2.97295 -9.68459,1.92539 -13.04601,1.81659c-2.54614,-0.08241 -5.2159,-0.61053 -7.75213,-0.48996c-1.34845,0.0641 -3.2265,1.41955 -4.54005,0.94597c-2.12646,-0.76667 -1.98555,-4.91734 -2.08645,-6.63444c-0.39008,-6.63846 -0.04997,-13.35228 0.09876,-19.99501c0.86556,-38.65812 2.39078,-77.29888 3.43508,-115.95213c0.16202,-5.99698 0.3428,-11.99694 0.34606,-17.99658c0.0017,-3.13704 0.38767,-6.85032 -0.54713,-9.88654c-0.56325,-1.82941 -1.96064,-3.05234 -3.10222,-4.51035c-3.51638,-4.4911 -7.00636,-10.23719 -12.3364,-12.78299c-8.4386,-4.03054 -18.80336,-2.43238 -27.40968,-0.05425c-3.83075,1.05853 -7.74338,2.16762 -10.85659,4.75566c-5.21389,4.33437 -8.06646,10.56203 -10.66536,16.65038c-1.50404,3.52346 -6.1244,10.76568 -5.10845,14.64491c0.60589,2.31348 3.73161,3.81566 5.47137,5.13862c2.72595,2.0729 4.8754,4.37181 6.62576,7.32669c2.91352,4.91848 5.458,11.10459 5.90609,16.84687c0.27183,3.48345 -1.2232,8.48993 0.3024,11.71719c1.30843,2.76784 5.64015,1.83567 7.53944,4.38391c2.48334,3.33184 1.63238,9.65625 1.43402,13.55363c-0.09349,1.83699 -0.15666,3.96145 -1.49788,5.40757c-1.70957,1.84328 -4.91927,2.10281 -7.24294,2.40472c-5.32101,0.69136 -10.63846,0.14721 -15.94715,-0.37173c-13.19557,-1.2899 -26.66549,-2.41964 -39.64226,-5.22337c-9.09435,-1.96491 -17.96166,-5.21695 -26.73595,-8.26661c-5.03773,-1.75095 -10.06144,-3.54345 -15.06892,-5.37916c-2.05334,-0.75274 -5.36039,-1.38077 -6.7027,-3.30186c-1.66215,-2.37884 5.3354,-17.95627 11.20465,-19.16905zM47.01966,151.22135c2.74304,-1.85047 8.60545,-13.68392 12.66504,-6.25848c0.92069,1.68405 0.69202,3.94597 0.59619,5.7699c-0.30846,5.87049 -2.48041,16.81197 -9.50715,18.46318c-8.12602,1.90953 -6.04415,-16.4297 -3.75407,-17.9746zM63.66083,176.58906c0.90429,-1.97759 2.74191,-4.86606 5.42,-3.69279c1.76087,0.77144 2.27864,3.08863 2.63652,4.7329c0.88795,4.07959 2.35709,14.38775 -1.75097,17.16734c-5.67853,3.84221 -8.22048,-14.01971 -6.30556,-18.20745zM72.90698,127.90698c2.04004,-2.04004 -2.05363,2.05363 0,0zM75.82645,205.24908c1.24829,-1.5178 3.96687,-3.89737 5.91805,-1.92877c1.64042,1.65507 1.7502,5.14429 2.10518,7.29229c0.99684,6.03185 3.23706,16.31057 -3.78214,19.8924c-8.84538,4.51372 -7.09568,-21.785 -4.2411,-25.25591zM85.09786,151.66042c0.92397,-1.76113 2.95332,-4.76635 5.25815,-2.83709c1.40753,1.17817 2.00555,3.5323 2.36998,5.22434c1.11011,5.15416 1.78853,17.47456 -2.49046,21.34353c-3.13739,2.83677 -7.87782,1.68237 -9.15303,-2.3738c-0.97811,-3.11116 1.86887,-17.26567 4.01535,-21.35697zM90.38866,133.16501c0.82462,-0.09168 2.43547,-0.3896 2.31274,-1.71011c-0.3063,-3.29535 -5.023,2.01143 -2.31274,1.71011zM98.2098,183.84668c1.32383,-1.64583 4.09006,-3.75906 6.15857,-1.9474c4.0758,3.5697 2.88243,12.67992 2.31974,17.33608c-0.22729,1.88077 -0.46091,4.00634 -1.81688,5.47744c-6.5397,7.09495 -9.43281,-17.42065 -6.66143,-20.86611zM100.95461,134.8506c2.6338,-2.52599 -2.33471,2.23915 0,0zM101.55683,114.80693c4.01289,1.16447 8.25474,1.99849 12.37387,2.68944c0.8578,0.14389 4.28133,1.05232 4.68654,-0.56933c0.43531,-1.74212 -2.58278,-2.903 -3.6385,-3.27297c-4.73045,-1.65774 -16.31292,0.31395 -13.42192,1.15286zM119.64421,160.66625c1.26132,-1.89932 3.85931,-3.77476 5.95876,-1.74689c1.34328,1.29748 1.74499,3.65811 2.19267,5.36767c1.18832,4.53779 2.64662,11.48707 -0.85099,15.46447c-2.434,2.76789 -7.80455,3.44067 -9.91237,0.02522c-1.7861,-2.89416 0.45463,-15.86197 2.61193,-19.11047zM124.49526,196.87888c1.15646,-1.75938 3.78817,-4.13872 6.07765,-2.65731c1.55021,1.00307 1.82905,3.46186 2.09423,5.07532c0.83181,5.06106 0.74174,13.18813 -2.23992,17.62757c-3.47327,5.17141 -7.91614,1.15861 -9.51484,-2.99416c-0.71119,-1.84737 0.87381,-12.92997 3.58288,-17.05143z" fill="currentColor" fill-rule="evenodd"/></svg>
