<svg xmlns="http://www.w3.org/2000/svg" viewBox="0 0 256 256" role="img" aria-hidden="true"><path d="M151 137L156 130L156 127L151 128L134 147L136 160L130 168L124 169L119 166L105 166L103 175L95 188L89 193L76 197L59 197L40 190L30 179L25 166L25 148L28 138L34 128L42 120L55 113L82 113L91 99L89 89L76 91L67 89L63 85L62 74L69 67L101 66L105 68L107 76L103 81L97 84L99 92L172 90L176 67L153 73L144 73L141 70L141 64L145 60L176 57L184 58L186 63L182 99L185 111L198 111L212 115L219 119L228 131L232 151L226 179L216 189L203 196L177 197L165 193L154 184L149 175L146 152ZM105 102L123 143L128 143L135 133L166 103L166 99ZM217 154L218 147L196 151L196 155L211 166L214 166ZM96 159L96 155L85 156L85 159ZM197 121L188 121L191 138L194 138L204 126L203 122ZM204 165L193 160L198 182L205 180L211 173L211 170ZM183 167L179 184L194 185L189 162L185 162ZM61 136L62 141L66 140L74 126L74 121L57 122ZM103 132L106 146L114 145L114 141L98 107L95 107L91 114L91 118L99 125ZM164 116L160 119L159 124L162 124L165 120L174 116L174 107L171 107ZM204 145L218 142L218 136L212 127L207 127L195 143L195 146ZM169 160L177 156L178 152L163 147L157 147L157 165L162 166ZM166 132L161 137L160 143L180 148L176 126L172 126ZM70 178L66 165L61 164L53 184L57 186L72 187ZM35 157L35 160L38 160L55 154L55 149L37 140L35 145ZM85 181L91 176L94 166L80 166L71 163L77 184L81 184ZM44 129L41 132L41 136L55 145L58 145L53 126L49 125ZM80 130L72 144L72 148L95 146L93 135L90 130L86 126L83 126ZM179 159L161 171L161 175L166 180L170 182L174 181L181 163L181 159ZM37 165L40 176L48 180L57 160L51 159ZM107 155L107 159L114 159L113 153Z" fill="currentColor" fill-rule="evenodd"/></svg>
