<svg xmlns="http://www.w3.org/2000/svg" viewBox="0 0 256 256" role="img" aria-hidden="true"><!-- Iconic Drills Pack © 2026 Roman Kuzhel, Kyrgyzstan | CC BY 4.0 | https://github.com/roblo3x/iconic-drills-pack --><path d="M36 209C36.6 206.12 39.92 196.72 41 190C42.08 183.28 43.8 159.6 45 153C46.2 146.4 49.8 140.4 51 135C52.2 129.6 53.44 115.08 55 108C56.56 100.92 62.2 80.08 64 76C65.8 71.92 68.44 73.88 70 74C71.56 74.12 74 76.52 77 77C80 77.48 92.12 80.52 95 78C97.88 75.48 99.56 60.08 101 56C102.44 51.92 105.32 46.64 107 44C108.68 41.36 112.6 36.16 115 34C117.4 31.84 123.76 27.08 127 26C130.24 24.92 139.48 24.76 142 25C144.52 25.24 146.68 26.68 148 28C149.32 29.32 150.96 34.68 153 36C155.04 37.32 162.84 37.92 165 39C167.16 40.08 169.8 43.2 171 45C172.2 46.8 174.28 50.76 175 54C175.72 57.24 177 68.4 177 72C177 75.6 174.4 82.44 175 84C175.6 85.56 181.16 84.4 182 85C182.84 85.6 182.36 87.68 182 89C181.64 90.32 181.16 86.04 179 96C176.84 105.96 166.88 155.68 164 172C161.12 188.32 167.24 226.36 155 232C142.76 237.64 73.64 220.8 62 219C50.36 217.2 60.52 217.36 58 217C55.48 216.64 43.64 216.36 41 216C38.36 215.64 36.6 214.84 36 214C35.4 213.16 35.4 211.88 36 209ZM102 95C100.92 98.36 101.64 97.64 102 98C102.36 98.36 104.04 100.16 105 98C105.96 95.84 105.56 82.04 110 80C114.44 77.96 137.92 84.48 142 81C146.08 77.52 144.24 55.8 144 51C143.76 46.2 141.56 42.32 140 41C138.44 39.68 132.8 39.76 131 40C129.2 40.24 126.68 41.56 125 43C123.32 44.44 118.68 49.36 117 52C115.32 54.64 111.72 62.84 111 65C110.28 67.16 112.08 66.4 111 70C109.92 73.6 103.08 91.64 102 95ZM155 75C154.76 78.84 153.68 82.04 155 83C156.32 83.96 164.92 85.88 166 83C167.08 80.12 164.72 62.84 164 59C163.28 55.16 160.84 51.96 160 51C159.16 50.04 157.6 48.12 157 51C156.4 53.88 155.24 71.16 155 75ZM164 226C165.44 215.8 173.48 160.24 176 145C178.52 129.76 183.92 105.96 185 99C186.08 92.04 184.88 88.68 185 87C185.12 85.32 182.64 85.12 186 85C189.36 84.88 209.28 78.68 213 86C216.72 93.32 216.4 130.28 217 146C217.6 161.72 218.24 208.12 218 217C217.76 225.88 220.64 218.44 215 220C209.36 221.56 177.12 228.8 171 230C164.88 231.2 164.84 230.48 164 230C163.16 229.52 162.56 236.2 164 226Z" fill="currentColor" fill-rule="evenodd"/></svg>
