<svg xmlns="http://www.w3.org/2000/svg" viewBox="0 0 256 256" role="img" aria-hidden="true"><!-- Iconic Drills Pack © 2026 Roman Kuzhel, Kyrgyzstan | CC BY 4.0 | https://github.com/roblo3x/iconic-drills-pack --><path d="M32 204C32.24 201 34.8 194.28 36 192C37.2 189.72 39.24 186.56 42 185C44.76 183.44 56 182.72 59 179C62 175.28 62.56 163.84 67 154C71.44 144.16 90.36 108.76 96 97C101.64 85.24 111.84 62 114 56C116.16 50 115.92 48.32 114 47C112.08 45.68 100.88 45.96 98 45C95.12 44.04 91.08 40.32 90 39C88.92 37.68 88.76 35.44 89 34C89.24 32.56 91.16 28.08 92 27C92.84 25.92 94.44 25.24 96 25C97.56 24.76 102 23.92 105 25C108 26.08 117.16 32.44 121 34C124.84 35.56 133.28 37.52 137 38C140.72 38.48 149.24 37.64 152 38C154.76 38.36 158.68 40.16 160 41C161.32 41.84 162.52 43.68 163 45C163.48 46.32 164.72 50.2 164 52C163.28 53.8 159.16 59.16 157 60C154.84 60.84 148.4 59.72 146 59C143.6 58.28 138.8 54.48 137 54C135.2 53.52 134 49.24 131 55C128 60.76 117.52 89.76 112 102C106.48 114.24 88.6 148.96 85 157C81.4 165.04 80.08 165.76 82 169C83.92 172.24 92.84 182.8 101 184C109.16 185.2 143.28 179.84 150 179C156.72 178.16 155.56 178.8 157 177C158.44 175.2 160.32 166.64 162 164C163.68 161.36 168.6 156.68 171 155C173.4 153.32 178.88 150.72 182 150C185.12 149.28 193.64 148.52 197 149C200.36 149.48 208.08 152.92 210 154C211.92 155.08 212.52 156.68 213 158C213.48 159.32 213.04 163.2 214 165C214.96 166.8 219.92 170 221 173C222.08 176 223.48 186.52 223 190C222.52 193.48 218.44 199.96 217 202C215.56 204.04 212.92 205.92 211 207C209.08 208.08 203.64 210.52 201 211C198.36 211.48 192 211.72 189 211C186 210.28 178.28 206.8 176 205C173.72 203.2 171.2 197.08 170 196C168.8 194.92 174.64 194.56 166 196C157.36 197.44 106.76 206.8 98 208C89.24 209.2 94.8 207.8 93 206C91.2 204.2 84.68 194.56 83 193C81.32 191.44 79.12 191.8 79 193C78.88 194.2 81.76 200.24 82 203C82.24 205.76 82.32 212.88 81 216C79.68 219.12 73.4 227.08 71 229C68.6 230.92 63.4 231.76 61 232C58.6 232.24 53.28 231.6 51 231C48.72 230.4 44.04 228.68 42 227C39.96 225.32 35.2 219.76 34 217C32.8 214.24 31.76 207 32 204ZM50 203C49.4 204.44 49.52 208.68 50 210C50.48 211.32 52.68 213.52 54 214C55.32 214.48 59.68 214.48 61 214C62.32 213.52 64.52 211.32 65 210C65.48 208.68 65.48 204.44 65 203C64.52 201.56 62.2 198.6 61 198C59.8 197.4 56.32 197.4 55 198C53.68 198.6 50.6 201.56 50 203ZM186 180C185.28 181.56 185.28 185.44 186 187C186.72 188.56 190.44 192.28 192 193C193.56 193.72 197.44 193.6 199 193C200.56 192.4 204.16 189.44 205 188C205.84 186.56 206.12 182.32 206 181C205.88 179.68 204.84 177.84 204 177C203.16 176.16 200.44 174.36 199 174C197.56 173.64 193.56 173.28 192 174C190.44 174.72 186.72 178.44 186 180Z" fill="currentColor" fill-rule="evenodd"/></svg>
