<svg xmlns="http://www.w3.org/2000/svg" viewBox="0 0 256 256" role="img" aria-hidden="true"><!-- Iconic Drills Pack © 2026 Roman Kuzhel, Kyrgyzstan | CC BY 4.0 | https://github.com/roblo3x/iconic-drills-pack --><path d="M60 122L53 116L52 108L57 103L64 104L72 112L88 143L93 144L97 97L106 70L116 52L130 39L148 30L170 28L187 33L202 45L212 66L214 79L213 97L205 123L203 137L204 141L216 150L222 158L230 180L232 195L226 214L218 223L212 226L195 228L164 211L148 208L146 222L141 226L134 226L121 215L108 197L103 197L91 207L79 226L74 228L66 226L60 218L58 206L35 192L29 185L24 172L26 157L32 147L38 142L46 139L61 139L76 144L76 141L66 125ZM138 96L136 109L141 127L152 134L164 132L174 122L181 103L182 85L178 72L169 65L154 67L144 77ZM66 191L72 190L76 186L78 176L76 172L67 165L55 165L50 170L50 180L56 188ZM202 186L205 182L205 177L199 165L191 161L184 161L174 167L172 171L172 181L179 190L185 193L194 193L198 192Z" fill="currentColor" fill-rule="evenodd"/></svg>
