<svg xmlns="http://www.w3.org/2000/svg" viewBox="0 0 256 256" role="img" aria-hidden="true"><!-- Iconic Drills Pack © 2026 Roman Kuzhel, Kyrgyzstan | CC BY 4.0 | https://github.com/roblo3x/iconic-drills-pack --><path d="M36.21639,65.96672c2.27262,-2.81052 5.90558,-6.06312 9.82627,-5.75011c2.60982,0.20836 4.80678,2.1953 6.69704,3.80686c5.11594,4.36165 9.10528,9.66323 13.169,14.9734c1.98251,2.5906 3.84641,5.5401 6.18709,7.82386c0.50275,0.49052 1.69168,1.69228 2.67459,1.33158c1.02076,-0.3746 0.87175,-1.9487 0.74465,-2.62977c-0.58501,-3.13479 -3.36304,-5.87781 -5.30552,-8.24586c-5.06309,-6.17235 -10.50387,-12.09568 -15.3292,-18.4565c-2.31681,-3.05405 -4.3491,-6.98416 -2.62278,-10.83251c0.79815,-1.77925 2.28899,-3.28701 3.62265,-4.66661c3.44556,-3.56423 8.71626,-7.33663 13.88656,-4.79164c2.89577,1.42539 4.80599,4.7089 6.58911,7.25643c3.79628,5.42371 7.63694,11.00071 10.60987,16.92631c1.45762,2.90531 2.52167,6.275 4.41269,8.93298c0.53865,0.75711 2.57209,3.1714 3.77178,1.6739c2.57399,-3.21295 -4.13643,-8.9661 -5.55292,-11.18088c-1.42817,-2.23304 -2.56385,-4.68816 -3.76493,-7.04713c-4.45226,-8.74443 -13.55369,-22.97555 -1.438,-29.69688c3.52327,-1.95458 9.63734,-3.11561 13.32142,-0.99455c2.80019,1.61218 4.25933,5.18272 5.65026,7.9269c3.95845,7.80964 7.20826,15.67568 9.27431,24.19101c0.76008,3.13269 1.25539,6.67429 2.68927,9.58752c1.76807,3.59221 4.79512,3.07327 8.14554,3.80541c3.30555,0.72234 5.65611,3.25827 6.83685,6.34398c7.40662,19.35623 -16.47672,25.80512 -29.64249,32.31513c-4.09214,2.02342 -8.60877,3.97015 -11.79613,7.35156c-1.17411,1.24559 -2.45238,2.86518 -1.59953,4.68239c1.83335,3.90644 8.27565,5.24257 12.04282,5.56498c11.93827,1.02171 24.05382,-0.33697 35.94336,1.337c10.96066,1.54319 22.43463,5.45794 31.48497,11.97685c11.77791,8.48356 20.34632,21.35022 30.96943,31.17596c5.37599,4.97247 12.46013,7.90396 17.31979,13.41394c8.3621,9.48111 8.3578,20.40641 4.16618,31.61929c-1.14546,3.06418 -2.26315,6.33635 -4.41978,8.86202c-11.44911,13.40822 -30.11807,6.45656 -39.7729,-4.93713c-4.33812,-5.11943 -6.88816,-11.37373 -9.53715,-17.46523c-3.72113,-8.55698 -7.26066,-17.19153 -10.91502,-25.77697c-2.72856,-6.41038 -5.18681,-14.32021 -10.57525,-19.05001c-12.36631,-10.85475 -31.72693,-12.37175 -47.22446,-14.24504c-9.45567,-1.14297 -18.45646,-2.05425 -26.6388,-7.37651c-4.77136,-3.10357 -11.25707,-9.50737 -10.81469,-15.7428c0.45228,-6.37502 4.56867,-10.92621 -0.67377,-16.58409c-4.93987,-5.33133 -11.05194,-9.74499 -16.66456,-14.33206c-6.21697,-5.081 -7.49874,-20.9114 -5.74764,-23.07696zM200.6512,213.75392c3.56369,-6.58889 -3.63904,6.72821 0,0z" fill="currentColor" fill-rule="evenodd"/></svg>
