<svg xmlns="http://www.w3.org/2000/svg" viewBox="0 0 256 256" role="img" aria-hidden="true"><!-- Iconic Drills Pack © 2026 Roman Kuzhel, Kyrgyzstan | CC BY 4.0 | https://github.com/roblo3x/iconic-drills-pack --><path d="M36 112C37.44 108.28 46.72 94 52 88C57.28 82 73.76 66.8 80 62C86.24 57.2 98.72 50.52 104 48C109.28 45.48 120.04 42.08 124 41C127.96 39.92 134.96 40.68 137 39C139.04 37.32 139.44 28.68 141 27C142.56 25.32 148.2 24.52 150 25C151.8 25.48 155.4 29.08 156 31C156.6 32.92 152.24 38.36 155 41C157.76 43.64 174.68 50.12 179 53C183.32 55.88 188.24 61.28 191 65C193.76 68.72 198.88 75.84 202 84C205.12 92.16 214.96 124.96 217 133C219.04 141.04 218.88 146.44 219 151C219.12 155.56 218.6 167.88 218 171C217.4 174.12 215.32 176.28 214 177C212.68 177.72 208.44 177.84 207 177C205.56 176.16 203.2 173 202 170C200.8 167 198.2 154.76 197 152C195.8 149.24 193.8 148.2 192 147C190.2 145.8 183.8 142.6 182 142C180.2 141.4 178.2 141.64 177 142C175.8 142.36 173.56 143.32 172 145C170.44 146.68 165.92 154.68 164 156C162.08 157.32 157.68 158.64 156 156C154.32 153.36 151.32 137.12 150 134C148.68 130.88 146.2 130.48 145 130C143.8 129.52 141.08 129.52 140 130C138.92 130.48 137.56 129.2 136 134C134.44 138.8 128.68 161.84 127 170C125.32 178.16 123.56 195.88 122 202C120.44 208.12 116.16 217.64 114 221C111.84 224.36 106.04 228.68 104 230C101.96 231.32 99.04 231.88 97 232C94.96 232.12 89.76 232.32 87 231C84.24 229.68 76.28 224.12 74 221C71.72 217.88 68.6 208.12 68 205C67.4 201.88 68.16 196.8 69 195C69.84 193.2 73.2 190.48 75 190C76.8 189.52 82.56 190.28 84 191C85.44 191.72 86.52 193.6 87 196C87.48 198.4 87.28 208.72 88 211C88.72 213.28 91.56 214.88 93 215C94.44 215.12 98.08 215.24 100 212C101.92 208.76 107.44 194.48 109 188C110.56 181.52 111.32 166.4 113 158C114.68 149.6 121.92 123.04 123 118C124.08 112.96 122.72 116.24 122 116C121.28 115.76 119.64 114.92 117 116C114.36 117.08 103.12 122.96 100 125C96.88 127.04 92.8 132.04 91 133C89.2 133.96 86.08 133.48 85 133C83.92 132.52 82.48 130.8 82 129C81.52 127.2 81.72 119.92 81 118C80.28 116.08 78.52 113.72 76 113C73.48 112.28 63.48 111.4 60 112C56.52 112.6 49.4 117.16 47 118C44.6 118.84 41.32 119.72 40 119C38.68 118.28 34.56 115.72 36 112Z" fill="currentColor" fill-rule="evenodd"/></svg>
