<svg xmlns="http://www.w3.org/2000/svg" viewBox="0 0 256 256" role="img" aria-hidden="true"><!-- Iconic Drills Pack © 2026 Roman Kuzhel, Kyrgyzstan | CC BY 4.0 | https://github.com/roblo3x/iconic-drills-pack --><path d="M48.47069,41.50877c20.45809,-7.29351 43.99619,-5.01024 65.37258,-3.66434c11.29283,0.71102 22.54909,2.42381 33.74602,4.00543c7.10829,1.00408 14.81737,1.43493 21.58378,3.95561c4.41262,1.64382 12.64647,4.22887 15.73783,7.89132c1.59996,1.89553 1.09982,5.08188 1.01988,7.34205c-0.2354,6.65554 -0.73319,13.31888 -0.49896,19.98226c0.09674,2.75212 -0.12033,7.20787 2.51439,8.97498c2.1184,1.42081 5.26888,0.63187 7.54205,0.15834c6.10048,-1.2708 13.09961,-5.00261 19.40907,-3.69794c24.96682,5.16265 17.12008,38.16684 10.65213,54.68665c-4.78917,12.23204 -13.55821,23.97373 -26.88269,27.55376c-6.50102,1.7467 -15.73739,-1.22893 -21.47582,2.84039c-4.41377,3.12995 -4.19575,11.88973 -4.72624,16.70343c-1.11266,10.09636 -3.25969,17.89075 -13.26916,22.5132c-19.4519,8.98304 -40.35764,7.22987 -60.90926,4.78639c-8.67055,-1.03088 -19.50653,-1.07902 -27.35519,-5.22022c-3.65467,-1.92832 -6.068,-4.99069 -9.18552,-7.56408c-2.39818,-1.9796 -5.21565,-2.20016 -7.40853,-4.59654c-8.89179,-9.71696 -11.2556,-24.45475 -14.69208,-36.7596c-5.97311,-21.38765 -10.68341,-42.44904 -13.20989,-64.53201c-1.27966,-11.18505 9.77246,-50.98713 22.03562,-55.35907zM39.80722,95.77531c1.35669,11.23127 3.59334,22.35073 5.98774,33.39917c1.52794,7.05038 2.68739,14.55023 5.39394,21.26436c1.50223,3.72659 3.88761,6.9405 5.76548,10.46789c2.48581,4.66935 4.54135,9.71098 8.47614,13.40835c4.75601,4.46904 12.07836,5.96098 18.16883,7.72699c13.01067,3.7726 27.29072,8.57695 40.95495,8.29001c7.93663,-0.16666 15.98158,-1.24331 23.81326,-2.50128c3.47838,-0.55872 8.37467,-1.43874 10.65826,-4.42932c3.88231,-5.08423 4.08066,-14.97539 5.36508,-21.10529c0.53966,-2.57553 0.97443,-5.26404 1.93376,-7.72628c0.94233,-2.41864 2.89708,-4.41068 3.42815,-6.98671c0.6719,-3.25918 -0.7495,-6.5362 -0.4438,-9.80743c0.1824,-1.9518 1.06686,-3.71591 1.47617,-5.61574c1.10422,-5.12527 1.29261,-10.63906 1.7688,-15.85566c0.47923,-5.24982 1.06225,-10.66894 0.65433,-15.94175c-0.13408,-1.73307 -0.30261,-3.97473 -1.84794,-5.13246c-2.04641,-1.53312 -5.21691,-0.37373 -7.33975,0.2934c-5.07862,1.59602 -9.90424,3.92776 -15.03175,5.38031c-6.38696,1.80934 -13.27387,1.26556 -19.83364,1.02831c-9.93786,-0.35942 -20.00792,-0.81223 -29.84036,-2.37054c-13.53777,-2.14555 -27.87936,-4.80878 -40.90583,-9.11999c-5.01104,-1.65844 -19.03888,1.71534 -18.60181,5.33364zM53.05816,70.40754c7.83118,0.44626 15.31861,-5.2427 22.66601,-7.29473c9.13762,-2.55202 18.47007,-2.2417 27.81481,-1.43143c13.51412,1.17179 31.09679,0.62927 42.79655,8.46397c2.09633,1.4038 3.02583,3.72134 4.95171,5.3022c1.50831,1.2381 3.32436,2.06838 4.41185,3.77473c1.17735,1.84735 0.76994,5.28358 3.09928,6.26355c1.66462,0.70032 3.96318,-0.11924 5.56151,-0.57938c7.71356,-2.22063 11.2411,-8.47616 11.85257,-16.32872c0.45281,-5.81494 -1.39519,-10.29552 -6.81684,-12.85636c-1.73055,-0.8174 -3.65181,-0.89569 -5.36788,-1.65635c-1.26188,-0.55933 -1.29375,-1.84854 -2.50903,-2.49993c-4.21944,-2.26162 -10.81722,-2.20339 -15.49919,-2.93823c-19.08294,-2.9951 -38.27619,-6.56362 -57.65744,-5.77447c-7.87631,0.3207 -16.24788,0.34504 -23.63481,3.39771c-2.52268,1.0425 -4.28211,2.7597 -6.5914,4.09121c-6.03321,3.47866 -12.28341,19.6556 -5.0777,20.06621zM54.76752,122.33634c2.58551,-0.21839 4.76474,2.04217 6.99061,2.96564c2.94875,1.22338 6.62927,1.31395 9.74672,0.77764c5.28861,-0.90982 9.05074,-5.59398 14.50911,-5.95973c2.48958,-0.16682 5.03653,0.7837 4.94578,3.69677c-0.14363,4.6104 -5.29758,7.84206 -8.864,9.77707c-9.58369,5.19977 -29.56462,-11.06849 -27.32822,-11.2574zM83.56346,147.57444c5.72399,-8.14148 9.93214,-17.43939 14.52888,-26.24217c1.88027,-3.60072 4.24425,-11.4549 9.68885,-8.37855c3.91099,2.20982 3.67904,8.65532 4.2059,12.52452c1.52846,11.22485 3.05293,22.49199 3.89484,33.79288c0.27971,3.75457 1.59158,10.48948 -3.09024,12.11227c-3.00331,1.041 -6.74935,-0.10305 -9.83443,-0.20716c-7.90347,-0.2667 -16.14548,0.07606 -23.95204,-1.37626c-4.36026,-0.81118 0.97051,-17.12257 4.55824,-22.22554zM127.16903,122.14878c3.27953,0.16339 6.05468,2.61652 8.95485,3.87655c5.64957,2.45454 11.5599,0.94138 16.93491,4.59081c2.13529,1.44978 3.90886,3.36083 3.30047,6.16054c-0.94301,4.3396 -6.34384,3.68677 -9.66554,3.38684c-7.13793,-0.64453 -14.86974,-1.57305 -20.40896,-6.47542c-2.94017,-2.60213 -1.94614,-11.68032 0.88427,-11.53931zM181.99605,147.28839c3.05114,2.46441 12.06901,-0.05634 15.2533,-1.44195c4.53844,-1.97486 6.99773,-5.90594 8.97913,-10.22776c3.99095,-8.70505 11.55056,-23.83017 0.88121,-31.19473c-2.09599,-1.44676 -4.75233,-1.15735 -6.99235,-2.27343c-4.421,-2.20275 -12.57018,-3.38517 -14.60464,2.63442c-3.62292,10.71952 -6.32807,40.23266 -3.51665,42.50346z" fill="currentColor" fill-rule="evenodd"/></svg>
