<svg xmlns="http://www.w3.org/2000/svg" viewBox="0 0 256 256" role="img" aria-hidden="true"><!-- Iconic Drills Pack © 2026 Roman Kuzhel, Kyrgyzstan | CC BY 4.0 | https://github.com/roblo3x/iconic-drills-pack --><path d="M60.30443,52.4013c16.32901,-7.54366 32.65951,-15.08808 49.04992,-22.49763c8.63609,-3.90408 21.93693,-11.1279 28.16637,0.2757c3.15707,5.77933 0.07071,9.43346 -4.41648,13.09304c-8.7734,7.15525 -18.02474,13.72793 -27.047,20.56147c-3.20594,2.42821 -6.24099,4.91853 -9.08376,7.76573c-0.46173,0.46245 -3.14033,2.36828 -2.49526,3.4155c0.74942,1.21662 3.6838,1.37287 4.85836,1.59588c5.23452,0.99385 10.50708,1.80707 15.76493,2.66621c13.51281,2.20802 28.25723,3.13849 41.21245,7.7152c5.34712,1.88898 11.42679,5.0591 14.31635,10.20566c7.69306,13.70205 -9.05917,28.59492 -17.14672,37.40014c-2.59944,2.83011 -9.36563,8.40217 -7.81722,12.88167c0.84603,2.44754 4.11145,3.16174 6.27112,3.75704c5.82333,1.60516 11.77896,2.05093 17.78511,2.34273c6.65432,0.32329 13.31342,0.53992 19.96738,0.8709c4.50039,0.22386 9.54857,0.10983 13.69772,2.11803c4.2199,2.04245 6.82512,6.36975 8.73675,10.47136c4.65765,9.9935 9.38202,28.89636 1.4215,38.28834c-6.50663,7.67666 -16.6309,11.35341 -25.88579,14.31654c-17.33989,5.55169 -34.50437,9.3776 -52.55008,11.76539c-9.57804,1.26736 -26.34851,2.26938 -28.18538,-10.88368c-2.02374,-14.49117 16.9781,-22.38348 25.67558,-30.39981c2.51128,-2.31461 10.44975,-7.63639 9.68435,-11.60197c-0.85788,-4.44472 -10.59543,-4.30098 -13.93508,-4.76726c-2.63926,-0.3685 -5.27937,-0.73087 -7.91893,-1.09717c-10.26809,-1.42494 -27.2523,-1.3623 -30.44789,-14.18949c-0.93174,-3.74001 2.20545,-7.62849 3.98195,-10.65551c5.05808,-8.61855 10.27322,-17.1442 15.3637,-25.74358c1.69528,-2.86385 3.40866,-5.72735 5.00683,-8.64691c0.34116,-0.62324 1.32566,-2.13421 1.07406,-3.04868c-0.42569,-1.54722 -3.29601,-1.77564 -4.46654,-2.00118c-5.22471,-1.00673 -10.55629,-1.54378 -15.82511,-2.26931c-10.0201,-1.37979 -19.51534,-3.66513 -29.13156,-6.79855c-6.34323,-2.06693 -12.72133,-4.07935 -18.12651,-8.11895c-6.08296,-4.54615 2.82725,-34.34369 12.44487,-38.78683z" fill="currentColor" fill-rule="evenodd"/></svg>
