<svg xmlns="http://www.w3.org/2000/svg" viewBox="0 0 256 256" role="img" aria-hidden="true"><!-- Iconic Drills Pack © 2026 Roman Kuzhel, Kyrgyzstan | CC BY 4.0 | https://github.com/roblo3x/iconic-drills-pack --><path d="M38.63917,100.58567c1.69328,-0.10577 4.08316,0.11826 5.55459,-0.95739c2.19606,-1.60537 0.62277,-4.80246 -0.30306,-6.60889c-2.35283,-4.59071 -8.17687,-14.16088 0.85684,-15.97115c3.94958,-0.79146 7.13432,3.35024 8.77243,6.38917c3.11272,5.77454 2.69038,13.32353 6.78959,18.60738c1.62213,2.09091 3.97684,3.534 6.21067,4.87726c2.31392,1.39142 7.41908,5.44294 10.20975,3.58471c2.029,-1.35105 2.87629,-4.51343 4.10313,-6.49451c2.02619,-3.27185 6.34878,-5.15921 7.66685,-8.79054c1.28422,-3.53809 -0.3244,-8.16049 -0.89202,-11.71567c-0.84318,-5.28111 -0.65635,-10.61685 0.15734,-15.89627c3.89248,-25.25517 26.45246,-46.90246 53.04694,-43.4838c13.09969,1.68394 29.06759,13.3213 32.68758,26.42878c1.49364,5.40828 1.15001,12.34055 0.69574,17.89322c-0.53395,6.52658 -6.24489,12.30653 -5.61875,18.84277c0.38436,4.01224 4.23554,6.6437 6.92389,9.19608c3.87236,3.67651 7.02759,8.00854 9.17304,12.92032c1.79978,4.1204 3.10636,9.00245 3.26734,13.50846c0.13224,3.70163 -1.39204,8.23432 0.34053,11.71671c5.3541,10.76154 21.02441,4.43221 29.17598,2.10462c4.68567,-1.33794 11.43876,-2.62496 10.23198,4.93826c-0.8051,5.04581 -6.95483,5.55168 -10.82731,6.89815c-1.5712,0.54631 -3.61362,1.22808 -3.75932,3.23549c-0.13563,1.8686 1.37216,3.66961 2.45901,4.99379c1.85124,2.25549 5.29735,4.6914 5.53233,7.85391c0.29998,4.03729 -4.4567,6.67108 -7.93359,5.65097c-4.581,-1.34406 -6.82173,-6.22941 -9.12033,-9.96925c-3.0118,-4.90022 -5.73516,-8.46914 -11.22599,-10.65093c-3.27575,-1.30162 -7.91406,-3.30632 -10.75901,-0.14559c-2.16269,2.40274 -4.67833,7.44323 -3.50362,10.69162c0.86882,2.40253 3.16637,4.34072 4.83775,6.17941c2.74309,3.01769 4.99347,6.11439 6.85346,9.751c2.35222,4.59898 5.03808,9.63975 5.81035,14.80312c1.57659,10.54104 -2.22193,21.76702 -9.92045,29.10031c-7.6415,7.27897 -19.54021,9.13417 -29.58257,10.68773c-18.38339,2.84391 -37.36095,0.00238 -55.76042,-1.60114c-10.14316,-0.88398 -21.99457,-0.45426 -31.6709,-3.82409c-8.34028,-2.90455 -14.74941,-9.16893 -19.16375,-16.64483c-8.1518,-13.80548 -8.76385,-36.7197 3.1907,-48.74021c8.27805,-8.32373 26.88095,-14.55131 23.34263,-28.87795c-2.33557,-9.45671 -15.8946,-19.41908 -25.60985,-19.26921c-5.76995,0.08901 -12.07519,2.80889 -17.78051,1.92807c-4.32127,-0.66714 0.88911,-12.84934 5.541,-13.13991zM76.62434,183.97921c0.47791,2.55796 1.06506,5.26262 2.29538,7.58006c7.9799,15.03101 29.27056,13.26096 43.4585,13.5605c9.78488,0.20658 20.65629,0.59603 27.90532,-7.26858c4.85623,-5.26861 6.31473,-16.23074 1.33898,-21.96476c-2.62133,-3.0208 -6.5233,-4.57057 -9.213,-7.51399c-2.81234,-3.07764 -4.02848,-8.97463 -3.13856,-13.02341c1.44343,-6.56697 8.7674,-7.36625 13.72391,-9.96419c8.99521,-4.71481 12.56973,-16.53474 9.19209,-25.82308c-5.06047,-13.91605 -27.05972,-10.10929 -30.32138,-25.93271c-2.82395,-13.69992 11.41889,-17.19034 17.6116,-26.52181c1.926,-2.90218 1.49525,-6.22486 0.98568,-9.48065c-1.11296,-7.11099 -3.25332,-12.50838 -10.03335,-15.88704c-19.23921,-9.58737 -38.43359,14.34843 -35.23211,32.36508c1.35505,7.62568 8.71038,14.18132 7.32802,22.34247c-0.76581,4.52116 -5.14163,7.80304 -8.1529,10.90526c-4.34036,4.47144 -7.39182,9.21584 -7.71459,15.58698c-0.16596,3.27575 -0.12884,6.68818 1.09207,9.77973c2.25057,5.6988 6.2239,10.20184 3.86251,16.72977c-3.02499,8.36241 -13.10067,11.16687 -19.30331,16.54879c-3.57742,3.10406 -6.18908,15.28274 -5.68485,17.98157zM128.07057,55.76611c3.71822,-2.99114 9.93897,-0.7236 10.34205,4.13371c0.508,6.12178 -8.4751,10.79316 -12.00661,4.77469c-1.09193,-1.86089 -0.01618,-7.55631 1.66457,-8.9084z" fill="currentColor" fill-rule="evenodd"/></svg>
