<svg xmlns="http://www.w3.org/2000/svg" viewBox="0 0 256 256" role="img" aria-hidden="true"><!-- Iconic Drills Pack © 2026 Roman Kuzhel, Kyrgyzstan | CC BY 4.0 | https://github.com/roblo3x/iconic-drills-pack --><path d="M45.82274,155.56141c19.60507,3.95354 39.17446,8.08229 58.78058,12.03082c5.84767,1.17768 11.75968,2.62197 17.69542,3.27233c2.52577,0.27674 5.08851,0.18838 5.96792,-2.66606c0.34825,-1.13037 0.29957,-2.7329 0.25464,-3.88438c-0.06564,-1.68227 -0.00534,-4.00003 -0.77036,-5.55695c-0.8098,-1.64803 -2.76203,-2.00868 -4.33996,-2.46255c-3.84187,-1.10505 -7.72708,-2.08172 -11.60034,-3.06978c-7.04891,-1.79817 -14.24058,-3.8619 -21.51498,-4.45275c-8.6216,-0.70028 -17.39227,0.4219 -25.9798,-0.55754c-4.85181,-0.55337 -8.40114,-3.68848 -9.67813,-8.44916c-1.03202,-3.84741 0.66686,-7.94309 1.79437,-11.58059c1.97349,-6.36677 4.05945,-12.70165 6.23531,-19.00204c5.49294,-15.90531 12.64854,-33.04431 23.3851,-46.20662c7.07265,-8.6706 16.44601,-15.84807 25.07872,-22.89005c5.18735,-4.23149 10.60931,-8.03008 16.35674,-11.46492c2.72109,-1.62621 5.70557,-3.75518 8.95483,-4.05045c7.05822,-0.6414 5.33114,5.78918 4.83403,10.57291c-1.55329,14.94731 -0.88811,28.93535 0.91146,43.82545c2.00259,16.57003 2.39151,35.54612 8.62551,51.16887c2.2366,5.60504 6.07998,10.30716 9.52876,15.19345c1.86288,2.63936 4.02684,5.42633 3.90767,8.83696c-0.33732,9.65431 -11.31612,5.91802 -17.42893,7.31571c-4.32891,0.9898 -3.69397,6.07975 -2.13105,9.25377c2.45448,4.98466 11.72268,3.48885 16.32195,3.59682c9.09264,0.21346 18.97725,1.12351 27.93725,-0.73206c7.85492,-1.62671 14.86959,-6.07095 22.70897,-7.61609c7.64263,-1.50636 20.10273,-0.21653 19.15887,10.38951c-0.55709,6.25994 -4.73964,12.87723 -7.36923,18.48261c-3.52881,7.52218 -6.82453,16.55772 -13.2057,22.15515c-9.65432,8.46857 -22.8313,11.12595 -35.19288,12.69785c-21.3818,2.71892 -42.39455,2.18453 -63.86714,1.12475c-17.98637,-0.88772 -38.30488,-2.09845 -54.46906,-11.05949c-5.21839,-2.89295 -8.16397,-8.85199 -11.17631,-13.76107c-5.94632,-9.69045 -11.60137,-19.43917 -16.19925,-29.85158c-2.33089,-5.27856 9.02192,-22.10782 16.48502,-20.60282zM79.15496,201.84659c3.09165,2.37691 7.85526,2.4257 11.56925,2.806c4.12735,0.42263 10.20431,1.65008 12.71552,-2.7277c2.1386,-3.72822 1.72369,-12.06136 -1.54651,-15.07452c-2.76673,-2.54926 -7.74179,-3.10386 -11.26411,-3.93888c-5.00809,-1.18724 -16.23709,15.27327 -11.47415,18.93509zM160.3435,209.19536c7.19473,3.0435 21.61316,1.6596 23.61703,-7.53105c1.12633,-5.16585 -2.66833,-8.54305 -7.40254,-8.9553c-7.08131,-0.61663 -21.48338,14.25752 -16.21449,16.48635z" fill="currentColor" fill-rule="evenodd"/></svg>
