<svg xmlns="http://www.w3.org/2000/svg" viewBox="0 0 256 256" role="img" aria-hidden="true"><!-- Iconic Drills Pack © 2026 Roman Kuzhel, Kyrgyzstan | CC BY 4.0 | https://github.com/roblo3x/iconic-drills-pack --><path d="M34.03394,47.43228c1.41668,-3.75314 3.30272,-7.25508 5.90523,-10.32559c18.6396,-21.99152 50.07734,-13.87944 70.18843,1.46326c6.05748,4.62124 12.23898,14.05206 13.51006,21.62721c1.29048,7.69077 -0.09685,16.1668 -0.41987,23.91514c-0.25017,6.00094 -0.54544,11.98794 1.27851,17.8005c0.4684,1.49268 1.14105,3.90548 2.88568,4.46903c2.98295,0.96355 4.77377,-4.48594 5.62122,-6.34218c3.39756,-7.44198 5.16476,-14.90508 6.66299,-22.90945c1.10478,-5.90236 2.05256,-11.8218 5.01115,-17.13761c8.86065,-15.92027 27.34927,-24.78008 45.13043,-24.49953c9.90617,0.1563 20.29893,2.70393 26.68787,10.94531c20.41023,26.32802 3.42862,66.35328 -25.38446,77.74091c-8.65919,3.42232 -17.91093,5.19075 -26.75194,8.07063c-3.0646,0.99827 -8.48353,2.51228 -9.75897,5.91734c-0.67667,1.80651 0.2073,3.77401 1.27089,5.20577c1.56926,2.11247 3.98802,3.44368 5.78067,5.35303c2.26408,2.41148 4.18792,5.19508 6.15733,7.84576c11.34357,15.26767 22.68357,34.56562 25.34942,53.67488c0.86295,6.18577 2.42704,16.18627 -3.51072,20.58118c-5.76362,4.26602 -13.38218,-1.54056 -16.54008,-6.33771c-1.83636,-2.78961 -3.06833,-5.86126 -5.21714,-8.46028c-5.07261,-6.1354 -11.64387,-10.96149 -16.91862,-16.94112c-5.26746,-5.97138 -9.74718,-12.68772 -14.44354,-19.10682c-3.13222,-4.2812 -6.17263,-8.71103 -9.62576,-12.74315c-0.94152,-1.09938 -2.47527,-3.21969 -4.22615,-2.98008c-1.65731,0.22681 -2.84488,2.60562 -3.71857,3.74998c-3.63541,4.76165 -7.26246,9.52293 -10.83981,14.32922c-10.42855,14.01113 -21.92833,26.55215 -34.71784,38.45585c-3.89363,3.62396 -10.77267,10.50853 -16.53402,10.34294c-5.99153,-0.1722 -7.84803,-6.82601 -8.12731,-11.61056c-0.5981,-10.24639 2.05905,-19.66611 6.8835,-28.6723c4.08023,-7.61688 8.60149,-15.03193 13.1416,-22.38125c3.84997,-6.23217 7.60792,-12.55906 13.15984,-17.44494c4.00735,-3.52661 8.51761,-6.37825 12.64454,-9.74619c1.61064,-1.31443 4.56307,-3.37904 4.51792,-5.76893c-0.05991,-3.17075 -5.38134,-6.62582 -7.51456,-8.49799c-7.62729,-6.69394 -16.50445,-10.93521 -25.45889,-15.54691c-13.1049,-6.74927 -27.18449,-16.35151 -32.7572,-30.78142c-2.51853,-6.52147 -0.98562,-28.84614 0.67817,-33.25395zM79.49392,96.39505c4.23608,2.52797 13.19274,8.74243 17.60393,3.10577c2.14837,-2.7452 1.54258,-8.13974 1.69698,-11.42084c0.23986,-5.09721 0.97734,-10.78716 -0.44571,-15.76378c-1.24999,-4.37141 -4.1692,-8.34815 -6.59348,-12.13549c-2.02068,-3.15682 -4.05411,-7.12435 -7.22215,-9.28708c-10.05927,-6.8672 -18.13206,37.68819 -5.03958,45.50141zM122.42685,141.73829c1.83016,3.02888 7.87198,3.95181 10.56035,1.55121c5.08909,-4.54434 -0.67016,-12.87572 -6.79283,-11.16736c-2.12033,0.59162 -5.30298,7.07501 -3.76752,9.61616zM159.55629,94.96524c0.04802,2.92431 -0.3286,7.04186 1.38605,9.5967c3.22928,4.81165 12.03992,3.72883 16.33292,1.46055c10.8281,-5.72121 19.08777,-15.0939 20.9817,-27.18934c0.7219,-4.61036 1.38081,-9.25979 -1.28724,-13.40956c-4.48518,-6.97605 -12.60325,-6.59616 -19.3063,-3.45684c-10.03953,4.70194 -18.16247,29.6281 -18.10712,32.99848z" fill="currentColor" fill-rule="evenodd"/></svg>
