<svg xmlns="http://www.w3.org/2000/svg" viewBox="0 0 256 256" role="img" aria-hidden="true"><!-- Iconic Drills Pack © 2026 Roman Kuzhel, Kyrgyzstan | CC BY 4.0 | https://github.com/roblo3x/iconic-drills-pack --><path d="M50 206L55 192L74 160L86 147L99 137L99 134L84 121L52 103L36 86L31 73L31 59L35 45L45 32L62 24L78 24L92 28L112 40L118 47L123 58L123 94L126 106L130 106L135 96L140 72L146 58L161 43L180 36L198 36L209 40L217 47L224 62L225 78L222 92L215 106L201 119L189 125L162 133L154 138L156 144L162 149L177 170L191 200L194 221L190 231L182 232L174 226L168 216L150 198L125 165L119 168L89 206L63 229L55 231L51 228L49 223ZM187 99L193 93L197 85L199 71L194 62L183 60L174 64L166 72L160 87L160 102L162 106L171 108ZM64 82L70 90L85 100L95 101L98 98L99 77L97 69L90 56L82 50L70 49L60 57L58 62L58 73ZM124 142L125 144L132 144L134 142L134 135L130 132L124 133L122 136L122 141Z" fill="currentColor" fill-rule="evenodd"/></svg>
