<svg xmlns="http://www.w3.org/2000/svg" viewBox="0 0 256 256" role="img" aria-hidden="true"><!-- Iconic Drills Pack © 2026 Roman Kuzhel, Kyrgyzstan | CC BY 4.0 | https://github.com/roblo3x/iconic-drills-pack --><path d="M78 103L83 100L82 94L66 77L61 67L56 62L58 56L66 54L86 57L111 71L120 80L127 80L164 66L203 55L221 57L228 65L232 76L231 89L222 100L200 110L187 113L181 117L160 124L160 127L142 153L120 193L111 201L103 201L100 197L101 173L107 139L99 140L93 144L66 153L47 165L42 165L36 160L33 139L24 115L25 105L27 103L37 104L54 113L54 115L57 115ZM139 104L141 107L147 107L151 103L153 98L152 89L145 88L141 91L139 95ZM110 113L112 116L121 115L125 111L125 102L123 100L114 101L110 106ZM191 76L187 77L187 91L189 93L193 93L199 87L199 76ZM170 99L173 95L173 85L171 82L168 82L164 86L163 94L165 99Z" fill="currentColor" fill-rule="evenodd"/></svg>
