<svg xmlns="http://www.w3.org/2000/svg" viewBox="0 0 256 256" role="img" aria-hidden="true"><!-- Iconic Drills Pack © 2026 Roman Kuzhel, Kyrgyzstan | CC BY 4.0 | https://github.com/roblo3x/iconic-drills-pack --><path d="M37 219C38.08 209.88 45.64 165.04 49 154C52.36 142.96 60.32 133.84 65 127C69.68 120.16 83.32 103.6 88 97C92.68 90.4 98.84 77.76 104 72C109.16 66.24 122.96 54.52 131 49C139.04 43.48 164.88 29 171 26C177.12 23 178.76 23.28 182 24C185.24 24.72 195 29.96 198 32C201 34.04 204.72 38 207 41C209.28 44 215.56 54.36 217 57C218.44 59.64 219 60.72 219 63C219 65.28 220 73 217 76C214 79 200.96 82.96 194 88C187.04 93.04 165.96 110.44 159 118C152.04 125.56 141.04 142 136 151C130.96 160 124.08 184.84 117 193C109.92 201.16 84.92 214.44 77 219C69.08 223.56 55.44 229.68 51 231C46.56 232.32 41.68 231.44 40 230C38.32 228.56 35.92 228.12 37 219ZM57 188C56.4 191.6 57.16 193.16 58 194C58.84 194.84 62.68 194.52 64 195C65.32 195.48 68.04 197.04 69 198C69.96 198.96 71.16 202.4 72 203C72.84 203.6 72.88 204.8 76 203C79.12 201.2 95.24 190.64 98 188C100.76 185.36 99.6 182.44 99 181C98.4 179.56 95.4 176.6 93 176C90.6 175.4 81.28 176.48 79 176C76.72 175.52 74.96 173.32 74 172C73.04 170.68 72.32 165.96 71 165C69.68 164.04 64.68 161.24 63 164C61.32 166.76 57.6 184.4 57 188ZM84 148C82.2 152.32 83.76 153.8 84 155C84.24 156.2 84.92 157.64 86 158C87.08 158.36 91.8 158.24 93 158C94.2 157.76 93.72 160.56 96 156C98.28 151.44 108.88 126.12 112 120C115.12 113.88 118.64 109.08 122 105C125.36 100.92 134.96 90.56 140 86C145.04 81.44 161 70.24 164 67C167 63.76 165.24 60.32 165 59C164.76 57.68 163.2 56.36 162 56C160.8 55.64 156.44 55.64 155 56C153.56 56.36 154.32 55.04 150 59C145.68 62.96 125.12 81.8 119 89C112.88 96.2 103.2 111.92 99 119C94.8 126.08 85.8 143.68 84 148Z" fill="currentColor" fill-rule="evenodd"/></svg>
