<svg xmlns="http://www.w3.org/2000/svg" viewBox="0 0 256 256" role="img" aria-hidden="true"><path d="M219 66L219 71L215 78L204 82L186 94L170 107L154 124L136 151L122 183L114 196L77 219L54 230L42 231L39 229L37 219L49 154L63 130L88 97L100 77L115 61L159 32L171 26L182 24L194 29L207 41L217 57ZM99 120L84 148L84 155L86 158L95 157L119 109L140 86L164 67L165 59L162 56L155 56L134 73L113 97ZM57 190L58 194L64 195L69 198L72 203L76 203L98 188L99 181L93 176L79 176L74 172L71 165L63 164Z" fill="currentColor" fill-rule="evenodd"/></svg>
