<svg xmlns="http://www.w3.org/2000/svg" viewBox="0 0 256 256" role="img" aria-hidden="true"><rect x="8" y="8" width="240" height="240" rx="56" fill="#0AF40B"/><path d="M161 51L189 61L201 72L214 96L216 106L215 118L207 129L199 131L194 130L189 126L188 122L192 116L199 115L199 107L196 103L182 97L162 99L147 105L134 116L129 125L128 140L131 144L140 144L157 128L165 125L175 126L180 132L180 137L175 145L167 149L165 153L166 162L173 168L179 170L196 170L221 161L228 161L231 163L232 168L223 182L211 193L198 201L191 204L163 209L101 206L65 209L41 205L30 201L24 193L24 186L30 177L42 172L48 165L44 138L44 118L50 98L64 76L84 59L107 49L122 46L137 46Z" fill="#090909" fill-rule="evenodd"/></svg>
