<svg xmlns="http://www.w3.org/2000/svg" viewBox="0 0 256 256" role="img" aria-hidden="true"><rect x="8" y="8" width="240" height="240" rx="56" fill="#C8FF00"/><!-- Iconic Drills Pack © 2026 Roman Kuzhel, Kyrgyzstan | CC BY 4.0 | https://github.com/roblo3x/iconic-drills-pack --><path d="M38.87625,102.73142c4.47385,-13.52689 9.96968,-28.24816 19.17933,-39.35608c8.38198,-10.10966 21.24628,-19.99978 33.63355,-24.58032c10.43202,-3.85753 22.42403,-4.99752 33.46274,-5.24132c8.61771,-0.19033 17.45485,-0.47667 25.76931,2.11206c19.57078,6.09344 35.18638,18.83665 47.23109,35.19786c8.23065,11.1803 15.70138,25.9061 19.77102,39.17901c6.41329,20.9166 7.31354,43.63351 8.65819,65.29068c0.78194,12.59412 7.8879,26.84784 4.4891,39.46665c-1.71169,6.35505 -9.5331,6.84934 -14.91803,6.59501c-13.92809,-0.6578 -27.92089,-2.77632 -41.75744,-4.44888c-3.96935,-0.47981 -7.94625,-0.9414 -11.899,-1.54588c-1.47704,-0.22588 -4.04202,-0.27561 -5.12686,-1.54876c-1.31973,-1.54882 -0.17537,-5.27958 0.03213,-7.04019c0.62427,-5.29685 1.47888,-10.56306 2.14337,-15.85458c2.27381,-18.10701 -0.4151,-39.84336 -18.60572,-48.63003c-2.95706,-1.42836 -6.08214,-2.85465 -9.3828,-3.21412c-3.28161,-0.35739 -6.69033,0.20006 -9.92988,0.68948c-3.94775,0.59641 -7.91207,1.29376 -11.45814,3.22693c-15.02702,8.19211 -17.59818,28.84264 -19.49298,44.00862c-0.74393,5.95444 -1.49203,11.90461 -2.31886,17.84796c-0.26423,1.89935 0.12898,5.42659 -1.87247,6.5381c-3.37979,1.87698 -9.86592,0.79591 -13.61828,0.81045c-11.32644,0.04388 -22.67511,-0.05053 -33.99162,-0.55535c-3.68848,-0.16454 -10.54429,0.47892 -12.90252,-3.1056c-1.36651,-2.07711 -0.93451,-5.25418 -1.16068,-7.6095c-0.76686,-7.98616 5.85595,-73.4104 14.06546,-98.2322zM54.6017,195.67474c1.13193,1.79455 4.00463,3.48935 5.96475,1.8961c3.01654,-2.45194 3.58891,-9.33375 4.48939,-12.88072c2.62411,-10.3363 4.91593,-20.77351 7.79233,-31.04375c5.19263,-18.5404 21.27444,-33.02843 37.20374,-42.73292c9.4901,-5.78158 18.61507,-9.77371 29.98526,-9.19583c8.46878,0.43042 19.16444,5.35779 24.6982,11.82736c4.32779,5.05967 6.83814,11.48936 9.41836,17.54529c5.65588,13.27469 9.56893,25.88818 10.92954,40.28727c0.62732,6.63885 1.12788,13.28868 1.70521,19.93188c0.32858,3.78083 0.20458,8.25371 1.53679,11.84642c1.72814,4.66047 8.09379,2.64473 8.68166,-1.65282c1.04255,-7.62136 -0.3826,-16.30342 -0.88159,-23.95608c-1.07223,-16.4437 -4.81732,-31.13771 -10.26536,-46.64912c-3.12878,-8.90813 -6.10942,-17.59234 -12.07264,-25.06096c-5.58211,-6.99131 -12.9605,-14.36335 -21.75401,-16.97583c-23.78844,-7.06735 -45.63404,10.02308 -63.17548,23.36608c-11.6809,8.88515 -21.60728,16.9849 -27.64931,30.70205c-5.61922,12.75726 -8.81055,49.2518 -6.60683,52.74557z" fill="#090909" fill-rule="evenodd"/></svg>
