<svg xmlns="http://www.w3.org/2000/svg" viewBox="0 0 256 256" role="img" aria-hidden="true"><rect x="8" y="8" width="240" height="240" rx="56" fill="#C8FF00"/><!-- Iconic Drills Pack © 2026 Roman Kuzhel, Kyrgyzstan | CC BY 4.0 | https://github.com/roblo3x/iconic-drills-pack --><path d="M31.38452,149.67054c5.09698,-3.03658 9.94418,-0.98969 12.04424,-7.90083c2.08116,-6.84894 -2.37123,-8.25778 -5.43012,-13.40757c-3.40534,-5.73306 -0.37626,-15.91665 4.70268,-19.79235c6.77145,-5.16725 18.74936,2.82819 24.39395,-4.03473c2.86736,-3.48625 0.79376,-7.35905 -0.32947,-11.04423c-1.96746,-6.45496 -1.95089,-17.98323 5.02924,-21.68703c3.63766,-1.93022 9.91379,-1.46385 12.98605,1.32887c4.58942,4.17185 7.3647,12.70773 15.19595,7.31783c4.17087,-2.87063 3.13706,-10.35367 3.61928,-14.75333c0.80271,-7.32375 4.98706,-11.50753 10.4027,-16.10203c2.32013,-1.96834 5.06793,-4.72811 8.31198,-4.84068c9.34511,-0.32429 9.2557,11.86246 10.70844,18.31745c0.62086,2.75867 1.11061,7.00335 4.44036,7.80189c5.90085,1.41514 6.24867,-4.78553 8.6357,-8.1949c3.48597,-4.97896 13.10098,-9.63646 19.26616,-8.28045c5.69427,1.25244 7.98846,6.80868 7.73672,12.0079c-0.13107,2.70706 -1.09364,7.14037 1.38138,9.14891c1.9253,1.56242 5.23098,1.11614 7.50177,1.02578c5.90662,-0.23503 12.06389,-1.57554 17.6643,0.94144c3.97259,1.7854 8.3943,4.99835 9.30875,9.53282c0.63545,3.151 -0.51294,6.68386 1.31808,9.57087c2.83338,4.46744 9.41411,5.05179 12.89369,8.88952c3.27996,3.61756 1.49269,8.90365 3.43577,13.05209c1.435,3.06369 4.06037,4.99843 4.6578,8.50495c0.53494,3.13976 0.37126,6.77833 -1.44188,9.49125c-1.78719,2.67409 -4.9428,4.48104 -5.02051,8.03877c-0.06945,3.17978 1.79835,6.5181 2.95819,9.3882c3.34419,8.27544 8.46493,22.46304 1.51329,30.44216c-3.74884,4.30293 -10.9338,5.67572 -16.18566,7.12392c-16.74369,4.61704 -34.36633,3.38925 -51.5041,5.40949c-29.07265,3.42716 -57.74781,9.85042 -86.92729,12.44723c-6.62577,0.58966 -13.26503,1.09346 -19.90974,1.41287c-3.87967,0.18649 -8.08853,0.69079 -11.4443,-1.68321c-6.32646,-4.47558 -8.35268,-14.12563 -8.28687,-21.46703c0.02698,-3.01007 1.08649,-6.87418 -0.58655,-9.62722c-1.73426,-2.8538 -5.57231,-3.31097 -7.72292,-5.74391c-2.53993,-2.87337 0.15694,-19.93829 4.68294,-22.6347zM51.78302,192.84323c3.15107,0.14334 3.70149,-7.56668 4.13759,-9.61154c2.11357,-9.91043 4.20322,-19.39244 8.60646,-28.58236c11.75336,-24.53023 30.39003,-43.90225 55.86954,-54.31953c8.21474,-3.35859 16.74135,-3.68083 25.49551,-3.6259c14.71266,0.09231 27.19823,2.16514 40.36349,9.05052c8.47962,4.43481 14.12073,11.87626 21.41746,17.79534c2.62607,2.13025 5.51597,1.47724 3.91376,-2.35162c-4.09031,-9.77475 -13.98304,-16.58441 -22.63728,-21.85625c-27.61248,-16.82051 -65.36222,-17.97685 -92.93502,-0.12062c-17.27829,11.18947 -32.79168,29.35755 -39.89419,48.75802c-3.8061,10.39635 -9.37222,44.63491 -4.33732,44.86395zM135.47898,147.91753c0.31072,19.66192 22.66776,28.1427 39.29194,28.3532c9.45811,0.11976 19.18899,-0.11857 23.64831,-10.12483c3.64908,-8.18816 -0.22229,-17.33934 -4.22523,-24.49726c-7.25626,-12.97543 -18.81067,-20.38241 -33.59556,-20.71501c-7.18275,-0.16158 -12.65227,1.33623 -17.59019,6.92295c-3.38542,3.83024 -7.57219,17.34537 -7.52927,20.06095z" fill="#090909" fill-rule="evenodd"/></svg>
