<svg xmlns="http://www.w3.org/2000/svg" viewBox="0 0 256 256" role="img" aria-hidden="true"><rect x="8" y="8" width="240" height="240" rx="56" fill="#0AF40B"/><path d="M187 99L175 92L164 89L130 87L116 90L95 100L72 121L60 140L50 170L50 192L54 192L55 190L61 163L73 139L99 112L110 105L130 98L161 97L185 105L197 113L209 125L212 125L211 120L205 112ZM231 182L224 188L202 194L161 197L88 208L49 211L42 208L38 203L35 190L35 178L26 172L24 161L27 154L32 149L41 147L44 140L44 135L37 127L38 115L45 107L64 107L69 101L66 91L66 81L69 74L73 71L81 71L85 73L92 82L102 79L105 59L116 47L124 45L131 51L135 70L143 70L145 64L151 58L165 54L173 61L174 76L195 76L207 83L210 97L224 106L226 118L231 125L231 135L225 142L225 147L232 166ZM139 136L136 142L136 153L141 163L150 170L168 176L186 176L197 169L200 161L198 149L192 138L178 125L168 121L154 121L146 125Z" fill="#090909" fill-rule="evenodd"/></svg>
