<svg xmlns="http://www.w3.org/2000/svg" viewBox="0 0 256 256" role="img" aria-hidden="true"><rect x="8" y="8" width="240" height="240" rx="56" fill="#C8FF00"/><!-- Iconic Drills Pack © 2026 Roman Kuzhel, Kyrgyzstan | CC BY 4.0 | https://github.com/roblo3x/iconic-drills-pack --><path d="M38 79C39.2 74.68 45.36 60.44 48 56C50.64 51.56 56.4 45 60 42C63.6 39 73.56 33.04 78 31C82.44 28.96 91 25.84 97 25C103 24.16 121.28 23.16 128 24C134.72 24.84 146.52 30.8 153 32C159.48 33.2 176.48 32.68 182 34C187.52 35.32 195.76 40.48 199 43C202.24 45.52 206.96 51.16 209 55C211.04 58.84 215.04 69.84 216 75C216.96 80.16 217.36 92.96 217 98C216.64 103.04 213.96 113.64 213 117C212.04 120.36 210.68 123.6 209 126C207.32 128.4 202.12 134.36 199 137C195.88 139.64 186.96 145.96 183 148C179.04 150.04 168.88 149.56 166 154C163.12 158.44 159.48 179.24 159 185C158.52 190.76 160.92 199.12 162 202C163.08 204.88 165.96 207.8 168 209C170.04 210.2 177.2 211.16 179 212C180.8 212.84 182.52 214.92 183 216C183.48 217.08 183.48 220.04 183 221C182.52 221.96 180.92 223.52 179 224C177.08 224.48 171.56 225.6 167 225C162.44 224.4 146.04 219.72 141 219C135.96 218.28 131.6 217.56 125 219C118.4 220.44 92.24 229.56 86 231C79.76 232.44 74.8 231.24 73 231C71.2 230.76 71.12 230.08 71 229C70.88 227.92 70.32 224.04 72 222C73.68 219.96 81.88 213.92 85 212C88.12 210.08 95.6 207.8 98 206C100.4 204.2 103.68 201.08 105 197C106.32 192.92 108.64 177.76 109 172C109.36 166.24 108.6 152.12 108 149C107.4 145.88 107.24 146.48 104 146C100.76 145.52 85.44 145.96 81 145C76.56 144.04 70.84 141.24 67 138C63.16 134.76 52 121.96 49 118C46 114.04 43.32 108.12 42 105C40.68 101.88 38.48 95.12 38 92C37.52 88.88 36.8 83.32 38 79ZM65 104C64.64 106.76 65.2 113.36 67 116C68.8 118.64 76.28 124.8 80 126C83.72 127.2 95.36 126.24 98 126C100.64 125.76 100.8 125.2 102 124C103.2 122.8 107.4 118.64 108 116C108.6 113.36 107.48 104.4 107 102C106.52 99.6 105.44 97.44 104 96C102.56 94.56 98.24 90.96 95 90C91.76 89.04 80 87.64 77 88C74 88.36 71.44 91.08 70 93C68.56 94.92 65.36 101.24 65 104ZM76 60C75.28 61.8 75.64 64.68 76 66C76.36 67.32 76 69.92 79 71C82 72.08 96.56 73.56 101 75C105.44 76.44 112.4 82.16 116 83C119.6 83.84 128.24 83.2 131 82C133.76 80.8 138.04 74.68 139 73C139.96 71.32 139.36 69.2 139 68C138.64 66.8 136.36 65.16 136 63C135.64 60.84 136.6 52.28 136 50C135.4 47.72 133.16 45.44 131 44C128.84 42.56 121.12 38.72 118 38C114.88 37.28 108.12 37.52 105 38C101.88 38.48 94.76 40.44 92 42C89.24 43.56 83.92 48.84 82 51C80.08 53.16 76.72 58.2 76 60ZM135 119C134.52 121.88 135.04 125.2 136 127C136.96 128.8 141.44 132.92 143 134C144.56 135.08 146.48 135.76 149 136C151.52 136.24 161.24 136.36 164 136C166.76 135.64 170.44 133.96 172 133C173.56 132.04 176.16 129.2 177 128C177.84 126.8 178.88 125.4 179 123C179.12 120.6 178.72 110.76 178 108C177.28 105.24 174.32 101.32 173 100C171.68 98.68 169.52 97.6 167 97C164.48 96.4 154.52 95 152 95C149.48 95 147.44 96.04 146 97C144.56 97.96 141.32 100.36 140 103C138.68 105.64 135.48 116.12 135 119ZM160 62C159.4 63.68 159.52 68.2 160 70C160.48 71.8 163.04 75.56 164 77C164.96 78.44 166.44 80.92 168 82C169.56 83.08 174.84 85.52 177 86C179.16 86.48 184.08 86.36 186 86C187.92 85.64 191.32 84.56 193 83C194.68 81.44 199.4 75.76 200 73C200.6 70.24 198.96 62.4 198 60C197.04 57.6 193.44 54.2 192 53C190.56 51.8 188.28 50.12 186 50C183.72 49.88 175.52 51.28 173 52C170.48 52.72 166.56 54.8 165 56C163.44 57.2 160.6 60.32 160 62Z" fill="#090909" fill-rule="evenodd"/></svg>
