<svg xmlns="http://www.w3.org/2000/svg" viewBox="0 0 256 256" role="img" aria-hidden="true"><rect x="8" y="8" width="240" height="240" rx="56" fill="#0AF40B"/><!-- Iconic Drills Pack © 2026 Roman Kuzhel, Kyrgyzstan | CC BY 4.0 | https://github.com/roblo3x/iconic-drills-pack --><path d="M80 57L90 58L100 62L94 49L93 41L97 30L101 26L113 26L117 28L122 33L127 47L130 47L131 40L135 33L143 26L153 24L161 28L167 37L167 47L162 62L174 57L184 57L191 61L194 68L194 79L191 85L180 92L174 93L174 96L186 103L190 110L191 118L187 129L179 135L167 136L160 134L151 125L148 125L144 144L138 149L131 151L129 160L127 184L130 184L139 173L150 165L165 159L184 157L181 168L173 180L154 196L138 203L125 204L123 230L120 232L114 230L114 206L106 204L85 192L75 181L69 164L69 155L85 158L103 172L112 185L113 190L116 190L121 153L121 149L117 148L111 139L113 120L93 130L86 130L76 126L70 118L69 109L72 102L77 97L85 94L85 91L71 86L63 76L63 69L69 61ZM136 70L124 70L117 74L110 83L109 98L114 107L120 111L127 113L138 112L143 109L151 99L152 86L149 78L142 71Z" fill="#090909" fill-rule="evenodd"/></svg>
