<svg xmlns="http://www.w3.org/2000/svg" viewBox="0 0 256 256" role="img" aria-hidden="true"><rect x="8" y="8" width="240" height="240" rx="56" fill="#C8FF00"/><!-- Iconic Drills Pack © 2026 Roman Kuzhel, Kyrgyzstan | CC BY 4.0 | https://github.com/roblo3x/iconic-drills-pack --><path d="M51.31927,107.67888c6.42904,-14.03865 11.99649,-31.63194 28.38536,-36.2892c10.3508,-2.9414 19.18268,-2.45557 29.11804,1.71914c3.85736,1.62081 6.46366,4.36207 9.82251,6.69858c1.19351,0.83024 3.06113,1.97822 4.08888,0.17483c1.14836,-2.01502 0.62681,-5.45476 0.37568,-7.6288c-0.67267,-5.82332 -2.557,-11.86588 -4.46786,-17.3942c-0.82999,-2.40125 -1.84388,-5.04923 -4.1949,-6.36758c-3.51366,-1.97031 -7.90178,-0.25421 -11.47937,-2.04501c-4.23188,-2.11831 -3.93597,-6.1002 -1.29362,-9.3081c1.56561,-1.9007 3.53519,-4.21916 5.88627,-5.15524c2.49317,-0.99265 5.20774,-0.18725 7.60142,0.6721c6.55747,2.35418 11.46744,6.52591 13.955,13.13811c0.96682,2.56992 2.1771,11.25765 5.76022,11.46633c3.33427,0.19419 5.06474,-6.62642 6.40668,-8.80236c4.82062,-7.81654 13.94345,-15.50442 21.1926,-21.0731c5.40436,-4.15153 16.75297,-3.62958 23.17903,-2.24921c3.26996,0.70241 6.12813,2.41403 9.51868,2.67271c3.97695,0.30342 7.99131,-0.35592 11.97272,-0.31243c1.70227,0.0186 3.93935,-0.02961 5.08897,1.53694c3.85258,5.24977 -3.9703,11.29312 -5.63712,15.50628c-2.88433,7.29067 -7.62714,11.58662 -13.39678,16.81156c-2.87505,2.60362 -5.85746,5.66183 -9.64021,6.88093c-5.92202,1.90853 -15.81731,1.91151 -21.78453,0.19013c-2.49991,-0.72116 -4.94041,-2.0966 -6.82769,-3.88982c-1.15791,-1.10021 -2.30684,-3.30772 -4.0519,-3.61497c-1.87207,-0.32962 -3.0722,1.80976 -3.88343,3.05902c-2.49261,3.83851 -4.94921,8.03717 -6.49419,12.35677c-0.60738,1.69818 -2.12504,5.41273 -0.11254,6.81977c1.84731,1.29155 5.42369,-0.19951 7.30736,-0.68616c6.5095,-1.68173 12.8248,-3.48383 19.63437,-2.86789c6.26754,0.5669 15.60293,2.93923 20.77586,6.64871c1.60959,1.15423 2.4746,2.92867 4.00053,4.14987c2.07033,1.65689 4.85972,1.8076 7.06893,3.22493c4.18333,2.68384 7.19109,8.36218 9.58228,12.58149c4.62027,8.15259 3.9755,18.18727 3.8306,27.28977c-0.32111,20.17113 -8.61696,39.14954 -18.86621,56.13899c-6.01832,9.97613 -12.11223,18.7971 -21.25074,26.17039c-10.21056,8.23826 -24.05895,17.39007 -37.95054,14.62857c-4.35734,-0.86619 -9.34051,-2.13645 -13.32258,-4.13948c-2.03893,-1.02561 -3.63166,-3.71874 -6.07419,-3.72461c-3.06919,-0.00738 -6.29195,2.51532 -9.09163,3.55717c-4.36072,1.62276 -9.23235,1.73056 -13.62865,0.18248c-8.52426,-3.00167 -14.4253,-9.06377 -20.27816,-15.65445c-5.76889,-6.49612 -11.23833,-13.19054 -15.08347,-21.03812c-4.63637,-9.46242 -7.18418,-20.21901 -9.9621,-30.34546c-2.73887,-9.98411 0.93256,-44.50992 4.22041,-51.68937zM76.84997,151.92303c1.1426,9.3884 10.17669,17.4244 19.34168,11.24732c7.34112,-4.94781 10.99943,-15.74554 12.16371,-24.19249c0.44717,-3.24421 0.58769,-6.63877 -0.7685,-9.69871c-1.71386,-3.86693 -5.89068,-10.28964 -9.8464,-12.12751c-4.26219,-1.98026 -13.0177,2.68179 -15.81985,5.9041c-3.93491,4.52493 -5.55236,24.90913 -5.07064,28.86729zM97.37807,133.44859c1.66485,3.31033 -0.06361,8.87654 -2.88595,11.08199c-3.37345,2.6361 -8.2931,0.78942 -8.95084,-3.49856c-0.24873,-1.62156 7.8275,-15.55537 11.83679,-7.58343zM103.52738,212.94222c1.81018,0.03667 3.09271,-2.06154 4.46064,-2.8939c1.70052,-1.03473 3.65813,-1.1231 5.57346,-0.7781c2.06534,0.37202 3.44158,1.21184 4.59615,2.96772c0.89582,1.36238 1.44508,3.55998 3.4656,3.68028c3.16125,0.18822 5.19928,-3.916 8.09094,-4.723c5.05583,-1.41098 11.53993,11.63254 15.72127,3.54202c0.29709,-0.57484 0.46863,-1.20912 0.63476,-1.8345c1.31998,-4.96887 1.52559,-10.88373 0.24183,-15.85598c-0.51143,-1.98085 -1.20503,-5.59034 -3.62305,-6.18344c-3.86676,-0.94844 -5.16686,5.17848 -9.39454,4.37745c-3.02063,-0.57233 -5.92166,-3.51379 -9.16757,-2.74176c-3.93369,0.93561 -4.51368,6.56324 -8.41351,7.4298c-4.47607,0.99461 -7.89826,-8.49337 -12.69027,-2.40294c-0.39826,0.50617 -0.68715,1.09405 -0.95415,1.68016c-0.68333,1.50004 -2.38836,13.65828 1.45845,13.7362zM139.69069,168.92616c2.95906,1.67251 6.4465,1.00983 9.6043,0.39463c9.46946,-1.84485 14.81387,-7.3449 17.30858,-16.73831c1.59559,-6.00794 1.21989,-18.45027 -4.28466,-22.48252c-3.36222,-2.46294 -7.50469,-2.31248 -11.43604,-1.88795c-10.71155,1.15669 -19.9155,35.78359 -11.19218,40.71416zM144.63281,141.55058c2.39831,-2.24077 8.46753,-2.89295 9.43384,1.07815c0.63545,2.61141 0.37863,7.44038 -1.51741,9.52787c-2.60516,2.8682 -8.1132,2.5828 -9.52081,-1.27387c-0.70529,-1.93239 0.07265,-7.90103 1.60439,-9.33215z" fill="#090909" fill-rule="evenodd"/></svg>
