<svg xmlns="http://www.w3.org/2000/svg" viewBox="0 0 256 256" role="img" aria-hidden="true"><rect x="8" y="8" width="240" height="240" rx="56" fill="#C8FF00"/><!-- Iconic Drills Pack © 2026 Roman Kuzhel, Kyrgyzstan | CC BY 4.0 | https://github.com/roblo3x/iconic-drills-pack --><path d="M43 128C45.16 119.96 59.16 90.6 63 84C66.84 77.4 71.28 74.8 75 73C78.72 71.2 89.68 68.88 94 69C98.32 69.12 107.88 72.56 111 74C114.12 75.44 118.56 80.16 120 81C121.44 81.84 122.64 82.2 123 81C123.36 79.8 123.6 74.36 123 71C122.4 67.64 119.08 55.76 118 53C116.92 50.24 115.8 48.72 114 48C112.2 47.28 104.8 47.84 103 47C101.2 46.16 98.52 42.8 99 41C99.48 39.2 105.32 33.08 107 32C108.68 30.92 111.2 31.52 113 32C114.8 32.48 120.2 34.68 122 36C123.8 37.32 126.68 40.48 128 43C129.32 45.52 131.92 55.32 133 57C134.08 58.68 135.8 58.32 137 57C138.2 55.68 139.88 49.6 143 46C146.12 42.4 159.88 29.52 163 27C166.12 24.48 166.36 25.24 169 25C171.64 24.76 182 24.64 185 25C188 25.36 190.76 27.64 194 28C197.24 28.36 209.84 26.92 212 28C214.16 29.08 212.6 35.2 212 37C211.4 38.8 207.96 41.32 207 43C206.04 44.68 206.28 48.24 204 51C201.72 53.76 190.76 63.84 188 66C185.24 68.16 184 68.64 181 69C178 69.36 166.12 69.48 163 69C159.88 68.52 156.32 65.96 155 65C153.68 64.04 152.72 61.48 152 61C151.28 60.52 150.32 59.32 149 61C147.68 62.68 142.08 72.24 141 75C139.92 77.76 137.96 83.4 140 84C142.04 84.6 154.4 80.48 158 80C161.6 79.52 166.4 79.28 170 80C173.6 80.72 185.36 84.68 188 86C190.64 87.32 190.56 90.04 192 91C193.44 91.96 198.08 92.32 200 94C201.92 95.68 206.56 102.48 208 105C209.44 107.52 211.52 110.44 212 115C212.48 119.56 213.08 136.04 212 143C210.92 149.96 206.48 165.44 203 173C199.52 180.56 187.8 200 183 206C178.2 212 166.96 220.24 163 223C159.04 225.76 153.12 228.04 150 229C146.88 229.96 140.6 231.36 137 231C133.4 230.64 122.52 227.08 120 226C117.48 224.92 117.92 221.88 116 222C114.08 222.12 106.64 226.4 104 227C101.36 227.6 96.76 227.84 94 227C91.24 226.16 84.6 223.12 81 220C77.4 216.88 67.12 205.2 64 201C60.88 196.8 57.28 191 55 185C52.72 179 46.44 157.84 45 151C43.56 144.16 40.84 136.04 43 128ZM77 142C76.52 145.48 76.64 150.72 77 153C77.36 155.28 78.8 159.56 80 161C81.2 162.44 85.44 164.52 87 165C88.56 165.48 91.44 165.6 93 165C94.56 164.4 98.68 161.44 100 160C101.32 158.56 103.04 155.28 104 153C104.96 150.72 107.52 143.76 108 141C108.48 138.24 109.2 132.88 108 130C106.8 127.12 100.04 118.44 98 117C95.96 115.56 93.04 117.16 91 118C88.96 118.84 82.68 121.12 81 124C79.32 126.88 77.48 138.52 77 142ZM86 137C86.48 135.56 88.92 131.72 90 131C91.08 130.28 94.04 130.52 95 131C95.96 131.48 97.88 133.56 98 135C98.12 136.44 96.84 141.68 96 143C95.16 144.32 92.2 146 91 146C89.8 146 86.6 144.08 86 143C85.4 141.92 85.52 138.44 86 137ZM101 203C100.76 205.04 101.52 211.8 102 213C102.48 214.2 104.16 213.48 105 213C105.84 212.52 107.56 209.36 109 209C110.44 208.64 115.68 209.16 117 210C118.32 210.84 119.28 215.28 120 216C120.72 216.72 121.92 216.6 123 216C124.08 215.4 127.8 211.6 129 211C130.2 210.4 131.8 210.28 133 211C134.2 211.72 137.68 216.28 139 217C140.32 217.72 143.16 217.48 144 217C144.84 216.52 145.64 214.92 146 213C146.36 211.08 147.24 203.64 147 201C146.76 198.36 144.84 192.2 144 191C143.16 189.8 141.08 190.4 140 191C138.92 191.6 136.92 195.88 135 196C133.08 196.12 126.16 191.52 124 192C121.84 192.48 118.32 199.04 117 200C115.68 200.96 113.84 200.48 113 200C112.16 199.52 111.08 196.48 110 196C108.92 195.52 105.08 195.16 104 196C102.92 196.84 101.24 200.96 101 203ZM131 144C130.52 146.28 130.64 151.72 131 154C131.36 156.28 132.68 161.08 134 163C135.32 164.92 139 169.64 142 170C145 170.36 156 168.28 159 166C162 163.72 166.28 154.96 167 151C167.72 147.04 166.2 135.76 165 133C163.8 130.24 159.88 128.36 157 128C154.12 127.64 143.64 129.16 141 130C138.36 130.84 136.2 133.32 135 135C133.8 136.68 131.48 141.72 131 144ZM143 145C143.24 143.8 143.92 141.6 145 141C146.08 140.4 150.92 139.88 152 140C153.08 140.12 153.88 140.56 154 142C154.12 143.44 153.96 150.56 153 152C152.04 153.44 147.2 154.12 146 154C144.8 153.88 143.36 152.08 143 151C142.64 149.92 142.76 146.2 143 145Z" fill="#090909" fill-rule="evenodd"/></svg>
