<svg xmlns="http://www.w3.org/2000/svg" viewBox="0 0 256 256" role="img" aria-hidden="true"><rect x="8" y="8" width="240" height="240" rx="56" fill="#C8FF00"/><!-- Iconic Drills Pack © 2026 Roman Kuzhel, Kyrgyzstan | CC BY 4.0 | https://github.com/roblo3x/iconic-drills-pack --><path d="M116 130L106 145L103 148L99 147L93 132L85 120L82 107L82 94L79 94L75 106L75 118L95 159L95 166L90 181L83 193L76 200L76 203L79 203L95 189L104 165L119 140L133 126L143 121L157 108L167 89L172 70L180 56L189 47L189 43L181 46L169 58L162 71L158 87L150 101L131 117L127 118ZM95 209L74 222L50 232L43 231L40 226L41 213L55 206L64 198L69 190L69 184L57 165L48 138L48 125L51 113L62 96L66 86L81 66L102 60L123 41L131 38L148 36L166 29L187 29L196 25L204 26L207 32L205 55L213 66L216 75L217 104L207 125L192 142L191 156L193 160L193 170L189 180L176 197L154 207L140 209L99 207Z" fill="#090909" fill-rule="evenodd"/></svg>
