<svg xmlns="http://www.w3.org/2000/svg" viewBox="0 0 256 256" role="img" aria-hidden="true"><rect x="8" y="8" width="240" height="240" rx="56" fill="#C8FF00"/><!-- Iconic Drills Pack © 2026 Roman Kuzhel, Kyrgyzstan | CC BY 4.0 | https://github.com/roblo3x/iconic-drills-pack --><path d="M24 124C24.36 117.52 27.12 108 30 102C32.88 96 43.32 79.88 48 74C52.68 68.12 64.56 56.12 69 53C73.44 49.88 82.12 48.12 85 48C87.88 47.88 91.2 50.2 93 52C94.8 53.8 99.28 60.36 100 63C100.72 65.64 100.32 70.16 99 74C97.68 77.84 90.8 90.44 89 95C87.2 99.56 84.72 107.2 84 112C83.28 116.8 82.64 130.44 83 135C83.36 139.56 85.32 146.88 87 150C88.68 153.12 94.12 158.96 97 161C99.88 163.04 106.44 166.16 111 167C115.56 167.84 130.68 168.48 135 168C139.32 167.52 144.24 164.56 147 163C149.76 161.44 155.24 157.52 158 155C160.76 152.48 167.72 145.96 170 142C172.28 138.04 176.16 127.04 177 122C177.84 116.96 177.48 104.2 177 100C176.52 95.8 174.08 89.16 173 87C171.92 84.84 170.04 83.2 168 82C165.96 80.8 159.36 78.92 156 77C152.64 75.08 142.52 68.52 140 66C137.48 63.48 135.12 57.92 135 56C134.88 54.08 136.72 52.04 139 50C141.28 47.96 151.48 40.68 154 39C156.52 37.32 158.56 36.36 160 36C161.44 35.64 164.68 35.52 166 36C167.32 36.48 168.6 36.64 171 40C173.4 43.36 181.8 59.32 186 64C190.2 68.68 201.92 75.28 206 79C210.08 82.72 217.24 90.92 220 95C222.76 99.08 227.56 109.28 229 113C230.44 116.72 231.64 123.12 232 126C232.36 128.88 232.36 134 232 137C231.64 140 230.44 147.16 229 151C227.56 154.84 222.4 165.04 220 169C217.6 172.96 212.36 180.28 209 184C205.64 187.72 195.96 196.88 192 200C188.04 203.12 180.08 207.96 176 210C171.92 212.04 161.84 215.8 158 217C154.16 218.2 148.92 219.64 144 220C139.08 220.36 122.64 220.48 117 220C111.36 219.52 102.4 217.8 97 216C91.6 214.2 78.72 209.2 72 205C65.28 200.8 45.68 185.2 41 181C36.32 176.8 34.68 173 33 170C31.32 167 28.08 161.52 27 156C25.92 150.48 23.64 130.48 24 124Z" fill="#090909" fill-rule="evenodd"/></svg>
