<svg xmlns="http://www.w3.org/2000/svg" viewBox="0 0 256 256" role="img" aria-hidden="true"><rect x="8" y="8" width="240" height="240" rx="56" fill="#C8FF00"/><!-- Iconic Drills Pack © 2026 Roman Kuzhel, Kyrgyzstan | CC BY 4.0 | https://github.com/roblo3x/iconic-drills-pack --><path d="M41.03728,91.02597c9.13072,-1.84063 18.48363,-2.1772 27.60933,-4.19974c12.95315,-2.87083 25.56459,-7.55895 38.14322,-11.72553c24.57895,-8.1416 49.03026,-17.27512 74.03132,-24.04435c7.05891,-1.91126 14.19143,-3.62582 21.39249,-4.91279c3.02775,-0.54112 6.75151,-1.56906 9.81482,-0.80445c7.24155,1.8075 4.60144,13.87633 7.27412,19.03493c2.15252,4.15463 5.01847,7.80069 6.7497,12.18988c5.48691,13.91092 6.23518,28.41695 5.92077,43.16842c-0.14036,6.58557 -0.02679,13.39931 -1.1049,19.91336c-0.98129,5.92902 -3.6087,11.40915 -6.05257,16.84378c-6.31844,14.0508 -15.4115,26.44745 -28.02648,35.61648c-17.00699,12.3613 -39.83096,17.33358 -60.3913,17.98229c-6.58199,0.20767 -13.39387,0.59114 -19.92324,-0.44295c-28.76558,-4.55575 -57.83855,-22.7952 -74.06481,-46.74191c-8.00778,-11.81788 -13.01588,-24.45483 -16.47308,-38.24424c-1.77018,-7.06055 7.00297,-32.00082 15.1006,-33.63319zM43.81056,124.27295c6.35662,14.48361 15.88455,28.39663 29.32903,37.25426c8.1797,5.38904 17.2292,10.8092 26.47534,14.12255c12.71439,4.5562 26.01465,5.86271 39.42043,5.88063c7.25125,0.00969 14.82754,0.33139 21.99883,-0.88835c14.85788,-2.52713 27.57384,-10.06946 38.26444,-20.35435c7.56885,-7.28161 15.2942,-18.16804 17.82664,-28.5865c1.35386,-5.56979 -3.72607,-3.93241 -6.07278,-1.32963c-6.73616,7.47123 -11.99018,16.09144 -20.45293,21.82796c-19.37503,13.13346 -42.33848,15.9746 -65.21969,13.93866c-25.0714,-2.23082 -44.89062,-16.05119 -61.9823,-33.51028c-5.10512,-5.21486 -8.93535,-11.76005 -11.89813,-18.40523c-1.08911,-2.44274 -1.13227,-7.17232 -3.3185,-8.86918c-2.54131,-1.97245 -6.62036,13.79284 -4.37038,18.91944zM108.59128,119.41944c6.66245,-2.18387 7.0015,-11.83612 6.55643,-17.45442c-0.14644,-1.84856 -0.22294,-4.10733 -1.29242,-5.71667c-1.48451,-2.23386 -4.4615,-2.4665 -6.63925,-1.16927c-4.05805,2.41728 -7.41753,27.22253 1.37524,24.34036zM136.91683,115.51737c1.99664,5.22901 7.55453,7.30178 12.6599,4.51845c2.43173,-1.32573 2.78106,-4.10791 2.89551,-6.60262c0.28804,-6.27841 -3.13896,-15.52136 -7.42701,-20.19039c-4.98626,-5.42927 -10.5036,16.05415 -8.1284,22.27456zM175.51974,94.74468c2.2461,0.49395 5.46593,0.8684 7.40669,-0.70757c1.48868,-1.20887 1.92468,-3.34347 2.13735,-5.12852c0.95759,-8.03743 -5.88932,-10.71579 -12.52211,-11.59933c-3.26089,-0.43438 -3.65802,15.97605 2.97808,17.43542z" fill="#090909" fill-rule="evenodd"/></svg>
