<svg xmlns="http://www.w3.org/2000/svg" viewBox="0 0 256 256" role="img" aria-hidden="true"><rect x="8" y="8" width="240" height="240" rx="56" fill="#0AF40B"/><path d="M222 161L216 173L201 189L177 202L145 210L119 210L109 208L78 195L60 183L49 172L38 156L30 139L24 116L24 103L30 95L41 91L76 85L174 53L211 45L217 52L218 62L227 79L232 104L231 139ZM99 107L99 117L103 120L110 119L115 110L114 96L107 95L102 100ZM169 77L165 80L167 88L175 95L183 94L185 91L184 83L180 79ZM135 107L136 114L140 120L148 121L151 119L152 108L144 92L137 92ZM183 156L171 162L154 166L124 166L101 160L77 146L61 130L51 113L49 105L42 105L40 107L43 123L56 145L75 163L98 175L117 180L136 182L158 181L178 175L195 165L206 153L217 132L217 128L213 128L197 147Z" fill="#090909" fill-rule="evenodd"/></svg>
