<svg xmlns="http://www.w3.org/2000/svg" viewBox="0 0 256 256" role="img" aria-hidden="true"><rect x="8" y="8" width="240" height="240" rx="56" fill="#C8FF00"/><!-- Iconic Drills Pack © 2026 Roman Kuzhel, Kyrgyzstan | CC BY 4.0 | https://github.com/roblo3x/iconic-drills-pack --><path d="M24 179C24.36 174.08 27.04 151.76 28 146C28.96 140.24 30.8 134.48 32 131C33.2 127.52 36.08 120.36 38 117C39.92 113.64 42.72 108.04 48 103C53.28 97.96 74.8 79.68 82 75C89.2 70.32 102.84 66.52 108 64C113.16 61.48 119.84 56.28 125 54C130.16 51.72 145.72 46.2 151 45C156.28 43.8 165.4 43.88 169 44C172.6 44.12 178.36 45.4 181 46C183.64 46.6 187.88 47.56 191 49C194.12 50.44 203.52 55.24 207 58C210.48 60.76 217.6 68.88 220 72C222.4 75.12 225.68 81.12 227 84C228.32 86.88 230.4 92.16 231 96C231.6 99.84 232.6 111.44 232 116C231.4 120.56 232.12 127.4 226 134C219.88 140.6 190.48 163.68 181 171C171.52 178.32 154.32 190.32 147 195C139.68 199.68 126.48 208.08 120 210C113.52 211.92 98.04 211.48 93 211C87.96 210.52 84.48 207.44 78 206C71.52 204.56 45 200.68 39 199C33 197.32 29.68 193.44 28 192C26.32 190.56 25.48 188.56 25 187C24.52 185.44 23.64 183.92 24 179ZM42 169C41.4 171.76 41.64 175.56 42 177C42.36 178.44 37.44 179.2 45 181C52.56 182.8 97.32 191.16 105 192C112.68 192.84 108.28 189.56 109 188C109.72 186.44 110.52 182.72 111 179C111.48 175.28 113 161.8 113 157C113 152.2 112.44 142.72 111 139C109.56 135.28 102.44 128.28 101 126C99.56 123.72 100.08 121.44 99 120C97.92 118.56 93.68 114.96 92 114C90.32 113.04 88 112 85 112C82 112 70 113.28 67 114C64 114.72 62.04 115.96 60 118C57.96 120.04 51.56 128.48 50 131C48.44 133.52 47.36 136.24 47 139C46.64 141.76 47.6 150.4 47 154C46.4 157.6 42.6 166.24 42 169ZM113 77C111.68 77.24 111.44 79.04 113 80C114.56 80.96 123 83.44 126 85C129 86.56 135.96 91.32 138 93C140.04 94.68 142.04 98.28 143 99C143.96 99.72 145.76 99.72 146 99C146.24 98.28 146.56 95.04 145 93C143.44 90.96 135.52 83.8 133 82C130.48 80.2 126.4 78.6 124 78C121.6 77.4 114.32 76.76 113 77ZM163 61C162.16 61.36 161.32 63.04 163 64C164.68 64.96 174.36 67.44 177 69C179.64 70.56 183.68 76.04 185 77C186.32 77.96 187.76 77.6 188 77C188.24 76.4 187.84 73.32 187 72C186.16 70.68 183.04 67.32 181 66C178.96 64.68 172.16 61.6 170 61C167.84 60.4 163.84 60.64 163 61Z" fill="#090909" fill-rule="evenodd"/></svg>
