<svg xmlns="http://www.w3.org/2000/svg" viewBox="0 0 256 256" role="img" aria-hidden="true"><rect x="8" y="8" width="240" height="240" rx="56" fill="#C8FF00"/><!-- Iconic Drills Pack © 2026 Roman Kuzhel, Kyrgyzstan | CC BY 4.0 | https://github.com/roblo3x/iconic-drills-pack --><path d="M31.63146,120.12389c2.30052,-6.68491 -0.58002,-14.87106 0.2632,-21.8257c0.96355,-7.94705 6.31867,-19.34755 12.56256,-24.47059c5.5794,-4.57783 14.72884,-8.19798 21.73313,-9.78632c8.54417,-1.93754 18.10765,0.95414 21.45026,9.70332c1.63436,4.27789 -0.27484,11.92466 5.71436,13.19007c9.54326,2.01632 15.46999,-6.0865 22.98335,-9.977c4.37032,-2.263 10.93186,-1.99504 15.53061,-0.44663c5.08118,1.71084 10.04914,8.1022 10.30476,13.43659c0.18772,3.91756 -1.022,8.01736 1.08632,11.63888c2.34402,4.02638 8.11248,4.55535 12.31952,4.35402c1.97734,-0.09462 3.94382,-0.49511 5.73111,-1.37165c5.73206,-2.81119 9.09419,-10.15671 12.26695,-15.36737c7.27174,-11.94244 13.87259,-24.2879 21.19668,-36.19583c3.23229,-5.25525 9.06981,-17.07137 16.71064,-12.81759c2.32823,1.29616 5.54979,4.26262 4.97979,7.25983c-0.75839,3.98779 -5.23974,8.26162 -7.59482,11.44685c-6.73011,9.10242 -13.5985,18.09944 -19.93789,27.48238c-2.16116,3.19874 -4.88392,6.49732 -6.423,10.05336c-0.41954,0.96935 -1.33225,3.61184 -0.0492,4.47401c1.23143,0.82748 3.26578,-1.69233 3.86281,-2.2953c2.33913,-2.3624 4.53226,-4.88398 6.76638,-7.34488c6.71305,-7.39446 13.37184,-14.83916 20.15228,-22.17216c2.75987,-2.98478 6.12829,-7.98391 10.0582,-9.44739c4.06249,-1.51286 7.96733,4.60292 9.2027,7.73927c1.65651,4.20555 -7.30123,10.30645 -9.95208,12.82399c-8.20748,7.79474 -16.48684,15.51339 -24.70458,23.29727c-3.28862,3.115 -9.16982,7.00472 -11.01024,11.21995c-0.91816,2.10292 2.46521,3.52621 3.65889,4.6539c2.44395,2.30884 3.92348,5.28569 4.32127,8.6331c0.61993,5.21674 -2.45196,10.42569 -4.3101,15.12203c-0.84641,2.13925 -2.35526,5.06965 -1.58266,7.44156c0.81521,2.50272 3.98182,3.17691 6.07952,4.09356c3.08388,1.34759 5.72581,3.27599 7.82968,5.92436c10.30467,12.97166 3.26954,33.07468 -9.44473,41.80963c-8.21684,5.64513 -19.01834,6.50035 -28.75865,5.42225c-3.70807,-0.41042 -7.99024,-2.32729 -11.72587,-1.55693c-5.32911,1.09897 -5.95619,8.48487 -11.34881,9.55172c-4.40049,0.87057 -9.45033,0.28158 -13.92179,0.29415c-9.98653,0.02808 -19.97605,-0.00038 -29.9606,-0.21699c-6.07757,-0.13185 -14.10876,0.75637 -19.72488,-1.93395c-4.36943,-2.09311 -5.38218,-7.26217 -9.51869,-9.64065c-5.18941,-2.98389 -11.30533,-4.03783 -16.34903,-7.34984c-11.54008,-7.57796 -16.04488,-20.9937 -20.81492,-33.22662c-3.78725,-9.71253 -1.1793,-39.12774 0.36758,-43.62269zM45.55809,106.97305c-0.8337,6.02962 1.99596,7.38177 7.49354,6.46009c5.56339,-0.93271 12.04606,-3.48059 17.60911,-1.5187c7.14246,2.51889 10.39328,10.50084 19.04996,8.28058c4.53882,-1.16412 7.73993,-5.10269 11.7777,-7.25126c4.36831,-2.32445 10.78953,-2.7695 15.50245,-1.30704c9.75823,3.02807 9.22345,16.64669 18.79152,19.08131c5.4137,1.37753 12.76266,-0.45122 16.07886,-5.00472c0.89865,-1.23394 2.48433,-3.29531 2.28915,-4.96789c-0.28518,-2.44382 -4.61562,-1.27902 -6.01212,-1.12133c-5.41817,0.61184 -10.62875,-0.05344 -14.47503,-4.36704c-2.5583,-2.86913 -4.47118,-6.85119 -4.63575,-10.71186c-0.16664,-3.90942 0.96916,-8.06468 -3.04746,-10.47884c-4.89986,-2.94502 -10.48831,0.08419 -14.6185,2.85812c-6.50678,4.3701 -11.67978,8.10015 -19.85447,7.70821c-6.61607,-0.31721 -13.01418,-3.97461 -15.62186,-10.34661c-1.46961,-3.59108 -0.01137,-8.01448 -3.21206,-10.83803c-3.84293,-3.39012 -8.90801,-1.1632 -12.70011,0.99017c-8.27209,4.69736 -14.18614,20.88004 -14.41495,22.53485zM53.35189,140.20382c5.70016,3.9348 14.57375,4.11395 21.22394,5.19436c17.48586,2.8408 35.81669,7.1579 53.57286,7.22776c8.65649,0.03405 17.34444,-1.41973 25.8584,-2.84502c8.71419,-1.45881 17.29652,-3.16084 22.52036,-11.00378c1.41733,-2.12794 2.87778,-4.56904 2.64713,-7.24045c-0.42397,-4.91055 -6.56882,-6.6429 -10.22989,-3.97335c-4.23509,3.08811 -6.6112,8.48422 -10.42694,12.06689c-5.25348,4.93258 -15.33834,7.8704 -22.37618,6.29078c-4.21307,-0.94561 -9.39441,-2.86152 -12.05944,-6.43281c-3.71259,-4.97507 -4.38148,-11.1079 -11.04082,-13.34668c-8.01877,-2.6958 -14.14382,6.78318 -21.32868,8.68919c-5.12438,1.3594 -12.96284,0.69297 -17.27504,-2.55022c-2.60453,-1.95885 -4.44466,-5.02415 -7.74616,-5.93166c-5.94373,-1.6338 -16.74604,11.50349 -13.33952,13.855zM166.78407,191.28982c1.66741,2.30965 8.62061,1.23245 11.00307,0.93104c7.66652,-0.96991 18.09511,-15.44375 11.90226,-22.55895c-2.05843,-2.36501 -7.09405,-5.23304 -10.22491,-3.5788c-2.19986,1.16233 -3.46677,4.05878 -4.61495,6.1165c-2.88597,5.17209 -9.10092,17.65594 -8.06547,19.09021z" fill="#090909" fill-rule="evenodd"/></svg>
