<svg xmlns="http://www.w3.org/2000/svg" viewBox="0 0 256 256" role="img" aria-hidden="true"><rect x="8" y="8" width="240" height="240" rx="56" fill="#C8FF00"/><!-- Iconic Drills Pack © 2026 Roman Kuzhel, Kyrgyzstan | CC BY 4.0 | https://github.com/roblo3x/iconic-drills-pack --><path d="M24 129C24.96 126.72 31.04 123.84 32 120C32.96 116.16 31.04 101.92 32 97C32.96 92.08 38.2 82 40 79C41.8 76 43.88 73.8 47 72C50.12 70.2 62.4 64.96 66 64C69.6 63.04 74.96 63.64 77 64C79.04 64.36 81.68 65.8 83 67C84.32 68.2 87.28 72.08 88 74C88.72 75.92 88.52 81.44 89 83C89.48 84.56 90.32 86.64 92 87C93.68 87.36 99.88 87.32 103 86C106.12 84.68 114.76 77.2 118 76C121.24 74.8 127.96 75.76 130 76C132.04 76.24 133.56 76.68 135 78C136.44 79.32 141.16 84.48 142 87C142.84 89.52 141.4 96.84 142 99C142.6 101.16 144.24 104.64 147 105C149.76 105.36 159.12 108.48 165 102C170.88 95.52 191.08 58.56 196 51C200.92 43.44 203.96 40.2 206 39C208.04 37.8 211.8 40.28 213 41C214.2 41.72 215.64 44.04 216 45C216.36 45.96 218.64 44.92 216 49C213.36 53.08 198.08 73.24 194 79C189.92 84.76 183.44 94.48 182 97C180.56 99.52 181.64 99.64 182 100C182.36 100.36 180.32 104.68 185 100C189.68 95.32 215.84 65.68 221 61C226.16 56.32 226.68 60.28 228 61C229.32 61.72 231.64 65.68 232 67C232.36 68.32 236.28 66.48 231 72C225.72 77.52 193.16 107.6 188 113C182.84 118.4 187.4 115.92 188 117C188.6 118.08 192.16 120.32 193 122C193.84 123.68 195.48 128 195 131C194.52 134 189.72 144.48 189 147C188.28 149.52 187.92 150.92 189 152C190.08 153.08 196.2 154.8 198 156C199.8 157.2 202.8 160.08 204 162C205.2 163.92 207.52 169.96 208 172C208.48 174.04 208.84 176.24 208 179C207.16 181.76 202.68 192.24 201 195C199.32 197.76 196.04 200.56 194 202C191.96 203.44 187.36 206.28 184 207C180.64 207.72 169.84 208.12 166 208C162.16 207.88 154.52 205.28 152 206C149.48 206.72 146.56 212.8 145 214C143.44 215.2 146.68 215.88 139 216C131.32 216.12 89.28 216.32 81 215C72.72 213.68 73.48 207.16 70 205C66.52 202.84 55.6 199.52 52 197C48.4 194.48 42.88 189.04 40 184C37.12 178.96 29.92 160.4 28 155C26.08 149.6 24.48 142.12 24 139C23.52 135.88 23.04 131.28 24 129ZM46 105C45.52 107.64 44.48 113.28 47 114C49.52 114.72 63.64 111 67 111C70.36 111 73.2 112.92 75 114C76.8 115.08 80.08 119.28 82 120C83.92 120.72 88.48 120.96 91 120C93.52 119.04 100.12 113.08 103 112C105.88 110.92 112.6 110.64 115 111C117.4 111.36 121.2 113.08 123 115C124.8 116.92 128.44 125.08 130 127C131.56 128.92 134.08 130.64 136 131C137.92 131.36 144.32 130.36 146 130C147.68 129.64 149.04 128.96 150 128C150.96 127.04 153.52 123.08 154 122C154.48 120.92 155.44 119.24 154 119C152.56 118.76 144.4 120.36 142 120C139.6 119.64 135.56 117.56 134 116C132.44 114.44 129.6 109.28 129 107C128.4 104.72 129.6 98.68 129 97C128.4 95.32 125.56 93.36 124 93C122.44 92.64 118.88 92.68 116 94C113.12 95.32 103.6 102.8 100 104C96.4 105.2 88.64 104.72 86 104C83.36 103.28 79.32 99.44 78 98C76.68 96.56 75.36 93.44 75 92C74.64 90.56 75.48 87.2 75 86C74.52 84.8 72.2 82.48 71 82C69.8 81.52 66.8 81.4 65 82C63.2 82.6 57.68 85.8 56 87C54.32 88.2 52.2 89.84 51 92C49.8 94.16 46.48 102.36 46 105ZM49 132C48.52 133.32 49.56 136.68 51 138C52.44 139.32 52.84 141.32 61 143C69.16 144.68 109.76 150.92 119 152C128.24 153.08 132.72 152.48 138 152C143.28 151.52 158.8 149.08 163 148C167.2 146.92 171.08 144.68 173 143C174.92 141.32 178.4 135.8 179 134C179.6 132.2 178.84 128.96 178 128C177.16 127.04 173.2 126 172 126C170.8 126 169.8 126.2 168 128C166.2 129.8 159.88 138.84 157 141C154.12 143.16 146.52 145.4 144 146C141.48 146.6 138.28 146.6 136 146C133.72 145.4 127.04 142.92 125 141C122.96 139.08 120.44 131.8 119 130C117.56 128.2 114.44 126.48 113 126C111.56 125.52 109.52 124.92 107 126C104.48 127.08 95.6 134.04 92 135C88.4 135.96 79.76 134.96 77 134C74.24 133.04 70.44 127.96 69 127C67.56 126.04 66.68 126 65 126C63.32 126 56.92 126.28 55 127C53.08 127.72 49.48 130.68 49 132ZM167 188C165.56 191.12 165.56 191.52 167 192C168.44 192.48 177.08 192.24 179 192C180.92 191.76 181.56 191.56 183 190C184.44 188.44 190.04 181.16 191 179C191.96 176.84 191.24 173.2 191 172C190.76 170.8 190.44 169.72 189 169C187.56 168.28 181.64 163.72 179 166C176.36 168.28 168.44 184.88 167 188Z" fill="#090909" fill-rule="evenodd"/></svg>
