<svg xmlns="http://www.w3.org/2000/svg" viewBox="0 0 256 256" role="img" aria-hidden="true"><rect x="8" y="8" width="240" height="240" rx="56" fill="#0AF40B"/><path d="M106 80L101 89L101 97L108 107L122 109L134 102L138 93L138 85L134 77L125 73L114 73ZM95 135L84 138L77 145L74 153L74 161L77 168L88 174L102 171L109 164L112 156L112 147L109 141L102 136ZM225 119L213 130L207 131L204 135L196 138L187 146L159 160L127 182L111 190L94 202L84 206L80 210L75 211L42 230L36 232L29 232L27 230L27 220L42 175L72 101L82 71L90 56L89 34L94 26L98 24L108 24L123 27L157 43L195 65L228 106L228 115ZM150 134L157 138L171 135L176 130L178 124L178 118L175 112L167 108L153 111L147 121L147 130Z" fill="#090909" fill-rule="evenodd"/></svg>
