<svg xmlns="http://www.w3.org/2000/svg" viewBox="0 0 256 256" role="img" aria-hidden="true"><rect x="8" y="8" width="240" height="240" rx="56" fill="#0AF40B"/><!-- Iconic Drills Pack © 2026 Roman Kuzhel, Kyrgyzstan | CC BY 4.0 | https://github.com/roblo3x/iconic-drills-pack --><path d="M184 182L215 173L220 176L222 180L218 196L210 204L194 211L148 219L121 220L70 214L44 202L35 190L36 176L43 170L62 181L88 188L137 188ZM31 102L31 97L38 81L56 59L70 51L102 39L132 36L173 43L190 51L204 65L215 80L219 92L220 109L218 115L213 120L200 124L130 131L87 131L47 126L39 122L31 114ZM51 169L45 168L32 161L26 155L24 148L27 140L32 135L45 129L51 131L54 145L65 151L75 151L105 139L112 139L144 155L153 155L163 151L176 138L193 137L204 134L212 129L217 123L227 126L232 132L227 142L214 146L214 149L218 152L219 159L217 165L208 172L166 177L118 179L75 175ZM145 94L151 93L151 87L147 84L142 85L140 89L140 92ZM124 66L120 69L120 74L128 76L131 73L131 69L129 66ZM175 89L177 94L184 94L186 92L186 86L183 84L178 84ZM85 69L80 72L82 78L88 78L92 74L90 68ZM167 66L159 67L161 75L168 75L170 73L170 69Z" fill="#090909" fill-rule="evenodd"/></svg>
