<svg xmlns="http://www.w3.org/2000/svg" viewBox="0 0 256 256" role="img" aria-hidden="true"><rect x="8" y="8" width="240" height="240" rx="56" fill="#C8FF00"/><!-- Iconic Drills Pack © 2026 Roman Kuzhel, Kyrgyzstan | CC BY 4.0 | https://github.com/roblo3x/iconic-drills-pack --><path d="M47.55649,129.1458c6.57341,1.0774 3.95275,10.69882 6.2805,14.99427c2.04384,3.77154 7.71134,5.8778 11.61709,6.92171c10.77008,2.87858 24.11732,-5.93845 33.84163,-9.87524c2.85227,-1.15471 6.21699,-2.98717 9.36953,-2.93298c4.29896,0.07391 8.89014,3.64882 12.50059,5.68669c8.76516,4.94739 17.07967,10.48591 27.41989,11.01936c5.36038,0.27654 10.63723,-0.98692 14.84913,-4.45784c4.08392,-3.36546 6.74948,-8.32991 11.13645,-11.3515c3.88379,-2.67501 8.99365,-2.0903 13.46217,-2.07215c4.72468,0.0192 9.20718,-0.73933 13.67932,-2.28394c3.65818,-1.26347 7.45722,-3.22049 10.24112,-5.95873c1.72006,-1.69185 2.89831,-4.56375 5.36728,-5.33081c4.54849,-1.41313 13.2968,3.25093 14.25485,7.99203c1.2605,6.2378 -4.97132,11.1094 -10.09858,12.51089c-1.94883,0.5327 -5.70514,0.73984 -6.98914,2.56936c-1.51706,2.1616 3.25023,5.20275 3.91892,7.14782c1.47159,4.28057 0.20551,9.60302 -2.75339,12.94823c-7.91441,8.94771 -25.06151,8.03319 -35.9493,9.13221c-34.54481,3.48697 -69.0697,4.5117 -103.45874,-0.70944c-13.53671,-2.05522 -25.84342,-4.56562 -38.14766,-10.79198c-7.52524,-3.80803 -0.70213,-36.82331 9.45835,-35.15798zM57.57884,57.6967c6.17265,-4.90779 14.26013,-7.57271 21.49721,-10.48991c15.78812,-6.36406 31.16012,-11.04113 48.34216,-11.2777c9.29732,-0.12801 18.63636,1.78438 27.75135,3.42596c9.80661,1.76614 19.86342,3.28115 28.78139,7.966c7.20001,3.78236 12.75555,9.47992 18.13402,15.47663c5.16484,5.75852 10.79488,12.30626 13.96791,19.4226c3.46522,7.77167 4.28163,17.04999 3.95075,25.48597c-0.64831,16.52862 -21.23046,16.53675 -33.28893,17.85537c-2.65163,0.28996 -5.30387,0.57435 -7.95649,0.85513c-38.77161,4.10405 -76.80532,7.12601 -115.66873,2.18696c-14.33646,-1.82198 -19.77737,-59.56371 -5.51064,-70.90701zM44.01887,170.54721c3.58471,0.68994 6.55763,4.8635 9.65271,6.67463c5.64083,3.30081 12.2794,5.60815 18.50725,7.51868c17.37653,5.33064 37.73615,3.62039 55.73272,3.4398c18.91696,-0.18983 39.22724,-1.32752 57.66984,-5.78627c7.12592,-1.72279 14.03231,-4.33392 20.95352,-6.72008c2.8902,-0.99642 6.41539,-2.74391 9.5425,-2.54182c4.58736,0.29647 6.04296,7.15319 5.84043,10.81803c-1.17014,21.17369 -23.45444,25.67645 -39.95813,29.33483c-27.18445,6.026 -53.69781,7.83963 -81.44735,5.30978c-11.28342,-1.02868 -22.68405,-1.81486 -33.44341,-5.59911c-10.91491,-3.83896 -28.09142,-9.62236 -31.76159,-22.10722c-1.10032,-3.74298 2.95637,-21.44894 8.71152,-20.34126zM91.93991,73.27505c0.77728,-8.37786 -0.7882,8.49562 0,0zM120.53424,74.48641c2.22931,2.85423 8.30144,2.67611 10.00264,-0.67308c3.62015,-7.12708 -11.72119,-1.52722 -10.00264,0.67308zM140.95803,92.78055c2.05451,2.63851 8.92423,2.22826 10.42389,-0.89663c2.3334,-4.86218 -3.81499,-9.3224 -8.14072,-7.47153c-2.16572,0.92666 -3.66712,6.59081 -2.28317,8.36816zM169.50528,73.73883c4.81032,-6.39027 -4.77153,6.33873 0,0zM176.63128,93.35317c2.60033,2.49645 8.45792,1.51457 9.56422,-2.03848c2.47728,-7.95618 -11.6116,0.0729 -9.56422,2.03848z" fill="#090909" fill-rule="evenodd"/></svg>
