<svg xmlns="http://www.w3.org/2000/svg" viewBox="0 0 256 256" role="img" aria-hidden="true"><rect x="8" y="8" width="240" height="240" rx="56" fill="#C8FF00"/><!-- Iconic Drills Pack © 2026 Roman Kuzhel, Kyrgyzstan | CC BY 4.0 | https://github.com/roblo3x/iconic-drills-pack --><path d="M25.95307,161.12196c2.26032,-18.48296 5.97868,-37.21837 17.25662,-52.59046c4.32983,-5.90166 10.25134,-10.52746 15.78761,-15.24044c7.06703,-6.01611 14.1598,-12.28629 21.85566,-17.49524c10.01771,-6.78049 22.37105,-8.61913 32.61514,-14.98513c12.06291,-7.49628 26.2893,-14.3454 40.55476,-16.30062c30.06445,-4.12063 59.31859,11.14708 72.50979,38.51215c5.9528,12.34907 8.78198,31.82019 3.3398,44.8747c-2.08725,5.00683 -6.25804,8.55533 -10.25592,12.02813c-6.54291,5.68358 -13.30933,11.1147 -20.07995,16.52296c-14.60385,11.66532 -29.43428,22.95103 -44.88461,33.47887c-10.4818,7.14229 -22.25883,16.3173 -34.54714,19.96623c-7.93529,2.35634 -17.68922,2.01095 -25.85642,1.19119c-6.64242,-0.66671 -12.53297,-4.33601 -19.08756,-5.60636c-3.27233,-0.63421 -6.56766,-1.15824 -9.85542,-1.70494c-15.7377,-2.61693 -40.15847,-36.0594 -39.35236,-42.65104zM42.2403,179.72414c2.62127,2.64368 9.60997,2.77374 13.10024,3.4595c12.43569,2.44333 24.90062,4.7596 37.38875,6.91931c3.65093,0.6314 12.02187,3.57179 15.38243,1.43559c1.44608,-0.91923 1.20387,-3.2609 1.44624,-4.67781c0.44886,-2.62403 1.10365,-5.19051 1.47063,-7.83322c1.68168,-12.11037 4.55145,-27.93883 -0.03492,-39.7081c-1.97417,-5.066 -6.56306,-8.32516 -9.3894,-12.81953c-3.44977,-5.48574 -4.49872,-10.22257 -11.06356,-13.17347c-3.75519,-1.68796 -7.76978,-1.30904 -11.74866,-0.93008c-4.49765,0.42837 -9.52179,0.58846 -13.75586,2.29569c-6.34206,2.55719 -11.25993,10.27259 -14.73982,15.87511c-4.73025,7.61557 -2.15697,14.99178 -3.44086,23.25536c-0.81687,5.25767 -6.81871,23.67931 -4.61521,25.90164zM114.50766,80.5062c4.78292,2.55879 10.11877,3.53267 14.80544,6.44381c4.77638,2.96687 8.59478,6.14575 12.40677,10.22907c0.8111,0.86883 2.76209,2.92305 4.10288,1.42364c3.08275,-3.44747 -3.90636,-9.09837 -5.9493,-10.97226c-6.8845,-6.31481 -27.90876,-8.48471 -25.36579,-7.12426zM164.60157,64.50867c3.6129,1.77283 7.7714,2.22591 11.36768,4.09046c3.09682,1.6056 5.02579,4.27379 7.47338,6.63755c0.7995,0.77212 2.92137,2.91927 4.24101,1.56337c2.17112,-2.23078 -1.78033,-6.63248 -3.19056,-8.04629c-4.70844,-4.72038 -22.54336,-5.54635 -19.8915,-4.24509z" fill="#090909" fill-rule="evenodd"/></svg>
