<svg xmlns="http://www.w3.org/2000/svg" viewBox="0 0 256 256" role="img" aria-hidden="true"><rect x="8" y="8" width="240" height="240" rx="56" fill="#C8FF00"/><!-- Iconic Drills Pack © 2026 Roman Kuzhel, Kyrgyzstan | CC BY 4.0 | https://github.com/roblo3x/iconic-drills-pack --><path d="M26 224C29.36 213.8 48.48 157.76 54 143C59.52 128.24 68.64 109.64 72 101C75.36 92.36 79.84 76.4 82 71C84.16 65.6 89.16 60.44 90 56C90.84 51.56 88.52 37.6 89 34C89.48 30.4 92.92 27.2 94 26C95.08 24.8 96.32 24.24 98 24C99.68 23.76 105 23.64 108 24C111 24.36 113.28 22.56 123 27C132.72 31.44 179.52 55.6 189 61C198.48 66.4 197.32 66.6 202 72C206.68 77.4 224.88 100.84 228 106C231.12 111.16 229.08 112.6 228 115C226.92 117.4 221.04 124.08 219 126C216.96 127.92 212.44 130.4 211 131C209.56 131.6 207.84 130.52 207 131C206.16 131.48 205.32 134.16 204 135C202.68 135.84 198.64 136.32 196 138C193.36 139.68 186.44 146.36 182 149C177.56 151.64 169.56 153.64 159 160C148.44 166.36 108.76 193.36 94 202C79.24 210.64 43.8 228.4 36 232C28.2 235.6 30.2 232.48 29 232C27.8 231.52 26.36 228.96 26 228C25.64 227.04 22.64 234.2 26 224ZM74 153C73.64 154.92 73.64 159.2 74 161C74.36 162.8 75.8 166.56 77 168C78.2 169.44 82.08 172.28 84 173C85.92 173.72 90.84 174.24 93 174C95.16 173.76 100.08 172.2 102 171C103.92 169.8 107.8 165.8 109 164C110.2 162.2 111.64 158.04 112 156C112.36 153.96 112.36 148.8 112 147C111.64 145.2 109.96 142.2 109 141C108.04 139.8 106.16 137.72 104 137C101.84 136.28 93.4 134.88 91 135C88.6 135.12 85.68 136.8 84 138C82.32 139.2 78.2 143.2 77 145C75.8 146.8 74.36 151.08 74 153ZM101 89C100.64 91.76 101.56 99.6 103 102C104.44 104.4 110.72 108.16 113 109C115.28 109.84 119.84 109.48 122 109C124.16 108.52 129.08 106.92 131 105C132.92 103.08 137.4 96 138 93C138.6 90 136.48 81.92 136 80C135.52 78.08 135.32 77.84 134 77C132.68 76.16 127.64 73.36 125 73C122.36 72.64 114.28 73.28 112 74C109.72 74.72 107.32 77.2 106 79C104.68 80.8 101.36 86.24 101 89ZM147 121C146.28 123.28 146.76 128.44 147 130C147.24 131.56 147.8 133.04 149 134C150.2 134.96 154.36 137.88 157 138C159.64 138.12 168.72 135.96 171 135C173.28 134.04 175.16 131.32 176 130C176.84 128.68 177.76 125.44 178 124C178.24 122.56 178.36 119.44 178 118C177.64 116.56 176.32 113.2 175 112C173.68 110.8 169.64 108.12 167 108C164.36 107.88 155.4 109.44 153 111C150.6 112.56 147.72 118.72 147 121Z" fill="#090909" fill-rule="evenodd"/></svg>
