<svg xmlns="http://www.w3.org/2000/svg" viewBox="0 0 256 256" role="img" aria-hidden="true"><rect x="8" y="8" width="240" height="240" rx="56" fill="#C8FF00"/><!-- Iconic Drills Pack © 2026 Roman Kuzhel, Kyrgyzstan | CC BY 4.0 | https://github.com/roblo3x/iconic-drills-pack --><path d="M24 141C24.6 136.56 27.36 127.48 30 121C32.64 114.52 42.52 93.12 46 87C49.48 80.88 55.76 73.24 59 70C62.24 66.76 68.92 62.4 73 60C77.08 57.6 85.92 52.76 93 50C100.08 47.24 122.52 38.68 132 37C141.48 35.32 164.2 35.04 172 36C179.8 36.96 191.72 41.64 197 45C202.28 48.36 212.04 58.48 216 64C219.96 69.52 228.08 86.32 230 91C231.92 95.68 232 97.6 232 103C232 108.4 230.96 130.36 230 136C229.04 141.64 226.52 145.56 224 150C221.48 154.44 213.68 167.48 209 173C204.32 178.52 190.52 191.92 185 196C179.48 200.08 168.4 204.72 163 207C157.6 209.28 145.28 213.56 140 215C134.72 216.44 124.52 218.52 119 219C113.48 219.48 99.16 219.6 94 219C88.84 218.4 80.8 215.92 76 214C71.2 212.08 58.44 205.88 54 203C49.56 200.12 41.64 193 39 190C36.36 187 33.68 181.84 32 178C30.32 174.16 25.96 162.44 25 158C24.04 153.56 23.4 145.44 24 141ZM89 195C88.4 196.2 88.8 199.92 90 201C91.2 202.08 96.12 203.64 99 204C101.88 204.36 111 204.48 114 204C117 203.52 122.8 201.08 124 200C125.2 198.92 124.96 196.08 124 195C123.04 193.92 119.48 191.48 116 191C112.52 190.52 98.24 190.52 95 191C91.76 191.48 89.6 193.8 89 195ZM112 117C111.64 119.76 112.04 125.6 113 128C113.96 130.4 117.72 135.44 120 137C122.28 138.56 128.16 140.76 132 141C135.84 141.24 148.4 139.84 152 139C155.6 138.16 159.6 135.92 162 134C164.4 132.08 170.44 125.4 172 123C173.56 120.6 174.76 116.88 175 114C175.24 111.12 175.08 102.12 174 99C172.92 95.88 167.56 89.56 166 88C164.44 86.44 163.76 86.24 161 86C158.24 85.76 147.2 85.04 143 86C138.8 86.96 129.24 91.72 126 94C122.76 96.28 117.68 102.24 116 105C114.32 107.76 112.36 114.24 112 117Z" fill="#090909" fill-rule="evenodd"/></svg>
