<svg xmlns="http://www.w3.org/2000/svg" viewBox="0 0 256 256" role="img" aria-hidden="true"><rect x="8" y="8" width="240" height="240" rx="56" fill="#C8FF00"/><!-- Iconic Drills Pack © 2026 Roman Kuzhel, Kyrgyzstan | CC BY 4.0 | https://github.com/roblo3x/iconic-drills-pack --><path d="M42.05506,102.39114c2.49806,-3.89579 4.91478,-7.95717 7.88999,-11.5142c2.55704,-3.05709 5.94817,-5.35442 8.41503,-8.46352c1.64453,-2.07268 2.37886,-4.64667 4.05936,-6.70263c2.47904,-3.03292 5.77409,-5.61868 8.79511,-8.08803c15.26984,-12.48139 33.15873,-19.27073 51.88118,-24.57905c10.98685,-3.11507 21.75275,-5.89423 33.22222,-6.27493c23.72067,-0.78734 50.73619,7.68426 66.31806,26.4813c2.86765,3.45937 6.31841,7.13261 7.98793,11.36448c1.98892,5.04147 2.09068,12.69351 -1.624,17.02387c-2.59242,3.0221 -9.03616,4.76411 -9.54217,9.22661c-0.48021,4.23492 3.45462,8.699 3.82748,13.05772c0.27681,3.23587 0.26571,6.71927 -1.19444,9.69335c-1.16596,2.37488 -3.03323,4.31535 -3.70249,6.93883c-1.30256,5.10599 0.8462,10.64823 0.58992,15.82849c-0.19782,3.99857 -2.26235,7.62828 -4.49882,10.84702c-1.48494,2.13713 -3.24521,4.25397 -5.56858,5.51802c-1.67117,0.90922 -3.74359,1.11444 -5.22442,2.37879c-2.00047,1.70804 -2.23792,4.65723 -3.36311,6.88574c-1.72902,3.42443 -4.98621,6.44825 -8.22505,8.43638c-2.17766,1.33674 -4.75803,2.58742 -7.27294,3.11375c-2.52259,0.52794 -5.11198,-0.21428 -7.39518,1.28823c-4.37199,2.87708 -7.0187,7.89322 -11.53903,10.82733c-8.5849,5.57238 -18.55928,11.42028 -28.18052,14.95932c-3.82078,1.40542 -7.96399,-0.42751 -11.51541,0.92728c-3.58321,1.36692 -4.99648,5.62624 -9.00575,6.97135c-4.57849,1.53609 -11.02425,1.95254 -15.79376,1.25173c-1.90498,-0.27991 -3.75559,-1.1972 -5.69626,-1.2179c-1.92649,-0.02055 -3.63329,0.99212 -5.48039,1.37165c-4.33045,0.8898 -9.56645,0.75954 -13.81499,-0.44021c-4.17836,-1.17993 -9.20666,-3.03931 -12.567,-5.85776c-2.46649,-2.06874 -3.54802,-5.66227 -6.34573,-7.29977c-1.65349,-0.96778 -3.60778,-1.08221 -5.27398,-2.08475c-3.24748,-1.95399 -6.41024,-5.09041 -8.93288,-7.89759c-2.70654,-3.01183 -4.26459,-6.70042 -4.13228,-10.78524c0.14044,-4.33587 2.37447,-9.47047 0.38881,-13.64738c-2.25163,-4.73638 -8.25942,-6.79987 -11.47433,-10.78543c-3.5942,-4.45578 5.60197,-45.674 13.9884,-58.75287zM58.92484,194.20095c2.88482,1.72659 6.56146,0.39101 9.36162,2.12779c3.90549,2.42236 3.49064,8.00359 8.24654,10.32224c2.86938,1.39892 6.53814,1.90976 9.55293,0.70344c2.94107,-1.17682 5.36963,-4.11254 8.79721,-3.77204c2.61836,0.26011 4.80797,2.16737 7.24742,2.98967c3.01645,1.0168 6.73587,1.07418 9.85196,0.49799c4.88404,-0.90309 5.31745,-4.40875 8.70836,-7.04944c3.71679,-2.89447 8.99844,0.70241 12.70039,-2.91334c3.44145,-3.36132 3.71897,-8.52106 3.83485,-13.0084c0.2635,-10.20408 1.41245,-22.03834 -1.93159,-31.85779c-1.64219,-4.82213 -5.24553,-3.69295 -8.61805,-1.18701c-7.59685,5.6448 -13.98461,12.16554 -22.28741,16.90342c-9.37164,5.3478 -18.74522,10.21565 -29.56738,11.74075c-6.10328,0.8601 -19.92431,12.09224 -15.89685,14.50271zM65.23065,94.66141c2.70631,2.923 8.98545,4.10973 12.598,5.58957c6.25223,2.56117 11.8907,5.94175 17.18818,10.13957c6.119,4.84881 12.30108,10.68877 17.11882,16.84622c2.81309,3.59536 4.31506,8.51535 7.46066,11.78069c2.38249,2.47319 6.11515,1.00452 7.88623,-1.51788c1.63086,-2.3227 0.48888,-4.89585 -0.54177,-7.17691c-1.90347,-4.21276 -4.04585,-8.51502 -6.80892,-12.23576c-9.15132,-12.32309 -22.58812,-21.26748 -36.7631,-26.851c-5.92594,-2.33423 -19.62716,1.81718 -18.13807,3.4255zM119.76864,58.31227c2.43804,3.24189 8.51009,4.99513 11.99636,6.89532c6.51739,3.55228 12.22588,8.24384 17.73298,13.1889c8.48409,7.61823 12.50274,16.62761 17.64421,26.57115c1.56844,3.03334 4.24967,7.85106 8.26166,4.70736c2.2292,-1.74674 2.01071,-4.57588 1.46556,-7.03909c-1.13507,-5.12878 -3.80511,-10.21956 -6.7074,-14.55762c-7.85134,-11.73545 -16.76469,-20.2769 -29.24321,-26.8658c-6.21888,-3.28369 -22.54223,-4.75125 -21.15017,-2.90022zM172.48508,134.79281c-0.17815,9.32504 0.4654,18.69761 1.34544,27.97625c0.26545,2.79877 -0.16441,11.46839 4.07397,11.53239c3.92392,0.05925 10.9622,-5.21297 12.83895,-8.46917c1.30118,-2.25757 0.91485,-5.1522 2.5051,-7.25727c2.71733,-3.59705 8.41633,-3.58599 11.50553,-7.18215c3.23164,-3.76197 3.89219,-10.37776 3.06921,-15.13902c-0.3158,-1.82703 -1.40595,-3.57848 -1.14607,-5.48948c0.76256,-5.60738 5.9343,-7.99445 4.2853,-14.50126c-0.62682,-2.47338 -2.40632,-6.91786 -5.21629,-7.62909c-2.68221,-0.67889 -6.77881,1.56492 -9.31038,2.34819c-7.66117,2.37037 -23.86141,19.13382 -23.95076,23.81061z" fill="#090909" fill-rule="evenodd"/></svg>
