<svg xmlns="http://www.w3.org/2000/svg" viewBox="0 0 256 256" role="img" aria-hidden="true"><rect x="8" y="8" width="240" height="240" rx="56" fill="#0AF40B"/><!-- Iconic Drills Pack © 2026 Roman Kuzhel, Kyrgyzstan | CC BY 4.0 | https://github.com/roblo3x/iconic-drills-pack --><path d="M80 57L100 47L132 37L172 36L197 45L212 59L223 75L230 91L232 103L231 132L224 150L213 167L191 192L163 207L140 215L119 219L94 219L76 214L59 206L48 199L39 190L32 178L25 158L25 135L30 121L51 79L64 66ZM140 88L126 94L118 102L113 112L113 128L120 137L127 140L143 141L159 136L170 126L175 114L173 96L166 88L161 86L143 86ZM122 194L116 191L95 191L89 195L89 200L99 204L114 204L124 200L124 195Z" fill="#090909" fill-rule="evenodd"/></svg>
