<svg xmlns="http://www.w3.org/2000/svg" viewBox="0 0 256 256" role="img" aria-hidden="true"><rect x="8" y="8" width="240" height="240" rx="56" fill="#0AF40B"/><path d="M105 76L100 78L84 77L78 80L68 81L53 93L50 101L53 125L40 153L39 171L41 177L48 184L54 185L57 188L64 188L76 184L92 186L94 191L107 202L121 207L134 206L150 201L160 195L165 188L168 172L176 160L189 156L201 157L214 149L217 140L222 96L216 85L216 79L213 74L207 71L191 52L181 48L160 49L143 63L129 70L117 74L107 74ZM153 96L160 102L165 112L167 123L159 139L150 148L135 154L114 153L96 140L93 131L93 121L102 103L112 97L124 95L132 91L149 93ZM164 42L184 40L194 44L200 51L207 55L209 61L223 74L232 95L232 105L228 122L226 145L221 155L201 165L188 164L180 168L177 173L177 181L172 195L160 205L134 214L116 215L99 210L84 198L56 200L40 193L32 186L26 176L25 158L29 145L42 126L40 102L43 93L56 80L65 75L83 70L94 71L108 66L120 66L130 62L134 56L151 47L156 42Z" fill="#090909" fill-rule="evenodd"/></svg>
