<svg xmlns="http://www.w3.org/2000/svg" viewBox="0 0 256 256" role="img" aria-hidden="true"><rect x="8" y="8" width="240" height="240" rx="56" fill="#C8FF00"/><!-- Iconic Drills Pack © 2026 Roman Kuzhel, Kyrgyzstan | CC BY 4.0 | https://github.com/roblo3x/iconic-drills-pack --><path d="M30.29902,143.07089c3.60237,-5.34059 9.23638,-10.13295 11.26326,-16.39413c2.44175,-7.54276 -1.37705,-16.09482 -1.45026,-23.74546c-0.05024,-5.25005 2.56682,-10.53611 6.16344,-14.27153c9.21503,-9.57066 21.73468,-16.19853 34.7956,-18.29776c4.66346,-0.74954 9.22411,1.1571 13.8171,0.25185c4.57726,-0.90215 8.59179,-3.65593 13.19764,-4.48731c4.6076,-0.83169 9.29889,0.46348 13.88181,-0.68082c6.01594,-1.5021 7.72208,-6.01145 12.27069,-9.44414c4.79027,-3.61506 10.89197,-5.12538 15.76462,-8.58675c2.09788,-1.49026 3.26298,-3.99605 5.66682,-5.06665c3.44079,-1.53243 8.08592,-1.3703 11.78375,-1.68352c5.76058,-0.48793 12.21162,-1.51443 17.93112,-0.33618c4.15302,0.85555 9.27661,3.25612 12.10267,6.49671c1.29225,1.48179 2.01558,3.26355 3.56399,4.54258c1.51191,1.24888 3.48181,1.82264 4.90398,3.19335c1.90299,1.83413 1.98168,4.61703 3.64911,6.62076c2.51652,3.02408 6.46042,4.73366 9.26813,7.49729c5.35767,5.27355 9.52247,13.59619 11.83136,20.68453c2.09508,6.43194 1.26607,13.19352 0.59275,19.79717c-1.07854,10.57791 -2.40365,21.24888 -4.44691,31.68771c-1.3332,6.81121 -3.29358,12.86961 -9.4931,16.66013c-5.18444,3.16987 -12.14495,7.18818 -18.31711,7.6114c-7.09127,0.48625 -12.69397,-2.60908 -18.77438,2.94421c-4.00473,3.65755 -2.65955,8.09017 -3.3643,12.84373c-0.7253,4.89215 -2.52031,10.87431 -5.61262,14.79836c-5.41576,6.87244 -12.28506,9.31352 -20.19734,11.82681c-3.17874,1.00971 -5.38134,3.5817 -8.6129,4.48949c-12.25993,3.44398 -27.40706,4.51165 -39.34728,-0.19287c-7.14803,-2.81636 -10.95539,-9.50568 -17.57512,-12.87177c-3.61872,-1.84009 -7.84802,-0.96076 -11.6591,-0.3265c-5.3601,0.89206 -10.43245,1.57256 -15.88565,1.24751c-10.80519,-0.64407 -18.23767,-6.43014 -25.26978,-14.19995c-2.69198,-2.97438 -5.31884,-5.97366 -6.61634,-9.84219c-1.88175,-5.61048 0.83074,-27.8091 4.17434,-32.76606zM46.94755,183.03206c2.2229,1.51157 4.85135,1.41058 7.17281,2.63292c2.50157,1.31717 3.93729,2.65119 6.95667,2.56458c4.74052,-0.13599 8.76394,-2.89687 13.32462,-3.80658c4.6298,-0.92349 11.29811,-0.3562 15.74844,1.25517c3.8435,1.39165 5.04395,7.3853 8.12226,10.15564c6.17215,5.55466 18.76768,11.66814 27.16264,11.43863c9.97409,-0.27268 21.81044,-4.11568 30.2712,-9.31718c3.38663,-2.08203 6.55993,-4.62063 8.40067,-8.23349c2.41186,-4.73378 2.05758,-10.44444 3.36281,-15.50675c1.12358,-4.35779 3.65341,-8.77259 6.65103,-12.12355c3.75593,-4.19865 10.84229,-6.07454 16.34128,-5.94918c3.28934,0.07498 6.54703,1.28002 9.85033,0.75589c3.77794,-0.59944 7.49061,-3.19872 10.52441,-5.39804c7.43893,-5.39277 6.59694,-15.41287 7.1147,-23.69823c0.32741,-5.23924 0.26097,-10.74354 1.37106,-15.8902c0.99467,-4.61155 3.43885,-8.55457 2.96606,-13.45044c-0.46559,-4.82135 -4.03252,-8.18865 -5.64715,-12.55748c-0.92109,-2.49225 -0.34803,-5.13548 -1.20574,-7.62414c-1.86314,-5.40593 -7.70456,-6.31107 -10.98814,-10.50867c-2.44467,-3.12518 -5.53968,-5.18412 -8.01983,-8.09989c-2.15988,-2.53925 -3.02962,-5.78437 -5.93003,-7.73057c-7.26148,-4.87254 -23.0503,-6.45082 -30.93445,-2.54331c-5.2796,2.61666 -9.21109,7.7993 -13.75665,11.44422c-6.73614,5.40147 -16.68637,9.94592 -25.04245,12.09342c-4.50298,1.15726 -9.39135,-0.02761 -13.78526,1.34865c-3.24225,1.01554 -5.33722,3.46336 -8.92119,3.62863c-4.5896,0.21163 -9.31239,-1.44645 -13.87757,-0.69643c-2.00772,0.32985 -3.54548,1.46735 -5.41378,2.14649c-3.1347,1.13949 -6.52316,0.235 -9.66414,1.37404c-5.85651,2.1238 -12.85943,9.16947 -16.70742,13.96892c-7.41401,9.24723 1.49265,20.90098 0.51124,30.75153c-0.60961,6.11873 -5.11001,10.65029 -8.21144,15.65965c-3.14364,5.07755 -6.76163,35.78579 2.25299,41.91575zM110.06969,97.75244c4.39884,-1.78302 9.16855,-1.42941 13.59648,-2.93432c3.99538,-1.3579 6.50244,-3.90723 10.99678,-3.71005c8.45938,0.37113 17.90322,1.77646 23.60679,8.59301c2.57616,3.07886 4.11446,6.84031 5.61342,10.5209c1.43032,3.51207 3.43441,7.51233 3.1976,11.40295c-0.26671,4.38176 -3.92046,6.3242 -5.47712,10.07055c-1.02635,2.47007 -1.39109,5.08186 -2.80049,7.40819c-4.69586,7.75093 -14.21621,13.04659 -22.94706,14.70773c-13.69802,2.60621 -31.28115,-1.18875 -39.51629,-13.45145c-3.41323,-5.08253 4.30757,-38.78827 13.72989,-42.60751z" fill="#090909" fill-rule="evenodd"/></svg>
