<svg xmlns="http://www.w3.org/2000/svg" viewBox="0 0 256 256" role="img" aria-hidden="true"><rect x="8" y="8" width="240" height="240" rx="56" fill="#C8FF00"/><!-- Iconic Drills Pack © 2026 Roman Kuzhel, Kyrgyzstan | CC BY 4.0 | https://github.com/roblo3x/iconic-drills-pack --><path d="M25 158C25.48 154.88 26.96 148.84 29 145C31.04 141.16 40.68 131.16 42 126C43.32 120.84 39.88 105.96 40 102C40.12 98.04 42.04 94.8 43 93C43.96 91.2 45.36 89.16 48 87C50.64 84.84 60.8 77.04 65 75C69.2 72.96 79.52 70.48 83 70C86.48 69.52 91 71.48 94 71C97 70.52 104.88 66.6 108 66C111.12 65.4 117.6 66.36 120 66C122.4 65.64 126.32 64.2 128 63C129.68 61.8 131.24 57.92 134 56C136.76 54.08 148.36 48.68 151 47C153.64 45.32 152.04 42.84 156 42C159.96 41.16 179.08 39.52 184 40C188.92 40.48 195.08 44.68 197 46C198.92 47.32 198.8 49.92 200 51C201.2 52.08 205.92 53.8 207 55C208.08 56.2 207.32 59.08 209 61C210.68 62.92 218.24 66.92 221 71C223.76 75.08 231.28 86.72 232 95C232.72 103.28 228.32 132.8 227 140C225.68 147.2 224.12 152 221 155C217.88 158 204.96 163.92 201 165C197.04 166.08 190.52 163.64 188 164C185.48 164.36 181.32 166.92 180 168C178.68 169.08 177.36 171.44 177 173C176.64 174.56 177.6 178.36 177 181C176.4 183.64 174.04 192.12 172 195C169.96 197.88 162.76 203.44 160 205C157.24 206.56 151.04 207.16 149 208C146.96 208.84 146.96 211.16 143 212C139.04 212.84 121.28 215.24 116 215C110.72 214.76 102.84 212.04 99 210C95.16 207.96 88.08 199.2 84 198C79.92 196.8 68.96 199.88 65 200C61.04 200.12 54 199.84 51 199C48 198.16 42.76 195.28 40 193C37.24 190.72 29.8 182.64 28 180C26.2 177.36 25.36 173.64 25 171C24.64 168.36 24.52 161.12 25 158ZM39 158C38.52 161.24 38.76 168.72 39 171C39.24 173.28 39.92 175.44 41 177C42.08 178.56 46.44 183.04 48 184C49.56 184.96 52.92 184.52 54 185C55.08 185.48 55.8 187.64 57 188C58.2 188.36 61.72 188.48 64 188C66.28 187.52 72.64 184.24 76 184C79.36 183.76 89.84 185.16 92 186C94.16 186.84 92.92 189.56 94 191C95.08 192.44 97.76 196.08 101 198C104.24 199.92 117.04 206.04 121 207C124.96 207.96 130.52 206.72 134 206C137.48 205.28 146.88 202.32 150 201C153.12 199.68 158.2 196.56 160 195C161.8 193.44 164.04 190.76 165 188C165.96 185.24 166.68 175.36 168 172C169.32 168.64 173.48 161.92 176 160C178.52 158.08 186 156.36 189 156C192 155.64 198 157.84 201 157C204 156.16 212.08 151.04 214 149C215.92 146.96 216.4 144.32 217 140C217.6 135.68 218.4 117.32 219 113C219.6 108.68 221.64 106.04 222 104C222.36 101.96 222.72 98.28 222 96C221.28 93.72 216.72 87.04 216 85C215.28 82.96 216.48 80.44 216 79C215.52 77.56 213.08 73.96 212 73C210.92 72.04 208.44 72.32 207 71C205.56 69.68 201.2 63.2 200 62C198.8 60.8 198.08 62.2 197 61C195.92 59.8 193.4 53.56 191 52C188.6 50.44 180.72 48.36 177 48C173.28 47.64 164.08 47.2 160 49C155.92 50.8 147.68 60.12 143 63C138.32 65.88 125.32 71.68 121 73C116.68 74.32 109.52 73.4 107 74C104.48 74.6 102.76 77.64 100 78C97.24 78.36 86.64 76.76 84 77C81.36 77.24 79.92 79.52 78 80C76.08 80.48 71.12 79.2 68 81C64.88 82.8 54.16 92.6 52 95C49.84 97.4 50.24 99.08 50 101C49.76 102.92 49.64 108.6 50 111C50.36 113.4 52.76 118.72 53 121C53.24 123.28 53.2 127.24 52 130C50.8 132.76 44.56 140.64 43 144C41.44 147.36 39.48 154.76 39 158ZM93 121C93.84 116.8 99.72 105.88 102 103C104.28 100.12 109.36 97.96 112 97C114.64 96.04 121.6 95.72 124 95C126.4 94.28 128.76 91.12 132 91C135.24 90.88 147.64 92.68 151 94C154.36 95.32 158.08 99 160 102C161.92 105 166.28 116.12 167 119C167.72 121.88 166.6 124.68 166 126C165.4 127.32 162.84 128.44 162 130C161.16 131.56 160.44 136.84 159 139C157.56 141.16 152.88 146.2 150 148C147.12 149.8 139.32 153.4 135 154C130.68 154.6 118.08 154.08 114 153C109.92 151.92 103.28 146.8 101 145C98.72 143.2 95.96 140.88 95 138C94.04 135.12 92.16 125.2 93 121Z" fill="#090909" fill-rule="evenodd"/></svg>
