<svg xmlns="http://www.w3.org/2000/svg" viewBox="0 0 256 256" role="img" aria-hidden="true"><rect x="8" y="8" width="240" height="240" rx="56" fill="#0AF40B"/><path d="M51 164L61 164L72 153L78 154L92 170L97 172L106 171L123 155L129 156L146 172L158 171L175 155L180 156L186 164L194 169L206 168L214 162L216 164L214 217L212 221L204 224L165 231L115 231L71 227L47 222L40 218L40 155L43 153ZM175 29L180 39L179 47L174 51L174 55L180 56L181 59L181 92L206 96L212 100L214 105L216 134L214 152L205 157L198 156L183 142L172 141L158 154L150 157L145 155L132 142L123 140L115 144L106 153L96 155L83 142L77 139L67 141L57 151L50 151L40 142L42 106L63 96L80 94L80 62L82 55L90 54L90 51L84 46L84 38L90 28L95 27L99 35L99 44L96 50L93 51L93 54L99 55L101 59L101 91L124 90L124 55L126 53L131 53L131 49L127 45L127 37L133 25L138 25L142 35L141 44L136 49L136 53L142 53L144 58L144 90L162 90L163 57L165 55L171 55L171 51L169 51L166 46L166 38L170 31Z" fill="#090909" fill-rule="evenodd"/></svg>
