<svg xmlns="http://www.w3.org/2000/svg" viewBox="0 0 256 256" role="img" aria-hidden="true"><rect x="8" y="8" width="240" height="240" rx="56" fill="#C8FF00"/><!-- Iconic Drills Pack © 2026 Roman Kuzhel, Kyrgyzstan | CC BY 4.0 | https://github.com/roblo3x/iconic-drills-pack --><path d="M33 220C36 207.4 54.28 137.56 58 124C61.72 110.44 62.2 110.6 64 107C65.8 103.4 71.2 95.68 73 94C74.8 92.32 75.88 92.16 79 93C82.12 93.84 91.8 96.44 99 101C106.2 105.56 132.52 125.48 139 131C145.48 136.52 150.96 143.52 153 147C155.04 150.48 156.72 157.24 156 160C155.28 162.76 154.44 165.32 147 170C139.56 174.68 102.04 194.92 94 199C85.96 203.08 86.6 200.04 80 204C73.4 207.96 44.64 229 39 232C33.36 235 33.72 230.44 33 229C32.28 227.56 30 232.6 33 220ZM62 175C60.8 176.56 62.28 180.16 63 181C63.72 181.84 66.2 182.96 68 182C69.8 181.04 76.8 174.68 78 173C79.2 171.32 78.6 168.6 78 168C77.4 167.4 74.92 167.16 73 168C71.08 168.84 63.2 173.44 62 175ZM68 139C67.16 140.8 67.52 143.4 68 144C68.48 144.6 70.44 145.08 72 144C73.56 142.92 79.92 136.44 81 135C82.08 133.56 81.72 132.72 81 132C80.28 131.28 76.56 128.16 75 129C73.44 129.84 68.84 137.2 68 139ZM75 57C75.48 56.16 77.8 53.48 79 53C80.2 52.52 83.8 52.64 85 53C86.2 53.36 87.92 54.68 89 56C90.08 57.32 93.4 61.72 94 64C94.6 66.28 94.36 73.08 94 75C93.64 76.92 91.72 79.28 91 80C90.28 80.72 88.72 81.12 88 81C87.28 80.88 85.48 80.44 85 79C84.52 77.56 84.48 70.8 84 69C83.52 67.2 82.08 65.08 81 64C79.92 62.92 75.72 60.84 75 60C74.28 59.16 74.52 57.84 75 57ZM85 112C83.92 112.24 83.4 114.28 87 118C90.6 121.72 109.96 138.8 115 143C120.04 147.2 126.24 151.32 129 153C131.76 154.68 136.32 156.52 138 157C139.68 157.48 142.76 157.84 143 157C143.24 156.16 141.56 152.04 140 150C138.44 147.96 134.08 143 130 140C125.92 137 110.08 127.88 106 125C101.92 122.12 98.52 117.56 96 116C93.48 114.44 86.08 111.76 85 112ZM92 159C91.16 160.32 92.28 164.04 93 165C93.72 165.96 96.44 167.48 98 167C99.56 166.52 105.04 162.32 106 161C106.96 159.68 106.12 156.84 106 156C105.88 155.16 105.72 154.24 105 154C104.28 153.76 101.56 153.4 100 154C98.44 154.6 92.84 157.68 92 159ZM113 93C113.96 90.36 118.12 84.8 121 83C123.88 81.2 135.08 79.32 137 78C138.92 76.68 137.72 74.04 137 72C136.28 69.96 131.36 63.4 131 61C130.64 58.6 132.68 53.8 134 52C135.32 50.2 139 47.32 142 46C145 44.68 156.6 42.08 159 41C161.4 39.92 161.76 38.92 162 37C162.24 35.08 160.28 26.44 161 25C161.72 23.56 166.68 23.8 168 25C169.32 26.2 171.76 32.6 172 35C172.24 37.4 171.08 42.96 170 45C168.92 47.04 166.12 50.32 163 52C159.88 53.68 146.28 57.68 144 59C141.72 60.32 143.4 61.56 144 63C144.6 64.44 148.4 68.96 149 71C149.6 73.04 149.24 78.44 149 80C148.76 81.56 148.2 82.8 147 84C145.8 85.2 141.52 88.92 139 90C136.48 91.08 127.92 92.04 126 93C124.08 93.96 123.36 96.8 123 98C122.64 99.2 123.48 101.92 123 103C122.52 104.08 120.2 106.76 119 107C117.8 107.24 113.72 106.68 113 105C112.28 103.32 112.04 95.64 113 93ZM140 117C141.08 115.32 147.48 108.8 150 107C152.52 105.2 157.88 102.6 161 102C164.12 101.4 172.16 100.8 176 102C179.84 103.2 189.52 110.92 193 112C196.48 113.08 203.56 110.76 205 111C206.44 111.24 206.2 112.8 205 114C203.8 115.2 197.52 120.28 195 121C192.48 121.72 186.64 120.96 184 120C181.36 119.04 175.28 113.84 173 113C170.72 112.16 167.4 112.4 165 113C162.6 113.6 155.4 116.68 153 118C150.6 119.32 146.44 123.64 145 124C143.56 124.36 141.6 121.84 141 121C140.4 120.16 138.92 118.68 140 117ZM165 140C164.64 137.96 166.04 133.96 167 133C167.96 132.04 172.04 131.16 173 132C173.96 132.84 173.68 138.92 175 140C176.32 141.08 182.32 140.16 184 141C185.68 141.84 188.4 144.6 189 147C189.6 149.4 189.6 159.08 189 161C188.4 162.92 184.96 163.36 184 163C183.04 162.64 181.36 159.32 181 158C180.64 156.68 182.32 152.96 181 152C179.68 151.04 171.92 151.44 170 150C168.08 148.56 165.36 142.04 165 140ZM171 79C171.6 77.8 174.56 75.48 176 75C177.44 74.52 181.8 74.76 183 75C184.2 75.24 185.64 75.8 186 77C186.36 78.2 186.6 83.56 186 85C185.4 86.44 182.32 88.52 181 89C179.68 89.48 176.2 89.48 175 89C173.8 88.52 171.48 86.2 171 85C170.52 83.8 170.4 80.2 171 79ZM195 33C195.48 31.44 198.68 27.72 200 27C201.32 26.28 204.8 26.64 206 27C207.2 27.36 209.16 28.8 210 30C210.84 31.2 213.36 35.68 213 37C212.64 38.32 208.44 40.4 207 41C205.56 41.6 202.32 42.12 201 42C199.68 41.88 196.72 41.08 196 40C195.28 38.92 194.52 34.56 195 33ZM206 80C206.24 78.32 211.56 73.96 213 73C214.44 72.04 216.8 70.92 218 72C219.2 73.08 222.88 80.2 223 82C223.12 83.8 220.44 86.4 219 87C217.56 87.6 212.56 87.84 211 87C209.44 86.16 205.76 81.68 206 80ZM206 144C206.36 143.04 207.8 140.6 209 140C210.2 139.4 214.68 138.76 216 139C217.32 139.24 219.4 141.16 220 142C220.6 142.84 221.48 144.8 221 146C220.52 147.2 217.44 151.28 216 152C214.56 152.72 210.2 152.48 209 152C207.8 151.52 206.36 148.96 206 148C205.64 147.04 205.64 144.96 206 144Z" fill="#090909" fill-rule="evenodd"/></svg>
