<svg xmlns="http://www.w3.org/2000/svg" viewBox="0 0 256 256" role="img" aria-hidden="true"><rect x="8" y="8" width="240" height="240" rx="56" fill="#C8FF00"/><!-- Iconic Drills Pack © 2026 Roman Kuzhel, Kyrgyzstan | CC BY 4.0 | https://github.com/roblo3x/iconic-drills-pack --><path d="M193 112L205 111L205 114L195 121L184 120L173 113L161 114L146 124L140 119L145 111L161 102L176 102ZM57 130L66 103L73 94L79 93L99 101L139 131L153 147L156 160L147 170L94 199L80 204L78 207L38 232L33 229L33 220ZM91 59L94 64L94 75L93 78L88 81L85 79L83 67L75 60L75 57L79 53L85 53ZM181 141L184 141L189 147L189 161L187 163L182 161L180 151L170 150L165 142L168 132L173 132L174 139ZM103 132L129 153L138 157L143 157L140 150L130 140L106 125L96 116L88 112L85 112L85 115ZM133 56L134 52L140 47L155 43L161 39L162 24L166 24L170 28L172 35L171 43L163 52L144 59L144 63L149 71L149 80L147 84L139 90L126 93L123 98L123 103L119 107L115 107L113 105L113 93L115 89L121 83L137 78L137 72L131 61ZM215 72L218 72L223 79L222 85L219 87L211 87L206 81L207 78ZM217 151L209 152L207 150L206 144L209 140L216 139L220 142L221 146ZM70 135L68 144L72 144L81 135L81 132L75 129ZM66 173L62 175L62 178L64 182L68 182L78 173L78 168L73 168ZM96 157L92 159L92 163L95 167L98 167L106 161L105 154L100 154ZM205 41L201 42L195 38L195 33L200 27L208 28L213 35L211 39ZM180 75L186 77L186 85L181 89L175 89L171 85L171 79L176 75Z" fill="#090909" fill-rule="evenodd"/></svg>
