<svg xmlns="http://www.w3.org/2000/svg" viewBox="0 0 256 256" role="img" aria-hidden="true"><rect x="8" y="8" width="240" height="240" rx="56" fill="#C8FF00"/><!-- Iconic Drills Pack © 2026 Roman Kuzhel, Kyrgyzstan | CC BY 4.0 | https://github.com/roblo3x/iconic-drills-pack --><path d="M33.99622,106.94287c11.61896,-22.86284 32.4982,-41.67713 55.83582,-52.21901c7.96489,-3.59784 15.91705,-6.72919 24.66526,-7.65241c16.95784,-1.7896 33.71027,-3.16984 47.07323,9.20957c2.40835,2.23109 4.89725,4.58604 6.375,7.56732c6.404,12.91973 -0.73888,29.0596 -10.85554,37.44754c-5.30703,4.40017 -14.87097,9.50264 -16.6286,16.62472c-3.06185,12.40695 9.80834,14.89525 15.68619,22.77432c9.02247,12.09433 7.0938,29.13852 -1.85849,40.82598c-10.81509,14.1194 -26.42684,19.44956 -43.27584,21.8481c-7.82455,1.11386 -15.92096,2.54761 -23.84816,1.97314c-25.53671,-1.85057 -51.51648,-17.89677 -60.29099,-42.63289c-2.59173,-7.30633 1.50402,-44.71155 7.12212,-55.76639zM45.0131,142.90324c3.35489,12.15338 22.72311,10.59495 25.71132,-1.02776c3.12867,-12.16904 -8.77191,-20.61133 -19.37354,-14.60252c-3.53164,2.00167 -7.0861,12.91944 -6.33778,15.63029zM94.7996,98.11473c2.02907,-10.04602 -6.46907,-18.55872 -16.43955,-14.61171c-4.10886,1.62657 13.38491,29.73535 16.43955,14.61171zM125.49908,174.93455c7.75467,-1.05449 12.4328,-8.41337 11.41407,-16.05387c-0.82663,-6.19972 -11.50776,-8.64598 -16.3891,-6.01594c-3.32415,1.79104 -3.97072,23.28626 4.97503,22.0698zM116.07448,82.74832c4.72557,9.87006 18.97001,5.55107 21.17244,-3.67627c2.15715,-9.03764 -7.31114,-14.64362 -15.12898,-11.45481c-3.22161,1.31406 -7.51365,12.06037 -6.04346,15.13108zM172.16218,183.73316c3.62933,-18.3218 7.11897,-36.59344 13.34184,-54.24885c4.17737,-11.85194 11.29794,-22.9091 14.87984,-34.87125c1.30495,-4.35802 -0.63092,-7.30629 -1.88128,-11.33823c-1.46058,-4.70986 -1.92774,-10.96676 -0.79898,-15.78562c0.90341,-3.85678 3.28418,-7.31407 5.38133,-10.60975c4.29284,-6.74625 8.78251,-13.37422 14.47565,-19.02595c2.04366,-2.02879 5.81291,-7.01158 9.2143,-5.82306c3.88586,1.35779 1.74933,9.3894 1.53632,12.33487c-0.84838,11.73093 6.34841,23.5928 0.87505,35.22497c-1.28271,2.72605 -3.46876,6.04714 -6.00464,7.75924c-3.69132,2.4922 -6.8104,1.71139 -8.39134,6.71001c-4.56695,14.43979 -4.94127,30.37655 -8.52244,45.12407c-4.52859,18.64909 -12.11346,36.80626 -18.68672,54.80843c-2.51211,6.87992 -5.04297,13.75296 -7.57836,20.62433c-1.00515,2.72414 -1.70785,6.32372 -3.35372,8.7332c-0.60089,0.87967 -2.27953,0.44849 -3.13427,0.51491c-5.6269,0.43728 -3.65932,-28.48622 -1.35257,-40.13131z" fill="#090909" fill-rule="evenodd"/></svg>
