<svg xmlns="http://www.w3.org/2000/svg" viewBox="0 0 256 256" role="img" aria-hidden="true"><rect x="8" y="8" width="240" height="240" rx="56" fill="#0AF40B"/><!-- Iconic Drills Pack © 2026 Roman Kuzhel, Kyrgyzstan | CC BY 4.0 | https://github.com/roblo3x/iconic-drills-pack --><path d="M193 111L201 93L198 82L198 66L208 49L224 32L229 34L228 51L231 62L231 74L223 88L215 93L209 128L200 161L178 220L176 223L169 224L166 217L175 169L184 134ZM31 115L40 96L54 80L70 66L95 52L120 46L140 46L155 51L161 55L168 64L170 72L168 87L162 97L143 113L140 120L142 129L154 138L160 147L162 155L161 168L154 182L145 191L131 199L109 204L84 205L62 199L42 186L27 163L24 149L25 130ZM75 87L70 94L71 101L75 105L85 107L93 102L95 92L91 85L80 83ZM137 80L137 73L131 67L121 68L116 75L116 83L123 88L132 87ZM70 142L71 135L69 130L61 125L50 128L45 137L45 143L48 148L54 151L61 151L67 148ZM131 172L135 169L137 163L136 156L130 152L119 154L113 162L113 169L118 174L122 175Z" fill="#090909" fill-rule="evenodd"/></svg>
