<svg xmlns="http://www.w3.org/2000/svg" viewBox="0 0 256 256" role="img" aria-hidden="true"><rect x="8" y="8" width="240" height="240" rx="56" fill="#0AF40B"/><path d="M107 195L102 202L92 204L92 209L103 217L118 218L124 216L133 208L139 189L149 174L161 169L175 170L180 167L189 168L194 171L197 177L196 190L187 197L180 197L170 191L167 183L163 183L154 191L147 214L140 224L126 231L105 232L92 229L81 223L72 213L68 198L62 193L58 186L58 179L62 168L96 97L96 91L89 77L89 68L98 47L110 36L125 28L139 25L158 25L168 28L174 31L187 43L193 54L195 78L192 91L184 106L176 114L167 118L149 119L145 123L119 169ZM137 51L126 49L116 57L113 63L113 73L116 77L126 79L135 73L140 64L140 55ZM147 78L147 91L154 96L165 94L172 83L171 70L164 65L155 66Z" fill="#090909" fill-rule="evenodd"/></svg>
