<svg xmlns="http://www.w3.org/2000/svg" viewBox="0 0 256 256" role="img" aria-hidden="true"><rect x="8" y="8" width="240" height="240" rx="56" fill="#C8FF00"/><!-- Iconic Drills Pack © 2026 Roman Kuzhel, Kyrgyzstan | CC BY 4.0 | https://github.com/roblo3x/iconic-drills-pack --><path d="M84.92908,120.96803c4.05343,-8.6725 9.89194,-17.94531 12.31956,-27.22133c0.59917,-2.28946 -1.22736,-3.32924 -2.32013,-5.10651c-2.31451,-3.76429 -4.95187,-8.22722 -6.05501,-12.52845c-2.14206,-8.35205 3.82563,-21.28326 8.48799,-28.09893c2.9745,-4.34828 7.46872,-7.72938 11.61022,-10.89841c19.5496,-14.9591 50.87929,-18.5278 70.4441,-1.74856c15.91555,13.64955 18.71139,33.39147 13.12542,52.76598c-2.93225,10.17029 -8.13139,20.09757 -17.16713,26.18634c-5.29687,3.56932 -10.95297,3.97895 -17.14245,4.16413c-3.34889,0.10019 -8.49839,-0.59614 -11.2212,1.79109c-1.8647,1.63487 -3.00591,4.42275 -4.23207,6.52908c-2.68381,4.61034 -5.33099,9.24216 -7.97224,13.87697c-5.92648,10.39971 -12.1838,20.74057 -17.3803,31.53047c-3.47451,7.2144 -6.20789,14.75231 -9.6038,21.99745c-1.36781,2.9182 -2.95471,6.09831 -5.98655,7.59914c-2.65278,1.31318 -9.12792,0.48996 -10.1864,3.94241c-1.10711,3.61107 4.34737,6.9286 6.71585,8.5673c6.91095,4.78156 19.33611,5.70702 26.53643,1.07178c14.9839,-9.64593 10.44399,-31.05051 24.84353,-41.73637c3.69045,-2.73867 8.31436,-4.52366 12.9384,-4.53942c3.87399,-0.0132 8.047,1.37451 11.88599,0.62968c2.57764,-0.50011 4.41218,-2.4006 7.12366,-2.52832c7.46609,-0.35168 14.72323,4.20124 15.48891,12.03552c0.82529,8.44422 -3.87254,18.16123 -13.6224,18.19273c-3.87799,0.01253 -7.81014,-2.26342 -10.87456,-4.45651c-3.33941,-2.3899 -4.58293,-11.38745 -9.36972,-9.83011c-11.62706,3.78276 -12.27083,18.85586 -15.51449,28.51404c-3.47667,10.35196 -12.50657,17.5994 -23.23428,19.57951c-16.73456,3.08885 -38.52875,0.36894 -49.58309,-14.05148c-4.16876,-5.43817 -3.79179,-12.71397 -6.96577,-18.56191c-2.11608,-3.8988 -6.48953,-6.39442 -9.00347,-10.23285c-0.79077,-1.20739 -2.34822,-2.52503 -2.53902,-4.04338c-0.22462,-1.78742 19.16028,-43.50675 28.45401,-63.3911zM112.91507,67.02587c0.12339,2.97636 0.04299,7.11229 2.31954,9.3854c3.37248,3.3674 11.1685,3.48301 15.00295,1.05036c6.42396,-4.07548 11.33879,-13.02708 10.06189,-20.6415c-1.00741,-6.00739 -8.33482,-9.38605 -13.92781,-7.77893c-5.78333,1.66181 -13.54358,15.88566 -13.45656,17.98467zM147.03422,90.69537c2.78735,5.22711 10.35288,7.00294 15.55672,4.78381c8.85063,-3.77427 11.66499,-17.79435 8.08914,-26.06086c-1.39232,-3.21872 -4.93844,-3.99522 -8.07661,-4.3867c-9.74116,-1.21519 -17.4138,22.20467 -15.56925,25.66375z" fill="#090909" fill-rule="evenodd"/></svg>
