<svg xmlns="http://www.w3.org/2000/svg" viewBox="0 0 256 256" role="img" aria-hidden="true"><rect x="8" y="8" width="240" height="240" rx="56" fill="#C8FF00"/><!-- Iconic Drills Pack © 2026 Roman Kuzhel, Kyrgyzstan | CC BY 4.0 | https://github.com/roblo3x/iconic-drills-pack --><path d="M39.45879,129.00449c1.92701,-1.41357 9.4084,-6.95162 11.76658,-4.1165c0.71434,0.85881 0.46313,2.40681 0.32846,3.32641c-0.57356,3.91655 -1.91498,7.81704 -2.93959,11.6339c-3.58847,13.36762 -5.47575,25.57286 -5.00546,39.45345c0.28973,8.5514 1.24551,17.48441 4.41042,25.51531c1.4822,3.76106 4.27633,6.74188 5.89347,10.39186c0.69429,1.56705 0.99021,3.449 -0.91348,4.31986c-3.07792,1.40803 -10.52584,-0.8101 -12.94992,-2.92935c-1.43049,-1.2506 -2.14363,-2.97596 -3.66147,-4.18421c-6.6829,-5.31982 -8.6958,-12.50174 -10.42865,-20.65666c-2.46454,-11.59832 4.08321,-55.84656 13.49964,-62.75405zM68.65344,52.34577c5.69506,-5.42803 11.86479,-11.01038 18.96491,-14.54109c7.04998,-3.50578 15.4457,-4.6374 23.09562,-6.2073c21.25537,-4.36198 44.36195,-6.36012 64.62981,3.61862c16.57682,8.16148 26.77141,27.89366 27.91922,45.83923c0.55824,8.72789 -1.86249,19.49535 0.76507,27.89067c1.42925,4.56661 6.01236,3.5014 9.51583,5.14375c3.44675,1.61576 6.17085,5.37909 8.17368,8.48916c3.82096,5.93334 7.56059,12.98339 9.12972,19.90232c2.14575,9.46147 1.62515,20.25742 1.25398,29.89865c-0.28837,7.49044 -0.52249,16.69172 -4.11474,23.45152c-3.95914,7.45021 -14.09971,16.78121 -21.93559,19.89114c-1.98684,0.78854 -9.2516,3.28562 -10.36296,-0.03316c-0.68416,-2.04307 2.09997,-5.00963 3.04892,-6.56479c3.12038,-5.11377 4.964,-10.92478 6.73326,-16.61689c4.17083,-13.41855 4.84918,-27.57367 4.78339,-41.52396c-0.03771,-7.99514 -0.05327,-16.02145 -1.96944,-23.83556c-1.88352,-7.681 -5.92869,-20.51881 -16.20155,-19.87596c-1.85365,0.116 -2.31455,1.4714 -1.10268,2.82042c1.28511,1.43056 3.20001,2.07165 4.49552,3.54572c1.7212,1.95843 2.76574,4.59528 3.79986,6.95358c4.1702,9.51003 4.50938,19.07849 4.72646,29.31339c0.45717,21.55425 -2.20061,42.55955 -12.02956,62.09695c-4.7391,9.42011 -16.21286,16.68924 -25.76395,8.52472c-8.04174,-6.87429 -8.59909,-17.70934 -9.75747,-27.44472c-2.68305,-22.54923 -9.8702,-49.70585 3.3027,-70.27426c1.44662,-2.25878 3.83892,-3.4407 5.4309,-5.54983c1.90832,-2.52825 2.45878,-6.30295 5.34572,-8.03513c2.9881,-1.79288 8.53247,-0.03555 10.15498,-3.91466c1.55925,-3.72787 -0.47473,-9.8691 -1.16917,-13.6585c-0.82173,-4.48403 -1.38815,-9.36798 -3.3767,-13.51674c-4.95664,-10.34114 -14.40823,-17.77556 -24.70937,-22.22155c-7.42304,-3.2038 -15.67712,-2.78014 -23.59677,-2.37595c-22.02709,1.12418 -45.99534,12.94351 -54.38566,34.5404c-1.69,4.3501 -2.15931,9.07471 -2.68492,13.67651c-0.36183,3.16791 -1.08728,6.71877 -0.73785,9.90773c0.44109,4.02542 5.7056,2.3189 8.55781,3.79752c5.17844,2.68456 10.3785,6.53313 13.59774,11.45921c3.60548,5.5171 4.97452,12.48192 6.35416,18.82396c3.63662,16.71704 3.81544,34.73384 1.70116,51.70364c-0.92271,7.40597 -1.51327,16.77091 -6.64582,22.67321c-6.12932,7.04856 -21.80512,10.33208 -28.92882,2.90729c-5.37505,-5.60223 -8.92837,-16.01221 -11.06981,-23.33917c-5.20151,-17.79701 -6.2966,-37.1241 -2.44099,-55.35768c1.56279,-7.39061 6.93183,-15.21028 7.25452,-22.69194c0.13729,-3.18318 -3.16671,-1.4531 -4.87721,-1.28509c-2.03937,0.20031 -3.2855,-0.69781 -4.02941,-2.57817c-1.16889,-2.95454 -1.01077,-6.71513 -1.23576,-9.84189c-0.52079,-7.23757 10.98648,-46.6215 20.39128,-55.58533zM79.43807,178.0665c7.31687,-4.90505 7.0612,-14.22393 4.25424,-21.39818c-1.4295,-3.65364 -5.63421,-11.27288 -10.78811,-8.93798c-2.25943,1.0236 -3.51189,4.03269 -4.61368,6.06501c-1.27379,2.34959 1.26265,30.89775 11.14755,24.27115zM71.85146,158.11529c4.65503,-5.36394 9.60965,4.56159 6.52415,8.61767c-1.71073,2.24886 -5.23842,0.48132 -6.65988,-1.15533c-1.53608,-1.76862 -0.9332,-6.23062 0.13573,-7.46234zM167.66925,155.7752c1.0176,6.34462 3.80764,23.50491 13.98452,18.89591c2.47263,-1.11982 3.3818,-3.76795 4.20364,-6.13438c1.72225,-4.9591 3.12259,-10.14224 4.0156,-15.31701c0.36155,-2.09507 1.21491,-5.464 -0.54338,-7.2127c-1.3317,-1.32443 -3.63353,-1.13534 -5.3103,-1.03272c-3.94134,0.24122 -7.86324,1.11781 -11.71498,1.93975c-2.42378,0.51722 -5.01852,6.47054 -4.63509,8.86115zM181.42433,163.61105c-5.10188,2.84698 7.95773,-4.44062 0,0z" fill="#090909" fill-rule="evenodd"/></svg>
