<svg xmlns="http://www.w3.org/2000/svg" viewBox="0 0 256 256" role="img" aria-hidden="true"><rect x="8" y="8" width="240" height="240" rx="56" fill="#C8FF00"/><!-- Iconic Drills Pack © 2026 Roman Kuzhel, Kyrgyzstan | CC BY 4.0 | https://github.com/roblo3x/iconic-drills-pack --><path d="M61.37128,117.89976c6.94222,-2.62881 16.64805,-3.05892 22.40939,-8.05898c4.46185,-3.87228 5.3621,-10.85847 7.76908,-15.97594c3.50242,-7.44648 13.52998,-14.97733 21.55296,-16.61561c7.71429,-1.57524 18.39189,-0.18577 25.33106,3.60601c2.52934,1.38211 7.73021,7.3666 10.69207,5.68687c4.23831,-2.40363 7.8915,-7.66982 11.23407,-11.16929c5.06395,-5.30166 10.09713,-10.63365 15.08003,-16.01162c2.60341,-2.80983 5.91836,-5.66778 7.87235,-8.98639c2.77023,-4.70488 -5.32801,-6.52757 -3.06908,-10.71812c1.65036,-3.06158 5.8867,-1.42742 7.40813,-3.94457c1.21888,-2.0166 0.05903,-4.78856 3.21976,-5.3191c2.09806,-0.35217 5.23192,1.38137 6.94776,-0.50531c1.61881,-1.77999 0.5635,-4.7741 3.49541,-5.56933c3.57368,-0.9693 5.00998,3.16035 7.9077,4.09364c1.78711,0.57559 3.60848,-0.48866 5.32936,0.05624c1.89655,0.60052 1.17902,4.2333 2.23307,5.68982c2.6713,3.69125 8.44389,4.32627 10.9766,8.08455c1.58719,2.35522 -1.57736,3.66755 -1.96751,5.77948c-0.5724,3.09847 3.51618,5.50719 2.36552,8.60179c-1.02003,2.74329 -4.13671,1.51401 -6.02724,2.77136c-2.09422,1.39282 -0.48158,4.53561 -2.05606,6.28603c-2.10065,2.33539 -6.439,-0.29906 -8.93824,-0.27636c-2.12003,0.01926 -1.85653,1.2419 -3.26156,2.19261c-1.11613,0.75523 -2.79085,0.26522 -4.07168,1.00049c-4.8552,2.78716 -8.99256,8.46739 -12.88114,12.44264c-7.17481,7.33471 -16.18692,14.69465 -21.97663,23.18354c-2.68542,3.93737 4.95136,8.062 6.8987,11.30377c4.92898,8.20534 5.5848,15.52913 4.40008,24.84834c-1.28098,10.07644 -5.95046,19.15709 -14.76706,24.81762c-3.8248,2.45564 -8.90099,3.36795 -11.74886,7.18597c-5.13394,6.88285 -4.56328,18.88262 -6.60896,26.99133c-2.81249,11.1482 -13.20832,23.60176 -23.69714,28.39461c-13.85531,6.33116 -32.91475,6.2556 -46.64631,-0.34906c-4.90128,-2.35744 -8.25556,-6.66641 -12.95189,-9.20812c-2.33864,-1.2657 -4.93771,-1.73969 -7.21223,-3.17468c-19.43479,-12.26131 -11.53432,-90.9646 4.75852,-97.13421zM68.90171,175.49198c6.49929,5.81235 13.07127,11.55168 19.73397,17.17616c2.07941,1.75538 5.0732,5.22804 7.99593,5.37384c2.37435,0.11844 4.64051,-2.56627 5.83462,-4.30782c4.57082,-6.66631 -4.56542,-9.04525 -7.85433,-12.74225c-4.92122,-5.53185 -10.70831,-10.02405 -16.64086,-14.45337c-2.39122,-1.78532 -5.38878,-4.59423 -8.58255,-4.54883c-2.66661,0.03791 -4.08914,10.28068 -0.48679,13.50227zM98.86122,154.55546c4.41999,7.59439 15.8672,11.85672 24.2963,10.16327c15.96605,-3.20766 24.96557,-25.85559 20.85555,-40.2964c-2.56596,-9.01566 -10.86864,-10.60091 -18.9907,-9.94706c-13.34921,1.07466 -28.87196,35.4225 -26.16116,40.08019zM114.94559,124.6091c9.99292,-4.71448 21.29116,0.50175 21.03634,12.15503c-0.14833,6.78331 -5.94845,14.63318 -12.35036,16.95755c-7.71355,2.80059 -16.87981,-2.75535 -17.86561,-10.74523c-0.33537,-2.71816 4.50798,-16.16336 9.17962,-18.36736z" fill="#090909" fill-rule="evenodd"/></svg>
