<svg xmlns="http://www.w3.org/2000/svg" viewBox="0 0 256 256" role="img" aria-hidden="true"><rect x="8" y="8" width="240" height="240" rx="56" fill="#0AF40B"/><!-- Iconic Drills Pack © 2026 Roman Kuzhel, Kyrgyzstan | CC BY 4.0 | https://github.com/roblo3x/iconic-drills-pack --><path d="M219 66L214 67L213 65L209 65L208 69L203 69L169 104L169 108L175 114L181 128L180 145L174 157L166 165L153 173L146 203L132 222L123 228L108 232L83 230L58 216L36 195L28 179L26 169L26 156L30 146L46 126L61 118L84 110L91 94L100 84L110 78L124 77L137 80L146 86L150 86L183 51L183 46L179 41L183 37L188 37L188 32L190 30L198 31L198 27L201 24L204 24L209 29L216 28L216 34L229 43L225 48L229 56L226 59L221 59L221 65ZM102 156L104 160L115 165L122 165L131 161L139 152L144 141L144 124L142 120L138 116L131 114L121 115L110 120L102 128L97 139L98 153ZM133 127L136 135L135 142L128 151L123 154L116 154L107 148L106 135L114 125L126 123ZM103 188L71 162L63 166L63 170L94 197L99 197L104 191Z" fill="#090909" fill-rule="evenodd"/></svg>
