<svg xmlns="http://www.w3.org/2000/svg" viewBox="0 0 256 256" role="img" aria-hidden="true"><rect x="8" y="8" width="240" height="240" rx="56" fill="#C8FF00"/><!-- Iconic Drills Pack © 2026 Roman Kuzhel, Kyrgyzstan | CC BY 4.0 | https://github.com/roblo3x/iconic-drills-pack --><path d="M91 38L118 29L144 24L153 25L160 31L161 52L156 99L157 116L160 125L168 138L176 145L190 142L203 147L211 156L217 173L219 187L217 203L213 212L203 221L183 223L171 219L161 212L153 199L152 187L156 175L163 165L163 158L150 144L141 123L139 82L115 84L104 87L97 92L97 105L106 142L106 156L100 171L100 176L110 197L110 209L106 217L93 227L74 232L52 229L38 218L36 206L39 188L42 178L50 166L64 158L73 157L86 160L88 156L86 128L79 105L75 56L79 46Z" fill="#090909" fill-rule="evenodd"/></svg>
