<svg xmlns="http://www.w3.org/2000/svg" viewBox="0 0 256 256" role="img" aria-hidden="true"><rect x="8" y="8" width="240" height="240" rx="56" fill="#C8FF00"/><!-- Iconic Drills Pack © 2026 Roman Kuzhel, Kyrgyzstan | CC BY 4.0 | https://github.com/roblo3x/iconic-drills-pack --><path d="M26 156C26.72 151.92 30.6 144.6 33 141C35.4 137.4 42.64 128.76 46 126C49.36 123.24 56.44 119.92 61 118C65.56 116.08 80.16 113.24 84 110C87.84 106.76 90.36 94.6 93 91C95.64 87.4 103.48 81.68 106 80C108.52 78.32 111.84 77.36 114 77C116.16 76.64 121.24 76.64 124 77C126.76 77.36 134.36 78.92 137 80C139.64 81.08 144.44 85.28 146 86C147.56 86.72 145.56 90.2 150 86C154.44 81.8 179.04 55.8 183 51C186.96 46.2 183.48 47.2 183 46C182.52 44.8 179 42.08 179 41C179 39.92 181.92 37.48 183 37C184.08 36.52 187.4 37.6 188 37C188.6 36.4 187.76 32.84 188 32C188.24 31.16 188.8 30.12 190 30C191.2 29.88 196.92 31.6 198 31C199.08 30.4 198.28 25.84 199 25C199.72 24.16 202.8 23.52 204 24C205.2 24.48 207.56 28.52 209 29C210.44 29.48 215.16 27.4 216 28C216.84 28.6 214.44 32.2 216 34C217.56 35.8 227.92 41.32 229 43C230.08 44.68 225 46.44 225 48C225 49.56 228.88 54.68 229 56C229.12 57.32 226.96 58.64 226 59C225.04 59.36 221.6 58.28 221 59C220.4 59.72 221.24 64.04 221 65C220.76 65.96 220.44 67 219 67C217.56 67 210.32 64.76 209 65C207.68 65.24 208.72 68.52 208 69C207.28 69.48 207.68 64.8 203 69C198.32 73.2 173.08 99.32 169 104C164.92 108.68 168.28 106.8 169 108C169.72 109.2 173.56 111.6 175 114C176.44 116.4 180.52 123.92 181 128C181.48 132.08 179.84 144.52 179 148C178.16 151.48 175.56 154.96 174 157C172.44 159.04 168.52 163.08 166 165C163.48 166.92 155.28 168.8 153 173C150.72 177.2 148.2 195.68 147 200C145.8 204.32 144.8 206.36 143 209C141.2 211.64 134.4 219.72 132 222C129.6 224.28 125.88 226.8 123 228C120.12 229.2 112.32 231.64 108 232C103.68 232.36 91.08 231.72 87 231C82.92 230.28 76.76 227.56 74 226C71.24 224.44 65.92 219.2 64 218C62.08 216.8 59.92 217.2 58 216C56.08 214.8 50.88 210.88 48 208C45.12 205.12 36.52 195.96 34 192C31.48 188.04 27.96 179.32 27 175C26.04 170.68 25.28 160.08 26 156ZM63 166C62.04 166.96 59.28 166.28 63 170C66.72 173.72 89.68 193.76 94 197C98.32 200.24 97.8 197.72 99 197C100.2 196.28 103.76 192.44 104 191C104.24 189.56 101.96 185.96 101 185C100.04 184.04 97.2 183.96 96 183C94.8 182.04 94 179.52 91 177C88 174.48 74.36 163.32 71 162C67.64 160.68 63.96 165.04 63 166ZM97 139C96.52 142 97.4 150.72 98 153C98.6 155.28 100.68 156.8 102 158C103.32 159.2 106.6 162.16 109 163C111.4 163.84 119.36 165.24 122 165C124.64 164.76 128.96 162.56 131 161C133.04 159.44 137.44 154.4 139 152C140.56 149.6 143.4 144.36 144 141C144.6 137.64 144.96 127.12 144 124C143.04 120.88 138.76 116.08 136 115C133.24 113.92 124.12 114.4 121 115C117.88 115.6 112.28 118.44 110 120C107.72 121.56 103.56 125.72 102 128C100.44 130.28 97.48 136 97 139ZM106 135C106.84 132.24 111.6 126.44 114 125C116.4 123.56 123.6 122.64 126 123C128.4 123.36 132.8 126.32 134 128C135.2 129.68 136 135.08 136 137C136 138.92 134.96 142.32 134 144C133.04 145.68 129.32 149.8 128 151C126.68 152.2 124.44 153.64 123 154C121.56 154.36 117.92 154.72 116 154C114.08 153.28 108.2 150.28 107 148C105.8 145.72 105.16 137.76 106 135Z" fill="#090909" fill-rule="evenodd"/></svg>
