<svg xmlns="http://www.w3.org/2000/svg" viewBox="0 0 256 256" role="img" aria-hidden="true"><rect x="8" y="8" width="240" height="240" rx="56" fill="#C8FF00"/><!-- Iconic Drills Pack © 2026 Roman Kuzhel, Kyrgyzstan | CC BY 4.0 | https://github.com/roblo3x/iconic-drills-pack --><path d="M34.06414,158.72951c4.33143,-0.27928 9.75076,-0.27935 13.64962,1.8746c2.33102,1.28779 3.71927,3.67358 6.03673,4.95126c2.75188,1.51719 6.63536,1.59268 9.68309,1.27009c6.42569,-0.68014 10.28345,-5.26519 15.42631,-8.54714c4.5486,-2.90273 11.50843,-5.48004 16.97738,-5.09979c4.69268,0.32628 10.88272,3.26587 14.43958,6.30293c2.51514,2.14758 3.8116,5.33212 7.33644,6.10398c10.75129,2.35429 18.11392,-8.21598 27.81731,-8.9228c5.30191,-0.38621 12.83049,-0.49776 17.28572,2.91128c2.49992,1.91288 3.05938,5.06358 6.53502,5.87798c4.29502,1.0064 9.20993,-2.27557 13.30289,-3.21744c2.3983,-0.5519 5.38639,-1.0094 7.75551,-0.07118c3.1677,1.25447 4.29045,4.35681 8.01589,4.73583c7.86388,0.80005 16.01495,-1.64545 23.88592,-1.76163c3.00933,-0.04442 6.32282,1.63973 5.47942,5.30188c-1.22741,5.32958 -8.14002,1.4844 -11.49233,1.80226c-5.52999,0.52434 -8.70137,5.88737 -14.23035,6.05699c-6.07902,0.18649 -10.43858,-6.30529 -16.67189,-4.03332c-3.12839,1.14026 -5.28472,3.96514 -8.38438,5.17872c-3.00032,1.17469 -6.6958,0.77062 -9.7536,0.01793c-6.48554,-1.59646 -10.60034,-8.41165 -17.87279,-7.48671c-4.47799,0.56953 -8.75542,3.58482 -12.73203,5.5443c-6.26971,3.08941 -14.14672,5.4734 -21.20089,4.12438c-3.80514,-0.72769 -7.78258,-2.41587 -10.81017,-4.84424c-3.62433,-2.907 -6.2102,-7.07934 -11.27468,-7.40073c-10.76363,-0.68307 -18.6267,10.30255 -29.69533,10.10206c-5.03979,-0.09129 -11.07942,-0.24986 -15.40721,-3.12655c-4.23398,-2.81434 -7.45303,-8.17555 -12.592,-9.44826c-3.28603,-0.81382 -5.10301,-7.96495 -1.50918,-8.19667zM31.85988,141.12235c4.09413,-1.99385 8.55822,-4.20605 13.25515,-3.29038c2.71955,0.53017 4.42946,2.51368 6.88875,3.5537c2.41825,1.02267 5.24454,0.87129 7.80229,0.68219c7.91779,-0.58538 12.72819,-5.916 18.93825,-10.16973c3.68203,-2.5221 8.10085,-5.07455 12.38975,-6.38074c1.79513,-0.54671 3.7339,-0.49223 5.37983,-1.49791c2.92526,-1.78736 4.68063,-4.14762 8.03708,-5.42326c5.72821,-2.17703 13.48651,-4.24577 16.09566,-10.64152c1.06087,-2.60048 -1.05989,-4.63045 -2.6683,-6.37678c-3.38119,-3.67111 -6.39132,-6.44148 -11.67319,-5.90033c-5.40084,0.55334 -10.32774,2.49492 -14.70987,5.65791c-4.55539,3.28806 -9.40275,8.36973 -15.2566,8.95589c-3.81508,0.38201 -12.93549,-0.02274 -12.10952,-5.82668c1.02534,-7.20487 11.07497,-12.98433 16.49247,-16.59194c6.67845,-4.4473 13.91511,-7.85555 21.25091,-11.06893c4.0835,-1.78874 8.69668,-4.12815 13.2872,-3.67811c3.92546,0.38484 7.61324,2.62262 11.03875,4.41164c5.89434,3.0784 11.81933,6.21807 17.47972,9.71249c3.64213,2.24845 8.25696,5.27567 10.16232,9.27156c1.16066,2.4341 1.34735,4.85964 3.04059,7.08688c1.27128,1.67222 3.55768,4.36934 6.01602,3.38783c1.74184,-0.69544 2.54453,-2.92697 3.25906,-4.45546c1.72316,-3.68612 3.23634,-7.22571 6.27702,-10.05226c12.0753,-11.22491 36.69644,-9.98344 39.4983,9.29259c1.95633,13.45904 -7.41517,27.0043 -21.2801,28.68061c-7.9339,0.95923 -16.00001,0.64323 -23.96677,1.14251c-2.35777,0.14776 -7.38717,0.39705 -5.51336,4.12211c0.84905,1.68789 2.58283,3.11398 3.99937,4.29985c1.94597,1.6291 4.21722,3.39152 6.84076,3.64731c6.64683,0.64806 12.27732,-5.73321 19.00407,-4.8886c5.61243,0.70469 9.97398,8.18078 15.75141,7.26921c3.29516,-0.51991 5.37443,-3.72926 8.45766,-4.77874c4.96436,-1.68979 15.23695,2.43558 16.11973,8.12685c0.41383,2.66796 -2.02557,4.34377 -4.47256,4.1608c-3.90855,-0.29226 -6.78654,-4.32969 -10.83835,-4.03199c-4.00274,0.29409 -6.20453,4.71713 -10.15775,5.37197c-5.12338,0.84867 -8.11129,-3.4421 -12.76826,-3.69908c-5.04257,-0.27826 -8.36693,3.22761 -13.01533,4.06922c-9.68899,1.75423 -16.11773,-8.97186 -25.23346,-10.27152c-6.13487,-0.87467 -11.37449,3.20042 -16.67214,5.61168c-4.86578,2.2147 -10.31752,2.70524 -15.61551,2.33858c-6.87758,-0.47598 -12.55097,-3.84414 -18.4564,-7.08078c-3.35348,-1.83797 -6.85483,-4.41945 -10.86766,-3.87548c-5.6803,0.77001 -11.97468,2.8301 -17.10768,5.34311c-4.67204,2.28733 -9.24905,5.73767 -14.58514,6.16461c-8.01113,0.64096 -12.5417,-7.51558 -19.98719,-7.44072c-4.2297,0.04253 -6.8162,3.62688 -10.80183,4.11088c-3.3452,0.40623 -1.81732,-7.68148 0.99486,-9.05102zM185.50674,113.19243c1.47646,-0.35886 3.25805,-2.22973 4.79139,-2.08776c3.96098,0.36674 1.81983,9.60732 8.30301,6.94877c0.5658,-0.23202 1.09843,-0.57791 1.53223,-1.00894c0.44128,-0.43847 0.76908,-0.98932 1.04163,-1.54852c0.28765,-0.59019 0.47261,-1.22939 0.62371,-1.86833c0.14663,-0.62002 0.27758,-1.2558 0.26575,-1.89282c-0.0879,-4.7298 -6.54689,0.25384 -6.9313,-3.86704c-0.59918,-6.42309 7.74451,0.13859 7.65873,-4.17339c-0.15041,-7.56106 -6.7128,-11.64139 -13.68211,-9.36543c-0.57869,0.18898 -1.16709,0.42048 -1.63971,0.80418c-5.61123,4.55552 7.43756,5.69123 3.28636,9.82953c-1.95682,1.95074 -4.12315,-1.24689 -5.86541,-1.65125c-2.14509,-0.49785 -5.41244,11.34618 0.61574,9.881z" fill="#090909" fill-rule="evenodd"/></svg>
