<svg xmlns="http://www.w3.org/2000/svg" viewBox="0 0 256 256" role="img" aria-hidden="true"><rect x="8" y="8" width="240" height="240" rx="56" fill="#C8FF00"/><!-- Iconic Drills Pack © 2026 Roman Kuzhel, Kyrgyzstan | CC BY 4.0 | https://github.com/roblo3x/iconic-drills-pack --><path d="M25 184C25.96 177.28 29.88 152.36 33 143C36.12 133.64 46.56 113.32 51 106C55.44 98.68 64.36 87.4 70 82C75.64 76.6 91.04 65.32 98 61C104.96 56.68 119.96 48.52 128 46C136.04 43.48 155.64 40.48 165 40C174.36 39.52 198.92 40.92 206 42C213.08 43.08 221.24 47.44 224 49C226.76 50.56 228.16 53.68 229 55C229.84 56.32 230.88 56.28 231 60C231.12 63.72 230.84 78.8 230 86C229.16 93.2 225.32 114.12 224 120C222.68 125.88 221.16 130.44 219 135C216.84 139.56 211.04 151.52 206 158C200.96 164.48 184.2 183.36 177 189C169.8 194.64 152.36 202.24 146 205C139.64 207.76 129.64 210.8 124 212C118.36 213.2 106.2 214.64 99 215C91.8 215.36 70.24 215.36 64 215C57.76 214.64 50.84 213.08 47 212C43.16 210.92 34.64 207.56 32 206C29.36 204.44 25.84 201.64 25 199C24.16 196.36 24.04 190.72 25 184ZM81 153C80.04 154.44 80.4 156.52 81 157C81.6 157.48 84.8 157.6 86 157C87.2 156.4 89.8 152.72 91 152C92.2 151.28 94.56 149.92 96 151C97.44 152.08 101.32 159.68 103 161C104.68 162.32 109.04 162.48 110 162C110.96 161.52 111.96 158.92 111 157C110.04 155.08 102.72 148.04 102 146C101.28 143.96 103.44 141.68 105 140C106.56 138.32 113.44 132.96 115 132C116.56 131.04 117.16 131.16 118 132C118.84 132.84 120.8 137.44 122 139C123.2 140.56 126.92 144.28 128 145C129.08 145.72 130.28 145.72 131 145C131.72 144.28 134.84 141.16 134 139C133.16 136.84 124.6 129.28 124 127C123.4 124.72 127.2 121.44 129 120C130.8 118.56 136.72 114.16 139 115C141.28 115.84 146.32 125.56 148 127C149.68 128.44 152.28 127.72 153 127C153.72 126.28 154.96 123.28 154 121C153.04 118.72 144.28 111 145 108C145.72 105 157.96 97.44 160 96C162.04 94.56 160.56 94.56 162 96C163.44 97.44 169.96 106.68 172 108C174.04 109.32 178.28 107.84 179 107C179.72 106.16 179.92 104.12 178 101C176.08 97.88 165.76 84.36 163 81C160.24 77.64 156.44 73.96 155 73C153.56 72.04 151.72 72.28 151 73C150.28 73.72 148.52 77.44 149 79C149.48 80.56 154.16 84.56 155 86C155.84 87.44 157.68 89.08 156 91C154.32 92.92 143.04 100.68 141 102C138.96 103.32 140.32 103.32 139 102C137.68 100.68 131.56 92.32 130 91C128.44 89.68 126.72 90.4 126 91C125.28 91.6 123.28 94.2 124 96C124.72 97.8 131.04 104.44 132 106C132.96 107.56 133.44 107.44 132 109C130.56 110.56 121.68 117.8 120 119C118.32 120.2 119.08 120.08 118 119C116.92 117.92 112.68 111.2 111 110C109.32 108.8 104.96 108.52 104 109C103.04 109.48 102.28 112.44 103 114C103.72 115.56 109.04 120.44 110 122C110.96 123.56 112.56 125.08 111 127C109.44 128.92 99.76 137.88 97 138C94.24 138.12 89.68 129.2 88 128C86.32 126.8 83.72 127.28 83 128C82.28 128.72 81.28 131.96 82 134C82.72 136.04 89.12 142.72 89 145C88.88 147.28 81.96 151.56 81 153Z" fill="#090909" fill-rule="evenodd"/></svg>
