<svg xmlns="http://www.w3.org/2000/svg" viewBox="0 0 256 256" role="img" aria-hidden="true"><rect x="8" y="8" width="240" height="240" rx="56" fill="#C8FF00"/><!-- Iconic Drills Pack © 2026 Roman Kuzhel, Kyrgyzstan | CC BY 4.0 | https://github.com/roblo3x/iconic-drills-pack --><path d="M29.538,96.03244c1.95147,-1.69538 4.99239,-1.73684 7.41859,-1.93909c2.1632,-0.18033 5.47864,-0.82819 7.20431,0.95425c2.6296,2.71611 2.48959,9.68372 2.95978,13.23258c1.82292,13.75865 2.12102,27.97611 2.04977,41.84599c-0.02554,4.97165 -0.28311,13.48278 -5.78693,15.85958c-6.52423,2.81746 -13.20672,-3.78373 -14.77543,-9.4764c-3.98525,-14.4621 -2.9507,-57.10557 0.92989,-60.47692zM56.41997,77.44162c8.5247,-1.51838 21.77917,-4.62422 28.69158,2.36954c6.46348,6.53955 6.99548,17.83152 7.10595,26.34391c0.05383,4.14786 0.46344,7.86385 5.49745,7.68519c11.96585,-0.42467 23.41693,-5.67816 35.42339,-5.88127c5.98845,-0.1013 11.96685,0.77635 17.94905,0.95159c2.4042,0.07043 5.53099,0.39548 7.73653,-0.80687c3.56141,-1.9415 2.30407,-7.44946 1.82222,-10.64361c-1.3781,-9.13537 -3.86798,-24.67842 9.522,-25.56349c5.28566,-0.34938 10.68674,-0.17637 15.97961,-0.05872c2.47635,0.05504 5.43799,-0.12935 7.60976,1.30165c6.44547,4.24698 8.09552,16.68983 9.56686,23.56059c4.32254,20.18517 5.65081,40.94051 4.66627,61.57276c-0.2787,5.84041 0.14411,16.58184 -3.68494,21.36051c-2.39464,2.98852 -7.64764,2.54057 -11.05561,2.6052c-9.14534,0.17344 -17.54972,0.97778 -22.41333,-8.11242c-3.67235,-6.86371 -3.66683,-15.77854 -4.72251,-23.35198c-0.14451,-1.0367 -0.32647,-7.26808 -1.69776,-7.30219c-4.73821,-0.11787 -10.27098,1.46341 -15.02557,2.03537c-12.54568,1.5092 -25.11611,3.29965 -37.71643,4.28405c-4.16991,0.32578 -7.77528,-0.19275 -11.76322,-1.393c-1.54479,-0.46493 -3.71698,-1.37015 -5.2035,-0.14749c-1.85387,1.52481 -1.42468,5.1516 -1.40085,7.22711c0.07358,6.40708 1.702,13.60414 0.33193,19.91542c-0.96786,4.45846 -4.25333,6.0062 -8.38386,6.87848c-7.16857,1.51383 -14.52165,2.05844 -21.83377,2.1582c-2.93313,0.04002 -7.04944,0.5961 -9.71117,-0.93044c-2.3662,-1.35705 -2.62919,-4.30741 -2.83612,-6.73035c-0.50177,-5.87542 -0.59353,-12.13601 1.39245,-17.73657c2.47395,-6.97669 1.80357,-14.41406 1.4448,-21.70385c-0.91897,-18.67216 -2.35435,-58.98551 2.70881,-59.88733zM101.69201,133.80774c1.78594,3.85475 9.71165,3.17324 12.22464,0.54887c6.75578,-7.05518 -13.57877,-3.47162 -12.22464,-0.54887zM110.15015,129.90821c-0.50818,3.53217 0.61277,-4.25911 0,0zM140.05559,135.05442c2.67242,-0.41249 4.8613,-2.13737 6.84111,-3.85815c1.7478,-1.51913 4.30029,-3.68381 4.28946,-6.26032c-0.01399,-3.32772 -4.97703,-4.12583 -7.39492,-4.68337c-6.55793,-1.51219 -11.10125,15.93872 -3.73565,14.80184zM141.28635,126.68276c0.52457,4.5522 -0.54191,-4.70276 0,0zM211.2344,87.64492c5.25371,-0.17498 8.68873,0.64207 11.99442,4.94317c3.0836,4.01214 6.62645,8.77201 8.20428,13.62758c2.82168,8.68341 -0.34669,20.84362 -1.25753,29.75149c-0.87101,8.51838 -1.18433,18.3884 -11.66319,20.19822c-7.26446,1.25465 -6.28343,-8.44101 -6.46449,-13.13079c-0.38162,-9.88464 0.18411,-20.12675 -1.57293,-29.89187c-1.37397,-7.63612 -2.7834,-25.3798 0.75945,-25.4978z" fill="#090909" fill-rule="evenodd"/></svg>
