<svg xmlns="http://www.w3.org/2000/svg" viewBox="0 0 256 256" role="img" aria-hidden="true"><rect x="8" y="8" width="240" height="240" rx="56" fill="#C8FF00"/><!-- Iconic Drills Pack © 2026 Roman Kuzhel, Kyrgyzstan | CC BY 4.0 | https://github.com/roblo3x/iconic-drills-pack --><path d="M25 111C25.36 106.8 27.28 99.92 28 98C28.72 96.08 29.32 95.48 31 95C32.68 94.52 40.32 93.88 42 94C43.68 94.12 44.28 93.24 45 96C45.72 98.76 47.52 109.92 48 117C48.48 124.08 49.48 149.12 49 155C48.52 160.88 45.68 164.8 44 166C42.32 167.2 36.8 165.96 35 165C33.2 164.04 30.2 161.84 29 158C27.8 154.16 25.48 138.64 25 133C24.52 127.36 24.64 115.2 25 111ZM46 82C45.52 76.24 46.6 79.72 49 79C51.4 78.28 62.52 76.36 66 76C69.48 75.64 75.96 75.76 78 76C80.04 76.24 81.92 77.28 83 78C84.08 78.72 85.92 79.84 87 82C88.08 84.16 91.28 92.28 92 96C92.72 99.72 91.56 110.96 93 113C94.44 115.04 99.44 113.6 104 113C108.56 112.4 124.28 108.6 131 108C137.72 107.4 156.64 110.52 160 108C163.36 105.48 158.88 90.72 159 87C159.12 83.28 160.4 78.56 161 77C161.6 75.44 163.16 74.6 164 74C164.84 73.4 164.88 72.24 168 72C171.12 71.76 186.76 71.76 190 72C193.24 72.24 193.68 72.2 195 74C196.32 75.8 199.56 81.72 201 87C202.44 92.28 206.16 109.6 207 118C207.84 126.4 208.24 149.68 208 157C207.76 164.32 206.2 176 205 179C203.8 182 200.88 181.64 198 182C195.12 182.36 183.76 182.24 181 182C178.24 181.76 176.44 181.44 175 180C173.56 178.56 170.2 174.32 169 170C167.8 165.68 165.84 147.12 165 144C164.16 140.88 168.72 143.28 162 144C155.28 144.72 117.16 149.52 109 150C100.84 150.48 95.8 145.12 94 148C92.2 150.88 94.48 170.04 94 174C93.52 177.96 92.52 179.8 90 181C87.48 182.2 77.32 183.64 73 184C68.68 184.36 56.64 184.72 54 184C51.36 183.28 51.36 180.52 51 178C50.64 175.48 50.64 166 51 163C51.36 160 53.76 157.32 54 153C54.24 148.68 53.96 135.52 53 127C52.04 118.48 46.48 87.76 46 82ZM102 126C101.64 127.44 100.92 133.8 102 135C103.08 136.2 109.44 136.24 111 136C112.56 135.76 114.52 134.08 115 133C115.48 131.92 115.36 128.08 115 127C114.64 125.92 113.2 124.48 112 124C110.8 123.52 106.2 122.76 105 123C103.8 123.24 102.36 124.56 102 126ZM105 128C105.48 127.4 108.4 126.64 109 127C109.6 127.36 110.48 130.4 110 131C109.52 131.6 105.6 132.36 105 132C104.4 131.64 104.52 128.6 105 128ZM129 126C128.52 127.56 128.56 131.92 130 133C131.44 134.08 138.6 135.6 141 135C143.4 134.4 148.8 129.44 150 128C151.2 126.56 151.96 123.96 151 123C150.04 122.04 144.04 120.36 142 120C139.96 119.64 135.56 119.28 134 120C132.44 120.72 129.48 124.44 129 126ZM135 126C135.48 125.28 139.28 123.64 140 124C140.72 124.36 141.48 128.28 141 129C140.52 129.72 136.72 130.36 136 130C135.28 129.64 134.52 126.72 135 126ZM205 90C204.76 86.64 207.2 88.12 209 88C210.8 87.88 217.36 86.96 220 89C222.64 91.04 229.56 101.88 231 105C232.44 108.12 232.24 110.08 232 115C231.76 119.92 229.6 141.68 229 146C228.4 150.32 227.84 149.92 227 151C226.16 152.08 223.68 154.64 222 155C220.32 155.36 214.32 158.68 213 154C211.68 149.32 211.96 123.68 211 116C210.04 108.32 205.24 93.36 205 90Z" fill="#090909" fill-rule="evenodd"/></svg>
