<svg xmlns="http://www.w3.org/2000/svg" viewBox="0 0 256 256" role="img" aria-hidden="true"><rect x="8" y="8" width="240" height="240" rx="56" fill="#C8FF00"/><!-- Iconic Drills Pack © 2026 Roman Kuzhel, Kyrgyzstan | CC BY 4.0 | https://github.com/roblo3x/iconic-drills-pack --><path d="M25 192C25.12 187.92 26.16 185.8 27 184C27.84 182.2 29.24 177.84 32 177C34.76 176.16 46.88 176.64 50 177C53.12 177.36 55.6 179.64 58 180C60.4 180.36 68.08 180.24 70 180C71.92 179.76 72.32 179.8 74 178C75.68 176.2 79.92 171.96 84 165C88.08 158.04 104.04 128.4 108 120C111.96 111.6 119.16 97.16 117 95C114.84 92.84 93.72 100.56 90 102C86.28 103.44 87.08 103.16 86 107C84.92 110.84 82.2 130.28 81 134C79.8 137.72 77.44 137.64 76 138C74.56 138.36 70.44 137.96 69 137C67.56 136.04 64.72 132.64 64 130C63.28 127.36 62.88 118.84 63 115C63.12 111.16 64.04 101.36 65 98C65.96 94.64 69.68 88.92 71 87C72.32 85.08 73.12 83.44 76 82C78.88 80.56 89.24 76.56 95 75C100.76 73.44 120.16 70.08 124 69C127.84 67.92 125.8 66.48 127 66C128.2 65.52 133.16 66.2 134 65C134.84 63.8 134.6 57.08 134 56C133.4 54.92 131.88 54.92 129 56C126.12 57.08 113 63.92 110 65C107 66.08 104.96 65.24 104 65C103.04 64.76 101.88 63.96 102 63C102.12 62.04 103.2 58.2 105 57C106.8 55.8 115.56 53.84 117 53C118.44 52.16 118.56 50.12 117 50C115.44 49.88 105.68 52.24 104 52C102.32 51.76 102.76 48.84 103 48C103.24 47.16 103.84 46.08 106 45C108.16 43.92 118 39.84 121 39C124 38.16 129.8 38.48 131 38C132.2 37.52 133.64 34.88 131 35C128.36 35.12 113.2 37.44 109 39C104.8 40.56 98.16 47.16 96 48C93.84 48.84 91.6 46.72 91 46C90.4 45.28 90.52 42.84 91 42C91.48 41.16 91.76 40.8 95 39C98.24 37.2 114.28 28.68 118 27C121.72 25.32 121.2 25.24 126 25C130.8 24.76 152.6 24.76 158 25C163.4 25.24 168.48 26.16 171 27C173.52 27.84 177.2 30.08 179 32C180.8 33.92 184.92 40.6 186 43C187.08 45.4 188 49.6 188 52C188 54.4 187.44 60.12 186 63C184.56 65.88 177.56 74.32 176 76C174.44 77.68 173.36 76.28 173 77C172.64 77.72 170.6 79.96 173 82C175.4 84.04 190.12 92.56 193 94C195.88 95.44 196.04 94.48 197 94C197.96 93.52 198.96 93.24 201 90C203.04 86.76 212.2 71.32 214 67C215.8 62.68 216.12 56.04 216 54C215.88 51.96 213.36 51.08 213 50C212.64 48.92 212.64 45.96 213 45C213.36 44.04 214.32 42 216 42C217.68 42 225.2 43.8 227 45C228.8 46.2 230.4 49.96 231 52C231.6 54.04 232.48 58.76 232 62C231.52 65.24 228.8 75.4 227 79C225.2 82.6 218.92 89 217 92C215.08 95 213.28 101.36 211 104C208.72 106.64 200.76 112.8 198 114C195.24 115.2 192.56 115.32 188 114C183.44 112.68 163.72 102.88 160 103C156.28 103.12 158.32 111.76 157 115C155.68 118.24 149.96 127.84 149 130C148.04 132.16 148.16 132.64 149 133C149.84 133.36 153.48 132.28 156 133C158.52 133.72 167 138.04 170 139C173 139.96 178.6 140.04 181 141C183.4 141.96 187.96 143.04 190 147C192.04 150.96 196.68 167.64 198 174C199.32 180.36 198.96 197.12 201 200C203.04 202.88 212 197.76 215 198C218 198.24 224.92 200.32 226 202C227.08 203.68 225.08 210.08 224 212C222.92 213.92 220.84 215.84 217 218C213.16 220.16 196.32 228.56 192 230C187.68 231.44 182.92 230.36 181 230C179.08 229.64 177.2 228.92 176 227C174.8 225.08 171.96 219.28 171 214C170.04 208.72 168.96 188.28 168 183C167.04 177.72 166.6 172.64 163 170C159.4 167.36 142.56 163.04 138 161C133.44 158.96 126.92 153.96 125 153C123.08 152.04 122.36 152.52 122 153C121.64 153.48 124.52 151.6 122 157C119.48 162.4 104.84 191.88 101 198C97.16 204.12 94.2 206.8 90 208C85.8 209.2 71.16 208.96 66 208C60.84 207.04 50 198.68 47 200C44 201.32 42.2 216.24 41 219C39.8 221.76 38.08 222.4 37 223C35.92 223.6 33.32 224.6 32 224C30.68 223.4 26.84 221.84 26 218C25.16 214.16 24.88 196.08 25 192ZM147 53C145.32 56.84 146.56 65.48 148 68C149.44 70.52 157.08 73.28 159 74C160.92 74.72 162.68 75.32 164 74C165.32 72.68 168.8 64.56 170 63C171.2 61.44 173.28 61.96 174 61C174.72 60.04 175.76 56.2 176 55C176.24 53.8 177.32 51.12 176 51C174.68 50.88 166.8 54.12 165 54C163.2 53.88 161.36 50.96 161 50C160.64 49.04 160.68 46.72 162 46C163.32 45.28 171.04 45.2 172 44C172.96 42.8 171.2 36.96 170 36C168.8 35.04 164.76 33.96 162 36C159.24 38.04 148.68 49.16 147 53Z" fill="#090909" fill-rule="evenodd"/></svg>
