<svg xmlns="http://www.w3.org/2000/svg" viewBox="0 0 256 256" role="img" aria-hidden="true"><rect x="8" y="8" width="240" height="240" rx="56" fill="#C8FF00"/><!-- Iconic Drills Pack © 2026 Roman Kuzhel, Kyrgyzstan | CC BY 4.0 | https://github.com/roblo3x/iconic-drills-pack --><path d="M39.12871,105.2048c2.85358,-1.84158 5.5462,-2.93618 8.08621,-5.31737c10.21299,-9.5744 19.79001,-19.83068 30.12209,-29.27781c3.42588,-3.13246 7.54003,-5.4058 10.95233,-8.49213c1.56498,-1.41548 2.25905,-3.55327 3.6992,-5.12635c3.14325,-3.43338 6.59004,-6.62903 9.90046,-9.90028c5.69025,-5.62293 11.38624,-11.24833 17.22689,-16.71566c1.90592,-1.7841 4.8672,-5.49911 7.79436,-5.34484c3.7076,0.1954 6.59078,7.30526 8.92885,9.6913c6.01713,6.14057 13.0875,11.4807 19.69123,16.9731c2.03032,1.68864 4.99634,5.19118 7.69951,5.67398c1.93921,0.34635 1.71788,-2.33467 1.71021,-3.40276c-0.01533,-2.13531 -0.85009,-5.48833 1.27515,-6.98379c1.5312,-1.07745 3.69867,-0.65544 5.38537,-1.33848c2.14523,-0.86873 3.73588,-3.77655 6.31284,-3.40976c2.52752,0.35975 3.5694,3.16841 6.32072,3.17428c1.8541,0.00395 3.6487,-1.21485 5.5319,-0.71217c3.64672,0.97341 2.5149,7.56994 2.43961,10.26802c-0.18593,6.66281 -0.64469,13.32484 -0.62646,19.9923c0.0088,3.21805 -0.07345,6.77505 2.00942,9.45511c2.52457,3.2484 6.77823,4.00686 9.89563,6.44518c2.64857,2.07162 3.83658,5.36326 6.37511,7.50077c1.50703,1.26896 3.43118,1.74764 5.01291,2.89455c4.54987,3.29912 7.84608,9.54809 11.03641,14.0925c1.82541,2.60017 4.22996,5.38108 5.23658,8.43732c1.0284,3.12237 -0.11678,6.36806 -3.86566,5.57009c-5.09504,-1.08451 -14.61923,-7.19727 -16.24418,1.67571c-1.27039,6.93692 0.11158,14.96696 0.60621,21.9494c0.98949,13.96811 2.33983,27.90695 3.5393,41.85773c0.71194,8.28034 3.05254,19.87055 -0.25063,27.80229c-1.11802,2.68464 -3.47442,3.29422 -6.12547,3.61856c-5.91851,0.72408 -12.01881,0.76775 -17.97504,0.91099c-2.88275,0.06932 -7.6722,2.38222 -8.53417,-1.37876c-1.57366,-6.8663 -0.78043,-14.90933 -0.94108,-21.92796c-0.30517,-13.33229 -0.52973,-26.66628 -0.8276,-39.99872c-0.11906,-5.32878 -0.16845,-10.67306 -0.48191,-15.99484c-0.05825,-0.98898 0.16867,-4.09547 -1.03779,-4.70481c-0.44713,-0.22583 -2.58949,0.44231 -2.75166,0.46839c-3.21291,0.51673 -6.62975,0.05309 -9.87761,0.19216c-4.20247,0.17994 -13.93688,0.44651 -16.53999,4.44935c-2.58109,3.96899 -0.68134,12.9895 -0.48435,17.50465c0.66805,15.31221 1.57768,30.6482 1.38867,45.98128c-0.09545,7.7433 1.17589,19.74853 -8.7938,21.3518c-8.56257,1.37698 -17.29845,-1.86781 -25.71506,-2.91054c-6.60448,-0.81822 -13.13853,-2.38394 -19.75601,-3.00846c-7.93085,-0.74847 -16.03755,-0.18447 -23.99316,-0.16719c-5.30029,0.01151 -10.71347,0.16129 -15.98597,-0.46719c-2.40641,-0.28684 -5.42746,-0.7235 -7.00389,-2.82106c-1.5451,-2.05586 -1.27795,-5.14928 -1.36197,-7.56c-0.23259,-6.67329 -0.20978,-13.32291 -0.06735,-19.99821c0.32713,-15.33222 0.84337,-30.66175 0.94471,-45.99809c0.05069,-7.67121 0.92081,-16.43508 -0.90645,-23.94258c-2.52564,-10.37682 -14.16666,-1.50291 -19.89248,-0.01042c-3.94545,1.02841 5.54042,-17.55018 10.91786,-21.02056zM70.43795,130.56193c0.15587,1.83389 0.29509,4.02624 1.36863,5.60926c2.77367,4.08996 12.83988,3.02041 16.52167,0.82854c3.45318,-2.05578 3.2996,-7.08745 3.38657,-10.59283c0.08523,-3.43517 0.51045,-8.582 -1.5214,-11.57809c-3.23791,-4.77452 -20.19924,10.51188 -19.75547,15.73312zM71.53999,165.58624c2.15074,4.56334 14.49781,4.50862 17.8637,1.51673c3.67692,-3.26837 2.6266,-12.81609 1.84789,-17.11846c-0.33517,-1.8518 -0.88334,-3.65506 -2.75295,-4.49758c-4.18371,-1.88534 -18.98395,15.80208 -16.95864,20.09931zM97.50083,130.69264c0.23298,1.85954 0.54775,3.95888 1.9854,5.33077c2.2845,2.18 6.52565,2.05636 9.43947,1.97072c2.43715,-0.07163 5.54742,-0.18278 7.49918,-1.87981c3.53756,-3.07586 3.11007,-11.02664 2.87965,-15.24469c-0.10079,-1.84509 -0.22135,-4.03527 -1.48049,-5.53292c-3.54677,-4.21861 -20.969,10.20139 -20.32321,15.35592zM98.83777,165.29316c2.24035,3.10409 7.56158,3.15315 10.98652,3.22441c2.39051,0.04974 5.58107,0.17357 7.56179,-1.4477c1.54554,-1.26506 1.90207,-3.33646 2.15002,-5.18565c0.56173,-4.18928 1.37979,-12.07883 -1.66252,-15.53007c-3.65326,-4.14432 -22.36403,14.32763 -19.03581,18.939zM174.5294,183.24716c1.52185,2.22967 1.72397,9.17126 -0.4835,11.06424c-1.95869,1.67964 -5.05784,0.217 -6.0478,-1.80244c-1.34695,-2.74768 4.38171,-12.41118 6.5313,-9.2618z" fill="#090909" fill-rule="evenodd"/></svg>
