<svg xmlns="http://www.w3.org/2000/svg" viewBox="0 0 256 256" role="img" aria-hidden="true"><rect x="8" y="8" width="240" height="240" rx="56" fill="#C8FF00"/><!-- Iconic Drills Pack © 2026 Roman Kuzhel, Kyrgyzstan | CC BY 4.0 | https://github.com/roblo3x/iconic-drills-pack --><path d="M24 69C24.36 67.8 26.44 65.48 28 65C29.56 64.52 34.84 64.52 37 65C39.16 65.48 42.28 68.52 46 69C49.72 69.48 64.4 69.48 68 69C71.6 68.52 74.2 65.48 76 65C77.8 64.52 81.56 64.52 83 65C84.44 65.48 87.4 67.8 88 69C88.6 70.2 88.48 73.8 88 75C87.52 76.2 84.48 78.16 84 79C83.52 79.84 83.28 81.4 84 82C84.72 82.6 80.04 84.36 90 84C99.96 83.64 153.68 78.88 167 79C180.32 79.12 195.12 82.96 201 85C206.88 87.04 213.36 93.24 216 96C218.64 98.76 221.68 105.12 223 108C224.32 110.88 226.4 117.12 227 120C227.6 122.88 227.4 129.72 228 132C228.6 134.28 231.52 136.96 232 139C232.48 141.04 232.6 147.2 232 149C231.4 150.8 228.44 153.88 227 154C225.56 154.12 221.08 150.96 220 150C218.92 149.04 218.36 148.88 218 146C217.64 143.12 217.48 129.48 217 126C216.52 122.52 214.72 118.08 214 117C213.28 115.92 211.24 110.64 211 117C210.76 123.36 212 162.32 212 170C212 177.68 211.6 178.6 211 181C210.4 183.4 208.32 188.8 207 190C205.68 191.2 201.44 191.24 200 191C198.56 190.76 195.96 191.6 195 188C194.04 184.4 192.6 164.72 192 161C191.4 157.28 190.6 157.48 190 157C189.4 156.52 187.84 153.16 187 157C186.16 160.84 183.96 184.8 183 189C182.04 193.2 180.32 191.64 179 192C177.68 192.36 173.2 192.36 172 192C170.8 191.64 169.48 193.44 169 189C168.52 184.56 168.48 159.56 168 155C167.52 150.44 165.96 151.72 165 151C164.04 150.28 163.84 149.24 160 149C156.16 148.76 137.08 148.64 133 149C128.92 149.36 127.08 150.92 126 152C124.92 153.08 124.24 153.8 124 158C123.76 162.2 124.48 183.04 124 187C123.52 190.96 121.08 190.52 120 191C118.92 191.48 116.08 191.36 115 191C113.92 190.64 111.96 192.08 111 188C110.04 183.92 107.6 160.96 107 157C106.4 153.04 106.6 155.24 106 155C105.4 154.76 102.96 151.16 102 155C101.04 158.84 99.08 182.68 98 187C96.92 191.32 94.56 190.64 93 191C91.44 191.36 86.2 190.36 85 190C83.8 189.64 83.12 192.92 83 188C82.88 183.08 84.24 155.24 84 149C83.76 142.76 81.84 138.28 81 136C80.16 133.72 77.84 130.72 77 130C76.16 129.28 75.44 128.56 74 130C72.56 131.44 67.28 140.08 65 142C62.72 143.92 58 145.64 55 146C52 146.36 43 145.96 40 145C37 144.04 31.44 140.4 30 138C28.56 135.6 27.04 128.96 28 125C28.96 121.04 36.2 110.16 38 105C39.8 99.84 44.08 85.12 43 82C41.92 78.88 31.16 79.84 29 79C26.84 78.16 25.6 76.2 25 75C24.4 73.8 23.64 70.2 24 69ZM41 122C40.16 124.04 40.64 125.28 41 126C41.36 126.72 42.44 127.4 44 128C45.56 128.6 51.96 130.76 54 131C56.04 131.24 58.48 133.24 61 130C63.52 126.76 73.32 108.2 75 104C76.68 99.8 75.48 96.44 75 95C74.52 93.56 72.44 92.48 71 92C69.56 91.52 64.44 91.6 63 91C61.56 90.4 59.48 87.84 59 87C58.52 86.16 59.48 84.36 59 84C58.52 83.64 56.32 81 55 84C53.68 87 49.68 104.44 48 109C46.32 113.56 41.84 119.96 41 122ZM56 101C56.6 100.04 59.92 97.36 61 97C62.08 96.64 64.28 97.64 65 98C65.72 98.36 66.76 98.92 67 100C67.24 101.08 67.96 105.92 67 107C66.04 108.08 60.32 109.24 59 109C57.68 108.76 56.36 105.96 56 105C55.64 104.04 55.4 101.96 56 101ZM92 106C91.76 108.16 92.56 115 94 118C95.44 121 101.96 129.08 104 131C106.04 132.92 108.96 133.64 111 134C113.04 134.36 118.96 134.6 121 134C123.04 133.4 126.92 130.2 128 129C129.08 127.8 129.88 125.44 130 124C130.12 122.56 129.72 119.16 129 117C128.28 114.84 125.2 107.92 124 106C122.8 104.08 120.44 101.96 119 101C117.56 100.04 114.16 98.36 112 98C109.84 97.64 102.92 97.76 101 98C99.08 98.24 97.08 99.04 96 100C94.92 100.96 92.24 103.84 92 106ZM161 104C160.4 106.88 161.52 117.12 162 120C162.48 122.88 164.04 126.44 165 128C165.96 129.56 167.6 132.16 170 133C172.4 133.84 182.12 135.48 185 135C187.88 134.52 192.56 130.56 194 129C195.44 127.44 196.64 124.04 197 122C197.36 119.96 197.36 114.28 197 112C196.64 109.72 194.84 104.56 194 103C193.16 101.44 191.8 99.96 190 99C188.2 98.04 181.4 95.48 179 95C176.6 94.52 171.44 94.88 170 95C168.56 95.12 168.08 94.92 167 96C165.92 97.08 161.6 101.12 161 104Z" fill="#090909" fill-rule="evenodd"/></svg>
