<svg xmlns="http://www.w3.org/2000/svg" viewBox="0 0 256 256" role="img" aria-hidden="true"><rect x="8" y="8" width="240" height="240" rx="56" fill="#0AF40B"/><!-- Iconic Drills Pack © 2026 Roman Kuzhel, Kyrgyzstan | CC BY 4.0 | https://github.com/roblo3x/iconic-drills-pack --><path d="M99 184L88 190L78 203L65 208L35 207L29 205L24 198L24 194L28 188L35 185L52 184L47 169L54 144L45 113L32 79L30 68L30 57L38 49L49 48L53 50L60 59L70 90L77 132L83 130L86 120L88 91L93 61L101 50L107 48L112 49L119 55L121 60L121 85L105 134L128 123L144 118L161 117L179 121L196 131L208 143L214 156L230 177L232 183L230 197L224 201L212 202L203 202L196 199L185 179L175 177L174 186L176 197L173 202L167 205L150 204L145 198L142 184L133 178L113 178ZM71 153L66 155L63 160L63 165L66 168L73 168L79 162L78 154Z" fill="#090909" fill-rule="evenodd"/></svg>
