<svg xmlns="http://www.w3.org/2000/svg" viewBox="0 0 256 256" role="img" aria-hidden="true"><rect x="8" y="8" width="240" height="240" rx="56" fill="#C8FF00"/><!-- Iconic Drills Pack © 2026 Roman Kuzhel, Kyrgyzstan | CC BY 4.0 | https://github.com/roblo3x/iconic-drills-pack --><path d="M42 73C42.36 66.4 44.8 44.52 46 39C47.2 33.48 50.56 27.96 52 27C53.44 26.04 57.04 29.8 58 31C58.96 32.2 58.68 34.84 60 37C61.32 39.16 67.8 46.96 69 49C70.2 51.04 68.32 53.4 70 54C71.68 54.6 80.36 54.24 83 54C85.64 53.76 88.04 55.48 92 52C95.96 48.52 112.64 28.24 116 25C119.36 21.76 119.28 24.76 120 25C120.72 25.24 121.64 24.36 122 27C122.36 29.64 123.12 42.44 123 47C122.88 51.56 121.12 59.84 121 65C120.88 70.16 122.12 85.92 122 90C121.88 94.08 114.96 93.72 120 99C125.04 104.28 157.52 125.96 164 134C170.48 142.04 172.56 158.08 174 166C175.44 173.92 175.28 195.8 176 200C176.72 204.2 179.16 201.12 180 201C180.84 200.88 181.32 200.8 183 199C184.68 197.2 193.04 190.44 194 186C194.96 181.56 191.6 165.24 191 162C190.4 158.76 189 162.24 189 159C189 155.76 190.4 138.6 191 135C191.6 131.4 193.04 130.08 194 129C194.96 127.92 197.68 126.24 199 126C200.32 125.76 203.92 126.28 205 127C206.08 127.72 206.8 124.08 208 132C209.2 139.92 215.6 183.4 215 193C214.4 202.6 206.6 208.28 203 212C199.4 215.72 188.96 222.08 185 224C181.04 225.92 181.88 227.16 170 228C158.12 228.84 96.68 231.12 86 231C75.32 230.88 81.6 228.44 81 227C80.4 225.56 80.52 220.68 81 219C81.48 217.32 83.8 214.08 85 213C86.2 211.92 90.16 212.16 91 210C91.84 207.84 92.12 200.64 92 195C91.88 189.36 90.72 167.08 90 163C89.28 158.92 87.92 153.68 86 161C84.08 168.32 76.04 215.84 74 224C71.96 232.16 70.32 228.16 69 229C67.68 229.84 65.4 230.76 63 231C60.6 231.24 51.52 231.36 49 231C46.48 230.64 42.6 229.8 42 228C41.4 226.2 42.8 218.28 44 216C45.2 213.72 50.68 209.84 52 209C53.32 208.16 53.44 219.2 55 209C56.56 198.8 63.8 135.52 65 124C66.2 112.48 66.32 115.16 65 113C63.68 110.84 56.64 108.28 54 106C51.36 103.72 44.44 97.96 43 94C41.56 90.04 41.64 79.6 42 73Z" fill="#090909" fill-rule="evenodd"/></svg>
