<svg xmlns="http://www.w3.org/2000/svg" viewBox="0 0 256 256" role="img" aria-hidden="true"><rect x="8" y="8" width="240" height="240" rx="56" fill="#C8FF00"/><!-- Iconic Drills Pack © 2026 Roman Kuzhel, Kyrgyzstan | CC BY 4.0 | https://github.com/roblo3x/iconic-drills-pack --><path d="M41.44396,105.99761c3.65301,-3.75747 8.44202,-6.66147 12.68196,-9.71013c5.35143,-3.84786 10.74099,-8.07907 16.62118,-11.09553c6.54765,-3.35886 14.46584,-3.17087 20.84104,-6.71551c3.50106,-1.9466 5.95806,-5.27977 9.37663,-7.36827c12.65399,-7.73069 27.16071,-11.61848 41.89293,-10.96974c3.61153,0.15903 8.4292,-0.29215 11.83342,1.04993c2.71188,1.06913 2.17474,3.86319 0.96371,5.90926c-2.00836,3.39318 -5.39352,5.94382 -7.76244,9.08866c-0.9952,1.32117 -2.42499,3.11036 -1.73367,4.92162c1.17197,3.0706 7.16986,4.59416 9.87587,5.78278c6.79477,2.98462 13.11178,6.35409 19.26439,10.52111c2.37388,1.60778 4.74628,5.13569 7.37085,6.08347c4.56924,1.65003 6.93274,-5.64898 9.05315,-8.28648c6.87556,-8.55222 15.36142,-20.28425 25.2328,-25.40637c3.00968,-1.56168 14.02259,-6.50149 15.56863,-0.82265c1.17006,4.2978 -2.11616,11.22886 -3.26092,15.37268c-2.66305,9.63978 -5.40544,19.25818 -8.00137,28.91641c-1.13527,4.22379 -3.12118,9.19083 -2.50107,13.6239c0.53135,3.7986 2.46533,7.71917 3.77243,11.30991c2.76849,7.60534 5.46095,14.95271 6.24919,23.07205c0.28822,2.96881 1.45916,11.16895 -2.79484,11.9545c-2.9627,0.5471 -6.70867,-1.61351 -9.33445,-2.72243c-10.009,-4.22698 -15.59128,-10.88076 -22.64604,-18.87488c-2.48235,-2.81287 -7.01006,-10.26974 -11.43804,-8.75738c-3.59045,1.22631 -6.99683,4.19372 -10.1225,6.28726c-7.72317,5.1729 -15.32273,10.81665 -24.00063,14.29191c-5.57025,2.23073 -11.28182,4.09775 -16.82255,6.40395c-2.21484,0.92188 -5.2292,1.88588 -6.75713,3.87056c-3.53252,4.5885 4.32496,11.54476 6.36138,15.2288c1.26254,2.28403 1.53296,4.48766 -1.33934,5.46327c-0.95671,0.32496 -2.90311,0.54792 -3.89106,0.6343c-1.29756,0.11345 -2.68155,0.16852 -3.9833,0.08229c-6.98809,-0.46288 -16.75581,-4.1128 -21.96885,-8.83722c-3.95228,-3.58183 -6.75423,-8.28393 -11.56909,-10.88474c-9.80874,-5.29833 -22.17741,-5.52619 -32.54028,-9.62687c-5.65249,-2.23674 -10.12365,-6.31525 -14.47677,-10.44424c-4.35155,-4.1275 -8.52838,-8.45032 -12.56589,-12.88467c-3.37802,-3.71005 5.6181,-29.33071 12.55067,-36.46152zM59.03207,139.64537c9.67317,2.42141 18.86427,-3.68948 20.07923,-13.43048c1.26354,-10.13048 -8.14639,-17.48706 -17.75086,-13.72088c-4.57907,1.79558 -9.84151,25.27065 -2.32837,27.15136zM62.59749,118.8822c3.93814,-1.59386 8.2938,0.8303 8.82927,5.0204c0.64656,5.0594 -4.93955,11.20038 -10.15902,8.00984c-2.3709,-1.44927 -2.00998,-11.67858 1.32975,-13.03025z" fill="#090909" fill-rule="evenodd"/></svg>
