<svg xmlns="http://www.w3.org/2000/svg" viewBox="0 0 256 256" role="img" aria-hidden="true"><rect x="8" y="8" width="240" height="240" rx="56" fill="#C8FF00"/><!-- Iconic Drills Pack © 2026 Roman Kuzhel, Kyrgyzstan | CC BY 4.0 | https://github.com/roblo3x/iconic-drills-pack --><path d="M25 151C25.6 147.04 28.84 138.48 31 135C33.16 131.52 39.76 124.4 43 122C46.24 119.6 53.92 115.96 58 115C62.08 114.04 74 114.48 77 114C80 113.52 82.16 115.68 83 111C83.84 106.32 83.4 80.76 84 75C84.6 69.24 86.44 66.24 88 63C89.56 59.76 94 51.24 97 48C100 44.76 108.44 37.92 113 36C117.56 34.08 130.2 32.24 135 32C139.8 31.76 149.04 33.16 153 34C156.96 34.84 164.52 37.2 168 39C171.48 40.8 179.6 46.96 182 49C184.4 51.04 185.36 51.08 188 56C190.64 60.92 202.08 83.88 204 90C205.92 96.12 204.48 103.76 204 107C203.52 110.24 202.04 113.88 200 117C197.96 120.12 188.68 130.24 187 133C185.32 135.76 185.76 138.56 186 140C186.24 141.44 187.68 143.92 189 145C190.32 146.08 192.56 148.28 197 149C201.44 149.72 221.8 150.04 226 151C230.2 151.96 231.28 155.68 232 157C232.72 158.32 232.36 160.8 232 162C231.64 163.2 230.68 165.92 229 167C227.32 168.08 222.56 170.88 218 171C213.44 171.12 196.28 169.32 191 168C185.72 166.68 176.88 160.96 174 160C171.12 159.04 168.08 159.76 167 160C165.92 160.24 165.24 161.16 165 162C164.76 162.84 164.64 165.92 165 167C165.36 168.08 164.88 169.8 168 171C171.12 172.2 186.56 174.96 191 177C195.44 179.04 202.84 185.36 205 188C207.16 190.64 208.52 196.96 209 199C209.48 201.04 209.24 203.68 209 205C208.76 206.32 207.72 209.04 207 210C206.28 210.96 204.44 212.76 203 213C201.56 213.24 197.16 213.8 195 212C192.84 210.2 186.92 199.92 185 198C183.08 196.08 181.28 196.24 179 196C176.72 195.76 168.88 196.48 166 196C163.12 195.52 157.4 193.44 155 192C152.6 190.56 147.56 185.92 146 184C144.44 182.08 143.2 177.68 142 176C140.8 174.32 138.16 170.72 136 170C133.84 169.28 126.52 168.56 124 170C121.48 171.44 116.08 179.12 115 182C113.92 184.88 113.92 191.6 115 194C116.08 196.4 121 200.56 124 202C127 203.44 137.72 205.28 140 206C142.28 206.72 142.4 207.04 143 208C143.6 208.96 145.36 212.44 145 214C144.64 215.56 142.88 220.04 140 221C137.12 221.96 125.2 222.6 121 222C116.8 221.4 108 217.68 105 216C102 214.32 97.68 209.92 96 208C94.32 206.08 91.72 202.64 91 200C90.28 197.36 89.28 189.6 90 186C90.72 182.4 96.16 172.76 97 170C97.84 167.24 97.24 163.96 97 163C96.76 162.04 96.08 162 95 162C93.92 162 90.04 162.04 88 163C85.96 163.96 80.04 167.24 78 170C75.96 172.76 71.84 182.52 71 186C70.16 189.48 71.72 196.48 71 199C70.28 201.52 66.44 205.92 65 207C63.56 208.08 60.56 208.36 59 208C57.44 207.64 53.32 205.8 52 204C50.68 202.2 48.24 196.96 48 193C47.76 189.04 48.92 175.08 50 171C51.08 166.92 54.96 161.52 57 159C59.04 156.48 64.48 151.68 67 150C69.52 148.32 76.56 146.2 78 145C79.44 143.8 80.44 140.72 79 140C77.56 139.28 68.88 138.52 66 139C63.12 139.48 57.52 142.08 55 144C52.48 145.92 46.68 152.24 45 155C43.32 157.76 42.32 164.96 41 167C39.68 169.04 35.8 171.88 34 172C32.2 172.12 27.08 170.52 26 168C24.92 165.48 24.4 154.96 25 151ZM134 95C133.88 97.4 134.4 103.6 135 106C135.6 108.4 137.92 113.2 139 115C140.08 116.8 142.56 119.8 144 121C145.44 122.2 148.96 124.4 151 125C153.04 125.6 159.08 126.12 161 126C162.92 125.88 165.2 125.68 167 124C168.8 122.32 174.68 114.52 176 112C177.32 109.48 178 105.88 178 103C178 100.12 176.72 90.64 176 88C175.28 85.36 173.56 82.68 172 81C170.44 79.32 165.64 74.96 163 74C160.36 73.04 152.4 72.76 150 73C147.6 73.24 144.68 74.44 143 76C141.32 77.56 137.08 83.72 136 86C134.92 88.28 134.12 92.6 134 95Z" fill="#090909" fill-rule="evenodd"/></svg>
