<svg xmlns="http://www.w3.org/2000/svg" viewBox="0 0 256 256" role="img" aria-hidden="true"><rect x="8" y="8" width="240" height="240" rx="56" fill="#0AF40B"/><path d="M55 96L71 85L91 79L101 71L116 64L127 61L152 60L157 64L146 79L146 82L165 91L179 100L182 104L186 104L212 73L221 68L230 66L232 67L232 74L219 122L220 131L227 151L229 171L228 173L223 173L211 168L205 164L187 144L182 143L154 161L124 174L132 190L131 195L120 195L110 192L99 186L88 175L52 164L25 138L25 131L39 109ZM60 122L62 119L68 119L71 122L69 131L61 132L58 128ZM55 118L51 124L51 131L54 137L61 140L74 137L79 127L78 118L71 112L60 113Z" fill="#090909" fill-rule="evenodd"/></svg>
