<svg xmlns="http://www.w3.org/2000/svg" viewBox="0 0 256 256" role="img" aria-hidden="true"><rect x="8" y="8" width="240" height="240" rx="56" fill="#0AF40B"/><!-- Iconic Drills Pack © 2026 Roman Kuzhel, Kyrgyzstan | CC BY 4.0 | https://github.com/roblo3x/iconic-drills-pack --><path d="M32 76L40 79L44 83L48 83L62 67L73 59L89 51L107 47L125 47L152 53L170 63L181 73L201 66L207 67L210 71L209 76L201 82L192 84L192 87L196 91L201 102L220 105L228 113L232 127L232 139L229 150L219 161L211 163L191 163L179 177L184 194L183 199L180 201L172 199L167 185L162 186L162 202L160 205L152 205L150 203L148 188L102 189L97 190L100 206L93 209L88 206L81 190L70 188L68 206L65 209L59 209L55 205L56 180L43 166L34 142L33 123L39 96L30 92L24 85L25 79ZM187 117L178 125L178 143L185 148L194 150L209 150L215 147L219 138L219 128L216 120L211 116ZM205 126L211 125L213 127L213 139L210 142L205 141L203 138L203 129ZM192 142L189 142L185 135L186 128L189 125L194 126L196 129L196 138Z" fill="#090909" fill-rule="evenodd"/></svg>
