<svg xmlns="http://www.w3.org/2000/svg" viewBox="0 0 256 256" role="img" aria-hidden="true"><rect x="8" y="8" width="240" height="240" rx="56" fill="#C8FF00"/><!-- Iconic Drills Pack © 2026 Roman Kuzhel, Kyrgyzstan | CC BY 4.0 | https://github.com/roblo3x/iconic-drills-pack --><path d="M58.4534,115.00769c5.19398,-1.04262 10.68623,-0.64641 15.95438,-0.84914c2.17047,-0.08352 5.59223,0.3682 7.31506,-1.30821c2.76764,-2.69307 1.72204,-9.85167 1.77692,-13.35045c0.15961,-10.17516 -1.44146,-22.08561 2.30452,-31.74227c5.00739,-12.90841 13.55201,-25.29706 26.42889,-31.33209c4.76979,-2.23546 10.33759,-2.94578 15.50664,-3.67061c20.30353,-2.84708 42.41726,3.6425 56.87415,18.52001c4.48954,4.62016 6.98174,11.62463 9.77853,17.33906c6.60935,13.50432 13.63861,26.27579 8.77257,41.6589c-2.44733,7.73681 -8.74162,13.3171 -13.6592,19.49902c-2.95199,3.71096 -4.84124,8.07854 -2.31792,12.62045c5.68657,10.23571 23.73381,7.27726 33.48531,8.03688c5.89569,0.45926 12.33012,3.00599 11.46128,10.23443c-0.75522,6.28319 -7.3141,9.45835 -12.97988,10.14391c-12.58195,1.52242 -27.702,-1.73257 -38.74161,-7.57882c-3.62114,-1.91765 -13.17938,-7.02816 -15.22893,-0.33376c-2.53591,8.28296 7.42479,9.34668 12.91782,10.60121c12.83936,2.93233 26.49922,8.51281 30.17304,22.54193c1.15847,4.42381 1.51166,9.41609 -1.1412,13.42389c-0.72906,1.10142 -1.61018,2.01164 -2.76748,2.66818c-10.6521,6.04292 -13.90661,-10.02332 -20.16342,-14.43997c-3.24724,-2.2922 -7.81763,-1.66907 -11.5495,-1.57699c-4.11506,0.10153 -7.86491,-0.20604 -11.77664,-1.57279c-5.60984,-1.96007 -10.78682,-5.5223 -14.45824,-10.24766c-5.24444,-6.74993 -6.01603,-14.76099 -16.32715,-15.02102c-1.94865,-0.04914 -3.98038,0.05493 -5.76384,0.93939c-2.34854,1.1647 -4.03442,3.48791 -5.53202,5.55245c-6.41064,8.83748 -6.28339,19.44791 3.77728,25.34616c5.68561,3.33329 13.59078,2.14843 18.88278,5.8643c5.25021,3.68654 3.49792,11.97926 -2.24261,14.04929c-3.03437,1.09419 -6.68427,1.03747 -9.8687,1.15559c-19.13272,0.70972 -40.16611,-12.00969 -39.53437,-32.97635c0.20797,-6.90228 4.8258,-12.22576 6.81779,-18.58602c0.76206,-2.4332 1.60421,-7.09137 -1.60551,-8.21707c-2.95259,-1.03552 -6.80253,0.51481 -9.36469,1.88858c-8.09996,4.343 -13.35977,13.53126 -14.67444,22.58884c-0.65774,4.53156 1.12808,9.4139 -0.89616,13.71574c-4.20247,8.93093 -15.12173,9.62085 -19.66984,0.52236c-2.80563,-5.61266 -2.53965,-11.494 -2.05652,-17.57117c0.78695,-9.89888 2.73327,-17.9775 9.57364,-25.53403c5.41065,-5.97712 11.29894,-8.23054 18.04965,-12.06384c1.6456,-0.93443 4.46434,-3.4269 2.40793,-5.47365c-1.93861,-1.92951 -6.88333,-1.59582 -9.37353,-1.55512c-10.05178,0.1643 -20.84408,8.74856 -24.73024,17.85105c-1.82104,4.2654 -1.88894,9.21664 -5.58807,12.48008c-3.97339,3.5054 -10.76009,3.07205 -12.85313,-2.38903c-1.78145,-4.64808 14.98781,-48.31489 32.60669,-51.85163zM141.91757,118.91143c5.15536,5.73204 16.11897,9.83775 23.51835,5.98471c4.5348,-2.36139 8.98162,-9.251 10.96306,-13.83231c1.89008,-4.37008 1.73284,-9.0431 1.19236,-13.66889c-1.43613,-12.29136 -7.40674,-23.5079 -21.10376,-24.41219c-4.5962,-0.30345 -9.43304,-0.23959 -13.16573,2.85366c-2.48231,2.05708 -4.42063,5.07698 -6.0428,7.82899c-2.08258,3.53309 -1.7213,28.17481 4.63852,35.24603z" fill="#090909" fill-rule="evenodd"/></svg>
