<svg xmlns="http://www.w3.org/2000/svg" viewBox="0 0 256 256" role="img" aria-hidden="true"><rect x="8" y="8" width="240" height="240" rx="56" fill="#C8FF00"/><!-- Iconic Drills Pack © 2026 Roman Kuzhel, Kyrgyzstan | CC BY 4.0 | https://github.com/roblo3x/iconic-drills-pack --><path d="M25 131C26.68 127.52 36.6 112.36 39 109C41.4 105.64 41.16 105.88 45 103C48.84 100.12 65.48 87.88 71 85C76.52 82.12 87.4 80.68 91 79C94.6 77.32 97.28 73.04 101 71C104.72 68.96 117.8 63.32 122 62C126.2 60.68 132.04 60.12 136 60C139.96 59.88 152.48 60.64 155 61C157.52 61.36 156.88 62.28 157 63C157.12 63.72 157.08 65.44 156 67C154.92 68.56 149.2 74.2 148 76C146.8 77.8 143.96 80.2 146 82C148.04 83.8 161.04 88.84 165 91C168.96 93.16 176.96 98.44 179 100C181.04 101.56 181.04 103.64 182 104C182.96 104.36 185.92 103.96 187 103C188.08 102.04 188 99.6 191 96C194 92.4 208.04 76.48 212 73C215.96 69.52 221.6 67.72 224 67C226.4 66.28 231.04 66.16 232 67C232.96 67.84 233.56 67.4 232 74C230.44 80.6 220.44 115.16 219 122C217.56 128.84 219.04 127.52 220 131C220.96 134.48 225.92 147.04 227 151C228.08 154.96 228.88 161.36 229 164C229.12 166.64 228.72 171.92 228 173C227.28 174.08 225.04 173.6 223 173C220.96 172.4 213.16 169.08 211 168C208.84 166.92 207.88 166.88 205 164C202.12 161.12 189.76 146.52 187 144C184.24 141.48 185.96 140.96 182 143C178.04 145.04 160.96 157.28 154 161C147.04 164.72 126.64 170.52 124 174C121.36 177.48 131.04 187.6 132 190C132.96 192.4 133.44 193.4 132 194C130.56 194.6 123.6 195.72 120 195C116.4 194.28 105.84 190.4 102 188C98.16 185.6 94 177.88 88 175C82 172.12 59.56 168.44 52 164C44.44 159.56 28.24 141.96 25 138C21.76 134.04 23.32 134.48 25 131ZM51 124C49.92 126.16 50.64 129.44 51 131C51.36 132.56 52.8 135.92 54 137C55.2 138.08 58.6 140 61 140C63.4 140 71.84 138.56 74 137C76.16 135.44 78.52 129.28 79 127C79.48 124.72 78.96 119.8 78 118C77.04 116.2 73.16 112.6 71 112C68.84 111.4 62.4 111.56 60 113C57.6 114.44 52.08 121.84 51 124ZM58 125C58.12 123.44 60.8 119.72 62 119C63.2 118.28 66.92 118.64 68 119C69.08 119.36 70.64 120.92 71 122C71.36 123.08 71.48 126.8 71 128C70.52 129.2 68.2 131.52 67 132C65.8 132.48 62.08 132.84 61 132C59.92 131.16 57.88 126.56 58 125Z" fill="#090909" fill-rule="evenodd"/></svg>
