<svg xmlns="http://www.w3.org/2000/svg" viewBox="0 0 256 256" role="img" aria-hidden="true"><rect x="8" y="8" width="240" height="240" rx="56" fill="#C8FF00"/><!-- Iconic Drills Pack © 2026 Roman Kuzhel, Kyrgyzstan | CC BY 4.0 | https://github.com/roblo3x/iconic-drills-pack --><path d="M41.21815,109.67c16.1875,-0.03138 31.58897,4.23872 47.63207,5.1985c4.61914,0.27634 9.37715,-0.41746 13.79184,-1.79196c1.37485,-0.42805 3.79856,-1.03634 3.95436,-2.88643c0.14611,-1.735 -1.6889,-3.53819 -2.66474,-4.72844c-2.53413,-3.09092 -5.22764,-6.05595 -7.85294,-9.06907c-10.72021,-12.30383 -17.01119,-26.77207 -30.82946,-36.18878c-6.0599,-4.12962 -12.68516,-7.35881 -18.93659,-11.17611c-2.53393,-1.54729 -5.38722,-3.79478 -1.80475,-6.18983c4.04246,-2.70258 10.51673,-3.47561 15.19986,-4.51247c18.41066,-4.07616 39.34457,-0.22344 57.42563,4.0161c8.31445,1.94952 17.22184,4.21027 23.0114,10.9189c7.76484,8.99749 13.56163,19.96721 19.48979,30.20865c1.66126,2.86997 3.48953,5.69806 4.96779,8.6676c0.66718,1.34024 1.13816,3.83889 2.50535,4.71298c2.1416,1.36919 4.77201,-1.51138 6.1134,-2.76477c4.35187,-4.06637 8.33158,-8.89103 14.52575,-9.86786c6.80152,-1.07261 15.41893,-1.40894 21.12286,3.01507c3.83717,2.97615 5.49261,7.10247 10.2494,9.01255c3.09117,1.24125 6.35603,2.01938 9.44022,3.27547c1.41081,0.57458 3.66186,1.43549 3.54526,3.39116c-0.25805,4.32817 -9.94723,6.03156 -13.07004,7.16991c-10.96773,3.99801 -23.90384,11.6756 -31.36377,20.85522c-7.75868,9.54723 -4.46321,25.38696 -8.56516,36.56522c-2.84398,7.75016 -6.56688,16.66351 -12.37283,22.68236c-11.37367,11.79073 -29.1105,17.44818 -44.26819,22.25986c-6.98622,2.21772 -13.99704,4.37823 -21.05031,6.37379c-1.92836,0.54558 -5.32312,2.0794 -7.28176,0.91115c-1.59004,-0.9484 -1.35425,-3.2 -0.93231,-4.65919c1.24036,-4.28962 4.45458,-8.39772 6.71773,-12.20534c7.63804,-12.85056 14.65625,-25.07755 18.97195,-39.47829c0.7611,-2.53965 4.51577,-10.44764 2.23251,-12.65793c-1.62544,-1.5735 -5.33075,-1.18242 -7.36749,-1.19577c-6.03096,-0.03951 -12.04565,0.67166 -17.19135,4.03959c-13.85762,9.07 -24.34602,23.39414 -40.05985,29.48999c-3.47276,1.34719 -9.41561,4.40028 -13.21155,3.61721c-2.66458,-0.54968 -2.68348,-3.96426 -2.5592,-6.06164c0.36603,-6.17748 3.82385,-13.47005 8.19823,-17.7676c1.14892,-1.12874 4.78588,-3.56579 4.23411,-5.59201c-0.54837,-2.01371 -5.15908,-1.37193 -6.55031,-1.36221c-3.88499,0.02713 -12.35154,1.74513 -15.34058,-1.3734c-1.95871,-2.04357 -0.59084,-4.83459 0.86826,-6.65103c2.99228,-3.72509 7.67778,-5.10039 11.86298,-7.00236c1.2513,-0.56866 3.86061,-1.44238 4.05558,-3.16588c0.13165,-1.1638 -1.04815,-1.89583 -1.83446,-2.35378c-2.86346,-1.66768 -6.24052,-2.22242 -9.09286,-3.97984c-5.53164,-3.40823 -0.70816,-21.69003 4.08419,-21.69932z" fill="#090909" fill-rule="evenodd"/></svg>
