<svg xmlns="http://www.w3.org/2000/svg" viewBox="0 0 256 256" role="img" aria-hidden="true"><rect x="8" y="8" width="240" height="240" rx="56" fill="#0AF40B"/><!-- Iconic Drills Pack © 2026 Roman Kuzhel, Kyrgyzstan | CC BY 4.0 | https://github.com/roblo3x/iconic-drills-pack --><path d="M172 76L180 84L191 88L196 93L202 92L208 82L214 78L221 80L226 87L226 92L221 104L207 119L207 125L201 144L191 161L192 165L217 172L227 179L229 189L222 202L195 222L165 230L160 226L164 217L158 216L156 209L159 206L190 200L195 196L195 192L162 188L143 194L106 195L90 192L78 187L68 187L58 193L58 199L60 201L89 207L94 209L97 213L94 219L84 219L84 222L89 225L88 231L79 232L70 229L52 222L41 215L33 205L32 191L37 178L52 166L52 162L43 146L39 131L39 120L30 103L28 78L36 71L43 73L47 80L49 92L54 94L71 81L83 62L83 57L78 51L66 44L62 44L59 46L59 52L64 56L66 63L62 68L56 67L45 57L42 51L41 42L45 32L53 26L66 25L76 31L92 36L99 45L117 42L135 42L154 47L167 37L177 35L185 30L194 29L201 34L203 40L201 55L195 66L191 70L185 71L182 69L182 61L186 56L187 50L182 50L174 54L167 61ZM95 86L89 95L65 116L62 123L65 139L73 156L82 165L93 172L118 178L145 174L164 162L177 144L184 120L182 110L176 105L159 98L154 92L145 71L135 63L121 62L111 66L104 72Z" fill="#090909" fill-rule="evenodd"/></svg>
