<svg xmlns="http://www.w3.org/2000/svg" viewBox="0 0 256 256" role="img" aria-hidden="true"><rect x="8" y="8" width="240" height="240" rx="56" fill="#0AF40B"/><path d="M31 115L24 77L25 63L27 60L35 56L55 51L64 46L110 40L138 34L151 35L157 44L160 55L165 88L168 95L170 117L179 121L187 129L194 132L223 163L230 167L232 181L225 189L162 209L114 220L103 220L94 213L85 200L72 187L59 178L46 163L41 161ZM189 155L190 152L186 148L174 149L174 154L177 157ZM195 167L201 166L198 160L185 163L187 168ZM88 139L118 132L151 119L145 82L137 53L45 71L61 143L77 142ZM90 169L98 166L98 161L95 158L80 163L80 166L84 170ZM111 152L106 153L106 157L109 161L126 157L126 154L121 149ZM75 94L67 90L67 85L74 80L83 85L83 89L78 94ZM120 165L117 167L117 170L121 175L138 171L138 168L133 162ZM146 182L148 178L145 175L128 180L131 186ZM159 154L145 157L144 161L148 166L166 162L165 156ZM125 74L128 79L123 80L120 85L115 85L109 80L110 74L115 70L119 70ZM85 120L108 114L113 115L111 121L94 126L85 125ZM111 176L106 171L102 171L91 175L91 178L96 183L101 183L110 180ZM166 176L177 173L176 168L168 167L156 171L159 177ZM107 106L108 110L97 113L93 111L93 91L95 88L103 90ZM140 142L133 144L133 148L136 152L152 147L152 144L148 140ZM119 185L111 185L104 188L104 191L108 194L119 192L121 191ZM175 141L175 138L170 134L160 136L163 142Z" fill="#090909" fill-rule="evenodd"/></svg>
