<svg xmlns="http://www.w3.org/2000/svg" viewBox="0 0 256 256" role="img" aria-hidden="true"><rect x="8" y="8" width="240" height="240" rx="56" fill="#0AF40B"/><!-- Iconic Drills Pack © 2026 Roman Kuzhel, Kyrgyzstan | CC BY 4.0 | https://github.com/roblo3x/iconic-drills-pack --><path d="M149 150L145 168L142 172L142 179L170 169L193 170L208 174L208 97L210 68L204 66L195 59L184 58L144 74L138 85L137 91L142 90L144 92L145 111L148 111L150 102L153 98L153 95L150 94L151 88L160 82L166 84L163 109L157 122ZM219 66L221 70L221 89L229 91L232 96L229 135L229 197L226 204L166 196L145 197L144 201L136 207L123 207L116 204L111 199L111 196L96 195L44 200L34 203L26 203L24 201L32 156L36 93L35 72L37 69L49 67L49 61L51 59L73 50L99 47L108 49L112 52L119 52L125 56L125 59L138 65L145 60L159 56L168 51L194 48L213 58L217 61ZM186 126L183 128L170 128L166 125L166 122L170 119L182 118L190 115L192 117L192 122ZM87 75L94 74L103 76L107 78L109 82L113 82L116 88L106 88L101 82L87 82L82 86L72 88L68 85L70 81L77 80ZM115 111L109 111L107 109L99 110L93 103L83 105L73 112L68 111L67 108L82 98L94 97L101 103L110 103L114 105ZM82 131L73 137L68 136L67 133L87 121L98 126L109 125L116 129L114 133L109 133L108 131L97 133L91 128L86 128ZM167 178L166 181L174 181L174 178ZM195 97L184 95L181 92L181 87L184 83L193 84L199 91L200 96ZM73 61L57 68L56 168L96 166L110 169L120 174L125 179L128 179L130 164L130 94L128 72L115 63L107 61L99 56L90 56ZM190 141L190 145L187 148L180 148L167 154L161 152L162 147L176 141ZM76 148L87 141L95 141L100 144L110 143L116 147L116 150L97 150L93 147L88 147L73 156L69 156L68 151Z" fill="#090909" fill-rule="evenodd"/></svg>
