<svg xmlns="http://www.w3.org/2000/svg" viewBox="0 0 256 256" role="img" aria-hidden="true"><rect x="8" y="8" width="240" height="240" rx="56" fill="#C8FF00"/><!-- Iconic Drills Pack © 2026 Roman Kuzhel, Kyrgyzstan | CC BY 4.0 | https://github.com/roblo3x/iconic-drills-pack --><path d="M24 108C24.12 101.28 25.68 88.08 27 84C28.32 79.92 33.2 75.68 35 74C36.8 72.32 41.28 72.52 42 70C42.72 67.48 40.16 55.88 41 53C41.84 50.12 46 47.32 49 46C52 44.68 61.8 42.24 66 42C70.2 41.76 81.24 43.28 84 44C86.76 44.72 88.04 45.6 89 48C89.96 50.4 91.04 61.96 92 64C92.96 66.04 95.92 64.4 97 65C98.08 65.6 99.32 68.52 101 69C102.68 69.48 109.2 70.56 111 69C112.8 67.44 114.32 58.28 116 56C117.68 53.72 120.2 50.96 125 50C129.8 49.04 149.64 47.64 156 48C162.36 48.36 173.92 51.32 178 53C182.08 54.68 187.96 58.52 190 62C192.04 65.48 191.64 79.48 195 82C198.36 84.52 213.8 82.16 218 83C222.2 83.84 228.32 80.24 230 89C231.68 97.76 231.88 145.8 232 156C232.12 166.2 231.6 169.92 231 174C230.4 178.08 227.72 187.6 227 190C226.28 192.4 226.44 192.56 225 194C223.56 195.44 218 200.44 215 202C212 203.56 204.2 206.28 200 207C195.8 207.72 182.76 207.64 180 208C177.24 208.36 180.12 209.88 177 210C173.88 210.12 159.88 209 154 209C148.12 209 131.96 209.64 128 210C124.04 210.36 125.56 211.88 121 212C116.44 212.12 94.44 210.88 90 211C85.56 211.12 87.96 212.88 84 213C80.04 213.12 60.48 212.36 57 212C53.52 211.64 55.84 210.24 55 210C54.16 209.76 51.68 210.96 50 210C48.32 209.04 42.92 204.64 41 202C39.08 199.36 35.8 195.44 34 188C32.2 180.56 27.2 149.6 26 140C24.8 130.4 23.88 114.72 24 108ZM50 55C47 56.92 49.76 64.32 50 66C50.24 67.68 49.72 68.64 52 69C54.28 69.36 65.64 69.36 69 69C72.36 68.64 78.92 68.04 80 66C81.08 63.96 78.6 53.92 78 52C77.4 50.08 78.36 49.64 75 50C71.64 50.36 53 53.08 50 55ZM88 133C87.16 137.68 88.04 146.92 89 151C89.96 155.08 93.72 164 96 167C98.28 170 104.76 174.44 108 176C111.24 177.56 118.56 179.76 123 180C127.44 180.24 140.68 179.08 145 178C149.32 176.92 156.24 172.92 159 171C161.76 169.08 165.96 165.84 168 162C170.04 158.16 175.28 143.68 176 139C176.72 134.32 175.2 126.6 174 123C172.8 119.4 168.16 111.76 166 109C163.84 106.24 158.88 101.8 156 100C153.12 98.2 146.08 94.6 142 94C137.92 93.4 126.8 93.68 122 95C117.2 96.32 105.12 102.96 102 105C98.88 107.04 97.68 108.64 96 112C94.32 115.36 88.84 128.32 88 133ZM99 137C99.6 132.8 105.08 121.12 107 118C108.92 114.88 112.6 112.44 115 111C117.4 109.56 123.88 106.6 127 106C130.12 105.4 138.36 105.64 141 106C143.64 106.36 146.96 107.68 149 109C151.04 110.32 156.2 114.6 158 117C159.8 119.4 163.28 126 164 129C164.72 132 164.72 138.76 164 142C163.28 145.24 159.44 153.48 158 156C156.56 158.52 154.28 161.56 152 163C149.72 164.44 142.24 167.4 139 168C135.76 168.6 128.6 168.72 125 168C121.4 167.28 111.76 163.8 109 162C106.24 160.2 103.2 156 102 153C100.8 150 98.4 141.2 99 137ZM116 132C115.52 132.96 115.64 134.64 116 135C116.36 135.36 118.16 135.48 119 135C119.84 134.52 122.52 131.96 123 131C123.48 130.04 123.36 127.48 123 127C122.64 126.52 120.84 126.4 120 127C119.16 127.6 116.48 131.04 116 132ZM190 106C189.76 107.68 189.72 116.56 192 118C194.28 119.44 206.48 118.48 209 118C211.52 117.52 212.52 115.68 213 114C213.48 112.32 215.28 105.2 213 104C210.72 102.8 196.76 103.76 194 104C191.24 104.24 190.24 104.32 190 106Z" fill="#090909" fill-rule="evenodd"/></svg>
