<svg xmlns="http://www.w3.org/2000/svg" viewBox="0 0 256 256" role="img" aria-hidden="true"><rect x="8" y="8" width="240" height="240" rx="56" fill="#C8FF00"/><!-- Iconic Drills Pack © 2026 Roman Kuzhel, Kyrgyzstan | CC BY 4.0 | https://github.com/roblo3x/iconic-drills-pack --><path d="M68 77C68.6 71 70.72 66.52 73 64C75.28 61.48 82.32 57.68 87 56C91.68 54.32 104.56 50.96 112 50C119.44 49.04 144.56 49.8 149 48C153.44 46.2 148.4 37.4 149 35C149.6 32.6 152.68 29.08 154 28C155.32 26.92 158.2 25.52 160 26C161.8 26.48 167.92 30.2 169 32C170.08 33.8 169.48 38.36 169 41C168.52 43.64 164.64 51.36 165 54C165.36 56.64 169.36 47.64 172 63C174.64 78.36 185.2 164.36 187 182C188.8 199.64 187.72 205.56 187 210C186.28 214.44 184.36 216.96 181 219C177.64 221.04 165.72 225.44 159 227C152.28 228.56 131.36 231.4 125 232C118.64 232.6 109.48 232.36 106 232C102.52 231.64 97.92 229.96 96 229C94.08 228.04 91.32 225.8 90 224C88.68 222.2 87.04 222.04 85 214C82.96 205.96 75.04 169 73 157C70.96 145 68.6 123.6 68 114C67.4 104.4 67.4 83 68 77ZM94 81C92.8 87 94.88 120.84 98 126C101.12 131.16 113.88 124.96 120 124C126.12 123.04 146.24 123.88 149 118C151.76 112.12 144.32 80.4 143 75C141.68 69.6 139.92 73.24 138 73C136.08 72.76 130.6 72.64 127 73C123.4 73.36 111.96 75.04 108 76C104.04 76.96 95.2 75 94 81ZM97 150C95.68 151.68 96.32 160.8 98 162C99.68 163.2 109.68 161.68 111 160C112.32 158.32 110.68 149.2 109 148C107.32 146.8 98.32 148.32 97 150ZM100 173C98.56 174.56 99.32 182.8 101 184C102.68 185.2 112.56 184.56 114 183C115.44 181.44 114.68 172.2 113 171C111.32 169.8 101.44 171.44 100 173ZM104 196C102.68 197.68 103.32 205.92 105 207C106.68 208.08 116.68 206.68 118 205C119.32 203.32 117.68 194.08 116 193C114.32 191.92 105.32 194.32 104 196ZM120 146C118.8 147.56 120.32 156.8 122 158C123.68 159.2 132.8 157.56 134 156C135.2 154.44 133.68 146.2 132 145C130.32 143.8 121.2 144.44 120 146ZM124 169C122.68 170.56 123.32 178.92 125 180C126.68 181.08 136.68 179.56 138 178C139.32 176.44 137.68 168.08 136 167C134.32 165.92 125.32 167.44 124 169ZM128 191C126.68 192.56 127.44 201.8 129 203C130.56 204.2 139.68 202.56 141 201C142.32 199.44 141.56 191.2 140 190C138.44 188.8 129.32 189.44 128 191ZM143 142C141.68 143.68 143.2 152.8 145 154C146.8 155.2 156.68 153.68 158 152C159.32 150.32 157.8 141.2 156 140C154.2 138.8 144.32 140.32 143 142ZM147 164C145.8 165.56 147.32 173.8 149 175C150.68 176.2 159.56 175.2 161 174C162.44 172.8 161.24 166.44 161 165C160.76 163.56 160.68 162.12 159 162C157.32 161.88 148.2 162.44 147 164ZM151 187C149.8 188.68 151.32 197.8 153 199C154.68 200.2 163.8 198.68 165 197C166.2 195.32 164.68 186.2 163 185C161.32 183.8 152.2 185.32 151 187Z" fill="#090909" fill-rule="evenodd"/></svg>
