<svg xmlns="http://www.w3.org/2000/svg" viewBox="0 0 256 256" role="img" aria-hidden="true"><rect x="8" y="8" width="240" height="240" rx="56" fill="#0AF40B"/><!-- Iconic Drills Pack © 2026 Roman Kuzhel, Kyrgyzstan | CC BY 4.0 | https://github.com/roblo3x/iconic-drills-pack --><path d="M91 224L86 217L81 198L71 143L68 114L68 77L70 69L73 64L92 54L129 48L149 48L149 35L151 31L156 27L163 27L169 32L169 41L165 54L172 63L178 121L183 140L188 200L186 213L176 222L135 231L106 232L94 228ZM146 154L158 152L156 140L143 142L144 153ZM125 176L125 180L138 178L136 167L125 168ZM101 173L101 184L114 183L113 171ZM128 197L129 203L140 202L140 190L128 191ZM160 164L159 162L147 164L148 174L161 174ZM96 80L94 81L94 93L98 126L120 124L149 118L143 75L138 73L127 73ZM97 157L98 162L111 160L110 149L97 150ZM127 145L120 146L122 158L134 156L133 146ZM154 186L151 187L152 198L165 197L164 186ZM104 204L105 207L117 206L117 194L105 195Z" fill="#090909" fill-rule="evenodd"/></svg>
