<svg xmlns="http://www.w3.org/2000/svg" viewBox="0 0 256 256" role="img" aria-hidden="true"><rect x="8" y="8" width="240" height="240" rx="56" fill="#C8FF00"/><!-- Iconic Drills Pack © 2026 Roman Kuzhel, Kyrgyzstan | CC BY 4.0 | https://github.com/roblo3x/iconic-drills-pack --><path d="M159 92L157 96L157 106L159 110L165 114L178 112L187 101L186 90L178 84L169 84L163 87ZM201 125L192 132L180 137L157 138L146 134L138 134L132 140L129 145L129 151L137 157L137 165L131 172L116 170L106 179L106 184L108 186L127 198L129 207L120 218L105 230L92 232L51 209L41 199L41 188L48 174L109 109L109 105L97 95L90 82L89 70L94 56L108 40L131 27L143 24L157 24L168 27L186 42L195 58L206 69L214 83L215 97L212 108ZM119 71L119 77L124 82L134 82L138 79L140 74L138 66L133 62L123 64ZM167 70L171 65L170 57L162 51L153 52L149 58L152 68L157 71Z" fill="#090909" fill-rule="evenodd"/></svg>
