<svg xmlns="http://www.w3.org/2000/svg" viewBox="0 0 256 256" role="img" aria-hidden="true"><rect x="8" y="8" width="240" height="240" rx="56" fill="#C8FF00"/><!-- Iconic Drills Pack © 2026 Roman Kuzhel, Kyrgyzstan | CC BY 4.0 | https://github.com/roblo3x/iconic-drills-pack --><path d="M48 162C48.12 159 48.16 152.84 49 149C49.84 145.16 52.96 135.28 55 130C57.04 124.72 63 110.76 66 105C69 99.24 77.72 85.36 80 82C82.28 78.64 83.92 77.48 85 77C86.08 76.52 88.4 76.08 89 78C89.6 79.92 89.4 90.36 90 93C90.6 95.64 92.8 99.04 94 100C95.2 100.96 98.08 102.8 100 101C101.92 99.2 108.32 88.96 110 85C111.68 81.04 112.32 73.04 114 68C115.68 62.96 121.6 47.8 124 43C126.4 38.2 132.32 30.28 134 28C135.68 25.72 137.16 24.48 138 24C138.84 23.52 140.16 21.36 141 24C141.84 26.64 143.2 39.64 145 46C146.8 52.36 154.56 70.28 156 77C157.44 83.72 157.12 96.84 157 102C156.88 107.16 155 117.12 155 120C155 122.88 156.04 125.16 157 126C157.96 126.84 161.44 127.72 163 127C164.56 126.28 168.68 122.04 170 120C171.32 117.96 173.4 112.76 174 110C174.6 107.24 174.4 100.24 175 97C175.6 93.76 178.04 85.4 179 83C179.96 80.6 182.04 77.72 183 77C183.96 76.28 186.04 74.84 187 77C187.96 79.16 188.96 88.76 191 95C193.04 101.24 201.84 121.44 204 129C206.16 136.56 209.48 150.44 209 158C208.52 165.56 202.04 186.12 200 192C197.96 197.88 193.92 204.12 192 207C190.08 209.88 186.64 213.96 184 216C181.36 218.04 173.84 222.32 170 224C166.16 225.68 155.24 229.4 152 230C148.76 230.6 144.08 229.48 143 229C141.92 228.52 141.68 227.68 143 226C144.32 224.32 151.6 218 154 215C156.4 212 161.32 204.36 163 201C164.68 197.64 167.28 191.2 168 187C168.72 182.8 169.12 169.6 169 166C168.88 162.4 167.6 158.08 167 157C166.4 155.92 164.84 155.92 164 157C163.16 158.08 161.8 163.48 160 166C158.2 168.52 150.92 176.8 149 178C147.08 179.2 145.92 180.8 144 176C142.08 171.2 134.32 146.16 133 138C131.68 129.84 133.48 111.48 133 108C132.52 104.52 130.2 107.68 129 109C127.8 110.32 124.56 115.64 123 119C121.44 122.36 117.08 133.64 116 137C114.92 140.36 114 141.6 114 147C114 152.4 116.6 177.8 116 182C115.4 186.2 110.92 182.96 109 182C107.08 181.04 102.04 177.48 100 174C97.96 170.52 93.32 155.52 92 153C90.68 150.48 89.72 151.32 89 153C88.28 154.68 86.24 163.64 86 167C85.76 170.36 86.16 177.76 87 181C87.84 184.24 91.32 190.88 93 194C94.68 197.12 97.4 202.92 101 207C104.6 211.08 120.6 225 123 228C125.4 231 124.24 231.88 121 232C117.76 232.12 101.28 230.44 96 229C90.72 227.56 80.96 222.76 77 220C73.04 217.24 65.76 209.36 63 206C60.24 202.64 55.8 195.84 54 192C52.2 188.16 48.72 177.6 48 174C47.28 170.4 47.88 165 48 162Z" fill="#090909" fill-rule="evenodd"/></svg>
