<svg xmlns="http://www.w3.org/2000/svg" viewBox="0 0 256 256" role="img" aria-hidden="true"><rect x="8" y="8" width="240" height="240" rx="56" fill="#0AF40B"/><!-- Iconic Drills Pack © 2026 Roman Kuzhel, Kyrgyzstan | CC BY 4.0 | https://github.com/roblo3x/iconic-drills-pack --><path d="M71 120L74 127L78 128L108 99L110 86L105 80L101 79L99 75L92 74L86 77L80 85L77 85L69 72L64 70L58 70L51 78L50 84L58 104L66 117ZM29 163L25 150L27 70L36 47L51 32L60 29L81 27L103 28L123 33L139 29L170 29L184 40L188 41L196 49L198 54L212 63L216 68L221 89L225 95L227 108L229 110L229 129L232 136L231 159L228 170L218 189L207 203L191 216L174 224L158 228L118 228L80 221L65 216L52 204L50 199L42 193L34 181ZM118 176L112 176L102 172L98 169L86 151L78 150L76 151L76 157L81 174L85 182L91 188L109 196L125 196L164 179L182 162L185 149L179 149L171 153L152 168L128 176ZM188 116L203 100L202 85L198 81L192 81L183 84L175 91L171 91L167 77L161 74L150 76L145 87L145 100L149 111L151 134L158 135Z" fill="#090909" fill-rule="evenodd"/></svg>
