<svg xmlns="http://www.w3.org/2000/svg" viewBox="0 0 256 256" role="img" aria-hidden="true"><rect x="8" y="8" width="240" height="240" rx="56" fill="#C8FF00"/><!-- Iconic Drills Pack © 2026 Roman Kuzhel, Kyrgyzstan | CC BY 4.0 | https://github.com/roblo3x/iconic-drills-pack --><path d="M73 85L77 92L90 95L100 88L102 77L96 67L84 65L74 72L72 77ZM164 42L183 44L196 51L207 62L216 78L229 122L232 139L230 170L220 200L204 217L195 221L177 224L154 222L93 222L75 218L59 211L46 199L38 186L29 160L25 137L24 116L27 98L45 63L51 55L63 45L74 39L90 34L119 33L146 40ZM147 192L161 190L170 183L172 179L172 170L167 162L161 159L151 158L142 159L114 170L96 169L90 165L83 156L76 134L73 131L67 131L64 134L63 151L66 162L72 173L80 181L92 188L108 192ZM148 107L187 88L188 81L185 79L167 81L135 96L126 105L128 111L137 112ZM93 81L91 85L84 86L81 83L81 77L84 74L90 74Z" fill="#090909" fill-rule="evenodd"/></svg>
