<svg xmlns="http://www.w3.org/2000/svg" viewBox="0 0 256 256" role="img" aria-hidden="true"><rect x="8" y="8" width="240" height="240" rx="56" fill="#C8FF00"/><!-- Iconic Drills Pack © 2026 Roman Kuzhel, Kyrgyzstan | CC BY 4.0 | https://github.com/roblo3x/iconic-drills-pack --><path d="M32.34721,111.34245c1.11522,-7.90656 2.27321,-15.80845 3.54778,-23.69105c0.83183,-5.14449 1.34244,-10.7214 3.39119,-15.55766c1.61853,-3.82067 5.30588,-5.67732 7.07519,-9.17148c0.84494,-1.66864 0.78861,-3.41726 1.89708,-5.00967c2.20106,-3.16201 5.60098,-5.83862 8.38053,-8.4829c5.15045,-4.89979 10.59466,-10.54493 17.05321,-13.6968c6.4908,-3.16761 14.15401,-4.21661 21.21333,-5.36878c11.16322,-1.82198 22.4009,-3.1987 33.64387,-4.42174c9.59906,-1.04422 20.20954,-3.07685 29.8265,-1.54831c8.00455,1.27226 14.86858,5.6062 22.43551,8.17491c8.73057,2.96373 18.66499,4.39409 23.78514,12.99795c4.38302,7.3652 7.35656,15.76658 10.41784,23.74211c4.0604,10.57855 8.20602,21.13616 9.2917,32.49875c1.27959,13.39206 -0.64581,26.52136 -0.22963,39.87572c0.32676,10.48509 3.18489,21.35369 1.90762,31.83503c-1.77995,14.60639 -13.17339,31.33659 -25.16265,39.5421c-12.65977,8.6644 -28.53063,11.51771 -43.28385,14.33174c-11.62756,2.21785 -23.64693,5.03019 -35.54268,4.89752c-17.70374,-0.19744 -35.81798,-7.50707 -50.5839,-16.73414c-5.02359,-3.13919 -10.42199,-6.11047 -14.61809,-10.35499c-6.80893,-6.8875 -11.08886,-16.98509 -15.63606,-25.43082c-5.41136,-10.05077 -10.56508,-55.98189 -8.80962,-68.42749zM65.44681,122.52777c-0.13322,4.2372 4.56155,6.40074 8.06071,5.14681c4.81284,-1.72469 9.27345,-5.64972 13.43508,-8.54314c8.19609,-5.69842 16.32676,-11.49567 24.40056,-17.36601c2.6217,-1.90619 10.52591,-6.98742 7.15782,-11.16021c-2.23282,-2.76629 -7.14819,-4.28256 -10.25816,-5.8106c-8.03467,-3.94771 -16.69884,-9.35525 -25.38913,-11.61744c-3.74453,-0.97475 -8.18298,0.02398 -10.22732,3.59872c-5.62828,9.84169 11.99629,12.66184 18.01308,14.87782c1.57169,0.57885 7.63913,1.78822 7.53825,4.10335c-0.12419,2.84991 -6.42754,5.90392 -8.46066,7.30674c-7.54673,5.20717 -24.20551,17.4056 -24.27023,19.46395zM81.8305,177.85763c10.22541,22.15969 36.05708,40.45571 61.46299,33.56924c11.4809,-3.11199 22.12946,-10.30561 28.562,-20.41007c4.86823,-7.64719 7.4062,-17.37005 10.35711,-25.88708c2.41206,-6.96177 4.53616,-13.86809 5.35077,-21.22023c0.34095,-3.07716 0.93616,-6.84424 -0.02453,-9.86285c-1.1328,-3.5594 -4.75295,-3.63734 -7.89305,-3.41115c-5.9406,0.42792 -11.88841,1.68137 -17.72963,2.79717c-22.17843,4.23657 -44.4634,8.55937 -66.28343,14.39393c-5.33118,1.42553 -17.07373,22.9413 -13.80223,30.03104zM107.90929,166.52731c14.59369,-4.38136 29.50529,-8.79586 44.4736,-11.68593c5.13568,-0.99159 10.57614,-2.20642 15.83012,-2.11402c1.56027,0.02744 3.73989,0.03202 4.44827,1.80155c0.65011,1.62396 0.01126,3.96708 -0.21123,5.606c-0.71462,5.26398 -1.42953,10.61035 -3.43365,15.56533c-5.27217,13.03487 -14.71362,24.72206 -29.39206,27.15341c-3.91283,0.64812 -8.02601,0.31042 -11.95956,0.0356c-5.52139,-0.38576 -10.39505,-1.27245 -15.17767,-4.20593c-6.8784,-4.21896 -12.46156,-9.99427 -17.35965,-16.33889c-2.44644,-3.16894 7.67581,-14.28417 12.78182,-15.81711zM146.20211,96.92959c3.65669,2.73831 8.37826,4.31786 12.54848,6.09229c7.28308,3.09894 14.71802,6.53115 22.32405,8.75746c5.09571,1.49153 11.08497,1.13528 12.9918,-4.73761c1.2167,-3.74735 -1.76098,-5.40284 -4.73797,-6.67921c-6.11527,-2.62191 -12.47877,-4.71277 -18.72396,-6.99936c-2.41758,-0.88516 -5.15424,-1.60377 -7.38118,-2.91933c-0.49655,-0.29333 -1.91081,-1.08772 -1.51546,-2.07124c0.60778,-1.51199 4.87066,-2.26902 6.20403,-3.09529c6.47139,-4.01026 13.64979,-9.15846 19.08284,-14.49916c2.20664,-2.16913 3.36408,-5.80133 0.46044,-8.07522c-3.74202,-2.93044 -9.42231,0.21468 -12.65999,2.32743c-10.2364,6.67977 -32.99651,28.60173 -28.59307,31.89924z" fill="#090909" fill-rule="evenodd"/></svg>
