<svg xmlns="http://www.w3.org/2000/svg" viewBox="0 0 256 256" role="img" aria-hidden="true"><rect x="8" y="8" width="240" height="240" rx="56" fill="#C8FF00"/><!-- Iconic Drills Pack © 2026 Roman Kuzhel, Kyrgyzstan | CC BY 4.0 | https://github.com/roblo3x/iconic-drills-pack --><path d="M24 100C24.48 96.64 26.56 91.28 28 89C29.44 86.72 33 82.92 36 81C39 79.08 49.52 74.32 53 73C56.48 71.68 57.92 71.32 65 70C72.08 68.68 100.36 62.96 112 62C123.64 61.04 152.88 61.64 162 62C171.12 62.36 181.76 63.32 188 65C194.24 66.68 209.8 73.6 214 76C218.2 78.4 221.32 82.84 223 85C224.68 87.16 227.04 91.6 228 94C228.96 96.4 230.52 97.32 231 105C231.48 112.68 232.6 150.44 232 158C231.4 165.56 228.16 165.96 226 168C223.84 170.04 221.08 172.48 214 175C206.92 177.52 178.04 186.72 167 189C155.96 191.28 132.2 193.76 122 194C111.8 194.24 87.88 191.84 82 191C76.12 190.16 75.16 188.44 73 187C70.84 185.56 65.8 181.28 64 179C62.2 176.72 59.08 170.64 58 168C56.92 165.36 55.84 158.92 55 157C54.16 155.08 52.68 153.32 51 152C49.32 150.68 43.4 148.04 41 146C38.6 143.96 33.04 138.48 31 135C28.96 131.52 24.84 121.2 24 117C23.16 112.8 23.52 103.36 24 100ZM47 110C46.28 112.64 47.4 118.84 48 121C48.6 123.16 50.56 126.32 52 128C53.44 129.68 57.96 133.68 60 135C62.04 136.32 65.4 138.28 69 139C72.6 139.72 85.44 141.24 90 141C94.56 140.76 103.88 138.2 107 137C110.12 135.8 113.12 133.76 116 131C118.88 128.24 128.12 116.16 131 114C133.88 111.84 136.16 109.76 140 113C143.84 116.24 159.16 137.28 163 141C166.84 144.72 168.76 143.64 172 144C175.24 144.36 186.04 144.72 190 144C193.96 143.28 202.24 139.8 205 138C207.76 136.2 211.56 131.76 213 129C214.44 126.24 216.76 118.48 217 115C217.24 111.52 215.72 102.28 215 100C214.28 97.72 213.04 96.72 211 96C208.96 95.28 206.04 94 198 94C189.96 94 159.24 96 144 96C128.76 96 81.8 93.64 71 94C60.2 94.36 56.88 97.08 54 99C51.12 100.92 47.72 107.36 47 110ZM119 170C118.28 171.8 120.04 175.4 121 176C121.96 176.6 126.16 175.48 127 175C127.84 174.52 127.16 172.84 128 172C128.84 171.16 131.96 168.36 134 168C136.04 167.64 142.84 167.8 145 169C147.16 170.2 150.68 176.92 152 178C153.32 179.08 155.28 178.36 156 178C156.72 177.64 158 176.32 158 175C158 173.68 156.84 168.56 156 167C155.16 165.44 153.04 163.08 151 162C148.96 160.92 141.88 158.12 139 158C136.12 157.88 129.4 159.56 127 161C124.6 162.44 119.72 168.2 119 170Z" fill="#090909" fill-rule="evenodd"/></svg>
