<svg xmlns="http://www.w3.org/2000/svg" viewBox="0 0 256 256" role="img" aria-hidden="true"><rect x="8" y="8" width="240" height="240" rx="56" fill="#C8FF00"/><!-- Iconic Drills Pack © 2026 Roman Kuzhel, Kyrgyzstan | CC BY 4.0 | https://github.com/roblo3x/iconic-drills-pack --><path d="M33.1 112.73C32.72 106.99 34.33 100.38 37.01 95.69C39.7 91.01 53.29 76.71 55.46 73.68C57.63 70.64 54.24 72.31 55.1 70.37C55.96 68.43 61.75 59.46 62.63 57.52C63.5 55.58 62.17 54.65 62.4 54.22C62.63 53.78 63.86 54.88 64.54 53.91C65.22 52.93 66.8 48 68.04 46.11C69.29 44.21 72.25 40.52 74.95 38.1C77.66 35.68 86.65 27.98 90.57 25.93C94.49 23.87 103.82 21.19 107.63 20.97C111.44 20.75 118.13 22.81 122.29 24.11C126.45 25.41 137.32 30.86 142.29 31.83C147.27 32.81 158.93 30.82 163.78 32.24C168.64 33.66 178.23 40.26 182.74 43.66C187.25 47.06 197.66 56.61 201.35 60.55C205.05 64.49 211.66 72.99 213.53 76.48C215.41 79.98 217.06 85.04 216.98 89.68C216.91 94.32 212.98 110.76 212.92 115.13C212.87 119.51 215.21 123.43 216.52 126.16C217.83 128.89 222.59 135.41 223.84 137.91C225.08 140.41 226.56 145.01 226.92 146.99C227.28 148.97 227.65 151.88 226.83 154.41C226.01 156.95 222.5 164.33 220.09 168.13C217.68 171.92 209.11 181.98 206.72 186.03C204.34 190.07 201.51 199.25 200.2 201.82C198.9 204.38 196.56 206.81 195.84 207.4C195.11 207.98 194.62 206.39 194.16 206.71C193.71 207.04 193.75 209.16 192.05 210.1C190.35 211.05 185.03 212 179.98 214.59C174.94 217.17 154.74 229.33 150.01 231.63C145.27 233.93 143.57 233.71 140.52 233.74C137.48 233.77 132.19 233.73 124.64 231.88C117.1 230.03 86.13 221.96 77.65 218.33C69.17 214.7 58.12 204.91 53.98 201.62C49.83 198.32 45.31 194.25 43.08 190.9C40.85 187.54 35.74 179.33 35.39 173.66C35.04 167.98 40.42 150.9 40.15 143.59C39.87 136.28 33.48 118.48 33.1 112.73ZM71.71 148.86C70.04 151.07 70.52 159.21 71.08 162.58C71.64 165.94 74.9 174.52 76.39 176.91C77.88 179.29 82.43 181.88 83.51 182.45C84.59 183.03 82.57 180.56 85.37 181.7C88.17 182.83 103.86 190.59 106.83 191.9C109.81 193.22 109.89 194.2 110.19 192.67C110.49 191.15 108.76 182.55 109.33 179.21C109.9 175.88 113.94 166.72 114.94 164.87C115.93 163.02 114.76 162.94 117.64 163.79C120.52 164.64 136.93 169.08 138.92 171.98C140.91 174.88 134.51 184.83 134.26 187.95C134 191.07 136.25 196.79 136.8 198C137.35 199.2 137.19 198.38 138.85 198C140.52 197.63 146.43 197.71 150.65 194.86C154.88 192.01 169.79 178.47 174.07 174.24C178.35 170.01 184.4 162.89 186.33 159.59C188.27 156.29 190.02 148.82 190.21 146.72C190.4 144.63 189.45 142.64 187.9 142.14C186.35 141.63 181.21 141.12 177.29 142.51C173.37 143.91 158.98 152.23 155.25 153.78C151.52 155.33 148.92 155.53 146.19 155.42C143.47 155.32 135.74 154.01 132.57 152.9C129.39 151.8 122.85 147.38 119.73 146.2C116.61 145.01 110.75 143.29 106.58 143.05C102.41 142.81 89.18 143.47 84.99 144.17C80.81 144.87 73.38 146.65 71.71 148.86ZM84.13 94.3C81.64 97.8 78.27 104.84 77.55 106.94C76.83 109.05 77.35 110.65 78.16 111.87C78.98 113.08 82.17 116.5 84.34 117.1C86.5 117.7 94.11 117.77 96.2 116.84C98.29 115.91 100.28 112.57 101.73 109.35C103.18 106.14 107.57 93.83 108.29 90.07C109.01 86.31 108.11 79.68 107.72 78.01C107.32 76.34 106.1 76.18 104.98 76.15C103.86 76.12 100.87 75.56 98.37 77.73C95.87 79.91 86.63 90.79 84.13 94.3ZM148.56 93.99C147.38 96.91 145.32 105.17 145.08 107.66C144.83 110.14 145.57 113.19 146.49 114.71C147.41 116.23 151.02 119.93 152.73 120.31C154.44 120.69 159.2 118.78 160.74 117.88C162.28 116.97 163.47 116.55 165.54 112.74C167.6 108.94 176.57 90.09 177.95 86.17C179.33 82.25 177.85 81.26 177.03 80.09C176.21 78.92 172.98 76.61 171.12 76.39C169.25 76.17 163.41 77.41 161.47 78.24C159.53 79.07 156.49 81.39 154.94 83.28C153.39 85.17 149.74 91.06 148.56 93.99Z" fill="#090909" fill-rule="evenodd"/></svg>
