<svg xmlns="http://www.w3.org/2000/svg" viewBox="0 0 256 256" role="img" aria-hidden="true"><rect x="8" y="8" width="240" height="240" rx="56" fill="#0AF40B"/><!-- Iconic Drills Pack © 2026 Roman Kuzhel, Kyrgyzstan | CC BY 4.0 | https://github.com/roblo3x/iconic-drills-pack --><path d="M80 57L87 55L123 57L139 63L150 72L163 91L168 104L166 113L156 120L155 124L156 126L163 124L172 125L179 133L179 140L175 147L171 149L171 152L177 155L182 162L181 172L176 177L171 179L157 178L152 189L146 195L136 199L67 201L60 197L50 171L35 153L28 140L24 121L24 101L27 89L38 73L59 62ZM129 84L125 82L113 82L102 85L91 91L86 99L88 113L93 118L110 124L117 134L119 142L119 159L115 174L115 182L119 184L131 182L138 175L140 165L133 159L134 153L140 149L135 129L135 119L140 113L146 110L144 100L137 90ZM204 165L198 169L192 167L186 143L186 121L189 115L194 112L203 113L207 117L209 123L216 120L223 120L230 125L232 131L231 140L227 148L215 159ZM122 98L124 100L124 108L121 112L113 114L106 110L105 101L107 97L116 94Z" fill="#090909" fill-rule="evenodd"/></svg>
