<svg xmlns="http://www.w3.org/2000/svg" viewBox="0 0 256 256" role="img" aria-hidden="true"><rect x="8" y="8" width="240" height="240" rx="56" fill="#C8FF00"/><!-- Iconic Drills Pack © 2026 Roman Kuzhel, Kyrgyzstan | CC BY 4.0 | https://github.com/roblo3x/iconic-drills-pack --><path d="M32.36641,105.32356c1.19502,-7.12011 2.17722,-14.63529 4.72479,-21.42401c4.80228,-12.79704 14.76093,-26.79739 25.00889,-35.77582c6.03143,-5.28425 12.32341,-6.49002 19.50314,-9.40548c2.22138,-0.90203 3.86959,-2.61817 6.2043,-3.28049c1.83594,-0.52083 3.8108,-0.56351 5.58881,-1.30364c1.45369,-0.60512 2.44961,-1.8216 3.87872,-2.4883c5.81032,-2.71062 12.81035,-4.27141 19.06036,-5.59798c9.10008,-1.93151 18.63058,-1.26206 27.86272,-0.87176c21.27121,0.89927 41.18652,4.07751 56.23974,20.56568c2.88482,3.15982 7.25381,6.45275 9.03162,10.36249c2.15131,4.73112 2.82034,10.40808 3.90146,15.45915c2.09021,9.76561 4.08555,19.55199 6.0344,29.34671c5.80467,29.17369 13.94495,62.14322 -2.53175,89.60806c-3.71686,6.1956 -9.60578,11.2132 -14.8261,16.11345c-4.75448,4.46297 -9.50439,9.59519 -14.97862,13.17509c-4.44843,2.90907 -9.84762,4.10795 -14.92262,5.44624c-9.7013,2.55826 -19.41936,4.49529 -29.39199,5.62325c-11.99595,1.35681 -23.85439,1.18078 -35.88743,0.43324c-13.53768,-0.84102 -28.44712,-2.96579 -40.48482,-9.70519c-12.34228,-6.90992 -19.98848,-19.64235 -27.24302,-31.27781c-4.58179,-7.34868 -9.19243,-14.76076 -10.79464,-23.40929c-1.4362,-7.75239 1.82047,-48.47627 4.02204,-61.59358zM74.30513,124.96935c5.19016,6.79499 15.81492,9.01814 23.62589,6.45979c6.23519,-2.04224 9.76588,-6.09209 13.26066,-11.41751c6.48818,-9.88682 9.66943,-22.54587 5.1459,-34.18919c-4.38768,-11.29366 -22.12404,-12.92142 -31.25315,-6.84947c-8.7313,5.80737 -15.69888,39.55561 -10.77929,45.99637zM91.90972,93.39276c3.38346,-2.13216 10.04484,-1.5329 11.73114,2.71264c2.36639,5.95777 -1.59496,14.02629 -6.16375,17.6007c-4.33914,3.39474 -10.39025,3.48722 -12.13022,-2.76649c-0.54604,-1.96253 2.13667,-14.75763 6.56283,-17.54686zM96.18023,189.8839c5.82898,-1.16085 9.0713,-8.20856 15.61684,-7.95618c5.10814,0.19695 9.4792,5.39394 13.71183,7.77093c4.09123,2.29757 8.9879,2.65289 13.5992,2.49371c10.28741,-0.3551 15.32964,-9.4198 22.30322,-15.55504c4.46718,-3.93015 14.33108,-3.68368 13.60538,-12.01833c-0.44405,-5.09995 -6.95934,-5.95034 -10.85669,-5.29056c-10.74237,1.81856 -14.55771,13.70073 -24.92684,15.46743c-9.21855,1.57067 -13.55168,-6.57788 -21.16772,-9.56123c-11.19241,-4.38428 -28.8595,26.03822 -21.88522,24.64927zM141.83156,75.48355c9.00254,5.29384 20.16347,7.82433 30.09762,10.84013c5.89503,1.78961 12.00075,3.68674 14.90331,-3.44796c1.17753,-2.89447 1.88789,-6.57546 -0.9768,-8.72455c-2.53036,-1.89828 -6.31905,-2.56454 -9.29523,-3.44595c-5.75561,-1.70455 -11.61888,-3.12646 -17.31219,-5.03222c-5.08948,-1.70363 -9.0411,-5.78834 -14.1587,-7.17623c-4.91723,-1.33354 -8.61189,13.83848 -3.258,16.98677zM151.60503,126.49024c3.17457,4.09692 9.78186,5.25397 14.58796,4.66915c11.16856,-1.35904 19.20856,-10.67006 18.82662,-21.99584c-0.22597,-6.70064 -6.80152,-11.99146 -13.15654,-12.68006c-9.75581,-1.0571 -23.46991,25.86169 -20.25804,30.00675zM165.08334,106.18736c3.29576,-1.28686 8.82714,0.44902 9.83364,4.10637c2.31916,8.42721 -12.25065,14.89976 -14.98136,5.58867c-0.50961,-1.73767 2.02859,-8.47715 5.14772,-9.69504z" fill="#090909" fill-rule="evenodd"/></svg>
