<svg xmlns="http://www.w3.org/2000/svg" viewBox="0 0 256 256" role="img" aria-hidden="true"><rect x="8" y="8" width="240" height="240" rx="56" fill="#0AF40B"/><path d="M137 229L113 232L99 231L81 225L65 216L42 196L32 170L28 151L27 126L31 108L53 60L74 42L103 28L117 24L157 27L174 32L193 42L209 65L222 92L228 125L229 157L227 169L216 192L202 210L194 218L185 223ZM84 193L90 192L96 181L107 170L119 166L128 166L139 171L148 181L152 191L159 195L165 193L167 184L161 168L150 154L134 145L117 144L99 151L85 166L79 180L80 191ZM171 129L170 145L172 153L176 159L187 161L193 154L192 143L175 122L172 122ZM70 136L71 128L67 128L53 142L49 151L49 156L52 161L60 162L65 158L69 150ZM180 108L188 104L188 96L171 90L160 78L155 77L155 92L161 102L169 107ZM75 94L62 100L62 108L71 113L81 112L87 109L97 98L100 89L100 80L95 79L87 87Z" fill="#090909" fill-rule="evenodd"/></svg>
