<svg xmlns="http://www.w3.org/2000/svg" viewBox="0 0 256 256" role="img" aria-hidden="true"><rect x="8" y="8" width="240" height="240" rx="56" fill="#C8FF00"/><!-- Iconic Drills Pack © 2026 Roman Kuzhel, Kyrgyzstan | CC BY 4.0 | https://github.com/roblo3x/iconic-drills-pack --><path d="M21.5 133.25C19.93 129.92 16.35 121.9 15.91 119.25C15.47 116.6 14.38 116 17.81 111.16C21.24 106.33 39.85 85.67 44.53 78.97C49.21 72.28 53.57 60.27 56.81 55.37C60.05 50.46 68.08 41.11 71.51 38.13C74.94 35.14 82.33 31.49 85.4 30.49C88.46 29.48 92.67 29.45 97.03 29.77C101.39 30.09 114.62 33.63 121.75 33.17C128.87 32.72 150.91 26.68 156.4 25.98C161.89 25.28 164.99 26.62 167.52 27.31C170.06 28 173.21 28.53 177.53 31.72C181.85 34.92 198.78 49.55 203.5 53.93C208.21 58.3 214.73 65.54 216.82 68.19C218.92 70.84 220.08 72.5 220.96 76.04C221.83 79.58 222.55 92.17 224.14 97.68C225.73 103.18 232.71 117.5 234.2 121.93C235.69 126.36 236.53 131.5 236.54 134.56C236.55 137.61 236.33 142.33 234.28 147.38C232.24 152.43 221.31 172.21 219.54 176.63C217.77 181.06 219.82 183.08 219.54 184.26C219.25 185.43 217.29 185.99 217.16 186.45C217.02 186.91 218.55 187.82 218.41 188.1C218.26 188.38 216.12 188.5 215.97 188.79C215.82 189.07 221.03 188.06 217.14 190.49C213.26 192.93 190.76 204.52 183.6 209.1C176.45 213.68 162.38 225.79 157.49 228.68C152.6 231.57 146.06 232.91 142.89 233.16C139.71 233.4 135.75 232.55 131.04 230.72C126.32 228.89 111.03 219.42 103.6 217.9C96.18 216.38 75.51 219.24 69.14 218.05C62.78 216.86 54.12 210.48 50.58 207.98C47.05 205.48 42.21 200.37 39.71 197.2C37.21 194.02 31.19 184.56 29.73 181.51C28.27 178.46 27.64 175.91 27.55 171.76C27.46 167.61 29.72 151.56 28.99 146.94C28.27 142.32 23.07 136.57 21.5 133.25ZM61.47 176.84C59.05 180.61 59.46 186.22 60.23 188.14C61 190.07 63.82 193.35 67.88 192.91C71.94 192.47 89.4 185.45 94.07 184.5C98.75 183.55 102.42 184.26 106.82 185C111.22 185.75 126.43 190.04 130.74 190.68C135.04 191.32 139.91 190.78 142.69 190.34C145.47 189.89 150.11 188.71 153.91 186.95C157.71 185.18 170.41 177.29 174.33 175.64C178.26 173.98 184.84 176.47 186.65 173.15C188.46 169.82 189.32 151.46 189.41 147.93C189.51 144.39 188.71 144.54 187.45 143.7C186.19 142.87 184.5 139.89 178.89 140.98C173.28 142.08 148.2 151.89 140.69 152.85C133.19 153.81 121.71 149.51 116.37 149.01C111.03 148.5 100.49 147.7 96.17 148.64C91.86 149.57 84.55 153.41 80.39 156.79C76.23 160.18 63.89 173.08 61.47 176.84ZM61.78 91.94C60.59 93.26 59.13 96.4 60.32 97.1C61.52 97.81 70.79 96.22 71.72 97.82C72.65 99.42 68.02 107.71 68.09 110.46C68.17 113.21 71.2 118.93 72.35 120.75C73.51 122.57 76.04 124.71 77.74 125.61C79.45 126.5 84.43 128.23 86.55 128.23C88.68 128.23 93.69 126.63 95.45 125.59C97.21 124.56 100.71 121.66 101.22 119.59C101.72 117.52 99 109.44 99.64 108.34C100.29 107.23 105.62 110.36 106.62 110.37C107.62 110.39 108.11 109.32 107.98 108.46C107.85 107.59 107.31 105.06 105.56 103.18C103.82 101.29 96.12 94.54 93.44 92.73C90.75 90.92 85.96 88.89 83.16 88.09C80.37 87.3 72.73 85.63 70.16 86.1C67.6 86.56 62.96 90.62 61.78 91.94ZM135.13 112.57C131.32 116.93 134.85 116.39 136.02 116.83C137.2 117.27 143.24 115.59 144.92 116.27C146.61 116.95 148.12 121.37 150.05 122.48C151.97 123.6 157.83 125.84 160.96 125.59C164.09 125.34 174.04 121.54 176.14 120.39C178.24 119.24 178.2 117.22 178.44 115.99C178.69 114.76 179.42 113.23 178.19 110.13C176.96 107.03 167.54 93.79 168.17 90.17C168.8 86.55 181.42 81.84 183.44 79.96C185.45 78.09 184.96 75.45 184.95 74.53C184.95 73.6 184.21 72.5 183.37 72.28C182.53 72.05 179.83 71.65 177.96 72.63C176.08 73.62 172.88 75.7 167.74 80.49C162.6 85.28 138.93 108.21 135.13 112.57Z" fill="#090909" fill-rule="evenodd"/></svg>
