<svg xmlns="http://www.w3.org/2000/svg" viewBox="0 0 256 256" role="img" aria-hidden="true"><rect x="8" y="8" width="240" height="240" rx="56" fill="#0AF40B"/><!-- Iconic Drills Pack © 2026 Roman Kuzhel, Kyrgyzstan | CC BY 4.0 | https://github.com/roblo3x/iconic-drills-pack --><path d="M153 143L159 140L166 142L174 133L176 125L172 125L163 132L152 134L141 131L135 122L131 121L134 137L145 144ZM52 97L67 86L93 77L108 67L122 63L133 63L148 71L158 73L182 101L206 113L214 125L220 164L214 184L209 190L209 193L198 202L187 204L174 211L144 214L141 218L115 231L103 232L90 230L59 219L42 194L42 189L35 173L34 158L28 138L33 118L45 102ZM105 188L111 199L116 202L126 202L130 199L134 189L132 176L127 169L114 166L107 176ZM202 83L205 77L193 77L192 72L198 68L215 67L220 72L219 77L215 81L215 85L225 86L228 88L228 91L222 95L197 94L195 89ZM190 45L209 45L211 47L209 53L195 56L179 54L177 48L183 38L183 34L173 34L170 29L176 25L199 25L200 33L194 37ZM116 178L121 178L125 183L125 190L122 193L117 193L113 190L112 183ZM88 132L78 138L67 138L59 135L53 129L50 129L54 141L61 146L69 148L79 147L88 140L95 139L95 135L100 127L100 121L97 121L95 126Z" fill="#090909" fill-rule="evenodd"/></svg>
