<svg xmlns="http://www.w3.org/2000/svg" viewBox="0 0 256 256" role="img" aria-hidden="true"><rect x="8" y="8" width="240" height="240" rx="56" fill="#C8FF00"/><!-- Iconic Drills Pack © 2026 Roman Kuzhel, Kyrgyzstan | CC BY 4.0 | https://github.com/roblo3x/iconic-drills-pack --><path d="M40.56198,107.81901c6.221,-6.81461 12.44064,-14.1001 20.49241,-18.80015c9.25001,-5.3995 19.97747,-7.23136 29.82455,-11.21063c6.28307,-2.53903 10.90369,-7.48148 16.83559,-10.56394c6.09227,-3.1658 14.37251,-5.03788 21.23239,-4.73623c6.15631,0.27072 10.97642,4.31715 16.25379,7.00955c3.65467,1.86454 7.77154,0.82027 11.2886,2.65529c3.39636,1.77204 5.9065,5.58064 8.2943,8.46162c5.07315,6.121 9.8332,12.63921 15.34585,18.37698c4.56134,4.74761 10.107,5.24656 15.71843,8.01622c4.61489,2.27779 9.24071,5.66908 13.09015,9.0718c4.32718,3.82502 5.0994,8.75714 6.12304,14.18118c2.18887,11.5983 6.45649,25.69205 4.53893,37.49573c-1.34802,8.29784 -5.30293,14.55341 -9.50699,21.49979c-3.08941,5.10464 -5.86541,9.32186 -11.5218,12.2329c-3.61416,1.86001 -7.76495,1.30026 -11.50711,2.7021c-5.0435,1.88933 -8.75354,5.82003 -14.19468,6.9508c-8.9424,1.8584 -18.99444,0.17866 -27.70736,2.81906c-2.79932,0.84832 -4.31925,4.05753 -6.85213,5.55955c-8.04785,4.77246 -17.75499,10.92236 -27.15936,12.17006c-8.68374,1.15209 -17.24761,-0.73129 -25.52766,-3.18244c-8.88424,-2.63001 -20.4488,-4.75042 -27.80466,-10.64232c-4.74433,-3.80012 -4.30601,-8.98337 -7.60552,-13.49091c-1.56543,-2.13857 -3.92929,-3.53179 -5.44756,-5.71008c-1.9464,-2.79254 -1.5303,-6.24355 -3.06902,-9.16684c-0.90032,-1.71044 -2.2991,-2.9899 -3.07351,-4.79471c-3.03266,-7.06779 -3.83484,-15.78636 -5.40936,-23.29058c-1.90559,-9.08212 0.30992,-45.9034 7.34867,-53.6138zM50.81916,134.80681c1.61578,4.39058 4.4692,8.37194 8.68598,10.51862c6.31302,3.21385 14.86096,3.95276 21.32481,0.86077c3.12024,-1.49256 5.15297,-4.09555 7.99228,-5.92791c1.73102,-1.11712 4.96791,-0.77601 6.02742,-2.67731c0.88779,-1.59315 1.03639,-3.49851 1.98959,-5.13251c1.63636,-2.80512 3.97279,-5.48807 3.5932,-8.99039c-0.17184,-1.58547 -1.11254,-3.20873 -2.93058,-2.20867c-2.62389,1.44333 -4.21448,5.44877 -5.96327,7.76068c-3.12655,4.13332 -7.98537,7.53976 -13.07171,8.76265c-5.2094,1.25248 -12.93123,0.87576 -17.55815,-1.99661c-2.85629,-1.77317 -10.86526,-3.07711 -10.08956,-0.96932zM113.39178,200.94353c4.19478,2.44529 13.3013,2.66183 16.34671,-1.67638c6.77909,-9.65686 5.81587,-28.14901 -7.03949,-31.89427c-2.78713,-0.812 -6.71097,-2.13995 -9.50937,-0.7337c-4.64531,2.33437 -6.25565,30.53987 0.20214,34.30434zM112.53002,181.0714c1.58837,-3.90126 6.49903,-4.68273 9.67805,-2.20645c3.19329,2.48739 4.63423,9.17306 1.90896,12.5222c-2.32611,2.85861 -8.18644,1.98649 -10.1126,-0.83696c-1.49581,-2.19261 -2.1088,-7.92065 -1.47441,-9.4788zM131.32056,126.87246c0.6473,4.57392 1.25243,9.50273 5.07004,12.58368c4.38584,3.53953 11.05557,6.57201 16.66767,4.34404c1.81437,-0.72029 3.21923,-2.28002 5.08766,-2.85334c2.58908,-0.79445 4.67898,1.36395 7.21667,0.82467c3.90525,-0.82989 10.05627,-9.87745 10.8915,-13.58065c0.65073,-2.88515 -1.80817,-3.85909 -4.14474,-2.85265c-3.03171,1.30587 -5.17627,4.26385 -8.02251,5.91631c-3.36835,1.95559 -7.74613,2.70593 -11.60542,2.64997c-4.31431,-0.06256 -9.85674,-1.12041 -12.85133,-4.48336c-1.94791,-2.18752 -8.61048,-4.67522 -8.30953,-2.54868zM176.30506,24.90835c5.12693,-0.96673 10.79571,-0.70026 15.99179,-0.59387c2.284,0.04677 5.60248,-0.22222 7.38715,1.55852c5.00194,4.99093 -4.05875,11.17039 -7.10684,13.85495c-1.10066,0.96939 -4.5841,3.84593 -2.58752,5.59288c1.28772,1.12672 3.89169,0.61016 5.3789,0.49997c3.83133,-0.28387 8.11977,-1.26808 11.94871,-0.72374c3.29588,0.46856 4.927,3.96472 2.89584,6.77581c-1.52886,2.11591 -4.57298,2.67377 -6.94086,3.17084c-6.01571,1.26284 -11.83848,1.104 -17.90577,0.31848c-2.91425,-0.3773 -7.0179,-0.62932 -8.14693,-3.95197c-2.08907,-6.14793 7.27971,-10.26574 5.79573,-15.80769c-0.50815,-1.89769 -2.93788,-1.66936 -4.37538,-1.65316c-4.02958,0.04542 -5.68126,-8.41002 -2.33481,-9.04102zM210.69453,66.94119c2.43733,0.20063 5.51817,0.28917 7.44729,2.03796c5.76589,5.22692 -6.11669,10.41222 -2.84596,15.16432c2.03807,2.96113 15.64687,-0.03648 12.3563,7.11211c-1.1212,2.43575 -3.87736,3.52638 -6.34867,3.84704c-5.83393,0.75698 -12.20496,0.03401 -18.05484,-0.34135c-2.25227,-0.14452 -5.66922,0.05276 -7.42403,-1.69168c-1.40162,-1.39334 -0.96911,-3.2646 0.26733,-4.55731c2.53964,-2.65523 8.93104,-5.19077 8.84283,-9.73924c-0.03835,-1.97764 -2.62934,-1.80534 -3.89222,-1.80764c-3.63249,-0.00662 3.73697,-10.5111 9.65196,-10.02421z" fill="#090909" fill-rule="evenodd"/></svg>
