<svg xmlns="http://www.w3.org/2000/svg" viewBox="0 0 256 256" role="img" aria-hidden="true"><rect x="8" y="8" width="240" height="240" rx="56" fill="#C8FF00"/><!-- Iconic Drills Pack © 2026 Roman Kuzhel, Kyrgyzstan | CC BY 4.0 | https://github.com/roblo3x/iconic-drills-pack --><path d="M97 227L79 222L64 213L48 196L35 177L32 158L32 126L37 101L52 71L62 56L74 46L96 33L117 25L135 26L163 32L178 39L194 50L207 63L220 87L223 124L223 165L218 190L210 203L200 212L184 221L164 228L141 232L121 232ZM85 77L75 96L74 112L80 125L87 129L95 130L103 127L112 118L117 104L118 88L115 78L105 71L96 71ZM129 213L139 211L149 203L158 186L160 176L160 163L156 151L146 140L138 137L126 137L114 143L105 154L99 173L100 189L106 202L110 204L113 209ZM157 73L151 78L147 87L147 111L151 121L157 127L163 130L174 130L181 126L187 117L189 107L188 87L183 78L174 72L163 71ZM91 93L96 88L103 89L105 93L104 104L97 113L92 112L88 106ZM173 111L165 113L160 106L159 101L161 92L166 88L171 89L175 95L176 102Z" fill="#090909" fill-rule="evenodd"/></svg>
