<svg xmlns="http://www.w3.org/2000/svg" viewBox="0 0 256 256" role="img" aria-hidden="true"><rect x="8" y="8" width="240" height="240" rx="56" fill="#C8FF00"/><!-- Iconic Drills Pack © 2026 Roman Kuzhel, Kyrgyzstan | CC BY 4.0 | https://github.com/roblo3x/iconic-drills-pack --><path d="M32 126C32.36 119.88 33.8 111.32 35 107C36.2 102.68 38.76 96.12 42 90C45.24 83.88 58.16 61.28 62 56C65.84 50.72 69.44 49 74 46C78.56 43 94.84 33.52 100 31C105.16 28.48 112.8 25.6 117 25C121.2 24.4 129.48 25.16 135 26C140.52 26.84 157.84 30.44 163 32C168.16 33.56 174.28 36.84 178 39C181.72 41.16 190.52 47.12 194 50C197.48 52.88 203.88 58.56 207 63C210.12 67.44 218.08 79.68 220 87C221.92 94.32 222.64 114.64 223 124C223.36 133.36 223.36 157.8 223 165C222.64 172.2 221.2 179.92 220 184C218.8 188.08 215.4 195.64 213 199C210.6 202.36 203.48 209.36 200 212C196.52 214.64 188.32 219.08 184 221C179.68 222.92 169.16 226.68 164 228C158.84 229.32 146.16 231.52 141 232C135.84 232.48 127 232.72 121 232C115 231.28 96.04 227.2 91 226C85.96 224.8 82.24 223.56 79 222C75.76 220.44 68.92 217.68 64 213C59.08 208.32 41.48 187.32 38 183C34.52 178.68 35.72 180 35 177C34.28 174 32.36 164.12 32 158C31.64 151.88 31.64 132.12 32 126ZM74 101C73.16 104.6 73.28 109.12 74 112C74.72 114.88 78.08 122.84 80 125C81.92 127.16 87.24 129.76 90 130C92.76 130.24 100.36 128.44 103 127C105.64 125.56 110.32 120.76 112 118C113.68 115.24 116.28 107.6 117 104C117.72 100.4 118.24 91.12 118 88C117.76 84.88 116.56 80.04 115 78C113.44 75.96 107.28 71.84 105 71C102.72 70.16 97.92 70.64 96 71C94.08 71.36 90.8 72.68 89 74C87.2 75.32 82.8 78.76 81 82C79.2 85.24 74.84 97.4 74 101ZM88 103C87.88 101.44 88.28 98.68 89 97C89.72 95.32 92.56 90.08 94 89C95.44 87.92 99.8 87.88 101 88C102.2 88.12 103.64 88.08 104 90C104.36 91.92 104.84 101.24 104 104C103.16 106.76 98.68 112.28 97 113C95.32 113.72 91.08 111.2 90 110C88.92 108.8 88.12 104.56 88 103ZM99 173C98.4 177.2 99.16 185.52 100 189C100.84 192.48 104.8 200.2 106 202C107.2 203.8 109.16 203.16 110 204C110.84 204.84 111.32 207.92 113 209C114.68 210.08 121.84 212.52 124 213C126.16 213.48 128.6 213.6 131 213C133.4 212.4 141.36 209.92 144 208C146.64 206.08 151.32 199.64 153 197C154.68 194.36 157.16 190.08 158 186C158.84 181.92 160.6 167.8 160 163C159.4 158.2 154.68 148.76 153 146C151.32 143.24 147.8 141.08 146 140C144.2 138.92 140.4 137.36 138 137C135.6 136.64 128.4 136.64 126 137C123.6 137.36 119.92 138.8 118 140C116.08 141.2 111.56 145.32 110 147C108.44 148.68 106.32 150.88 105 154C103.68 157.12 99.6 168.8 99 173ZM146 91C145.52 94.96 146.4 107.4 147 111C147.6 114.6 149.8 119.08 151 121C152.2 122.92 155.56 125.92 157 127C158.44 128.08 160.96 129.64 163 130C165.04 130.36 171.72 130.6 174 130C176.28 129.4 180.44 126.56 182 125C183.56 123.44 186.16 119.16 187 117C187.84 114.84 188.88 110.6 189 107C189.12 103.4 188.84 90.6 188 87C187.16 83.4 184.16 78.92 182 77C179.84 75.08 173 71.48 170 71C167 70.52 159.28 72.16 157 73C154.72 73.84 152.32 75.84 151 78C149.68 80.16 146.48 87.04 146 91ZM159 101C159 98.96 160.4 93.44 161 92C161.6 90.56 163.04 89.48 164 89C164.96 88.52 167.8 87.64 169 88C170.2 88.36 173.16 90.32 174 92C174.84 93.68 176.24 99.6 176 102C175.76 104.4 173.32 110.68 172 112C170.68 113.32 166.32 113.36 165 113C163.68 112.64 161.72 110.44 161 109C160.28 107.56 159 103.04 159 101Z" fill="#090909" fill-rule="evenodd"/></svg>
