<svg xmlns="http://www.w3.org/2000/svg" viewBox="0 0 256 256" role="img" aria-hidden="true"><rect x="8" y="8" width="240" height="240" rx="56" fill="#C8FF00"/><!-- Iconic Drills Pack © 2026 Roman Kuzhel, Kyrgyzstan | CC BY 4.0 | https://github.com/roblo3x/iconic-drills-pack --><path d="M28 134C27.16 126.68 30.04 124.52 31 122C31.96 119.48 33.24 116.36 36 113C38.76 109.64 50.28 97.24 54 94C57.72 90.76 62.32 88.04 67 86C71.68 83.96 88.08 79.28 93 77C97.92 74.72 104.52 68.68 108 67C111.48 65.32 119 63.48 122 63C125 62.52 129.88 62.04 133 63C136.12 63.96 145 69.8 148 71C151 72.2 153.92 69.4 158 73C162.08 76.6 177.44 96.92 182 101C186.56 105.08 192.64 105.08 196 107C199.36 108.92 207.84 114.84 210 117C212.16 119.16 212.8 119.36 214 125C215.2 130.64 220 156.92 220 164C220 171.08 215.32 180.88 214 184C212.68 187.12 209.6 188.92 209 190C208.4 191.08 210.32 191.56 209 193C207.68 194.44 200.64 200.68 198 202C195.36 203.32 189.88 202.92 187 204C184.12 205.08 179.16 209.8 174 211C168.84 212.2 147.96 213.16 144 214C140.04 214.84 144.48 215.96 141 218C137.52 220.04 120.52 229.44 115 231C109.48 232.56 101.24 232.2 95 231C88.76 229.8 67.92 223.04 63 221C58.08 218.96 55.44 215.92 54 214C52.56 212.08 52.2 206.92 51 205C49.8 203.08 45.08 199.92 44 198C42.92 196.08 42.72 190.8 42 189C41.28 187.2 39.68 189.6 38 183C36.32 176.4 28.84 141.32 28 134ZM50 129C49.76 129.72 50.28 133.32 51 135C51.72 136.68 54.44 141.56 56 143C57.56 144.44 61.72 146.4 64 147C66.28 147.6 72.72 148.24 75 148C77.28 147.76 81.2 146.08 83 145C84.8 143.92 88.56 139.72 90 139C91.44 138.28 94.4 139.48 95 139C95.6 138.52 94.4 136.44 95 135C95.6 133.56 99.4 128.68 100 127C100.6 125.32 100.36 121.72 100 121C99.64 120.28 98.32 119.68 97 121C95.68 122.32 91.28 129.96 89 132C86.72 134.04 81.12 137.4 78 138C74.88 138.6 66 138.08 63 137C60 135.92 54.56 129.96 53 129C51.44 128.04 50.24 128.28 50 129ZM105 182C104.52 183.92 104.28 185.96 105 188C105.72 190.04 109.68 197.32 111 199C112.32 200.68 114.2 201.64 116 202C117.8 202.36 124.32 202.36 126 202C127.68 201.64 129.04 200.92 130 199C130.96 197.08 133.76 188.76 134 186C134.24 183.24 132.84 178.04 132 176C131.16 173.96 129.16 170.2 127 169C124.84 167.8 116.16 165.64 114 166C111.84 166.36 110.08 170.08 109 172C107.92 173.92 105.48 180.08 105 182ZM112 183C112 181.32 113.92 178.6 115 178C116.08 177.4 119.8 177.4 121 178C122.2 178.6 124.64 181.32 125 183C125.36 184.68 125.2 190.92 124 192C122.8 193.08 116.44 193.08 115 192C113.56 190.92 112 184.68 112 183ZM131 121C130.88 122.8 132.32 134.24 134 137C135.68 139.76 142.72 143.16 145 144C147.28 144.84 151.32 144.48 153 144C154.68 143.52 157.44 140.24 159 140C160.56 139.76 163.96 143.32 166 142C168.04 140.68 174.8 131.04 176 129C177.2 126.96 176.48 125.48 176 125C175.52 124.52 173.56 124.16 172 125C170.44 125.84 165.4 130.92 163 132C160.6 133.08 154.64 134.12 152 134C149.36 133.88 143.04 132.44 141 131C138.96 129.56 136.2 123.2 135 122C133.8 120.8 131.12 119.2 131 121ZM170 29C170.36 27.92 172.52 25.48 176 25C179.48 24.52 196.12 24.04 199 25C201.88 25.96 201.08 30.96 200 33C198.92 35.04 191.2 40.44 190 42C188.8 43.56 187.72 45.64 190 46C192.28 46.36 206.48 44.4 209 45C211.52 45.6 211.24 49.92 211 51C210.76 52.08 208.92 53.4 207 54C205.08 54.6 198.36 56 195 56C191.64 56 181.16 54.96 179 54C176.84 53.04 176.52 49.92 177 48C177.48 46.08 182.28 39.68 183 38C183.72 36.32 184.2 34.48 183 34C181.8 33.52 174.56 34.6 173 34C171.44 33.4 169.64 30.08 170 29ZM192 72C193.2 70.8 200 67.48 203 67C206 66.52 214.96 67.28 217 68C219.04 68.72 220.24 71.44 220 73C219.76 74.56 215.6 79.56 215 81C214.4 82.44 213.8 84.4 215 85C216.2 85.6 223.44 85.64 225 86C226.56 86.36 227.64 87.4 228 88C228.36 88.6 228.72 90.16 228 91C227.28 91.84 225.72 94.64 222 95C218.28 95.36 200.24 94.72 197 94C193.76 93.28 194.64 89.96 195 89C195.36 88.04 198.8 87.08 200 86C201.2 84.92 204.4 81.08 205 80C205.6 78.92 206.44 77.36 205 77C203.56 76.64 194.56 77.6 193 77C191.44 76.4 190.8 73.2 192 72Z" fill="#090909" fill-rule="evenodd"/></svg>
