<svg xmlns="http://www.w3.org/2000/svg" viewBox="0 0 256 256" role="img" aria-hidden="true"><rect x="8" y="8" width="240" height="240" rx="56" fill="#C8FF00"/><!-- Iconic Drills Pack © 2026 Roman Kuzhel, Kyrgyzstan | CC BY 4.0 | https://github.com/roblo3x/iconic-drills-pack --><path d="M191 141L198 145L205 145L208 143L215 129L226 127L230 130L232 137L228 154L223 164L216 169L198 170L183 174L166 187L152 192L116 193L79 191L64 188L60 184L60 178L58 176L48 173L35 163L25 144L24 129L30 115L46 103L76 95L117 93L119 91L119 85L115 83L72 78L69 74L69 67L72 63L78 62L118 73L122 73L126 70L140 73L181 63L186 69L186 75L183 79L138 84L136 86L136 93L139 96L158 100L172 108L180 119ZM133 159L139 162L151 162L159 159L165 152L167 145L166 131L163 125L156 119L148 117L139 118L129 126L126 134L126 150L128 155ZM84 139L84 145L89 152L100 154L107 149L110 135L108 129L104 125L93 124L86 129Z" fill="#090909" fill-rule="evenodd"/></svg>
