<svg xmlns="http://www.w3.org/2000/svg" viewBox="0 0 256 256" role="img" aria-hidden="true"><rect x="8" y="8" width="240" height="240" rx="56" fill="#0AF40B"/><!-- Iconic Drills Pack © 2026 Roman Kuzhel, Kyrgyzstan | CC BY 4.0 | https://github.com/roblo3x/iconic-drills-pack --><path d="M193 183L189 191L183 196L170 198L159 191L156 186L155 178L158 169L165 162L179 160L190 167L193 174ZM170 61L182 64L193 72L200 87L205 116L221 122L229 129L232 141L232 157L231 169L227 175L200 180L199 171L195 162L182 153L171 153L161 157L154 164L149 180L145 181L107 181L103 164L96 157L86 153L77 153L66 158L58 169L54 180L35 179L25 173L24 166L27 146L33 131L45 122L68 117L75 99L92 76L104 68L123 60L148 58ZM68 192L62 185L62 177L65 169L71 163L78 160L86 160L94 164L100 176L100 184L97 190L86 198L76 198L71 196ZM142 81L142 116L175 116L183 114L181 101L171 82L159 77L142 77ZM113 117L126 116L126 78L115 80L103 87L94 98L88 110L87 117Z" fill="#090909" fill-rule="evenodd"/></svg>
