<svg xmlns="http://www.w3.org/2000/svg" viewBox="0 0 256 256" role="img" aria-hidden="true"><rect x="8" y="8" width="240" height="240" rx="56" fill="#C8FF00"/><!-- Iconic Drills Pack © 2026 Roman Kuzhel, Kyrgyzstan | CC BY 4.0 | https://github.com/roblo3x/iconic-drills-pack --><path d="M220 91L222 101L221 139L223 187L221 190L221 226L215 232L198 231L192 223L196 74L193 59L182 46L172 43L161 43L144 48L135 58L126 79L126 82L135 89L140 97L144 109L144 123L149 124L153 128L153 144L151 146L135 148L97 144L56 132L40 124L40 116L45 109L53 105L64 104L68 97L79 86L98 77L108 76L110 65L121 43L126 41L134 32L154 25L173 24L182 26L202 36L212 47L218 61L220 69ZM126 196L127 194L132 195L133 204L133 212L128 219L124 219L120 211L121 204ZM107 195L106 203L103 206L98 206L95 202L95 190L101 181L105 182ZM125 159L127 160L129 175L126 181L119 182L116 177L117 166L121 159ZM44 217L41 220L36 220L32 216L32 206L43 188L47 189L47 212ZM51 169L44 167L42 153L47 152L54 143L58 143L60 145L59 159L56 165ZM81 167L85 152L90 148L93 156L92 173L87 177L83 176ZM72 182L72 191L70 195L62 195L60 189L61 182L66 173L71 174ZM113 117L118 118L116 114L99 111L99 114ZM73 212L78 203L82 203L83 205L85 222L84 227L79 231L74 230L71 226L71 216ZM90 133L92 133L92 130L84 129L84 132ZM101 132L97 132L97 135L101 135ZM73 126L70 125L70 128L73 128Z" fill="#090909" fill-rule="evenodd"/></svg>
