<svg xmlns="http://www.w3.org/2000/svg" viewBox="0 0 256 256" role="img" aria-hidden="true"><rect x="8" y="8" width="240" height="240" rx="56" fill="#C8FF00"/><!-- Iconic Drills Pack © 2026 Roman Kuzhel, Kyrgyzstan | CC BY 4.0 | https://github.com/roblo3x/iconic-drills-pack --><path d="M25 148C25.6 143.44 28.96 135.36 31 132C33.04 128.64 38.52 122.4 42 120C45.48 117.6 55.2 112.84 60 112C64.8 111.16 78.4 114.32 82 113C85.6 111.68 88.92 103.4 90 101C91.08 98.6 91.12 94.44 91 93C90.88 91.56 90.8 89.24 89 89C87.2 88.76 78.64 91 76 91C73.36 91 68.56 89.72 67 89C65.44 88.28 63.6 86.8 63 85C62.4 83.2 61.52 76.04 62 74C62.48 71.96 63.16 68.96 67 68C70.84 67.04 89.44 66 94 66C98.56 66 103.44 66.8 105 68C106.56 69.2 107.24 74.44 107 76C106.76 77.56 104.2 80.04 103 81C101.8 81.96 97.48 82.68 97 84C96.52 85.32 90 91.28 99 92C108 92.72 162.76 93 172 90C181.24 87 178.28 69.04 176 67C173.72 64.96 156.84 72.28 153 73C149.16 73.72 145.44 73.36 144 73C142.56 72.64 141.36 71.08 141 70C140.64 68.92 140.52 65.2 141 64C141.48 62.8 140.8 60.84 145 60C149.2 59.16 171.56 57.36 176 57C180.44 56.64 180.8 56.52 182 57C183.2 57.48 186 56.56 186 61C186 65.44 182.12 88 182 94C181.88 100 182.48 108.84 185 111C187.52 113.16 198.92 111.04 203 112C207.08 112.96 216.24 117.2 219 119C221.76 120.8 224.44 123.88 226 127C227.56 130.12 231.4 141.16 232 145C232.6 148.84 231.72 154.92 231 159C230.28 163.08 228.52 174.92 226 179C223.48 183.08 213.36 190.84 210 193C206.64 195.16 201.96 196.52 198 197C194.04 197.48 180.48 197.24 177 197C173.52 196.76 171.4 196.2 169 195C166.6 193.8 159.04 188.68 157 187C154.96 185.32 153.08 182.92 152 181C150.92 179.08 148.72 174.48 148 171C147.28 167.52 145.88 155.72 146 152C146.12 148.28 147.8 142.64 149 140C150.2 137.36 155.16 131.56 156 130C156.84 128.44 156.6 127.24 156 127C155.4 126.76 153.64 125.6 151 128C148.36 130.4 135.8 143.16 134 147C132.2 150.84 136.48 157.48 136 160C135.52 162.52 131.44 166.92 130 168C128.56 169.08 125.32 169.24 124 169C122.68 168.76 121.28 166.36 119 166C116.72 165.64 106.92 164.92 105 166C103.08 167.08 104.2 172.36 103 175C101.8 177.64 96.68 185.84 95 188C93.32 190.16 91.28 191.92 89 193C86.72 194.08 80.2 196.64 76 197C71.8 197.36 58.8 197.2 54 196C49.2 194.8 39.36 190.12 36 187C32.64 183.88 27.32 174.68 26 170C24.68 165.32 24.4 152.56 25 148ZM35 145C34.76 147.4 32.6 158.92 35 160C37.4 161.08 52.72 155.44 55 154C57.28 152.56 55.8 149.68 54 148C52.2 146.32 42.04 140.96 40 140C37.96 139.04 37.6 139.4 37 140C36.4 140.6 35.24 142.6 35 145ZM37 165C35.68 167.04 38.68 174.2 40 176C41.32 177.8 45.96 181.92 48 180C50.04 178.08 56.64 162.52 57 160C57.36 157.48 53.4 158.4 51 159C48.6 159.6 38.32 162.96 37 165ZM41 132C40.52 133.44 40.96 136.44 43 138C45.04 139.56 56.92 146.56 58 145C59.08 143.44 53.32 127.28 52 125C50.68 122.72 48.32 125.16 47 126C45.68 126.84 41.48 130.56 41 132ZM53 181C52.16 183.28 52.52 183.4 53 184C53.48 184.6 54.72 185.64 57 186C59.28 186.36 71.04 189.64 72 187C72.96 184.36 66.44 166.64 65 164C63.56 161.36 61.44 162.96 60 165C58.56 167.04 53.84 178.72 53 181ZM57 122C55.44 124.16 60.04 136.72 61 139C61.96 141.28 63.44 142.56 65 141C66.56 139.44 72.92 128.4 74 126C75.08 123.6 76.04 121.48 74 121C71.96 120.52 58.56 119.84 57 122ZM71 163C70.64 165.16 75.32 181.72 77 184C78.68 186.28 83.32 182.96 85 182C86.68 181.04 89.92 177.92 91 176C92.08 174.08 95.32 167.2 94 166C92.68 164.8 82.76 166.36 80 166C77.24 165.64 71.36 160.84 71 163ZM72 144C70.8 146.52 69.24 147.76 72 148C74.76 148.24 92.48 147.56 95 146C97.52 144.44 94.08 137.4 93 135C91.92 132.6 87.32 126.96 86 126C84.68 125.04 83.68 124.84 82 127C80.32 129.16 73.2 141.48 72 144ZM85 156C83.68 156.48 83.68 158.64 85 159C86.32 159.36 94.68 159.48 96 159C97.32 158.52 97.32 155.36 96 155C94.68 154.64 86.32 155.52 85 156ZM91 114C90.52 115.32 90.04 116.68 91 118C91.96 119.32 97.56 123.32 99 125C100.44 126.68 102.16 129.48 103 132C103.84 134.52 104.68 144.44 106 146C107.32 147.56 113.16 145.96 114 145C114.84 144.04 113.36 138.96 113 138C112.64 137.04 112.8 140.72 111 137C109.2 133.28 99.92 110.6 98 107C96.08 103.4 95.84 106.16 95 107C94.16 107.84 91.48 112.68 91 114ZM105 101C97.8 101.96 103.84 101.96 106 107C108.16 112.04 120.36 138.68 123 143C125.64 147.32 126.56 144.2 128 143C129.44 141.8 130.44 137.8 135 133C139.56 128.2 162.28 107.08 166 103C169.72 98.92 173.32 99.24 166 99C158.68 98.76 112.2 100.04 105 101ZM107 154C106.28 154.72 106.16 158.4 107 159C107.84 159.6 113.28 159.72 114 159C114.72 158.28 113.84 153.6 113 153C112.16 152.4 107.72 153.28 107 154ZM156 149C155.88 150.8 155.76 159.96 156 162C156.24 164.04 157.28 165.52 158 166C158.72 166.48 159.6 167.32 162 166C164.4 164.68 176.08 156.68 178 155C179.92 153.32 179.8 152.96 178 152C176.2 151.04 165.52 147.6 163 147C160.48 146.4 157.84 146.76 157 147C156.16 147.24 156.12 147.2 156 149ZM159 121C157.56 123.04 158.64 123.64 159 124C159.36 124.36 161.28 124.48 162 124C162.72 123.52 163.56 120.96 165 120C166.44 119.04 172.92 117.56 174 116C175.08 114.44 174.36 108.08 174 107C173.64 105.92 172.8 105.32 171 107C169.2 108.68 160.44 118.96 159 121ZM160 139C158.56 141.04 157.6 141.92 160 143C162.4 144.08 178.08 150.04 180 148C181.92 145.96 176.96 128.64 176 126C175.04 123.36 173.92 124.44 172 126C170.08 127.56 161.44 136.96 160 139ZM161 171C158.96 172.92 160.4 173.92 161 175C161.6 176.08 164.56 179.16 166 180C167.44 180.84 171.2 184.52 173 182C174.8 179.48 180.4 161.76 181 159C181.6 156.24 180.4 157.56 178 159C175.6 160.44 163.04 169.08 161 171ZM179 180C178.28 182.64 178.76 183.4 179 184C179.24 184.6 179.2 184.88 181 185C182.8 185.12 193.04 187.76 194 185C194.96 182.24 190.08 164.76 189 162C187.92 159.24 186.2 159.84 185 162C183.8 164.16 179.72 177.36 179 180ZM188 121C187.04 123.04 190.28 135.96 191 138C191.72 140.04 192.44 139.44 194 138C195.56 136.56 202.8 127.8 204 126C205.2 124.2 204.6 123.6 204 123C203.4 122.4 200.92 121.24 199 121C197.08 120.76 188.96 118.96 188 121ZM193 160C192.88 162.28 196.4 177.36 197 180C197.6 182.64 197.4 181.76 198 182C198.6 182.24 200.56 182.84 202 182C203.44 181.16 208.92 176.44 210 175C211.08 173.56 212.44 171.68 211 170C209.56 168.32 200.16 162.2 198 161C195.84 159.8 193.12 157.72 193 160ZM195 143C193.56 145.28 192.6 146 195 146C197.4 146 212.24 143.48 215 143C217.76 142.52 217.64 142.84 218 142C218.36 141.16 218.72 137.8 218 136C217.28 134.2 213.32 128.08 212 127C210.68 125.92 209.04 125.08 207 127C204.96 128.92 196.44 140.72 195 143ZM196 151C193.6 152.2 196.2 155.2 198 157C199.8 158.8 209.08 164.92 211 166C212.92 167.08 213.16 168.28 214 166C214.84 163.72 220.16 148.8 218 147C215.84 145.2 198.4 149.8 196 151Z" fill="#090909" fill-rule="evenodd"/></svg>
