<svg xmlns="http://www.w3.org/2000/svg" viewBox="0 0 256 256" role="img" aria-hidden="true"><rect x="8" y="8" width="240" height="240" rx="56" fill="#C8FF00"/><!-- Iconic Drills Pack © 2026 Roman Kuzhel, Kyrgyzstan | CC BY 4.0 | https://github.com/roblo3x/iconic-drills-pack --><path d="M24 81C24.36 73.56 26.8 68.4 28 66C29.2 63.6 32.68 61.6 34 61C35.32 60.4 37.92 60.64 39 61C40.08 61.36 42.4 63.16 43 64C43.6 64.84 43.88 64.76 44 68C44.12 71.24 43.4 88.24 44 91C44.6 93.76 46.12 94.12 49 91C51.88 87.88 64.4 68.36 68 65C71.6 61.64 76.96 63 79 63C81.04 63 82.6 63.08 85 65C87.4 66.92 96.96 76.36 99 79C101.04 81.64 101.04 86.04 102 87C102.96 87.96 105.32 87.6 107 87C108.68 86.4 111.32 83.32 116 82C120.68 80.68 140.12 76.84 146 76C151.88 75.16 161.76 74.88 165 75C168.24 75.12 170.12 75.32 173 77C175.88 78.68 186 85.16 189 89C192 92.84 196.32 106 198 109C199.68 112 201.8 113.4 203 114C204.2 114.6 207.04 115.56 208 114C208.96 112.44 210.16 103.04 211 101C211.84 98.96 213.8 97.6 215 97C216.2 96.4 219.56 95.52 221 96C222.44 96.48 226.04 99.8 227 101C227.96 102.2 229 100.84 229 106C229 111.16 226.64 136.92 227 144C227.36 151.08 231.52 160.8 232 165C232.48 169.2 231.96 176.36 231 179C230.04 181.64 226.16 185.68 224 187C221.84 188.32 219.36 189.64 213 190C206.64 190.36 179.88 189.52 171 190C162.12 190.48 148.84 193.64 139 194C129.16 194.36 97.4 193.72 89 193C80.6 192.28 73.68 188.84 69 188C64.32 187.16 53.48 187.56 50 186C46.52 184.44 42.4 179.08 40 175C37.6 170.92 31.8 157.64 30 152C28.2 146.36 25.72 136.52 25 128C24.28 119.48 23.64 88.44 24 81ZM44 111C43.4 112.44 44.04 116.8 45 118C45.96 119.2 47.8 120.76 52 121C56.2 121.24 76.04 120.48 80 120C83.96 119.52 84.4 117.72 85 117C85.6 116.28 87.64 114.36 85 114C82.36 113.64 66.72 114.96 63 114C59.28 113.04 55.56 106.96 54 106C52.44 105.04 51.2 105.4 50 106C48.8 106.6 44.6 109.56 44 111ZM53 146C52.16 147.08 52.28 149.36 53 152C53.72 154.64 57.68 165.48 59 168C60.32 170.52 61.6 171.8 64 173C66.4 174.2 70.6 177.04 79 178C87.4 178.96 123.8 181.24 134 181C144.2 180.76 156.8 176.48 164 176C171.2 175.52 189.44 177.24 194 177C198.56 176.76 201.04 175.08 202 174C202.96 172.92 202.72 170.4 202 168C201.28 165.6 197.68 156.4 196 154C194.32 151.6 190.04 148.96 188 148C185.96 147.04 184.4 146.72 179 146C173.6 145.28 152 142.6 143 142C134 141.4 113.96 140.88 104 141C94.04 141.12 66.12 142.4 60 143C53.88 143.6 53.84 144.92 53 146Z" fill="#090909" fill-rule="evenodd"/></svg>
