<svg xmlns="http://www.w3.org/2000/svg" viewBox="0 0 256 256" role="img" aria-hidden="true"><rect x="8" y="8" width="240" height="240" rx="56" fill="#C8FF00"/><!-- Iconic Drills Pack © 2026 Roman Kuzhel, Kyrgyzstan | CC BY 4.0 | https://github.com/roblo3x/iconic-drills-pack --><path d="M40.98434,189.73338c1.99927,-12.43277 1.54696,-25.33692 4.23974,-37.65164c1.14304,-5.22742 3.64293,-9.97207 5.15605,-15.07739c1.32015,-4.45423 1.73849,-9.1555 2.32309,-13.74753c1.5256,-11.98362 4.15146,-23.45566 7.44401,-35.07337c1.10275,-3.89104 1.85565,-9.8946 4.65359,-12.97541c2.9502,-3.24846 7.40624,0.01419 10.52404,1.14834c4.53867,1.65101 14.93131,4.58093 19.22195,1.36275c2.52548,-1.89423 3.06426,-5.99558 3.6969,-8.84962c1.46445,-6.60658 2.41562,-12.95241 5.50272,-19.06355c6.20937,-12.29189 16.50566,-24.0866 31.06969,-24.81435c3.1959,-0.1597 6.77332,-0.43217 9.7877,0.86819c4.67265,2.01572 4.93061,7.47276 8.94186,10.00256c3.94535,2.48824 9.10913,1.49359 12.98697,4.32023c8.99139,6.55401 10.49939,20.83268 10.39104,31.06707c-0.03687,3.48254 -2.45217,8.21032 -1.46537,11.53334c0.93663,3.15407 5.83864,0.77319 6.48915,3.9157c0.41508,2.00515 -1.72938,4.79535 -2.27032,6.6795c-1.64292,5.72255 -2.55681,11.72659 -3.73906,17.55787c-2.77495,13.687 -5.49843,27.38485 -8.156,41.09513c-1.89221,9.7618 -4.23435,19.56378 -4.56139,29.53293c-0.41156,12.54563 0.87726,25.41666 -1.39719,37.835c-0.9112,4.97507 -2.61432,10.8841 -7.86212,12.82175c-8.08707,2.98599 -19.43473,0.28101 -27.69495,-0.90651c-21.74119,-3.1256 -43.08758,-8.30879 -64.65944,-12.34275c-2.05551,-0.38438 -3.71944,-1.78051 -5.56973,-2.05366c-6.43462,-0.9499 -16.21257,-19.97313 -15.05292,-27.18459zM101.98604,96.82838c0.37851,1.71539 2.00799,1.81275 2.80354,0.35601c2.60496,-4.76998 -0.36544,-12.83672 4.85831,-16.42979c2.61525,-1.79886 6.62915,-0.92585 9.53742,-0.5828c5.99027,0.70661 15.87961,3.94962 21.57543,1.14912c3.5809,-1.76064 3.62431,-6.99256 3.82168,-10.40024c0.40991,-7.07718 0.44729,-14.85901 -0.77458,-21.85922c-0.52823,-3.0263 -1.69454,-6.66551 -4.57426,-8.25818c-7.11654,-3.9359 -14.39063,1.78421 -18.82223,6.82338c-3.85633,4.38503 -6.915,9.93162 -8.68565,15.51228c-0.98719,3.11138 -0.67058,6.37673 -1.69251,9.51633c-2.45673,7.54759 -8.30803,22.99078 -8.04714,24.17311zM155.27454,82.71018c1.92153,2.4284 8.46852,3.0769 10.30781,0.26963c1.35718,-2.07145 0.71173,-5.4531 0.53584,-7.74491c-0.45189,-5.88806 -0.76042,-12.43104 -2.60587,-18.07265c-0.53577,-1.63787 -2.78269,-7.61705 -5.36526,-6.93921c-1.97371,0.51804 -1.7712,5.24679 -1.90111,6.68134c-0.55019,6.07564 -2.79232,23.50455 -0.97141,25.8058zM182.52643,111.66648c1.06679,-5.18346 2.39184,-10.43559 2.77119,-15.72664c0.20888,-2.91346 -0.96765,-6.7482 -0.17267,-9.51117c0.60188,-2.09185 4.32294,-2.0557 5.98946,-2.37436c5.50387,-1.05242 12.24306,-2.77071 17.74442,-0.88503c8.11843,2.78272 6.79489,18.41337 7.12777,25.27562c1.28937,26.57998 1.55676,53.28477 1.89466,79.89251c0.10147,7.99046 0.20399,15.9831 0.1745,23.97435c-0.00378,1.0246 0.69219,7.51458 -0.39174,7.90638c-2.93803,1.06197 -7.42273,1.00153 -10.63781,1.75832c-10.37086,2.44118 -20.76724,4.79264 -31.18411,7.0296c-3.24352,0.69653 -6.41655,1.32604 -9.73318,1.52066c-0.8075,0.04738 -1.83488,0.53808 -2.42664,-0.0134c-0.70968,-0.66138 10.91694,-80.32901 18.84414,-118.84684z" fill="#090909" fill-rule="evenodd"/></svg>
