<svg xmlns="http://www.w3.org/2000/svg" viewBox="0 0 256 256" role="img" aria-hidden="true"><rect x="8" y="8" width="240" height="240" rx="56" fill="#C8FF00"/><!-- Iconic Drills Pack © 2026 Roman Kuzhel, Kyrgyzstan | CC BY 4.0 | https://github.com/roblo3x/iconic-drills-pack --><path d="M38.25374,61.08187c8.76685,2.25584 5.50652,16.36605 5.48628,22.96705c-0.00587,1.914 -0.73875,7.82745 2.14346,8.30688c3.1637,0.52625 6.38015,-5.73261 7.81701,-7.78544c5.13091,-7.33049 11.27604,-21.5632 21.46839,-21.76626c9.74503,-0.19415 16.51727,7.57715 22.38818,14.59335c2.28988,2.73659 3.15414,10.09535 7.5318,9.79377c4.28378,-0.29511 8.3001,-4.44878 12.54164,-5.59405c12.03206,-3.24881 24.96255,-5.73359 37.40993,-6.39458c5.10154,-0.2709 10.94675,-0.94826 15.83357,0.87978c8.01347,2.99763 17.15943,10.03561 20.81702,17.80122c2.89802,6.15292 4.67586,17.33665 11.81496,20.07758c3.85948,1.48178 5.08932,-1.66516 5.77097,-4.80903c1.24683,-5.75057 3.09329,-14.7852 11.3661,-12.8354c5.34038,1.25866 8.43187,6.65798 8.30689,11.70519c-0.30879,12.47022 -3.17759,25.48568 -1.66589,37.92707c1.33275,10.96858 8.11375,21.99723 3.48873,33.18814c-3.6681,8.87553 -13.08735,10.8654 -21.6483,10.96356c-18.14313,0.20801 -35.85671,-0.83122 -53.86238,1.98392c-14.63184,2.28765 -29.10826,2.12383 -43.87771,1.79988c-8.56492,-0.18786 -17.48129,0.08909 -25.94505,-1.37179c-5.28454,-0.91214 -10.20489,-3.05207 -15.42108,-4.19155c-7.39514,-1.61547 -16.88957,0.72642 -23.05309,-4.51725c-7.02118,-5.97333 -10.60189,-15.65847 -14.01407,-23.9448c-10.08572,-24.49272 -5.97287,-101.6786 5.30264,-98.77725zM48.71829,120.45129c7.59714,2.54602 18.38987,0.50316 26.27409,0.04139c3.45919,-0.2026 8.78153,-0.15758 10.49099,-3.97341c1.26027,-2.81315 -3.16499,-2.5172 -4.61318,-2.49876c-4.72565,0.06017 -9.47736,0.55625 -14.20391,0.28888c-8.13178,-0.46 -12.23485,-12.7182 -20.14157,-6.15184c-0.99065,0.82271 -2.71058,10.65021 2.19356,12.29374zM54.74641,157.47675c1.48901,4.17212 2.80974,9.19338 5.71158,12.64044c3.2543,3.86574 9.20348,5.98451 13.97983,7.09291c9.57471,2.22192 20.00646,2.09575 29.78809,2.67333c11.1366,0.65759 22.75754,1.9883 33.88655,0.82836c11.35368,-1.18336 21.94823,-5.04727 33.48428,-4.67794c7.75932,0.24842 16.19234,1.88483 23.90112,0.74852c3.05999,-0.45105 6.61291,-1.75655 6.95444,-5.31221c0.30308,-3.15528 -1.44625,-6.62865 -2.59653,-9.46715c-4.39162,-10.83698 -11.11326,-14.75578 -22.47466,-16.24145c-29.14344,-3.81093 -58.1873,-5.50712 -87.57652,-4.36202c-8.63882,0.33659 -17.28717,0.68534 -25.91275,1.27918c-3.97951,0.27398 -10.66754,10.53314 -9.14542,14.79803z" fill="#090909" fill-rule="evenodd"/></svg>
