<svg xmlns="http://www.w3.org/2000/svg" viewBox="0 0 256 256" role="img" aria-hidden="true"><rect x="8" y="8" width="240" height="240" rx="56" fill="#0AF40B"/><!-- Iconic Drills Pack © 2026 Roman Kuzhel, Kyrgyzstan | CC BY 4.0 | https://github.com/roblo3x/iconic-drills-pack --><path d="M85 178L134 181L164 176L194 177L202 174L202 168L196 154L192 150L179 146L143 142L104 141L60 143L53 146L53 152L59 168L68 175ZM137 194L89 193L69 188L53 187L43 179L33 161L25 128L24 81L27 68L32 62L39 61L43 64L44 91L51 90L57 78L68 65L79 63L85 65L99 79L102 87L107 87L116 82L146 76L165 75L173 77L189 89L198 109L203 114L209 113L210 103L215 97L221 96L227 101L229 106L227 144L232 165L232 175L229 182L224 187L213 190L171 190ZM47 108L44 111L44 116L46 119L52 121L80 120L85 117L85 114L63 114L54 106Z" fill="#090909" fill-rule="evenodd"/></svg>
