<svg xmlns="http://www.w3.org/2000/svg" viewBox="0 0 256 256" role="img" aria-hidden="true"><rect x="8" y="8" width="240" height="240" rx="56" fill="#C8FF00"/><!-- Iconic Drills Pack © 2026 Roman Kuzhel, Kyrgyzstan | CC BY 4.0 | https://github.com/roblo3x/iconic-drills-pack --><path d="M46 149L51 135L55 108L62 80L65 75L70 74L77 77L95 78L101 56L107 44L115 34L127 26L142 25L148 28L153 36L161 37L171 45L176 60L177 75L175 84L182 85L182 89L179 96L164 172L155 232L37 215L36 209L41 190ZM183 107L186 85L209 85L214 87L218 217L215 220L207 222L164 230ZM157 58L155 83L166 83L164 59L160 51L157 51ZM110 70L102 98L106 96L110 80L142 81L144 69L144 51L142 43L138 40L131 40L125 43L117 52Z" fill="#090909" fill-rule="evenodd"/></svg>
