<svg xmlns="http://www.w3.org/2000/svg" viewBox="0 0 256 256" role="img" aria-hidden="true"><rect x="8" y="8" width="240" height="240" rx="56" fill="#C8FF00"/><!-- Iconic Drills Pack © 2026 Roman Kuzhel, Kyrgyzstan | CC BY 4.0 | https://github.com/roblo3x/iconic-drills-pack --><path d="M41.96989,185.2902c5.51871,-3.05374 14.032,-1.61837 17.66228,-7.74428c1.98579,-3.35092 2.49908,-7.68881 3.42298,-11.41563c1.29272,-5.21455 2.96374,-10.19097 5.28401,-15.04165c12.95036,-27.07352 27.68064,-53.10759 39.63883,-80.67729c2.11364,-4.87301 4.35493,-9.75089 6.08055,-14.77866c0.74305,-2.16495 1.93381,-5.22174 0.51329,-7.39003c-1.42818,-2.17999 -4.71436,-2.16732 -6.98636,-2.35295c-3.91451,-0.31982 -8.07624,-0.15198 -11.62549,-2.09184c-6.45942,-3.53041 -9.89509,-12.23696 -2.81718,-17.48652c3.50385,-2.59875 9.47986,-2.30398 13.26946,-0.63283c4.86899,2.14715 9.04064,5.65249 13.89889,7.8447c4.75656,2.14633 10.23437,3.40261 15.38517,4.1489c8.03101,1.1636 18.3277,-2.13725 24.95286,4.0733c5.96853,5.59502 2.80509,17.16726 -5.58074,18.28916c-6.24033,0.83487 -11.55434,-2.45285 -16.67641,-5.40381c-1.97068,-1.13536 -4.32349,-2.89853 -6.36841,-0.87496c-2.18796,2.1651 -3.19408,6.0596 -4.31711,8.84259c-2.74155,6.79388 -5.33994,13.64538 -8.00521,20.46933c-7.29443,18.67612 -16.17451,36.46154 -25.13441,54.37975c-3.27643,6.55229 -6.57912,13.0939 -9.67356,19.73474c-1.27916,2.74515 -3.49681,6.03544 -3.40831,9.17434c0.10651,3.7774 3.84462,7.20474 6.34063,9.66009c3.24366,3.19083 7.09231,6.31347 11.55937,7.54255c7.89709,2.17283 17.82861,-0.1651 25.80361,-1.1448c6.611,-0.81214 13.20519,-1.74847 19.80079,-2.6754c3.07946,-0.43278 6.86912,-0.33991 9.76212,-1.5404c4.20759,-1.746 4.65049,-8.00035 6.22148,-11.68837c2.26506,-5.31742 7.27756,-9.89466 12.22456,-12.73518c10.29331,-5.91031 28.29037,-7.86517 37.68909,1.17574c3.07123,2.95431 1.79651,7.36774 3.99366,10.72889c1.44968,2.21769 3.76754,3.69252 5.19355,5.94438c3.01873,4.76697 3.90448,13.97737 2.63107,19.40467c-2.64077,11.25499 -13.17495,19.29557 -24.43654,20.31286c-7.52517,0.67977 -16.61206,-1.38532 -22.33465,-6.66055c-2.04737,-1.88732 -4.29214,-9.1264 -7.10483,-9.06412c-5.70935,0.12643 -11.86264,2.04047 -17.48296,3.05427c-11.79821,2.12816 -23.59321,4.27458 -35.39855,6.363c-4.59066,0.81211 -9.18138,1.62981 -13.78301,2.37784c-2.21929,0.36076 -5.32689,1.35221 -7.55716,0.67621c-1.58553,-0.48057 -2.2023,-2.39746 -3.02312,-3.62421c-2.07145,-3.09591 -6.17131,-10.86739 -10.06762,-11.71379c-2.11089,-0.45855 -1.98719,1.77275 -1.70859,3.06278c1.18382,5.48163 2.69034,9.84245 2.04157,15.60879c-1.06054,9.42623 -9.7158,19.0325 -19.09335,20.37349c-17.3954,2.48754 -27.32869,-42.8849 -20.78626,-46.50511zM50.36977,210.62709c2.45438,4.68147 9.94009,5.30337 13.3446,1.35078c4.80575,-5.57941 -0.23107,-16.70388 -8.0803,-14.13483c-2.623,0.85851 -6.87418,9.71339 -5.2643,12.78405zM205.42183,186.81275c2.93272,-7.73894 -4.19803,-14.87004 -12.04128,-13.11064c-3.37009,0.75598 7.00057,26.41221 12.04128,13.11064z" fill="#090909" fill-rule="evenodd"/></svg>
