<svg xmlns="http://www.w3.org/2000/svg" viewBox="0 0 256 256" role="img" aria-hidden="true"><rect x="8" y="8" width="240" height="240" rx="56" fill="#C8FF00"/><!-- Iconic Drills Pack © 2026 Roman Kuzhel, Kyrgyzstan | CC BY 4.0 | https://github.com/roblo3x/iconic-drills-pack --><path d="M126 182L157 177L165 160L179 151L197 149L207 152L212 156L214 165L221 173L223 190L220 198L215 204L201 211L185 210L176 205L170 196L98 208L93 206L83 193L79 193L82 211L78 222L69 230L56 232L42 227L35 219L32 210L33 199L38 189L47 182L59 179L67 154L96 97L114 56L114 47L98 45L90 39L90 31L92 27L96 25L105 25L116 32L137 38L156 39L161 42L164 48L162 56L157 60L146 59L137 54L131 55L112 102L82 164L82 169L101 184ZM192 174L186 180L186 187L192 193L199 193L205 188L206 181L203 176ZM56 214L61 214L65 210L65 203L61 198L55 198L50 203L51 212Z" fill="#090909" fill-rule="evenodd"/></svg>
