<svg xmlns="http://www.w3.org/2000/svg" viewBox="0 0 256 256" role="img" aria-hidden="true"><rect x="8" y="8" width="240" height="240" rx="56" fill="#C8FF00"/><!-- Iconic Drills Pack © 2026 Roman Kuzhel, Kyrgyzstan | CC BY 4.0 | https://github.com/roblo3x/iconic-drills-pack --><path d="M199 96L200 102L196 107L175 109L169 111L167 114L168 120L183 121L192 127L193 139L190 143L190 147L198 151L202 161L201 171L197 177L186 179L181 175L174 176L173 182L182 189L183 198L180 203L174 206L174 220L168 227L161 230L143 229L132 232L124 230L102 232L97 230L90 222L89 203L94 186L105 169L105 146L107 144L115 144L124 151L127 159L126 171L133 172L164 153L176 149L176 143L168 143L159 146L136 160L133 157L130 146L125 141L113 135L102 136L97 146L97 165L91 173L83 191L82 209L80 211L75 211L71 208L68 200L68 187L72 176L81 164L82 150L66 128L60 116L55 97L54 70L58 58L72 41L91 29L105 25L137 25L145 27L156 33L162 39L178 70L194 86ZM131 76L127 76L123 72L124 67L127 65L131 65L134 68L134 73ZM143 65L140 59L132 56L125 56L119 59L114 66L115 77L122 83L131 84L138 82L145 72Z" fill="#090909" fill-rule="evenodd"/></svg>
