<svg xmlns="http://www.w3.org/2000/svg" viewBox="0 0 256 256" role="img" aria-hidden="true"><rect x="8" y="8" width="240" height="240" rx="56" fill="#C8FF00"/><!-- Iconic Drills Pack © 2026 Roman Kuzhel, Kyrgyzstan | CC BY 4.0 | https://github.com/roblo3x/iconic-drills-pack --><path d="M24 163C24.96 160 29.84 149.76 32 147C34.16 144.24 38.52 140.96 42 140C45.48 139.04 56.92 138.52 61 139C65.08 139.48 74.2 143.76 76 144C77.8 144.24 77.2 143.28 76 141C74.8 138.72 68.28 127.52 66 125C63.72 122.48 58.68 121.32 57 120C55.32 118.68 52.6 115.44 52 114C51.4 112.56 51.4 109.32 52 108C52.6 106.68 55.8 103.6 57 103C58.2 102.4 60.56 102.4 62 103C63.44 103.6 66.12 103.56 69 108C71.88 112.44 83.72 135.8 86 140C88.28 144.2 87.16 142.52 88 143C88.84 143.48 92.16 147.96 93 144C93.84 140.04 93.92 117.68 95 110C96.08 102.32 99.48 86.96 102 80C104.52 73.04 112.28 57.16 116 52C119.72 46.84 128.68 39.76 133 37C137.32 34.24 147.56 30.08 152 29C156.44 27.92 165.8 27.52 170 28C174.2 28.48 182.8 30.48 187 33C191.2 35.52 202 45.04 205 49C208 52.96 210.92 61.2 212 66C213.08 70.8 215.08 80.48 214 89C212.92 97.52 204.2 130.76 203 137C201.8 143.24 202.44 139.44 204 141C205.56 142.56 213.84 147.96 216 150C218.16 152.04 220.32 154.4 222 158C223.68 161.6 228.8 175.8 230 180C231.2 184.2 232.24 189.4 232 193C231.76 196.6 229.68 206.4 228 210C226.32 213.6 220.76 220.84 218 223C215.24 225.16 207.76 227.4 205 228C202.24 228.6 199.92 230.04 195 228C190.08 225.96 169.64 213.4 164 211C158.36 208.6 150.16 206.68 148 208C145.84 209.32 146.84 219.84 146 222C145.16 224.16 142.44 225.52 141 226C139.56 226.48 136.4 227.32 134 226C131.6 224.68 124.12 218.48 121 215C117.88 211.52 110.16 199.16 108 197C105.84 194.84 105.04 195.8 103 197C100.96 198.2 93.88 203.52 91 207C88.12 210.48 81.52 223.48 79 226C76.48 228.52 72.04 228.48 70 228C67.96 227.52 63.44 224.64 62 222C60.56 219.36 60.76 209.24 58 206C55.24 202.76 42.48 197.52 39 195C35.52 192.48 30.8 187.76 29 185C27.2 182.24 24.6 174.64 24 172C23.4 169.36 23.04 166 24 163ZM49 173C48.88 175.16 50.32 181.84 52 184C53.68 186.16 60.6 190.28 63 191C65.4 191.72 70.2 191.08 72 190C73.8 188.92 77.52 184.16 78 182C78.48 179.84 76.84 173.8 76 172C75.16 170.2 72.44 167.96 71 167C69.56 166.04 66.16 164.12 64 164C61.84 163.88 54.8 164.92 53 166C51.2 167.08 49.12 170.84 49 173ZM136 105C135.64 109.44 136.92 117.88 138 121C139.08 124.12 143.32 129.44 145 131C146.68 132.56 150.32 133.64 152 134C153.68 134.36 157.2 134.48 159 134C160.8 133.52 164.84 132.16 167 130C169.16 127.84 175.2 119.84 177 116C178.8 112.16 181.52 102.32 182 98C182.48 93.68 181.84 83.6 181 80C180.16 76.4 176.44 69.8 175 68C173.56 66.2 170.92 65.36 169 65C167.08 64.64 161.16 64.52 159 65C156.84 65.48 152.8 67.56 151 69C149.2 70.44 145.2 75.2 144 77C142.8 78.8 141.96 80.64 141 84C140.04 87.36 136.36 100.56 136 105ZM172 171C171.04 173.28 170.8 178.48 172 181C173.2 183.52 178.88 190.68 182 192C185.12 193.32 195.24 193.2 198 192C200.76 190.8 204.52 184.76 205 182C205.48 179.24 203.32 171.4 202 169C200.68 166.6 196.64 162.84 194 162C191.36 161.16 182.64 160.92 180 162C177.36 163.08 172.96 168.72 172 171Z" fill="#090909" fill-rule="evenodd"/></svg>
