<svg xmlns="http://www.w3.org/2000/svg" viewBox="0 0 256 256" role="img" aria-hidden="true"><rect x="8" y="8" width="240" height="240" rx="56" fill="#C8FF00"/><!-- Iconic Drills Pack © 2026 Roman Kuzhel, Kyrgyzstan | CC BY 4.0 | https://github.com/roblo3x/iconic-drills-pack --><path d="M39.8673,140.93684c5.65416,-2.54844 13.63243,-2.50634 19.71692,-1.97167c4.02306,0.35353 7.72596,1.89298 11.46855,3.297c0.98514,0.36957 3.77991,1.87342 4.87958,0.9582c0.74153,-0.61715 -0.0981,-2.26992 -0.27907,-2.68153c-1.05641,-2.40271 -2.60251,-4.67669 -3.9585,-6.91775c-1.997,-3.30046 -3.96176,-7.15227 -7.06967,-9.55653c-4.29006,-3.31877 -9.70183,-4.18245 -12.15594,-9.65956c-2.15911,-4.81871 1.233,-11.10417 6.65792,-11.58224c4.93963,-0.43531 8.62898,3.21476 10.95892,7.08241c4.80303,7.97291 8.8128,16.48967 13.09814,24.74723c1.46736,2.82751 2.77989,6.11286 5.0611,8.40484c0.92684,0.93122 2.7848,2.54599 4.08935,1.09354c2.36041,-2.62802 1.34963,-10.0986 1.47512,-13.40762c0.43448,-11.4576 1.16248,-22.50297 3.63154,-33.73114c2.62549,-11.93952 6.59002,-22.85284 12.13374,-33.74697c2.72051,-5.34616 5.51388,-10.6963 9.71604,-15.04603c16.39106,-16.96669 43.04102,-26.73932 65.60447,-16.252c4.21601,1.95957 7.80739,5.15294 11.2666,8.20092c3.45043,3.04025 7.1005,6.2034 9.63689,10.08057c2.52938,3.86646 4.16943,8.41993 5.44311,12.83607c2.35572,8.16784 3.76305,17.20305 2.76382,25.69222c-1.94131,16.49281 -9.32664,32.23844 -11.0043,48.69369c-0.34949,3.42795 2.55533,4.80048 4.99564,6.55913c4.32138,3.11425 8.83152,6.05298 11.92877,10.49323c3.02581,4.33783 4.62313,9.66796 6.40547,14.59761c2.46026,6.80466 5.21877,13.88314 5.60835,21.18585c0.59598,11.17174 -4.13976,22.94375 -11.97642,30.80163c-2.416,2.42254 -5.30004,3.85321 -8.48837,4.99714c-4.10594,1.47317 -9.13244,3.3548 -13.55222,2.64209c-3.88569,-0.62658 -7.47391,-3.01891 -10.84296,-4.9152c-8.03748,-4.52393 -15.96211,-10.00712 -24.58154,-13.36219c-3.46011,-1.34683 -7.80433,-2.94621 -11.58113,-2.66931c-4.67003,0.34239 -4.29413,5.46088 -4.47081,8.95425c-0.28465,5.62801 -3.10618,10.10586 -9.44435,9.75776c-3.36397,-0.18475 -6.05012,-2.56758 -8.52285,-4.60178c-5.84032,-4.80455 -10.15154,-10.25949 -14.40435,-16.46504c-1.91473,-2.79391 -5.02804,-9.60879 -9.2006,-9.00249c-2.43066,0.35319 -4.7897,2.57589 -6.64424,4.0239c-6.10758,4.76876 -9.80555,10.32038 -13.67747,16.93062c-2.19478,3.74698 -4.37241,8.7809 -8.82941,10.24619c-1.20567,0.39638 -2.61621,0.54815 -3.87924,0.46008c-1.36848,-0.09542 -2.53177,-0.42632 -3.77267,-1.00252c-9.23369,-4.28761 -5.17916,-13.39216 -9.91793,-20.35155c-3.52949,-5.18344 -11.61856,-7.32379 -16.83831,-10.35204c-10.92958,-6.34082 -10.1803,-51.52507 -1.44768,-55.46103zM60.26206,189.86547c6.81622,3.28378 15.16452,0.36796 17.41781,-7.24356c4.92478,-16.63572 -24.92162,3.62853 -17.41781,7.24356zM157.69116,134.17829c1.96426,-0.26168 3.89518,-0.89561 5.66472,-1.78106c4.73775,-2.37071 7.90667,-7.2302 10.76963,-11.51679c6.68392,-10.00753 8.73185,-22.64195 7.75933,-34.44431c-0.52454,-6.36577 -2.43149,-13.53423 -6.95844,-18.33261c-5.35848,-5.67977 -16.36078,-4.06499 -22.25652,-0.24284c-11.60304,7.52213 -12.10586,68.59934 5.02128,66.31762zM204.1425,184.49811c5.78896,-13.97668 -11.24654,-28.52301 -24.43196,-22.2091c-3.50008,1.67603 16.38082,41.64749 24.43196,22.2091z" fill="#090909" fill-rule="evenodd"/></svg>
