<svg xmlns="http://www.w3.org/2000/svg" viewBox="0 0 256 256" role="img" aria-hidden="true"><rect x="8" y="8" width="240" height="240" rx="56" fill="#C8FF00"/><!-- Iconic Drills Pack © 2026 Roman Kuzhel, Kyrgyzstan | CC BY 4.0 | https://github.com/roblo3x/iconic-drills-pack --><path d="M135 162L150 161L155 164L155 167L158 167L158 162L151 158L135 159ZM169 111L174 122L180 126L185 126L189 121L195 119L202 122L204 130L195 138L196 143L199 145L200 157L191 167L176 175L164 175L137 182L102 183L99 180L99 175L88 176L80 173L59 156L57 145L60 138L55 136L51 130L53 121L59 118L66 119L70 122L68 126L61 125L62 129L72 129L83 123L94 113L99 92L107 86L117 84L117 81L110 75L107 64L107 53L109 48L113 41L119 38L114 28L115 25L120 26L124 33L127 33L127 26L129 24L132 25L134 36L137 36L145 28L151 27L152 31L144 38L144 41L151 49L152 67L148 75L142 80L142 83L153 84L160 89L166 100ZM171 210L174 208L182 208L187 211L187 218L182 223L179 223L177 228L173 231L169 232L158 228L156 224L158 217ZM102 126L98 131L82 137L82 140L101 145L101 141L109 136L109 119L106 119ZM133 78L140 71L143 58L135 61L130 55L132 53L134 55L141 54L141 50L135 45L124 45L117 51L117 54L122 56L125 53L127 56L122 61L115 60L115 67L119 74L125 78L127 84L130 84ZM127 171L114 170L114 173L131 174L131 171ZM163 133L157 127L153 115L150 115L150 134L159 140L163 140L169 138L169 135ZM132 66L134 66L135 69L131 72L122 70L122 66ZM189 130L196 129L196 125L190 126ZM154 171L154 168L151 168L145 170L145 173Z" fill="#090909" fill-rule="evenodd"/></svg>
