<svg xmlns="http://www.w3.org/2000/svg" viewBox="0 0 256 256" role="img" aria-hidden="true"><rect x="8" y="8" width="240" height="240" rx="56" fill="#C8FF00"/><!-- Iconic Drills Pack © 2026 Roman Kuzhel, Kyrgyzstan | CC BY 4.0 | https://github.com/roblo3x/iconic-drills-pack --><path d="M29 155C29 153.2 29.16 152.84 30 152C30.84 151.16 34.08 148.48 36 148C37.92 147.52 44.2 147.76 46 148C47.8 148.24 50.16 149.16 51 150C51.84 150.84 53 154.16 53 155C53 155.84 52.44 156.88 51 157C49.56 157.12 42.2 155.64 41 156C39.8 156.36 39.56 159.28 41 160C42.44 160.72 50.36 162.24 53 162C55.64 161.76 60 160.16 63 158C66 155.84 75.48 146.04 78 144C80.52 141.96 82.44 144.72 84 141C85.56 137.28 88.84 117.32 91 113C93.16 108.68 99.24 106.32 102 105C104.76 103.68 112.56 102.72 114 102C115.44 101.28 115.2 100.68 114 99C112.8 97.32 105.56 91 104 88C102.44 85 101.36 76.88 101 74C100.64 71.12 100.64 66.16 101 64C101.36 61.84 103.04 58.04 104 56C104.96 53.96 107.44 48.68 109 47C110.56 45.32 116.04 43.08 117 42C117.96 40.92 117.6 39.2 117 38C116.4 36.8 112.72 33.44 112 32C111.28 30.56 110.4 26.72 111 26C111.6 25.28 115.56 24.8 117 26C118.44 27.2 121.68 34.56 123 36C124.32 37.44 127.4 39.2 128 38C128.6 36.8 127.4 27.56 128 26C128.6 24.44 132.04 24.52 133 25C133.96 25.48 135.64 28.32 136 30C136.36 31.68 135.4 37.92 136 39C136.6 40.08 138.72 40.44 141 39C143.28 37.56 152.72 27.96 155 27C157.28 26.04 160.6 29.2 160 31C159.4 32.8 151.2 40.2 150 42C148.8 43.8 149.52 45.16 150 46C150.48 46.84 152.92 47.56 154 49C155.08 50.44 158.28 54.28 159 58C159.72 61.72 160.48 76.16 160 80C159.52 83.84 156.56 87.84 155 90C153.44 92.16 147.96 96.68 147 98C146.04 99.32 145.08 100.4 147 101C148.92 101.6 160.24 102.04 163 103C165.76 103.96 168.2 106.6 170 109C171.8 111.4 176.32 119.04 178 123C179.68 126.96 182.56 138.4 184 142C185.44 145.6 188.32 151.08 190 153C191.68 154.92 196.56 157.4 198 158C199.44 158.6 200.68 158.84 202 158C203.32 157.16 206.84 152.08 209 151C211.16 149.92 217.84 148.52 220 149C222.16 149.48 226.04 153.44 227 155C227.96 156.56 228.48 160.32 228 162C227.52 163.68 224.44 167.68 223 169C221.56 170.32 216 170.72 216 173C216 175.28 222.28 184.88 223 188C223.72 191.12 223.92 195.88 222 199C220.08 202.12 210 211.84 207 214C204 216.16 198.8 216.16 197 217C195.2 217.84 196.08 220.16 192 221C187.92 221.84 169.72 222.8 163 224C156.28 225.2 144.04 230.04 136 231C127.96 231.96 101.4 232.24 96 232C90.6 231.76 91.72 230.2 91 229C90.28 227.8 91.44 222.72 90 222C88.56 221.28 81.76 223.36 79 223C76.24 222.64 69.4 220.08 67 219C64.6 217.92 60.68 215.44 59 214C57.32 212.56 55.16 208.68 53 207C50.84 205.32 43.04 202.04 41 200C38.96 197.96 36.6 192.04 36 190C35.4 187.96 35.52 185.04 36 183C36.48 180.96 40.24 174.44 40 173C39.76 171.56 35.2 171.72 34 171C32.8 170.28 30.6 168.92 30 167C29.4 165.08 29 156.8 29 155ZM67 172C64.48 173.2 63.88 173.8 67 175C70.12 176.2 89.88 181.64 93 182C96.12 182.36 91.68 179.32 93 178C94.32 176.68 102.68 174.96 104 171C105.32 167.04 104.36 148.12 104 145C103.64 141.88 101.84 143.68 101 145C100.16 146.32 98.56 153.6 97 156C95.44 158.4 91.6 163.08 88 165C84.4 166.92 69.52 170.8 67 172ZM91 215C88.36 215.48 88.6 217.64 91 218C93.4 218.36 107.88 217.76 111 218C114.12 218.24 111.72 219.88 117 220C122.28 220.12 149.48 219.48 155 219C160.52 218.52 161.56 216.84 163 216C164.44 215.16 166.4 213.32 167 212C167.6 210.68 168.6 206.44 168 205C167.4 203.56 165.72 200.48 162 200C158.28 199.52 140.96 201.48 137 201C133.04 200.52 130.68 196.72 129 196C127.32 195.28 123.72 194.76 123 195C122.28 195.24 121.68 196.92 123 198C124.32 199.08 129.44 203.28 134 204C138.56 204.72 157.4 203.64 161 204C164.6 204.36 163.88 206.04 164 207C164.12 207.96 164.04 210.8 162 212C159.96 213.2 150.72 216.4 147 217C143.28 217.6 135.08 217.36 131 217C126.92 216.64 117.8 214.24 113 214C108.2 213.76 93.64 214.52 91 215ZM111 69C110.88 70.8 111.44 81 113 84C114.56 87 122.32 91.84 124 94C125.68 96.16 126.16 101.04 127 102C127.84 102.96 130.28 102.6 131 102C131.72 101.4 131.2 99.28 133 97C134.8 94.72 144.2 85.64 146 83C147.8 80.36 147.76 76.92 148 75C148.24 73.08 148.36 67.96 148 67C147.64 66.04 145.84 66.4 145 67C144.16 67.6 141.96 71.4 141 72C140.04 72.6 138.08 72.48 137 72C135.92 71.52 132.6 69.08 132 68C131.4 66.92 131.52 63.6 132 63C132.48 62.4 135.4 62.76 136 63C136.6 63.24 136.4 64.76 137 65C137.6 65.24 140.4 65.24 141 65C141.6 64.76 141.28 63.12 142 63C142.72 62.88 146.64 64.72 147 64C147.36 63.28 146.32 58.56 145 57C143.68 55.44 138.64 51.6 136 51C133.36 50.4 125.76 50.8 123 52C120.24 53.2 114.2 59.56 113 61C111.8 62.44 112.04 63.52 113 64C113.96 64.48 119.92 65.12 121 65C122.08 64.88 121.4 63.24 122 63C122.6 62.76 125.52 62.4 126 63C126.48 63.6 126.48 66.92 126 68C125.52 69.08 123.2 71.52 122 72C120.8 72.48 116.96 72.36 116 72C115.04 71.64 114.6 69.36 114 69C113.4 68.64 111.12 67.2 111 69ZM120 81C119.88 80.28 119.56 79.12 121 79C122.44 78.88 130.44 80.12 132 80C133.56 79.88 133.28 78 134 78C134.72 78 138.24 78.92 138 80C137.76 81.08 133.44 86.16 132 87C130.56 87.84 127.2 87.24 126 87C124.8 86.76 122.72 85.72 122 85C121.28 84.28 120.12 81.72 120 81ZM156 156C156.12 159.36 156.44 165.6 158 168C159.56 170.4 165.88 175.28 169 176C172.12 176.72 182.2 174.72 184 174C185.8 173.28 184.96 170.72 184 170C183.04 169.28 177.8 168.96 176 168C174.2 167.04 170.92 165.36 169 162C167.08 158.64 161.44 142.64 160 140C158.56 137.36 157.48 138.08 157 140C156.52 141.92 155.88 152.64 156 156ZM209 158C208.04 158.84 208.4 162.4 209 163C209.6 163.6 212.92 163.36 214 163C215.08 162.64 217.64 160.84 218 160C218.36 159.16 218.08 156.24 217 156C215.92 155.76 209.96 157.16 209 158Z" fill="#090909" fill-rule="evenodd"/></svg>
