<svg xmlns="http://www.w3.org/2000/svg" viewBox="0 0 256 256" role="img" aria-hidden="true"><rect x="8" y="8" width="240" height="240" rx="56" fill="#0AF40B"/><path d="M124 46L135 38L158 27L168 24L180 25L217 51L222 62L222 73L214 92L203 103L197 106L188 106L181 103L176 97L175 89L185 71L196 65L201 67L199 79L202 79L206 71L206 63L204 61L196 61L186 66L150 91L150 115L144 133L130 149L116 159L104 164L97 171L85 207L85 216L91 217L99 214L100 210L93 210L94 200L102 192L112 191L122 198L122 206L119 213L109 224L101 228L84 232L72 232L43 217L36 210L34 204L34 181L44 147L42 120L45 102L51 87L63 75L80 66L103 59ZM82 164L86 165L85 161L55 146L58 152ZM109 122L118 105L118 97L114 93L79 95L71 100L70 112L72 121L76 129L82 134L96 135L103 131ZM59 205L56 202L52 202L52 206L55 209L59 209ZM136 84L139 84L139 81L135 77L123 69L111 65L112 69L129 78ZM55 185L56 190L62 190L61 184L56 183ZM169 47L168 44L163 43L165 49L169 49ZM178 39L178 41L181 41L181 38Z" fill="#090909" fill-rule="evenodd"/></svg>
