<svg xmlns="http://www.w3.org/2000/svg" viewBox="0 0 256 256" role="img" aria-hidden="true"><rect x="8" y="8" width="240" height="240" rx="56" fill="#C8FF00"/><!-- Iconic Drills Pack © 2026 Roman Kuzhel, Kyrgyzstan | CC BY 4.0 | https://github.com/roblo3x/iconic-drills-pack --><path d="M53.76711,29.39066c5.66204,-3.90929 14.58239,-4.00312 21.21453,-4.80078c2.4977,-0.3004 5.37405,-0.92283 7.86324,-0.26447c4.06023,1.07389 5.21074,5.63423 8.7191,7.4777c1.73262,0.91041 3.75597,0.91594 5.45054,1.92943c3.62062,2.16544 7.34236,9.24936 8.067,13.31894c0.6332,3.55608 -1.664,6.03089 -4.19423,8.1421c-4.48479,3.74207 -9.6392,7.41257 -14.70273,10.32803c-1.01903,0.58673 -3.70823,0.9993 -4.4364,1.91994c-0.56972,0.72031 -0.06556,2.33315 0.07858,2.93983c0.68844,2.89761 1.763,8.89787 4.88747,10.21425c6.28679,2.64871 11.85396,-6.7457 16.77863,-8.55206c4.29454,-1.57523 9.30172,-1.32406 13.78189,-2.05207c1.79523,-0.29172 3.90809,-0.59481 5.12553,-2.1423c0.37164,-0.47239 0.62024,-1.0459 0.78199,-1.62479c1.81807,-6.50681 -5.08259,-4.00778 -7.40988,-7.69061c-4.74844,-7.51418 9.41666,-11.0467 14.05385,-11.56907c1.96951,-0.22186 4.00018,-0.26276 5.97989,-0.19215c3.7543,0.1339 7.15757,2.80284 5.08184,7.03121c-2.39814,4.88512 -10.3103,1.56098 -9.93522,9.36967c0.05759,1.19898 0.31864,2.37831 1.32265,3.1729c1.90641,1.50877 5.30128,0.79716 7.49592,0.65651c4.76618,-0.30546 9.19714,-0.59643 13.68321,1.34596c4.28075,1.85348 8.22506,4.39135 12.37494,6.50248c2.01357,1.02435 4.61394,2.52471 6.35099,0.2106c2.04137,-2.71952 5.29607,-11.62368 2.70257,-14.57871c-2.06057,-2.34781 -6.29915,-2.27618 -9.02629,-3.36694c-6.55874,-2.62327 -11.14123,-11.11302 -7.42475,-17.79923c6.10335,-10.98036 18.34646,-12.45594 29.46881,-13.12221c3.1255,-0.18723 6.7798,-1.07389 9.86627,-0.34536c3.71297,0.87641 6.84818,4.37718 9.62737,6.79192c5.17336,4.49496 9.53414,9.1969 9.47914,16.55422c-0.06305,8.43499 -3.51916,22.91234 -14.29232,23.0013c-6.46228,0.05337 -16.0186,-11.1121 -20.22492,-2.08577c-0.46675,1.00159 -1.06012,2.68626 -1.41367,3.73036c-0.62227,1.83768 -1.38037,3.78156 -1.75427,5.68864c-0.71692,3.6567 2.10734,5.30068 4.67506,7.25786c3.20168,2.44041 6.19483,4.99712 8.60528,8.2527c5.05502,6.82735 7.79403,15.66053 10.95699,23.47283c2.66338,6.57837 6.25753,13.61231 7.19572,20.70427c0.52738,3.9866 -0.21996,7.95778 -0.7064,11.90693c-0.95358,7.74159 -1.40782,16.29142 -5.78882,22.99513c-2.90939,4.45188 -6.47198,8.4808 -9.79279,12.62294c-1.43287,1.78726 -3.74833,4.03036 -3.67843,6.52441c0.05176,1.84651 1.38588,3.68865 2.24565,5.22943c2.268,4.06442 4.77248,8.0235 6.88237,12.17339c1.54027,3.02952 2.36827,6.07048 -0.24126,8.80316c-7.73195,8.09684 -15.75434,-3.72279 -18.18438,-10.38957c-0.76657,-2.10309 -1.02012,-5.50113 -3.11226,-6.82772c-1.64753,-1.04467 -3.73454,-0.28575 -5.32983,0.385c-3.68564,1.54967 -6.97052,3.86955 -10.74017,5.26736c-14.1695,5.25416 -30.27846,6.90914 -45.27885,5.29023c-8.22577,-0.88776 -16.52221,-7.77856 -24.74912,-7.16703c-4.26874,0.31731 -5.27773,5.39142 -6.16352,8.74715c-2.00156,7.58269 -3.08632,19.46799 -14.23002,17.27875c-4.2615,-0.8372 -4.37826,-6.15511 -3.47478,-9.48913c1.53399,-5.66078 5.06513,-11.00558 7.65111,-16.23405c1.03798,-2.09864 2.79761,-4.80698 2.49658,-7.26946c-0.31376,-2.5667 -2.96975,-4.27995 -4.80201,-5.74367c-4.22845,-3.37794 -8.43394,-6.40345 -11.10118,-11.24105c-1.55355,-2.8177 -3.1705,-5.99029 -3.52421,-9.23172c-0.36607,-3.35465 0.23913,-6.50788 -0.61097,-9.85071c-2.56091,-10.07025 -6.26813,-18.49563 -5.69271,-29.13685c0.55249,-10.21708 4.29514,-17.25785 9.40455,-25.81307c1.61357,-2.70178 1.40389,-6.08596 3.44413,-8.48634c2.81537,-3.31234 12.03183,-7.75854 10.57962,-13.05506c-0.49756,-1.81473 -2.24046,-2.86137 -3.07318,-4.48922c-0.9425,-1.84247 -0.78675,-5.48312 -3.18555,-6.26624c-2.20458,-0.71971 -5.18631,1.50936 -6.97471,2.49043c-4.39905,2.41321 -9.35279,6.10524 -14.68557,5.08763c-7.38222,-1.40869 -5.15965,-46.53529 5.56236,-53.93817zM78.68489,182.02694c2.07133,1.84 4.61632,1.82223 6.81421,3.2787c3.29995,2.18676 4.10316,6.54844 7.72158,8.6409c3.9197,2.26667 8.88499,3.226 13.22109,4.38855c14.93201,4.00344 28.32057,3.63536 43.28146,-0.02401c9.9829,-2.44178 21.29198,-5.16431 29.28364,-12.07141c3.00879,-2.60047 5.02618,-6.22296 7.07611,-9.57497c7.15213,-11.69499 9.85408,-22.16117 9.47281,-35.89458c-0.22859,-8.23391 -3.18298,-15.407 -6.59524,-22.79404c-1.17793,-2.55004 -2.40501,-6.74725 -4.80013,-8.43702c-3.7667,-2.65742 -8.24024,3.18197 -12.38215,-0.34383c-4.6793,-3.98325 2.357,-4.87121 4.1583,-6.4927c2.42352,-2.1816 -0.94279,-6.35202 -2.62916,-7.74371c-21.00359,-17.33337 -53.05028,-21.33833 -76.56792,-6.78849c-2.96163,1.8323 -4.48509,4.64871 -7.03631,6.86872c-4.1405,3.60296 -9.76313,3.34784 -13.27166,8.06978c-8.79352,11.83472 -7.47641,70.27499 2.25336,78.91811zM82.44936,157.80802c3.1005,4.32209 -2.67994,-3.73583 0,0zM83.03603,131.09677c-0.78857,4.80281 0.90261,-5.49737 0,0zM93.6611,176.26266c3.02421,6.00309 -3.04854,-6.05138 0,0zM113.91523,194.30991c-5.58727,2.2902 6.52531,-2.6747 0,0zM129.31732,131.14169c1.20619,-2.81655 0.50476,-6.77104 0.42043,-9.74567c-0.2268,-7.99992 -0.59478,-15.99552 -0.80453,-23.9959c-0.10434,-3.98004 -0.78273,-10.30182 4.96354,-10.36592c5.09897,-0.05688 4.23988,7.67326 4.30081,10.994c0.13448,7.32897 0.10187,14.68255 0.74332,21.99077c0.27798,3.16706 0.46136,6.82509 2.06793,9.65642c1.66063,2.9266 4.8824,4.44344 7.87776,5.63187c6.53504,2.59281 14.25404,4.76053 21.24871,5.53537c2.9951,0.33178 9.23979,0.50214 7.59179,5.35784c-1.13745,3.35139 -4.78266,4.28622 -7.87271,4.65529c-5.84231,0.69779 -12.22113,0.35132 -17.43956,-2.68756c-2.23811,-1.30333 -3.80034,-3.68588 -6.2995,-4.5438c-5.05171,-1.73417 -10.5237,1.98987 -15.5377,-0.51763c-3.73155,-1.86615 -1.91144,-10.44459 -1.26029,-11.96507zM131.14812,185.86489c3.04731,-7.50954 10.97967,5.84205 4.81717,8.38847c-4.76246,1.96791 -5.06446,-7.77907 -4.81717,-8.38847zM164.24877,188.106c-1.07378,2.83269 -4.70598,2.2705 -6.36271,0.42844c-1.5932,-1.77141 8.19698,-5.26734 6.36271,-0.42844zM179.34697,175.51555c-0.31072,5.46794 0.28251,-4.9716 0,0z" fill="#090909" fill-rule="evenodd"/></svg>
