<svg xmlns="http://www.w3.org/2000/svg" viewBox="0 0 256 256" role="img" aria-hidden="true"><rect x="8" y="8" width="240" height="240" rx="56" fill="#C8FF00"/><!-- Iconic Drills Pack © 2026 Roman Kuzhel, Kyrgyzstan | CC BY 4.0 | https://github.com/roblo3x/iconic-drills-pack --><path d="M39 63C39 59.28 41.16 49 42 46C42.84 43 44.32 40.16 46 38C47.68 35.84 51.8 29.68 56 28C60.2 26.32 77.4 24.24 81 24C84.6 23.76 84.8 25.04 86 26C87.2 26.96 89.56 31.04 91 32C92.44 32.96 96.32 32.32 98 34C99.68 35.68 104.16 43.96 105 46C105.84 48.04 105.6 49.8 105 51C104.4 52.2 102.52 54.08 100 56C97.48 57.92 86.28 65.68 84 67C81.72 68.32 80.76 65.32 81 67C81.24 68.68 84.2 79.68 86 81C87.8 82.32 93.96 79.08 96 78C98.04 76.92 99.88 73.08 103 72C106.12 70.92 119.6 70.32 122 69C124.4 67.68 123.48 61.96 123 61C122.52 60.04 118.96 61.36 118 61C117.04 60.64 115.36 58.84 115 58C114.64 57.16 114.52 54.96 115 54C115.48 53.04 117.32 50.84 119 50C120.68 49.16 126.48 47.36 129 47C131.52 46.64 138.56 46.76 140 47C141.44 47.24 140.88 48.04 141 49C141.12 49.96 142.08 53.92 141 55C139.92 56.08 133.08 56.56 132 58C130.92 59.44 129.84 65.92 132 67C134.16 68.08 145.68 65.92 150 67C154.32 68.08 165.36 74.92 168 76C170.64 77.08 171.04 77.8 172 76C172.96 74.2 176.84 63.28 176 61C175.16 58.72 167.04 58.08 165 57C162.96 55.92 159.96 53.68 159 52C158.04 50.32 156.88 44.8 157 43C157.12 41.2 158.2 38.8 160 37C161.8 35.2 168.16 29.32 172 28C175.84 26.68 188.76 26.24 192 26C195.24 25.76 196.84 24.92 199 26C201.16 27.08 208.2 33.44 210 35C211.8 36.56 213.16 37.32 214 39C214.84 40.68 217.12 45.76 217 49C216.88 52.24 214.44 63.24 213 66C211.56 68.76 206.56 71.28 205 72C203.44 72.72 202.4 72.72 200 72C197.6 71.28 187.52 65.04 185 66C182.48 66.96 179.72 77.96 179 80C178.28 82.04 177.8 81.68 179 83C180.2 84.32 186.96 88.84 189 91C191.04 93.16 193.48 95.6 196 101C198.52 106.4 208.32 130.12 210 136C211.68 141.88 210.48 145.8 210 150C209.52 154.2 208.28 166.08 206 171C203.72 175.92 192.8 188.12 191 191C189.2 193.88 189.8 192.36 191 195C192.2 197.64 199.8 210.24 201 213C202.2 215.76 201.6 216.92 201 218C200.4 219.08 197.44 221.64 196 222C194.56 222.36 190.68 222.32 189 221C187.32 219.68 183.2 213.28 182 211C180.8 208.72 179.96 203.08 179 202C178.04 200.92 176.04 201.28 174 202C171.96 202.72 165.96 206.68 162 208C158.04 209.32 146.64 212.4 141 213C135.36 213.6 121.12 213.84 115 213C108.88 212.16 93.96 204.08 90 206C86.04 207.92 84.4 225.88 82 229C79.6 232.12 71.68 232.72 70 232C68.32 231.28 67.04 226.6 68 223C68.96 219.4 76.8 205.12 78 202C79.2 198.88 79.56 198.92 78 197C76.44 195.08 67.28 188.76 65 186C62.72 183.24 59.72 176.52 59 174C58.28 171.48 59.72 168.48 59 165C58.28 161.52 53.72 149.2 53 145C52.28 140.8 52.64 133.24 53 130C53.36 126.76 54.68 121 56 118C57.32 115 63.04 107.04 64 105C64.96 102.96 62.56 102.8 64 101C65.44 99.2 74.56 91.92 76 90C77.44 88.08 76.36 85.84 76 85C75.64 84.16 73.72 84.2 73 83C72.28 81.8 72.28 75 70 75C67.72 75 56.88 82.04 54 83C51.12 83.96 47.44 83.72 46 83C44.56 82.28 42.84 79.4 42 77C41.16 74.6 39 66.72 39 63ZM66 145C66.12 150.88 68.8 162.92 70 167C71.2 171.08 74.68 176.96 76 179C77.32 181.04 79.8 183.28 81 184C82.2 184.72 84.56 183.8 86 185C87.44 186.2 89.16 192.08 93 194C96.84 195.92 112.72 200.16 118 201C123.28 201.84 131.72 201.72 137 201C142.28 200.28 157.44 196.44 162 195C166.56 193.56 172.6 190.44 175 189C177.4 187.56 179.72 186.36 182 183C184.28 179.64 192.44 166.88 194 161C195.56 155.12 196.08 140.12 195 134C193.92 127.88 186.68 113 185 110C183.32 107 182.2 108.88 181 109C179.8 109.12 176.32 111.12 175 111C173.68 110.88 170.48 108.84 170 108C169.52 107.16 170.16 104.6 171 104C171.84 103.4 176.4 103.72 177 103C177.6 102.28 176.6 99.08 176 98C175.4 96.92 175.48 96.04 172 94C168.52 91.96 153.48 82.68 147 81C140.52 79.32 123.52 79.4 118 80C112.48 80.6 103.88 84.8 101 86C98.12 87.2 95.44 88.8 94 90C92.56 91.2 90.92 94.68 89 96C87.08 97.32 80.4 98.36 78 101C75.6 103.64 70.44 112.72 69 118C67.56 123.28 65.88 139.12 66 145ZM74 160C74.36 159.28 76.92 157.24 78 157C79.08 156.76 82.76 157.16 83 158C83.24 158.84 80.96 163.4 80 164C79.04 164.6 75.72 163.48 75 163C74.28 162.52 73.64 160.72 74 160ZM75 130C75.36 129.16 80.04 126.76 81 127C81.96 127.24 83.36 131.16 83 132C82.64 132.84 78.96 134.24 78 134C77.04 133.76 74.64 130.84 75 130ZM86 180C86.36 178.92 88.16 175.6 89 175C89.84 174.4 92.4 174.4 93 175C93.6 175.6 94.24 179.04 94 180C93.76 180.96 91.96 182.52 91 183C90.04 183.48 86.6 184.36 86 184C85.4 183.64 85.64 181.08 86 180ZM110 184C110.72 182.92 115.4 182.8 116 184C116.6 185.2 115.72 192.92 115 194C114.28 195.08 110.6 194.2 110 193C109.4 191.8 109.28 185.08 110 184ZM127 133C127.36 131.8 129.76 134.92 130 130C130.24 125.08 128.88 97.04 129 92C129.12 86.96 130.28 88.6 131 88C131.72 87.4 134.16 86.64 135 87C135.84 87.36 137.28 85.84 138 91C138.72 96.16 137.64 124.12 141 130C144.36 135.88 161.92 138.68 166 140C170.08 141.32 173.56 140.64 175 141C176.44 141.36 177.64 142.4 178 143C178.36 143.6 178.48 145.16 178 146C177.52 146.84 175.92 149.4 174 150C172.08 150.6 164.64 151.24 162 151C159.36 150.76 153.92 148.96 152 148C150.08 147.04 148.28 143.48 146 143C143.72 142.52 135.28 144.36 133 144C130.72 143.64 127.72 141.32 127 140C126.28 138.68 126.64 134.2 127 133ZM131 186C131.12 184.92 132.28 184.12 133 184C133.72 183.88 136.52 183.8 137 185C137.48 186.2 137.6 193.04 137 194C136.4 194.96 132.72 193.96 132 193C131.28 192.04 130.88 187.08 131 186ZM157 183C157.48 182.4 160.16 181.76 161 182C161.84 182.24 163.64 184.16 164 185C164.36 185.84 164.48 188.4 164 189C163.52 189.6 160.84 190.24 160 190C159.16 189.76 157.36 187.84 157 187C156.64 186.16 156.52 183.6 157 183ZM170 173C170.72 172.52 174.92 171.88 176 172C177.08 172.12 178.64 173.4 179 174C179.36 174.6 179.6 176.4 179 177C178.4 177.6 175.08 179.12 174 179C172.92 178.88 170.48 176.72 170 176C169.52 175.28 169.28 173.48 170 173Z" fill="#090909" fill-rule="evenodd"/></svg>
