<svg xmlns="http://www.w3.org/2000/svg" viewBox="0 0 256 256" role="img" aria-hidden="true"><rect x="8" y="8" width="240" height="240" rx="56" fill="#0AF40B"/><path d="M194 200L201 213L201 218L196 222L188 220L179 202L174 202L162 208L141 213L115 213L90 206L82 229L75 232L69 231L68 223L78 202L78 197L65 186L59 174L59 165L53 145L53 130L56 118L64 105L64 101L76 90L76 85L73 83L70 75L48 84L44 81L39 67L42 46L46 38L56 28L81 24L86 26L91 32L98 34L103 40L105 51L92 62L81 67L86 81L96 78L103 72L122 69L123 61L118 61L115 58L115 54L119 50L129 47L140 47L141 49L141 55L132 58L132 67L150 67L168 76L172 76L176 61L165 57L157 48L160 37L172 28L199 26L214 39L217 53L213 66L205 72L200 72L185 66L179 80L179 83L189 91L196 101L210 136L210 150L206 171L191 191ZM138 96L141 130L149 134L157 135L163 139L177 142L178 146L176 149L162 151L152 148L146 143L133 144L127 140L127 133L130 130L129 92L131 88L135 87L138 91ZM111 199L118 201L137 201L167 193L182 183L194 161L195 134L188 115L184 109L179 111L172 110L170 106L171 104L177 103L176 98L166 90L147 81L118 80L109 82L94 90L89 96L79 100L69 118L66 148L70 167L76 179L81 184L86 185L93 194ZM137 194L133 194L131 191L131 186L133 184L138 187ZM157 185L158 182L161 182L164 185L164 189L160 190ZM78 128L81 127L83 129L81 134L75 131ZM77 163L75 163L74 160L78 157L82 157L82 163ZM116 184L116 192L115 194L111 194L110 184ZM93 176L94 180L86 184L88 176ZM178 173L179 177L177 179L170 176L171 172Z" fill="#090909" fill-rule="evenodd"/></svg>
