<svg xmlns="http://www.w3.org/2000/svg" viewBox="0 0 256 256" role="img" aria-hidden="true"><rect x="8" y="8" width="240" height="240" rx="56" fill="#0AF40B"/><!-- Iconic Drills Pack © 2026 Roman Kuzhel, Kyrgyzstan | CC BY 4.0 | https://github.com/roblo3x/iconic-drills-pack --><path d="M212 155L172 149L164 149L158 155L166 178L182 207L185 224L180 231L172 232L166 227L157 207L146 191L136 169L133 167L114 169L96 204L90 208L83 207L76 202L75 191L91 151L91 145L87 139L79 135L45 149L35 148L31 141L31 134L37 128L77 115L80 112L80 108L40 103L34 96L35 91L43 86L80 90L91 90L95 86L94 76L78 40L79 29L85 24L90 24L96 32L113 77L120 77L125 74L136 51L150 32L155 30L161 31L164 35L164 42L147 80L149 87L154 91L160 91L202 65L207 66L216 76L215 81L210 86L180 107L169 112L167 115L167 121L169 123L210 123L219 126L224 133L224 144L218 153Z" fill="#090909" fill-rule="evenodd"/></svg>
