<svg xmlns="http://www.w3.org/2000/svg" viewBox="0 0 256 256" role="img" aria-hidden="true"><rect x="8" y="8" width="240" height="240" rx="56" fill="#C8FF00"/><!-- Iconic Drills Pack © 2026 Roman Kuzhel, Kyrgyzstan | CC BY 4.0 | https://github.com/roblo3x/iconic-drills-pack --><path d="M41.82705,125.97195c8.15923,-2.8902 16.54283,-5.20257 24.82095,-7.72383c4.12162,-1.25532 13.96241,-2.33511 13.58432,-8.26089c-0.26848,-4.2079 -6.5416,-3.4412 -9.42118,-3.52231c-9.57134,-0.26959 -20.61333,0.41573 -29.68835,-3.20696c-5.01064,-2.00022 -10.00341,-9.16744 -5.07331,-13.89427c3.18636,-3.05498 9.04245,-3.39145 13.18455,-3.32526c9.93965,0.15883 19.96768,1.88845 29.84524,2.92559c3.50972,0.36852 12.49076,2.78883 15.08658,-0.47012c3.03959,-3.81609 0.34165,-11.25718 -1.25247,-15.07039c-4.58882,-10.97668 -11.04781,-21.50825 -14.64969,-32.86367c-2.06072,-6.4967 0.52839,-16.20979 8.68866,-16.84903c4.93042,-0.38623 7.62214,5.07679 9.24661,8.84459c4.73856,10.99059 8.26014,22.56138 12.4686,33.76355c1.18393,3.15141 3.20699,12.64564 7.6722,12.44865c6.36752,-0.28091 9.576,-6.29849 12.13025,-11.1242c4.95817,-9.36742 9.27053,-19.32483 14.95587,-28.27727c3.91682,-6.16764 10.23071,-11.8534 17.70891,-7.44723c6.0925,3.58971 2.63223,10.91603 0.50058,15.82236c-3.45277,7.94708 -7.16306,15.78274 -10.7775,23.65687c-1.39002,3.02818 -4.39537,7.38561 -4.2016,10.82251c0.13139,2.3305 2.48005,4.58452 4.04156,6.08856c5.67887,5.46985 12.17102,1.46224 17.75183,-1.9921c8.50118,-5.26196 16.81353,-10.82787 25.24111,-16.20598c2.86215,-1.8265 6.79891,-5.34825 10.29115,-5.66573c1.95476,-0.17771 3.10439,1.40255 4.29963,2.64432c2.45401,2.54956 6.39704,5.63871 7.4337,9.15449c1.71632,5.8208 -6.47932,10.34213 -10.26618,13.05298c-9.05103,6.47925 -18.15313,14.04083 -28.07232,19.13686c-3.9011,2.00421 -9.41129,2.68654 -10.32563,7.74429c-0.25588,1.41544 -0.63381,3.98182 -0.03447,5.37241c0.69481,1.61211 3.00834,1.43465 4.38613,1.47945c4.6568,0.15141 9.33922,-0.00601 13.99749,-0.04521c2.66623,-0.02244 5.33245,-0.04617 7.9987,-0.0654c9.98844,-0.07204 28.23678,-2.73107 30.60385,11.01414c0.44324,2.57384 0.22087,5.37357 -0.05419,7.95381c-0.67506,6.33254 -5.26446,13.05086 -12.13987,13.60999c-4.54612,0.3697 -9.39977,-0.89345 -13.84431,-1.70526c-7.21294,-1.31747 -14.40524,-2.74861 -21.62351,-4.03676c-5.3529,-0.95526 -12.72561,-2.73965 -16.7696,2.25645c-3.42221,4.22793 1.06226,12.48301 2.67516,16.77602c5.37262,14.30014 16.16723,26.49274 20.67743,40.96932c2.10569,6.75872 4.50635,17.53273 -3.58239,21.33399c-4.37958,2.05816 -9.34507,0.87786 -12.33234,-2.86534c-4.45757,-5.58556 -6.10005,-13.52768 -9.34848,-19.8364c-4.6143,-8.96134 -11.36709,-16.2213 -15.50474,-25.55727c-2.00408,-4.5219 -4.23674,-14.83019 -9.79647,-15.84975c-5.13395,-0.94148 -12.93947,-1.66291 -17.4125,1.57193c-6.25249,4.52173 -9.51804,15.65999 -12.66313,22.42809c-3.37443,7.26165 -6.01962,18.45319 -16.03992,16.60047c-5.56896,-1.02968 -11.73872,-5.05572 -12.07997,-11.27797c-0.18021,-3.28582 1.25631,-6.57502 2.41005,-9.5728c3.59087,-9.33016 7.53726,-18.5244 11.29126,-27.7894c2.71153,-6.69213 5.40705,-11.87191 0.49505,-18.23584c-1.88099,-2.43699 -4.49864,-5.25822 -7.77205,-5.52359c-3.763,-0.30506 -7.86256,2.28645 -11.14362,3.82158c-7.14992,3.34529 -14.28996,7.58934 -22.10492,9.13142c-3.4792,0.68653 -8.34184,1.79846 -11.66372,0.04004c-4.67787,-2.47621 0.97173,-20.36988 6.15101,-22.2045z" fill="#090909" fill-rule="evenodd"/></svg>
