<svg xmlns="http://www.w3.org/2000/svg" viewBox="0 0 256 256" role="img" aria-hidden="true"><rect x="8" y="8" width="240" height="240" rx="56" fill="#0AF40B"/><!-- Iconic Drills Pack © 2026 Roman Kuzhel, Kyrgyzstan | CC BY 4.0 | https://github.com/roblo3x/iconic-drills-pack --><path d="M151 137L145 130L140 130L136 134L127 170L122 202L118 213L109 227L101 231L91 232L81 228L74 221L68 205L69 195L75 190L84 191L87 196L88 211L93 215L100 212L109 188L113 158L123 118L122 116L117 116L100 125L91 133L85 133L82 129L81 118L76 113L60 112L47 118L40 119L36 112L52 88L80 62L104 48L124 41L137 39L141 27L150 25L156 31L155 41L179 53L191 65L198 76L215 123L219 151L217 174L214 177L207 177L202 170L200 158L192 147L185 143L177 142L169 148L164 156L158 157L154 153L153 140Z" fill="#090909" fill-rule="evenodd"/></svg>
