<svg xmlns="http://www.w3.org/2000/svg" viewBox="0 0 256 256" role="img" aria-hidden="true"><rect x="8" y="8" width="240" height="240" rx="56" fill="#C8FF00"/><!-- Iconic Drills Pack © 2026 Roman Kuzhel, Kyrgyzstan | CC BY 4.0 | https://github.com/roblo3x/iconic-drills-pack --><path d="M182 152L178 160L193 181L196 190L196 203L189 217L181 224L166 229L140 232L111 231L69 225L58 219L50 209L45 196L44 185L45 177L52 161L61 152L75 143L74 125L55 112L33 114L28 110L28 105L34 101L45 100L45 95L40 86L40 80L44 77L48 77L54 84L60 102L74 111L77 111L82 102L89 95L87 79L88 66L92 53L99 42L108 33L118 27L134 24L145 25L162 34L172 47L174 53L174 71L169 83L169 90L179 100L185 110L188 122L188 135L200 141L205 141L219 135L226 136L228 140L225 146L213 150L214 155L221 163L221 167L216 171L209 168L199 153L188 148L183 148ZM143 43L136 40L125 41L111 51L106 61L105 74L112 90L112 99L101 111L97 119L97 131L102 141L102 149L97 156L81 167L76 178L79 192L88 200L99 204L135 205L148 200L154 192L154 180L151 175L141 167L139 155L144 149L154 145L160 139L163 132L163 122L158 113L139 104L132 95L133 83L149 68L151 62L150 52ZM138 63L134 67L129 67L126 64L126 59L129 55L135 55L138 58Z" fill="#090909" fill-rule="evenodd"/></svg>
