<svg xmlns="http://www.w3.org/2000/svg" viewBox="0 0 256 256" role="img" aria-hidden="true"><rect x="8" y="8" width="240" height="240" rx="56" fill="#C8FF00"/><!-- Iconic Drills Pack © 2026 Roman Kuzhel, Kyrgyzstan | CC BY 4.0 | https://github.com/roblo3x/iconic-drills-pack --><path d="M188 227L163 231L123 232L83 228L63 223L57 220L44 204L25 165L27 156L38 154L117 170L128 170L128 159L126 157L93 149L62 148L55 141L55 133L68 95L86 63L107 43L134 25L140 25L142 27L140 58L148 120L152 133L164 151L163 159L159 161L144 162L145 172L151 174L187 174L211 166L224 166L230 171L229 183L214 213L205 221ZM171 210L178 209L183 205L183 196L179 193L158 194L155 198L156 206L163 210ZM103 189L97 184L80 182L76 185L76 197L81 203L99 205L104 201Z" fill="#090909" fill-rule="evenodd"/></svg>
