<svg xmlns="http://www.w3.org/2000/svg" viewBox="0 0 256 256" role="img" aria-hidden="true"><rect x="8" y="8" width="240" height="240" rx="56" fill="#C8FF00"/><!-- Iconic Drills Pack © 2026 Roman Kuzhel, Kyrgyzstan | CC BY 4.0 | https://github.com/roblo3x/iconic-drills-pack --><path d="M25 159C25.6 157.32 29.44 154.6 31 154C32.56 153.4 27.68 152.08 38 154C48.32 155.92 106.2 168.08 117 170C127.8 171.92 126.68 171.32 128 170C129.32 168.68 128.24 160.56 128 159C127.76 157.44 130.2 158.2 126 157C121.8 155.8 100.68 150.08 93 149C85.32 147.92 66.56 148.96 62 148C57.44 147.04 55.84 142.8 55 141C54.16 139.2 53.44 138.52 55 133C56.56 127.48 64.28 103.4 68 95C71.72 86.6 80.36 69.96 86 63C91.64 56.04 109.24 41.56 115 37C120.76 32.44 131 26.44 134 25C137 23.56 139.04 24.76 140 25C140.96 25.24 142 23.04 142 27C142 30.96 139.4 47.44 140 58C140.6 68.56 145.56 106 147 115C148.44 124 149.96 128.68 152 133C154.04 137.32 162.68 147.88 164 151C165.32 154.12 163.6 157.8 163 159C162.4 160.2 161.28 160.64 159 161C156.72 161.36 145.68 160.68 144 162C142.32 163.32 144.16 170.56 145 172C145.84 173.44 145.96 173.76 151 174C156.04 174.24 179.8 174.96 187 174C194.2 173.04 206.56 166.96 211 166C215.44 165.04 221.72 165.4 224 166C226.28 166.6 229.28 169.32 230 171C230.72 172.68 231.92 174.96 230 180C228.08 185.04 217.72 207.72 214 213C210.28 218.28 203.08 222.08 199 224C194.92 225.92 186.24 228.04 180 229C173.76 229.96 156.96 231.88 147 232C137.04 232.12 105.28 230.6 97 230C88.72 229.4 82.8 228.2 78 227C73.2 225.8 60.36 221.68 57 220C53.64 218.32 52.64 216.84 50 213C47.36 209.16 37.88 193.4 35 188C32.12 182.6 27.2 171.48 26 168C24.8 164.52 24.4 160.68 25 159ZM76 185C75.52 186.8 75.4 194.84 76 197C76.6 199.16 78.24 202.04 81 203C83.76 203.96 96.24 205.24 99 205C101.76 204.76 103.4 202.68 104 201C104.6 199.32 104.36 192.8 104 191C103.64 189.2 103.16 187.08 101 186C98.84 184.92 88.52 182.48 86 182C83.48 181.52 81.2 181.64 80 182C78.8 182.36 76.48 183.2 76 185ZM155 198C154.4 199.56 155.04 204.56 156 206C156.96 207.44 160.36 209.64 163 210C165.64 210.36 175.48 209.96 178 209C180.52 208.04 183.4 203.56 184 202C184.6 200.44 183.6 197.08 183 196C182.4 194.92 181.64 193.36 179 193C176.36 192.64 163.88 192.4 161 193C158.12 193.6 155.6 196.44 155 198Z" fill="#090909" fill-rule="evenodd"/></svg>
