<svg xmlns="http://www.w3.org/2000/svg" viewBox="0 0 256 256" role="img" aria-hidden="true"><rect x="8" y="8" width="240" height="240" rx="56" fill="#C8FF00"/><!-- Iconic Drills Pack © 2026 Roman Kuzhel, Kyrgyzstan | CC BY 4.0 | https://github.com/roblo3x/iconic-drills-pack --><path d="M31 59C31.24 54.8 33.92 47.64 35 45C36.08 42.36 38.32 38.92 40 37C41.68 35.08 46.36 30.56 49 29C51.64 27.44 58.52 24.6 62 24C65.48 23.4 74.4 23.52 78 24C81.6 24.48 87.92 26.08 92 28C96.08 29.92 108.4 36.76 112 40C115.6 43.24 120.56 52.12 122 55C123.44 57.88 123.88 59.32 124 64C124.12 68.68 122.76 88.96 123 94C123.24 99.04 125.16 104.56 126 106C126.84 107.44 128.68 107.92 130 106C131.32 104.08 135.56 94.8 137 90C138.44 85.2 140.68 70.2 142 66C143.32 61.8 145.72 57.76 148 55C150.28 52.24 157.16 45.28 161 43C164.84 40.72 175.56 36.84 180 36C184.44 35.16 194.52 35.52 198 36C201.48 36.48 206.72 38.68 209 40C211.28 41.32 215.2 44.36 217 47C218.8 49.64 223.04 58.28 224 62C224.96 65.72 225.24 74.4 225 78C224.76 81.6 223.2 88.64 222 92C220.8 95.36 217.52 102.76 215 106C212.48 109.24 204.12 116.72 201 119C197.88 121.28 193.68 123.32 189 125C184.32 126.68 166.2 131.44 162 133C157.8 134.56 154.72 136.68 154 138C153.28 139.32 155.04 142.68 156 144C156.96 145.32 159.48 145.88 162 149C164.52 152.12 173.52 163.88 177 170C180.48 176.12 188.96 193.88 191 200C193.04 206.12 194.12 217.28 194 221C193.88 224.72 191.44 229.68 190 231C188.56 232.32 183.92 232.6 182 232C180.08 231.4 175.68 227.92 174 226C172.32 224.08 170.88 219.36 168 216C165.12 212.64 155.16 204.12 150 198C144.84 191.88 128.72 168.6 125 165C121.28 161.4 122.48 164.04 119 168C115.52 171.96 101.76 191.4 96 198C90.24 204.6 75.44 219.04 71 223C66.56 226.96 60.92 230.04 59 231C57.08 231.96 55.96 231.36 55 231C54.04 230.64 51.72 228.96 51 228C50.28 227.04 49.24 225.28 49 223C48.76 220.72 48.28 212.72 49 209C49.72 205.28 51.64 198.36 55 192C58.36 185.64 72.2 162.12 77 156C81.8 149.88 92.36 143.28 95 141C97.64 138.72 98.52 137.84 99 137C99.48 136.16 100.8 135.92 99 134C97.2 132.08 89.16 124.36 84 121C78.84 117.64 60.92 109.12 56 106C51.08 102.88 45.76 98.12 43 95C40.24 91.88 34.44 84.32 33 80C31.56 75.68 30.76 63.2 31 59ZM58 62C57.64 64.64 57.56 72.64 59 76C60.44 79.36 66.52 87 70 90C73.48 93 85 99.68 88 101C91 102.32 93.8 101.36 95 101C96.2 100.64 97.52 100.88 98 98C98.48 95.12 99.12 80.48 99 77C98.88 73.52 98.56 72 97 69C95.44 66 88.16 54.4 86 52C83.84 49.6 80.92 49.36 79 49C77.08 48.64 72.04 48.4 70 49C67.96 49.6 63.44 52.44 62 54C60.56 55.56 58.36 59.36 58 62ZM122 136C121.52 137.08 121.64 140.04 122 141C122.36 141.96 123.8 143.64 125 144C126.2 144.36 130.92 144.24 132 144C133.08 143.76 133.76 143.08 134 142C134.24 140.92 134.24 136.08 134 135C133.76 133.92 132.96 133.36 132 133C131.04 132.64 127.2 131.64 126 132C124.8 132.36 122.48 134.92 122 136ZM160 87C159.28 90.6 159.76 99.72 160 102C160.24 104.28 160.68 105.28 162 106C163.32 106.72 168.96 108.12 171 108C173.04 107.88 176.36 106.8 179 105C181.64 103.2 190.84 95.4 193 93C195.16 90.6 196.28 87.64 197 85C197.72 82.36 199.12 73.52 199 71C198.88 68.48 197.08 65.32 196 64C194.92 62.68 191.56 60.48 190 60C188.44 59.52 184.92 59.52 183 60C181.08 60.48 176.04 62.56 174 64C171.96 65.44 167.68 69.24 166 72C164.32 74.76 160.72 83.4 160 87Z" fill="#090909" fill-rule="evenodd"/></svg>
