<svg xmlns="http://www.w3.org/2000/svg" viewBox="0 0 256 256" role="img" aria-hidden="true"><rect x="8" y="8" width="240" height="240" rx="56" fill="#0AF40B"/><!-- Iconic Drills Pack © 2026 Roman Kuzhel, Kyrgyzstan | CC BY 4.0 | https://github.com/roblo3x/iconic-drills-pack --><path d="M43 111L47 107L55 104L55 101L39 98L36 94L36 89L39 86L45 86L47 88L59 90L54 72L58 68L63 68L68 73L74 95L79 97L83 96L80 78L82 74L88 72L95 80L96 104L130 122L134 122L136 100L127 94L126 87L130 83L138 85L139 64L133 59L124 56L120 51L120 46L123 43L128 43L134 48L139 49L135 36L136 31L139 28L143 28L146 34L149 34L150 28L157 24L161 27L161 34L156 47L161 46L167 41L172 41L175 43L175 49L152 65L150 84L161 81L164 84L164 89L159 95L148 102L147 119L151 119L173 100L176 74L180 67L186 67L188 69L189 75L186 87L191 86L194 74L199 67L205 69L206 75L213 72L218 74L219 79L215 84L206 89L206 93L214 96L216 99L217 103L213 108L207 108L201 102L192 99L187 103L187 107L195 111L196 116L194 120L187 121L178 115L173 115L152 133L152 138L179 166L190 163L210 163L213 167L210 174L193 175L191 179L192 181L212 183L217 187L217 192L214 195L201 193L204 201L203 205L199 208L192 205L190 197L186 193L182 193L181 201L178 205L170 205L168 196L172 189L174 178L146 148L143 148L140 181L151 190L152 194L149 198L143 198L141 195L137 195L136 203L142 211L146 213L147 221L141 223L136 218L133 218L132 229L129 232L124 232L121 228L122 217L111 219L108 213L111 209L122 205L125 201L125 197L117 197L114 191L127 181L131 150L125 151L102 167L101 180L98 186L92 186L89 182L89 178L84 179L80 183L75 183L72 179L73 174L69 174L65 170L65 167L71 163L82 164L82 161L70 156L69 149L71 147L77 146L93 156L98 156L123 139L126 133L95 117L91 117L77 127L72 127L69 125L68 119L70 115L77 112L75 108L68 108L51 121L43 119Z" fill="#090909" fill-rule="evenodd"/></svg>
