<svg xmlns="http://www.w3.org/2000/svg" viewBox="0 0 256 256" role="img" aria-hidden="true"><rect x="8" y="8" width="240" height="240" rx="56" fill="#C8FF00"/><!-- Iconic Drills Pack © 2026 Roman Kuzhel, Kyrgyzstan | CC BY 4.0 | https://github.com/roblo3x/iconic-drills-pack --><path d="M56.96308,90.06193c2.66588,-0.77524 1.18563,-4.37943 0.6647,-6.08588c-1.57972,-5.17474 -7.33636,-17.30846 3.40953,-16.21771c9.08345,0.922 8.75768,15.10184 10.45273,21.64854c1.00791,3.8928 3.19866,7.35172 7.70588,7.41524c2.98654,0.04209 3.67016,-2.40885 3.748,-4.92197c0.15203,-4.90802 -3.97203,-10.7812 -2.42733,-15.45316c1.26624,-3.82975 6.14694,-5.24638 9.35547,-3.0977c9.73169,6.51711 1.75972,18.87575 4.95553,27.94797c1.14762,3.25785 4.00287,5.12245 6.8213,6.82803c5.70283,3.45107 11.80646,6.27675 17.84814,9.07387c3.02973,1.40268 6.07741,2.76594 9.11089,4.1604c1.08079,0.49683 3.4075,2.06945 4.689,1.13373c1.27058,-0.92774 1.30115,-3.70495 1.50222,-5.04438c0.74619,-4.97084 3.54503,-15.17145 -0.38736,-19.25279c-3.29665,-3.42153 -8.76946,-3.23932 -8.38644,-9.36608c0.03982,-0.63695 0.14494,-1.27911 0.3572,-1.88097c2.40236,-6.81186 7.19337,-0.00314 10.81552,-2.35041c1.49535,-0.96904 1.49545,-3.55442 1.63953,-5.06109c0.42814,-4.47697 0.92905,-9.51948 0.24212,-13.98646c-1.51062,-9.82325 -22.31066,-6.58216 -18.97666,-18.77701c1.92875,-7.05484 8.81282,-3.00175 12.31254,-0.29223c0.93992,0.72769 4.7932,3.74101 5.85262,1.54173c0.69084,-1.43413 -0.5651,-3.91425 -1.00518,-5.22115c-1.46245,-4.34295 -4.47032,-13.77836 2.9561,-14.92957c3.97724,-0.61653 4.56051,6.76547 7.6884,5.64371c1.65054,-0.59194 1.64698,-3.29132 2.10279,-4.59071c1.33779,-3.81369 7.87638,-6.53732 10.50216,-2.25736c2.39486,3.90358 -0.30993,9.55762 -1.83957,13.22461c-0.50298,1.20579 -2.9567,5.34716 -1.55038,6.60279c1.19363,1.06574 3.74907,-0.7377 4.62718,-1.33726c2.13923,-1.46064 3.84449,-3.68291 6.4926,-4.27493c3.46486,-0.77462 8.47667,1.6752 7.57061,5.88361c-0.85002,3.94812 -7.39794,6.55169 -10.47416,8.4654c-4.65109,2.89343 -11.28685,5.98653 -13.86744,11.08382c-1.47996,2.92327 -1.80287,6.49067 -1.96046,9.71166c-0.08954,1.83014 -0.29896,4.10057 0.30219,5.87344c2.0774,6.1265 10.98565,-4.69265 13.89013,1.92714c1.69593,3.8653 -1.06835,7.78008 -3.85669,10.2306c-5.48944,4.82438 -11.99868,4.90716 -12.77343,13.44264c-0.28411,3.13008 -0.67602,6.83793 -0.03453,9.94062c0.18966,0.91734 0.48151,2.10686 1.6575,2.26362c2.8678,0.38228 7.48898,-4.48849 9.58976,-6.09412c5.32429,-4.06936 12.88439,-8.85892 15.36602,-15.37601c1.63389,-4.29082 1.63549,-9.29987 1.8342,-13.82748c0.22848,-5.20578 -0.73376,-15.64706 5.90495,-17.53661c10.23723,-2.91378 6.8068,11.01163 5.64719,15.81523c-0.39747,1.64647 -0.84264,5.41626 2.25095,4.07923c2.43498,-1.05238 2.83104,-4.2823 3.31944,-6.51893c0.8958,-4.10231 1.92695,-9.75299 5.76501,-12.27604c6.55264,-4.30755 5.90719,6.76251 9.73161,6.06012c3.53583,-0.64939 7.50381,-3.65454 10.1381,0.81524c4.94419,8.38914 -9.94276,9.98679 -12.01978,14.99724c-1.14927,2.7724 2.16658,3.96637 4.06839,4.6975c4.76346,1.83127 9.12691,6.8606 4.55973,11.61952c-8.42104,8.77458 -18.47155,-15.63305 -26.79872,-4.03655c-4.56828,6.36184 9.21135,6.92577 7.77383,14.136c-0.25252,1.26656 -0.79159,2.37079 -1.79777,3.21299c-6.50327,5.44342 -11.74097,-3.85798 -17.47605,-4.94782c-2.66154,-0.50577 -4.83257,1.48823 -6.73907,3.00928c-4.69163,3.7431 -9.26055,7.67739 -13.72279,11.69039c-1.74479,1.56913 -5.93894,4.22157 -5.02728,7.05645c0.8966,2.78805 4.21257,5.45396 6.12712,7.57358c5.36532,5.94001 10.80839,11.84897 16.54578,17.43357c2.13319,2.07638 4.76125,5.18491 8.00975,5.24546c2.68642,0.05007 4.74798,-2.03044 7.14924,-2.88223c5.18344,-1.83871 12.46514,-1.14296 17.88517,-0.79421c1.80087,0.11588 3.95425,0.24614 5.20877,1.78235c2.41024,2.95143 0.34139,8.27762 -3.00135,9.44697c-4.36328,1.52636 -9.38783,0.06531 -13.86858,0.90634c-1.99304,0.37409 -4.80793,2.26618 -3.68291,4.75877c0.93776,2.07769 4.92454,1.79976 6.7209,1.95206c5.50767,0.46694 23.18555,0.12565 18.65434,10.52366c-2.47598,5.68178 -9.78777,0.19164 -13.9445,1.21947c-2.02563,0.50088 -1.00327,2.60388 -0.51174,3.81765c1.52659,3.76973 2.29819,10.00111 -3.64483,10.40319c-9.62866,0.65143 -5.7333,-12.31708 -13.28979,-14.42168c-1.11709,-0.31113 -2.16504,-0.23626 -2.94478,0.72968c-1.53017,1.89559 -0.87062,5.17056 -1.71108,7.37981c-1.44794,3.80605 -7.91662,6.34733 -10.89028,2.63676c-6.68024,-8.33569 6.57228,-15.4677 4.87473,-23.63031c-0.77833,-3.74259 -4.36762,-6.90614 -6.82766,-9.62025c-5.38002,-5.93567 -10.96501,-11.69131 -16.58715,-17.39697c-1.85015,-1.87763 -3.65324,-3.86792 -5.61892,-5.62515c-0.18655,-0.16677 -1.42574,-1.53559 -2.11237,-0.95955c-1.60701,1.3482 -1.42716,7.00864 -1.68249,8.95125c-0.78236,5.95243 -1.50396,11.93372 -1.87188,17.92807c-0.19449,3.1687 -0.60381,6.80991 1.23493,9.61335c2.40431,3.66572 8.95374,4.39543 10.29328,8.60504c1.58017,4.96582 -4.83631,7.75646 -8.55076,5.58171c-1.39018,-0.81393 -2.58288,-2.66794 -4.47666,-2.23545c-1.21433,0.27732 -1.7578,1.33997 -2.10953,2.39645c-1.735,5.21125 1.97882,10.48437 5.97956,13.49403c2.86602,2.15604 6.10141,5.26978 4.20365,9.39203c-2.14121,4.65106 -6.82743,1.35298 -9.19181,-0.72641c-1.0284,-0.90443 -2.82933,-2.44288 -4.05065,-0.75749c-2.94778,4.06785 1.31912,13.91233 -7.25869,13.2815c-8.91646,-0.65573 -1.53774,-10.26197 -4.56018,-14.10031c-3.06666,-3.89449 -10.23231,4.58997 -12.77052,-2.39362c-0.21528,-0.59233 -0.35606,-1.22382 -0.37148,-1.85387c-0.21337,-8.71842 15.78504,-5.02765 16.60505,-13.96139c0.47809,-5.20858 -13.30736,-0.63171 -10.55259,-8.35278c1.3368,-3.74677 8.0879,-5.27225 10.71177,-8.22184c5.11498,-5.74992 4.71739,-17.78246 5.35919,-25.06265c0.17196,-1.95063 1.50259,-7.67384 -0.55386,-9.02752c-1.74013,-1.14546 -5.08685,1.77299 -6.40744,2.59128c-6.20745,3.84638 -12.5808,7.69879 -18.28829,12.27283c-2.76537,2.2162 -4.51329,4.53367 -4.6916,8.17972c-0.20531,4.19809 1.46708,9.8967 -2.51637,12.98455c-2.60119,2.01636 -6.52156,0.92266 -8.13049,-1.78429c-0.96478,-1.62319 -0.5874,-5.1723 -3.23054,-5.0684c-3.39923,0.13362 -4.99466,3.88624 -8.15546,4.58748c-3.44844,0.76505 -6.03218,-1.81547 -6.24476,-5.09895c-0.04909,-0.75818 0.29095,-2.37117 -0.28852,-3.13832c-1.79674,-2.37867 -5.60286,-1.3002 -6.80777,-5.04002c-2.33747,-7.25505 9.86911,-6.26626 13.31729,-6.04978c0.78452,0.04925 2.4842,0.21844 3.19309,-0.52422c1.77616,-1.86079 -3.39782,-3.59829 -4.22559,-3.91477c-4.05549,-1.55052 -13.4118,-6.39287 -6.90425,-11.80281c2.75755,-2.29244 6.19556,-1.49465 9.01373,0.09242c4.46878,2.51662 10.06457,8.50215 15.29027,9.01313c3.05937,0.29915 6.2466,-2.55375 8.62653,-4.11483c5.57924,-3.6596 11.13345,-7.38772 16.53342,-11.30828c1.75055,-1.27096 6.67342,-3.76242 6.5048,-6.38093c-0.1769,-2.74704 -5.23759,-4.59011 -7.22712,-5.65524c-6.47341,-3.46567 -13.06724,-6.71949 -19.67745,-9.91488c-2.65067,-1.28134 -5.78825,-3.56006 -8.79227,-2.14617c-5.49692,2.58721 -11.76376,11.98156 -18.56192,9.83659c-4.35849,-1.3752 -5.68287,-7.82625 -2.68574,-11.14019c1.65287,-1.82759 4.96052,-1.86002 6.26633,-3.92289c1.03662,-1.63762 -0.54885,-3.25926 -1.91263,-3.90464c-6.74534,-3.19207 -15.17377,7.29896 -19.97332,10.80205c-2.53756,1.85211 -5.80737,3.63455 -8.87064,1.71284c-7.41997,-4.65483 -0.83833,-12.50907 4.56228,-14.61863c1.24976,-0.48818 5.91723,-1.50466 5.26067,-3.75827c-0.59229,-2.03299 -5.00148,-2.12123 -6.57684,-2.38085c-6.59693,-1.08721 1.89438,-7.71221 8.57379,-9.65458z" fill="#090909" fill-rule="evenodd"/></svg>
