<svg xmlns="http://www.w3.org/2000/svg" viewBox="0 0 256 256" role="img" aria-hidden="true"><rect x="8" y="8" width="240" height="240" rx="56" fill="#C8FF00"/><!-- Iconic Drills Pack © 2026 Roman Kuzhel, Kyrgyzstan | CC BY 4.0 | https://github.com/roblo3x/iconic-drills-pack --><path d="M36 89C36.36 88.04 37.92 86.36 39 86C40.08 85.64 44.04 85.76 45 86C45.96 86.24 45.32 87.52 47 88C48.68 88.48 58.16 91.92 59 90C59.84 88.08 54.12 74.64 54 72C53.88 69.36 56.92 68.48 58 68C59.08 67.52 61.8 67.4 63 68C64.2 68.6 66.8 69.88 68 73C69.2 76.12 71.32 91.12 73 94C74.68 96.88 80.8 97.6 82 97C83.2 96.4 83.24 91.28 83 89C82.76 86.72 80.12 79.8 80 78C79.88 76.2 81.04 74.72 82 74C82.96 73.28 86.44 71.28 88 72C89.56 72.72 94.04 76.16 95 80C95.96 83.84 91.8 98.96 96 104C100.2 109.04 125.44 119.84 130 122C134.56 124.16 133.28 124.64 134 122C134.72 119.36 136.84 103.36 136 100C135.16 96.64 128.2 95.56 127 94C125.8 92.44 125.64 88.32 126 87C126.36 85.68 128.56 83.24 130 83C131.44 82.76 136.92 87.28 138 85C139.08 82.72 139.6 67.12 139 64C138.4 60.88 134.8 59.96 133 59C131.2 58.04 125.56 56.96 124 56C122.44 55.04 120.48 52.2 120 51C119.52 49.8 119.64 46.96 120 46C120.36 45.04 122.04 43.36 123 43C123.96 42.64 126.68 42.4 128 43C129.32 43.6 132.68 47.28 134 48C135.32 48.72 138.88 50.44 139 49C139.12 47.56 135.36 38.16 135 36C134.64 33.84 135.52 31.96 136 31C136.48 30.04 138.16 28.36 139 28C139.84 27.64 142.16 27.28 143 28C143.84 28.72 145.28 33.28 146 34C146.72 34.72 148.52 34.72 149 34C149.48 33.28 149.52 29.08 150 28C150.48 26.92 151.92 25.36 153 25C154.08 24.64 158.04 24.76 159 25C159.96 25.24 160.76 25.92 161 27C161.24 28.08 161.6 31.6 161 34C160.4 36.4 156 45.56 156 47C156 48.44 159.68 46.72 161 46C162.32 45.28 165.68 41.6 167 41C168.32 40.4 171.04 40.76 172 41C172.96 41.24 174.64 42.04 175 43C175.36 43.96 177.76 46.36 175 49C172.24 51.64 155 60.8 152 65C149 69.2 148.92 82.08 150 84C151.08 85.92 159.32 81 161 81C162.68 81 163.64 83.04 164 84C164.36 84.96 164.6 87.68 164 89C163.4 90.32 160.92 93.44 159 95C157.08 96.56 149.44 99.12 148 102C146.56 104.88 146.64 116.96 147 119C147.36 121.04 147.88 121.28 151 119C154.12 116.72 170 105.4 173 100C176 94.6 175.16 77.96 176 74C176.84 70.04 178.8 67.84 180 67C181.2 66.16 185.04 66.76 186 67C186.96 67.24 187.64 68.04 188 69C188.36 69.96 189.24 72.84 189 75C188.76 77.16 185.76 85.68 186 87C186.24 88.32 190.04 87.56 191 86C191.96 84.44 193.04 76.28 194 74C194.96 71.72 197.68 67.6 199 67C200.32 66.4 204.16 68.04 205 69C205.84 69.96 205.04 74.64 206 75C206.96 75.36 211.56 72.12 213 72C214.44 71.88 217.28 73.16 218 74C218.72 74.84 219.36 77.8 219 79C218.64 80.2 216.56 82.8 215 84C213.44 85.2 207.08 87.92 206 89C204.92 90.08 205.04 92.16 206 93C206.96 93.84 212.8 95.28 214 96C215.2 96.72 215.64 98.16 216 99C216.36 99.84 217.36 101.92 217 103C216.64 104.08 214.2 107.4 213 108C211.8 108.6 208.44 108.72 207 108C205.56 107.28 202.8 103.08 201 102C199.2 100.92 193.68 98.88 192 99C190.32 99.12 187.6 102.04 187 103C186.4 103.96 186.04 106.04 187 107C187.96 107.96 193.92 109.92 195 111C196.08 112.08 196.12 114.92 196 116C195.88 117.08 195.08 119.4 194 120C192.92 120.6 188.92 121.6 187 121C185.08 120.4 179.68 115.72 178 115C176.32 114.28 176.12 112.84 173 115C169.88 117.16 154.52 130.24 152 133C149.48 135.76 148.76 134.04 152 138C155.24 141.96 174.44 163 179 166C183.56 169 186.28 163.36 190 163C193.72 162.64 207.24 162.52 210 163C212.76 163.48 213 165.68 213 167C213 168.32 212.4 173.04 210 174C207.6 174.96 195.28 174.4 193 175C190.72 175.6 191.12 178.28 191 179C190.88 179.72 189.48 180.52 192 181C194.52 181.48 209 182.28 212 183C215 183.72 216.4 185.92 217 187C217.6 188.08 217.36 191.04 217 192C216.64 192.96 215.92 194.88 214 195C212.08 195.12 202.2 192.28 201 193C199.8 193.72 203.76 199.56 204 201C204.24 202.44 203.6 204.16 203 205C202.4 205.84 200.32 208 199 208C197.68 208 193.08 206.32 192 205C190.92 203.68 190.72 198.44 190 197C189.28 195.56 186.96 193.48 186 193C185.04 192.52 182.6 192.04 182 193C181.4 193.96 181.48 199.56 181 201C180.52 202.44 179.32 204.52 178 205C176.68 205.48 171.2 206.08 170 205C168.8 203.92 167.76 197.92 168 196C168.24 194.08 171.28 191.16 172 189C172.72 186.84 177.12 182.92 174 178C170.88 173.08 149.72 151.6 146 148C142.28 144.4 143.72 144.04 143 148C142.28 151.96 139.04 175.96 140 181C140.96 186.04 149.56 188.44 151 190C152.44 191.56 152.24 193.04 152 194C151.76 194.96 150.08 197.52 149 198C147.92 198.48 143.96 198.36 143 198C142.04 197.64 141.72 195.36 141 195C140.28 194.64 137.6 194.04 137 195C136.4 195.96 135.4 201.08 136 203C136.6 204.92 140.8 209.8 142 211C143.2 212.2 145.4 211.8 146 213C146.6 214.2 147.6 219.8 147 221C146.4 222.2 142.32 223.36 141 223C139.68 222.64 136.96 218.6 136 218C135.04 217.4 133.48 216.68 133 218C132.52 219.32 132.48 227.32 132 229C131.52 230.68 129.96 231.64 129 232C128.04 232.36 124.96 232.48 124 232C123.04 231.52 121.24 229.8 121 228C120.76 226.2 123.2 218.08 122 217C120.8 215.92 112.68 219.48 111 219C109.32 218.52 108 214.2 108 213C108 211.8 109.32 209.96 111 209C112.68 208.04 120.32 205.96 122 205C123.68 204.04 124.64 201.96 125 201C125.36 200.04 125.96 197.48 125 197C124.04 196.52 118.32 197.72 117 197C115.68 196.28 112.8 192.92 114 191C115.2 189.08 124.96 185.92 127 181C129.04 176.08 131.24 153.6 131 150C130.76 146.4 128.48 148.96 125 151C121.52 153.04 104.88 163.52 102 167C99.12 170.48 101.48 177.72 101 180C100.52 182.28 99.08 185.28 98 186C96.92 186.72 93.08 186.48 92 186C90.92 185.52 89.36 182.96 89 182C88.64 181.04 89.6 178.36 89 178C88.4 177.64 85.08 178.4 84 179C82.92 179.6 81.08 182.52 80 183C78.92 183.48 75.96 183.48 75 183C74.04 182.52 72.24 180.08 72 179C71.76 177.92 73.36 174.6 73 174C72.64 173.4 69.96 174.48 69 174C68.04 173.52 65.48 170.84 65 170C64.52 169.16 64.28 167.84 65 167C65.72 166.16 68.96 163.36 71 163C73.04 162.64 80.68 164.24 82 164C83.32 163.76 83.44 161.96 82 161C80.56 160.04 71.56 157.44 70 156C68.44 154.56 68.88 150.08 69 149C69.12 147.92 70.04 147.36 71 147C71.96 146.64 74.36 144.92 77 146C79.64 147.08 90.48 154.8 93 156C95.52 157.2 94.4 158.04 98 156C101.6 153.96 119.64 141.76 123 139C126.36 136.24 129.36 135.64 126 133C122.64 130.36 99.2 118.92 95 117C90.8 115.08 93.16 115.8 91 117C88.84 118.2 79.28 125.8 77 127C74.72 128.2 72.96 127.24 72 127C71.04 126.76 69.48 125.96 69 125C68.52 124.04 67.88 120.2 68 119C68.12 117.8 68.92 115.84 70 115C71.08 114.16 76.4 112.84 77 112C77.6 111.16 76.08 108.48 75 108C73.92 107.52 70.88 106.44 68 108C65.12 109.56 53.88 119.56 51 121C48.12 122.44 45.08 121.08 44 120C42.92 118.92 41.64 113.56 42 112C42.36 110.44 45.44 107.96 47 107C48.56 106.04 54.04 104.72 55 104C55.96 103.28 56.92 101.72 55 101C53.08 100.28 41.28 98.84 39 98C36.72 97.16 36.36 95.08 36 94C35.64 92.92 35.64 89.96 36 89Z" fill="#090909" fill-rule="evenodd"/></svg>
